G04 ================== begin FILE IDENTIFICATION RECORD ==================*
G04 Layout Name:  X-NUCLEO-IHM07M1_L6230_Nucleo_Shield.brd*
G04 Film Name:    X-NUCLEO-IHM07M1-assembly-top*
G04 File Format:  Gerber RS274X*
G04 File Origin:  Cadence Allegro 16.6-S023*
G04 Origin Date:  Wed Mar 18 16:01:40 2015*
G04 *
G04 Layer:  REF DES/ASSEMBLY_TOP*
G04 Layer:  PACKAGE GEOMETRY/ASSEMBLY_TOP*
G04 Layer:  BOARD GEOMETRY/OUTLINE*
G04 *
G04 Offset:    (0.0000 0.0000)*
G04 Mirror:    No*
G04 Mode:      Positive*
G04 Rotation:  0*
G04 FullContactRelief:  No*
G04 UndefLineWidth:     0.0000*
G04 ================== end FILE IDENTIFICATION RECORD ====================*
%FSLAX35Y35*MOMM*%
%IR0*IPPOS*OFA0.00000B0.00000*MIA0B0*SFA1.00000B1.00000*%
%ADD10C,.15*%
%ADD11C,.05*%
%ADD12C,.0508*%
%ADD13C,.0762*%
%ADD14C,.0765*%
G75*
%LPD*%
G75*
G36*
G01X2210000Y2127300D02*
G02Y1312700I-289984J-407300D01*
G01Y2127300D01*
G37*
G36*
G01X2846840Y2693340D02*
G03I-20000J0D01*
G37*
G36*
G01X3073310Y-514420D02*
Y-905580D01*
X3187610D01*
Y-514420D01*
X3073310D01*
G37*
G36*
G01X3493490Y3616510D02*
Y3583490D01*
X3526510D01*
Y3616510D01*
X3493490D01*
G37*
G36*
G01X3430000Y3640000D02*
Y3560000D01*
X3461740D01*
Y3640000D01*
X3430000D01*
G37*
G36*
G01X4370000Y10000D02*
X4290000D01*
Y-13970D01*
X4370000D01*
Y10000D01*
G37*
G36*
G01X4210000D02*
X4130000D01*
Y-13970D01*
X4210000D01*
Y10000D01*
G37*
G36*
G01X4520000D02*
X4440000D01*
Y-13970D01*
X4520000D01*
Y10000D01*
G37*
G36*
G01X4990000D02*
X4910000D01*
Y-13970D01*
X4990000D01*
Y10000D01*
G37*
G36*
G01X4680000D02*
X4600000D01*
Y-13970D01*
X4680000D01*
Y10000D01*
G37*
G36*
G01X4830000D02*
X4750000D01*
Y-13970D01*
X4830000D01*
Y10000D01*
G37*
G36*
G01X5560000Y-400000D02*
Y-320000D01*
X5536030D01*
Y-400000D01*
X5560000D01*
G37*
G36*
G01X5850000D02*
Y-320000D01*
X5826030D01*
Y-400000D01*
X5850000D01*
G37*
G36*
G01X6150000D02*
Y-320000D01*
X6126030D01*
Y-400000D01*
X6150000D01*
G37*
G54D10*
G01X793380Y706770D02*
X797320Y712610D01*
X799940Y719430D01*
Y727220D01*
X796000Y735980D01*
X789440Y742790D01*
X781570Y747660D01*
X768440Y751560D01*
X756630Y752530D01*
X744820Y750580D01*
X736950Y747660D01*
X729070Y741820D01*
X723820Y735010D01*
X721200Y728190D01*
Y721370D01*
X723820Y714560D01*
X727760Y708720D01*
X733010Y703850D01*
G01X721200Y671840D02*
X799940D01*
X721200Y627060D01*
X799940D01*
G01X721200Y570710D02*
X722510Y563890D01*
X726450Y556110D01*
X733010Y551240D01*
X742200Y549290D01*
X751380Y551240D01*
X759260Y557080D01*
X763200Y565840D01*
Y575580D01*
X765820Y581420D01*
X772380Y586290D01*
X781570Y588240D01*
X790750Y585310D01*
X797320Y578500D01*
X799940Y570710D01*
X797320Y562920D01*
X790750Y556110D01*
X781570Y553180D01*
X772380Y555130D01*
X765820Y560000D01*
X763200Y565840D01*
Y575580D01*
X759260Y584340D01*
X751380Y590180D01*
X742200Y592130D01*
X733010Y590180D01*
X726450Y585310D01*
X722510Y577530D01*
X721200Y570710D01*
G01X783380Y2743370D02*
X787320Y2749210D01*
X789940Y2756030D01*
Y2763820D01*
X786000Y2772580D01*
X779440Y2779390D01*
X771570Y2784260D01*
X758440Y2788160D01*
X746630Y2789130D01*
X734820Y2787180D01*
X726950Y2784260D01*
X719070Y2778420D01*
X713820Y2771610D01*
X711200Y2764790D01*
Y2757970D01*
X713820Y2751160D01*
X717760Y2745320D01*
X723010Y2740450D01*
G01X711200Y2708440D02*
X789940D01*
X711200Y2663660D01*
X789940D01*
G01X744010Y2625810D02*
X753200Y2618990D01*
X758440Y2613150D01*
X761070Y2605360D01*
X758440Y2598550D01*
X753200Y2593680D01*
X745320Y2589780D01*
X736130Y2588810D01*
X728260Y2589780D01*
X720380Y2593680D01*
X713820Y2599520D01*
X711200Y2606340D01*
X713820Y2614130D01*
X721700Y2620940D01*
X733510Y2624840D01*
X746630Y2625810D01*
X763690Y2623860D01*
X772880Y2620940D01*
X782070Y2616070D01*
X788630Y2609260D01*
X789940Y2602440D01*
X787320Y2595630D01*
X780750Y2590760D01*
G01X1624950Y262960D02*
X1617070Y258090D01*
X1611820Y252250D01*
X1609200Y245440D01*
X1611820Y237650D01*
X1617070Y231810D01*
X1624950Y225960D01*
X1635450Y224020D01*
X1687940D01*
G01X1609200Y184220D02*
X1687940D01*
Y160860D01*
X1684000Y153070D01*
X1674820Y147220D01*
X1664320Y145280D01*
X1653820Y147220D01*
X1645940Y152090D01*
X1642010Y160860D01*
Y184220D01*
G01X1674820Y104510D02*
X1682690Y98670D01*
X1686630Y91850D01*
X1687940Y84060D01*
X1685320Y74330D01*
X1678750Y67510D01*
X1670880Y65560D01*
X1663000Y66540D01*
X1656440Y70430D01*
X1643320Y89900D01*
X1634130Y98670D01*
X1621010Y104510D01*
X1609200Y106460D01*
Y65560D01*
G01X1964950Y242960D02*
X1957070Y238090D01*
X1951820Y232250D01*
X1949200Y225440D01*
X1951820Y217650D01*
X1957070Y211810D01*
X1964950Y205960D01*
X1975450Y204020D01*
X2027940D01*
G01X1949200Y164220D02*
X2027940D01*
Y140860D01*
X2024000Y133070D01*
X2014820Y127220D01*
X2004320Y125280D01*
X1993820Y127220D01*
X1985940Y132090D01*
X1982010Y140860D01*
Y164220D01*
G01X1949200Y66010D02*
X2027940D01*
X2012190Y77690D01*
G01X1949200D02*
Y54330D01*
G01X3211160Y-1099900D02*
X3216030Y-1107780D01*
X3221870Y-1113030D01*
X3228680Y-1115650D01*
X3236470Y-1113030D01*
X3242310Y-1107780D01*
X3248160Y-1099900D01*
X3250100Y-1089400D01*
Y-1036910D01*
G01X3309370Y-1115650D02*
Y-1036910D01*
X3297690Y-1052660D01*
G01Y-1115650D02*
X3321050D01*
G01X3564950Y414060D02*
X3557070Y409190D01*
X3551820Y403350D01*
X3549200Y396540D01*
X3551820Y388750D01*
X3557070Y382910D01*
X3564950Y377060D01*
X3575450Y375120D01*
X3627940D01*
G01X3561010Y337270D02*
X3554450Y331430D01*
X3550510Y324610D01*
X3549200Y315850D01*
X3551820Y307090D01*
X3557070Y300270D01*
X3566260Y295400D01*
X3576760Y294430D01*
X3587260Y296380D01*
X3593820Y301250D01*
X3599070Y308060D01*
X3600380Y314880D01*
X3599070Y321690D01*
X3593820Y330450D01*
X3627940Y327530D01*
Y301250D01*
G01X3664950Y3094060D02*
X3657070Y3089190D01*
X3651820Y3083350D01*
X3649200Y3076540D01*
X3651820Y3068750D01*
X3657070Y3062910D01*
X3664950Y3057060D01*
X3675450Y3055120D01*
X3727940D01*
G01X3682010Y3014350D02*
X3691200Y3007530D01*
X3696440Y3001690D01*
X3699070Y2993900D01*
X3696440Y2987090D01*
X3691200Y2982220D01*
X3683320Y2978320D01*
X3674130Y2977350D01*
X3666260Y2978320D01*
X3658380Y2982220D01*
X3651820Y2988060D01*
X3649200Y2994880D01*
X3651820Y3002670D01*
X3659700Y3009480D01*
X3671510Y3013380D01*
X3684630Y3014350D01*
X3701690Y3012400D01*
X3710880Y3009480D01*
X3720070Y3004610D01*
X3726630Y2997800D01*
X3727940Y2990980D01*
X3725320Y2984170D01*
X3718750Y2979300D01*
G01X4453660Y-1089900D02*
X4458530Y-1097780D01*
X4464370Y-1103030D01*
X4471180Y-1105650D01*
X4478970Y-1103030D01*
X4484810Y-1097780D01*
X4490660Y-1089900D01*
X4492600Y-1079400D01*
Y-1026910D01*
G01X4533370Y-1040030D02*
X4539210Y-1032160D01*
X4546030Y-1028220D01*
X4553820Y-1026910D01*
X4563550Y-1029530D01*
X4570370Y-1036100D01*
X4572320Y-1043970D01*
X4571340Y-1051850D01*
X4567450Y-1058410D01*
X4547980Y-1071530D01*
X4539210Y-1080720D01*
X4533370Y-1093840D01*
X4531420Y-1105650D01*
X4572320D01*
G01X4395940Y3474950D02*
X4400810Y3467070D01*
X4406650Y3461820D01*
X4413460Y3459200D01*
X4421250Y3461820D01*
X4427090Y3467070D01*
X4432940Y3474950D01*
X4434880Y3485450D01*
Y3537940D01*
G01X4492200Y3459200D02*
X4494150Y3476260D01*
X4497070Y3490690D01*
X4500970Y3503820D01*
X4505830Y3518250D01*
X4513620Y3537940D01*
X4474680D01*
G01X5921440Y-1591050D02*
X5926310Y-1598930D01*
X5932150Y-1604180D01*
X5938960Y-1606800D01*
X5946750Y-1604180D01*
X5952590Y-1598930D01*
X5958440Y-1591050D01*
X5960380Y-1580550D01*
Y-1528060D01*
G01X5998230Y-1591050D02*
X6004070Y-1600240D01*
X6011860Y-1605490D01*
X6020620Y-1606800D01*
X6028410Y-1605490D01*
X6036200Y-1598930D01*
X6041070Y-1591050D01*
X6042040Y-1583180D01*
X6040100Y-1573990D01*
X6033280Y-1567430D01*
X6026470Y-1564800D01*
X6017700D01*
G01X6026470D02*
X6032310Y-1560870D01*
X6037180Y-1554310D01*
X6039120Y-1546430D01*
X6037180Y-1538560D01*
X6032310Y-1532000D01*
X6023540Y-1528060D01*
X6014780Y-1529370D01*
X6006020Y-1534620D01*
G01X5593380Y987370D02*
X5597320Y993210D01*
X5599940Y1000030D01*
Y1007820D01*
X5596000Y1016580D01*
X5589440Y1023390D01*
X5581570Y1028260D01*
X5568440Y1032160D01*
X5556630Y1033130D01*
X5544820Y1031180D01*
X5536950Y1028260D01*
X5529070Y1022420D01*
X5523820Y1015610D01*
X5521200Y1008790D01*
Y1001970D01*
X5523820Y995160D01*
X5527760Y989320D01*
X5533010Y984450D01*
G01X5521200Y952440D02*
X5599940D01*
X5521200Y907660D01*
X5599940D01*
G01X5530380Y867860D02*
X5523820Y861050D01*
X5521200Y853260D01*
X5523820Y845470D01*
X5531700Y838650D01*
X5543510Y833780D01*
X5555320Y831840D01*
X5569760D01*
X5581570Y833780D01*
X5592070Y838650D01*
X5597320Y844490D01*
X5599940Y851310D01*
X5597320Y859100D01*
X5592070Y864940D01*
X5584190Y868840D01*
X5573690Y870780D01*
X5564510Y868840D01*
X5555320Y863970D01*
X5550070Y858130D01*
X5548760Y851310D01*
X5551380Y843520D01*
X5557940Y837680D01*
X5569760Y831840D01*
G01X5593380Y3596670D02*
X5597320Y3602510D01*
X5599940Y3609330D01*
Y3617120D01*
X5596000Y3625880D01*
X5589440Y3632690D01*
X5581570Y3637560D01*
X5568440Y3641460D01*
X5556630Y3642430D01*
X5544820Y3640480D01*
X5536950Y3637560D01*
X5529070Y3631720D01*
X5523820Y3624910D01*
X5521200Y3618090D01*
Y3611270D01*
X5523820Y3604460D01*
X5527760Y3598620D01*
X5533010Y3593750D01*
G01X5521200Y3561740D02*
X5599940D01*
X5521200Y3516960D01*
X5599940D01*
G01X5533010Y3482030D02*
X5526450Y3476190D01*
X5522510Y3469370D01*
X5521200Y3460610D01*
X5523820Y3451850D01*
X5529070Y3445030D01*
X5538260Y3440160D01*
X5548760Y3439190D01*
X5559260Y3441140D01*
X5565820Y3446010D01*
X5571070Y3452820D01*
X5572380Y3459640D01*
X5571070Y3466450D01*
X5565820Y3475210D01*
X5599940Y3472290D01*
Y3446010D01*
G01X6474950Y-777040D02*
X6467070Y-781910D01*
X6461820Y-787750D01*
X6459200Y-794560D01*
X6461820Y-802350D01*
X6467070Y-808190D01*
X6474950Y-814040D01*
X6485450Y-815980D01*
X6537940D01*
G01X6459200Y-855780D02*
X6537940D01*
Y-879140D01*
X6534000Y-886930D01*
X6524820Y-892780D01*
X6514320Y-894720D01*
X6503820Y-892780D01*
X6495940Y-887910D01*
X6492010Y-879140D01*
Y-855780D01*
G01X6474950Y-932570D02*
X6465760Y-938410D01*
X6460510Y-946200D01*
X6459200Y-954960D01*
X6460510Y-962750D01*
X6467070Y-970540D01*
X6474950Y-975410D01*
X6482820Y-976380D01*
X6492010Y-974440D01*
X6498570Y-967620D01*
X6501200Y-960810D01*
Y-952040D01*
G01Y-960810D02*
X6505130Y-966650D01*
X6511690Y-971520D01*
X6519570Y-973460D01*
X6527440Y-971520D01*
X6534000Y-966650D01*
X6537940Y-957880D01*
X6536630Y-949120D01*
X6531380Y-940360D01*
G54D11*
G01X-92460Y-758170D02*
Y-698170D01*
X-75520D01*
X-70100Y-701170D01*
X-66720Y-705170D01*
X-65360Y-713170D01*
X-66720Y-721170D01*
X-70780Y-726170D01*
X-75520Y-729170D01*
X-92460D01*
G01X-75520D02*
X-65360Y-758170D01*
G01X-37930Y-749170D02*
X-33870Y-754170D01*
X-29130Y-757170D01*
X-23030Y-758170D01*
X-16930Y-756170D01*
X-12190Y-752170D01*
X-8810Y-745170D01*
X-8130Y-737170D01*
X-9480Y-729170D01*
X-12870Y-724170D01*
X-17610Y-720170D01*
X-22350Y-719170D01*
X-27090Y-720170D01*
X-33190Y-724170D01*
X-31160Y-698170D01*
X-12870D01*
G01X40980Y-758170D02*
Y-698170D01*
X15920Y-741170D01*
X49780D01*
G01X-100000Y-680000D02*
X60000D01*
Y-600000D01*
X-100000D01*
Y-680000D01*
G01X-82460Y-508170D02*
Y-448170D01*
X-65520D01*
X-60100Y-451170D01*
X-56720Y-455170D01*
X-55360Y-463170D01*
X-56720Y-471170D01*
X-60780Y-476170D01*
X-65520Y-479170D01*
X-82460D01*
G01X-65520D02*
X-55360Y-508170D01*
G01X-27930Y-499170D02*
X-23870Y-504170D01*
X-19130Y-507170D01*
X-13030Y-508170D01*
X-6930Y-506170D01*
X-2190Y-502170D01*
X1190Y-495170D01*
X1870Y-487170D01*
X520Y-479170D01*
X-2870Y-474170D01*
X-7610Y-470170D01*
X-12350Y-469170D01*
X-17090Y-470170D01*
X-23190Y-474170D01*
X-21160Y-448170D01*
X-2870D01*
G01X31330Y-501170D02*
X36080Y-506170D01*
X41500Y-508170D01*
X46910Y-506170D01*
X51660Y-500170D01*
X55040Y-491170D01*
X56400Y-482170D01*
Y-471170D01*
X55040Y-462170D01*
X51660Y-454170D01*
X47590Y-450170D01*
X42850Y-448170D01*
X37430Y-450170D01*
X33370Y-454170D01*
X30660Y-460170D01*
X29300Y-468170D01*
X30660Y-475170D01*
X34040Y-482170D01*
X38110Y-486170D01*
X42850Y-487170D01*
X48270Y-485170D01*
X52330Y-480170D01*
X56400Y-471170D01*
G01X-100000Y-430000D02*
X60000D01*
Y-350000D01*
X-100000D01*
Y-430000D01*
G01X275990Y-953170D02*
X271930Y-950170D01*
X267190Y-948170D01*
X261770D01*
X255670Y-951170D01*
X250930Y-956170D01*
X247540Y-962170D01*
X244830Y-972170D01*
X244160Y-981170D01*
X245510Y-990170D01*
X247540Y-996170D01*
X251610Y-1002170D01*
X256350Y-1006170D01*
X261090Y-1008170D01*
X265830D01*
X270570Y-1006170D01*
X274640Y-1003170D01*
X278020Y-999170D01*
G01X316970Y-1008170D02*
Y-948170D01*
X308840Y-960170D01*
G01Y-1008170D02*
X325100D01*
G01X372850Y-948170D02*
X367430Y-950170D01*
X363370Y-955170D01*
X360660Y-961170D01*
X358630Y-969170D01*
X357950Y-978170D01*
X358630Y-987170D01*
X360660Y-995170D01*
X363370Y-1001170D01*
X367430Y-1006170D01*
X372850Y-1008170D01*
X378270Y-1006170D01*
X382330Y-1001170D01*
X385040Y-995170D01*
X387070Y-987170D01*
X387750Y-978170D01*
X387070Y-969170D01*
X385040Y-961170D01*
X382330Y-955170D01*
X378270Y-950170D01*
X372850Y-948170D01*
G01X547540Y-1018170D02*
Y-958170D01*
X564480D01*
X569900Y-961170D01*
X573280Y-965170D01*
X574640Y-973170D01*
X573280Y-981170D01*
X569220Y-986170D01*
X564480Y-989170D01*
X547540D01*
G01X564480D02*
X574640Y-1018170D01*
G01X616970D02*
Y-958170D01*
X608840Y-970170D01*
G01Y-1018170D02*
X625100D01*
G01X671500D02*
X672850Y-1005170D01*
X674880Y-994170D01*
X677590Y-984170D01*
X680980Y-973170D01*
X686400Y-958170D01*
X659300D01*
G01X575990Y-713170D02*
X571930Y-710170D01*
X567190Y-708170D01*
X561770D01*
X555670Y-711170D01*
X550930Y-716170D01*
X547540Y-722170D01*
X544830Y-732170D01*
X544160Y-741170D01*
X545510Y-750170D01*
X547540Y-756170D01*
X551610Y-762170D01*
X556350Y-766170D01*
X561090Y-768170D01*
X565830D01*
X570570Y-766170D01*
X574640Y-763170D01*
X578020Y-759170D01*
G01X616970Y-768170D02*
Y-708170D01*
X608840Y-720170D01*
G01Y-768170D02*
X625100D01*
G01X680980D02*
Y-708170D01*
X655920Y-751170D01*
X689780D01*
G01X530000Y-680000D02*
X690000D01*
Y-600000D01*
X530000D01*
Y-680000D01*
G01X230000Y-930000D02*
X390000D01*
Y-850000D01*
X230000D01*
Y-930000D01*
G01X530000D02*
X690000D01*
Y-850000D01*
X530000D01*
Y-930000D01*
G01X537540Y-508170D02*
Y-448170D01*
X554480D01*
X559900Y-451170D01*
X563280Y-455170D01*
X564640Y-463170D01*
X563280Y-471170D01*
X559220Y-476170D01*
X554480Y-479170D01*
X537540D01*
G01X554480D02*
X564640Y-508170D01*
G01X606970D02*
Y-448170D01*
X598840Y-460170D01*
G01Y-508170D02*
X615100D01*
G01X662850D02*
X667590Y-507170D01*
X673010Y-504170D01*
X676400Y-499170D01*
X677750Y-492170D01*
X676400Y-485170D01*
X672330Y-479170D01*
X666240Y-476170D01*
X659460D01*
X655400Y-474170D01*
X652010Y-469170D01*
X650660Y-462170D01*
X652690Y-455170D01*
X657430Y-450170D01*
X662850Y-448170D01*
X668270Y-450170D01*
X673010Y-455170D01*
X675040Y-462170D01*
X673690Y-469170D01*
X670300Y-474170D01*
X666240Y-476170D01*
X659460D01*
X653370Y-479170D01*
X649300Y-485170D01*
X647950Y-492170D01*
X649300Y-499170D01*
X652690Y-504170D01*
X658110Y-507170D01*
X662850Y-508170D01*
G01X690000Y-350000D02*
X530000D01*
Y-430000D01*
X690000D01*
Y-350000D01*
G01X237540Y-758170D02*
Y-698170D01*
X254480D01*
X259900Y-701170D01*
X263280Y-705170D01*
X264640Y-713170D01*
X263280Y-721170D01*
X259220Y-726170D01*
X254480Y-729170D01*
X237540D01*
G01X254480D02*
X264640Y-758170D01*
G01X294100Y-708170D02*
X298160Y-702170D01*
X302910Y-699170D01*
X308320Y-698170D01*
X315100Y-700170D01*
X319840Y-705170D01*
X321190Y-711170D01*
X320520Y-717170D01*
X317810Y-722170D01*
X304260Y-732170D01*
X298160Y-739170D01*
X294100Y-749170D01*
X292750Y-758170D01*
X321190D01*
G01X362850Y-698170D02*
X357430Y-700170D01*
X353370Y-705170D01*
X350660Y-711170D01*
X348630Y-719170D01*
X347950Y-728170D01*
X348630Y-737170D01*
X350660Y-745170D01*
X353370Y-751170D01*
X357430Y-756170D01*
X362850Y-758170D01*
X368270Y-756170D01*
X372330Y-751170D01*
X375040Y-745170D01*
X377070Y-737170D01*
X377750Y-728170D01*
X377070Y-719170D01*
X375040Y-711170D01*
X372330Y-705170D01*
X368270Y-700170D01*
X362850Y-698170D01*
G01X230000Y-680000D02*
X390000D01*
Y-600000D01*
X230000D01*
Y-680000D01*
G01X237540Y-508170D02*
Y-448170D01*
X254480D01*
X259900Y-451170D01*
X263280Y-455170D01*
X264640Y-463170D01*
X263280Y-471170D01*
X259220Y-476170D01*
X254480Y-479170D01*
X237540D01*
G01X254480D02*
X264640Y-508170D01*
G01X292070Y-499170D02*
X296130Y-504170D01*
X300870Y-507170D01*
X306970Y-508170D01*
X313070Y-506170D01*
X317810Y-502170D01*
X321190Y-495170D01*
X321870Y-487170D01*
X320520Y-479170D01*
X317130Y-474170D01*
X312390Y-470170D01*
X307650Y-469170D01*
X302910Y-470170D01*
X296810Y-474170D01*
X298840Y-448170D01*
X317130D01*
G01X362850D02*
X357430Y-450170D01*
X353370Y-455170D01*
X350660Y-461170D01*
X348630Y-469170D01*
X347950Y-478170D01*
X348630Y-487170D01*
X350660Y-495170D01*
X353370Y-501170D01*
X357430Y-506170D01*
X362850Y-508170D01*
X368270Y-506170D01*
X372330Y-501170D01*
X375040Y-495170D01*
X377070Y-487170D01*
X377750Y-478170D01*
X377070Y-469170D01*
X375040Y-461170D01*
X372330Y-455170D01*
X368270Y-450170D01*
X362850Y-448170D01*
G01X220000Y-430000D02*
X380000D01*
Y-350000D01*
X220000D01*
Y-430000D01*
G01X736600Y1478280D02*
X796600D01*
X784600Y1486410D01*
G01X736600D02*
Y1470150D01*
G01X546100Y3561080D02*
X606100D01*
X594100Y3569210D01*
G01X546100D02*
Y3552950D01*
G01X767540Y3961830D02*
Y4021830D01*
X784480D01*
X789900Y4018830D01*
X793280Y4014830D01*
X794640Y4006830D01*
X793280Y3998830D01*
X789220Y3993830D01*
X784480Y3990830D01*
X767540D01*
G01X784480D02*
X794640Y3961830D01*
G01X824100Y4011830D02*
X828160Y4017830D01*
X832910Y4020830D01*
X838320Y4021830D01*
X845100Y4019830D01*
X849840Y4014830D01*
X851190Y4008830D01*
X850520Y4002830D01*
X847810Y3997830D01*
X834260Y3987830D01*
X828160Y3980830D01*
X824100Y3970830D01*
X822750Y3961830D01*
X851190D01*
G01X877950Y3970830D02*
X882010Y3965830D01*
X886750Y3962830D01*
X892850Y3961830D01*
X898950Y3963830D01*
X903690Y3967830D01*
X907070Y3974830D01*
X907750Y3982830D01*
X906400Y3990830D01*
X903010Y3995830D01*
X898270Y3999830D01*
X893530Y4000830D01*
X888790Y3999830D01*
X882690Y3995830D01*
X884720Y4021830D01*
X903010D01*
G01X750000Y4030000D02*
X590000D01*
Y3950000D01*
X750000D01*
Y4030000D01*
G01X767540Y3811830D02*
Y3871830D01*
X784480D01*
X789900Y3868830D01*
X793280Y3864830D01*
X794640Y3856830D01*
X793280Y3848830D01*
X789220Y3843830D01*
X784480Y3840830D01*
X767540D01*
G01X784480D02*
X794640Y3811830D01*
G01X835620D02*
X836970Y3824830D01*
X839000Y3835830D01*
X841710Y3845830D01*
X845100Y3856830D01*
X850520Y3871830D01*
X823420D01*
G01X879980Y3861830D02*
X884040Y3867830D01*
X888790Y3870830D01*
X894200Y3871830D01*
X900980Y3869830D01*
X905720Y3864830D01*
X907070Y3858830D01*
X906400Y3852830D01*
X903690Y3847830D01*
X890140Y3837830D01*
X884040Y3830830D01*
X879980Y3820830D01*
X878630Y3811830D01*
X907070D01*
G01X590000Y3800000D02*
X750000D01*
Y3880000D01*
X590000D01*
Y3800000D01*
G01X767540Y4111830D02*
Y4171830D01*
X784480D01*
X789900Y4168830D01*
X793280Y4164830D01*
X794640Y4156830D01*
X793280Y4148830D01*
X789220Y4143830D01*
X784480Y4140830D01*
X767540D01*
G01X784480D02*
X794640Y4111830D01*
G01X824100Y4161830D02*
X828160Y4167830D01*
X832910Y4170830D01*
X838320Y4171830D01*
X845100Y4169830D01*
X849840Y4164830D01*
X851190Y4158830D01*
X850520Y4152830D01*
X847810Y4147830D01*
X834260Y4137830D01*
X828160Y4130830D01*
X824100Y4120830D01*
X822750Y4111830D01*
X851190D01*
G01X900980D02*
Y4171830D01*
X875920Y4128830D01*
X909780D01*
G01X750000Y4180000D02*
X590000D01*
Y4100000D01*
X750000D01*
Y4180000D01*
G01X767540Y4431830D02*
Y4491830D01*
X784480D01*
X789900Y4488830D01*
X793280Y4484830D01*
X794640Y4476830D01*
X793280Y4468830D01*
X789220Y4463830D01*
X784480Y4460830D01*
X767540D01*
G01X784480D02*
X794640Y4431830D01*
G01X824100Y4481830D02*
X828160Y4487830D01*
X832910Y4490830D01*
X838320Y4491830D01*
X845100Y4489830D01*
X849840Y4484830D01*
X851190Y4478830D01*
X850520Y4472830D01*
X847810Y4467830D01*
X834260Y4457830D01*
X828160Y4450830D01*
X824100Y4440830D01*
X822750Y4431830D01*
X851190D01*
G01X879980Y4456830D02*
X884720Y4463830D01*
X888790Y4467830D01*
X894200Y4469830D01*
X898950Y4467830D01*
X902330Y4463830D01*
X905040Y4457830D01*
X905720Y4450830D01*
X905040Y4444830D01*
X902330Y4438830D01*
X898270Y4433830D01*
X893530Y4431830D01*
X888110Y4433830D01*
X883370Y4439830D01*
X880660Y4448830D01*
X879980Y4458830D01*
X881330Y4471830D01*
X883370Y4478830D01*
X886750Y4485830D01*
X891500Y4490830D01*
X896240Y4491830D01*
X900980Y4489830D01*
X904370Y4484830D01*
G01X750000Y4510000D02*
X590000D01*
Y4430000D01*
X750000D01*
Y4510000D01*
G01X767540Y4281830D02*
Y4341830D01*
X784480D01*
X789900Y4338830D01*
X793280Y4334830D01*
X794640Y4326830D01*
X793280Y4318830D01*
X789220Y4313830D01*
X784480Y4310830D01*
X767540D01*
G01X784480D02*
X794640Y4281830D01*
G01X822070Y4290830D02*
X826130Y4285830D01*
X830870Y4282830D01*
X836970Y4281830D01*
X843070Y4283830D01*
X847810Y4287830D01*
X851190Y4294830D01*
X851870Y4302830D01*
X850520Y4310830D01*
X847130Y4315830D01*
X842390Y4319830D01*
X837650Y4320830D01*
X832910Y4319830D01*
X826810Y4315830D01*
X828840Y4341830D01*
X847130D01*
G01X892850Y4281830D02*
X897590Y4282830D01*
X903010Y4285830D01*
X906400Y4290830D01*
X907750Y4297830D01*
X906400Y4304830D01*
X902330Y4310830D01*
X896240Y4313830D01*
X889460D01*
X885400Y4315830D01*
X882010Y4320830D01*
X880660Y4327830D01*
X882690Y4334830D01*
X887430Y4339830D01*
X892850Y4341830D01*
X898270Y4339830D01*
X903010Y4334830D01*
X905040Y4327830D01*
X903690Y4320830D01*
X900300Y4315830D01*
X896240Y4313830D01*
X889460D01*
X883370Y4310830D01*
X879300Y4304830D01*
X877950Y4297830D01*
X879300Y4290830D01*
X882690Y4285830D01*
X888110Y4282830D01*
X892850Y4281830D01*
G01X590000Y4270000D02*
X750000D01*
Y4350000D01*
X590000D01*
Y4270000D01*
G01X767540Y4611830D02*
Y4671830D01*
X784480D01*
X789900Y4668830D01*
X793280Y4664830D01*
X794640Y4656830D01*
X793280Y4648830D01*
X789220Y4643830D01*
X784480Y4640830D01*
X767540D01*
G01X784480D02*
X794640Y4611830D01*
G01X824100Y4636830D02*
X828840Y4643830D01*
X832910Y4647830D01*
X838320Y4649830D01*
X843070Y4647830D01*
X846450Y4643830D01*
X849160Y4637830D01*
X849840Y4630830D01*
X849160Y4624830D01*
X846450Y4618830D01*
X842390Y4613830D01*
X837650Y4611830D01*
X832230Y4613830D01*
X827490Y4619830D01*
X824780Y4628830D01*
X824100Y4638830D01*
X825450Y4651830D01*
X827490Y4658830D01*
X830870Y4665830D01*
X835620Y4670830D01*
X840360Y4671830D01*
X845100Y4669830D01*
X848490Y4664830D01*
G01X891500Y4611830D02*
X892850Y4624830D01*
X894880Y4635830D01*
X897590Y4645830D01*
X900980Y4656830D01*
X906400Y4671830D01*
X879300D01*
G01X590000Y4600000D02*
X750000D01*
Y4680000D01*
X590000D01*
Y4600000D01*
G01X1485990Y-1153170D02*
X1481930Y-1150170D01*
X1477190Y-1148170D01*
X1471770D01*
X1465670Y-1151170D01*
X1460930Y-1156170D01*
X1457540Y-1162170D01*
X1454830Y-1172170D01*
X1454160Y-1181170D01*
X1455510Y-1190170D01*
X1457540Y-1196170D01*
X1461610Y-1202170D01*
X1466350Y-1206170D01*
X1471090Y-1208170D01*
X1475830D01*
X1480570Y-1206170D01*
X1484640Y-1203170D01*
X1488020Y-1199170D01*
G01X1526970Y-1208170D02*
Y-1148170D01*
X1518840Y-1160170D01*
G01Y-1208170D02*
X1535100D01*
G01X1730000Y-1140000D02*
X1570000D01*
Y-1220000D01*
X1730000D01*
Y-1140000D01*
G01X1015990Y-983170D02*
X1011930Y-980170D01*
X1007190Y-978170D01*
X1001770D01*
X995670Y-981170D01*
X990930Y-986170D01*
X987540Y-992170D01*
X984830Y-1002170D01*
X984160Y-1011170D01*
X985510Y-1020170D01*
X987540Y-1026170D01*
X991610Y-1032170D01*
X996350Y-1036170D01*
X1001090Y-1038170D01*
X1005830D01*
X1010570Y-1036170D01*
X1014640Y-1033170D01*
X1018020Y-1029170D01*
G01X1055620Y-1038170D02*
X1056970Y-1025170D01*
X1059000Y-1014170D01*
X1061710Y-1004170D01*
X1065100Y-993170D01*
X1070520Y-978170D01*
X1043420D01*
G01X1090000Y-1050000D02*
X1250000D01*
Y-970000D01*
X1090000D01*
Y-1050000D01*
G01X927540Y-1188170D02*
Y-1128170D01*
X944480D01*
X949900Y-1131170D01*
X953280Y-1135170D01*
X954640Y-1143170D01*
X953280Y-1151170D01*
X949220Y-1156170D01*
X944480Y-1159170D01*
X927540D01*
G01X944480D02*
X954640Y-1188170D01*
G01X996970D02*
Y-1128170D01*
X988840Y-1140170D01*
G01Y-1188170D02*
X1005100D01*
G01X1039980Y-1138170D02*
X1044040Y-1132170D01*
X1048790Y-1129170D01*
X1054200Y-1128170D01*
X1060980Y-1130170D01*
X1065720Y-1135170D01*
X1067070Y-1141170D01*
X1066400Y-1147170D01*
X1063690Y-1152170D01*
X1050140Y-1162170D01*
X1044040Y-1169170D01*
X1039980Y-1179170D01*
X1038630Y-1188170D01*
X1067070D01*
G01X1250000Y-1120000D02*
X1090000D01*
Y-1200000D01*
X1250000D01*
Y-1120000D01*
G01X1556960Y-1341170D02*
X1552900Y-1338170D01*
X1548160Y-1336170D01*
X1542740D01*
X1536640Y-1339170D01*
X1531900Y-1344170D01*
X1528510Y-1350170D01*
X1525800Y-1360170D01*
X1525130Y-1369170D01*
X1526480Y-1378170D01*
X1528510Y-1384170D01*
X1532580Y-1390170D01*
X1537320Y-1394170D01*
X1542060Y-1396170D01*
X1546800D01*
X1551540Y-1394170D01*
X1555610Y-1391170D01*
X1558990Y-1387170D01*
G01X1585070Y-1346170D02*
X1589130Y-1340170D01*
X1593880Y-1337170D01*
X1599290Y-1336170D01*
X1606070Y-1338170D01*
X1610810Y-1343170D01*
X1612160Y-1349170D01*
X1611490Y-1355170D01*
X1608780Y-1360170D01*
X1595230Y-1370170D01*
X1589130Y-1377170D01*
X1585070Y-1387170D01*
X1583720Y-1396170D01*
X1612160D01*
G01X1480000Y-1422500D02*
X1680000D01*
Y-1297500D01*
X1480000D01*
Y-1422500D01*
G01X1005990Y-533170D02*
X1001930Y-530170D01*
X997190Y-528170D01*
X991770D01*
X985670Y-531170D01*
X980930Y-536170D01*
X977540Y-542170D01*
X974830Y-552170D01*
X974160Y-561170D01*
X975510Y-570170D01*
X977540Y-576170D01*
X981610Y-582170D01*
X986350Y-586170D01*
X991090Y-588170D01*
X995830D01*
X1000570Y-586170D01*
X1004640Y-583170D01*
X1008020Y-579170D01*
G01X1046970Y-588170D02*
X1051710Y-587170D01*
X1057130Y-584170D01*
X1060520Y-579170D01*
X1061870Y-572170D01*
X1060520Y-565170D01*
X1056450Y-559170D01*
X1050360Y-556170D01*
X1043580D01*
X1039520Y-554170D01*
X1036130Y-549170D01*
X1034780Y-542170D01*
X1036810Y-535170D01*
X1041550Y-530170D01*
X1046970Y-528170D01*
X1052390Y-530170D01*
X1057130Y-535170D01*
X1059160Y-542170D01*
X1057810Y-549170D01*
X1054420Y-554170D01*
X1050360Y-556170D01*
X1043580D01*
X1037490Y-559170D01*
X1033420Y-565170D01*
X1032070Y-572170D01*
X1033420Y-579170D01*
X1036810Y-584170D01*
X1042230Y-587170D01*
X1046970Y-588170D01*
G01X1090000Y-600000D02*
X1250000D01*
Y-520000D01*
X1090000D01*
Y-600000D01*
G01X1311830Y-317540D02*
X1371830D01*
Y-334480D01*
X1368830Y-339900D01*
X1364830Y-343280D01*
X1356830Y-344640D01*
X1348830Y-343280D01*
X1343830Y-339220D01*
X1340830Y-334480D01*
Y-317540D01*
G01Y-334480D02*
X1311830Y-344640D01*
G01Y-386970D02*
X1312830Y-391710D01*
X1315830Y-397130D01*
X1320830Y-400520D01*
X1327830Y-401870D01*
X1334830Y-400520D01*
X1340830Y-396450D01*
X1343830Y-390360D01*
Y-383580D01*
X1345830Y-379520D01*
X1350830Y-376130D01*
X1357830Y-374780D01*
X1364830Y-376810D01*
X1369830Y-381550D01*
X1371830Y-386970D01*
X1369830Y-392390D01*
X1364830Y-397130D01*
X1357830Y-399160D01*
X1350830Y-397810D01*
X1345830Y-394420D01*
X1343830Y-390360D01*
Y-383580D01*
X1340830Y-377490D01*
X1334830Y-373420D01*
X1327830Y-372070D01*
X1320830Y-373420D01*
X1315830Y-376810D01*
X1312830Y-382230D01*
X1311830Y-386970D01*
G01X1470000Y-440000D02*
Y-280000D01*
X1390000D01*
Y-440000D01*
X1470000D01*
G01X937540Y-288170D02*
Y-228170D01*
X954480D01*
X959900Y-231170D01*
X963280Y-235170D01*
X964640Y-243170D01*
X963280Y-251170D01*
X959220Y-256170D01*
X954480Y-259170D01*
X937540D01*
G01X954480D02*
X964640Y-288170D01*
G01X1006970D02*
Y-228170D01*
X998840Y-240170D01*
G01Y-288170D02*
X1015100D01*
G01X1070980D02*
Y-228170D01*
X1045920Y-271170D01*
X1079780D01*
G01X1250000Y-220000D02*
X1090000D01*
Y-300000D01*
X1250000D01*
Y-220000D01*
G01X927540Y-888170D02*
Y-828170D01*
X944480D01*
X949900Y-831170D01*
X953280Y-835170D01*
X954640Y-843170D01*
X953280Y-851170D01*
X949220Y-856170D01*
X944480Y-859170D01*
X927540D01*
G01X944480D02*
X954640Y-888170D01*
G01X996970D02*
Y-828170D01*
X988840Y-840170D01*
G01Y-888170D02*
X1005100D01*
G01X1037950Y-876170D02*
X1042010Y-883170D01*
X1047430Y-887170D01*
X1053530Y-888170D01*
X1058950Y-887170D01*
X1064370Y-882170D01*
X1067750Y-876170D01*
X1068430Y-870170D01*
X1067070Y-863170D01*
X1062330Y-858170D01*
X1057590Y-856170D01*
X1051500D01*
G01X1057590D02*
X1061660Y-853170D01*
X1065040Y-848170D01*
X1066400Y-842170D01*
X1065040Y-836170D01*
X1061660Y-831170D01*
X1055560Y-828170D01*
X1049460Y-829170D01*
X1043370Y-833170D01*
G01X1090000Y-900000D02*
X1250000D01*
Y-820000D01*
X1090000D01*
Y-900000D01*
G01X927540Y-738170D02*
Y-678170D01*
X944480D01*
X949900Y-681170D01*
X953280Y-685170D01*
X954640Y-693170D01*
X953280Y-701170D01*
X949220Y-706170D01*
X944480Y-709170D01*
X927540D01*
G01X944480D02*
X954640Y-738170D01*
G01X996970D02*
Y-678170D01*
X988840Y-690170D01*
G01Y-738170D02*
X1005100D01*
G01X1037950Y-729170D02*
X1042010Y-734170D01*
X1046750Y-737170D01*
X1052850Y-738170D01*
X1058950Y-736170D01*
X1063690Y-732170D01*
X1067070Y-725170D01*
X1067750Y-717170D01*
X1066400Y-709170D01*
X1063010Y-704170D01*
X1058270Y-700170D01*
X1053530Y-699170D01*
X1048790Y-700170D01*
X1042690Y-704170D01*
X1044720Y-678170D01*
X1063010D01*
G01X1250000Y-670000D02*
X1090000D01*
Y-750000D01*
X1250000D01*
Y-670000D01*
G01X937540Y-438170D02*
Y-378170D01*
X954480D01*
X959900Y-381170D01*
X963280Y-385170D01*
X964640Y-393170D01*
X963280Y-401170D01*
X959220Y-406170D01*
X954480Y-409170D01*
X937540D01*
G01X954480D02*
X964640Y-438170D01*
G01X1006970D02*
Y-378170D01*
X998840Y-390170D01*
G01Y-438170D02*
X1015100D01*
G01X1049980Y-413170D02*
X1054720Y-406170D01*
X1058790Y-402170D01*
X1064200Y-400170D01*
X1068950Y-402170D01*
X1072330Y-406170D01*
X1075040Y-412170D01*
X1075720Y-419170D01*
X1075040Y-425170D01*
X1072330Y-431170D01*
X1068270Y-436170D01*
X1063530Y-438170D01*
X1058110Y-436170D01*
X1053370Y-430170D01*
X1050660Y-421170D01*
X1049980Y-411170D01*
X1051330Y-398170D01*
X1053370Y-391170D01*
X1056750Y-384170D01*
X1061500Y-379170D01*
X1066240Y-378170D01*
X1070980Y-380170D01*
X1074370Y-385170D01*
G01X1090000Y-450000D02*
X1250000D01*
Y-370000D01*
X1090000D01*
Y-450000D01*
G01X1561830Y-297540D02*
X1621830D01*
Y-314480D01*
X1618830Y-319900D01*
X1614830Y-323280D01*
X1606830Y-324640D01*
X1598830Y-323280D01*
X1593830Y-319220D01*
X1590830Y-314480D01*
Y-297540D01*
G01Y-314480D02*
X1561830Y-324640D01*
G01Y-366970D02*
X1621830D01*
X1609830Y-358840D01*
G01X1561830D02*
Y-375100D01*
G01Y-422850D02*
X1621830D01*
X1609830Y-414720D01*
G01X1561830D02*
Y-430980D01*
G01X1267540Y-48170D02*
Y11830D01*
X1284480D01*
X1289900Y8830D01*
X1293280Y4830D01*
X1294640Y-3170D01*
X1293280Y-11170D01*
X1289220Y-16170D01*
X1284480Y-19170D01*
X1267540D01*
G01X1284480D02*
X1294640Y-48170D01*
G01X1345100D02*
Y11830D01*
X1320040Y-31170D01*
X1353900D01*
G01X1392850Y-48170D02*
X1397590Y-47170D01*
X1403010Y-44170D01*
X1406400Y-39170D01*
X1407750Y-32170D01*
X1406400Y-25170D01*
X1402330Y-19170D01*
X1396240Y-16170D01*
X1389460D01*
X1385400Y-14170D01*
X1382010Y-9170D01*
X1380660Y-2170D01*
X1382690Y4830D01*
X1387430Y9830D01*
X1392850Y11830D01*
X1398270Y9830D01*
X1403010Y4830D01*
X1405040Y-2170D01*
X1403690Y-9170D01*
X1400300Y-14170D01*
X1396240Y-16170D01*
X1389460D01*
X1383370Y-19170D01*
X1379300Y-25170D01*
X1377950Y-32170D01*
X1379300Y-39170D01*
X1382690Y-44170D01*
X1388110Y-47170D01*
X1392850Y-48170D01*
G01X1090000Y-60000D02*
X1250000D01*
Y20000D01*
X1090000D01*
Y-60000D01*
G01X1267540Y291830D02*
Y351830D01*
X1284480D01*
X1289900Y348830D01*
X1293280Y344830D01*
X1294640Y336830D01*
X1293280Y328830D01*
X1289220Y323830D01*
X1284480Y320830D01*
X1267540D01*
G01X1284480D02*
X1294640Y291830D01*
G01X1324100Y316830D02*
X1328840Y323830D01*
X1332910Y327830D01*
X1338320Y329830D01*
X1343070Y327830D01*
X1346450Y323830D01*
X1349160Y317830D01*
X1349840Y310830D01*
X1349160Y304830D01*
X1346450Y298830D01*
X1342390Y293830D01*
X1337650Y291830D01*
X1332230Y293830D01*
X1327490Y299830D01*
X1324780Y308830D01*
X1324100Y318830D01*
X1325450Y331830D01*
X1327490Y338830D01*
X1330870Y345830D01*
X1335620Y350830D01*
X1340360Y351830D01*
X1345100Y349830D01*
X1348490Y344830D01*
G01X1392850Y351830D02*
X1387430Y349830D01*
X1383370Y344830D01*
X1380660Y338830D01*
X1378630Y330830D01*
X1377950Y321830D01*
X1378630Y312830D01*
X1380660Y304830D01*
X1383370Y298830D01*
X1387430Y293830D01*
X1392850Y291830D01*
X1398270Y293830D01*
X1402330Y298830D01*
X1405040Y304830D01*
X1407070Y312830D01*
X1407750Y321830D01*
X1407070Y330830D01*
X1405040Y338830D01*
X1402330Y344830D01*
X1398270Y349830D01*
X1392850Y351830D01*
G01X1090000Y280000D02*
X1250000D01*
Y360000D01*
X1090000D01*
Y280000D01*
G01X1267540Y121830D02*
Y181830D01*
X1284480D01*
X1289900Y178830D01*
X1293280Y174830D01*
X1294640Y166830D01*
X1293280Y158830D01*
X1289220Y153830D01*
X1284480Y150830D01*
X1267540D01*
G01X1284480D02*
X1294640Y121830D01*
G01X1335620D02*
X1336970Y134830D01*
X1339000Y145830D01*
X1341710Y155830D01*
X1345100Y166830D01*
X1350520Y181830D01*
X1323420D01*
G01X1377950Y133830D02*
X1382010Y126830D01*
X1387430Y122830D01*
X1393530Y121830D01*
X1398950Y122830D01*
X1404370Y127830D01*
X1407750Y133830D01*
X1408430Y139830D01*
X1407070Y146830D01*
X1402330Y151830D01*
X1397590Y153830D01*
X1391500D01*
G01X1397590D02*
X1401660Y156830D01*
X1405040Y161830D01*
X1406400Y167830D01*
X1405040Y173830D01*
X1401660Y178830D01*
X1395560Y181830D01*
X1389460Y180830D01*
X1383370Y176830D01*
G01X1250000Y190000D02*
X1090000D01*
Y110000D01*
X1250000D01*
Y190000D01*
G01X1660000Y930000D02*
X1500000D01*
Y850000D01*
X1660000D01*
Y930000D01*
G01X1500000Y1000000D02*
X1660000D01*
Y1080000D01*
X1500000D01*
Y1000000D01*
G01X1660000Y780000D02*
X1500000D01*
Y700000D01*
X1660000D01*
Y780000D01*
G01X1500000Y550000D02*
X1660000D01*
Y630000D01*
X1500000D01*
Y550000D01*
G01X1267540Y971830D02*
Y1031830D01*
X1284480D01*
X1289900Y1028830D01*
X1293280Y1024830D01*
X1294640Y1016830D01*
X1293280Y1008830D01*
X1289220Y1003830D01*
X1284480Y1000830D01*
X1267540D01*
G01X1284480D02*
X1294640Y971830D01*
G01X1345100D02*
Y1031830D01*
X1320040Y988830D01*
X1353900D01*
G01X1391500Y971830D02*
X1392850Y984830D01*
X1394880Y995830D01*
X1397590Y1005830D01*
X1400980Y1016830D01*
X1406400Y1031830D01*
X1379300D01*
G01X1090000Y960000D02*
X1250000D01*
Y1040000D01*
X1090000D01*
Y960000D01*
G01X1267540Y631830D02*
Y691830D01*
X1284480D01*
X1289900Y688830D01*
X1293280Y684830D01*
X1294640Y676830D01*
X1293280Y668830D01*
X1289220Y663830D01*
X1284480Y660830D01*
X1267540D01*
G01X1284480D02*
X1294640Y631830D01*
G01X1322070Y640830D02*
X1326130Y635830D01*
X1330870Y632830D01*
X1336970Y631830D01*
X1343070Y633830D01*
X1347810Y637830D01*
X1351190Y644830D01*
X1351870Y652830D01*
X1350520Y660830D01*
X1347130Y665830D01*
X1342390Y669830D01*
X1337650Y670830D01*
X1332910Y669830D01*
X1326810Y665830D01*
X1328840Y691830D01*
X1347130D01*
G01X1392850Y631830D02*
Y691830D01*
X1384720Y679830D01*
G01Y631830D02*
X1400980D01*
G01X1090000Y620000D02*
X1250000D01*
Y700000D01*
X1090000D01*
Y620000D01*
G01X1267540Y1121830D02*
Y1181830D01*
X1284480D01*
X1289900Y1178830D01*
X1293280Y1174830D01*
X1294640Y1166830D01*
X1293280Y1158830D01*
X1289220Y1153830D01*
X1284480Y1150830D01*
X1267540D01*
G01X1284480D02*
X1294640Y1121830D01*
G01X1335620D02*
X1336970Y1134830D01*
X1339000Y1145830D01*
X1341710Y1155830D01*
X1345100Y1166830D01*
X1350520Y1181830D01*
X1323420D01*
G01X1381330Y1128830D02*
X1386080Y1123830D01*
X1391500Y1121830D01*
X1396910Y1123830D01*
X1401660Y1129830D01*
X1405040Y1138830D01*
X1406400Y1147830D01*
Y1158830D01*
X1405040Y1167830D01*
X1401660Y1175830D01*
X1397590Y1179830D01*
X1392850Y1181830D01*
X1387430Y1179830D01*
X1383370Y1175830D01*
X1380660Y1169830D01*
X1379300Y1161830D01*
X1380660Y1154830D01*
X1384040Y1147830D01*
X1388110Y1143830D01*
X1392850Y1142830D01*
X1398270Y1144830D01*
X1402330Y1149830D01*
X1406400Y1158830D01*
G01X1090000Y1110000D02*
X1250000D01*
Y1190000D01*
X1090000D01*
Y1110000D01*
G01X1267540Y461830D02*
Y521830D01*
X1284480D01*
X1289900Y518830D01*
X1293280Y514830D01*
X1294640Y506830D01*
X1293280Y498830D01*
X1289220Y493830D01*
X1284480Y490830D01*
X1267540D01*
G01X1284480D02*
X1294640Y461830D01*
G01X1335620D02*
X1336970Y474830D01*
X1339000Y485830D01*
X1341710Y495830D01*
X1345100Y506830D01*
X1350520Y521830D01*
X1323420D01*
G01X1379980Y486830D02*
X1384720Y493830D01*
X1388790Y497830D01*
X1394200Y499830D01*
X1398950Y497830D01*
X1402330Y493830D01*
X1405040Y487830D01*
X1405720Y480830D01*
X1405040Y474830D01*
X1402330Y468830D01*
X1398270Y463830D01*
X1393530Y461830D01*
X1388110Y463830D01*
X1383370Y469830D01*
X1380660Y478830D01*
X1379980Y488830D01*
X1381330Y501830D01*
X1383370Y508830D01*
X1386750Y515830D01*
X1391500Y520830D01*
X1396240Y521830D01*
X1400980Y519830D01*
X1404370Y514830D01*
G01X1090000Y450000D02*
X1250000D01*
Y530000D01*
X1090000D01*
Y450000D01*
G01X1267540Y801830D02*
Y861830D01*
X1284480D01*
X1289900Y858830D01*
X1293280Y854830D01*
X1294640Y846830D01*
X1293280Y838830D01*
X1289220Y833830D01*
X1284480Y830830D01*
X1267540D01*
G01X1284480D02*
X1294640Y801830D01*
G01X1322070Y810830D02*
X1326130Y805830D01*
X1330870Y802830D01*
X1336970Y801830D01*
X1343070Y803830D01*
X1347810Y807830D01*
X1351190Y814830D01*
X1351870Y822830D01*
X1350520Y830830D01*
X1347130Y835830D01*
X1342390Y839830D01*
X1337650Y840830D01*
X1332910Y839830D01*
X1326810Y835830D01*
X1328840Y861830D01*
X1347130D01*
G01X1391500Y801830D02*
X1392850Y814830D01*
X1394880Y825830D01*
X1397590Y835830D01*
X1400980Y846830D01*
X1406400Y861830D01*
X1379300D01*
G01X1250000Y870000D02*
X1090000D01*
Y790000D01*
X1250000D01*
Y870000D01*
G01X1555000Y1205000D02*
X2435000D01*
Y2235000D01*
X1555000D01*
X1405000Y2085000D01*
Y1355000D01*
X1555000Y1205000D01*
G01X2420000Y1720000D02*
G03I-500000J0D01*
G01X1096320Y2386500D02*
Y2446500D01*
X1088190Y2434500D01*
G01Y2386500D02*
X1104450D01*
G01X1354070Y2431200D02*
X1357460Y2425200D01*
X1361520Y2421200D01*
X1366270Y2419200D01*
X1371680Y2421200D01*
X1375750Y2425200D01*
X1379810Y2431200D01*
X1381170Y2439200D01*
Y2479200D01*
G01X1411980Y2426200D02*
X1416730Y2421200D01*
X1422150Y2419200D01*
X1427560Y2421200D01*
X1432310Y2427200D01*
X1435690Y2436200D01*
X1437050Y2445200D01*
Y2456200D01*
X1435690Y2465200D01*
X1432310Y2473200D01*
X1428240Y2477200D01*
X1423500Y2479200D01*
X1418080Y2477200D01*
X1414020Y2473200D01*
X1411310Y2467200D01*
X1409950Y2459200D01*
X1411310Y2452200D01*
X1414690Y2445200D01*
X1418760Y2441200D01*
X1423500Y2440200D01*
X1428920Y2442200D01*
X1432980Y2447200D01*
X1437050Y2456200D01*
G01X2216500Y2693500D02*
Y3646500D01*
X1263500D01*
Y2693500D01*
X2216500D01*
G01X1683190Y3131900D02*
X1492690D01*
G01Y3208100D02*
X1683190D01*
G01X1463630D02*
X1492690D01*
G01Y3131900D02*
X1463630D01*
G01X1680470Y2987990D02*
G03X1609710I-35380J182011D01*
G01X2306830Y-1425990D02*
X2309830Y-1421930D01*
X2311830Y-1417190D01*
Y-1411770D01*
X2308830Y-1405670D01*
X2303830Y-1400930D01*
X2297830Y-1397540D01*
X2287830Y-1394830D01*
X2278830Y-1394160D01*
X2269830Y-1395510D01*
X2263830Y-1397540D01*
X2257830Y-1401610D01*
X2253830Y-1406350D01*
X2251830Y-1411090D01*
Y-1415830D01*
X2253830Y-1420570D01*
X2256830Y-1424640D01*
X2260830Y-1428020D01*
G01X2251830Y-1475100D02*
X2311830D01*
X2268830Y-1450040D01*
Y-1483900D01*
G01X2250000Y-1210000D02*
Y-1370000D01*
X2330000D01*
Y-1210000D01*
X2250000D01*
G01X1977540Y-1468170D02*
Y-1408170D01*
X1994480D01*
X1999900Y-1411170D01*
X2003280Y-1415170D01*
X2004640Y-1423170D01*
X2003280Y-1431170D01*
X1999220Y-1436170D01*
X1994480Y-1439170D01*
X1977540D01*
G01X1994480D02*
X2004640Y-1468170D01*
G01X2032070Y-1456170D02*
X2036130Y-1463170D01*
X2041550Y-1467170D01*
X2047650Y-1468170D01*
X2053070Y-1467170D01*
X2058490Y-1462170D01*
X2061870Y-1456170D01*
X2062550Y-1450170D01*
X2061190Y-1443170D01*
X2056450Y-1438170D01*
X2051710Y-1436170D01*
X2045620D01*
G01X2051710D02*
X2055780Y-1433170D01*
X2059160Y-1428170D01*
X2060520Y-1422170D01*
X2059160Y-1416170D01*
X2055780Y-1411170D01*
X2049680Y-1408170D01*
X2043580Y-1409170D01*
X2037490Y-1413170D01*
G01X2100000Y-1310000D02*
X1940000D01*
Y-1390000D01*
X2100000D01*
Y-1310000D01*
G01X2057540Y-1208170D02*
Y-1148170D01*
X2074480D01*
X2079900Y-1151170D01*
X2083280Y-1155170D01*
X2084640Y-1163170D01*
X2083280Y-1171170D01*
X2079220Y-1176170D01*
X2074480Y-1179170D01*
X2057540D01*
G01X2074480D02*
X2084640Y-1208170D01*
G01X2126970D02*
Y-1148170D01*
X2118840Y-1160170D01*
G01Y-1208170D02*
X2135100D01*
G01X2030000Y-1140000D02*
X1870000D01*
Y-1220000D01*
X2030000D01*
Y-1140000D01*
G01X2327540Y-1078170D02*
Y-1018170D01*
X2344480D01*
X2349900Y-1021170D01*
X2353280Y-1025170D01*
X2354640Y-1033170D01*
X2353280Y-1041170D01*
X2349220Y-1046170D01*
X2344480Y-1049170D01*
X2327540D01*
G01X2344480D02*
X2354640Y-1078170D01*
G01X2405100D02*
Y-1018170D01*
X2380040Y-1061170D01*
X2413900D01*
G01X2290000Y-1090000D02*
X2450000D01*
Y-1010000D01*
X2290000D01*
Y-1090000D01*
G01X2355990Y-723170D02*
X2351930Y-720170D01*
X2347190Y-718170D01*
X2341770D01*
X2335670Y-721170D01*
X2330930Y-726170D01*
X2327540Y-732170D01*
X2324830Y-742170D01*
X2324160Y-751170D01*
X2325510Y-760170D01*
X2327540Y-766170D01*
X2331610Y-772170D01*
X2336350Y-776170D01*
X2341090Y-778170D01*
X2345830D01*
X2350570Y-776170D01*
X2354640Y-773170D01*
X2358020Y-769170D01*
G01X2382070Y-766170D02*
X2386130Y-773170D01*
X2391550Y-777170D01*
X2397650Y-778170D01*
X2403070Y-777170D01*
X2408490Y-772170D01*
X2411870Y-766170D01*
X2412550Y-760170D01*
X2411190Y-753170D01*
X2406450Y-748170D01*
X2401710Y-746170D01*
X2395620D01*
G01X2401710D02*
X2405780Y-743170D01*
X2409160Y-738170D01*
X2410520Y-732170D01*
X2409160Y-726170D01*
X2405780Y-721170D01*
X2399680Y-718170D01*
X2393580Y-719170D01*
X2387490Y-723170D01*
G01X2450000Y-710000D02*
X2290000D01*
Y-790000D01*
X2450000D01*
Y-710000D01*
G01X2355990Y-573170D02*
X2351930Y-570170D01*
X2347190Y-568170D01*
X2341770D01*
X2335670Y-571170D01*
X2330930Y-576170D01*
X2327540Y-582170D01*
X2324830Y-592170D01*
X2324160Y-601170D01*
X2325510Y-610170D01*
X2327540Y-616170D01*
X2331610Y-622170D01*
X2336350Y-626170D01*
X2341090Y-628170D01*
X2345830D01*
X2350570Y-626170D01*
X2354640Y-623170D01*
X2358020Y-619170D01*
G01X2382070D02*
X2386130Y-624170D01*
X2390870Y-627170D01*
X2396970Y-628170D01*
X2403070Y-626170D01*
X2407810Y-622170D01*
X2411190Y-615170D01*
X2411870Y-607170D01*
X2410520Y-599170D01*
X2407130Y-594170D01*
X2402390Y-590170D01*
X2397650Y-589170D01*
X2392910Y-590170D01*
X2386810Y-594170D01*
X2388840Y-568170D01*
X2407130D01*
G01X2450000Y-560000D02*
X2290000D01*
Y-640000D01*
X2450000D01*
Y-560000D01*
G01X1895990Y-413170D02*
X1891930Y-410170D01*
X1887190Y-408170D01*
X1881770D01*
X1875670Y-411170D01*
X1870930Y-416170D01*
X1867540Y-422170D01*
X1864830Y-432170D01*
X1864160Y-441170D01*
X1865510Y-450170D01*
X1867540Y-456170D01*
X1871610Y-462170D01*
X1876350Y-466170D01*
X1881090Y-468170D01*
X1885830D01*
X1890570Y-466170D01*
X1894640Y-463170D01*
X1898020Y-459170D01*
G01X1924100Y-443170D02*
X1928840Y-436170D01*
X1932910Y-432170D01*
X1938320Y-430170D01*
X1943070Y-432170D01*
X1946450Y-436170D01*
X1949160Y-442170D01*
X1949840Y-449170D01*
X1949160Y-455170D01*
X1946450Y-461170D01*
X1942390Y-466170D01*
X1937650Y-468170D01*
X1932230Y-466170D01*
X1927490Y-460170D01*
X1924780Y-451170D01*
X1924100Y-441170D01*
X1925450Y-428170D01*
X1927490Y-421170D01*
X1930870Y-414170D01*
X1935620Y-409170D01*
X1940360Y-408170D01*
X1945100Y-410170D01*
X1948490Y-415170D01*
G01X1990000Y-400000D02*
X1830000D01*
Y-480000D01*
X1990000D01*
Y-400000D01*
G01X2327540Y-928170D02*
Y-868170D01*
X2344480D01*
X2349900Y-871170D01*
X2353280Y-875170D01*
X2354640Y-883170D01*
X2353280Y-891170D01*
X2349220Y-896170D01*
X2344480Y-899170D01*
X2327540D01*
G01X2344480D02*
X2354640Y-928170D01*
G01X2384100Y-878170D02*
X2388160Y-872170D01*
X2392910Y-869170D01*
X2398320Y-868170D01*
X2405100Y-870170D01*
X2409840Y-875170D01*
X2411190Y-881170D01*
X2410520Y-887170D01*
X2407810Y-892170D01*
X2394260Y-902170D01*
X2388160Y-909170D01*
X2384100Y-919170D01*
X2382750Y-928170D01*
X2411190D01*
G01X2450000Y-860000D02*
X2290000D01*
Y-940000D01*
X2450000D01*
Y-860000D01*
G01X2291830Y-327540D02*
X2351830D01*
Y-344480D01*
X2348830Y-349900D01*
X2344830Y-353280D01*
X2336830Y-354640D01*
X2328830Y-353280D01*
X2323830Y-349220D01*
X2320830Y-344480D01*
Y-327540D01*
G01Y-344480D02*
X2291830Y-354640D01*
G01Y-395620D02*
X2304830Y-396970D01*
X2315830Y-399000D01*
X2325830Y-401710D01*
X2336830Y-405100D01*
X2351830Y-410520D01*
Y-383420D01*
G01X2280000Y-290000D02*
Y-450000D01*
X2360000D01*
Y-290000D01*
X2280000D01*
G01X2141830Y-327540D02*
X2201830D01*
Y-344480D01*
X2198830Y-349900D01*
X2194830Y-353280D01*
X2186830Y-354640D01*
X2178830Y-353280D01*
X2173830Y-349220D01*
X2170830Y-344480D01*
Y-327540D01*
G01Y-344480D02*
X2141830Y-354640D01*
G01X2148830Y-385450D02*
X2143830Y-390200D01*
X2141830Y-395620D01*
X2143830Y-401030D01*
X2149830Y-405780D01*
X2158830Y-409160D01*
X2167830Y-410520D01*
X2178830D01*
X2187830Y-409160D01*
X2195830Y-405780D01*
X2199830Y-401710D01*
X2201830Y-396970D01*
X2199830Y-391550D01*
X2195830Y-387490D01*
X2189830Y-384780D01*
X2181830Y-383420D01*
X2174830Y-384780D01*
X2167830Y-388160D01*
X2163830Y-392230D01*
X2162830Y-396970D01*
X2164830Y-402390D01*
X2169830Y-406450D01*
X2178830Y-410520D01*
G01X2210000Y-450000D02*
Y-290000D01*
X2130000D01*
Y-450000D01*
X2210000D01*
G01X1837540Y-318170D02*
Y-258170D01*
X1854480D01*
X1859900Y-261170D01*
X1863280Y-265170D01*
X1864640Y-273170D01*
X1863280Y-281170D01*
X1859220Y-286170D01*
X1854480Y-289170D01*
X1837540D01*
G01X1854480D02*
X1864640Y-318170D01*
G01X1906970D02*
Y-258170D01*
X1898840Y-270170D01*
G01Y-318170D02*
X1915100D01*
G01X1962850Y-258170D02*
X1957430Y-260170D01*
X1953370Y-265170D01*
X1950660Y-271170D01*
X1948630Y-279170D01*
X1947950Y-288170D01*
X1948630Y-297170D01*
X1950660Y-305170D01*
X1953370Y-311170D01*
X1957430Y-316170D01*
X1962850Y-318170D01*
X1968270Y-316170D01*
X1972330Y-311170D01*
X1975040Y-305170D01*
X1977070Y-297170D01*
X1977750Y-288170D01*
X1977070Y-279170D01*
X1975040Y-271170D01*
X1972330Y-265170D01*
X1968270Y-260170D01*
X1962850Y-258170D01*
G01X1990000Y-250000D02*
X1830000D01*
Y-330000D01*
X1990000D01*
Y-250000D01*
G01X1640000Y-280000D02*
Y-440000D01*
X1720000D01*
Y-280000D01*
X1640000D01*
G01X1726250Y-855380D02*
X1769250D01*
X1778250Y-852670D01*
X1784250Y-847250D01*
X1786250Y-840480D01*
X1784250Y-833710D01*
X1778250Y-828290D01*
X1769250Y-825580D01*
X1726250D01*
G01X1786250Y-784600D02*
X1726250D01*
X1738250Y-792730D01*
G01X1786250D02*
Y-776470D01*
G01X1726250Y-728720D02*
X1728250Y-734140D01*
X1733250Y-738200D01*
X1739250Y-740910D01*
X1747250Y-742940D01*
X1756250Y-743620D01*
X1765250Y-742940D01*
X1773250Y-740910D01*
X1779250Y-738200D01*
X1784250Y-734140D01*
X1786250Y-728720D01*
X1784250Y-723300D01*
X1779250Y-719240D01*
X1773250Y-716530D01*
X1765250Y-714500D01*
X1756250Y-713820D01*
X1747250Y-714500D01*
X1739250Y-716530D01*
X1733250Y-719240D01*
X1728250Y-723300D01*
X1726250Y-728720D01*
G01X1656500Y-136320D02*
X1716500D01*
X1704500Y-128190D01*
G01X1656500D02*
Y-144450D01*
G01X1996500Y-146320D02*
X2056500D01*
X2044500Y-138190D01*
G01X1996500D02*
Y-154450D01*
G01X1677540Y861830D02*
Y921830D01*
X1694480D01*
X1699900Y918830D01*
X1703280Y914830D01*
X1704640Y906830D01*
X1703280Y898830D01*
X1699220Y893830D01*
X1694480Y890830D01*
X1677540D01*
G01X1694480D02*
X1704640Y861830D01*
G01X1734100Y886830D02*
X1738840Y893830D01*
X1742910Y897830D01*
X1748320Y899830D01*
X1753070Y897830D01*
X1756450Y893830D01*
X1759160Y887830D01*
X1759840Y880830D01*
X1759160Y874830D01*
X1756450Y868830D01*
X1752390Y863830D01*
X1747650Y861830D01*
X1742230Y863830D01*
X1737490Y869830D01*
X1734780Y878830D01*
X1734100Y888830D01*
X1735450Y901830D01*
X1737490Y908830D01*
X1740870Y915830D01*
X1745620Y920830D01*
X1750360Y921830D01*
X1755100Y919830D01*
X1758490Y914830D01*
G01X1802850Y861830D02*
Y921830D01*
X1794720Y909830D01*
G01Y861830D02*
X1810980D01*
G01X1677540Y1011830D02*
Y1071830D01*
X1694480D01*
X1699900Y1068830D01*
X1703280Y1064830D01*
X1704640Y1056830D01*
X1703280Y1048830D01*
X1699220Y1043830D01*
X1694480Y1040830D01*
X1677540D01*
G01X1694480D02*
X1704640Y1011830D01*
G01X1734100Y1036830D02*
X1738840Y1043830D01*
X1742910Y1047830D01*
X1748320Y1049830D01*
X1753070Y1047830D01*
X1756450Y1043830D01*
X1759160Y1037830D01*
X1759840Y1030830D01*
X1759160Y1024830D01*
X1756450Y1018830D01*
X1752390Y1013830D01*
X1747650Y1011830D01*
X1742230Y1013830D01*
X1737490Y1019830D01*
X1734780Y1028830D01*
X1734100Y1038830D01*
X1735450Y1051830D01*
X1737490Y1058830D01*
X1740870Y1065830D01*
X1745620Y1070830D01*
X1750360Y1071830D01*
X1755100Y1069830D01*
X1758490Y1064830D01*
G01X1789980Y1061830D02*
X1794040Y1067830D01*
X1798790Y1070830D01*
X1804200Y1071830D01*
X1810980Y1069830D01*
X1815720Y1064830D01*
X1817070Y1058830D01*
X1816400Y1052830D01*
X1813690Y1047830D01*
X1800140Y1037830D01*
X1794040Y1030830D01*
X1789980Y1020830D01*
X1788630Y1011830D01*
X1817070D01*
G01X1677540Y711830D02*
Y771830D01*
X1694480D01*
X1699900Y768830D01*
X1703280Y764830D01*
X1704640Y756830D01*
X1703280Y748830D01*
X1699220Y743830D01*
X1694480Y740830D01*
X1677540D01*
G01X1694480D02*
X1704640Y711830D01*
G01X1745620D02*
X1746970Y724830D01*
X1749000Y735830D01*
X1751710Y745830D01*
X1755100Y756830D01*
X1760520Y771830D01*
X1733420D01*
G01X1810980Y711830D02*
Y771830D01*
X1785920Y728830D01*
X1819780D01*
G01X1677540Y561830D02*
Y621830D01*
X1694480D01*
X1699900Y618830D01*
X1703280Y614830D01*
X1704640Y606830D01*
X1703280Y598830D01*
X1699220Y593830D01*
X1694480Y590830D01*
X1677540D01*
G01X1694480D02*
X1704640Y561830D01*
G01X1745620D02*
X1746970Y574830D01*
X1749000Y585830D01*
X1751710Y595830D01*
X1755100Y606830D01*
X1760520Y621830D01*
X1733420D01*
G01X1787950Y570830D02*
X1792010Y565830D01*
X1796750Y562830D01*
X1802850Y561830D01*
X1808950Y563830D01*
X1813690Y567830D01*
X1817070Y574830D01*
X1817750Y582830D01*
X1816400Y590830D01*
X1813010Y595830D01*
X1808270Y599830D01*
X1803530Y600830D01*
X1798790Y599830D01*
X1792690Y595830D01*
X1794720Y621830D01*
X1813010D01*
G01X1835220Y1745000D02*
X1831160Y1748000D01*
X1826420Y1750000D01*
X1821000D01*
X1814900Y1747000D01*
X1810160Y1742000D01*
X1806770Y1736000D01*
X1804060Y1726000D01*
X1803390Y1717000D01*
X1804740Y1708000D01*
X1806770Y1702000D01*
X1810840Y1696000D01*
X1815580Y1692000D01*
X1820320Y1690000D01*
X1825060D01*
X1829800Y1692000D01*
X1833870Y1695000D01*
X1837250Y1699000D01*
G01X1876200Y1690000D02*
Y1750000D01*
X1868070Y1738000D01*
G01Y1690000D02*
X1884330D01*
G01X1917180Y1699000D02*
X1921240Y1694000D01*
X1925980Y1691000D01*
X1932080Y1690000D01*
X1938180Y1692000D01*
X1942920Y1696000D01*
X1946300Y1703000D01*
X1946980Y1711000D01*
X1945630Y1719000D01*
X1942240Y1724000D01*
X1937500Y1728000D01*
X1932760Y1729000D01*
X1928020Y1728000D01*
X1921920Y1724000D01*
X1923950Y1750000D01*
X1942240D01*
G01X1797490Y3131900D02*
X1683190D01*
G01Y3208100D02*
X1797490D01*
G01X1826550Y3131900D02*
X1797490D01*
G01Y3208100D02*
X1826550D01*
G01X1609710Y2987990D02*
G03X1645090Y2984580I35397J182008D01*
G01D02*
G03X1680470Y2987990I-17J185418D01*
G01X1637560Y3453410D02*
Y3513410D01*
X1654500D01*
X1659920Y3510410D01*
X1663300Y3506410D01*
X1664660Y3498410D01*
X1663300Y3490410D01*
X1659240Y3485410D01*
X1654500Y3482410D01*
X1637560D01*
G01X1654500D02*
X1664660Y3453410D01*
G01X1715120D02*
Y3513410D01*
X1690060Y3470410D01*
X1723920D01*
G01X1750000Y3503410D02*
X1754060Y3509410D01*
X1758810Y3512410D01*
X1764220Y3513410D01*
X1771000Y3511410D01*
X1775740Y3506410D01*
X1777090Y3500410D01*
X1776420Y3494410D01*
X1773710Y3489410D01*
X1760160Y3479410D01*
X1754060Y3472410D01*
X1750000Y3462410D01*
X1748650Y3453410D01*
X1777090D01*
G01X2421830Y-1397540D02*
X2481830D01*
Y-1414480D01*
X2478830Y-1419900D01*
X2474830Y-1423280D01*
X2466830Y-1424640D01*
X2458830Y-1423280D01*
X2453830Y-1419220D01*
X2450830Y-1414480D01*
Y-1397540D01*
G01Y-1414480D02*
X2421830Y-1424640D01*
G01X2430830Y-1452070D02*
X2425830Y-1456130D01*
X2422830Y-1460870D01*
X2421830Y-1466970D01*
X2423830Y-1473070D01*
X2427830Y-1477810D01*
X2434830Y-1481190D01*
X2442830Y-1481870D01*
X2450830Y-1480520D01*
X2455830Y-1477130D01*
X2459830Y-1472390D01*
X2460830Y-1467650D01*
X2459830Y-1462910D01*
X2455830Y-1456810D01*
X2481830Y-1458840D01*
Y-1477130D01*
G01X2410000Y-1210000D02*
Y-1370000D01*
X2490000D01*
Y-1210000D01*
X2410000D01*
G01X2889000Y-1118000D02*
X2849000D01*
Y-1018000D01*
X2889000D01*
Y-1118000D01*
G01Y-1608000D02*
X3651000D01*
G01Y-1708000D02*
Y-968000D01*
X2889000D01*
Y-1708000D01*
X3651000D01*
G01X3232430Y-1338000D02*
G03I-152930J0D01*
G01X2441830Y-327540D02*
X2501830D01*
Y-344480D01*
X2498830Y-349900D01*
X2494830Y-353280D01*
X2486830Y-354640D01*
X2478830Y-353280D01*
X2473830Y-349220D01*
X2470830Y-344480D01*
Y-327540D01*
G01Y-344480D02*
X2441830Y-354640D01*
G01X2466830Y-384100D02*
X2473830Y-388840D01*
X2477830Y-392910D01*
X2479830Y-398320D01*
X2477830Y-403070D01*
X2473830Y-406450D01*
X2467830Y-409160D01*
X2460830Y-409840D01*
X2454830Y-409160D01*
X2448830Y-406450D01*
X2443830Y-402390D01*
X2441830Y-397650D01*
X2443830Y-392230D01*
X2449830Y-387490D01*
X2458830Y-384780D01*
X2468830Y-384100D01*
X2481830Y-385450D01*
X2488830Y-387490D01*
X2495830Y-390870D01*
X2500830Y-395620D01*
X2501830Y-400360D01*
X2499830Y-405100D01*
X2494830Y-408490D01*
G01X2510000Y-450000D02*
Y-290000D01*
X2430000D01*
Y-450000D01*
X2510000D01*
G01X2869020Y329380D02*
Y389380D01*
X2885960D01*
X2891380Y386380D01*
X2894760Y382380D01*
X2896120Y374380D01*
X2894760Y366380D01*
X2890700Y361380D01*
X2885960Y358380D01*
X2869020D01*
G01X2885960D02*
X2896120Y329380D01*
G01X2946580D02*
Y389380D01*
X2921520Y346380D01*
X2955380D01*
G01X3002460Y329380D02*
Y389380D01*
X2977400Y346380D01*
X3011260D01*
G01X2846830Y934010D02*
X2849830Y938070D01*
X2851830Y942810D01*
Y948230D01*
X2848830Y954330D01*
X2843830Y959070D01*
X2837830Y962460D01*
X2827830Y965170D01*
X2818830Y965840D01*
X2809830Y964490D01*
X2803830Y962460D01*
X2797830Y958390D01*
X2793830Y953650D01*
X2791830Y948910D01*
Y944170D01*
X2793830Y939430D01*
X2796830Y935360D01*
X2800830Y931980D01*
G01X2791830Y893030D02*
X2851830D01*
X2839830Y901160D01*
G01X2791830D02*
Y884900D01*
G01Y837150D02*
X2851830D01*
X2839830Y845280D01*
G01X2791830D02*
Y829020D01*
G01X2690000Y980000D02*
Y820000D01*
X2770000D01*
Y980000D01*
X2690000D01*
G01X2447510Y1071830D02*
Y1131830D01*
X2464450D01*
X2469870Y1128830D01*
X2473250Y1124830D01*
X2474610Y1116830D01*
X2473250Y1108830D01*
X2469190Y1103830D01*
X2464450Y1100830D01*
X2447510D01*
G01X2464450D02*
X2474610Y1071830D01*
G01X2516940D02*
Y1131830D01*
X2508810Y1119830D01*
G01Y1071830D02*
X2525070D01*
G01X2561300Y1078830D02*
X2566050Y1073830D01*
X2571470Y1071830D01*
X2576880Y1073830D01*
X2581630Y1079830D01*
X2585010Y1088830D01*
X2586370Y1097830D01*
Y1108830D01*
X2585010Y1117830D01*
X2581630Y1125830D01*
X2577560Y1129830D01*
X2572820Y1131830D01*
X2567400Y1129830D01*
X2563340Y1125830D01*
X2560630Y1119830D01*
X2559270Y1111830D01*
X2560630Y1104830D01*
X2564010Y1097830D01*
X2568080Y1093830D01*
X2572820Y1092830D01*
X2578240Y1094830D01*
X2582300Y1099830D01*
X2586370Y1108830D01*
G01X2805000Y1055000D02*
X2615000D01*
Y1145000D01*
X2805000D01*
Y1055000D01*
G01X2652000Y1568000D02*
Y1848000D01*
X2802000D01*
Y1568000D01*
X2652000D01*
G01X2752000Y1153000D02*
X4252000D01*
Y2263000D01*
X2652000D01*
Y1253000D01*
X2752000Y1153000D01*
G01X2856830Y2514010D02*
X2859830Y2518070D01*
X2861830Y2522810D01*
Y2528230D01*
X2858830Y2534330D01*
X2853830Y2539070D01*
X2847830Y2542460D01*
X2837830Y2545170D01*
X2828830Y2545840D01*
X2819830Y2544490D01*
X2813830Y2542460D01*
X2807830Y2538390D01*
X2803830Y2533650D01*
X2801830Y2528910D01*
Y2524170D01*
X2803830Y2519430D01*
X2806830Y2515360D01*
X2810830Y2511980D01*
G01X2801830Y2473030D02*
X2861830D01*
X2849830Y2481160D01*
G01X2801830D02*
Y2464900D01*
G01X2813830Y2432050D02*
X2806830Y2427990D01*
X2802830Y2422570D01*
X2801830Y2416470D01*
X2802830Y2411050D01*
X2807830Y2405630D01*
X2813830Y2402250D01*
X2819830Y2401570D01*
X2826830Y2402930D01*
X2831830Y2407670D01*
X2833830Y2412410D01*
Y2418500D01*
G01Y2412410D02*
X2836830Y2408340D01*
X2841830Y2404960D01*
X2847830Y2403600D01*
X2853830Y2404960D01*
X2858830Y2408340D01*
X2861830Y2414440D01*
X2860830Y2420540D01*
X2856830Y2426630D01*
G01X2770000Y2390000D02*
Y2550000D01*
X2690000D01*
Y2390000D01*
X2770000D01*
G01X3076830Y2614010D02*
X3079830Y2618070D01*
X3081830Y2622810D01*
Y2628230D01*
X3078830Y2634330D01*
X3073830Y2639070D01*
X3067830Y2642460D01*
X3057830Y2645170D01*
X3048830Y2645840D01*
X3039830Y2644490D01*
X3033830Y2642460D01*
X3027830Y2638390D01*
X3023830Y2633650D01*
X3021830Y2628910D01*
Y2624170D01*
X3023830Y2619430D01*
X3026830Y2615360D01*
X3030830Y2611980D01*
G01X3028830Y2584550D02*
X3023830Y2579800D01*
X3021830Y2574380D01*
X3023830Y2568970D01*
X3029830Y2564220D01*
X3038830Y2560840D01*
X3047830Y2559480D01*
X3058830D01*
X3067830Y2560840D01*
X3075830Y2564220D01*
X3079830Y2568290D01*
X3081830Y2573030D01*
X3079830Y2578450D01*
X3075830Y2582510D01*
X3069830Y2585220D01*
X3061830Y2586580D01*
X3054830Y2585220D01*
X3047830Y2581840D01*
X3043830Y2577770D01*
X3042830Y2573030D01*
X3044830Y2567610D01*
X3049830Y2563550D01*
X3058830Y2559480D01*
G01X3090000Y2670000D02*
Y2830000D01*
X3010000D01*
Y2670000D01*
X3090000D01*
G01X2765700Y2852980D02*
X2825700D01*
Y2839430D01*
X2822700Y2834020D01*
X2818700Y2829950D01*
X2812700Y2826560D01*
X2805700Y2823860D01*
X2795700Y2823180D01*
X2785700Y2823860D01*
X2778700Y2826560D01*
X2772700Y2829950D01*
X2768700Y2834020D01*
X2765700Y2839430D01*
Y2852980D01*
G01Y2782200D02*
X2825700D01*
X2813700Y2790330D01*
G01X2765700D02*
Y2774070D01*
G01X2929020Y3149380D02*
Y3209380D01*
X2945960D01*
X2951380Y3206380D01*
X2954760Y3202380D01*
X2956120Y3194380D01*
X2954760Y3186380D01*
X2950700Y3181380D01*
X2945960Y3178380D01*
X2929020D01*
G01X2945960D02*
X2956120Y3149380D01*
G01X3006580D02*
Y3209380D01*
X2981520Y3166380D01*
X3015380D01*
G01X3039430Y3158380D02*
X3043490Y3153380D01*
X3048230Y3150380D01*
X3054330Y3149380D01*
X3060430Y3151380D01*
X3065170Y3155380D01*
X3068550Y3162380D01*
X3069230Y3170380D01*
X3067880Y3178380D01*
X3064490Y3183380D01*
X3059750Y3187380D01*
X3055010Y3188380D01*
X3050270Y3187380D01*
X3044170Y3183380D01*
X3046200Y3209380D01*
X3064490D01*
G01X2670570Y3604400D02*
X2673960Y3598400D01*
X2678020Y3594400D01*
X2682770Y3592400D01*
X2688180Y3594400D01*
X2692250Y3598400D01*
X2696310Y3604400D01*
X2697670Y3612400D01*
Y3652400D01*
G01X2740000Y3592400D02*
Y3652400D01*
X2731870Y3640400D01*
G01Y3592400D02*
X2748130D01*
G01X2783010Y3617400D02*
X2787750Y3624400D01*
X2791820Y3628400D01*
X2797230Y3630400D01*
X2801980Y3628400D01*
X2805360Y3624400D01*
X2808070Y3618400D01*
X2808750Y3611400D01*
X2808070Y3605400D01*
X2805360Y3599400D01*
X2801300Y3594400D01*
X2796560Y3592400D01*
X2791140Y3594400D01*
X2786400Y3600400D01*
X2783690Y3609400D01*
X2783010Y3619400D01*
X2784360Y3632400D01*
X2786400Y3639400D01*
X2789780Y3646400D01*
X2794530Y3651400D01*
X2799270Y3652400D01*
X2804010Y3650400D01*
X2807400Y3645400D01*
G01X3651000Y-1118000D02*
X3611000D01*
Y-1018000D01*
X3651000D01*
Y-1118000D01*
G01X3613430Y-1338000D02*
G03I-152930J0D01*
G01X3229300Y-320620D02*
Y-260620D01*
X3246240D01*
X3251660Y-263620D01*
X3255040Y-267620D01*
X3256400Y-275620D01*
X3255040Y-283620D01*
X3250980Y-288620D01*
X3246240Y-291620D01*
X3229300D01*
G01X3246240D02*
X3256400Y-320620D01*
G01X3306860D02*
Y-260620D01*
X3281800Y-303620D01*
X3315660D01*
G01X3339710Y-308620D02*
X3343770Y-315620D01*
X3349190Y-319620D01*
X3355290Y-320620D01*
X3360710Y-319620D01*
X3366130Y-314620D01*
X3369510Y-308620D01*
X3370190Y-302620D01*
X3368830Y-295620D01*
X3364090Y-290620D01*
X3359350Y-288620D01*
X3353260D01*
G01X3359350D02*
X3363420Y-285620D01*
X3366800Y-280620D01*
X3368160Y-274620D01*
X3366800Y-268620D01*
X3363420Y-263620D01*
X3357320Y-260620D01*
X3351220Y-261620D01*
X3345130Y-265620D01*
G01X3805900Y84920D02*
X3745900D01*
X3757900Y76790D01*
G01X3805900D02*
Y93050D01*
G01X3135990Y786830D02*
X3131930Y789830D01*
X3127190Y791830D01*
X3121770D01*
X3115670Y788830D01*
X3110930Y783830D01*
X3107540Y777830D01*
X3104830Y767830D01*
X3104160Y758830D01*
X3105510Y749830D01*
X3107540Y743830D01*
X3111610Y737830D01*
X3116350Y733830D01*
X3121090Y731830D01*
X3125830D01*
X3130570Y733830D01*
X3134640Y736830D01*
X3138020Y740830D01*
G01X3176970Y731830D02*
Y791830D01*
X3168840Y779830D01*
G01Y731830D02*
X3185100D01*
G01X3219980Y781830D02*
X3224040Y787830D01*
X3228790Y790830D01*
X3234200Y791830D01*
X3240980Y789830D01*
X3245720Y784830D01*
X3247070Y778830D01*
X3246400Y772830D01*
X3243690Y767830D01*
X3230140Y757830D01*
X3224040Y750830D01*
X3219980Y740830D01*
X3218630Y731830D01*
X3247070D01*
G01X3100000Y630000D02*
X3260000D01*
Y710000D01*
X3100000D01*
Y630000D01*
G01X3404160Y1736830D02*
Y1693830D01*
X3406870Y1684830D01*
X3412290Y1678830D01*
X3419060Y1676830D01*
X3425830Y1678830D01*
X3431250Y1684830D01*
X3433960Y1693830D01*
Y1736830D01*
G01X3474940Y1676830D02*
Y1736830D01*
X3466810Y1724830D01*
G01Y1676830D02*
X3483070D01*
G01X3530820D02*
Y1736830D01*
X3522690Y1724830D01*
G01Y1676830D02*
X3538950D01*
G01X3246830Y2614010D02*
X3249830Y2618070D01*
X3251830Y2622810D01*
Y2628230D01*
X3248830Y2634330D01*
X3243830Y2639070D01*
X3237830Y2642460D01*
X3227830Y2645170D01*
X3218830Y2645840D01*
X3209830Y2644490D01*
X3203830Y2642460D01*
X3197830Y2638390D01*
X3193830Y2633650D01*
X3191830Y2628910D01*
Y2624170D01*
X3193830Y2619430D01*
X3196830Y2615360D01*
X3200830Y2611980D01*
G01X3191830Y2573030D02*
X3251830D01*
X3239830Y2581160D01*
G01X3191830D02*
Y2564900D01*
G01X3216830Y2530020D02*
X3223830Y2525280D01*
X3227830Y2521210D01*
X3229830Y2515800D01*
X3227830Y2511050D01*
X3223830Y2507670D01*
X3217830Y2504960D01*
X3210830Y2504280D01*
X3204830Y2504960D01*
X3198830Y2507670D01*
X3193830Y2511730D01*
X3191830Y2516470D01*
X3193830Y2521890D01*
X3199830Y2526630D01*
X3208830Y2529340D01*
X3218830Y2530020D01*
X3231830Y2528670D01*
X3238830Y2526630D01*
X3245830Y2523250D01*
X3250830Y2518500D01*
X3251830Y2513760D01*
X3249830Y2509020D01*
X3244830Y2505630D01*
G01X3341830Y2642460D02*
X3401830D01*
Y2625520D01*
X3398830Y2620100D01*
X3394830Y2616720D01*
X3386830Y2615360D01*
X3378830Y2616720D01*
X3373830Y2620780D01*
X3370830Y2625520D01*
Y2642460D01*
G01Y2625520D02*
X3341830Y2615360D01*
G01X3391830Y2585900D02*
X3397830Y2581840D01*
X3400830Y2577090D01*
X3401830Y2571680D01*
X3399830Y2564900D01*
X3394830Y2560160D01*
X3388830Y2558810D01*
X3382830Y2559480D01*
X3377830Y2562190D01*
X3367830Y2575740D01*
X3360830Y2581840D01*
X3350830Y2585900D01*
X3341830Y2587250D01*
Y2558810D01*
G01Y2517150D02*
X3401830D01*
X3389830Y2525280D01*
G01X3341830D02*
Y2509020D01*
G01X3180000Y2830000D02*
Y2670000D01*
X3260000D01*
Y2830000D01*
X3180000D01*
G01X3330000D02*
Y2670000D01*
X3410000D01*
Y2830000D01*
X3330000D01*
G01X3484100Y3295080D02*
X3544100D01*
X3532100Y3303210D01*
G01X3484100D02*
Y3286950D01*
G01X3747540Y3481830D02*
Y3541830D01*
X3764480D01*
X3769900Y3538830D01*
X3773280Y3534830D01*
X3774640Y3526830D01*
X3773280Y3518830D01*
X3769220Y3513830D01*
X3764480Y3510830D01*
X3747540D01*
G01X3764480D02*
X3774640Y3481830D01*
G01X3816970D02*
X3821710Y3482830D01*
X3827130Y3485830D01*
X3830520Y3490830D01*
X3831870Y3497830D01*
X3830520Y3504830D01*
X3826450Y3510830D01*
X3820360Y3513830D01*
X3813580D01*
X3809520Y3515830D01*
X3806130Y3520830D01*
X3804780Y3527830D01*
X3806810Y3534830D01*
X3811550Y3539830D01*
X3816970Y3541830D01*
X3822390Y3539830D01*
X3827130Y3534830D01*
X3829160Y3527830D01*
X3827810Y3520830D01*
X3824420Y3515830D01*
X3820360Y3513830D01*
X3813580D01*
X3807490Y3510830D01*
X3803420Y3504830D01*
X3802070Y3497830D01*
X3803420Y3490830D01*
X3806810Y3485830D01*
X3812230Y3482830D01*
X3816970Y3481830D01*
G01X3857950Y3493830D02*
X3862010Y3486830D01*
X3867430Y3482830D01*
X3873530Y3481830D01*
X3878950Y3482830D01*
X3884370Y3487830D01*
X3887750Y3493830D01*
X3888430Y3499830D01*
X3887070Y3506830D01*
X3882330Y3511830D01*
X3877590Y3513830D01*
X3871500D01*
G01X3877590D02*
X3881660Y3516830D01*
X3885040Y3521830D01*
X3886400Y3527830D01*
X3885040Y3533830D01*
X3881660Y3538830D01*
X3875560Y3541830D01*
X3869460Y3540830D01*
X3863370Y3536830D01*
G01X3900000Y3640000D02*
X3740000D01*
Y3560000D01*
X3900000D01*
Y3640000D01*
G01X3437000Y3475990D02*
Y3535990D01*
X3450550D01*
X3455960Y3532990D01*
X3460030Y3528990D01*
X3463420Y3522990D01*
X3466120Y3515990D01*
X3466800Y3505990D01*
X3466120Y3495990D01*
X3463420Y3488990D01*
X3460030Y3482990D01*
X3455960Y3478990D01*
X3450550Y3475990D01*
X3437000D01*
G01X3507780D02*
Y3535990D01*
X3499650Y3523990D01*
G01Y3475990D02*
X3515910D01*
G01X3563660D02*
Y3535990D01*
X3555530Y3523990D01*
G01Y3475990D02*
X3571790D01*
G01X3356980Y3570250D02*
Y3630250D01*
G01X3382720D02*
X3356980Y3593250D01*
G01X3386780Y3570250D02*
X3368490Y3610250D01*
G01X4263930Y-1328000D02*
G03I-152930J0D01*
G01X5063500Y-1598000D02*
X3920500D01*
G01X5063500Y-1698000D02*
X3920500D01*
Y-958000D01*
X5063500D01*
G01X3920500Y-1008000D02*
Y-1108000D01*
G01X3880500D02*
Y-1008000D01*
G01X3920500Y-1108000D02*
X3880500D01*
G01X4644930Y-1328000D02*
G03I-152930J0D01*
G01X4487540Y-388170D02*
Y-328170D01*
X4504480D01*
X4509900Y-331170D01*
X4513280Y-335170D01*
X4514640Y-343170D01*
X4513280Y-351170D01*
X4509220Y-356170D01*
X4504480Y-359170D01*
X4487540D01*
G01X4504480D02*
X4514640Y-388170D01*
G01X4542070Y-376170D02*
X4546130Y-383170D01*
X4551550Y-387170D01*
X4557650Y-388170D01*
X4563070Y-387170D01*
X4568490Y-382170D01*
X4571870Y-376170D01*
X4572550Y-370170D01*
X4571190Y-363170D01*
X4566450Y-358170D01*
X4561710Y-356170D01*
X4555620D01*
G01X4561710D02*
X4565780Y-353170D01*
X4569160Y-348170D01*
X4570520Y-342170D01*
X4569160Y-336170D01*
X4565780Y-331170D01*
X4559680Y-328170D01*
X4553580Y-329170D01*
X4547490Y-333170D01*
G01X4611500Y-388170D02*
X4612850Y-375170D01*
X4614880Y-364170D01*
X4617590Y-354170D01*
X4620980Y-343170D01*
X4626400Y-328170D01*
X4599300D01*
G01X4640000Y-230000D02*
X4480000D01*
Y-310000D01*
X4640000D01*
Y-230000D01*
G01X4177540Y-388170D02*
Y-328170D01*
X4194480D01*
X4199900Y-331170D01*
X4203280Y-335170D01*
X4204640Y-343170D01*
X4203280Y-351170D01*
X4199220Y-356170D01*
X4194480Y-359170D01*
X4177540D01*
G01X4194480D02*
X4204640Y-388170D01*
G01X4232070Y-376170D02*
X4236130Y-383170D01*
X4241550Y-387170D01*
X4247650Y-388170D01*
X4253070Y-387170D01*
X4258490Y-382170D01*
X4261870Y-376170D01*
X4262550Y-370170D01*
X4261190Y-363170D01*
X4256450Y-358170D01*
X4251710Y-356170D01*
X4245620D01*
G01X4251710D02*
X4255780Y-353170D01*
X4259160Y-348170D01*
X4260520Y-342170D01*
X4259160Y-336170D01*
X4255780Y-331170D01*
X4249680Y-328170D01*
X4243580Y-329170D01*
X4237490Y-333170D01*
G01X4289980Y-363170D02*
X4294720Y-356170D01*
X4298790Y-352170D01*
X4304200Y-350170D01*
X4308950Y-352170D01*
X4312330Y-356170D01*
X4315040Y-362170D01*
X4315720Y-369170D01*
X4315040Y-375170D01*
X4312330Y-381170D01*
X4308270Y-386170D01*
X4303530Y-388170D01*
X4298110Y-386170D01*
X4293370Y-380170D01*
X4290660Y-371170D01*
X4289980Y-361170D01*
X4291330Y-348170D01*
X4293370Y-341170D01*
X4296750Y-334170D01*
X4301500Y-329170D01*
X4306240Y-328170D01*
X4310980Y-330170D01*
X4314370Y-335170D01*
G01X4330000Y-230000D02*
X4170000D01*
Y-310000D01*
X4330000D01*
Y-230000D01*
G01X3880500Y-1008000D02*
X3920500D01*
G01X4670000Y-497500D02*
X4470000D01*
Y-622500D01*
X4670000D01*
Y-497500D01*
G01X4148510Y-786170D02*
Y-726170D01*
X4165450D01*
X4170870Y-729170D01*
X4174250Y-733170D01*
X4175610Y-741170D01*
X4174250Y-749170D01*
X4170190Y-754170D01*
X4165450Y-757170D01*
X4148510D01*
G01X4165450D02*
X4175610Y-786170D01*
G01X4203040Y-774170D02*
X4207100Y-781170D01*
X4212520Y-785170D01*
X4218620Y-786170D01*
X4224040Y-785170D01*
X4229460Y-780170D01*
X4232840Y-774170D01*
X4233520Y-768170D01*
X4232160Y-761170D01*
X4227420Y-756170D01*
X4222680Y-754170D01*
X4216590D01*
G01X4222680D02*
X4226750Y-751170D01*
X4230130Y-746170D01*
X4231490Y-740170D01*
X4230130Y-734170D01*
X4226750Y-729170D01*
X4220650Y-726170D01*
X4214550Y-727170D01*
X4208460Y-731170D01*
G01X4262300Y-779170D02*
X4267050Y-784170D01*
X4272470Y-786170D01*
X4277880Y-784170D01*
X4282630Y-778170D01*
X4286010Y-769170D01*
X4287370Y-760170D01*
Y-749170D01*
X4286010Y-740170D01*
X4282630Y-732170D01*
X4278560Y-728170D01*
X4273820Y-726170D01*
X4268400Y-728170D01*
X4264340Y-732170D01*
X4261630Y-738170D01*
X4260270Y-746170D01*
X4261630Y-753170D01*
X4265010Y-760170D01*
X4269080Y-764170D01*
X4273820Y-765170D01*
X4279240Y-763170D01*
X4283300Y-758170D01*
X4287370Y-749170D01*
G01X4320000Y-697500D02*
X4120000D01*
Y-822500D01*
X4320000D01*
Y-697500D01*
G01X4304830Y-126160D02*
X4364830D01*
Y-139710D01*
X4361830Y-145120D01*
X4357830Y-149190D01*
X4351830Y-152580D01*
X4344830Y-155280D01*
X4334830Y-155960D01*
X4324830Y-155280D01*
X4317830Y-152580D01*
X4311830Y-149190D01*
X4307830Y-145120D01*
X4304830Y-139710D01*
Y-126160D01*
G01X4313830Y-182040D02*
X4308830Y-186100D01*
X4305830Y-190840D01*
X4304830Y-196940D01*
X4306830Y-203040D01*
X4310830Y-207780D01*
X4317830Y-211160D01*
X4325830Y-211840D01*
X4333830Y-210490D01*
X4338830Y-207100D01*
X4342830Y-202360D01*
X4343830Y-197620D01*
X4342830Y-192880D01*
X4338830Y-186780D01*
X4364830Y-188810D01*
Y-207100D01*
G01X4301830Y75900D02*
X4361830D01*
G01Y50160D02*
X4324830Y75900D01*
G01X4301830Y46100D02*
X4341830Y64390D01*
G01X4290000Y10000D02*
Y-110000D01*
X4370000D01*
Y10000D01*
X4290000D01*
G01X4134830Y-126160D02*
X4194830D01*
Y-139710D01*
X4191830Y-145120D01*
X4187830Y-149190D01*
X4181830Y-152580D01*
X4174830Y-155280D01*
X4164830Y-155960D01*
X4154830Y-155280D01*
X4147830Y-152580D01*
X4141830Y-149190D01*
X4137830Y-145120D01*
X4134830Y-139710D01*
Y-126160D01*
G01X4159830Y-184070D02*
X4166830Y-188810D01*
X4170830Y-192880D01*
X4172830Y-198290D01*
X4170830Y-203040D01*
X4166830Y-206420D01*
X4160830Y-209130D01*
X4153830Y-209810D01*
X4147830Y-209130D01*
X4141830Y-206420D01*
X4136830Y-202360D01*
X4134830Y-197620D01*
X4136830Y-192200D01*
X4142830Y-187460D01*
X4151830Y-184750D01*
X4161830Y-184070D01*
X4174830Y-185420D01*
X4181830Y-187460D01*
X4188830Y-190840D01*
X4193830Y-195590D01*
X4194830Y-200330D01*
X4192830Y-205070D01*
X4187830Y-208460D01*
G01X4141830Y75900D02*
X4201830D01*
G01Y50160D02*
X4164830Y75900D01*
G01X4141830Y46100D02*
X4181830Y64390D01*
G01X4130000Y10000D02*
Y-110000D01*
X4210000D01*
Y10000D01*
X4130000D01*
G01X4444830Y-126160D02*
X4504830D01*
Y-139710D01*
X4501830Y-145120D01*
X4497830Y-149190D01*
X4491830Y-152580D01*
X4484830Y-155280D01*
X4474830Y-155960D01*
X4464830Y-155280D01*
X4457830Y-152580D01*
X4451830Y-149190D01*
X4447830Y-145120D01*
X4444830Y-139710D01*
Y-126160D01*
G01Y-196940D02*
X4445830Y-201680D01*
X4448830Y-207100D01*
X4453830Y-210490D01*
X4460830Y-211840D01*
X4467830Y-210490D01*
X4473830Y-206420D01*
X4476830Y-200330D01*
Y-193550D01*
X4478830Y-189490D01*
X4483830Y-186100D01*
X4490830Y-184750D01*
X4497830Y-186780D01*
X4502830Y-191520D01*
X4504830Y-196940D01*
X4502830Y-202360D01*
X4497830Y-207100D01*
X4490830Y-209130D01*
X4483830Y-207780D01*
X4478830Y-204390D01*
X4476830Y-200330D01*
Y-193550D01*
X4473830Y-187460D01*
X4467830Y-183390D01*
X4460830Y-182040D01*
X4453830Y-183390D01*
X4448830Y-186780D01*
X4445830Y-192200D01*
X4444830Y-196940D01*
G01X4451830Y75900D02*
X4511830D01*
G01Y50160D02*
X4474830Y75900D01*
G01X4451830Y46100D02*
X4491830Y64390D01*
G01X4440000Y10000D02*
Y-110000D01*
X4520000D01*
Y10000D01*
X4440000D01*
G01X4102000Y1568000D02*
Y1848000D01*
X4252000D01*
Y1568000D01*
X4102000D01*
G01X3966830Y2544010D02*
X3969830Y2548070D01*
X3971830Y2552810D01*
Y2558230D01*
X3968830Y2564330D01*
X3963830Y2569070D01*
X3957830Y2572460D01*
X3947830Y2575170D01*
X3938830Y2575840D01*
X3929830Y2574490D01*
X3923830Y2572460D01*
X3917830Y2568390D01*
X3913830Y2563650D01*
X3911830Y2558910D01*
Y2554170D01*
X3913830Y2549430D01*
X3916830Y2545360D01*
X3920830Y2541980D01*
G01X3911830Y2503030D02*
X3971830D01*
X3959830Y2511160D01*
G01X3911830D02*
Y2494900D01*
G01Y2448500D02*
X3924830Y2447150D01*
X3935830Y2445120D01*
X3945830Y2442410D01*
X3956830Y2439020D01*
X3971830Y2433600D01*
Y2460700D01*
G01X4091830Y2562460D02*
X4151830D01*
Y2545520D01*
X4148830Y2540100D01*
X4144830Y2536720D01*
X4136830Y2535360D01*
X4128830Y2536720D01*
X4123830Y2540780D01*
X4120830Y2545520D01*
Y2562460D01*
G01Y2545520D02*
X4091830Y2535360D01*
G01X4141830Y2505900D02*
X4147830Y2501840D01*
X4150830Y2497090D01*
X4151830Y2491680D01*
X4149830Y2484900D01*
X4144830Y2480160D01*
X4138830Y2478810D01*
X4132830Y2479480D01*
X4127830Y2482190D01*
X4117830Y2495740D01*
X4110830Y2501840D01*
X4100830Y2505900D01*
X4091830Y2507250D01*
Y2478810D01*
G01X4141830Y2450020D02*
X4147830Y2445960D01*
X4150830Y2441210D01*
X4151830Y2435800D01*
X4149830Y2429020D01*
X4144830Y2424280D01*
X4138830Y2422930D01*
X4132830Y2423600D01*
X4127830Y2426310D01*
X4117830Y2439860D01*
X4110830Y2445960D01*
X4100830Y2450020D01*
X4091830Y2451370D01*
Y2422930D01*
G01X3966830Y3204010D02*
X3969830Y3208070D01*
X3971830Y3212810D01*
Y3218230D01*
X3968830Y3224330D01*
X3963830Y3229070D01*
X3957830Y3232460D01*
X3947830Y3235170D01*
X3938830Y3235840D01*
X3929830Y3234490D01*
X3923830Y3232460D01*
X3917830Y3228390D01*
X3913830Y3223650D01*
X3911830Y3218910D01*
Y3214170D01*
X3913830Y3209430D01*
X3916830Y3205360D01*
X3920830Y3201980D01*
G01X3911830Y3163030D02*
X3971830D01*
X3959830Y3171160D01*
G01X3911830D02*
Y3154900D01*
G01Y3107150D02*
X3912830Y3102410D01*
X3915830Y3096990D01*
X3920830Y3093600D01*
X3927830Y3092250D01*
X3934830Y3093600D01*
X3940830Y3097670D01*
X3943830Y3103760D01*
Y3110540D01*
X3945830Y3114600D01*
X3950830Y3117990D01*
X3957830Y3119340D01*
X3964830Y3117310D01*
X3969830Y3112570D01*
X3971830Y3107150D01*
X3969830Y3101730D01*
X3964830Y3096990D01*
X3957830Y3094960D01*
X3950830Y3096310D01*
X3945830Y3099700D01*
X3943830Y3103760D01*
Y3110540D01*
X3940830Y3116630D01*
X3934830Y3120700D01*
X3927830Y3122050D01*
X3920830Y3120700D01*
X3915830Y3117310D01*
X3912830Y3111890D01*
X3911830Y3107150D01*
G01X3900000Y3060000D02*
Y2900000D01*
X3980000D01*
Y3060000D01*
X3900000D01*
G01Y2760000D02*
Y2600000D01*
X3980000D01*
Y2760000D01*
X3900000D01*
G01X4091830Y3232460D02*
X4151830D01*
Y3215520D01*
X4148830Y3210100D01*
X4144830Y3206720D01*
X4136830Y3205360D01*
X4128830Y3206720D01*
X4123830Y3210780D01*
X4120830Y3215520D01*
Y3232460D01*
G01Y3215520D02*
X4091830Y3205360D01*
G01X4141830Y3175900D02*
X4147830Y3171840D01*
X4150830Y3167090D01*
X4151830Y3161680D01*
X4149830Y3154900D01*
X4144830Y3150160D01*
X4138830Y3148810D01*
X4132830Y3149480D01*
X4127830Y3152190D01*
X4117830Y3165740D01*
X4110830Y3171840D01*
X4100830Y3175900D01*
X4091830Y3177250D01*
Y3148810D01*
G01X4103830Y3122050D02*
X4096830Y3117990D01*
X4092830Y3112570D01*
X4091830Y3106470D01*
X4092830Y3101050D01*
X4097830Y3095630D01*
X4103830Y3092250D01*
X4109830Y3091570D01*
X4116830Y3092930D01*
X4121830Y3097670D01*
X4123830Y3102410D01*
Y3108500D01*
G01Y3102410D02*
X4126830Y3098340D01*
X4131830Y3094960D01*
X4137830Y3093600D01*
X4143830Y3094960D01*
X4148830Y3098340D01*
X4151830Y3104440D01*
X4150830Y3110540D01*
X4146830Y3116630D01*
G01X4160000Y2900000D02*
Y3060000D01*
X4080000D01*
Y2900000D01*
X4160000D01*
G01X4080000Y2760000D02*
Y2600000D01*
X4160000D01*
Y2760000D01*
X4080000D01*
G01X4460570Y3114400D02*
X4463960Y3108400D01*
X4468020Y3104400D01*
X4472770Y3102400D01*
X4478180Y3104400D01*
X4482250Y3108400D01*
X4486310Y3114400D01*
X4487670Y3122400D01*
Y3162400D01*
G01X4530000Y3102400D02*
X4534740Y3103400D01*
X4540160Y3106400D01*
X4543550Y3111400D01*
X4544900Y3118400D01*
X4543550Y3125400D01*
X4539480Y3131400D01*
X4533390Y3134400D01*
X4526610D01*
X4522550Y3136400D01*
X4519160Y3141400D01*
X4517810Y3148400D01*
X4519840Y3155400D01*
X4524580Y3160400D01*
X4530000Y3162400D01*
X4535420Y3160400D01*
X4540160Y3155400D01*
X4542190Y3148400D01*
X4540840Y3141400D01*
X4537450Y3136400D01*
X4533390Y3134400D01*
X4526610D01*
X4520520Y3131400D01*
X4516450Y3125400D01*
X4515100Y3118400D01*
X4516450Y3111400D01*
X4519840Y3106400D01*
X4525260Y3103400D01*
X4530000Y3102400D01*
G01X4204920Y3284100D02*
Y3344100D01*
X4196790Y3332100D01*
G01Y3284100D02*
X4213050D01*
G01X5063500Y-958000D02*
Y-1698000D01*
G01Y-1108000D02*
X5023500D01*
Y-1008000D01*
X5063500D01*
Y-1108000D01*
G01X5025930Y-1328000D02*
G03I-152930J0D01*
G01X4797540Y-388170D02*
Y-328170D01*
X4814480D01*
X4819900Y-331170D01*
X4823280Y-335170D01*
X4824640Y-343170D01*
X4823280Y-351170D01*
X4819220Y-356170D01*
X4814480Y-359170D01*
X4797540D01*
G01X4814480D02*
X4824640Y-388170D01*
G01X4852070Y-376170D02*
X4856130Y-383170D01*
X4861550Y-387170D01*
X4867650Y-388170D01*
X4873070Y-387170D01*
X4878490Y-382170D01*
X4881870Y-376170D01*
X4882550Y-370170D01*
X4881190Y-363170D01*
X4876450Y-358170D01*
X4871710Y-356170D01*
X4865620D01*
G01X4871710D02*
X4875780Y-353170D01*
X4879160Y-348170D01*
X4880520Y-342170D01*
X4879160Y-336170D01*
X4875780Y-331170D01*
X4869680Y-328170D01*
X4863580Y-329170D01*
X4857490Y-333170D01*
G01X4922850Y-388170D02*
X4927590Y-387170D01*
X4933010Y-384170D01*
X4936400Y-379170D01*
X4937750Y-372170D01*
X4936400Y-365170D01*
X4932330Y-359170D01*
X4926240Y-356170D01*
X4919460D01*
X4915400Y-354170D01*
X4912010Y-349170D01*
X4910660Y-342170D01*
X4912690Y-335170D01*
X4917430Y-330170D01*
X4922850Y-328170D01*
X4928270Y-330170D01*
X4933010Y-335170D01*
X4935040Y-342170D01*
X4933690Y-349170D01*
X4930300Y-354170D01*
X4926240Y-356170D01*
X4919460D01*
X4913370Y-359170D01*
X4909300Y-365170D01*
X4907950Y-372170D01*
X4909300Y-379170D01*
X4912690Y-384170D01*
X4918110Y-387170D01*
X4922850Y-388170D01*
G01X4950000Y-230000D02*
X4790000D01*
Y-310000D01*
X4950000D01*
Y-230000D01*
G01X4868510Y-786170D02*
Y-726170D01*
X4885450D01*
X4890870Y-729170D01*
X4894250Y-733170D01*
X4895610Y-741170D01*
X4894250Y-749170D01*
X4890190Y-754170D01*
X4885450Y-757170D01*
X4868510D01*
G01X4885450D02*
X4895610Y-786170D01*
G01X4946070D02*
Y-726170D01*
X4921010Y-769170D01*
X4954870D01*
G01X4993820Y-786170D02*
Y-726170D01*
X4985690Y-738170D01*
G01Y-786170D02*
X5001950D01*
G01X5030000Y-697500D02*
X4830000D01*
Y-822500D01*
X5030000D01*
Y-697500D01*
G01X4498510Y-586170D02*
Y-526170D01*
X4515450D01*
X4520870Y-529170D01*
X4524250Y-533170D01*
X4525610Y-541170D01*
X4524250Y-549170D01*
X4520190Y-554170D01*
X4515450Y-557170D01*
X4498510D01*
G01X4515450D02*
X4525610Y-586170D01*
G01X4576070D02*
Y-526170D01*
X4551010Y-569170D01*
X4584870D01*
G01X4623820Y-526170D02*
X4618400Y-528170D01*
X4614340Y-533170D01*
X4611630Y-539170D01*
X4609600Y-547170D01*
X4608920Y-556170D01*
X4609600Y-565170D01*
X4611630Y-573170D01*
X4614340Y-579170D01*
X4618400Y-584170D01*
X4623820Y-586170D01*
X4629240Y-584170D01*
X4633300Y-579170D01*
X4636010Y-573170D01*
X4638040Y-565170D01*
X4638720Y-556170D01*
X4638040Y-547170D01*
X4636010Y-539170D01*
X4633300Y-533170D01*
X4629240Y-528170D01*
X4623820Y-526170D01*
G01X5216830Y-15990D02*
X5219830Y-11930D01*
X5221830Y-7190D01*
Y-1770D01*
X5218830Y4330D01*
X5213830Y9070D01*
X5207830Y12460D01*
X5197830Y15170D01*
X5188830Y15840D01*
X5179830Y14490D01*
X5173830Y12460D01*
X5167830Y8390D01*
X5163830Y3650D01*
X5161830Y-1090D01*
Y-5830D01*
X5163830Y-10570D01*
X5166830Y-14640D01*
X5170830Y-18020D01*
G01X5211830Y-44100D02*
X5217830Y-48160D01*
X5220830Y-52910D01*
X5221830Y-58320D01*
X5219830Y-65100D01*
X5214830Y-69840D01*
X5208830Y-71190D01*
X5202830Y-70520D01*
X5197830Y-67810D01*
X5187830Y-54260D01*
X5180830Y-48160D01*
X5170830Y-44100D01*
X5161830Y-42750D01*
Y-71190D01*
G01X5173830Y-97950D02*
X5166830Y-102010D01*
X5162830Y-107430D01*
X5161830Y-113530D01*
X5162830Y-118950D01*
X5167830Y-124370D01*
X5173830Y-127750D01*
X5179830Y-128430D01*
X5186830Y-127070D01*
X5191830Y-122330D01*
X5193830Y-117590D01*
Y-111500D01*
G01Y-117590D02*
X5196830Y-121660D01*
X5201830Y-125040D01*
X5207830Y-126400D01*
X5213830Y-125040D01*
X5218830Y-121660D01*
X5221830Y-115560D01*
X5220830Y-109460D01*
X5216830Y-103370D01*
G01X5070000Y30000D02*
Y-130000D01*
X5150000D01*
Y30000D01*
X5070000D01*
G01X4914830Y-126160D02*
X4974830D01*
Y-139710D01*
X4971830Y-145120D01*
X4967830Y-149190D01*
X4961830Y-152580D01*
X4954830Y-155280D01*
X4944830Y-155960D01*
X4934830Y-155280D01*
X4927830Y-152580D01*
X4921830Y-149190D01*
X4917830Y-145120D01*
X4914830Y-139710D01*
Y-126160D01*
G01X4921830Y-185420D02*
X4916830Y-190170D01*
X4914830Y-195590D01*
X4916830Y-201000D01*
X4922830Y-205750D01*
X4931830Y-209130D01*
X4940830Y-210490D01*
X4951830D01*
X4960830Y-209130D01*
X4968830Y-205750D01*
X4972830Y-201680D01*
X4974830Y-196940D01*
X4972830Y-191520D01*
X4968830Y-187460D01*
X4962830Y-184750D01*
X4954830Y-183390D01*
X4947830Y-184750D01*
X4940830Y-188130D01*
X4936830Y-192200D01*
X4935830Y-196940D01*
X4937830Y-202360D01*
X4942830Y-206420D01*
X4951830Y-210490D01*
G01X4921830Y75900D02*
X4981830D01*
G01Y50160D02*
X4944830Y75900D01*
G01X4921830Y46100D02*
X4961830Y64390D01*
G01X4910000Y10000D02*
Y-110000D01*
X4990000D01*
Y10000D01*
X4910000D01*
G01X4604830Y-126160D02*
X4664830D01*
Y-139710D01*
X4661830Y-145120D01*
X4657830Y-149190D01*
X4651830Y-152580D01*
X4644830Y-155280D01*
X4634830Y-155960D01*
X4624830Y-155280D01*
X4617830Y-152580D01*
X4611830Y-149190D01*
X4607830Y-145120D01*
X4604830Y-139710D01*
Y-126160D01*
G01Y-195590D02*
X4617830Y-196940D01*
X4628830Y-198970D01*
X4638830Y-201680D01*
X4649830Y-205070D01*
X4664830Y-210490D01*
Y-183390D01*
G01X4611830Y75900D02*
X4671830D01*
G01Y50160D02*
X4634830Y75900D01*
G01X4611830Y46100D02*
X4651830Y64390D01*
G01X4600000Y10000D02*
Y-110000D01*
X4680000D01*
Y10000D01*
X4600000D01*
G01X4764830Y-66160D02*
X4824830D01*
Y-79710D01*
X4821830Y-85120D01*
X4817830Y-89190D01*
X4811830Y-92580D01*
X4804830Y-95280D01*
X4794830Y-95960D01*
X4784830Y-95280D01*
X4777830Y-92580D01*
X4771830Y-89190D01*
X4767830Y-85120D01*
X4764830Y-79710D01*
Y-66160D01*
G01Y-136940D02*
X4824830D01*
X4812830Y-128810D01*
G01X4764830D02*
Y-145070D01*
G01X4824830Y-192820D02*
X4822830Y-187400D01*
X4817830Y-183340D01*
X4811830Y-180630D01*
X4803830Y-178600D01*
X4794830Y-177920D01*
X4785830Y-178600D01*
X4777830Y-180630D01*
X4771830Y-183340D01*
X4766830Y-187400D01*
X4764830Y-192820D01*
X4766830Y-198240D01*
X4771830Y-202300D01*
X4777830Y-205010D01*
X4785830Y-207040D01*
X4794830Y-207720D01*
X4803830Y-207040D01*
X4811830Y-205010D01*
X4817830Y-202300D01*
X4822830Y-198240D01*
X4824830Y-192820D01*
G01X4761830Y75900D02*
X4821830D01*
G01Y50160D02*
X4784830Y75900D01*
G01X4761830Y46100D02*
X4801830Y64390D01*
G01X4750000Y10000D02*
Y-110000D01*
X4830000D01*
Y10000D01*
X4750000D01*
G01X4887540Y249710D02*
Y309710D01*
X4904480D01*
X4909900Y306710D01*
X4913280Y302710D01*
X4914640Y294710D01*
X4913280Y286710D01*
X4909220Y281710D01*
X4904480Y278710D01*
X4887540D01*
G01X4904480D02*
X4914640Y249710D01*
G01X4955620D02*
X4956970Y262710D01*
X4959000Y273710D01*
X4961710Y283710D01*
X4965100Y294710D01*
X4970520Y309710D01*
X4943420D01*
G01X5012850D02*
X5007430Y307710D01*
X5003370Y302710D01*
X5000660Y296710D01*
X4998630Y288710D01*
X4997950Y279710D01*
X4998630Y270710D01*
X5000660Y262710D01*
X5003370Y256710D01*
X5007430Y251710D01*
X5012850Y249710D01*
X5018270Y251710D01*
X5022330Y256710D01*
X5025040Y262710D01*
X5027070Y270710D01*
X5027750Y279710D01*
X5027070Y288710D01*
X5025040Y296710D01*
X5022330Y302710D01*
X5018270Y307710D01*
X5012850Y309710D01*
G01X5210000Y322120D02*
X5050000D01*
Y242120D01*
X5210000D01*
Y322120D01*
G01X4887540Y437050D02*
Y497050D01*
X4904480D01*
X4909900Y494050D01*
X4913280Y490050D01*
X4914640Y482050D01*
X4913280Y474050D01*
X4909220Y469050D01*
X4904480Y466050D01*
X4887540D01*
G01X4904480D02*
X4914640Y437050D01*
G01X4956970D02*
X4961710Y438050D01*
X4967130Y441050D01*
X4970520Y446050D01*
X4971870Y453050D01*
X4970520Y460050D01*
X4966450Y466050D01*
X4960360Y469050D01*
X4953580D01*
X4949520Y471050D01*
X4946130Y476050D01*
X4944780Y483050D01*
X4946810Y490050D01*
X4951550Y495050D01*
X4956970Y497050D01*
X4962390Y495050D01*
X4967130Y490050D01*
X4969160Y483050D01*
X4967810Y476050D01*
X4964420Y471050D01*
X4960360Y469050D01*
X4953580D01*
X4947490Y466050D01*
X4943420Y460050D01*
X4942070Y453050D01*
X4943420Y446050D01*
X4946810Y441050D01*
X4952230Y438050D01*
X4956970Y437050D01*
G01X5012850D02*
Y497050D01*
X5004720Y485050D01*
G01Y437050D02*
X5020980D01*
G01X5210000Y504780D02*
X5050000D01*
Y424780D01*
X5210000D01*
Y504780D01*
G01X4887540Y624390D02*
Y684390D01*
X4904480D01*
X4909900Y681390D01*
X4913280Y677390D01*
X4914640Y669390D01*
X4913280Y661390D01*
X4909220Y656390D01*
X4904480Y653390D01*
X4887540D01*
G01X4904480D02*
X4914640Y624390D01*
G01X4956970D02*
X4961710Y625390D01*
X4967130Y628390D01*
X4970520Y633390D01*
X4971870Y640390D01*
X4970520Y647390D01*
X4966450Y653390D01*
X4960360Y656390D01*
X4953580D01*
X4949520Y658390D01*
X4946130Y663390D01*
X4944780Y670390D01*
X4946810Y677390D01*
X4951550Y682390D01*
X4956970Y684390D01*
X4962390Y682390D01*
X4967130Y677390D01*
X4969160Y670390D01*
X4967810Y663390D01*
X4964420Y658390D01*
X4960360Y656390D01*
X4953580D01*
X4947490Y653390D01*
X4943420Y647390D01*
X4942070Y640390D01*
X4943420Y633390D01*
X4946810Y628390D01*
X4952230Y625390D01*
X4956970Y624390D01*
G01X4999980Y674390D02*
X5004040Y680390D01*
X5008790Y683390D01*
X5014200Y684390D01*
X5020980Y682390D01*
X5025720Y677390D01*
X5027070Y671390D01*
X5026400Y665390D01*
X5023690Y660390D01*
X5010140Y650390D01*
X5004040Y643390D01*
X4999980Y633390D01*
X4998630Y624390D01*
X5027070D01*
G01X5210000Y687440D02*
X5050000D01*
Y607440D01*
X5210000D01*
Y687440D01*
G01X4887540Y979070D02*
Y1039070D01*
X4904480D01*
X4909900Y1036070D01*
X4913280Y1032070D01*
X4914640Y1024070D01*
X4913280Y1016070D01*
X4909220Y1011070D01*
X4904480Y1008070D01*
X4887540D01*
G01X4904480D02*
X4914640Y979070D01*
G01X4955620D02*
X4956970Y992070D01*
X4959000Y1003070D01*
X4961710Y1013070D01*
X4965100Y1024070D01*
X4970520Y1039070D01*
X4943420D01*
G01X5011500Y979070D02*
X5012850Y992070D01*
X5014880Y1003070D01*
X5017590Y1013070D01*
X5020980Y1024070D01*
X5026400Y1039070D01*
X4999300D01*
G01X5210000Y1052760D02*
X5050000D01*
Y972760D01*
X5210000D01*
Y1052760D01*
G01X4887540Y801730D02*
Y861730D01*
X4904480D01*
X4909900Y858730D01*
X4913280Y854730D01*
X4914640Y846730D01*
X4913280Y838730D01*
X4909220Y833730D01*
X4904480Y830730D01*
X4887540D01*
G01X4904480D02*
X4914640Y801730D01*
G01X4956970D02*
X4961710Y802730D01*
X4967130Y805730D01*
X4970520Y810730D01*
X4971870Y817730D01*
X4970520Y824730D01*
X4966450Y830730D01*
X4960360Y833730D01*
X4953580D01*
X4949520Y835730D01*
X4946130Y840730D01*
X4944780Y847730D01*
X4946810Y854730D01*
X4951550Y859730D01*
X4956970Y861730D01*
X4962390Y859730D01*
X4967130Y854730D01*
X4969160Y847730D01*
X4967810Y840730D01*
X4964420Y835730D01*
X4960360Y833730D01*
X4953580D01*
X4947490Y830730D01*
X4943420Y824730D01*
X4942070Y817730D01*
X4943420Y810730D01*
X4946810Y805730D01*
X4952230Y802730D01*
X4956970Y801730D01*
G01X4997950Y810730D02*
X5002010Y805730D01*
X5006750Y802730D01*
X5012850Y801730D01*
X5018950Y803730D01*
X5023690Y807730D01*
X5027070Y814730D01*
X5027750Y822730D01*
X5026400Y830730D01*
X5023010Y835730D01*
X5018270Y839730D01*
X5013530Y840730D01*
X5008790Y839730D01*
X5002690Y835730D01*
X5004720Y861730D01*
X5023010D01*
G01X5210000Y870100D02*
X5050000D01*
Y790100D01*
X5210000D01*
Y870100D01*
G01X4887540Y1166410D02*
Y1226410D01*
X4904480D01*
X4909900Y1223410D01*
X4913280Y1219410D01*
X4914640Y1211410D01*
X4913280Y1203410D01*
X4909220Y1198410D01*
X4904480Y1195410D01*
X4887540D01*
G01X4904480D02*
X4914640Y1166410D01*
G01X4965100D02*
Y1226410D01*
X4940040Y1183410D01*
X4973900D01*
G01X5001330Y1173410D02*
X5006080Y1168410D01*
X5011500Y1166410D01*
X5016910Y1168410D01*
X5021660Y1174410D01*
X5025040Y1183410D01*
X5026400Y1192410D01*
Y1203410D01*
X5025040Y1212410D01*
X5021660Y1220410D01*
X5017590Y1224410D01*
X5012850Y1226410D01*
X5007430Y1224410D01*
X5003370Y1220410D01*
X5000660Y1214410D01*
X4999300Y1206410D01*
X5000660Y1199410D01*
X5004040Y1192410D01*
X5008110Y1188410D01*
X5012850Y1187410D01*
X5018270Y1189410D01*
X5022330Y1194410D01*
X5026400Y1203410D01*
G01X5210000Y1235420D02*
X5050000D01*
Y1155420D01*
X5210000D01*
Y1235420D01*
G01X4887540Y1531090D02*
Y1591090D01*
X4904480D01*
X4909900Y1588090D01*
X4913280Y1584090D01*
X4914640Y1576090D01*
X4913280Y1568090D01*
X4909220Y1563090D01*
X4904480Y1560090D01*
X4887540D01*
G01X4904480D02*
X4914640Y1531090D01*
G01X4942070Y1540090D02*
X4946130Y1535090D01*
X4950870Y1532090D01*
X4956970Y1531090D01*
X4963070Y1533090D01*
X4967810Y1537090D01*
X4971190Y1544090D01*
X4971870Y1552090D01*
X4970520Y1560090D01*
X4967130Y1565090D01*
X4962390Y1569090D01*
X4957650Y1570090D01*
X4952910Y1569090D01*
X4946810Y1565090D01*
X4948840Y1591090D01*
X4967130D01*
G01X4999980Y1556090D02*
X5004720Y1563090D01*
X5008790Y1567090D01*
X5014200Y1569090D01*
X5018950Y1567090D01*
X5022330Y1563090D01*
X5025040Y1557090D01*
X5025720Y1550090D01*
X5025040Y1544090D01*
X5022330Y1538090D01*
X5018270Y1533090D01*
X5013530Y1531090D01*
X5008110Y1533090D01*
X5003370Y1539090D01*
X5000660Y1548090D01*
X4999980Y1558090D01*
X5001330Y1571090D01*
X5003370Y1578090D01*
X5006750Y1585090D01*
X5011500Y1590090D01*
X5016240Y1591090D01*
X5020980Y1589090D01*
X5024370Y1584090D01*
G01X5210000Y1600740D02*
X5050000D01*
Y1520740D01*
X5210000D01*
Y1600740D01*
G01X4887540Y1343750D02*
Y1403750D01*
X4904480D01*
X4909900Y1400750D01*
X4913280Y1396750D01*
X4914640Y1388750D01*
X4913280Y1380750D01*
X4909220Y1375750D01*
X4904480Y1372750D01*
X4887540D01*
G01X4904480D02*
X4914640Y1343750D01*
G01X4956970D02*
X4961710Y1344750D01*
X4967130Y1347750D01*
X4970520Y1352750D01*
X4971870Y1359750D01*
X4970520Y1366750D01*
X4966450Y1372750D01*
X4960360Y1375750D01*
X4953580D01*
X4949520Y1377750D01*
X4946130Y1382750D01*
X4944780Y1389750D01*
X4946810Y1396750D01*
X4951550Y1401750D01*
X4956970Y1403750D01*
X4962390Y1401750D01*
X4967130Y1396750D01*
X4969160Y1389750D01*
X4967810Y1382750D01*
X4964420Y1377750D01*
X4960360Y1375750D01*
X4953580D01*
X4947490Y1372750D01*
X4943420Y1366750D01*
X4942070Y1359750D01*
X4943420Y1352750D01*
X4946810Y1347750D01*
X4952230Y1344750D01*
X4956970Y1343750D01*
G01X5020980D02*
Y1403750D01*
X4995920Y1360750D01*
X5029780D01*
G01X5210000Y1418080D02*
X5050000D01*
Y1338080D01*
X5210000D01*
Y1418080D01*
G01X4887540Y1708430D02*
Y1768430D01*
X4904480D01*
X4909900Y1765430D01*
X4913280Y1761430D01*
X4914640Y1753430D01*
X4913280Y1745430D01*
X4909220Y1740430D01*
X4904480Y1737430D01*
X4887540D01*
G01X4904480D02*
X4914640Y1708430D01*
G01X4955620D02*
X4956970Y1721430D01*
X4959000Y1732430D01*
X4961710Y1742430D01*
X4965100Y1753430D01*
X4970520Y1768430D01*
X4943420D01*
G01X5012850Y1708430D02*
X5017590Y1709430D01*
X5023010Y1712430D01*
X5026400Y1717430D01*
X5027750Y1724430D01*
X5026400Y1731430D01*
X5022330Y1737430D01*
X5016240Y1740430D01*
X5009460D01*
X5005400Y1742430D01*
X5002010Y1747430D01*
X5000660Y1754430D01*
X5002690Y1761430D01*
X5007430Y1766430D01*
X5012850Y1768430D01*
X5018270Y1766430D01*
X5023010Y1761430D01*
X5025040Y1754430D01*
X5023690Y1747430D01*
X5020300Y1742430D01*
X5016240Y1740430D01*
X5009460D01*
X5003370Y1737430D01*
X4999300Y1731430D01*
X4997950Y1724430D01*
X4999300Y1717430D01*
X5002690Y1712430D01*
X5008110Y1709430D01*
X5012850Y1708430D01*
G01X5210000Y1783400D02*
X5050000D01*
Y1703400D01*
X5210000D01*
Y1783400D01*
G01X4721830Y2282460D02*
X4781830D01*
Y2265520D01*
X4778830Y2260100D01*
X4774830Y2256720D01*
X4766830Y2255360D01*
X4758830Y2256720D01*
X4753830Y2260780D01*
X4750830Y2265520D01*
Y2282460D01*
G01Y2265520D02*
X4721830Y2255360D01*
G01X4746830Y2225900D02*
X4753830Y2221160D01*
X4757830Y2217090D01*
X4759830Y2211680D01*
X4757830Y2206930D01*
X4753830Y2203550D01*
X4747830Y2200840D01*
X4740830Y2200160D01*
X4734830Y2200840D01*
X4728830Y2203550D01*
X4723830Y2207610D01*
X4721830Y2212350D01*
X4723830Y2217770D01*
X4729830Y2222510D01*
X4738830Y2225220D01*
X4748830Y2225900D01*
X4761830Y2224550D01*
X4768830Y2222510D01*
X4775830Y2219130D01*
X4780830Y2214380D01*
X4781830Y2209640D01*
X4779830Y2204900D01*
X4774830Y2201510D01*
G01X4721830Y2157150D02*
X4722830Y2152410D01*
X4725830Y2146990D01*
X4730830Y2143600D01*
X4737830Y2142250D01*
X4744830Y2143600D01*
X4750830Y2147670D01*
X4753830Y2153760D01*
Y2160540D01*
X4755830Y2164600D01*
X4760830Y2167990D01*
X4767830Y2169340D01*
X4774830Y2167310D01*
X4779830Y2162570D01*
X4781830Y2157150D01*
X4779830Y2151730D01*
X4774830Y2146990D01*
X4767830Y2144960D01*
X4760830Y2146310D01*
X4755830Y2149700D01*
X4753830Y2153760D01*
Y2160540D01*
X4750830Y2166630D01*
X4744830Y2170700D01*
X4737830Y2172050D01*
X4730830Y2170700D01*
X4725830Y2167310D01*
X4722830Y2161890D01*
X4721830Y2157150D01*
G01X4890000Y2130000D02*
Y2290000D01*
X4810000D01*
Y2130000D01*
X4890000D01*
G01X4721830Y2582460D02*
X4781830D01*
Y2565520D01*
X4778830Y2560100D01*
X4774830Y2556720D01*
X4766830Y2555360D01*
X4758830Y2556720D01*
X4753830Y2560780D01*
X4750830Y2565520D01*
Y2582460D01*
G01Y2565520D02*
X4721830Y2555360D01*
G01X4746830Y2525900D02*
X4753830Y2521160D01*
X4757830Y2517090D01*
X4759830Y2511680D01*
X4757830Y2506930D01*
X4753830Y2503550D01*
X4747830Y2500840D01*
X4740830Y2500160D01*
X4734830Y2500840D01*
X4728830Y2503550D01*
X4723830Y2507610D01*
X4721830Y2512350D01*
X4723830Y2517770D01*
X4729830Y2522510D01*
X4738830Y2525220D01*
X4748830Y2525900D01*
X4761830Y2524550D01*
X4768830Y2522510D01*
X4775830Y2519130D01*
X4780830Y2514380D01*
X4781830Y2509640D01*
X4779830Y2504900D01*
X4774830Y2501510D01*
G01X4728830Y2468670D02*
X4723830Y2463920D01*
X4721830Y2458500D01*
X4723830Y2453090D01*
X4729830Y2448340D01*
X4738830Y2444960D01*
X4747830Y2443600D01*
X4758830D01*
X4767830Y2444960D01*
X4775830Y2448340D01*
X4779830Y2452410D01*
X4781830Y2457150D01*
X4779830Y2462570D01*
X4775830Y2466630D01*
X4769830Y2469340D01*
X4761830Y2470700D01*
X4754830Y2469340D01*
X4747830Y2465960D01*
X4743830Y2461890D01*
X4742830Y2457150D01*
X4744830Y2451730D01*
X4749830Y2447670D01*
X4758830Y2443600D01*
G01X4890000Y2430000D02*
Y2590000D01*
X4810000D01*
Y2430000D01*
X4890000D01*
G01X4887540Y1895770D02*
Y1955770D01*
X4904480D01*
X4909900Y1952770D01*
X4913280Y1948770D01*
X4914640Y1940770D01*
X4913280Y1932770D01*
X4909220Y1927770D01*
X4904480Y1924770D01*
X4887540D01*
G01X4904480D02*
X4914640Y1895770D01*
G01X4944100Y1920770D02*
X4948840Y1927770D01*
X4952910Y1931770D01*
X4958320Y1933770D01*
X4963070Y1931770D01*
X4966450Y1927770D01*
X4969160Y1921770D01*
X4969840Y1914770D01*
X4969160Y1908770D01*
X4966450Y1902770D01*
X4962390Y1897770D01*
X4957650Y1895770D01*
X4952230Y1897770D01*
X4947490Y1903770D01*
X4944780Y1912770D01*
X4944100Y1922770D01*
X4945450Y1935770D01*
X4947490Y1942770D01*
X4950870Y1949770D01*
X4955620Y1954770D01*
X4960360Y1955770D01*
X4965100Y1953770D01*
X4968490Y1948770D01*
G01X5020980Y1895770D02*
Y1955770D01*
X4995920Y1912770D01*
X5029780D01*
G01X5210000Y1966060D02*
X5050000D01*
Y1886060D01*
X5210000D01*
Y1966060D01*
G01Y2514040D02*
X5050000D01*
Y2434040D01*
X5210000D01*
Y2514040D01*
G01X5050000Y2251380D02*
X5210000D01*
Y2331380D01*
X5050000D01*
Y2251380D01*
G01X4887540Y2053110D02*
Y2113110D01*
X4904480D01*
X4909900Y2110110D01*
X4913280Y2106110D01*
X4914640Y2098110D01*
X4913280Y2090110D01*
X4909220Y2085110D01*
X4904480Y2082110D01*
X4887540D01*
G01X4904480D02*
X4914640Y2053110D01*
G01X4955620D02*
X4956970Y2066110D01*
X4959000Y2077110D01*
X4961710Y2087110D01*
X4965100Y2098110D01*
X4970520Y2113110D01*
X4943420D01*
G01X5012850Y2053110D02*
Y2113110D01*
X5004720Y2101110D01*
G01Y2053110D02*
X5020980D01*
G01X5210000Y2148720D02*
X5050000D01*
Y2068720D01*
X5210000D01*
Y2148720D01*
G01X4887540Y2989810D02*
Y3049810D01*
X4904480D01*
X4909900Y3046810D01*
X4913280Y3042810D01*
X4914640Y3034810D01*
X4913280Y3026810D01*
X4909220Y3021810D01*
X4904480Y3018810D01*
X4887540D01*
G01X4904480D02*
X4914640Y2989810D01*
G01X4942070Y2998810D02*
X4946130Y2993810D01*
X4950870Y2990810D01*
X4956970Y2989810D01*
X4963070Y2991810D01*
X4967810Y2995810D01*
X4971190Y3002810D01*
X4971870Y3010810D01*
X4970520Y3018810D01*
X4967130Y3023810D01*
X4962390Y3027810D01*
X4957650Y3028810D01*
X4952910Y3027810D01*
X4946810Y3023810D01*
X4948840Y3049810D01*
X4967130D01*
G01X4997950Y3001810D02*
X5002010Y2994810D01*
X5007430Y2990810D01*
X5013530Y2989810D01*
X5018950Y2990810D01*
X5024370Y2995810D01*
X5027750Y3001810D01*
X5028430Y3007810D01*
X5027070Y3014810D01*
X5022330Y3019810D01*
X5017590Y3021810D01*
X5011500D01*
G01X5017590D02*
X5021660Y3024810D01*
X5025040Y3029810D01*
X5026400Y3035810D01*
X5025040Y3041810D01*
X5021660Y3046810D01*
X5015560Y3049810D01*
X5009460Y3048810D01*
X5003370Y3044810D01*
G01X5210000Y3062020D02*
X5050000D01*
Y2982020D01*
X5210000D01*
Y3062020D01*
G01X4887540Y3177150D02*
Y3237150D01*
X4904480D01*
X4909900Y3234150D01*
X4913280Y3230150D01*
X4914640Y3222150D01*
X4913280Y3214150D01*
X4909220Y3209150D01*
X4904480Y3206150D01*
X4887540D01*
G01X4904480D02*
X4914640Y3177150D01*
G01X4942070Y3186150D02*
X4946130Y3181150D01*
X4950870Y3178150D01*
X4956970Y3177150D01*
X4963070Y3179150D01*
X4967810Y3183150D01*
X4971190Y3190150D01*
X4971870Y3198150D01*
X4970520Y3206150D01*
X4967130Y3211150D01*
X4962390Y3215150D01*
X4957650Y3216150D01*
X4952910Y3215150D01*
X4946810Y3211150D01*
X4948840Y3237150D01*
X4967130D01*
G01X4999980Y3227150D02*
X5004040Y3233150D01*
X5008790Y3236150D01*
X5014200Y3237150D01*
X5020980Y3235150D01*
X5025720Y3230150D01*
X5027070Y3224150D01*
X5026400Y3218150D01*
X5023690Y3213150D01*
X5010140Y3203150D01*
X5004040Y3196150D01*
X4999980Y3186150D01*
X4998630Y3177150D01*
X5027070D01*
G01X5210000Y3244680D02*
X5050000D01*
Y3164680D01*
X5210000D01*
Y3244680D01*
G01Y2696700D02*
X5050000D01*
Y2616700D01*
X5210000D01*
Y2696700D01*
G01X4887540Y2812470D02*
Y2872470D01*
X4904480D01*
X4909900Y2869470D01*
X4913280Y2865470D01*
X4914640Y2857470D01*
X4913280Y2849470D01*
X4909220Y2844470D01*
X4904480Y2841470D01*
X4887540D01*
G01X4904480D02*
X4914640Y2812470D01*
G01X4965100D02*
Y2872470D01*
X4940040Y2829470D01*
X4973900D01*
G01X4999980Y2837470D02*
X5004720Y2844470D01*
X5008790Y2848470D01*
X5014200Y2850470D01*
X5018950Y2848470D01*
X5022330Y2844470D01*
X5025040Y2838470D01*
X5025720Y2831470D01*
X5025040Y2825470D01*
X5022330Y2819470D01*
X5018270Y2814470D01*
X5013530Y2812470D01*
X5008110Y2814470D01*
X5003370Y2820470D01*
X5000660Y2829470D01*
X4999980Y2839470D01*
X5001330Y2852470D01*
X5003370Y2859470D01*
X5006750Y2866470D01*
X5011500Y2871470D01*
X5016240Y2872470D01*
X5020980Y2870470D01*
X5024370Y2865470D01*
G01X5210000Y2879360D02*
X5050000D01*
Y2799360D01*
X5210000D01*
Y2879360D01*
G01Y3610000D02*
X5050000D01*
Y3530000D01*
X5210000D01*
Y3610000D01*
G01Y3427340D02*
X5050000D01*
Y3347340D01*
X5210000D01*
Y3427340D01*
G01X5391830Y-1087540D02*
X5451830D01*
Y-1104480D01*
X5448830Y-1109900D01*
X5444830Y-1113280D01*
X5436830Y-1114640D01*
X5428830Y-1113280D01*
X5423830Y-1109220D01*
X5420830Y-1104480D01*
Y-1087540D01*
G01Y-1104480D02*
X5391830Y-1114640D01*
G01X5403830Y-1142070D02*
X5396830Y-1146130D01*
X5392830Y-1151550D01*
X5391830Y-1157650D01*
X5392830Y-1163070D01*
X5397830Y-1168490D01*
X5403830Y-1171870D01*
X5409830Y-1172550D01*
X5416830Y-1171190D01*
X5421830Y-1166450D01*
X5423830Y-1161710D01*
Y-1155620D01*
G01Y-1161710D02*
X5426830Y-1165780D01*
X5431830Y-1169160D01*
X5437830Y-1170520D01*
X5443830Y-1169160D01*
X5448830Y-1165780D01*
X5451830Y-1159680D01*
X5450830Y-1153580D01*
X5446830Y-1147490D01*
G01X5451830Y-1212850D02*
X5449830Y-1207430D01*
X5444830Y-1203370D01*
X5438830Y-1200660D01*
X5430830Y-1198630D01*
X5421830Y-1197950D01*
X5412830Y-1198630D01*
X5404830Y-1200660D01*
X5398830Y-1203370D01*
X5393830Y-1207430D01*
X5391830Y-1212850D01*
X5393830Y-1218270D01*
X5398830Y-1222330D01*
X5404830Y-1225040D01*
X5412830Y-1227070D01*
X5421830Y-1227750D01*
X5430830Y-1227070D01*
X5438830Y-1225040D01*
X5444830Y-1222330D01*
X5449830Y-1218270D01*
X5451830Y-1212850D01*
G01X5460000Y-1060000D02*
Y-900000D01*
X5380000D01*
Y-1060000D01*
X5460000D01*
G01X5681830Y-1087540D02*
X5741830D01*
Y-1104480D01*
X5738830Y-1109900D01*
X5734830Y-1113280D01*
X5726830Y-1114640D01*
X5718830Y-1113280D01*
X5713830Y-1109220D01*
X5710830Y-1104480D01*
Y-1087540D01*
G01Y-1104480D02*
X5681830Y-1114640D01*
G01X5693830Y-1142070D02*
X5686830Y-1146130D01*
X5682830Y-1151550D01*
X5681830Y-1157650D01*
X5682830Y-1163070D01*
X5687830Y-1168490D01*
X5693830Y-1171870D01*
X5699830Y-1172550D01*
X5706830Y-1171190D01*
X5711830Y-1166450D01*
X5713830Y-1161710D01*
Y-1155620D01*
G01Y-1161710D02*
X5716830Y-1165780D01*
X5721830Y-1169160D01*
X5727830Y-1170520D01*
X5733830Y-1169160D01*
X5738830Y-1165780D01*
X5741830Y-1159680D01*
X5740830Y-1153580D01*
X5736830Y-1147490D01*
G01X5681830Y-1212850D02*
X5741830D01*
X5729830Y-1204720D01*
G01X5681830D02*
Y-1220980D01*
G01X5760000Y-1060000D02*
Y-900000D01*
X5680000D01*
Y-1060000D01*
X5760000D01*
G01X5541830Y-1087540D02*
X5601830D01*
Y-1104480D01*
X5598830Y-1109900D01*
X5594830Y-1113280D01*
X5586830Y-1114640D01*
X5578830Y-1113280D01*
X5573830Y-1109220D01*
X5570830Y-1104480D01*
Y-1087540D01*
G01Y-1104480D02*
X5541830Y-1114640D01*
G01X5591830Y-1144100D02*
X5597830Y-1148160D01*
X5600830Y-1152910D01*
X5601830Y-1158320D01*
X5599830Y-1165100D01*
X5594830Y-1169840D01*
X5588830Y-1171190D01*
X5582830Y-1170520D01*
X5577830Y-1167810D01*
X5567830Y-1154260D01*
X5560830Y-1148160D01*
X5550830Y-1144100D01*
X5541830Y-1142750D01*
Y-1171190D01*
G01Y-1211500D02*
X5554830Y-1212850D01*
X5565830Y-1214880D01*
X5575830Y-1217590D01*
X5586830Y-1220980D01*
X5601830Y-1226400D01*
Y-1199300D01*
G01X5610000Y-1060000D02*
Y-900000D01*
X5530000D01*
Y-1060000D01*
X5610000D01*
G01X5841830Y-1087540D02*
X5901830D01*
Y-1104480D01*
X5898830Y-1109900D01*
X5894830Y-1113280D01*
X5886830Y-1114640D01*
X5878830Y-1113280D01*
X5873830Y-1109220D01*
X5870830Y-1104480D01*
Y-1087540D01*
G01Y-1104480D02*
X5841830Y-1114640D01*
G01X5891830Y-1144100D02*
X5897830Y-1148160D01*
X5900830Y-1152910D01*
X5901830Y-1158320D01*
X5899830Y-1165100D01*
X5894830Y-1169840D01*
X5888830Y-1171190D01*
X5882830Y-1170520D01*
X5877830Y-1167810D01*
X5867830Y-1154260D01*
X5860830Y-1148160D01*
X5850830Y-1144100D01*
X5841830Y-1142750D01*
Y-1171190D01*
G01Y-1212850D02*
X5842830Y-1217590D01*
X5845830Y-1223010D01*
X5850830Y-1226400D01*
X5857830Y-1227750D01*
X5864830Y-1226400D01*
X5870830Y-1222330D01*
X5873830Y-1216240D01*
Y-1209460D01*
X5875830Y-1205400D01*
X5880830Y-1202010D01*
X5887830Y-1200660D01*
X5894830Y-1202690D01*
X5899830Y-1207430D01*
X5901830Y-1212850D01*
X5899830Y-1218270D01*
X5894830Y-1223010D01*
X5887830Y-1225040D01*
X5880830Y-1223690D01*
X5875830Y-1220300D01*
X5873830Y-1216240D01*
Y-1209460D01*
X5870830Y-1203370D01*
X5864830Y-1199300D01*
X5857830Y-1197950D01*
X5850830Y-1199300D01*
X5845830Y-1202690D01*
X5842830Y-1208110D01*
X5841830Y-1212850D01*
G01X5910000Y-1060000D02*
Y-900000D01*
X5830000D01*
Y-1060000D01*
X5910000D01*
G01X5332920Y-1695900D02*
Y-1635900D01*
X5324790Y-1647900D01*
G01Y-1695900D02*
X5341050D01*
G01X5765990Y-493170D02*
X5761930Y-490170D01*
X5757190Y-488170D01*
X5751770D01*
X5745670Y-491170D01*
X5740930Y-496170D01*
X5737540Y-502170D01*
X5734830Y-512170D01*
X5734160Y-521170D01*
X5735510Y-530170D01*
X5737540Y-536170D01*
X5741610Y-542170D01*
X5746350Y-546170D01*
X5751090Y-548170D01*
X5755830D01*
X5760570Y-546170D01*
X5764640Y-543170D01*
X5768020Y-539170D01*
G01X5794100Y-498170D02*
X5798160Y-492170D01*
X5802910Y-489170D01*
X5808320Y-488170D01*
X5815100Y-490170D01*
X5819840Y-495170D01*
X5821190Y-501170D01*
X5820520Y-507170D01*
X5817810Y-512170D01*
X5804260Y-522170D01*
X5798160Y-529170D01*
X5794100Y-539170D01*
X5792750Y-548170D01*
X5821190D01*
G01X5862850D02*
Y-488170D01*
X5854720Y-500170D01*
G01Y-548170D02*
X5870980D01*
G01X5720000Y-640000D02*
X5880000D01*
Y-560000D01*
X5720000D01*
Y-640000D01*
G01X5455990Y-483170D02*
X5451930Y-480170D01*
X5447190Y-478170D01*
X5441770D01*
X5435670Y-481170D01*
X5430930Y-486170D01*
X5427540Y-492170D01*
X5424830Y-502170D01*
X5424160Y-511170D01*
X5425510Y-520170D01*
X5427540Y-526170D01*
X5431610Y-532170D01*
X5436350Y-536170D01*
X5441090Y-538170D01*
X5445830D01*
X5450570Y-536170D01*
X5454640Y-533170D01*
X5458020Y-529170D01*
G01X5484100Y-488170D02*
X5488160Y-482170D01*
X5492910Y-479170D01*
X5498320Y-478170D01*
X5505100Y-480170D01*
X5509840Y-485170D01*
X5511190Y-491170D01*
X5510520Y-497170D01*
X5507810Y-502170D01*
X5494260Y-512170D01*
X5488160Y-519170D01*
X5484100Y-529170D01*
X5482750Y-538170D01*
X5511190D01*
G01X5552850Y-478170D02*
X5547430Y-480170D01*
X5543370Y-485170D01*
X5540660Y-491170D01*
X5538630Y-499170D01*
X5537950Y-508170D01*
X5538630Y-517170D01*
X5540660Y-525170D01*
X5543370Y-531170D01*
X5547430Y-536170D01*
X5552850Y-538170D01*
X5558270Y-536170D01*
X5562330Y-531170D01*
X5565040Y-525170D01*
X5567070Y-517170D01*
X5567750Y-508170D01*
X5567070Y-499170D01*
X5565040Y-491170D01*
X5562330Y-485170D01*
X5558270Y-480170D01*
X5552850Y-478170D01*
G01X5420000Y-640000D02*
X5580000D01*
Y-560000D01*
X5420000D01*
Y-640000D01*
G01X5427540Y-868170D02*
Y-808170D01*
X5444480D01*
X5449900Y-811170D01*
X5453280Y-815170D01*
X5454640Y-823170D01*
X5453280Y-831170D01*
X5449220Y-836170D01*
X5444480Y-839170D01*
X5427540D01*
G01X5444480D02*
X5454640Y-868170D01*
G01X5482070Y-856170D02*
X5486130Y-863170D01*
X5491550Y-867170D01*
X5497650Y-868170D01*
X5503070Y-867170D01*
X5508490Y-862170D01*
X5511870Y-856170D01*
X5512550Y-850170D01*
X5511190Y-843170D01*
X5506450Y-838170D01*
X5501710Y-836170D01*
X5495620D01*
G01X5501710D02*
X5505780Y-833170D01*
X5509160Y-828170D01*
X5510520Y-822170D01*
X5509160Y-816170D01*
X5505780Y-811170D01*
X5499680Y-808170D01*
X5493580Y-809170D01*
X5487490Y-813170D01*
G01X5537950Y-856170D02*
X5542010Y-863170D01*
X5547430Y-867170D01*
X5553530Y-868170D01*
X5558950Y-867170D01*
X5564370Y-862170D01*
X5567750Y-856170D01*
X5568430Y-850170D01*
X5567070Y-843170D01*
X5562330Y-838170D01*
X5557590Y-836170D01*
X5551500D01*
G01X5557590D02*
X5561660Y-833170D01*
X5565040Y-828170D01*
X5566400Y-822170D01*
X5565040Y-816170D01*
X5561660Y-811170D01*
X5555560Y-808170D01*
X5549460Y-809170D01*
X5543370Y-813170D01*
G01X5580000Y-710000D02*
X5420000D01*
Y-790000D01*
X5580000D01*
Y-710000D01*
G01X5727540Y-868170D02*
Y-808170D01*
X5744480D01*
X5749900Y-811170D01*
X5753280Y-815170D01*
X5754640Y-823170D01*
X5753280Y-831170D01*
X5749220Y-836170D01*
X5744480Y-839170D01*
X5727540D01*
G01X5744480D02*
X5754640Y-868170D01*
G01X5782070Y-856170D02*
X5786130Y-863170D01*
X5791550Y-867170D01*
X5797650Y-868170D01*
X5803070Y-867170D01*
X5808490Y-862170D01*
X5811870Y-856170D01*
X5812550Y-850170D01*
X5811190Y-843170D01*
X5806450Y-838170D01*
X5801710Y-836170D01*
X5795620D01*
G01X5801710D02*
X5805780Y-833170D01*
X5809160Y-828170D01*
X5810520Y-822170D01*
X5809160Y-816170D01*
X5805780Y-811170D01*
X5799680Y-808170D01*
X5793580Y-809170D01*
X5787490Y-813170D01*
G01X5860980Y-868170D02*
Y-808170D01*
X5835920Y-851170D01*
X5869780D01*
G01X5880000Y-710000D02*
X5720000D01*
Y-790000D01*
X5880000D01*
Y-710000D01*
G01X5456160Y-295170D02*
Y-235170D01*
X5469710D01*
X5475120Y-238170D01*
X5479190Y-242170D01*
X5482580Y-248170D01*
X5485280Y-255170D01*
X5485960Y-265170D01*
X5485280Y-275170D01*
X5482580Y-282170D01*
X5479190Y-288170D01*
X5475120Y-292170D01*
X5469710Y-295170D01*
X5456160D01*
G01X5514070Y-245170D02*
X5518130Y-239170D01*
X5522880Y-236170D01*
X5528290Y-235170D01*
X5535070Y-237170D01*
X5539810Y-242170D01*
X5541160Y-248170D01*
X5540490Y-254170D01*
X5537780Y-259170D01*
X5524230Y-269170D01*
X5518130Y-276170D01*
X5514070Y-286170D01*
X5512720Y-295170D01*
X5541160D01*
G01X5584100Y-388170D02*
Y-328170D01*
G01X5609840D02*
X5584100Y-365170D01*
G01X5613900Y-388170D02*
X5595610Y-348170D01*
G01X5560000Y-320000D02*
X5440000D01*
Y-400000D01*
X5560000D01*
Y-320000D01*
G01X5746160Y-295170D02*
Y-235170D01*
X5759710D01*
X5765120Y-238170D01*
X5769190Y-242170D01*
X5772580Y-248170D01*
X5775280Y-255170D01*
X5775960Y-265170D01*
X5775280Y-275170D01*
X5772580Y-282170D01*
X5769190Y-288170D01*
X5765120Y-292170D01*
X5759710Y-295170D01*
X5746160D01*
G01X5802040Y-283170D02*
X5806100Y-290170D01*
X5811520Y-294170D01*
X5817620Y-295170D01*
X5823040Y-294170D01*
X5828460Y-289170D01*
X5831840Y-283170D01*
X5832520Y-277170D01*
X5831160Y-270170D01*
X5826420Y-265170D01*
X5821680Y-263170D01*
X5815590D01*
G01X5821680D02*
X5825750Y-260170D01*
X5829130Y-255170D01*
X5830490Y-249170D01*
X5829130Y-243170D01*
X5825750Y-238170D01*
X5819650Y-235170D01*
X5813550Y-236170D01*
X5807460Y-240170D01*
G01X5864100Y-388170D02*
Y-328170D01*
G01X5889840D02*
X5864100Y-365170D01*
G01X5893900Y-388170D02*
X5875610Y-348170D01*
G01X5850000Y-320000D02*
X5730000D01*
Y-400000D01*
X5850000D01*
Y-320000D01*
G01X5746100Y-24920D02*
X5806100D01*
X5794100Y-16790D01*
G01X5746100D02*
Y-33050D01*
G01X5736100Y2171080D02*
X5796100D01*
X5784100Y2179210D01*
G01X5736100D02*
Y2162950D01*
G01X5227540Y2447790D02*
Y2507790D01*
X5244480D01*
X5249900Y2504790D01*
X5253280Y2500790D01*
X5254640Y2492790D01*
X5253280Y2484790D01*
X5249220Y2479790D01*
X5244480Y2476790D01*
X5227540D01*
G01X5244480D02*
X5254640Y2447790D01*
G01X5284100Y2472790D02*
X5288840Y2479790D01*
X5292910Y2483790D01*
X5298320Y2485790D01*
X5303070Y2483790D01*
X5306450Y2479790D01*
X5309160Y2473790D01*
X5309840Y2466790D01*
X5309160Y2460790D01*
X5306450Y2454790D01*
X5302390Y2449790D01*
X5297650Y2447790D01*
X5292230Y2449790D01*
X5287490Y2455790D01*
X5284780Y2464790D01*
X5284100Y2474790D01*
X5285450Y2487790D01*
X5287490Y2494790D01*
X5290870Y2501790D01*
X5295620Y2506790D01*
X5300360Y2507790D01*
X5305100Y2505790D01*
X5308490Y2500790D01*
G01X5337950Y2459790D02*
X5342010Y2452790D01*
X5347430Y2448790D01*
X5353530Y2447790D01*
X5358950Y2448790D01*
X5364370Y2453790D01*
X5367750Y2459790D01*
X5368430Y2465790D01*
X5367070Y2472790D01*
X5362330Y2477790D01*
X5357590Y2479790D01*
X5351500D01*
G01X5357590D02*
X5361660Y2482790D01*
X5365040Y2487790D01*
X5366400Y2493790D01*
X5365040Y2499790D01*
X5361660Y2504790D01*
X5355560Y2507790D01*
X5349460Y2506790D01*
X5343370Y2502790D01*
G01X5227540Y2263210D02*
Y2323210D01*
X5244480D01*
X5249900Y2320210D01*
X5253280Y2316210D01*
X5254640Y2308210D01*
X5253280Y2300210D01*
X5249220Y2295210D01*
X5244480Y2292210D01*
X5227540D01*
G01X5244480D02*
X5254640Y2263210D01*
G01X5284100Y2288210D02*
X5288840Y2295210D01*
X5292910Y2299210D01*
X5298320Y2301210D01*
X5303070Y2299210D01*
X5306450Y2295210D01*
X5309160Y2289210D01*
X5309840Y2282210D01*
X5309160Y2276210D01*
X5306450Y2270210D01*
X5302390Y2265210D01*
X5297650Y2263210D01*
X5292230Y2265210D01*
X5287490Y2271210D01*
X5284780Y2280210D01*
X5284100Y2290210D01*
X5285450Y2303210D01*
X5287490Y2310210D01*
X5290870Y2317210D01*
X5295620Y2322210D01*
X5300360Y2323210D01*
X5305100Y2321210D01*
X5308490Y2316210D01*
G01X5337950Y2272210D02*
X5342010Y2267210D01*
X5346750Y2264210D01*
X5352850Y2263210D01*
X5358950Y2265210D01*
X5363690Y2269210D01*
X5367070Y2276210D01*
X5367750Y2284210D01*
X5366400Y2292210D01*
X5363010Y2297210D01*
X5358270Y2301210D01*
X5353530Y2302210D01*
X5348790Y2301210D01*
X5342690Y2297210D01*
X5344720Y2323210D01*
X5363010D01*
G01X5227540Y2625130D02*
Y2685130D01*
X5244480D01*
X5249900Y2682130D01*
X5253280Y2678130D01*
X5254640Y2670130D01*
X5253280Y2662130D01*
X5249220Y2657130D01*
X5244480Y2654130D01*
X5227540D01*
G01X5244480D02*
X5254640Y2625130D01*
G01X5284100Y2650130D02*
X5288840Y2657130D01*
X5292910Y2661130D01*
X5298320Y2663130D01*
X5303070Y2661130D01*
X5306450Y2657130D01*
X5309160Y2651130D01*
X5309840Y2644130D01*
X5309160Y2638130D01*
X5306450Y2632130D01*
X5302390Y2627130D01*
X5297650Y2625130D01*
X5292230Y2627130D01*
X5287490Y2633130D01*
X5284780Y2642130D01*
X5284100Y2652130D01*
X5285450Y2665130D01*
X5287490Y2672130D01*
X5290870Y2679130D01*
X5295620Y2684130D01*
X5300360Y2685130D01*
X5305100Y2683130D01*
X5308490Y2678130D01*
G01X5339980Y2650130D02*
X5344720Y2657130D01*
X5348790Y2661130D01*
X5354200Y2663130D01*
X5358950Y2661130D01*
X5362330Y2657130D01*
X5365040Y2651130D01*
X5365720Y2644130D01*
X5365040Y2638130D01*
X5362330Y2632130D01*
X5358270Y2627130D01*
X5353530Y2625130D01*
X5348110Y2627130D01*
X5343370Y2633130D01*
X5340660Y2642130D01*
X5339980Y2652130D01*
X5341330Y2665130D01*
X5343370Y2672130D01*
X5346750Y2679130D01*
X5351500Y2684130D01*
X5356240Y2685130D01*
X5360980Y2683130D01*
X5364370Y2678130D01*
G01X5227540Y3541830D02*
Y3601830D01*
X5244480D01*
X5249900Y3598830D01*
X5253280Y3594830D01*
X5254640Y3586830D01*
X5253280Y3578830D01*
X5249220Y3573830D01*
X5244480Y3570830D01*
X5227540D01*
G01X5244480D02*
X5254640Y3541830D01*
G01X5282070Y3550830D02*
X5286130Y3545830D01*
X5290870Y3542830D01*
X5296970Y3541830D01*
X5303070Y3543830D01*
X5307810Y3547830D01*
X5311190Y3554830D01*
X5311870Y3562830D01*
X5310520Y3570830D01*
X5307130Y3575830D01*
X5302390Y3579830D01*
X5297650Y3580830D01*
X5292910Y3579830D01*
X5286810Y3575830D01*
X5288840Y3601830D01*
X5307130D01*
G01X5337950Y3550830D02*
X5342010Y3545830D01*
X5346750Y3542830D01*
X5352850Y3541830D01*
X5358950Y3543830D01*
X5363690Y3547830D01*
X5367070Y3554830D01*
X5367750Y3562830D01*
X5366400Y3570830D01*
X5363010Y3575830D01*
X5358270Y3579830D01*
X5353530Y3580830D01*
X5348790Y3579830D01*
X5342690Y3575830D01*
X5344720Y3601830D01*
X5363010D01*
G01X5227540Y3354490D02*
Y3414490D01*
X5244480D01*
X5249900Y3411490D01*
X5253280Y3407490D01*
X5254640Y3399490D01*
X5253280Y3391490D01*
X5249220Y3386490D01*
X5244480Y3383490D01*
X5227540D01*
G01X5244480D02*
X5254640Y3354490D01*
G01X5296970D02*
X5301710Y3355490D01*
X5307130Y3358490D01*
X5310520Y3363490D01*
X5311870Y3370490D01*
X5310520Y3377490D01*
X5306450Y3383490D01*
X5300360Y3386490D01*
X5293580D01*
X5289520Y3388490D01*
X5286130Y3393490D01*
X5284780Y3400490D01*
X5286810Y3407490D01*
X5291550Y3412490D01*
X5296970Y3414490D01*
X5302390Y3412490D01*
X5307130Y3407490D01*
X5309160Y3400490D01*
X5307810Y3393490D01*
X5304420Y3388490D01*
X5300360Y3386490D01*
X5293580D01*
X5287490Y3383490D01*
X5283420Y3377490D01*
X5282070Y3370490D01*
X5283420Y3363490D01*
X5286810Y3358490D01*
X5292230Y3355490D01*
X5296970Y3354490D01*
G01X5352850Y3414490D02*
X5347430Y3412490D01*
X5343370Y3407490D01*
X5340660Y3401490D01*
X5338630Y3393490D01*
X5337950Y3384490D01*
X5338630Y3375490D01*
X5340660Y3367490D01*
X5343370Y3361490D01*
X5347430Y3356490D01*
X5352850Y3354490D01*
X5358270Y3356490D01*
X5362330Y3361490D01*
X5365040Y3367490D01*
X5367070Y3375490D01*
X5367750Y3384490D01*
X5367070Y3393490D01*
X5365040Y3401490D01*
X5362330Y3407490D01*
X5358270Y3412490D01*
X5352850Y3414490D01*
G01X6325990Y-1353170D02*
X6321930Y-1350170D01*
X6317190Y-1348170D01*
X6311770D01*
X6305670Y-1351170D01*
X6300930Y-1356170D01*
X6297540Y-1362170D01*
X6294830Y-1372170D01*
X6294160Y-1381170D01*
X6295510Y-1390170D01*
X6297540Y-1396170D01*
X6301610Y-1402170D01*
X6306350Y-1406170D01*
X6311090Y-1408170D01*
X6315830D01*
X6320570Y-1406170D01*
X6324640Y-1403170D01*
X6328020Y-1399170D01*
G01X6366970Y-1408170D02*
Y-1348170D01*
X6358840Y-1360170D01*
G01Y-1408170D02*
X6375100D01*
G01X6411330Y-1401170D02*
X6416080Y-1406170D01*
X6421500Y-1408170D01*
X6426910Y-1406170D01*
X6431660Y-1400170D01*
X6435040Y-1391170D01*
X6436400Y-1382170D01*
Y-1371170D01*
X6435040Y-1362170D01*
X6431660Y-1354170D01*
X6427590Y-1350170D01*
X6422850Y-1348170D01*
X6417430Y-1350170D01*
X6413370Y-1354170D01*
X6410660Y-1360170D01*
X6409300Y-1368170D01*
X6410660Y-1375170D01*
X6414040Y-1382170D01*
X6418110Y-1386170D01*
X6422850Y-1387170D01*
X6428270Y-1385170D01*
X6432330Y-1380170D01*
X6436400Y-1371170D01*
G01X6290000Y-1330000D02*
X6450000D01*
Y-1250000D01*
X6290000D01*
Y-1330000D01*
G01X5991830Y-1087540D02*
X6051830D01*
Y-1104480D01*
X6048830Y-1109900D01*
X6044830Y-1113280D01*
X6036830Y-1114640D01*
X6028830Y-1113280D01*
X6023830Y-1109220D01*
X6020830Y-1104480D01*
Y-1087540D01*
G01Y-1104480D02*
X5991830Y-1114640D01*
G01X6003830Y-1142070D02*
X5996830Y-1146130D01*
X5992830Y-1151550D01*
X5991830Y-1157650D01*
X5992830Y-1163070D01*
X5997830Y-1168490D01*
X6003830Y-1171870D01*
X6009830Y-1172550D01*
X6016830Y-1171190D01*
X6021830Y-1166450D01*
X6023830Y-1161710D01*
Y-1155620D01*
G01Y-1161710D02*
X6026830Y-1165780D01*
X6031830Y-1169160D01*
X6037830Y-1170520D01*
X6043830Y-1169160D01*
X6048830Y-1165780D01*
X6051830Y-1159680D01*
X6050830Y-1153580D01*
X6046830Y-1147490D01*
G01X6041830Y-1199980D02*
X6047830Y-1204040D01*
X6050830Y-1208790D01*
X6051830Y-1214200D01*
X6049830Y-1220980D01*
X6044830Y-1225720D01*
X6038830Y-1227070D01*
X6032830Y-1226400D01*
X6027830Y-1223690D01*
X6017830Y-1210140D01*
X6010830Y-1204040D01*
X6000830Y-1199980D01*
X5991830Y-1198630D01*
Y-1227070D01*
G01X5980000Y-900000D02*
Y-1060000D01*
X6060000D01*
Y-900000D01*
X5980000D01*
G01X6141830Y-1087540D02*
X6201830D01*
Y-1104480D01*
X6198830Y-1109900D01*
X6194830Y-1113280D01*
X6186830Y-1114640D01*
X6178830Y-1113280D01*
X6173830Y-1109220D01*
X6170830Y-1104480D01*
Y-1087540D01*
G01Y-1104480D02*
X6141830Y-1114640D01*
G01X6191830Y-1144100D02*
X6197830Y-1148160D01*
X6200830Y-1152910D01*
X6201830Y-1158320D01*
X6199830Y-1165100D01*
X6194830Y-1169840D01*
X6188830Y-1171190D01*
X6182830Y-1170520D01*
X6177830Y-1167810D01*
X6167830Y-1154260D01*
X6160830Y-1148160D01*
X6150830Y-1144100D01*
X6141830Y-1142750D01*
Y-1171190D01*
G01X6148830Y-1201330D02*
X6143830Y-1206080D01*
X6141830Y-1211500D01*
X6143830Y-1216910D01*
X6149830Y-1221660D01*
X6158830Y-1225040D01*
X6167830Y-1226400D01*
X6178830D01*
X6187830Y-1225040D01*
X6195830Y-1221660D01*
X6199830Y-1217590D01*
X6201830Y-1212850D01*
X6199830Y-1207430D01*
X6195830Y-1203370D01*
X6189830Y-1200660D01*
X6181830Y-1199300D01*
X6174830Y-1200660D01*
X6167830Y-1204040D01*
X6163830Y-1208110D01*
X6162830Y-1212850D01*
X6164830Y-1218270D01*
X6169830Y-1222330D01*
X6178830Y-1226400D01*
G01X6130000Y-900000D02*
Y-1060000D01*
X6210000D01*
Y-900000D01*
X6130000D01*
G01X6055990Y-493170D02*
X6051930Y-490170D01*
X6047190Y-488170D01*
X6041770D01*
X6035670Y-491170D01*
X6030930Y-496170D01*
X6027540Y-502170D01*
X6024830Y-512170D01*
X6024160Y-521170D01*
X6025510Y-530170D01*
X6027540Y-536170D01*
X6031610Y-542170D01*
X6036350Y-546170D01*
X6041090Y-548170D01*
X6045830D01*
X6050570Y-546170D01*
X6054640Y-543170D01*
X6058020Y-539170D01*
G01X6084100Y-498170D02*
X6088160Y-492170D01*
X6092910Y-489170D01*
X6098320Y-488170D01*
X6105100Y-490170D01*
X6109840Y-495170D01*
X6111190Y-501170D01*
X6110520Y-507170D01*
X6107810Y-512170D01*
X6094260Y-522170D01*
X6088160Y-529170D01*
X6084100Y-539170D01*
X6082750Y-548170D01*
X6111190D01*
G01X6139980Y-498170D02*
X6144040Y-492170D01*
X6148790Y-489170D01*
X6154200Y-488170D01*
X6160980Y-490170D01*
X6165720Y-495170D01*
X6167070Y-501170D01*
X6166400Y-507170D01*
X6163690Y-512170D01*
X6150140Y-522170D01*
X6144040Y-529170D01*
X6139980Y-539170D01*
X6138630Y-548170D01*
X6167070D01*
G01X6020000Y-640000D02*
X6180000D01*
Y-560000D01*
X6020000D01*
Y-640000D01*
G01X6087540Y-868170D02*
Y-808170D01*
X6104480D01*
X6109900Y-811170D01*
X6113280Y-815170D01*
X6114640Y-823170D01*
X6113280Y-831170D01*
X6109220Y-836170D01*
X6104480Y-839170D01*
X6087540D01*
G01X6104480D02*
X6114640Y-868170D01*
G01X6142070Y-856170D02*
X6146130Y-863170D01*
X6151550Y-867170D01*
X6157650Y-868170D01*
X6163070Y-867170D01*
X6168490Y-862170D01*
X6171870Y-856170D01*
X6172550Y-850170D01*
X6171190Y-843170D01*
X6166450Y-838170D01*
X6161710Y-836170D01*
X6155620D01*
G01X6161710D02*
X6165780Y-833170D01*
X6169160Y-828170D01*
X6170520Y-822170D01*
X6169160Y-816170D01*
X6165780Y-811170D01*
X6159680Y-808170D01*
X6153580Y-809170D01*
X6147490Y-813170D01*
G01X6197950Y-859170D02*
X6202010Y-864170D01*
X6206750Y-867170D01*
X6212850Y-868170D01*
X6218950Y-866170D01*
X6223690Y-862170D01*
X6227070Y-855170D01*
X6227750Y-847170D01*
X6226400Y-839170D01*
X6223010Y-834170D01*
X6218270Y-830170D01*
X6213530Y-829170D01*
X6208790Y-830170D01*
X6202690Y-834170D01*
X6204720Y-808170D01*
X6223010D01*
G01X6240000Y-710000D02*
X6080000D01*
Y-790000D01*
X6240000D01*
Y-710000D01*
G01X6396500Y-616320D02*
X6456500D01*
X6444500Y-608190D01*
G01X6396500D02*
Y-624450D01*
G01X6046160Y-295170D02*
Y-235170D01*
X6059710D01*
X6065120Y-238170D01*
X6069190Y-242170D01*
X6072580Y-248170D01*
X6075280Y-255170D01*
X6075960Y-265170D01*
X6075280Y-275170D01*
X6072580Y-282170D01*
X6069190Y-288170D01*
X6065120Y-292170D01*
X6059710Y-295170D01*
X6046160D01*
G01X6125070D02*
Y-235170D01*
X6100010Y-278170D01*
X6133870D01*
G01X6164100Y-388170D02*
Y-328170D01*
G01X6189840D02*
X6164100Y-365170D01*
G01X6193900Y-388170D02*
X6175610Y-348170D01*
G01X6150000Y-320000D02*
X6030000D01*
Y-400000D01*
X6150000D01*
Y-320000D01*
G01X6280570Y-215600D02*
X6283960Y-221600D01*
X6288020Y-225600D01*
X6292770Y-227600D01*
X6298180Y-225600D01*
X6302250Y-221600D01*
X6306310Y-215600D01*
X6307670Y-207600D01*
Y-167600D01*
G01X6358130Y-227600D02*
Y-167600D01*
X6333070Y-210600D01*
X6366930D01*
G54D12*
G01X3137000Y3590000D02*
G02I-127000J0D01*
G01X2971900Y3653500D02*
X3073500Y3551900D01*
G02X3048100Y3526500I-12700J-12700D01*
G01X2946500Y3628100D01*
G02X2971900Y3653500I12700J12700D01*
G01X4627000Y2950000D02*
G02I-127000J0D01*
G01X4461900Y3013500D02*
X4563500Y2911900D01*
G02X4538100Y2886500I-12700J-12700D01*
G01X4436500Y2988100D01*
G02X4461900Y3013500I12700J12700D01*
G01X6627000Y-330000D02*
G02I-127000J0D01*
G01X6436500Y-368100D02*
X6538100Y-266500D01*
G02X6563500Y-291900I12700J-12700D01*
G01X6461900Y-393500D01*
G02X6436500Y-368100I-12700J12700D01*
G54D13*
G01X635000Y1397000D02*
Y-127000D01*
G01D02*
X889000D01*
G01X635000Y3683000D02*
Y1651000D01*
G01D02*
X889000D01*
G01Y1397000D02*
X635000D01*
G01X889000Y3683000D02*
X635000D01*
G01X889000Y-127000D02*
Y1397000D01*
G01X1523000Y411000D02*
Y-97000D01*
G01D02*
X1777000D01*
G01Y411000D02*
X1523000D01*
G01X889000Y1651000D02*
Y3683000D01*
G01X1651000Y2577000D02*
X1143000D01*
G01D02*
Y2323000D01*
G01D02*
X1651000D01*
G01X1373220Y2693500D02*
X2102200D01*
G01X1258920D02*
X1373220D01*
G01X1258920D02*
Y3651080D01*
G01X2102200D02*
X1373220D01*
G01D02*
X1258920D01*
G01X1777000Y-97000D02*
Y411000D01*
G01X1863000D02*
Y-97000D01*
G01D02*
X2117000D01*
G01D02*
Y411000D01*
G01D02*
X1863000D01*
G01X1651000Y2323000D02*
Y2577000D01*
G01X2216500Y3148160D02*
Y3143080D01*
G01Y3198960D02*
Y3148160D01*
G01Y3201500D02*
Y3198960D01*
G01Y2693500D02*
Y2759540D01*
G01X2102200Y2693500D02*
X2216500D01*
G01Y2759540D02*
Y3143080D01*
G01Y3201500D02*
Y3585040D01*
G01Y3651080D02*
X2102200D01*
G01X2216500Y3585040D02*
Y3651080D01*
G01X2974400Y-448750D02*
X3614410D01*
Y-128750D01*
X2974400D01*
Y-448750D01*
G01X3030000Y-905000D02*
X3490000D01*
Y-515000D01*
X3030000D01*
Y-905000D01*
G01X2604400Y201250D02*
X3244410D01*
Y521250D01*
X2604400D01*
Y201250D01*
G01X2710000Y2640000D02*
Y2940000D01*
X2870000D01*
Y2640000D01*
X2710000D01*
G01X2674400Y3011250D02*
X3314410D01*
Y3331250D01*
X2674400D01*
Y3011250D01*
G01X3463000Y725000D02*
Y-37000D01*
G01D02*
X3717000D01*
G01D02*
Y725000D01*
G01D02*
X3463000D01*
G01X3573000Y3417000D02*
Y2655000D01*
G01D02*
X3827000D01*
G01Y3417000D02*
X3573000D01*
G01X3430000Y3560000D02*
X3590000D01*
Y3640000D01*
X3430000D01*
Y3560000D01*
G01X3827000Y2655000D02*
Y3417000D01*
G01X4845000Y3627000D02*
X4083000D01*
G01D02*
Y3373000D01*
G01D02*
X4845000D01*
G01D02*
Y3627000D01*
G01X6633000Y-1443000D02*
X5363000D01*
G01D02*
Y-1697000D01*
G01D02*
X6633000D01*
G01X5461000Y1905000D02*
Y-127000D01*
G01D02*
X5715000D01*
G01D02*
Y1905000D01*
G01D02*
X5461000D01*
G01Y4597000D02*
Y2057000D01*
G01D02*
X5715000D01*
G01D02*
Y4597000D01*
G01D02*
X5461000D01*
G01X6637000Y-1151000D02*
Y-643000D01*
G01X6383000D02*
Y-1151000D01*
G01D02*
X6637000D01*
G01X6633000Y-1697000D02*
Y-1443000D01*
G01X6637000Y-643000D02*
X6383000D01*
G54D14*
G01X1980000Y-1060000D02*
Y-560000D01*
X1540000D01*
Y-1060000D01*
X1980000D01*
G01X1540000Y-995000D02*
X1980000D01*
M02*
