G04 ================== begin FILE IDENTIFICATION RECORD ==================*
G04 Layout Name:  X-NUCLEO-IHM07M1_L6230_Nucleo_Shield.brd*
G04 Film Name:    X-NUCLEO-IHM07M1-manufacturing-detail*
G04 File Format:  Gerber RS274X*
G04 File Origin:  Cadence Allegro 16.6-S023*
G04 Origin Date:  Wed Mar 18 16:01:41 2015*
G04 *
G04 Layer:  MANUFACTURING/XSECTION_CHART*
G04 Layer:  MANUFACTURING/NCLEGEND-1-4*
G04 Layer:  BOARD GEOMETRY/OUTLINE*
G04 Layer:  BOARD GEOMETRY/DIMENSION*
G04 *
G04 Offset:    (0.0000 0.0000)*
G04 Mirror:    No*
G04 Mode:      Positive*
G04 Rotation:  0*
G04 FullContactRelief:  No*
G04 UndefLineWidth:     0.0200*
G04 ================== end FILE IDENTIFICATION RECORD ====================*
%FSLAX35Y35*MOMM*%
%IR0*IPPOS*OFA0.00000B0.00000*MIA0B0*SFA1.00000B1.00000*%
%AMMACRO12*
1,1,.02,.762,0.0*
20,1,.02,.762,0.0,-.762,0.0,0.0*
1,1,.02,-.762,0.0*
1,1,.02,0.0,.762*
20,1,.02,0.0,.762,0.0,-.762,0.0*
1,1,.02,0.0,-.762*
%
%ADD12MACRO12*%
%AMMACRO10*
1,1,.02,.635,0.0*
20,1,.02,.635,0.0,.625353,-.110267,0.0*
1,1,.02,.625353,-.110267*
20,1,.02,.625353,-.110267,.596705,-.217183,0.0*
1,1,.02,.596705,-.217183*
20,1,.02,.596705,-.217183,.549926,-.3175,0.0*
1,1,.02,.549926,-.3175*
20,1,.02,.549926,-.3175,.486438,-.40817,0.0*
1,1,.02,.486438,-.40817*
20,1,.02,.486438,-.40817,.40817,-.486438,0.0*
1,1,.02,.40817,-.486438*
20,1,.02,.40817,-.486438,.3175,-.549926,0.0*
1,1,.02,.3175,-.549926*
20,1,.02,.3175,-.549926,.217183,-.596705,0.0*
1,1,.02,.217183,-.596705*
20,1,.02,.217183,-.596705,.110267,-.625353,0.0*
1,1,.02,.110267,-.625353*
20,1,.02,.110267,-.625353,0.0,-.635,0.0*
1,1,.02,0.0,-.635*
20,1,.02,0.0,-.635,-.110267,-.625353,0.0*
1,1,.02,-.110267,-.625353*
20,1,.02,-.110267,-.625353,-.217183,-.596705,0.0*
1,1,.02,-.217183,-.596705*
20,1,.02,-.217183,-.596705,-.3175,-.549926,0.0*
1,1,.02,-.3175,-.549926*
20,1,.02,-.3175,-.549926,-.40817,-.486438,0.0*
1,1,.02,-.40817,-.486438*
20,1,.02,-.40817,-.486438,-.486438,-.40817,0.0*
1,1,.02,-.486438,-.40817*
20,1,.02,-.486438,-.40817,-.549926,-.3175,0.0*
1,1,.02,-.549926,-.3175*
20,1,.02,-.549926,-.3175,-.596705,-.217183,0.0*
1,1,.02,-.596705,-.217183*
20,1,.02,-.596705,-.217183,-.625353,-.110267,0.0*
1,1,.02,-.625353,-.110267*
20,1,.02,-.625353,-.110267,-.635,0.0,0.0*
1,1,.02,-.635,0.0*
20,1,.02,-.635,0.0,-.625353,.110267,0.0*
1,1,.02,-.625353,.110267*
20,1,.02,-.625353,.110267,-.596705,.217183,0.0*
1,1,.02,-.596705,.217183*
20,1,.02,-.596705,.217183,-.549926,.3175,0.0*
1,1,.02,-.549926,.3175*
20,1,.02,-.549926,.3175,-.486438,.40817,0.0*
1,1,.02,-.486438,.40817*
20,1,.02,-.486438,.40817,-.40817,.486438,0.0*
1,1,.02,-.40817,.486438*
20,1,.02,-.40817,.486438,-.3175,.549926,0.0*
1,1,.02,-.3175,.549926*
20,1,.02,-.3175,.549926,-.217183,.596705,0.0*
1,1,.02,-.217183,.596705*
20,1,.02,-.217183,.596705,-.110267,.625353,0.0*
1,1,.02,-.110267,.625353*
20,1,.02,-.110267,.625353,0.0,.635,0.0*
1,1,.02,0.0,.635*
20,1,.02,0.0,.635,.110267,.625353,0.0*
1,1,.02,.110267,.625353*
20,1,.02,.110267,.625353,.217183,.596705,0.0*
1,1,.02,.217183,.596705*
20,1,.02,.217183,.596705,.3175,.549926,0.0*
1,1,.02,.3175,.549926*
20,1,.02,.3175,.549926,.40817,.486438,0.0*
1,1,.02,.40817,.486438*
20,1,.02,.40817,.486438,.486438,.40817,0.0*
1,1,.02,.486438,.40817*
20,1,.02,.486438,.40817,.549926,.3175,0.0*
1,1,.02,.549926,.3175*
20,1,.02,.549926,.3175,.596705,.217183,0.0*
1,1,.02,.596705,.217183*
20,1,.02,.596705,.217183,.625353,.110267,0.0*
1,1,.02,.625353,.110267*
20,1,.02,.625353,.110267,.635,0.0,0.0*
1,1,.02,.635,0.0*
1,1,.02,.3175,0.0*
20,1,.02,.3175,0.0,-.3175,0.0,0.0*
1,1,.02,-.3175,0.0*
1,1,.02,0.0,.3175*
20,1,.02,0.0,.3175,0.0,-.3175,0.0*
1,1,.02,0.0,-.3175*
%
%ADD10MACRO10*%
%AMMACRO13*
1,1,.02,.762,0.0*
20,1,.02,.762,0.0,.750424,-.13232,0.0*
1,1,.02,.750424,-.13232*
20,1,.02,.750424,-.13232,.716046,-.260619,0.0*
1,1,.02,.716046,-.260619*
20,1,.02,.716046,-.260619,.659911,-.381,0.0*
1,1,.02,.659911,-.381*
20,1,.02,.659911,-.381,.583726,-.489804,0.0*
1,1,.02,.583726,-.489804*
20,1,.02,.583726,-.489804,.489804,-.583726,0.0*
1,1,.02,.489804,-.583726*
20,1,.02,.489804,-.583726,.381,-.659911,0.0*
1,1,.02,.381,-.659911*
20,1,.02,.381,-.659911,.260619,-.716046,0.0*
1,1,.02,.260619,-.716046*
20,1,.02,.260619,-.716046,.13232,-.750424,0.0*
1,1,.02,.13232,-.750424*
20,1,.02,.13232,-.750424,0.0,-.762,0.0*
1,1,.02,0.0,-.762*
20,1,.02,0.0,-.762,-.13232,-.750424,0.0*
1,1,.02,-.13232,-.750424*
20,1,.02,-.13232,-.750424,-.260619,-.716046,0.0*
1,1,.02,-.260619,-.716046*
20,1,.02,-.260619,-.716046,-.381,-.659911,0.0*
1,1,.02,-.381,-.659911*
20,1,.02,-.381,-.659911,-.489804,-.583726,0.0*
1,1,.02,-.489804,-.583726*
20,1,.02,-.489804,-.583726,-.583726,-.489804,0.0*
1,1,.02,-.583726,-.489804*
20,1,.02,-.583726,-.489804,-.659911,-.381,0.0*
1,1,.02,-.659911,-.381*
20,1,.02,-.659911,-.381,-.716046,-.260619,0.0*
1,1,.02,-.716046,-.260619*
20,1,.02,-.716046,-.260619,-.750424,-.13232,0.0*
1,1,.02,-.750424,-.13232*
20,1,.02,-.750424,-.13232,-.762,0.0,0.0*
1,1,.02,-.762,0.0*
20,1,.02,-.762,0.0,-.750424,.13232,0.0*
1,1,.02,-.750424,.13232*
20,1,.02,-.750424,.13232,-.716046,.260619,0.0*
1,1,.02,-.716046,.260619*
20,1,.02,-.716046,.260619,-.659911,.381,0.0*
1,1,.02,-.659911,.381*
20,1,.02,-.659911,.381,-.583726,.489804,0.0*
1,1,.02,-.583726,.489804*
20,1,.02,-.583726,.489804,-.489804,.583726,0.0*
1,1,.02,-.489804,.583726*
20,1,.02,-.489804,.583726,-.381,.659911,0.0*
1,1,.02,-.381,.659911*
20,1,.02,-.381,.659911,-.260619,.716046,0.0*
1,1,.02,-.260619,.716046*
20,1,.02,-.260619,.716046,-.13232,.750424,0.0*
1,1,.02,-.13232,.750424*
20,1,.02,-.13232,.750424,0.0,.762,0.0*
1,1,.02,0.0,.762*
20,1,.02,0.0,.762,.13232,.750424,0.0*
1,1,.02,.13232,.750424*
20,1,.02,.13232,.750424,.260619,.716046,0.0*
1,1,.02,.260619,.716046*
20,1,.02,.260619,.716046,.381,.659911,0.0*
1,1,.02,.381,.659911*
20,1,.02,.381,.659911,.489804,.583726,0.0*
1,1,.02,.489804,.583726*
20,1,.02,.489804,.583726,.583726,.489804,0.0*
1,1,.02,.583726,.489804*
20,1,.02,.583726,.489804,.659911,.381,0.0*
1,1,.02,.659911,.381*
20,1,.02,.659911,.381,.716046,.260619,0.0*
1,1,.02,.716046,.260619*
20,1,.02,.716046,.260619,.750424,.13232,0.0*
1,1,.02,.750424,.13232*
20,1,.02,.750424,.13232,.762,0.0,0.0*
1,1,.02,.762,0.0*
1,1,.02,-.3175,-.381*
20,1,.02,-.3175,-.381,0.0,.381,0.0*
1,1,.02,0.0,.381*
20,1,.02,0.0,.381,.3175,-.381,0.0*
1,1,.02,.3175,-.381*
1,1,.02,.2032,-.1143*
20,1,.02,.2032,-.1143,-.2032,-.1143,0.0*
1,1,.02,-.2032,-.1143*
%
%ADD13MACRO13*%
%AMMACRO11*
1,1,.02,.635,0.0*
20,1,.02,.635,0.0,.625353,-.110267,0.0*
1,1,.02,.625353,-.110267*
20,1,.02,.625353,-.110267,.596705,-.217183,0.0*
1,1,.02,.596705,-.217183*
20,1,.02,.596705,-.217183,.549926,-.3175,0.0*
1,1,.02,.549926,-.3175*
20,1,.02,.549926,-.3175,.486438,-.40817,0.0*
1,1,.02,.486438,-.40817*
20,1,.02,.486438,-.40817,.40817,-.486438,0.0*
1,1,.02,.40817,-.486438*
20,1,.02,.40817,-.486438,.3175,-.549926,0.0*
1,1,.02,.3175,-.549926*
20,1,.02,.3175,-.549926,.217183,-.596705,0.0*
1,1,.02,.217183,-.596705*
20,1,.02,.217183,-.596705,.110267,-.625353,0.0*
1,1,.02,.110267,-.625353*
20,1,.02,.110267,-.625353,0.0,-.635,0.0*
1,1,.02,0.0,-.635*
20,1,.02,0.0,-.635,-.110267,-.625353,0.0*
1,1,.02,-.110267,-.625353*
20,1,.02,-.110267,-.625353,-.217183,-.596705,0.0*
1,1,.02,-.217183,-.596705*
20,1,.02,-.217183,-.596705,-.3175,-.549926,0.0*
1,1,.02,-.3175,-.549926*
20,1,.02,-.3175,-.549926,-.40817,-.486438,0.0*
1,1,.02,-.40817,-.486438*
20,1,.02,-.40817,-.486438,-.486438,-.40817,0.0*
1,1,.02,-.486438,-.40817*
20,1,.02,-.486438,-.40817,-.549926,-.3175,0.0*
1,1,.02,-.549926,-.3175*
20,1,.02,-.549926,-.3175,-.596705,-.217183,0.0*
1,1,.02,-.596705,-.217183*
20,1,.02,-.596705,-.217183,-.625353,-.110267,0.0*
1,1,.02,-.625353,-.110267*
20,1,.02,-.625353,-.110267,-.635,0.0,0.0*
1,1,.02,-.635,0.0*
20,1,.02,-.635,0.0,-.625353,.110267,0.0*
1,1,.02,-.625353,.110267*
20,1,.02,-.625353,.110267,-.596705,.217183,0.0*
1,1,.02,-.596705,.217183*
20,1,.02,-.596705,.217183,-.549926,.3175,0.0*
1,1,.02,-.549926,.3175*
20,1,.02,-.549926,.3175,-.486438,.40817,0.0*
1,1,.02,-.486438,.40817*
20,1,.02,-.486438,.40817,-.40817,.486438,0.0*
1,1,.02,-.40817,.486438*
20,1,.02,-.40817,.486438,-.3175,.549926,0.0*
1,1,.02,-.3175,.549926*
20,1,.02,-.3175,.549926,-.217183,.596705,0.0*
1,1,.02,-.217183,.596705*
20,1,.02,-.217183,.596705,-.110267,.625353,0.0*
1,1,.02,-.110267,.625353*
20,1,.02,-.110267,.625353,0.0,.635,0.0*
1,1,.02,0.0,.635*
20,1,.02,0.0,.635,.110267,.625353,0.0*
1,1,.02,.110267,.625353*
20,1,.02,.110267,.625353,.217183,.596705,0.0*
1,1,.02,.217183,.596705*
20,1,.02,.217183,.596705,.3175,.549926,0.0*
1,1,.02,.3175,.549926*
20,1,.02,.3175,.549926,.40817,.486438,0.0*
1,1,.02,.40817,.486438*
20,1,.02,.40817,.486438,.486438,.40817,0.0*
1,1,.02,.486438,.40817*
20,1,.02,.486438,.40817,.549926,.3175,0.0*
1,1,.02,.549926,.3175*
20,1,.02,.549926,.3175,.596705,.217183,0.0*
1,1,.02,.596705,.217183*
20,1,.02,.596705,.217183,.625353,.110267,0.0*
1,1,.02,.625353,.110267*
20,1,.02,.625353,.110267,.635,0.0,0.0*
1,1,.02,.635,0.0*
1,1,.02,.1905,-.3175*
20,1,.02,.1905,-.3175,.1905,.1058,0.0*
1,1,.02,.1905,.1058*
1,1,.02,.1905,.0318*
20,1,.02,.1905,.0318,.1482,.0741,0.0*
1,1,.02,.1482,.0741*
20,1,.02,.1482,.0741,.0847,.0952,0.0*
1,1,.02,.0847,.0952*
20,1,.02,.0847,.0952,.0106,.1058,0.0*
1,1,.02,.0106,.1058*
20,1,.02,.0106,.1058,-.0635,.0847,0.0*
1,1,.02,-.0635,.0847*
20,1,.02,-.0635,.0847,-.127,.0423,0.0*
1,1,.02,-.127,.0423*
20,1,.02,-.127,.0423,-.1693,-.0212,0.0*
1,1,.02,-.1693,-.0212*
20,1,.02,-.1693,-.0212,-.1905,-.1058,0.0*
1,1,.02,-.1905,-.1058*
20,1,.02,-.1905,-.1058,-.1693,-.1905,0.0*
1,1,.02,-.1693,-.1905*
20,1,.02,-.1693,-.1905,-.127,-.254,0.0*
1,1,.02,-.127,-.254*
20,1,.02,-.127,-.254,-.0635,-.2963,0.0*
1,1,.02,-.0635,-.2963*
20,1,.02,-.0635,-.2963,.0106,-.3175,0.0*
1,1,.02,.0106,-.3175*
20,1,.02,.0106,-.3175,.0847,-.3069,0.0*
1,1,.02,.0847,-.3069*
20,1,.02,.0847,-.3069,.1482,-.2752,0.0*
1,1,.02,.1482,-.2752*
20,1,.02,.1482,-.2752,.1905,-.2329,0.0*
1,1,.02,.1905,-.2329*
%
%ADD11MACRO11*%
%ADD14C,.02*%
%ADD15C,.05*%
G75*
%LPD*%
G75*
G36*
G01X-4292000Y4441800D02*
Y4217800D01*
X-4228500D01*
Y-451000D01*
X-4292000D01*
Y-675000D01*
X-3911000D01*
Y-451000D01*
X-3974500D01*
Y4217800D01*
X-3911000D01*
Y4441800D01*
X-4292000D01*
G37*
G36*
G01X-4800000Y-675000D02*
Y-451000D01*
X-3276000D01*
Y-675000D01*
X-4800000D01*
G37*
G36*
G01Y1030600D02*
Y1142600D01*
X-3276000D01*
Y1030600D01*
X-4800000D01*
G37*
G36*
G01Y2624200D02*
Y2736200D01*
X-3276000D01*
Y2624200D01*
X-4800000D01*
G37*
G36*
G01Y4217800D02*
Y4441800D01*
X-3276000D01*
Y4217800D01*
X-4800000D01*
G37*
G54D10*
X-190000Y-1710000D03*
X-180000Y-1060000D03*
X110000Y-780000D03*
X40000Y-280000D03*
X-210000Y650000D03*
Y1420000D03*
Y2650000D03*
Y3430000D03*
X-200000Y4390000D03*
X210000Y-1720000D03*
X750000Y-1550000D03*
X790000Y-1260000D03*
X810000Y-270000D03*
X390000Y-760000D03*
Y-510000D03*
X510000Y3560000D03*
X860000Y4220000D03*
X490000Y4470000D03*
X480000Y4220000D03*
X1180000Y-1400000D03*
X1470000Y-1180000D03*
X990000Y-1010000D03*
Y-710000D03*
Y-860000D03*
X1430000Y-160000D03*
X1360000Y260000D03*
Y490000D03*
X1350000Y1000000D03*
X1360000Y660000D03*
X1350000Y1110000D03*
X1560000Y1570000D03*
X1470000D03*
X1450000Y1880000D03*
X1550000D03*
X1260000Y2620000D03*
X1270000Y2220000D03*
Y2040000D03*
X1490000Y2920000D03*
X1060000D03*
X1490000Y3500000D03*
X1060000Y4230000D03*
X1850000Y-1320000D03*
X1810000Y-1410000D03*
X1730000Y-740000D03*
X2321410Y372460D03*
X1770000Y590000D03*
X2081410Y582460D03*
X1760000Y740000D03*
Y890000D03*
X1930000Y1640000D03*
Y1800000D03*
X2070000Y1540000D03*
Y1720000D03*
Y1890000D03*
X2180000Y1540000D03*
X2270000Y1890000D03*
X2370000D03*
X2280000Y1540000D03*
X2170000Y1890000D03*
X1770000Y1570000D03*
X1660000D03*
X1770000Y1720000D03*
X1660000Y1880000D03*
X1770000D03*
X1930000Y2320000D03*
X2070000Y2090000D03*
Y2250000D03*
X1930000Y2140000D03*
Y1980000D03*
X2050000Y2940000D03*
X2140000Y3460000D03*
X1930000D03*
X2700000Y-1210000D03*
X2620000Y-490000D03*
X2830000Y-420000D03*
Y-340000D03*
Y-260000D03*
X2550000Y-750000D03*
X2470000Y-160000D03*
X3010000Y470000D03*
X2620000Y-70000D03*
X2830000Y-180000D03*
X2451350Y407630D03*
X2450000Y323820D03*
Y240000D03*
X2420000Y20000D03*
X2970000Y610000D03*
X2580000Y1100000D03*
X2510000Y1170000D03*
X2810000Y680000D03*
X2450000Y490000D03*
X2574610Y867120D03*
X2573480Y795260D03*
X2510000Y830000D03*
X2600000Y1280000D03*
Y1440000D03*
X2490000Y1370000D03*
X3080000Y1280000D03*
X3020500Y1460000D03*
Y1620000D03*
Y1780000D03*
X2380000Y1540000D03*
X2480000D03*
X2470000Y1890000D03*
X2570000Y2170000D03*
Y1990000D03*
X2470000Y2090000D03*
Y2250000D03*
X3020500Y1940000D03*
X2570000Y2630000D03*
Y2550000D03*
X2500000Y2590000D03*
X3022360Y2190000D03*
X3080000Y3350000D03*
X2690000Y2890000D03*
X2540000Y3060000D03*
Y3300000D03*
Y3223820D03*
X2539990Y3140010D03*
X2670000Y3480000D03*
X2410000Y3370000D03*
X3236200Y-1000000D03*
X3730000Y-1040000D03*
X3320000Y-850000D03*
X3660000Y-800000D03*
X3320000Y-610000D03*
X3660000Y-600000D03*
X3300000Y140000D03*
X3410000Y-30000D03*
X3484500Y860000D03*
X3730000Y890000D03*
X3139140Y851090D03*
X3210000Y870000D03*
X3189500Y800000D03*
X3420000Y1210000D03*
X3549500D03*
X3240000Y1280000D03*
X3165500Y1460000D03*
Y1620000D03*
Y1780000D03*
X3310500Y1460000D03*
Y1620000D03*
Y1780000D03*
X3455500Y1460000D03*
Y1620000D03*
Y1780000D03*
X3600000Y1460000D03*
Y1620000D03*
Y1780000D03*
X3745000Y1460000D03*
Y1620000D03*
Y1780000D03*
X3549500Y2521260D03*
X3482870Y2575840D03*
X3340000Y2540000D03*
X3680000Y2140000D03*
X3380000D03*
X3540000D03*
X3165500Y1940000D03*
X3310500D03*
X3455500D03*
X3600000D03*
X3745000D03*
X3096180Y2190000D03*
X3170000D03*
X3220000Y2580000D03*
X3370000Y2930000D03*
X3220000D03*
X3330000Y3500000D03*
X3482870Y3430000D03*
X3230000Y3500000D03*
X4300000Y-1430000D03*
X3940000Y-1440000D03*
X4290000Y-1020000D03*
X3890000Y-260000D03*
X3870000Y-800000D03*
Y-600000D03*
X3890000Y50000D03*
Y390000D03*
X4280000Y440000D03*
Y240000D03*
X4450000Y940000D03*
Y1170000D03*
X4280000Y1120000D03*
X3890000Y851790D03*
X3831830Y809330D03*
X3831520Y887550D03*
X4450000Y1450000D03*
X4280000Y1380000D03*
Y1540000D03*
Y1700000D03*
X4150000Y1380000D03*
Y1540000D03*
Y1700000D03*
Y1860000D03*
X4010000Y1380000D03*
Y1540000D03*
Y1700000D03*
Y1860000D03*
X3890000Y1780000D03*
Y1620000D03*
Y1460000D03*
X4310000Y2430000D03*
X4510000Y2220000D03*
Y2430000D03*
X4410000Y2320000D03*
X3890000Y1940000D03*
X4220000Y2600000D03*
X4030000Y2690000D03*
X4360000Y3110000D03*
X4020000Y3180000D03*
X4030000Y2830000D03*
X5110000Y-1150000D03*
X5170000Y-1610000D03*
X4700000Y-1430000D03*
X5110000Y-900000D03*
X5130000Y-380000D03*
X4660000Y-720000D03*
X5050000Y-610000D03*
X4690000Y282120D03*
X5220000Y30000D03*
X4952760Y1012760D03*
X4590000Y1040000D03*
Y1280000D03*
X4950000Y1743400D03*
X4650000Y1880000D03*
X4955420Y1195420D03*
X4760000Y2000000D03*
X4730000Y2590000D03*
X4600000Y2320000D03*
X4750000Y2130000D03*
X4950000Y2510000D03*
X4680000Y3110000D03*
X4800000Y2780000D03*
X4940000Y3570000D03*
X4950000Y3387340D03*
X5300000Y-900000D03*
X5710000Y-480000D03*
X5310000Y-360000D03*
X5920000Y-490000D03*
X5580000Y-480000D03*
X5440000Y150000D03*
X5300000Y380000D03*
X5360000Y740000D03*
X5300000Y1290000D03*
X5800000Y2020000D03*
X5310000Y2108720D03*
Y2656700D03*
X6020000Y-490000D03*
X6162940Y-270000D03*
X6180000Y-490000D03*
X6550000Y120000D03*
Y640000D03*
X6560000Y1150000D03*
Y2030000D03*
Y3680000D03*
X6550000Y4440000D03*
X9451730Y1925650D03*
G54D11*
X254000Y0D03*
X0D03*
X254000Y254000D03*
Y508000D03*
X0Y254000D03*
Y508000D03*
X254000Y762000D03*
Y1016000D03*
X0Y762000D03*
Y1016000D03*
X254000Y1270000D03*
Y1524000D03*
Y1778000D03*
X0Y1270000D03*
Y1524000D03*
Y1778000D03*
X254000Y2032000D03*
Y2286000D03*
Y2540000D03*
X0Y2032000D03*
Y2286000D03*
Y2540000D03*
X254000Y2794000D03*
X0D03*
X254000Y3302000D03*
Y3048000D03*
X0D03*
Y3302000D03*
Y4064000D03*
X254000D03*
X0Y3810000D03*
X254000D03*
X0Y3556000D03*
X254000D03*
X0Y4572000D03*
X254000D03*
X0Y4318000D03*
X254000D03*
X762000Y0D03*
Y254000D03*
Y508000D03*
Y762000D03*
Y1016000D03*
Y1778000D03*
Y1270000D03*
Y2032000D03*
Y2286000D03*
Y2540000D03*
Y2794000D03*
Y3048000D03*
Y3302000D03*
Y3556000D03*
X1650000Y30000D03*
Y284000D03*
X1270000Y2450000D03*
X1524000D03*
X1990000Y30000D03*
Y284000D03*
X3590000Y90000D03*
Y344000D03*
Y598000D03*
X3700000Y2782000D03*
Y3290000D03*
Y3036000D03*
X4210000Y3500000D03*
X4464000D03*
X4718000D03*
X5998000Y-1570000D03*
X5490000D03*
X5744000D03*
X5588000Y508000D03*
Y0D03*
Y254000D03*
Y1016000D03*
Y762000D03*
Y1778000D03*
Y1524000D03*
Y1270000D03*
Y2692000D03*
Y2184000D03*
Y2438000D03*
Y3200000D03*
Y2946000D03*
Y3962000D03*
Y3708000D03*
Y3454000D03*
Y4470000D03*
Y4216000D03*
X6510000Y-1024000D03*
X6506000Y-1570000D03*
X6252000D03*
X6510000Y-770000D03*
X6350000Y0D03*
X6096000D03*
X6350000Y254000D03*
Y508000D03*
X6096000Y254000D03*
Y508000D03*
X6350000Y762000D03*
Y1016000D03*
X6096000Y762000D03*
Y1016000D03*
X6350000Y1270000D03*
Y1524000D03*
Y1778000D03*
X6096000Y1270000D03*
Y1524000D03*
Y1778000D03*
X6350000Y2032000D03*
Y2286000D03*
Y2540000D03*
X6096000Y2032000D03*
Y2286000D03*
Y2540000D03*
X6350000Y2794000D03*
X6096000D03*
X6350000Y3302000D03*
Y3048000D03*
X6096000D03*
Y3302000D03*
Y4064000D03*
X6350000D03*
X6096000Y3810000D03*
X6350000D03*
X6096000Y3556000D03*
X6350000D03*
X6096000Y4572000D03*
X6350000D03*
X6096000Y4318000D03*
X6350000D03*
X9451730Y498170D03*
G54D12*
X1228440Y2919560D03*
Y3427560D03*
X1995500Y3170000D03*
X1741500Y2916000D03*
X2244440Y3173560D03*
X1741500Y3424000D03*
X9451730Y1211910D03*
G54D13*
X3079500Y-1338000D03*
X3010000Y3590000D03*
X3460500Y-1338000D03*
X4111000Y-1328000D03*
X4492000D03*
X4500000Y2950000D03*
X4873000Y-1328000D03*
X6500000Y-330000D03*
X9451730Y-929310D03*
Y-215570D03*
G54D14*
G01X-4800000Y-451000D02*
Y1030600D01*
X-3276000D01*
Y-451000D01*
X-4800000D01*
G01Y1142600D02*
Y2624200D01*
X-3276000D01*
Y1142600D01*
X-4800000D01*
G01Y2736200D02*
Y4217800D01*
X-3276000D01*
Y2736200D01*
X-4800000D01*
G01X6674990Y-1840000D02*
Y4760010D01*
X5188000D01*
Y3724000D01*
X1162000D01*
Y4760010D01*
X-324990D01*
Y-1840000D01*
X6674990D01*
G01X-324990Y5010010D02*
Y5180000D01*
G01X2837140Y4930000D02*
X-324990D01*
G01X75010Y4992500D02*
X-324990Y4930000D01*
X75010Y4867500D01*
Y4992500D01*
G01X3116540Y4803000D02*
X3122890Y4858030D01*
X3132420Y4904590D01*
X3145110Y4946930D01*
X3160990Y4993500D01*
X3186390Y5057000D01*
X3059390D01*
G01X3376890D02*
X3351490Y5048540D01*
X3332440Y5027370D01*
X3319740Y5001970D01*
X3310210Y4968100D01*
X3307040Y4930000D01*
X3310210Y4891900D01*
X3319740Y4858030D01*
X3332440Y4832630D01*
X3351490Y4811460D01*
X3376890Y4803000D01*
X3402290Y4811460D01*
X3421340Y4832630D01*
X3434040Y4858030D01*
X3443570Y4891900D01*
X3446740Y4930000D01*
X3443570Y4968100D01*
X3434040Y5001970D01*
X3421340Y5027370D01*
X3402290Y5048540D01*
X3376890Y5057000D01*
G01X3662640Y4930000D02*
X6674990D01*
G01X6274990Y4867500D02*
X6674990Y4930000D01*
X6274990Y4992500D01*
Y4867500D01*
G01X6924990Y-1840000D02*
X7410000D01*
G01X7160000Y1402500D02*
Y-1840000D01*
G01X7097500Y-1440000D02*
X7160000Y-1840000D01*
X7222500Y-1440000D01*
X7097500D01*
G01X6972670Y1698830D02*
X6994900Y1728470D01*
X7013950Y1745400D01*
X7039350Y1753860D01*
X7061580Y1745400D01*
X7077450Y1728470D01*
X7090150Y1703070D01*
X7093330Y1673430D01*
X7090150Y1648030D01*
X7077450Y1622630D01*
X7058400Y1601460D01*
X7036180Y1593000D01*
X7010780Y1601460D01*
X6988550Y1626860D01*
X6975850Y1664970D01*
X6972670Y1707300D01*
X6979020Y1762330D01*
X6988550Y1791970D01*
X7004420Y1821600D01*
X7026650Y1842770D01*
X7048870Y1847000D01*
X7071100Y1838540D01*
X7086980Y1817370D01*
G01X7226670Y1698830D02*
X7248900Y1728470D01*
X7267950Y1745400D01*
X7293350Y1753860D01*
X7315580Y1745400D01*
X7331450Y1728470D01*
X7344150Y1703070D01*
X7347330Y1673430D01*
X7344150Y1648030D01*
X7331450Y1622630D01*
X7312400Y1601460D01*
X7290180Y1593000D01*
X7264780Y1601460D01*
X7242550Y1626860D01*
X7229850Y1664970D01*
X7226670Y1707300D01*
X7233020Y1762330D01*
X7242550Y1791970D01*
X7258420Y1821600D01*
X7280650Y1842770D01*
X7302870Y1847000D01*
X7325100Y1838540D01*
X7340980Y1817370D01*
G01X7160000Y2037500D02*
Y4760010D01*
G01X7222500Y4360010D02*
X7160000Y4760010D01*
X7097500Y4360010D01*
X7222500D01*
G01X6674990Y5010010D02*
Y5180000D01*
G01X6924990Y4760010D02*
X7410000D01*
G01X8310000Y-1286180D02*
Y4360000D01*
X20593440D01*
Y-1286180D01*
X8310000D01*
G01Y-572440D02*
X20593440D01*
G01X8310000Y141300D02*
X20593440D01*
G01X8310000Y855040D02*
X20593440D01*
G01X8310000Y1568780D02*
X20593440D01*
G01X8589520Y2520010D02*
Y2837510D01*
X8739140D01*
G01X8684010Y2684060D02*
X8589520D01*
G01X8932050Y2837510D02*
X9026530D01*
G01X8979290D02*
Y2520010D01*
G01X8932050D02*
X9026530D01*
G01X9317870Y2678760D02*
X9396620D01*
Y2583510D01*
X9372990Y2551750D01*
X9345430Y2530590D01*
X9306060Y2520010D01*
X9266690Y2530590D01*
X9239130Y2551750D01*
X9215510Y2583510D01*
X9199760Y2620550D01*
X9191880Y2662880D01*
Y2699930D01*
X9199760Y2731670D01*
X9215510Y2768720D01*
X9239130Y2800470D01*
X9262750Y2821630D01*
X9294250Y2837510D01*
X9321810D01*
X9353300Y2826930D01*
X9376930Y2805760D01*
G01X9522600Y2837510D02*
Y2609970D01*
X9538340Y2562330D01*
X9569840Y2530590D01*
X9609210Y2520010D01*
X9648580Y2530590D01*
X9680080Y2562330D01*
X9695820Y2609970D01*
Y2837510D01*
G01X9845430Y2520010D02*
Y2837510D01*
X9943850D01*
X9975350Y2821630D01*
X9995040Y2800470D01*
X10002910Y2758130D01*
X9995040Y2715800D01*
X9971410Y2689350D01*
X9943850Y2673460D01*
X9845430D01*
G01X9943850D02*
X10002910Y2520010D01*
G01X10317870D02*
X10160390D01*
Y2837510D01*
X10317870D01*
G01X10254880Y2684060D02*
X10160390D01*
G01X8310000Y2282520D02*
X20593440D01*
G01X8310000Y2996260D02*
X20593440D01*
G01X8310000Y3710000D02*
X20593440D01*
G01X10101330Y3233750D02*
X10199760Y3551250D01*
X10298190Y3233750D01*
G01X10262750Y3344870D02*
X10136760D01*
G01X10435980Y3551250D02*
Y3233750D01*
X10593460D01*
G01X10750940Y3551250D02*
Y3233750D01*
X10908420D01*
G01X11372990Y3551250D02*
Y3323710D01*
X11388730Y3276070D01*
X11420230Y3244330D01*
X11459600Y3233750D01*
X11498970Y3244330D01*
X11530470Y3276070D01*
X11546210Y3323710D01*
Y3551250D01*
G01X11684010Y3233750D02*
Y3551250D01*
X11865110Y3233750D01*
Y3551250D01*
G01X12042280D02*
X12136760D01*
G01X12089520D02*
Y3233750D01*
G01X12042280D02*
X12136760D01*
G01X12404480Y3551250D02*
Y3233750D01*
G01X12313930Y3551250D02*
X12495030D01*
G01X12636760Y3276070D02*
X12668260Y3249620D01*
X12703690Y3233750D01*
X12735190D01*
X12766680Y3249620D01*
X12790310Y3276070D01*
X12802120Y3313130D01*
X12794250Y3350160D01*
X12774560Y3381910D01*
X12739120Y3403090D01*
X12691880Y3413670D01*
X12664320Y3434830D01*
X12652510Y3471870D01*
X12660390Y3508920D01*
X12680070Y3535370D01*
X12707630Y3551250D01*
X12735190D01*
X12762750Y3540670D01*
X12786370Y3514210D01*
G01X13250930Y3233750D02*
X13349360Y3551250D01*
X13447790Y3233750D01*
G01X13412350Y3344870D02*
X13286360D01*
G01X13585580Y3233750D02*
Y3551250D01*
X13684000D01*
X13715500Y3535370D01*
X13735190Y3514210D01*
X13743060Y3471870D01*
X13735190Y3429540D01*
X13711560Y3403090D01*
X13684000Y3387200D01*
X13585580D01*
G01X13684000D02*
X13743060Y3233750D01*
G01X14058020D02*
X13900540D01*
Y3551250D01*
X14058020D01*
G01X13995030Y3397800D02*
X13900540D01*
G01X14561960Y3551250D02*
X14656440D01*
G01X14609200D02*
Y3233750D01*
G01X14561960D02*
X14656440D01*
G01X14833610D02*
Y3551250D01*
X15014710Y3233750D01*
Y3551250D01*
G01X15451710Y3233750D02*
Y3551250D01*
X15554080Y3286670D01*
X15656450Y3551250D01*
Y3233750D01*
G01X15821800Y3551250D02*
X15916280D01*
G01X15869040D02*
Y3233750D01*
G01X15821800D02*
X15916280D01*
G01X16105260Y3551250D02*
Y3233750D01*
X16262740D01*
G01X16420220Y3551250D02*
Y3233750D01*
X16577700D01*
G01X16766680Y3551250D02*
X16861160D01*
G01X16813920D02*
Y3233750D01*
G01X16766680D02*
X16861160D01*
G01X17026510D02*
Y3551250D01*
X17128880Y3286670D01*
X17231250Y3551250D01*
Y3233750D01*
G01X17522580D02*
X17365100D01*
Y3551250D01*
X17522580D01*
G01X17459590Y3397800D02*
X17365100D01*
G01X17758800Y3551250D02*
Y3233750D01*
G01X17668250Y3551250D02*
X17849350D01*
G01X18152500Y3233750D02*
X17995020D01*
Y3551250D01*
X18152500D01*
G01X18089510Y3397800D02*
X17995020D01*
G01X18309980Y3233750D02*
Y3551250D01*
X18408400D01*
X18439900Y3535370D01*
X18459590Y3514210D01*
X18467460Y3471870D01*
X18459590Y3429540D01*
X18435960Y3403090D01*
X18408400Y3387200D01*
X18309980D01*
G01X18408400D02*
X18467460Y3233750D01*
G01X18621000Y3276070D02*
X18652500Y3249620D01*
X18687930Y3233750D01*
X18719430D01*
X18750920Y3249620D01*
X18774550Y3276070D01*
X18786360Y3313130D01*
X18778490Y3350160D01*
X18758800Y3381910D01*
X18723360Y3403090D01*
X18676120Y3413670D01*
X18648560Y3434830D01*
X18636750Y3471870D01*
X18644630Y3508920D01*
X18664310Y3535370D01*
X18691870Y3551250D01*
X18719430D01*
X18746990Y3540670D01*
X18770610Y3514210D01*
G01X10593460Y2996260D02*
Y-1286180D01*
G01X10428110Y3883750D02*
Y4201250D01*
X10506840D01*
X10538340Y4185370D01*
X10561960Y4164210D01*
X10581650Y4132460D01*
X10597400Y4095410D01*
X10601330Y4042500D01*
X10597400Y3989580D01*
X10581650Y3952540D01*
X10561960Y3920780D01*
X10538340Y3899620D01*
X10506840Y3883750D01*
X10428110D01*
G01X10750940D02*
Y4201250D01*
X10849360D01*
X10880860Y4185370D01*
X10900550Y4164210D01*
X10908420Y4121870D01*
X10900550Y4079540D01*
X10876920Y4053090D01*
X10849360Y4037200D01*
X10750940D01*
G01X10849360D02*
X10908420Y3883750D01*
G01X11097400Y4201250D02*
X11191880D01*
G01X11144640D02*
Y3883750D01*
G01X11097400D02*
X11191880D01*
G01X11380860Y4201250D02*
Y3883750D01*
X11538340D01*
G01X11695820Y4201250D02*
Y3883750D01*
X11853300D01*
G01X12491090Y4174790D02*
X12467470Y4190670D01*
X12439920Y4201250D01*
X12408420D01*
X12372980Y4185370D01*
X12345430Y4158920D01*
X12325740Y4127160D01*
X12309990Y4074250D01*
X12306050Y4026620D01*
X12313930Y3979000D01*
X12325740Y3947250D01*
X12349360Y3915490D01*
X12376920Y3894330D01*
X12404480Y3883750D01*
X12432040D01*
X12459600Y3894330D01*
X12483220Y3910200D01*
X12502910Y3931360D01*
G01X12636760Y3883750D02*
Y4201250D01*
G01X12802120D02*
Y3883750D01*
G01Y4042500D02*
X12636760D01*
G01X12935970Y3883750D02*
X13034400Y4201250D01*
X13132830Y3883750D01*
G01X13097390Y3994870D02*
X12971400D01*
G01X13270620Y3883750D02*
Y4201250D01*
X13369040D01*
X13400540Y4185370D01*
X13420230Y4164210D01*
X13428100Y4121870D01*
X13420230Y4079540D01*
X13396600Y4053090D01*
X13369040Y4037200D01*
X13270620D01*
G01X13369040D02*
X13428100Y3883750D01*
G01X13664320Y4201250D02*
Y3883750D01*
G01X13573770Y4201250D02*
X13754870D01*
G01X13979280Y3873170D02*
X13971400Y3878460D01*
Y3889040D01*
X13979280Y3894330D01*
X13987160Y3889040D01*
Y3878460D01*
X13979280Y3873170D01*
G01Y4016030D02*
X13971400Y4021330D01*
Y4031910D01*
X13979280Y4037200D01*
X13987160Y4031910D01*
Y4021330D01*
X13979280Y4016030D01*
G01X14609200Y4201250D02*
Y3883750D01*
G01X14518650Y4201250D02*
X14699750D01*
G01X14924160Y3883750D02*
X14892660Y3889040D01*
X14865110Y3910200D01*
X14841480Y3941960D01*
X14825730Y3979000D01*
X14817860Y4021330D01*
Y4063670D01*
X14825730Y4106000D01*
X14841480Y4143040D01*
X14865110Y4174790D01*
X14892660Y4195960D01*
X14924160Y4201250D01*
X14955650Y4195960D01*
X14983210Y4174790D01*
X15006840Y4143040D01*
X15022590Y4106000D01*
X15030460Y4063670D01*
Y4021330D01*
X15022590Y3979000D01*
X15006840Y3941960D01*
X14983210Y3910200D01*
X14955650Y3889040D01*
X14924160Y3883750D01*
G01X15160380D02*
Y4201250D01*
X15254870D01*
X15286360Y4185370D01*
X15309990Y4148330D01*
X15317860Y4106000D01*
X15309990Y4063670D01*
X15290300Y4031910D01*
X15254870Y4016030D01*
X15160380D01*
G01X15869040Y4201250D02*
Y3883750D01*
G01X15813920Y4095410D02*
X15924160D01*
G01X16184000Y3883750D02*
X16160380Y3889040D01*
X16136760Y3910200D01*
X16121000Y3947250D01*
X16113130Y3989580D01*
X16121000Y4031910D01*
X16136760Y4068960D01*
X16160380Y4090120D01*
X16184000Y4095410D01*
X16207620Y4090120D01*
X16231240Y4068960D01*
X16246990Y4031910D01*
X16250930Y3989580D01*
X16246990Y3947250D01*
X16231240Y3910200D01*
X16207620Y3889040D01*
X16184000Y3883750D01*
G01X16845410Y4053090D02*
X16861160Y4068960D01*
X16872970Y4095410D01*
X16880850Y4132460D01*
X16872970Y4164210D01*
X16857230Y4185370D01*
X16829670Y4201250D01*
X16723370D01*
Y3883750D01*
X16853290D01*
X16880850Y3904910D01*
X16896600Y3936670D01*
X16904470Y3973710D01*
X16896600Y4010740D01*
X16872970Y4042500D01*
X16845410Y4053090D01*
X16723370D01*
G01X17128880Y3883750D02*
X17097380Y3889040D01*
X17069830Y3910200D01*
X17046200Y3941960D01*
X17030450Y3979000D01*
X17022580Y4021330D01*
Y4063670D01*
X17030450Y4106000D01*
X17046200Y4143040D01*
X17069830Y4174790D01*
X17097380Y4195960D01*
X17128880Y4201250D01*
X17160370Y4195960D01*
X17187930Y4174790D01*
X17211560Y4143040D01*
X17227310Y4106000D01*
X17235180Y4063670D01*
Y4021330D01*
X17227310Y3979000D01*
X17211560Y3941960D01*
X17187930Y3910200D01*
X17160370Y3889040D01*
X17128880Y3883750D01*
G01X17443840Y4201250D02*
Y3883750D01*
G01X17353290Y4201250D02*
X17534390D01*
G01X17758800D02*
Y3883750D01*
G01X17668250Y4201250D02*
X17849350D01*
G01X18073760Y3883750D02*
X18042260Y3889040D01*
X18014710Y3910200D01*
X17991080Y3941960D01*
X17975330Y3979000D01*
X17967460Y4021330D01*
Y4063670D01*
X17975330Y4106000D01*
X17991080Y4143040D01*
X18014710Y4174790D01*
X18042260Y4195960D01*
X18073760Y4201250D01*
X18105250Y4195960D01*
X18132810Y4174790D01*
X18156440Y4143040D01*
X18172190Y4106000D01*
X18180060Y4063670D01*
Y4021330D01*
X18172190Y3979000D01*
X18156440Y3941960D01*
X18132810Y3910200D01*
X18105250Y3889040D01*
X18073760Y3883750D01*
G01X18286350D02*
Y4201250D01*
X18388720Y3936670D01*
X18491090Y4201250D01*
Y3883750D01*
G01X12439910Y2562330D02*
X12471410Y2535880D01*
X12506840Y2520010D01*
X12538340D01*
X12569830Y2535880D01*
X12593460Y2562330D01*
X12605270Y2599390D01*
X12597400Y2636420D01*
X12577710Y2668170D01*
X12542270Y2689350D01*
X12495030Y2699930D01*
X12467470Y2721090D01*
X12455660Y2758130D01*
X12463540Y2795180D01*
X12483220Y2821630D01*
X12510780Y2837510D01*
X12538340D01*
X12565900Y2826930D01*
X12589520Y2800470D01*
G01X12790310Y2837510D02*
X12884790D01*
G01X12837550D02*
Y2520010D01*
G01X12790310D02*
X12884790D01*
G01X13077700Y2837510D02*
X13227320D01*
X13077700Y2520010D01*
X13227320D01*
G01X13546210D02*
X13388730D01*
Y2837510D01*
X13546210D01*
G01X13483220Y2684060D02*
X13388730D01*
G01X12680070Y-1088060D02*
Y-770560D01*
X12632830Y-834060D01*
G01Y-1088060D02*
X12727310D01*
G01X12995030Y-1098640D02*
X12987150Y-1093350D01*
Y-1082770D01*
X12995030Y-1077480D01*
X13002910Y-1082770D01*
Y-1093350D01*
X12995030Y-1098640D01*
G01X13235180Y-823480D02*
X13258810Y-791730D01*
X13286370Y-775850D01*
X13317870Y-770560D01*
X13357230Y-781140D01*
X13384800Y-807600D01*
X13392670Y-839350D01*
X13388730Y-871110D01*
X13372980Y-897560D01*
X13294240Y-950480D01*
X13258810Y-987520D01*
X13235180Y-1040450D01*
X13227310Y-1088060D01*
X13392670D01*
G01X12680070Y-374320D02*
Y-56820D01*
X12632830Y-120320D01*
G01Y-374320D02*
X12727310D01*
G01X12995030Y-384900D02*
X12987150Y-379610D01*
Y-369030D01*
X12995030Y-363740D01*
X13002910Y-369030D01*
Y-379610D01*
X12995030Y-384900D01*
G01X13309990Y-374320D02*
Y-56820D01*
X13262750Y-120320D01*
G01Y-374320D02*
X13357230D01*
G01X12680070Y339420D02*
Y656920D01*
X12632830Y593420D01*
G01Y339420D02*
X12727310D01*
G01X12995030Y328840D02*
X12987150Y334130D01*
Y344710D01*
X12995030Y350000D01*
X13002910Y344710D01*
Y334130D01*
X12995030Y328840D01*
G01X13309990Y656920D02*
X13278490Y646340D01*
X13254870Y619880D01*
X13239120Y588130D01*
X13227310Y545790D01*
X13223380Y498170D01*
X13227310Y450540D01*
X13239120Y408210D01*
X13254870Y376450D01*
X13278490Y350000D01*
X13309990Y339420D01*
X13341480Y350000D01*
X13365110Y376450D01*
X13380860Y408210D01*
X13392670Y450540D01*
X13396600Y498170D01*
X13392670Y545790D01*
X13380860Y588130D01*
X13365110Y619880D01*
X13341480Y646340D01*
X13309990Y656920D01*
G01X12680070Y1370660D02*
X12648570Y1360080D01*
X12624950Y1333620D01*
X12609200Y1301870D01*
X12597390Y1259530D01*
X12593460Y1211910D01*
X12597390Y1164280D01*
X12609200Y1121950D01*
X12624950Y1090190D01*
X12648570Y1063740D01*
X12680070Y1053160D01*
X12711560Y1063740D01*
X12735190Y1090190D01*
X12750940Y1121950D01*
X12762750Y1164280D01*
X12766680Y1211910D01*
X12762750Y1259530D01*
X12750940Y1301870D01*
X12735190Y1333620D01*
X12711560Y1360080D01*
X12680070Y1370660D01*
G01X12995030Y1042580D02*
X12987150Y1047870D01*
Y1058450D01*
X12995030Y1063740D01*
X13002910Y1058450D01*
Y1047870D01*
X12995030Y1042580D01*
G01X13309990Y1053160D02*
X13337550Y1058450D01*
X13369040Y1074320D01*
X13388730Y1100770D01*
X13396600Y1137830D01*
X13388730Y1174860D01*
X13365110Y1206610D01*
X13329670Y1222500D01*
X13290310D01*
X13266680Y1233080D01*
X13246990Y1259530D01*
X13239120Y1296570D01*
X13250940Y1333620D01*
X13278490Y1360080D01*
X13309990Y1370660D01*
X13341480Y1360080D01*
X13369040Y1333620D01*
X13380860Y1296570D01*
X13372980Y1259530D01*
X13353300Y1233080D01*
X13329670Y1222500D01*
X13290310D01*
X13254870Y1206610D01*
X13231250Y1174860D01*
X13223380Y1137830D01*
X13231250Y1100770D01*
X13250940Y1074320D01*
X13282430Y1058450D01*
X13309990Y1053160D01*
G01X12680070Y2084400D02*
X12648570Y2073820D01*
X12624950Y2047360D01*
X12609200Y2015610D01*
X12597390Y1973270D01*
X12593460Y1925650D01*
X12597390Y1878020D01*
X12609200Y1835690D01*
X12624950Y1803930D01*
X12648570Y1777480D01*
X12680070Y1766900D01*
X12711560Y1777480D01*
X12735190Y1803930D01*
X12750940Y1835690D01*
X12762750Y1878020D01*
X12766680Y1925650D01*
X12762750Y1973270D01*
X12750940Y2015610D01*
X12735190Y2047360D01*
X12711560Y2073820D01*
X12680070Y2084400D01*
G01X12995030Y1756320D02*
X12987150Y1761610D01*
Y1772190D01*
X12995030Y1777480D01*
X13002910Y1772190D01*
Y1761610D01*
X12995030Y1756320D01*
G01X13223380Y1830400D02*
X13246990Y1793350D01*
X13278490Y1772190D01*
X13313930Y1766900D01*
X13345430Y1772190D01*
X13376920Y1798640D01*
X13396600Y1830400D01*
X13400540Y1862150D01*
X13392670Y1899180D01*
X13365110Y1925650D01*
X13337550Y1936240D01*
X13302110D01*
G01X13337550D02*
X13361170Y1952110D01*
X13380860Y1978560D01*
X13388730Y2010310D01*
X13380860Y2042070D01*
X13361170Y2068520D01*
X13325740Y2084400D01*
X13290310Y2079110D01*
X13254870Y2057940D01*
G01X15396600Y2996260D02*
Y-1286180D01*
G01X16144630Y-1088060D02*
Y-770560D01*
X16239120D01*
X16270610Y-786440D01*
X16294240Y-823480D01*
X16302110Y-865810D01*
X16294240Y-908140D01*
X16274550Y-939900D01*
X16239120Y-955780D01*
X16144630D01*
G01X16459590Y-770560D02*
Y-1088060D01*
X16617070D01*
G01X16754860D02*
X16853290Y-770560D01*
X16951720Y-1088060D01*
G01X16916280Y-976940D02*
X16790290D01*
G01X17168250Y-770560D02*
Y-1088060D01*
G01X17077700Y-770560D02*
X17258800D01*
G01X17561950Y-1088060D02*
X17404470D01*
Y-770560D01*
X17561950D01*
G01X17498960Y-924010D02*
X17404470D01*
G01X17711560Y-1088060D02*
Y-770560D01*
X17790290D01*
X17821790Y-786440D01*
X17845410Y-807600D01*
X17865100Y-839350D01*
X17880850Y-876400D01*
X17884780Y-929310D01*
X17880850Y-982230D01*
X17865100Y-1019270D01*
X17845410Y-1051030D01*
X17821790Y-1072190D01*
X17790290Y-1088060D01*
X17711560D01*
G01X16144630Y-374320D02*
Y-56820D01*
X16239120D01*
X16270610Y-72700D01*
X16294240Y-109740D01*
X16302110Y-152070D01*
X16294240Y-194400D01*
X16274550Y-226160D01*
X16239120Y-242040D01*
X16144630D01*
G01X16459590Y-56820D02*
Y-374320D01*
X16617070D01*
G01X16754860D02*
X16853290Y-56820D01*
X16951720Y-374320D01*
G01X16916280Y-263200D02*
X16790290D01*
G01X17168250Y-56820D02*
Y-374320D01*
G01X17077700Y-56820D02*
X17258800D01*
G01X17561950Y-374320D02*
X17404470D01*
Y-56820D01*
X17561950D01*
G01X17498960Y-210270D02*
X17404470D01*
G01X17711560Y-374320D02*
Y-56820D01*
X17790290D01*
X17821790Y-72700D01*
X17845410Y-93860D01*
X17865100Y-125610D01*
X17880850Y-162660D01*
X17884780Y-215570D01*
X17880850Y-268490D01*
X17865100Y-305530D01*
X17845410Y-337290D01*
X17821790Y-358450D01*
X17790290Y-374320D01*
X17711560D01*
G01X16144630Y339420D02*
Y656920D01*
X16239120D01*
X16270610Y641040D01*
X16294240Y604000D01*
X16302110Y561670D01*
X16294240Y519340D01*
X16274550Y487580D01*
X16239120Y471700D01*
X16144630D01*
G01X16459590Y656920D02*
Y339420D01*
X16617070D01*
G01X16754860D02*
X16853290Y656920D01*
X16951720Y339420D01*
G01X16916280Y450540D02*
X16790290D01*
G01X17168250Y656920D02*
Y339420D01*
G01X17077700Y656920D02*
X17258800D01*
G01X17561950Y339420D02*
X17404470D01*
Y656920D01*
X17561950D01*
G01X17498960Y503470D02*
X17404470D01*
G01X17711560Y339420D02*
Y656920D01*
X17790290D01*
X17821790Y641040D01*
X17845410Y619880D01*
X17865100Y588130D01*
X17880850Y551080D01*
X17884780Y498170D01*
X17880850Y445250D01*
X17865100Y408210D01*
X17845410Y376450D01*
X17821790Y355290D01*
X17790290Y339420D01*
X17711560D01*
G01X16144630Y1053160D02*
Y1370660D01*
X16239120D01*
X16270610Y1354780D01*
X16294240Y1317740D01*
X16302110Y1275410D01*
X16294240Y1233080D01*
X16274550Y1201320D01*
X16239120Y1185440D01*
X16144630D01*
G01X16459590Y1370660D02*
Y1053160D01*
X16617070D01*
G01X16754860D02*
X16853290Y1370660D01*
X16951720Y1053160D01*
G01X16916280Y1164280D02*
X16790290D01*
G01X17168250Y1370660D02*
Y1053160D01*
G01X17077700Y1370660D02*
X17258800D01*
G01X17561950Y1053160D02*
X17404470D01*
Y1370660D01*
X17561950D01*
G01X17498960Y1217210D02*
X17404470D01*
G01X17711560Y1053160D02*
Y1370660D01*
X17790290D01*
X17821790Y1354780D01*
X17845410Y1333620D01*
X17865100Y1301870D01*
X17880850Y1264820D01*
X17884780Y1211910D01*
X17880850Y1158990D01*
X17865100Y1121950D01*
X17845410Y1090190D01*
X17821790Y1069030D01*
X17790290Y1053160D01*
X17711560D01*
G01X16144630Y1766900D02*
Y2084400D01*
X16239120D01*
X16270610Y2068520D01*
X16294240Y2031480D01*
X16302110Y1989150D01*
X16294240Y1946820D01*
X16274550Y1915060D01*
X16239120Y1899180D01*
X16144630D01*
G01X16459590Y2084400D02*
Y1766900D01*
X16617070D01*
G01X16754860D02*
X16853290Y2084400D01*
X16951720Y1766900D01*
G01X16916280Y1878020D02*
X16790290D01*
G01X17168250Y2084400D02*
Y1766900D01*
G01X17077700Y2084400D02*
X17258800D01*
G01X17561950Y1766900D02*
X17404470D01*
Y2084400D01*
X17561950D01*
G01X17498960Y1930950D02*
X17404470D01*
G01X17711560Y1766900D02*
Y2084400D01*
X17790290D01*
X17821790Y2068520D01*
X17845410Y2047360D01*
X17865100Y2015610D01*
X17880850Y1978560D01*
X17884780Y1925650D01*
X17880850Y1872730D01*
X17865100Y1835690D01*
X17845410Y1803930D01*
X17821790Y1782770D01*
X17790290Y1766900D01*
X17711560D01*
G01X16144630Y2520010D02*
Y2837510D01*
X16239120D01*
X16270610Y2821630D01*
X16294240Y2784590D01*
X16302110Y2742260D01*
X16294240Y2699930D01*
X16274550Y2668170D01*
X16239120Y2652290D01*
X16144630D01*
G01X16459590Y2837510D02*
Y2520010D01*
X16617070D01*
G01X16754860D02*
X16853290Y2837510D01*
X16951720Y2520010D01*
G01X16916280Y2631130D02*
X16790290D01*
G01X17168250Y2837510D02*
Y2520010D01*
G01X17077700Y2837510D02*
X17258800D01*
G01X17561950Y2520010D02*
X17404470D01*
Y2837510D01*
X17561950D01*
G01X17498960Y2684060D02*
X17404470D01*
G01X17711560Y2520010D02*
Y2837510D01*
X17790290D01*
X17821790Y2821630D01*
X17845410Y2800470D01*
X17865100Y2768720D01*
X17880850Y2731670D01*
X17884780Y2678760D01*
X17880850Y2625840D01*
X17865100Y2588800D01*
X17845410Y2557040D01*
X17821790Y2535880D01*
X17790290Y2520010D01*
X17711560D01*
G01X18624940Y2996260D02*
Y-1286180D01*
G01X19522580Y-1040450D02*
X19546190Y-1066900D01*
X19573750Y-1082770D01*
X19609190Y-1088060D01*
X19644630Y-1077480D01*
X19672180Y-1056320D01*
X19691870Y-1019270D01*
X19695800Y-976940D01*
X19687930Y-934610D01*
X19668240Y-908140D01*
X19640680Y-886980D01*
X19613130Y-881690D01*
X19585570Y-886980D01*
X19550140Y-908140D01*
X19561950Y-770560D01*
X19668240D01*
G01X19522580Y-310820D02*
X19546190Y-347870D01*
X19577690Y-369030D01*
X19613130Y-374320D01*
X19644630Y-369030D01*
X19676120Y-342580D01*
X19695800Y-310820D01*
X19699740Y-279070D01*
X19691870Y-242040D01*
X19664310Y-215570D01*
X19636750Y-204980D01*
X19601310D01*
G01X19636750D02*
X19660370Y-189110D01*
X19680060Y-162660D01*
X19687930Y-130910D01*
X19680060Y-99150D01*
X19660370Y-72700D01*
X19624940Y-56820D01*
X19589510Y-62110D01*
X19554070Y-83280D01*
G01X19294230Y339420D02*
Y656920D01*
X19246990Y593420D01*
G01Y339420D02*
X19341470D01*
G01X19522580Y402920D02*
X19546190Y365870D01*
X19577690Y344710D01*
X19613130Y339420D01*
X19644630Y344710D01*
X19676120Y371160D01*
X19695800Y402920D01*
X19699740Y434670D01*
X19691870Y471700D01*
X19664310Y498170D01*
X19636750Y508760D01*
X19601310D01*
G01X19636750D02*
X19660370Y524630D01*
X19680060Y551080D01*
X19687930Y582830D01*
X19680060Y614590D01*
X19660370Y641040D01*
X19624940Y656920D01*
X19589510Y651630D01*
X19554070Y630460D01*
G01X19924150Y656920D02*
X19892650Y646340D01*
X19869030Y619880D01*
X19853280Y588130D01*
X19841470Y545790D01*
X19837540Y498170D01*
X19841470Y450540D01*
X19853280Y408210D01*
X19869030Y376450D01*
X19892650Y350000D01*
X19924150Y339420D01*
X19955640Y350000D01*
X19979270Y376450D01*
X19995020Y408210D01*
X20006830Y450540D01*
X20010760Y498170D01*
X20006830Y545790D01*
X19995020Y588130D01*
X19979270Y619880D01*
X19955640Y646340D01*
X19924150Y656920D01*
G01X19534380Y1185440D02*
X19561950Y1222500D01*
X19585570Y1243660D01*
X19617070Y1254240D01*
X19644630Y1243660D01*
X19664310Y1222500D01*
X19680060Y1190740D01*
X19684000Y1153700D01*
X19680060Y1121950D01*
X19664310Y1090190D01*
X19640680Y1063740D01*
X19613130Y1053160D01*
X19581630Y1063740D01*
X19554070Y1095480D01*
X19538320Y1143120D01*
X19534380Y1196030D01*
X19542260Y1264820D01*
X19554070Y1301870D01*
X19573750Y1338910D01*
X19601310Y1365370D01*
X19628870Y1370660D01*
X19656430Y1360080D01*
X19676120Y1333620D01*
G01X19219420Y2031480D02*
X19243050Y2063230D01*
X19270610Y2079110D01*
X19302110Y2084400D01*
X19341470Y2073820D01*
X19369040Y2047360D01*
X19376910Y2015610D01*
X19372970Y1983850D01*
X19357220Y1957400D01*
X19278480Y1904480D01*
X19243050Y1867440D01*
X19219420Y1814510D01*
X19211550Y1766900D01*
X19376910D01*
G01X19522580Y1814510D02*
X19546190Y1788060D01*
X19573750Y1772190D01*
X19609190Y1766900D01*
X19644630Y1777480D01*
X19672180Y1798640D01*
X19691870Y1835690D01*
X19695800Y1878020D01*
X19687930Y1920350D01*
X19668240Y1946820D01*
X19640680Y1967980D01*
X19613130Y1973270D01*
X19585570Y1967980D01*
X19550140Y1946820D01*
X19561950Y2084400D01*
X19668240D01*
G01X19916270Y1766900D02*
X19924150Y1835690D01*
X19935960Y1893890D01*
X19951710Y1946820D01*
X19971390Y2005020D01*
X20002890Y2084400D01*
X19845410D01*
G01X19294230Y2520010D02*
X19262730Y2525300D01*
X19235180Y2546460D01*
X19211550Y2578220D01*
X19195800Y2615260D01*
X19187930Y2657590D01*
Y2699930D01*
X19195800Y2742260D01*
X19211550Y2779300D01*
X19235180Y2811050D01*
X19262730Y2832220D01*
X19294230Y2837510D01*
X19325720Y2832220D01*
X19353280Y2811050D01*
X19376910Y2779300D01*
X19392660Y2742260D01*
X19400530Y2699930D01*
Y2657590D01*
X19392660Y2615260D01*
X19376910Y2578220D01*
X19353280Y2546460D01*
X19325720Y2525300D01*
X19294230Y2520010D01*
G01X19325720Y2604680D02*
X19372970Y2520010D01*
G01X19609190Y2837510D02*
Y2520010D01*
G01X19518640Y2837510D02*
X19699740D01*
G01X19924150Y2520010D02*
Y2662880D01*
X19845410Y2837510D01*
G01X20002890D02*
X19924150Y2662880D01*
G54D15*
G01X-4680620Y-957500D02*
Y-1017500D01*
G01X-4696200Y-957500D02*
X-4665040D01*
G01X-4624740Y-1017500D02*
X-4630160Y-1016500D01*
X-4634900Y-1012500D01*
X-4638960Y-1006500D01*
X-4641670Y-999500D01*
X-4643030Y-991500D01*
Y-983500D01*
X-4641670Y-975500D01*
X-4638960Y-968500D01*
X-4634900Y-962500D01*
X-4630160Y-958500D01*
X-4624740Y-957500D01*
X-4619320Y-958500D01*
X-4614580Y-962500D01*
X-4610520Y-968500D01*
X-4607810Y-975500D01*
X-4606450Y-983500D01*
Y-991500D01*
X-4607810Y-999500D01*
X-4610520Y-1006500D01*
X-4614580Y-1012500D01*
X-4619320Y-1016500D01*
X-4624740Y-1017500D01*
G01X-4568860Y-957500D02*
Y-1017500D01*
G01X-4584440Y-957500D02*
X-4553280D01*
G01X-4529910Y-1017500D02*
X-4512980Y-957500D01*
X-4496050Y-1017500D01*
G01X-4502140Y-996500D02*
X-4523820D01*
G01X-4470650Y-957500D02*
Y-1017500D01*
X-4443550D01*
G01X-4345340Y-957500D02*
Y-1017500D01*
G01X-4360920Y-957500D02*
X-4329760D01*
G01X-4303680Y-1017500D02*
Y-957500D01*
G01X-4275240D02*
Y-1017500D01*
G01Y-987500D02*
X-4303680D01*
G01X-4241710Y-957500D02*
X-4225450D01*
G01X-4233580D02*
Y-1017500D01*
G01X-4241710D02*
X-4225450D01*
G01X-4162800Y-962500D02*
X-4166860Y-959500D01*
X-4171600Y-957500D01*
X-4177020D01*
X-4183120Y-960500D01*
X-4187860Y-965500D01*
X-4191250Y-971500D01*
X-4193960Y-981500D01*
X-4194630Y-990500D01*
X-4193280Y-999500D01*
X-4191250Y-1005500D01*
X-4187180Y-1011500D01*
X-4182440Y-1015500D01*
X-4177700Y-1017500D01*
X-4172960D01*
X-4168220Y-1015500D01*
X-4164150Y-1012500D01*
X-4160770Y-1008500D01*
G01X-4136720Y-1017500D02*
Y-957500D01*
G01X-4110980D02*
X-4136720Y-994500D01*
G01X-4106920Y-1017500D02*
X-4125210Y-977500D01*
G01X-4081520Y-1017500D02*
Y-957500D01*
X-4050360Y-1017500D01*
Y-957500D01*
G01X-3996510Y-1017500D02*
X-4023610D01*
Y-957500D01*
X-3996510D01*
G01X-4007350Y-986500D02*
X-4023610D01*
G01X-3968400Y-1009500D02*
X-3962990Y-1014500D01*
X-3956890Y-1017500D01*
X-3951470D01*
X-3946050Y-1014500D01*
X-3941990Y-1009500D01*
X-3939960Y-1002500D01*
X-3941310Y-995500D01*
X-3944700Y-989500D01*
X-3950790Y-985500D01*
X-3958920Y-983500D01*
X-3963660Y-979500D01*
X-3965700Y-972500D01*
X-3964340Y-965500D01*
X-3960950Y-960500D01*
X-3956210Y-957500D01*
X-3951470D01*
X-3946730Y-959500D01*
X-3942660Y-964500D01*
G01X-3912520Y-1009500D02*
X-3907110Y-1014500D01*
X-3901010Y-1017500D01*
X-3895590D01*
X-3890170Y-1014500D01*
X-3886110Y-1009500D01*
X-3884080Y-1002500D01*
X-3885430Y-995500D01*
X-3888820Y-989500D01*
X-3894910Y-985500D01*
X-3903040Y-983500D01*
X-3907780Y-979500D01*
X-3909820Y-972500D01*
X-3908460Y-965500D01*
X-3905070Y-960500D01*
X-3900330Y-957500D01*
X-3895590D01*
X-3890850Y-959500D01*
X-3886780Y-964500D01*
G01X-3786540Y-1017500D02*
Y-957500D01*
X-3794670Y-969500D01*
G01Y-1017500D02*
X-3778410D01*
G01X-3730660Y-1019500D02*
X-3732010Y-1018500D01*
Y-1016500D01*
X-3730660Y-1015500D01*
X-3729310Y-1016500D01*
Y-1018500D01*
X-3730660Y-1019500D01*
G01X-3689680Y-1008500D02*
X-3685620Y-1013500D01*
X-3680880Y-1016500D01*
X-3674780Y-1017500D01*
X-3668680Y-1015500D01*
X-3663940Y-1011500D01*
X-3660560Y-1004500D01*
X-3659880Y-996500D01*
X-3661230Y-988500D01*
X-3664620Y-983500D01*
X-3669360Y-979500D01*
X-3674100Y-978500D01*
X-3678840Y-979500D01*
X-3684940Y-983500D01*
X-3682910Y-957500D01*
X-3664620D01*
G01X-3630420Y-1010500D02*
X-3625670Y-1015500D01*
X-3620250Y-1017500D01*
X-3614840Y-1015500D01*
X-3610090Y-1009500D01*
X-3606710Y-1000500D01*
X-3605350Y-991500D01*
Y-980500D01*
X-3606710Y-971500D01*
X-3610090Y-963500D01*
X-3614160Y-959500D01*
X-3618900Y-957500D01*
X-3624320Y-959500D01*
X-3628380Y-963500D01*
X-3631090Y-969500D01*
X-3632450Y-977500D01*
X-3631090Y-984500D01*
X-3627710Y-991500D01*
X-3623640Y-995500D01*
X-3618900Y-996500D01*
X-3613480Y-994500D01*
X-3609420Y-989500D01*
X-3605350Y-980500D01*
G01X-3574540Y-1010500D02*
X-3569790Y-1015500D01*
X-3564370Y-1017500D01*
X-3558960Y-1015500D01*
X-3554210Y-1009500D01*
X-3550830Y-1000500D01*
X-3549470Y-991500D01*
Y-980500D01*
X-3550830Y-971500D01*
X-3554210Y-963500D01*
X-3558280Y-959500D01*
X-3563020Y-957500D01*
X-3568440Y-959500D01*
X-3572500Y-963500D01*
X-3575210Y-969500D01*
X-3576570Y-977500D01*
X-3575210Y-984500D01*
X-3571830Y-991500D01*
X-3567760Y-995500D01*
X-3563020Y-996500D01*
X-3557600Y-994500D01*
X-3553540Y-989500D01*
X-3549470Y-980500D01*
G01X-3468870Y-1017500D02*
Y-957500D01*
X-3451260Y-1007500D01*
X-3433650Y-957500D01*
Y-1017500D01*
G01X-3412990D02*
Y-957500D01*
X-3395380Y-1007500D01*
X-3377770Y-957500D01*
Y-1017500D01*
G01X-4751400Y-897500D02*
Y-837500D01*
X-4737850D01*
X-4732440Y-840500D01*
X-4728370Y-844500D01*
X-4724980Y-850500D01*
X-4722280Y-857500D01*
X-4721600Y-867500D01*
X-4722280Y-877500D01*
X-4724980Y-884500D01*
X-4728370Y-890500D01*
X-4732440Y-894500D01*
X-4737850Y-897500D01*
X-4751400D01*
G01X-4667070D02*
X-4694170D01*
Y-837500D01*
X-4667070D01*
G01X-4677910Y-866500D02*
X-4694170D01*
G01X-4638960Y-889500D02*
X-4633550Y-894500D01*
X-4627450Y-897500D01*
X-4622030D01*
X-4616610Y-894500D01*
X-4612550Y-889500D01*
X-4610520Y-882500D01*
X-4611870Y-875500D01*
X-4615260Y-869500D01*
X-4621350Y-865500D01*
X-4629480Y-863500D01*
X-4634220Y-859500D01*
X-4636260Y-852500D01*
X-4634900Y-845500D01*
X-4631510Y-840500D01*
X-4626770Y-837500D01*
X-4622030D01*
X-4617290Y-839500D01*
X-4613220Y-844500D01*
G01X-4576990Y-837500D02*
X-4560730D01*
G01X-4568860D02*
Y-897500D01*
G01X-4576990D02*
X-4560730D01*
G01X-4508920Y-867500D02*
X-4495370D01*
Y-885500D01*
X-4499430Y-891500D01*
X-4504170Y-895500D01*
X-4510950Y-897500D01*
X-4517720Y-895500D01*
X-4522460Y-891500D01*
X-4526530Y-885500D01*
X-4529240Y-878500D01*
X-4530590Y-870500D01*
Y-863500D01*
X-4529240Y-857500D01*
X-4526530Y-850500D01*
X-4522460Y-844500D01*
X-4518400Y-840500D01*
X-4512980Y-837500D01*
X-4508240D01*
X-4502820Y-839500D01*
X-4498760Y-843500D01*
G01X-4472680Y-897500D02*
Y-837500D01*
X-4441520Y-897500D01*
Y-837500D01*
G01X-4330440Y-842500D02*
X-4334500Y-839500D01*
X-4339240Y-837500D01*
X-4344660D01*
X-4350760Y-840500D01*
X-4355500Y-845500D01*
X-4358890Y-851500D01*
X-4361600Y-861500D01*
X-4362270Y-870500D01*
X-4360920Y-879500D01*
X-4358890Y-885500D01*
X-4354820Y-891500D01*
X-4350080Y-895500D01*
X-4345340Y-897500D01*
X-4340600D01*
X-4335860Y-895500D01*
X-4331790Y-892500D01*
X-4328410Y-888500D01*
G01X-4303010Y-897500D02*
Y-837500D01*
X-4286070D01*
X-4280650Y-840500D01*
X-4277270Y-844500D01*
X-4275910Y-852500D01*
X-4277270Y-860500D01*
X-4281330Y-865500D01*
X-4286070Y-868500D01*
X-4303010D01*
G01X-4286070D02*
X-4275910Y-897500D01*
G01X-4233580D02*
X-4239000Y-896500D01*
X-4243740Y-892500D01*
X-4247800Y-886500D01*
X-4250510Y-879500D01*
X-4251870Y-871500D01*
Y-863500D01*
X-4250510Y-855500D01*
X-4247800Y-848500D01*
X-4243740Y-842500D01*
X-4239000Y-838500D01*
X-4233580Y-837500D01*
X-4228160Y-838500D01*
X-4223420Y-842500D01*
X-4219360Y-848500D01*
X-4216650Y-855500D01*
X-4215290Y-863500D01*
Y-871500D01*
X-4216650Y-879500D01*
X-4219360Y-886500D01*
X-4223420Y-892500D01*
X-4228160Y-896500D01*
X-4233580Y-897500D01*
G01X-4191920Y-889500D02*
X-4186510Y-894500D01*
X-4180410Y-897500D01*
X-4174990D01*
X-4169570Y-894500D01*
X-4165510Y-889500D01*
X-4163480Y-882500D01*
X-4164830Y-875500D01*
X-4168220Y-869500D01*
X-4174310Y-865500D01*
X-4182440Y-863500D01*
X-4187180Y-859500D01*
X-4189220Y-852500D01*
X-4187860Y-845500D01*
X-4184470Y-840500D01*
X-4179730Y-837500D01*
X-4174990D01*
X-4170250Y-839500D01*
X-4166180Y-844500D01*
G01X-4136040Y-889500D02*
X-4130630Y-894500D01*
X-4124530Y-897500D01*
X-4119110D01*
X-4113690Y-894500D01*
X-4109630Y-889500D01*
X-4107600Y-882500D01*
X-4108950Y-875500D01*
X-4112340Y-869500D01*
X-4118430Y-865500D01*
X-4126560Y-863500D01*
X-4131300Y-859500D01*
X-4133340Y-852500D01*
X-4131980Y-845500D01*
X-4128590Y-840500D01*
X-4123850Y-837500D01*
X-4119110D01*
X-4114370Y-839500D01*
X-4110300Y-844500D01*
G01X-4024280Y-889500D02*
X-4018870Y-894500D01*
X-4012770Y-897500D01*
X-4007350D01*
X-4001930Y-894500D01*
X-3997870Y-889500D01*
X-3995840Y-882500D01*
X-3997190Y-875500D01*
X-4000580Y-869500D01*
X-4006670Y-865500D01*
X-4014800Y-863500D01*
X-4019540Y-859500D01*
X-4021580Y-852500D01*
X-4020220Y-845500D01*
X-4016830Y-840500D01*
X-4012090Y-837500D01*
X-4007350D01*
X-4002610Y-839500D01*
X-3998540Y-844500D01*
G01X-3940630Y-897500D02*
X-3967730D01*
Y-837500D01*
X-3940630D01*
G01X-3951470Y-866500D02*
X-3967730D01*
G01X-3883400Y-842500D02*
X-3887460Y-839500D01*
X-3892200Y-837500D01*
X-3897620D01*
X-3903720Y-840500D01*
X-3908460Y-845500D01*
X-3911850Y-851500D01*
X-3914560Y-861500D01*
X-3915230Y-870500D01*
X-3913880Y-879500D01*
X-3911850Y-885500D01*
X-3907780Y-891500D01*
X-3903040Y-895500D01*
X-3898300Y-897500D01*
X-3893560D01*
X-3888820Y-895500D01*
X-3884750Y-892500D01*
X-3881370Y-888500D01*
G01X-3842420Y-837500D02*
Y-897500D01*
G01X-3858000Y-837500D02*
X-3826840D01*
G01X-3794670D02*
X-3778410D01*
G01X-3786540D02*
Y-897500D01*
G01X-3794670D02*
X-3778410D01*
G01X-3730660D02*
X-3736080Y-896500D01*
X-3740820Y-892500D01*
X-3744880Y-886500D01*
X-3747590Y-879500D01*
X-3748950Y-871500D01*
Y-863500D01*
X-3747590Y-855500D01*
X-3744880Y-848500D01*
X-3740820Y-842500D01*
X-3736080Y-838500D01*
X-3730660Y-837500D01*
X-3725240Y-838500D01*
X-3720500Y-842500D01*
X-3716440Y-848500D01*
X-3713730Y-855500D01*
X-3712370Y-863500D01*
Y-871500D01*
X-3713730Y-879500D01*
X-3716440Y-886500D01*
X-3720500Y-892500D01*
X-3725240Y-896500D01*
X-3730660Y-897500D01*
G01X-3690360D02*
Y-837500D01*
X-3659200Y-897500D01*
Y-837500D01*
G01X-3548120Y-842500D02*
X-3552180Y-839500D01*
X-3556920Y-837500D01*
X-3562340D01*
X-3568440Y-840500D01*
X-3573180Y-845500D01*
X-3576570Y-851500D01*
X-3579280Y-861500D01*
X-3579950Y-870500D01*
X-3578600Y-879500D01*
X-3576570Y-885500D01*
X-3572500Y-891500D01*
X-3567760Y-895500D01*
X-3563020Y-897500D01*
X-3558280D01*
X-3553540Y-895500D01*
X-3549470Y-892500D01*
X-3546090Y-888500D01*
G01X-3521360Y-897500D02*
Y-837500D01*
G01X-3492920D02*
Y-897500D01*
G01Y-867500D02*
X-3521360D01*
G01X-3468190Y-897500D02*
X-3451260Y-837500D01*
X-3434330Y-897500D01*
G01X-3440420Y-876500D02*
X-3462100D01*
G01X-3408930Y-897500D02*
Y-837500D01*
X-3391990D01*
X-3386570Y-840500D01*
X-3383190Y-844500D01*
X-3381830Y-852500D01*
X-3383190Y-860500D01*
X-3387250Y-865500D01*
X-3391990Y-868500D01*
X-3408930D01*
G01X-3391990D02*
X-3381830Y-897500D01*
G01X-3339500Y-837500D02*
Y-897500D01*
G01X-3355080Y-837500D02*
X-3323920D01*
G01X-4784760Y-917500D02*
X-4744120D01*
G01X-4728880D02*
X-4688240D01*
G01X-4673000D02*
X-4632360D01*
G01X-4617120D02*
X-4576480D01*
G01X-4561240D02*
X-4520600D01*
G01X-4505360D02*
X-4464720D01*
G01X-4449480D02*
X-4408840D01*
G01X-4393600D02*
X-4352960D01*
G01X-4337720D02*
X-4297080D01*
G01X-4281840D02*
X-4241200D01*
G01X-4225960D02*
X-4185320D01*
G01X-4170080D02*
X-4129440D01*
G01X-4114200D02*
X-4073560D01*
G01X-4058320D02*
X-4017680D01*
G01X-4002440D02*
X-3961800D01*
G01X-3946560D02*
X-3905920D01*
G01X-3890680D02*
X-3850040D01*
G01X-3834800D02*
X-3794160D01*
G01X-3778920D02*
X-3738280D01*
G01X-3723040D02*
X-3682400D01*
G01X-3667160D02*
X-3626520D01*
G01X-3611280D02*
X-3570640D01*
G01X-3555400D02*
X-3514760D01*
G01X-3499520D02*
X-3458880D01*
G01X-3443640D02*
X-3403000D01*
G01X-3387760D02*
X-3347120D01*
G01X-3331880D02*
X-3291240D01*
G01X-4101500Y4522120D02*
X-4161500D01*
X-4149500Y4513990D01*
G01X-4101500D02*
Y4530250D01*
G01X-4121500Y4569190D02*
Y4586810D01*
G01X-4101500Y4642010D02*
X-4161500D01*
X-4118500Y4616950D01*
Y4650810D01*
G01X-3213350Y-503000D02*
Y-563000D01*
X-3186250D01*
G01X-3135790D02*
Y-503000D01*
X-3160850Y-546000D01*
X-3126990D01*
G01X-3088040Y-565000D02*
X-3089390Y-564000D01*
Y-562000D01*
X-3088040Y-561000D01*
X-3086690Y-562000D01*
Y-564000D01*
X-3088040Y-565000D01*
G01Y-538000D02*
X-3089390Y-537000D01*
Y-535000D01*
X-3088040Y-534000D01*
X-3086690Y-535000D01*
Y-537000D01*
X-3088040Y-538000D01*
G01X-2970860Y-531000D02*
X-2968150Y-528000D01*
X-2966120Y-523000D01*
X-2964760Y-516000D01*
X-2966120Y-510000D01*
X-2968830Y-506000D01*
X-2973570Y-503000D01*
X-2991860D01*
Y-563000D01*
X-2969510D01*
X-2964760Y-559000D01*
X-2962060Y-553000D01*
X-2960700Y-546000D01*
X-2962060Y-539000D01*
X-2966120Y-533000D01*
X-2970860Y-531000D01*
X-2991860D01*
G01X-2920400Y-563000D02*
X-2925820Y-562000D01*
X-2930560Y-558000D01*
X-2934620Y-552000D01*
X-2937330Y-545000D01*
X-2938690Y-537000D01*
Y-529000D01*
X-2937330Y-521000D01*
X-2934620Y-514000D01*
X-2930560Y-508000D01*
X-2925820Y-504000D01*
X-2920400Y-503000D01*
X-2914980Y-504000D01*
X-2910240Y-508000D01*
X-2906180Y-514000D01*
X-2903470Y-521000D01*
X-2902110Y-529000D01*
Y-537000D01*
X-2903470Y-545000D01*
X-2906180Y-552000D01*
X-2910240Y-558000D01*
X-2914980Y-562000D01*
X-2920400Y-563000D01*
G01X-2864520Y-503000D02*
Y-563000D01*
G01X-2880100Y-503000D02*
X-2848940D01*
G01X-2808640D02*
Y-563000D01*
G01X-2824220Y-503000D02*
X-2793060D01*
G01X-2752760Y-563000D02*
X-2758180Y-562000D01*
X-2762920Y-558000D01*
X-2766980Y-552000D01*
X-2769690Y-545000D01*
X-2771050Y-537000D01*
Y-529000D01*
X-2769690Y-521000D01*
X-2766980Y-514000D01*
X-2762920Y-508000D01*
X-2758180Y-504000D01*
X-2752760Y-503000D01*
X-2747340Y-504000D01*
X-2742600Y-508000D01*
X-2738540Y-514000D01*
X-2735830Y-521000D01*
X-2734470Y-529000D01*
Y-537000D01*
X-2735830Y-545000D01*
X-2738540Y-552000D01*
X-2742600Y-558000D01*
X-2747340Y-562000D01*
X-2752760Y-563000D01*
G01X-2714490D02*
Y-503000D01*
X-2696880Y-553000D01*
X-2679270Y-503000D01*
Y-563000D01*
G01X-2570220Y-508000D02*
X-2574280Y-505000D01*
X-2579020Y-503000D01*
X-2584440D01*
X-2590540Y-506000D01*
X-2595280Y-511000D01*
X-2598670Y-517000D01*
X-2601380Y-527000D01*
X-2602050Y-536000D01*
X-2600700Y-545000D01*
X-2598670Y-551000D01*
X-2594600Y-557000D01*
X-2589860Y-561000D01*
X-2585120Y-563000D01*
X-2580380D01*
X-2575640Y-561000D01*
X-2571570Y-558000D01*
X-2568190Y-554000D01*
G01X-2529240Y-563000D02*
X-2534660Y-562000D01*
X-2539400Y-558000D01*
X-2543460Y-552000D01*
X-2546170Y-545000D01*
X-2547530Y-537000D01*
Y-529000D01*
X-2546170Y-521000D01*
X-2543460Y-514000D01*
X-2539400Y-508000D01*
X-2534660Y-504000D01*
X-2529240Y-503000D01*
X-2523820Y-504000D01*
X-2519080Y-508000D01*
X-2515020Y-514000D01*
X-2512310Y-521000D01*
X-2510950Y-529000D01*
Y-537000D01*
X-2512310Y-545000D01*
X-2515020Y-552000D01*
X-2519080Y-558000D01*
X-2523820Y-562000D01*
X-2529240Y-563000D01*
G01X-2488940D02*
Y-503000D01*
X-2457780Y-563000D01*
Y-503000D01*
G01X-2432380Y-563000D02*
Y-503000D01*
X-2418830D01*
X-2413420Y-506000D01*
X-2409350Y-510000D01*
X-2405960Y-516000D01*
X-2403260Y-523000D01*
X-2402580Y-533000D01*
X-2403260Y-543000D01*
X-2405960Y-550000D01*
X-2409350Y-556000D01*
X-2413420Y-560000D01*
X-2418830Y-563000D01*
X-2432380D01*
G01X-2376500Y-503000D02*
Y-546000D01*
X-2373790Y-555000D01*
X-2368370Y-561000D01*
X-2361600Y-563000D01*
X-2354830Y-561000D01*
X-2349410Y-555000D01*
X-2346700Y-546000D01*
Y-503000D01*
G01X-2290820Y-508000D02*
X-2294880Y-505000D01*
X-2299620Y-503000D01*
X-2305040D01*
X-2311140Y-506000D01*
X-2315880Y-511000D01*
X-2319270Y-517000D01*
X-2321980Y-527000D01*
X-2322650Y-536000D01*
X-2321300Y-545000D01*
X-2319270Y-551000D01*
X-2315200Y-557000D01*
X-2310460Y-561000D01*
X-2305720Y-563000D01*
X-2300980D01*
X-2296240Y-561000D01*
X-2292170Y-558000D01*
X-2288790Y-554000D01*
G01X-2249840Y-503000D02*
Y-563000D01*
G01X-2265420Y-503000D02*
X-2234260D01*
G01X-2193960Y-563000D02*
X-2199380Y-562000D01*
X-2204120Y-558000D01*
X-2208180Y-552000D01*
X-2210890Y-545000D01*
X-2212250Y-537000D01*
Y-529000D01*
X-2210890Y-521000D01*
X-2208180Y-514000D01*
X-2204120Y-508000D01*
X-2199380Y-504000D01*
X-2193960Y-503000D01*
X-2188540Y-504000D01*
X-2183800Y-508000D01*
X-2179740Y-514000D01*
X-2177030Y-521000D01*
X-2175670Y-529000D01*
Y-537000D01*
X-2177030Y-545000D01*
X-2179740Y-552000D01*
X-2183800Y-558000D01*
X-2188540Y-562000D01*
X-2193960Y-563000D01*
G01X-2151630D02*
Y-503000D01*
X-2134690D01*
X-2129270Y-506000D01*
X-2125890Y-510000D01*
X-2124530Y-518000D01*
X-2125890Y-526000D01*
X-2129950Y-531000D01*
X-2134690Y-534000D01*
X-2151630D01*
G01X-2134690D02*
X-2124530Y-563000D01*
G01X-2035130Y-543000D02*
X-2017510D01*
G01X-1899660Y-508000D02*
X-1903720Y-505000D01*
X-1908460Y-503000D01*
X-1913880D01*
X-1919980Y-506000D01*
X-1924720Y-511000D01*
X-1928110Y-517000D01*
X-1930820Y-527000D01*
X-1931490Y-536000D01*
X-1930140Y-545000D01*
X-1928110Y-551000D01*
X-1924040Y-557000D01*
X-1919300Y-561000D01*
X-1914560Y-563000D01*
X-1909820D01*
X-1905080Y-561000D01*
X-1901010Y-558000D01*
X-1897630Y-554000D01*
G01X-1858680Y-563000D02*
X-1864100Y-562000D01*
X-1868840Y-558000D01*
X-1872900Y-552000D01*
X-1875610Y-545000D01*
X-1876970Y-537000D01*
Y-529000D01*
X-1875610Y-521000D01*
X-1872900Y-514000D01*
X-1868840Y-508000D01*
X-1864100Y-504000D01*
X-1858680Y-503000D01*
X-1853260Y-504000D01*
X-1848520Y-508000D01*
X-1844460Y-514000D01*
X-1841750Y-521000D01*
X-1840390Y-529000D01*
Y-537000D01*
X-1841750Y-545000D01*
X-1844460Y-552000D01*
X-1848520Y-558000D01*
X-1853260Y-562000D01*
X-1858680Y-563000D01*
G01X-1816350D02*
Y-503000D01*
X-1800090D01*
X-1794670Y-506000D01*
X-1790610Y-513000D01*
X-1789250Y-521000D01*
X-1790610Y-529000D01*
X-1793990Y-535000D01*
X-1800090Y-538000D01*
X-1816350D01*
G01X-1760470Y-563000D02*
Y-503000D01*
X-1744210D01*
X-1738790Y-506000D01*
X-1734730Y-513000D01*
X-1733370Y-521000D01*
X-1734730Y-529000D01*
X-1738110Y-535000D01*
X-1744210Y-538000D01*
X-1760470D01*
G01X-1677490Y-563000D02*
X-1704590D01*
Y-503000D01*
X-1677490D01*
G01X-1688330Y-532000D02*
X-1704590D01*
G01X-1648710Y-563000D02*
Y-503000D01*
X-1631770D01*
X-1626350Y-506000D01*
X-1622970Y-510000D01*
X-1621610Y-518000D01*
X-1622970Y-526000D01*
X-1627030Y-531000D01*
X-1631770Y-534000D01*
X-1648710D01*
G01X-1631770D02*
X-1621610Y-563000D01*
G01X-1523400Y-503000D02*
X-1528820Y-505000D01*
X-1532880Y-510000D01*
X-1535590Y-516000D01*
X-1537620Y-524000D01*
X-1538300Y-533000D01*
X-1537620Y-542000D01*
X-1535590Y-550000D01*
X-1532880Y-556000D01*
X-1528820Y-561000D01*
X-1523400Y-563000D01*
X-1517980Y-561000D01*
X-1513920Y-556000D01*
X-1511210Y-550000D01*
X-1509180Y-542000D01*
X-1508500Y-533000D01*
X-1509180Y-524000D01*
X-1511210Y-516000D01*
X-1513920Y-510000D01*
X-1517980Y-505000D01*
X-1523400Y-503000D01*
G01X-1467520Y-565000D02*
X-1468870Y-564000D01*
Y-562000D01*
X-1467520Y-561000D01*
X-1466170Y-562000D01*
Y-564000D01*
X-1467520Y-565000D01*
G01X-1411640Y-503000D02*
X-1417060Y-505000D01*
X-1421120Y-510000D01*
X-1423830Y-516000D01*
X-1425860Y-524000D01*
X-1426540Y-533000D01*
X-1425860Y-542000D01*
X-1423830Y-550000D01*
X-1421120Y-556000D01*
X-1417060Y-561000D01*
X-1411640Y-563000D01*
X-1406220Y-561000D01*
X-1402160Y-556000D01*
X-1399450Y-550000D01*
X-1397420Y-542000D01*
X-1396740Y-533000D01*
X-1397420Y-524000D01*
X-1399450Y-516000D01*
X-1402160Y-510000D01*
X-1406220Y-505000D01*
X-1411640Y-503000D01*
G01X-1357110Y-563000D02*
X-1355760Y-550000D01*
X-1353730Y-539000D01*
X-1351020Y-529000D01*
X-1347630Y-518000D01*
X-1342210Y-503000D01*
X-1369310D01*
G01X-1261610Y-563000D02*
Y-503000D01*
X-1244000Y-553000D01*
X-1226390Y-503000D01*
Y-563000D01*
G01X-1205730D02*
Y-503000D01*
X-1188120Y-553000D01*
X-1170510Y-503000D01*
Y-563000D01*
G01X-3102940Y-757000D02*
X-3073140Y-713000D01*
G01X-3088040Y-705000D02*
Y-765000D01*
G01X-3073140Y-757000D02*
X-3102940Y-713000D01*
G01X-3108360Y-735000D02*
X-3067720D01*
G01X-2934620Y-747000D02*
X-2929210Y-752000D01*
X-2923110Y-755000D01*
X-2917690D01*
X-2912270Y-752000D01*
X-2908210Y-747000D01*
X-2906180Y-740000D01*
X-2907530Y-733000D01*
X-2910920Y-727000D01*
X-2917010Y-723000D01*
X-2925140Y-721000D01*
X-2929880Y-717000D01*
X-2931920Y-710000D01*
X-2930560Y-703000D01*
X-2927170Y-698000D01*
X-2922430Y-695000D01*
X-2917690D01*
X-2912950Y-697000D01*
X-2908880Y-702000D01*
G01X-2879420Y-695000D02*
Y-738000D01*
X-2876710Y-747000D01*
X-2871290Y-753000D01*
X-2864520Y-755000D01*
X-2857750Y-753000D01*
X-2852330Y-747000D01*
X-2849620Y-738000D01*
Y-695000D01*
G01X-2822190Y-755000D02*
Y-695000D01*
X-2805250D01*
X-2799830Y-698000D01*
X-2796450Y-702000D01*
X-2795090Y-710000D01*
X-2796450Y-718000D01*
X-2800510Y-723000D01*
X-2805250Y-726000D01*
X-2822190D01*
G01X-2805250D02*
X-2795090Y-755000D01*
G01X-2765630D02*
Y-695000D01*
X-2739890D01*
G01X-2749370Y-724000D02*
X-2765630D01*
G01X-2713810Y-755000D02*
X-2696880Y-695000D01*
X-2679950Y-755000D01*
G01X-2686040Y-734000D02*
X-2707720D01*
G01X-2626100Y-700000D02*
X-2630160Y-697000D01*
X-2634900Y-695000D01*
X-2640320D01*
X-2646420Y-698000D01*
X-2651160Y-703000D01*
X-2654550Y-709000D01*
X-2657260Y-719000D01*
X-2657930Y-728000D01*
X-2656580Y-737000D01*
X-2654550Y-743000D01*
X-2650480Y-749000D01*
X-2645740Y-753000D01*
X-2641000Y-755000D01*
X-2636260D01*
X-2631520Y-753000D01*
X-2627450Y-750000D01*
X-2624070Y-746000D01*
G01X-2571570Y-755000D02*
X-2598670D01*
Y-695000D01*
X-2571570D01*
G01X-2582410Y-724000D02*
X-2598670D01*
G01X-2482170Y-735000D02*
X-2464550D01*
G01X-2378530Y-755000D02*
X-2361600Y-695000D01*
X-2344670Y-755000D01*
G01X-2350760Y-734000D02*
X-2372440D01*
G01X-2313850Y-695000D02*
X-2297590D01*
G01X-2305720D02*
Y-755000D01*
G01X-2313850D02*
X-2297590D01*
G01X-2263390D02*
Y-695000D01*
X-2246450D01*
X-2241030Y-698000D01*
X-2237650Y-702000D01*
X-2236290Y-710000D01*
X-2237650Y-718000D01*
X-2241710Y-723000D01*
X-2246450Y-726000D01*
X-2263390D01*
G01X-2246450D02*
X-2236290Y-755000D01*
G01X-2138080Y-695000D02*
X-2143500Y-697000D01*
X-2147560Y-702000D01*
X-2150270Y-708000D01*
X-2152300Y-716000D01*
X-2152980Y-725000D01*
X-2152300Y-734000D01*
X-2150270Y-742000D01*
X-2147560Y-748000D01*
X-2143500Y-753000D01*
X-2138080Y-755000D01*
X-2132660Y-753000D01*
X-2128600Y-748000D01*
X-2125890Y-742000D01*
X-2123860Y-734000D01*
X-2123180Y-725000D01*
X-2123860Y-716000D01*
X-2125890Y-708000D01*
X-2128600Y-702000D01*
X-2132660Y-697000D01*
X-2138080Y-695000D01*
G01X-2043930Y-755000D02*
Y-695000D01*
X-2026320Y-745000D01*
X-2008710Y-695000D01*
Y-755000D01*
G01X-1988050D02*
Y-695000D01*
X-1970440Y-745000D01*
X-1952830Y-695000D01*
Y-755000D01*
G01X-3102940Y287800D02*
X-3073140Y331800D01*
G01X-3088040Y339800D02*
Y279800D01*
G01X-3073140Y287800D02*
X-3102940Y331800D01*
G01X-3108360Y309800D02*
X-3067720D01*
G01X-2935300Y289800D02*
Y349800D01*
X-2921750D01*
X-2916340Y346800D01*
X-2912270Y342800D01*
X-2908880Y336800D01*
X-2906180Y329800D01*
X-2905500Y319800D01*
X-2906180Y309800D01*
X-2908880Y302800D01*
X-2912270Y296800D01*
X-2916340Y292800D01*
X-2921750Y289800D01*
X-2935300D01*
G01X-2872650Y349800D02*
X-2856390D01*
G01X-2864520D02*
Y289800D01*
G01X-2872650D02*
X-2856390D01*
G01X-2795090D02*
X-2822190D01*
Y349800D01*
X-2795090D01*
G01X-2805930Y320800D02*
X-2822190D01*
G01X-2766310Y349800D02*
Y289800D01*
X-2739210D01*
G01X-2683330D02*
X-2710430D01*
Y349800D01*
X-2683330D01*
G01X-2694170Y320800D02*
X-2710430D01*
G01X-2626100Y344800D02*
X-2630160Y347800D01*
X-2634900Y349800D01*
X-2640320D01*
X-2646420Y346800D01*
X-2651160Y341800D01*
X-2654550Y335800D01*
X-2657260Y325800D01*
X-2657930Y316800D01*
X-2656580Y307800D01*
X-2654550Y301800D01*
X-2650480Y295800D01*
X-2645740Y291800D01*
X-2641000Y289800D01*
X-2636260D01*
X-2631520Y291800D01*
X-2627450Y294800D01*
X-2624070Y298800D01*
G01X-2585120Y349800D02*
Y289800D01*
G01X-2600700Y349800D02*
X-2569540D01*
G01X-2542790Y289800D02*
Y349800D01*
X-2525850D01*
X-2520430Y346800D01*
X-2517050Y342800D01*
X-2515690Y334800D01*
X-2517050Y326800D01*
X-2521110Y321800D01*
X-2525850Y318800D01*
X-2542790D01*
G01X-2525850D02*
X-2515690Y289800D01*
G01X-2481490Y349800D02*
X-2465230D01*
G01X-2473360D02*
Y289800D01*
G01X-2481490D02*
X-2465230D01*
G01X-2402580Y344800D02*
X-2406640Y347800D01*
X-2411380Y349800D01*
X-2416800D01*
X-2422900Y346800D01*
X-2427640Y341800D01*
X-2431030Y335800D01*
X-2433740Y325800D01*
X-2434410Y316800D01*
X-2433060Y307800D01*
X-2431030Y301800D01*
X-2426960Y295800D01*
X-2422220Y291800D01*
X-2417480Y289800D01*
X-2412740D01*
X-2408000Y291800D01*
X-2403930Y294800D01*
X-2400550Y298800D01*
G01X-2314530Y309800D02*
X-2296910D01*
G01X-2206830Y289800D02*
Y349800D01*
X-2181090D01*
G01X-2190570Y320800D02*
X-2206830D01*
G01X-2151630Y289800D02*
Y349800D01*
X-2134690D01*
X-2129270Y346800D01*
X-2125890Y342800D01*
X-2124530Y334800D01*
X-2125890Y326800D01*
X-2129950Y321800D01*
X-2134690Y318800D01*
X-2151630D01*
G01X-2134690D02*
X-2124530Y289800D01*
G01X-2091010Y309800D02*
X-2073390D01*
G01X-2018190Y289800D02*
Y349800D01*
X-2043250Y306800D01*
X-2009390D01*
G01X-1914560Y349800D02*
X-1919980Y347800D01*
X-1924040Y342800D01*
X-1926750Y336800D01*
X-1928780Y328800D01*
X-1929460Y319800D01*
X-1928780Y310800D01*
X-1926750Y302800D01*
X-1924040Y296800D01*
X-1919980Y291800D01*
X-1914560Y289800D01*
X-1909140Y291800D01*
X-1905080Y296800D01*
X-1902370Y302800D01*
X-1900340Y310800D01*
X-1899660Y319800D01*
X-1900340Y328800D01*
X-1902370Y336800D01*
X-1905080Y342800D01*
X-1909140Y347800D01*
X-1914560Y349800D01*
G01X-1858680Y287800D02*
X-1860030Y288800D01*
Y290800D01*
X-1858680Y291800D01*
X-1857330Y290800D01*
Y288800D01*
X-1858680Y287800D01*
G01X-1794670Y289800D02*
Y349800D01*
X-1819730Y306800D01*
X-1785870D01*
G01X-1759790Y314800D02*
X-1755050Y321800D01*
X-1750980Y325800D01*
X-1745570Y327800D01*
X-1740820Y325800D01*
X-1737440Y321800D01*
X-1734730Y315800D01*
X-1734050Y308800D01*
X-1734730Y302800D01*
X-1737440Y296800D01*
X-1741500Y291800D01*
X-1746240Y289800D01*
X-1751660Y291800D01*
X-1756400Y297800D01*
X-1759110Y306800D01*
X-1759790Y316800D01*
X-1758440Y329800D01*
X-1756400Y336800D01*
X-1753020Y343800D01*
X-1748270Y348800D01*
X-1743530Y349800D01*
X-1738790Y347800D01*
X-1735400Y342800D01*
G01X-1705940Y301800D02*
X-1701880Y294800D01*
X-1696460Y290800D01*
X-1690360Y289800D01*
X-1684940Y290800D01*
X-1679520Y295800D01*
X-1676140Y301800D01*
X-1675460Y307800D01*
X-1676820Y314800D01*
X-1681560Y319800D01*
X-1686300Y321800D01*
X-1692390D01*
G01X-1686300D02*
X-1682230Y324800D01*
X-1678850Y329800D01*
X-1677490Y335800D01*
X-1678850Y341800D01*
X-1682230Y346800D01*
X-1688330Y349800D01*
X-1694430Y348800D01*
X-1700520Y344800D01*
G01X-1596890Y289800D02*
Y349800D01*
X-1579280Y299800D01*
X-1561670Y349800D01*
Y289800D01*
G01X-1541010D02*
Y349800D01*
X-1523400Y299800D01*
X-1505790Y349800D01*
Y289800D01*
G01X-3213350Y1122600D02*
Y1062600D01*
X-3186250D01*
G01X-3158820Y1074600D02*
X-3154760Y1067600D01*
X-3149340Y1063600D01*
X-3143240Y1062600D01*
X-3137820Y1063600D01*
X-3132400Y1068600D01*
X-3129020Y1074600D01*
X-3128340Y1080600D01*
X-3129700Y1087600D01*
X-3134440Y1092600D01*
X-3139180Y1094600D01*
X-3145270D01*
G01X-3139180D02*
X-3135110Y1097600D01*
X-3131730Y1102600D01*
X-3130370Y1108600D01*
X-3131730Y1114600D01*
X-3135110Y1119600D01*
X-3141210Y1122600D01*
X-3147310Y1121600D01*
X-3153400Y1117600D01*
G01X-3088040Y1060600D02*
X-3089390Y1061600D01*
Y1063600D01*
X-3088040Y1064600D01*
X-3086690Y1063600D01*
Y1061600D01*
X-3088040Y1060600D01*
G01Y1087600D02*
X-3089390Y1088600D01*
Y1090600D01*
X-3088040Y1091600D01*
X-3086690Y1090600D01*
Y1088600D01*
X-3088040Y1087600D01*
G01X-2984410Y1122600D02*
X-2968150D01*
G01X-2976280D02*
Y1062600D01*
G01X-2984410D02*
X-2968150D01*
G01X-2935980D02*
Y1122600D01*
X-2904820Y1062600D01*
Y1122600D01*
G01X-2880100Y1062600D02*
Y1122600D01*
X-2848940Y1062600D01*
Y1122600D01*
G01X-2795090Y1062600D02*
X-2822190D01*
Y1122600D01*
X-2795090D01*
G01X-2805930Y1093600D02*
X-2822190D01*
G01X-2766310Y1062600D02*
Y1122600D01*
X-2749370D01*
X-2743950Y1119600D01*
X-2740570Y1115600D01*
X-2739210Y1107600D01*
X-2740570Y1099600D01*
X-2744630Y1094600D01*
X-2749370Y1091600D01*
X-2766310D01*
G01X-2749370D02*
X-2739210Y1062600D01*
G01X-2709750Y1112600D02*
X-2705690Y1118600D01*
X-2700940Y1121600D01*
X-2695530Y1122600D01*
X-2688750Y1120600D01*
X-2684010Y1115600D01*
X-2682660Y1109600D01*
X-2683330Y1103600D01*
X-2686040Y1098600D01*
X-2699590Y1088600D01*
X-2705690Y1081600D01*
X-2709750Y1071600D01*
X-2711100Y1062600D01*
X-2682660D01*
G01X-2570220Y1117600D02*
X-2574280Y1120600D01*
X-2579020Y1122600D01*
X-2584440D01*
X-2590540Y1119600D01*
X-2595280Y1114600D01*
X-2598670Y1108600D01*
X-2601380Y1098600D01*
X-2602050Y1089600D01*
X-2600700Y1080600D01*
X-2598670Y1074600D01*
X-2594600Y1068600D01*
X-2589860Y1064600D01*
X-2585120Y1062600D01*
X-2580380D01*
X-2575640Y1064600D01*
X-2571570Y1067600D01*
X-2568190Y1071600D01*
G01X-2529240Y1062600D02*
X-2534660Y1063600D01*
X-2539400Y1067600D01*
X-2543460Y1073600D01*
X-2546170Y1080600D01*
X-2547530Y1088600D01*
Y1096600D01*
X-2546170Y1104600D01*
X-2543460Y1111600D01*
X-2539400Y1117600D01*
X-2534660Y1121600D01*
X-2529240Y1122600D01*
X-2523820Y1121600D01*
X-2519080Y1117600D01*
X-2515020Y1111600D01*
X-2512310Y1104600D01*
X-2510950Y1096600D01*
Y1088600D01*
X-2512310Y1080600D01*
X-2515020Y1073600D01*
X-2519080Y1067600D01*
X-2523820Y1063600D01*
X-2529240Y1062600D01*
G01X-2488940D02*
Y1122600D01*
X-2457780Y1062600D01*
Y1122600D01*
G01X-2432380Y1062600D02*
Y1122600D01*
X-2418830D01*
X-2413420Y1119600D01*
X-2409350Y1115600D01*
X-2405960Y1109600D01*
X-2403260Y1102600D01*
X-2402580Y1092600D01*
X-2403260Y1082600D01*
X-2405960Y1075600D01*
X-2409350Y1069600D01*
X-2413420Y1065600D01*
X-2418830Y1062600D01*
X-2432380D01*
G01X-2376500Y1122600D02*
Y1079600D01*
X-2373790Y1070600D01*
X-2368370Y1064600D01*
X-2361600Y1062600D01*
X-2354830Y1064600D01*
X-2349410Y1070600D01*
X-2346700Y1079600D01*
Y1122600D01*
G01X-2290820Y1117600D02*
X-2294880Y1120600D01*
X-2299620Y1122600D01*
X-2305040D01*
X-2311140Y1119600D01*
X-2315880Y1114600D01*
X-2319270Y1108600D01*
X-2321980Y1098600D01*
X-2322650Y1089600D01*
X-2321300Y1080600D01*
X-2319270Y1074600D01*
X-2315200Y1068600D01*
X-2310460Y1064600D01*
X-2305720Y1062600D01*
X-2300980D01*
X-2296240Y1064600D01*
X-2292170Y1067600D01*
X-2288790Y1071600D01*
G01X-2249840Y1122600D02*
Y1062600D01*
G01X-2265420Y1122600D02*
X-2234260D01*
G01X-2193960Y1062600D02*
X-2199380Y1063600D01*
X-2204120Y1067600D01*
X-2208180Y1073600D01*
X-2210890Y1080600D01*
X-2212250Y1088600D01*
Y1096600D01*
X-2210890Y1104600D01*
X-2208180Y1111600D01*
X-2204120Y1117600D01*
X-2199380Y1121600D01*
X-2193960Y1122600D01*
X-2188540Y1121600D01*
X-2183800Y1117600D01*
X-2179740Y1111600D01*
X-2177030Y1104600D01*
X-2175670Y1096600D01*
Y1088600D01*
X-2177030Y1080600D01*
X-2179740Y1073600D01*
X-2183800Y1067600D01*
X-2188540Y1063600D01*
X-2193960Y1062600D01*
G01X-2151630D02*
Y1122600D01*
X-2134690D01*
X-2129270Y1119600D01*
X-2125890Y1115600D01*
X-2124530Y1107600D01*
X-2125890Y1099600D01*
X-2129950Y1094600D01*
X-2134690Y1091600D01*
X-2151630D01*
G01X-2134690D02*
X-2124530Y1062600D01*
G01X-2035130Y1082600D02*
X-2017510D01*
G01X-1899660Y1117600D02*
X-1903720Y1120600D01*
X-1908460Y1122600D01*
X-1913880D01*
X-1919980Y1119600D01*
X-1924720Y1114600D01*
X-1928110Y1108600D01*
X-1930820Y1098600D01*
X-1931490Y1089600D01*
X-1930140Y1080600D01*
X-1928110Y1074600D01*
X-1924040Y1068600D01*
X-1919300Y1064600D01*
X-1914560Y1062600D01*
X-1909820D01*
X-1905080Y1064600D01*
X-1901010Y1067600D01*
X-1897630Y1071600D01*
G01X-1858680Y1062600D02*
X-1864100Y1063600D01*
X-1868840Y1067600D01*
X-1872900Y1073600D01*
X-1875610Y1080600D01*
X-1876970Y1088600D01*
Y1096600D01*
X-1875610Y1104600D01*
X-1872900Y1111600D01*
X-1868840Y1117600D01*
X-1864100Y1121600D01*
X-1858680Y1122600D01*
X-1853260Y1121600D01*
X-1848520Y1117600D01*
X-1844460Y1111600D01*
X-1841750Y1104600D01*
X-1840390Y1096600D01*
Y1088600D01*
X-1841750Y1080600D01*
X-1844460Y1073600D01*
X-1848520Y1067600D01*
X-1853260Y1063600D01*
X-1858680Y1062600D01*
G01X-1816350D02*
Y1122600D01*
X-1800090D01*
X-1794670Y1119600D01*
X-1790610Y1112600D01*
X-1789250Y1104600D01*
X-1790610Y1096600D01*
X-1793990Y1090600D01*
X-1800090Y1087600D01*
X-1816350D01*
G01X-1760470Y1062600D02*
Y1122600D01*
X-1744210D01*
X-1738790Y1119600D01*
X-1734730Y1112600D01*
X-1733370Y1104600D01*
X-1734730Y1096600D01*
X-1738110Y1090600D01*
X-1744210Y1087600D01*
X-1760470D01*
G01X-1677490Y1062600D02*
X-1704590D01*
Y1122600D01*
X-1677490D01*
G01X-1688330Y1093600D02*
X-1704590D01*
G01X-1648710Y1062600D02*
Y1122600D01*
X-1631770D01*
X-1626350Y1119600D01*
X-1622970Y1115600D01*
X-1621610Y1107600D01*
X-1622970Y1099600D01*
X-1627030Y1094600D01*
X-1631770Y1091600D01*
X-1648710D01*
G01X-1631770D02*
X-1621610Y1062600D01*
G01X-1523400Y1122600D02*
X-1528820Y1120600D01*
X-1532880Y1115600D01*
X-1535590Y1109600D01*
X-1537620Y1101600D01*
X-1538300Y1092600D01*
X-1537620Y1083600D01*
X-1535590Y1075600D01*
X-1532880Y1069600D01*
X-1528820Y1064600D01*
X-1523400Y1062600D01*
X-1517980Y1064600D01*
X-1513920Y1069600D01*
X-1511210Y1075600D01*
X-1509180Y1083600D01*
X-1508500Y1092600D01*
X-1509180Y1101600D01*
X-1511210Y1109600D01*
X-1513920Y1115600D01*
X-1517980Y1120600D01*
X-1523400Y1122600D01*
G01X-1467520Y1060600D02*
X-1468870Y1061600D01*
Y1063600D01*
X-1467520Y1064600D01*
X-1466170Y1063600D01*
Y1061600D01*
X-1467520Y1060600D01*
G01X-1411640Y1122600D02*
X-1417060Y1120600D01*
X-1421120Y1115600D01*
X-1423830Y1109600D01*
X-1425860Y1101600D01*
X-1426540Y1092600D01*
X-1425860Y1083600D01*
X-1423830Y1075600D01*
X-1421120Y1069600D01*
X-1417060Y1064600D01*
X-1411640Y1062600D01*
X-1406220Y1064600D01*
X-1402160Y1069600D01*
X-1399450Y1075600D01*
X-1397420Y1083600D01*
X-1396740Y1092600D01*
X-1397420Y1101600D01*
X-1399450Y1109600D01*
X-1402160Y1115600D01*
X-1406220Y1120600D01*
X-1411640Y1122600D01*
G01X-1370660Y1074600D02*
X-1366600Y1067600D01*
X-1361180Y1063600D01*
X-1355080Y1062600D01*
X-1349660Y1063600D01*
X-1344240Y1068600D01*
X-1340860Y1074600D01*
X-1340180Y1080600D01*
X-1341540Y1087600D01*
X-1346280Y1092600D01*
X-1351020Y1094600D01*
X-1357110D01*
G01X-1351020D02*
X-1346950Y1097600D01*
X-1343570Y1102600D01*
X-1342210Y1108600D01*
X-1343570Y1114600D01*
X-1346950Y1119600D01*
X-1353050Y1122600D01*
X-1359150Y1121600D01*
X-1365240Y1117600D01*
G01X-1314780Y1071600D02*
X-1310720Y1066600D01*
X-1305980Y1063600D01*
X-1299880Y1062600D01*
X-1293780Y1064600D01*
X-1289040Y1068600D01*
X-1285660Y1075600D01*
X-1284980Y1083600D01*
X-1286330Y1091600D01*
X-1289720Y1096600D01*
X-1294460Y1100600D01*
X-1299200Y1101600D01*
X-1303940Y1100600D01*
X-1310040Y1096600D01*
X-1308010Y1122600D01*
X-1289720D01*
G01X-1205730Y1062600D02*
Y1122600D01*
X-1188120Y1072600D01*
X-1170510Y1122600D01*
Y1062600D01*
G01X-1149850D02*
Y1122600D01*
X-1132240Y1072600D01*
X-1114630Y1122600D01*
Y1062600D01*
G01X-3102940Y1881400D02*
X-3073140Y1925400D01*
G01X-3088040Y1933400D02*
Y1873400D01*
G01X-3073140Y1881400D02*
X-3102940Y1925400D01*
G01X-3108360Y1903400D02*
X-3067720D01*
G01X-2935300Y1883400D02*
Y1943400D01*
X-2921750D01*
X-2916340Y1940400D01*
X-2912270Y1936400D01*
X-2908880Y1930400D01*
X-2906180Y1923400D01*
X-2905500Y1913400D01*
X-2906180Y1903400D01*
X-2908880Y1896400D01*
X-2912270Y1890400D01*
X-2916340Y1886400D01*
X-2921750Y1883400D01*
X-2935300D01*
G01X-2872650Y1943400D02*
X-2856390D01*
G01X-2864520D02*
Y1883400D01*
G01X-2872650D02*
X-2856390D01*
G01X-2795090D02*
X-2822190D01*
Y1943400D01*
X-2795090D01*
G01X-2805930Y1914400D02*
X-2822190D01*
G01X-2766310Y1943400D02*
Y1883400D01*
X-2739210D01*
G01X-2683330D02*
X-2710430D01*
Y1943400D01*
X-2683330D01*
G01X-2694170Y1914400D02*
X-2710430D01*
G01X-2626100Y1938400D02*
X-2630160Y1941400D01*
X-2634900Y1943400D01*
X-2640320D01*
X-2646420Y1940400D01*
X-2651160Y1935400D01*
X-2654550Y1929400D01*
X-2657260Y1919400D01*
X-2657930Y1910400D01*
X-2656580Y1901400D01*
X-2654550Y1895400D01*
X-2650480Y1889400D01*
X-2645740Y1885400D01*
X-2641000Y1883400D01*
X-2636260D01*
X-2631520Y1885400D01*
X-2627450Y1888400D01*
X-2624070Y1892400D01*
G01X-2585120Y1943400D02*
Y1883400D01*
G01X-2600700Y1943400D02*
X-2569540D01*
G01X-2542790Y1883400D02*
Y1943400D01*
X-2525850D01*
X-2520430Y1940400D01*
X-2517050Y1936400D01*
X-2515690Y1928400D01*
X-2517050Y1920400D01*
X-2521110Y1915400D01*
X-2525850Y1912400D01*
X-2542790D01*
G01X-2525850D02*
X-2515690Y1883400D01*
G01X-2481490Y1943400D02*
X-2465230D01*
G01X-2473360D02*
Y1883400D01*
G01X-2481490D02*
X-2465230D01*
G01X-2402580Y1938400D02*
X-2406640Y1941400D01*
X-2411380Y1943400D01*
X-2416800D01*
X-2422900Y1940400D01*
X-2427640Y1935400D01*
X-2431030Y1929400D01*
X-2433740Y1919400D01*
X-2434410Y1910400D01*
X-2433060Y1901400D01*
X-2431030Y1895400D01*
X-2426960Y1889400D01*
X-2422220Y1885400D01*
X-2417480Y1883400D01*
X-2412740D01*
X-2408000Y1885400D01*
X-2403930Y1888400D01*
X-2400550Y1892400D01*
G01X-2314530Y1903400D02*
X-2296910D01*
G01X-2206830Y1883400D02*
Y1943400D01*
X-2181090D01*
G01X-2190570Y1914400D02*
X-2206830D01*
G01X-2151630Y1883400D02*
Y1943400D01*
X-2134690D01*
X-2129270Y1940400D01*
X-2125890Y1936400D01*
X-2124530Y1928400D01*
X-2125890Y1920400D01*
X-2129950Y1915400D01*
X-2134690Y1912400D01*
X-2151630D01*
G01X-2134690D02*
X-2124530Y1883400D01*
G01X-2091010Y1903400D02*
X-2073390D01*
G01X-2018190Y1883400D02*
Y1943400D01*
X-2043250Y1900400D01*
X-2009390D01*
G01X-1914560Y1943400D02*
X-1919980Y1941400D01*
X-1924040Y1936400D01*
X-1926750Y1930400D01*
X-1928780Y1922400D01*
X-1929460Y1913400D01*
X-1928780Y1904400D01*
X-1926750Y1896400D01*
X-1924040Y1890400D01*
X-1919980Y1885400D01*
X-1914560Y1883400D01*
X-1909140Y1885400D01*
X-1905080Y1890400D01*
X-1902370Y1896400D01*
X-1900340Y1904400D01*
X-1899660Y1913400D01*
X-1900340Y1922400D01*
X-1902370Y1930400D01*
X-1905080Y1936400D01*
X-1909140Y1941400D01*
X-1914560Y1943400D01*
G01X-1858680Y1881400D02*
X-1860030Y1882400D01*
Y1884400D01*
X-1858680Y1885400D01*
X-1857330Y1884400D01*
Y1882400D01*
X-1858680Y1881400D01*
G01X-1794670Y1883400D02*
Y1943400D01*
X-1819730Y1900400D01*
X-1785870D01*
G01X-1759790Y1908400D02*
X-1755050Y1915400D01*
X-1750980Y1919400D01*
X-1745570Y1921400D01*
X-1740820Y1919400D01*
X-1737440Y1915400D01*
X-1734730Y1909400D01*
X-1734050Y1902400D01*
X-1734730Y1896400D01*
X-1737440Y1890400D01*
X-1741500Y1885400D01*
X-1746240Y1883400D01*
X-1751660Y1885400D01*
X-1756400Y1891400D01*
X-1759110Y1900400D01*
X-1759790Y1910400D01*
X-1758440Y1923400D01*
X-1756400Y1930400D01*
X-1753020Y1937400D01*
X-1748270Y1942400D01*
X-1743530Y1943400D01*
X-1738790Y1941400D01*
X-1735400Y1936400D01*
G01X-1705940Y1895400D02*
X-1701880Y1888400D01*
X-1696460Y1884400D01*
X-1690360Y1883400D01*
X-1684940Y1884400D01*
X-1679520Y1889400D01*
X-1676140Y1895400D01*
X-1675460Y1901400D01*
X-1676820Y1908400D01*
X-1681560Y1913400D01*
X-1686300Y1915400D01*
X-1692390D01*
G01X-1686300D02*
X-1682230Y1918400D01*
X-1678850Y1923400D01*
X-1677490Y1929400D01*
X-1678850Y1935400D01*
X-1682230Y1940400D01*
X-1688330Y1943400D01*
X-1694430Y1942400D01*
X-1700520Y1938400D01*
G01X-1596890Y1883400D02*
Y1943400D01*
X-1579280Y1893400D01*
X-1561670Y1943400D01*
Y1883400D01*
G01X-1541010D02*
Y1943400D01*
X-1523400Y1893400D01*
X-1505790Y1943400D01*
Y1883400D01*
G01X-3213350Y2716200D02*
Y2656200D01*
X-3186250D01*
G01X-3156790Y2706200D02*
X-3152730Y2712200D01*
X-3147980Y2715200D01*
X-3142570Y2716200D01*
X-3135790Y2714200D01*
X-3131050Y2709200D01*
X-3129700Y2703200D01*
X-3130370Y2697200D01*
X-3133080Y2692200D01*
X-3146630Y2682200D01*
X-3152730Y2675200D01*
X-3156790Y2665200D01*
X-3158140Y2656200D01*
X-3129700D01*
G01X-3088040Y2654200D02*
X-3089390Y2655200D01*
Y2657200D01*
X-3088040Y2658200D01*
X-3086690Y2657200D01*
Y2655200D01*
X-3088040Y2654200D01*
G01Y2681200D02*
X-3089390Y2682200D01*
Y2684200D01*
X-3088040Y2685200D01*
X-3086690Y2684200D01*
Y2682200D01*
X-3088040Y2681200D01*
G01X-2984410Y2716200D02*
X-2968150D01*
G01X-2976280D02*
Y2656200D01*
G01X-2984410D02*
X-2968150D01*
G01X-2935980D02*
Y2716200D01*
X-2904820Y2656200D01*
Y2716200D01*
G01X-2880100Y2656200D02*
Y2716200D01*
X-2848940Y2656200D01*
Y2716200D01*
G01X-2795090Y2656200D02*
X-2822190D01*
Y2716200D01*
X-2795090D01*
G01X-2805930Y2687200D02*
X-2822190D01*
G01X-2766310Y2656200D02*
Y2716200D01*
X-2749370D01*
X-2743950Y2713200D01*
X-2740570Y2709200D01*
X-2739210Y2701200D01*
X-2740570Y2693200D01*
X-2744630Y2688200D01*
X-2749370Y2685200D01*
X-2766310D01*
G01X-2749370D02*
X-2739210Y2656200D01*
G01X-2696880D02*
Y2716200D01*
X-2705010Y2704200D01*
G01Y2656200D02*
X-2688750D01*
G01X-2570220Y2711200D02*
X-2574280Y2714200D01*
X-2579020Y2716200D01*
X-2584440D01*
X-2590540Y2713200D01*
X-2595280Y2708200D01*
X-2598670Y2702200D01*
X-2601380Y2692200D01*
X-2602050Y2683200D01*
X-2600700Y2674200D01*
X-2598670Y2668200D01*
X-2594600Y2662200D01*
X-2589860Y2658200D01*
X-2585120Y2656200D01*
X-2580380D01*
X-2575640Y2658200D01*
X-2571570Y2661200D01*
X-2568190Y2665200D01*
G01X-2529240Y2656200D02*
X-2534660Y2657200D01*
X-2539400Y2661200D01*
X-2543460Y2667200D01*
X-2546170Y2674200D01*
X-2547530Y2682200D01*
Y2690200D01*
X-2546170Y2698200D01*
X-2543460Y2705200D01*
X-2539400Y2711200D01*
X-2534660Y2715200D01*
X-2529240Y2716200D01*
X-2523820Y2715200D01*
X-2519080Y2711200D01*
X-2515020Y2705200D01*
X-2512310Y2698200D01*
X-2510950Y2690200D01*
Y2682200D01*
X-2512310Y2674200D01*
X-2515020Y2667200D01*
X-2519080Y2661200D01*
X-2523820Y2657200D01*
X-2529240Y2656200D01*
G01X-2488940D02*
Y2716200D01*
X-2457780Y2656200D01*
Y2716200D01*
G01X-2432380Y2656200D02*
Y2716200D01*
X-2418830D01*
X-2413420Y2713200D01*
X-2409350Y2709200D01*
X-2405960Y2703200D01*
X-2403260Y2696200D01*
X-2402580Y2686200D01*
X-2403260Y2676200D01*
X-2405960Y2669200D01*
X-2409350Y2663200D01*
X-2413420Y2659200D01*
X-2418830Y2656200D01*
X-2432380D01*
G01X-2376500Y2716200D02*
Y2673200D01*
X-2373790Y2664200D01*
X-2368370Y2658200D01*
X-2361600Y2656200D01*
X-2354830Y2658200D01*
X-2349410Y2664200D01*
X-2346700Y2673200D01*
Y2716200D01*
G01X-2290820Y2711200D02*
X-2294880Y2714200D01*
X-2299620Y2716200D01*
X-2305040D01*
X-2311140Y2713200D01*
X-2315880Y2708200D01*
X-2319270Y2702200D01*
X-2321980Y2692200D01*
X-2322650Y2683200D01*
X-2321300Y2674200D01*
X-2319270Y2668200D01*
X-2315200Y2662200D01*
X-2310460Y2658200D01*
X-2305720Y2656200D01*
X-2300980D01*
X-2296240Y2658200D01*
X-2292170Y2661200D01*
X-2288790Y2665200D01*
G01X-2249840Y2716200D02*
Y2656200D01*
G01X-2265420Y2716200D02*
X-2234260D01*
G01X-2193960Y2656200D02*
X-2199380Y2657200D01*
X-2204120Y2661200D01*
X-2208180Y2667200D01*
X-2210890Y2674200D01*
X-2212250Y2682200D01*
Y2690200D01*
X-2210890Y2698200D01*
X-2208180Y2705200D01*
X-2204120Y2711200D01*
X-2199380Y2715200D01*
X-2193960Y2716200D01*
X-2188540Y2715200D01*
X-2183800Y2711200D01*
X-2179740Y2705200D01*
X-2177030Y2698200D01*
X-2175670Y2690200D01*
Y2682200D01*
X-2177030Y2674200D01*
X-2179740Y2667200D01*
X-2183800Y2661200D01*
X-2188540Y2657200D01*
X-2193960Y2656200D01*
G01X-2151630D02*
Y2716200D01*
X-2134690D01*
X-2129270Y2713200D01*
X-2125890Y2709200D01*
X-2124530Y2701200D01*
X-2125890Y2693200D01*
X-2129950Y2688200D01*
X-2134690Y2685200D01*
X-2151630D01*
G01X-2134690D02*
X-2124530Y2656200D01*
G01X-2035130Y2676200D02*
X-2017510D01*
G01X-1899660Y2711200D02*
X-1903720Y2714200D01*
X-1908460Y2716200D01*
X-1913880D01*
X-1919980Y2713200D01*
X-1924720Y2708200D01*
X-1928110Y2702200D01*
X-1930820Y2692200D01*
X-1931490Y2683200D01*
X-1930140Y2674200D01*
X-1928110Y2668200D01*
X-1924040Y2662200D01*
X-1919300Y2658200D01*
X-1914560Y2656200D01*
X-1909820D01*
X-1905080Y2658200D01*
X-1901010Y2661200D01*
X-1897630Y2665200D01*
G01X-1858680Y2656200D02*
X-1864100Y2657200D01*
X-1868840Y2661200D01*
X-1872900Y2667200D01*
X-1875610Y2674200D01*
X-1876970Y2682200D01*
Y2690200D01*
X-1875610Y2698200D01*
X-1872900Y2705200D01*
X-1868840Y2711200D01*
X-1864100Y2715200D01*
X-1858680Y2716200D01*
X-1853260Y2715200D01*
X-1848520Y2711200D01*
X-1844460Y2705200D01*
X-1841750Y2698200D01*
X-1840390Y2690200D01*
Y2682200D01*
X-1841750Y2674200D01*
X-1844460Y2667200D01*
X-1848520Y2661200D01*
X-1853260Y2657200D01*
X-1858680Y2656200D01*
G01X-1816350D02*
Y2716200D01*
X-1800090D01*
X-1794670Y2713200D01*
X-1790610Y2706200D01*
X-1789250Y2698200D01*
X-1790610Y2690200D01*
X-1793990Y2684200D01*
X-1800090Y2681200D01*
X-1816350D01*
G01X-1760470Y2656200D02*
Y2716200D01*
X-1744210D01*
X-1738790Y2713200D01*
X-1734730Y2706200D01*
X-1733370Y2698200D01*
X-1734730Y2690200D01*
X-1738110Y2684200D01*
X-1744210Y2681200D01*
X-1760470D01*
G01X-1677490Y2656200D02*
X-1704590D01*
Y2716200D01*
X-1677490D01*
G01X-1688330Y2687200D02*
X-1704590D01*
G01X-1648710Y2656200D02*
Y2716200D01*
X-1631770D01*
X-1626350Y2713200D01*
X-1622970Y2709200D01*
X-1621610Y2701200D01*
X-1622970Y2693200D01*
X-1627030Y2688200D01*
X-1631770Y2685200D01*
X-1648710D01*
G01X-1631770D02*
X-1621610Y2656200D01*
G01X-1523400Y2716200D02*
X-1528820Y2714200D01*
X-1532880Y2709200D01*
X-1535590Y2703200D01*
X-1537620Y2695200D01*
X-1538300Y2686200D01*
X-1537620Y2677200D01*
X-1535590Y2669200D01*
X-1532880Y2663200D01*
X-1528820Y2658200D01*
X-1523400Y2656200D01*
X-1517980Y2658200D01*
X-1513920Y2663200D01*
X-1511210Y2669200D01*
X-1509180Y2677200D01*
X-1508500Y2686200D01*
X-1509180Y2695200D01*
X-1511210Y2703200D01*
X-1513920Y2709200D01*
X-1517980Y2714200D01*
X-1523400Y2716200D01*
G01X-1467520Y2654200D02*
X-1468870Y2655200D01*
Y2657200D01*
X-1467520Y2658200D01*
X-1466170Y2657200D01*
Y2655200D01*
X-1467520Y2654200D01*
G01X-1411640Y2716200D02*
X-1417060Y2714200D01*
X-1421120Y2709200D01*
X-1423830Y2703200D01*
X-1425860Y2695200D01*
X-1426540Y2686200D01*
X-1425860Y2677200D01*
X-1423830Y2669200D01*
X-1421120Y2663200D01*
X-1417060Y2658200D01*
X-1411640Y2656200D01*
X-1406220Y2658200D01*
X-1402160Y2663200D01*
X-1399450Y2669200D01*
X-1397420Y2677200D01*
X-1396740Y2686200D01*
X-1397420Y2695200D01*
X-1399450Y2703200D01*
X-1402160Y2709200D01*
X-1406220Y2714200D01*
X-1411640Y2716200D01*
G01X-1370660Y2668200D02*
X-1366600Y2661200D01*
X-1361180Y2657200D01*
X-1355080Y2656200D01*
X-1349660Y2657200D01*
X-1344240Y2662200D01*
X-1340860Y2668200D01*
X-1340180Y2674200D01*
X-1341540Y2681200D01*
X-1346280Y2686200D01*
X-1351020Y2688200D01*
X-1357110D01*
G01X-1351020D02*
X-1346950Y2691200D01*
X-1343570Y2696200D01*
X-1342210Y2702200D01*
X-1343570Y2708200D01*
X-1346950Y2713200D01*
X-1353050Y2716200D01*
X-1359150Y2715200D01*
X-1365240Y2711200D01*
G01X-1314780Y2665200D02*
X-1310720Y2660200D01*
X-1305980Y2657200D01*
X-1299880Y2656200D01*
X-1293780Y2658200D01*
X-1289040Y2662200D01*
X-1285660Y2669200D01*
X-1284980Y2677200D01*
X-1286330Y2685200D01*
X-1289720Y2690200D01*
X-1294460Y2694200D01*
X-1299200Y2695200D01*
X-1303940Y2694200D01*
X-1310040Y2690200D01*
X-1308010Y2716200D01*
X-1289720D01*
G01X-1205730Y2656200D02*
Y2716200D01*
X-1188120Y2666200D01*
X-1170510Y2716200D01*
Y2656200D01*
G01X-1149850D02*
Y2716200D01*
X-1132240Y2666200D01*
X-1114630Y2716200D01*
Y2656200D01*
G01X-3102940Y3475000D02*
X-3073140Y3519000D01*
G01X-3088040Y3527000D02*
Y3467000D01*
G01X-3073140Y3475000D02*
X-3102940Y3519000D01*
G01X-3108360Y3497000D02*
X-3067720D01*
G01X-2935300Y3477000D02*
Y3537000D01*
X-2921750D01*
X-2916340Y3534000D01*
X-2912270Y3530000D01*
X-2908880Y3524000D01*
X-2906180Y3517000D01*
X-2905500Y3507000D01*
X-2906180Y3497000D01*
X-2908880Y3490000D01*
X-2912270Y3484000D01*
X-2916340Y3480000D01*
X-2921750Y3477000D01*
X-2935300D01*
G01X-2872650Y3537000D02*
X-2856390D01*
G01X-2864520D02*
Y3477000D01*
G01X-2872650D02*
X-2856390D01*
G01X-2795090D02*
X-2822190D01*
Y3537000D01*
X-2795090D01*
G01X-2805930Y3508000D02*
X-2822190D01*
G01X-2766310Y3537000D02*
Y3477000D01*
X-2739210D01*
G01X-2683330D02*
X-2710430D01*
Y3537000D01*
X-2683330D01*
G01X-2694170Y3508000D02*
X-2710430D01*
G01X-2626100Y3532000D02*
X-2630160Y3535000D01*
X-2634900Y3537000D01*
X-2640320D01*
X-2646420Y3534000D01*
X-2651160Y3529000D01*
X-2654550Y3523000D01*
X-2657260Y3513000D01*
X-2657930Y3504000D01*
X-2656580Y3495000D01*
X-2654550Y3489000D01*
X-2650480Y3483000D01*
X-2645740Y3479000D01*
X-2641000Y3477000D01*
X-2636260D01*
X-2631520Y3479000D01*
X-2627450Y3482000D01*
X-2624070Y3486000D01*
G01X-2585120Y3537000D02*
Y3477000D01*
G01X-2600700Y3537000D02*
X-2569540D01*
G01X-2542790Y3477000D02*
Y3537000D01*
X-2525850D01*
X-2520430Y3534000D01*
X-2517050Y3530000D01*
X-2515690Y3522000D01*
X-2517050Y3514000D01*
X-2521110Y3509000D01*
X-2525850Y3506000D01*
X-2542790D01*
G01X-2525850D02*
X-2515690Y3477000D01*
G01X-2481490Y3537000D02*
X-2465230D01*
G01X-2473360D02*
Y3477000D01*
G01X-2481490D02*
X-2465230D01*
G01X-2402580Y3532000D02*
X-2406640Y3535000D01*
X-2411380Y3537000D01*
X-2416800D01*
X-2422900Y3534000D01*
X-2427640Y3529000D01*
X-2431030Y3523000D01*
X-2433740Y3513000D01*
X-2434410Y3504000D01*
X-2433060Y3495000D01*
X-2431030Y3489000D01*
X-2426960Y3483000D01*
X-2422220Y3479000D01*
X-2417480Y3477000D01*
X-2412740D01*
X-2408000Y3479000D01*
X-2403930Y3482000D01*
X-2400550Y3486000D01*
G01X-2314530Y3497000D02*
X-2296910D01*
G01X-2206830Y3477000D02*
Y3537000D01*
X-2181090D01*
G01X-2190570Y3508000D02*
X-2206830D01*
G01X-2151630Y3477000D02*
Y3537000D01*
X-2134690D01*
X-2129270Y3534000D01*
X-2125890Y3530000D01*
X-2124530Y3522000D01*
X-2125890Y3514000D01*
X-2129950Y3509000D01*
X-2134690Y3506000D01*
X-2151630D01*
G01X-2134690D02*
X-2124530Y3477000D01*
G01X-2091010Y3497000D02*
X-2073390D01*
G01X-2018190Y3477000D02*
Y3537000D01*
X-2043250Y3494000D01*
X-2009390D01*
G01X-1914560Y3537000D02*
X-1919980Y3535000D01*
X-1924040Y3530000D01*
X-1926750Y3524000D01*
X-1928780Y3516000D01*
X-1929460Y3507000D01*
X-1928780Y3498000D01*
X-1926750Y3490000D01*
X-1924040Y3484000D01*
X-1919980Y3479000D01*
X-1914560Y3477000D01*
X-1909140Y3479000D01*
X-1905080Y3484000D01*
X-1902370Y3490000D01*
X-1900340Y3498000D01*
X-1899660Y3507000D01*
X-1900340Y3516000D01*
X-1902370Y3524000D01*
X-1905080Y3530000D01*
X-1909140Y3535000D01*
X-1914560Y3537000D01*
G01X-1858680Y3475000D02*
X-1860030Y3476000D01*
Y3478000D01*
X-1858680Y3479000D01*
X-1857330Y3478000D01*
Y3476000D01*
X-1858680Y3475000D01*
G01X-1794670Y3477000D02*
Y3537000D01*
X-1819730Y3494000D01*
X-1785870D01*
G01X-1759790Y3502000D02*
X-1755050Y3509000D01*
X-1750980Y3513000D01*
X-1745570Y3515000D01*
X-1740820Y3513000D01*
X-1737440Y3509000D01*
X-1734730Y3503000D01*
X-1734050Y3496000D01*
X-1734730Y3490000D01*
X-1737440Y3484000D01*
X-1741500Y3479000D01*
X-1746240Y3477000D01*
X-1751660Y3479000D01*
X-1756400Y3485000D01*
X-1759110Y3494000D01*
X-1759790Y3504000D01*
X-1758440Y3517000D01*
X-1756400Y3524000D01*
X-1753020Y3531000D01*
X-1748270Y3536000D01*
X-1743530Y3537000D01*
X-1738790Y3535000D01*
X-1735400Y3530000D01*
G01X-1705940Y3489000D02*
X-1701880Y3482000D01*
X-1696460Y3478000D01*
X-1690360Y3477000D01*
X-1684940Y3478000D01*
X-1679520Y3483000D01*
X-1676140Y3489000D01*
X-1675460Y3495000D01*
X-1676820Y3502000D01*
X-1681560Y3507000D01*
X-1686300Y3509000D01*
X-1692390D01*
G01X-1686300D02*
X-1682230Y3512000D01*
X-1678850Y3517000D01*
X-1677490Y3523000D01*
X-1678850Y3529000D01*
X-1682230Y3534000D01*
X-1688330Y3537000D01*
X-1694430Y3536000D01*
X-1700520Y3532000D01*
G01X-1596890Y3477000D02*
Y3537000D01*
X-1579280Y3487000D01*
X-1561670Y3537000D01*
Y3477000D01*
G01X-1541010D02*
Y3537000D01*
X-1523400Y3487000D01*
X-1505790Y3537000D01*
Y3477000D01*
G01X-3102940Y4459800D02*
X-3073140Y4503800D01*
G01X-3088040Y4511800D02*
Y4451800D01*
G01X-3073140Y4459800D02*
X-3102940Y4503800D01*
G01X-3108360Y4481800D02*
X-3067720D01*
G01X-2934620Y4469800D02*
X-2929210Y4464800D01*
X-2923110Y4461800D01*
X-2917690D01*
X-2912270Y4464800D01*
X-2908210Y4469800D01*
X-2906180Y4476800D01*
X-2907530Y4483800D01*
X-2910920Y4489800D01*
X-2917010Y4493800D01*
X-2925140Y4495800D01*
X-2929880Y4499800D01*
X-2931920Y4506800D01*
X-2930560Y4513800D01*
X-2927170Y4518800D01*
X-2922430Y4521800D01*
X-2917690D01*
X-2912950Y4519800D01*
X-2908880Y4514800D01*
G01X-2879420Y4521800D02*
Y4478800D01*
X-2876710Y4469800D01*
X-2871290Y4463800D01*
X-2864520Y4461800D01*
X-2857750Y4463800D01*
X-2852330Y4469800D01*
X-2849620Y4478800D01*
Y4521800D01*
G01X-2822190Y4461800D02*
Y4521800D01*
X-2805250D01*
X-2799830Y4518800D01*
X-2796450Y4514800D01*
X-2795090Y4506800D01*
X-2796450Y4498800D01*
X-2800510Y4493800D01*
X-2805250Y4490800D01*
X-2822190D01*
G01X-2805250D02*
X-2795090Y4461800D01*
G01X-2765630D02*
Y4521800D01*
X-2739890D01*
G01X-2749370Y4492800D02*
X-2765630D01*
G01X-2713810Y4461800D02*
X-2696880Y4521800D01*
X-2679950Y4461800D01*
G01X-2686040Y4482800D02*
X-2707720D01*
G01X-2626100Y4516800D02*
X-2630160Y4519800D01*
X-2634900Y4521800D01*
X-2640320D01*
X-2646420Y4518800D01*
X-2651160Y4513800D01*
X-2654550Y4507800D01*
X-2657260Y4497800D01*
X-2657930Y4488800D01*
X-2656580Y4479800D01*
X-2654550Y4473800D01*
X-2650480Y4467800D01*
X-2645740Y4463800D01*
X-2641000Y4461800D01*
X-2636260D01*
X-2631520Y4463800D01*
X-2627450Y4466800D01*
X-2624070Y4470800D01*
G01X-2571570Y4461800D02*
X-2598670D01*
Y4521800D01*
X-2571570D01*
G01X-2582410Y4492800D02*
X-2598670D01*
G01X-2482170Y4481800D02*
X-2464550D01*
G01X-2378530Y4461800D02*
X-2361600Y4521800D01*
X-2344670Y4461800D01*
G01X-2350760Y4482800D02*
X-2372440D01*
G01X-2313850Y4521800D02*
X-2297590D01*
G01X-2305720D02*
Y4461800D01*
G01X-2313850D02*
X-2297590D01*
G01X-2263390D02*
Y4521800D01*
X-2246450D01*
X-2241030Y4518800D01*
X-2237650Y4514800D01*
X-2236290Y4506800D01*
X-2237650Y4498800D01*
X-2241710Y4493800D01*
X-2246450Y4490800D01*
X-2263390D01*
G01X-2246450D02*
X-2236290Y4461800D01*
G01X-2138080Y4521800D02*
X-2143500Y4519800D01*
X-2147560Y4514800D01*
X-2150270Y4508800D01*
X-2152300Y4500800D01*
X-2152980Y4491800D01*
X-2152300Y4482800D01*
X-2150270Y4474800D01*
X-2147560Y4468800D01*
X-2143500Y4463800D01*
X-2138080Y4461800D01*
X-2132660Y4463800D01*
X-2128600Y4468800D01*
X-2125890Y4474800D01*
X-2123860Y4482800D01*
X-2123180Y4491800D01*
X-2123860Y4500800D01*
X-2125890Y4508800D01*
X-2128600Y4514800D01*
X-2132660Y4519800D01*
X-2138080Y4521800D01*
G01X-2043930Y4461800D02*
Y4521800D01*
X-2026320Y4471800D01*
X-2008710Y4521800D01*
Y4461800D01*
G01X-1988050D02*
Y4521800D01*
X-1970440Y4471800D01*
X-1952830Y4521800D01*
Y4461800D01*
G01X-3213350Y4389800D02*
Y4329800D01*
X-3186250D01*
G01X-3143920D02*
Y4389800D01*
X-3152050Y4377800D01*
G01Y4329800D02*
X-3135790D01*
G01X-3088040Y4327800D02*
X-3089390Y4328800D01*
Y4330800D01*
X-3088040Y4331800D01*
X-3086690Y4330800D01*
Y4328800D01*
X-3088040Y4327800D01*
G01Y4354800D02*
X-3089390Y4355800D01*
Y4357800D01*
X-3088040Y4358800D01*
X-3086690Y4357800D01*
Y4355800D01*
X-3088040Y4354800D01*
G01X-2976280Y4389800D02*
Y4329800D01*
G01X-2991860Y4389800D02*
X-2960700D01*
G01X-2920400Y4329800D02*
X-2925820Y4330800D01*
X-2930560Y4334800D01*
X-2934620Y4340800D01*
X-2937330Y4347800D01*
X-2938690Y4355800D01*
Y4363800D01*
X-2937330Y4371800D01*
X-2934620Y4378800D01*
X-2930560Y4384800D01*
X-2925820Y4388800D01*
X-2920400Y4389800D01*
X-2914980Y4388800D01*
X-2910240Y4384800D01*
X-2906180Y4378800D01*
X-2903470Y4371800D01*
X-2902110Y4363800D01*
Y4355800D01*
X-2903470Y4347800D01*
X-2906180Y4340800D01*
X-2910240Y4334800D01*
X-2914980Y4330800D01*
X-2920400Y4329800D01*
G01X-2878070D02*
Y4389800D01*
X-2861810D01*
X-2856390Y4386800D01*
X-2852330Y4379800D01*
X-2850970Y4371800D01*
X-2852330Y4363800D01*
X-2855710Y4357800D01*
X-2861810Y4354800D01*
X-2878070D01*
G01X-2737860Y4384800D02*
X-2741920Y4387800D01*
X-2746660Y4389800D01*
X-2752080D01*
X-2758180Y4386800D01*
X-2762920Y4381800D01*
X-2766310Y4375800D01*
X-2769020Y4365800D01*
X-2769690Y4356800D01*
X-2768340Y4347800D01*
X-2766310Y4341800D01*
X-2762240Y4335800D01*
X-2757500Y4331800D01*
X-2752760Y4329800D01*
X-2748020D01*
X-2743280Y4331800D01*
X-2739210Y4334800D01*
X-2735830Y4338800D01*
G01X-2696880Y4329800D02*
X-2702300Y4330800D01*
X-2707040Y4334800D01*
X-2711100Y4340800D01*
X-2713810Y4347800D01*
X-2715170Y4355800D01*
Y4363800D01*
X-2713810Y4371800D01*
X-2711100Y4378800D01*
X-2707040Y4384800D01*
X-2702300Y4388800D01*
X-2696880Y4389800D01*
X-2691460Y4388800D01*
X-2686720Y4384800D01*
X-2682660Y4378800D01*
X-2679950Y4371800D01*
X-2678590Y4363800D01*
Y4355800D01*
X-2679950Y4347800D01*
X-2682660Y4340800D01*
X-2686720Y4334800D01*
X-2691460Y4330800D01*
X-2696880Y4329800D01*
G01X-2656580D02*
Y4389800D01*
X-2625420Y4329800D01*
Y4389800D01*
G01X-2600020Y4329800D02*
Y4389800D01*
X-2586470D01*
X-2581060Y4386800D01*
X-2576990Y4382800D01*
X-2573600Y4376800D01*
X-2570900Y4369800D01*
X-2570220Y4359800D01*
X-2570900Y4349800D01*
X-2573600Y4342800D01*
X-2576990Y4336800D01*
X-2581060Y4332800D01*
X-2586470Y4329800D01*
X-2600020D01*
G01X-2544140Y4389800D02*
Y4346800D01*
X-2541430Y4337800D01*
X-2536010Y4331800D01*
X-2529240Y4329800D01*
X-2522470Y4331800D01*
X-2517050Y4337800D01*
X-2514340Y4346800D01*
Y4389800D01*
G01X-2458460Y4384800D02*
X-2462520Y4387800D01*
X-2467260Y4389800D01*
X-2472680D01*
X-2478780Y4386800D01*
X-2483520Y4381800D01*
X-2486910Y4375800D01*
X-2489620Y4365800D01*
X-2490290Y4356800D01*
X-2488940Y4347800D01*
X-2486910Y4341800D01*
X-2482840Y4335800D01*
X-2478100Y4331800D01*
X-2473360Y4329800D01*
X-2468620D01*
X-2463880Y4331800D01*
X-2459810Y4334800D01*
X-2456430Y4338800D01*
G01X-2417480Y4389800D02*
Y4329800D01*
G01X-2433060Y4389800D02*
X-2401900D01*
G01X-2361600Y4329800D02*
X-2367020Y4330800D01*
X-2371760Y4334800D01*
X-2375820Y4340800D01*
X-2378530Y4347800D01*
X-2379890Y4355800D01*
Y4363800D01*
X-2378530Y4371800D01*
X-2375820Y4378800D01*
X-2371760Y4384800D01*
X-2367020Y4388800D01*
X-2361600Y4389800D01*
X-2356180Y4388800D01*
X-2351440Y4384800D01*
X-2347380Y4378800D01*
X-2344670Y4371800D01*
X-2343310Y4363800D01*
Y4355800D01*
X-2344670Y4347800D01*
X-2347380Y4340800D01*
X-2351440Y4334800D01*
X-2356180Y4330800D01*
X-2361600Y4329800D01*
G01X-2319270D02*
Y4389800D01*
X-2302330D01*
X-2296910Y4386800D01*
X-2293530Y4382800D01*
X-2292170Y4374800D01*
X-2293530Y4366800D01*
X-2297590Y4361800D01*
X-2302330Y4358800D01*
X-2319270D01*
G01X-2302330D02*
X-2292170Y4329800D01*
G01X-2202770Y4349800D02*
X-2185150D01*
G01X-2067300Y4384800D02*
X-2071360Y4387800D01*
X-2076100Y4389800D01*
X-2081520D01*
X-2087620Y4386800D01*
X-2092360Y4381800D01*
X-2095750Y4375800D01*
X-2098460Y4365800D01*
X-2099130Y4356800D01*
X-2097780Y4347800D01*
X-2095750Y4341800D01*
X-2091680Y4335800D01*
X-2086940Y4331800D01*
X-2082200Y4329800D01*
X-2077460D01*
X-2072720Y4331800D01*
X-2068650Y4334800D01*
X-2065270Y4338800D01*
G01X-2026320Y4329800D02*
X-2031740Y4330800D01*
X-2036480Y4334800D01*
X-2040540Y4340800D01*
X-2043250Y4347800D01*
X-2044610Y4355800D01*
Y4363800D01*
X-2043250Y4371800D01*
X-2040540Y4378800D01*
X-2036480Y4384800D01*
X-2031740Y4388800D01*
X-2026320Y4389800D01*
X-2020900Y4388800D01*
X-2016160Y4384800D01*
X-2012100Y4378800D01*
X-2009390Y4371800D01*
X-2008030Y4363800D01*
Y4355800D01*
X-2009390Y4347800D01*
X-2012100Y4340800D01*
X-2016160Y4334800D01*
X-2020900Y4330800D01*
X-2026320Y4329800D01*
G01X-1983990D02*
Y4389800D01*
X-1967730D01*
X-1962310Y4386800D01*
X-1958250Y4379800D01*
X-1956890Y4371800D01*
X-1958250Y4363800D01*
X-1961630Y4357800D01*
X-1967730Y4354800D01*
X-1983990D01*
G01X-1928110Y4329800D02*
Y4389800D01*
X-1911850D01*
X-1906430Y4386800D01*
X-1902370Y4379800D01*
X-1901010Y4371800D01*
X-1902370Y4363800D01*
X-1905750Y4357800D01*
X-1911850Y4354800D01*
X-1928110D01*
G01X-1845130Y4329800D02*
X-1872230D01*
Y4389800D01*
X-1845130D01*
G01X-1855970Y4360800D02*
X-1872230D01*
G01X-1816350Y4329800D02*
Y4389800D01*
X-1799410D01*
X-1793990Y4386800D01*
X-1790610Y4382800D01*
X-1789250Y4374800D01*
X-1790610Y4366800D01*
X-1794670Y4361800D01*
X-1799410Y4358800D01*
X-1816350D01*
G01X-1799410D02*
X-1789250Y4329800D01*
G01X-1691040Y4389800D02*
X-1696460Y4387800D01*
X-1700520Y4382800D01*
X-1703230Y4376800D01*
X-1705260Y4368800D01*
X-1705940Y4359800D01*
X-1705260Y4350800D01*
X-1703230Y4342800D01*
X-1700520Y4336800D01*
X-1696460Y4331800D01*
X-1691040Y4329800D01*
X-1685620Y4331800D01*
X-1681560Y4336800D01*
X-1678850Y4342800D01*
X-1676820Y4350800D01*
X-1676140Y4359800D01*
X-1676820Y4368800D01*
X-1678850Y4376800D01*
X-1681560Y4382800D01*
X-1685620Y4387800D01*
X-1691040Y4389800D01*
G01X-1635160Y4327800D02*
X-1636510Y4328800D01*
Y4330800D01*
X-1635160Y4331800D01*
X-1633810Y4330800D01*
Y4328800D01*
X-1635160Y4327800D01*
G01X-1579280Y4389800D02*
X-1584700Y4387800D01*
X-1588760Y4382800D01*
X-1591470Y4376800D01*
X-1593500Y4368800D01*
X-1594180Y4359800D01*
X-1593500Y4350800D01*
X-1591470Y4342800D01*
X-1588760Y4336800D01*
X-1584700Y4331800D01*
X-1579280Y4329800D01*
X-1573860Y4331800D01*
X-1569800Y4336800D01*
X-1567090Y4342800D01*
X-1565060Y4350800D01*
X-1564380Y4359800D01*
X-1565060Y4368800D01*
X-1567090Y4376800D01*
X-1569800Y4382800D01*
X-1573860Y4387800D01*
X-1579280Y4389800D01*
G01X-1524750Y4329800D02*
X-1523400Y4342800D01*
X-1521370Y4353800D01*
X-1518660Y4363800D01*
X-1515270Y4374800D01*
X-1509850Y4389800D01*
X-1536950D01*
G01X-1429250Y4329800D02*
Y4389800D01*
X-1411640Y4339800D01*
X-1394030Y4389800D01*
Y4329800D01*
G01X-1373370D02*
Y4389800D01*
X-1355760Y4339800D01*
X-1338150Y4389800D01*
Y4329800D01*
M02*
