M48
METRIC
T01C.3048
T02C.8128
T03C.9906
T04C1.1176
T05C1.1938
;LEADER: 12 
;HEADER: 
;CODE  : ASCII 
;FILE  : X-NUCLEO-IHM07M1-1-4.drl for  ... layers TOP and BOTTOM
;T01 Holesize 1. = 0.304800 Tolerance = +0.000000/-0.000000 PLATED MM Quantity = 257
;T02 Holesize 2. = 0.812800 Tolerance = +0.000000/-0.000000 PLATED MM Quantity = 6
;T03 Holesize 3. = 0.990600 Tolerance = +0.000000/-0.000000 PLATED MM Quantity = 130
;T04 Holesize 4. = 1.117600 Tolerance = +0.000000/-0.000000 PLATED MM Quantity = 3
;T05 Holesize 5. = 1.193800 Tolerance = +0.000000/-0.000000 PLATED MM Quantity = 5
%
G90
T01
X0322000Y0258000
X0495000Y0338734
X0536000Y0074000
X0505000Y-0061000
X0495000Y0251000
X0136000Y0026000
X0466000Y-0072000
X0004000Y-0028000
X0429000Y-0102000
X0475000Y0213000
X0242000Y0002000
X0176000Y0089000
X0495542Y0119542
X0422000Y0260000
X0480000Y0278000
X0176000Y0074000
X0241000Y0337000
X0099000Y-0086000
X0317000Y0219000
R02X-0007382
X0079000Y-0126000
X0155000Y0188000
X0145000Y0188000
X0177000Y0188000
X0166000Y0188000
X0177000Y0172000
X0147000Y0157000
X0156000Y0157000
X0166000Y0157000
X0177000Y0157000
X0251000Y0083000
X0257348Y0079526
X0257461Y0086712
X0250000Y0259000
X0257000Y0255000
X0257000Y0263000
X0318950Y0080000
X0321000Y0087000
X0313914Y0085109
X0383152Y0088755
X0383183Y0080933
X0389000Y0085179
X0245000Y0024000
X0245000Y0032382
X0245000Y0049000
X0245135Y0040763
X0039000Y-0051000
X0039000Y-0076000
X0099000Y-0101000
X0255000Y-0075000
X0147000Y-0118000
X0217000Y0189000
X0228000Y0154000
X0247000Y0189000
X0237000Y0189000
X0248000Y0154000
X0227000Y0189000
X0218000Y0154000
X0238000Y0154000
X0207000Y0189000
X0207000Y0172000
X0207000Y0154000
X0389000Y0146000
R03Y0016000
X0374500Y0194000
R03Y-0016000
X0360000Y0194000
R03Y-0016000
X0345550Y0194000
R03Y-0016000
X0331050Y0194000
R03Y-0016000
X0316550Y0194000
R03Y-0016000
X0302050Y0194000
R03Y-0016000
X0403000Y0283000
X0322000Y0293000
X0402000Y0318000
X0048000Y0422000
X0049000Y0447000
X0323000Y0350000
X0283000Y-0018000
R03Y-0008000
X0253999Y0314001
X0254000Y0322382
X0254000Y0330000
X0099000Y-0071000
X0254000Y0306000
X0401000Y0186000
R03Y-0016000
X0415000Y0186000
R03Y-0016000
X0428000Y0170000
R02Y-0016000
X0354000Y0214000
X0338000Y0214000
X0368000Y0214000
X0193000Y0180000
X0193000Y0164000
X0193000Y0198000
X0193000Y0214000
X0207000Y0225000
X0207000Y0209000
X0247000Y0225000
X0247000Y0209000
X0308000Y0128000
X0324000Y0128000
X0373000Y-0104000
X0366000Y-0060000
X0332000Y-0061000
X0173000Y-0074000
X-0018000Y-0106000
X0051000Y0356000
X-0020000Y0439000
X-0021000Y0343000
X-0021000Y0265000
X-0021000Y0142000
X-0021000Y0065000
X0656000Y0203000
X0656000Y0115000
X0655000Y0064000
X0655000Y0012000
X0656000Y0368000
X0655000Y0444000
X0436000Y0311000
X0460000Y0232000
X0428000Y0112000
X0445000Y0117000
X0445000Y0094000
X0445000Y0145000
X0558000Y-0048000
X0592000Y-0049000
X0618000Y-0049000
X0249000Y0137000
X0260000Y0144000
X0257000Y0199000
X0257000Y0217000
X0127000Y0204000
X0127000Y0222000
X0387000Y-0060000
X0387000Y-0080000
X0366000Y-0080000
X0428000Y0024000
X0428000Y0044000
X0389000Y0039000
X0389000Y0005000
X0389000Y-0026000
X0459000Y0104000
X0394000Y-0144000
X0430000Y-0143000
X0470000Y-0143000
X0517000Y-0161000
X0513000Y-0038000
X0511000Y-0090000
X0511000Y-0115000
X0531000Y-0036000
X0465000Y0188000
X0441000Y0232000
X0451000Y0243000
X0451000Y0222000
X0431000Y0243000
X0468000Y0311000
X0193000Y0232000
X0193000Y0346000
X0205000Y0294000
X0260000Y0128000
X0262000Y-0007000
X0262000Y-0049000
X0075000Y-0155000
X0270000Y-0121000
X0341000Y-0003000
X0330000Y0014000
X0106000Y0423000
X0232141Y0037246
X0208141Y0058246
X0301000Y0047000
X-0019000Y-0171000
X0021000Y-0172000
X0214000Y0346000
X0149000Y0350000
X0106000Y0292000
X0149000Y0292000
X0281000Y0068000
X0269000Y0289000
X0530000Y0038000
X0571000Y-0048000
X0530000Y-0090000
X0118000Y-0140000
X0135000Y0111000
X0332000Y-0085000
X0373000Y0089000
X0143000Y-0016000
X0494000Y0357000
X0544000Y0015000
X0531000Y0210872
X0531000Y0265670
X0495000Y0174340
X0267000Y0348000
X0247000Y-0016000
X0251000Y0117000
X0177000Y0059000
X0181000Y-0141000
X0522000Y0003000
X0473000Y0259000
X0403000Y0269000
X0580000Y0202000
X0616294Y-0027000
X0258000Y0110000
X0011000Y-0078000
X0323620Y-0100000
X0081000Y-0027000
X0136000Y0066000
X0185000Y-0132000
X0135000Y0100000
X0530000Y0129000
X0602000Y-0049000
X0334000Y0254000
X0308000Y0335000
X0354950Y0121000
X0469000Y0028212
X0348287Y0257584
X0348287Y0343000
X0354950Y0252126
X0476000Y0200000
X0348450Y0086000
X0297000Y0061000
X0126000Y0262000
X0086000Y0422000
X0342000Y0121000
X0459000Y0128000
X0136000Y0049000
X0495276Y0101276
X0337000Y0293000
X0333000Y0350000
T02
X0122844Y0291956
X0224444Y0317356
X0122844Y0342756
X0174150Y0342400
X0199550Y0317000
X0174150Y0291600
T03
X0549000Y-0157000
R04X0025400
X0609600Y0457200
X0635000Y0457200
X0609600Y0431800
X0635000Y0431800
X0609600Y0406400
X0635000Y0406400
X0609600Y0381000
X0635000Y0381000
X0609600Y0355600
X0635000Y0355600
X0609600Y0330200
X0635000Y0330200
X0609600Y0304800
X0635000Y0304800
X0609600Y0279400
X0635000Y0279400
X0609600Y0254000
X0635000Y0254000
X0609600Y0228600
X0635000Y0228600
X0609600Y0203200
X0635000Y0203200
X0609600Y0177800
X0635000Y0177800
X0609600Y0152400
X0635000Y0152400
X0609600Y0127000
X0635000Y0127000
X0609600Y0101600
X0635000Y0101600
X0609600Y0076200
X0635000Y0076200
X0609600Y0050800
X0635000Y0050800
X0609600Y0025400
X0635000Y0025400
X0609600Y0000000
X0635000Y0000000
X0558800Y0218400
R09Y0025400
X0076200Y0355600
R07Y-0025400
X0000000Y0457200
X0025400Y0457200
X0000000Y0431800
X0025400Y0431800
X0000000Y0406400
X0025400Y0406400
X0000000Y0381000
X0025400Y0381000
X0000000Y0355600
X0025400Y0355600
X0000000Y0330200
X0025400Y0330200
X0000000Y0304800
X0025400Y0304800
X0000000Y0279400
X0025400Y0279400
X0000000Y0254000
X0025400Y0254000
X0000000Y0228600
X0025400Y0228600
X0000000Y0203200
X0025400Y0203200
X0000000Y0177800
X0025400Y0177800
X0000000Y0152400
X0025400Y0152400
X0000000Y0127000
X0025400Y0127000
X0000000Y0101600
X0025400Y0101600
X0000000Y0076200
X0025400Y0076200
X0000000Y0050800
X0025400Y0050800
X0000000Y0025400
X0025400Y0025400
X0000000Y0000000
X0025400Y0000000
X0076200Y0127000
R05Y-0025400
X0558800Y0000000
R07Y0025400
X0359000Y0009000
R02Y0025400
X0370000Y0329000
R02Y-0025400
X0421000Y0350000
R02X0025400
X0127000Y0245000
X0152400Y0245000
X0199000Y0003000
X0199000Y0028400
X0165000Y0003000
X0165000Y0028400
X0651000Y-0077000
X0651000Y-0102400
T04
X0301000Y0359000
X0650000Y-0033000
X0450000Y0295000
T05
X0346050Y-0133800
X0307950Y-0133800
X0487300Y-0132800
R02X-0038100
M30
