G04 ================== begin FILE IDENTIFICATION RECORD ==================*
G04 Layout Name:  X-NUCLEO-IHM07M1_L6230_Nucleo_Shield.brd*
G04 Film Name:    X-NUCLEO-IHM07M1-INNER1*
G04 File Format:  Gerber RS274X*
G04 File Origin:  Cadence Allegro 16.6-S023*
G04 Origin Date:  Wed Mar 18 16:01:40 2015*
G04 *
G04 Layer:  ETCH/INNER1*
G04 Layer:  PIN/INNER1*
G04 Layer:  VIA CLASS/INNER1*
G04 *
G04 Offset:    (0.0000 0.0000)*
G04 Mirror:    No*
G04 Mode:      Positive*
G04 Rotation:  0*
G04 FullContactRelief:  No*
G04 UndefLineWidth:     0.0000*
G04 ================== end FILE IDENTIFICATION RECORD ====================*
%FSLAX35Y35*MOMM*%
%IR0*IPPOS*OFA0.00000B0.00000*MIA0B0*SFA1.00000B1.00000*%
%ADD10C,.7112*%
%ADD15C,2.032*%
%ADD13C,1.651*%
%ADD14C,2.286*%
%ADD11C,1.778*%
%ADD12R,1.778X1.778*%
%ADD16C,.25*%
%ADD17C,1.2*%
%ADD18C,1.5*%
%ADD22C,1.2116*%
%ADD25C,2.1454*%
%ADD24C,2.1914*%
%ADD20C,2.2724*%
%ADD19C,2.3184*%
%ADD28C,2.5264*%
%ADD23C,1.1656*%
%ADD27C,2.7804*%
%ADD26C,2.8264*%
%ADD21R,2.3184X2.3184*%
G75*
%LPD*%
G75*
G36*
G01X6624990Y-1475210D02*
G02X6587260Y-1490580I-21998J6D01*
G03Y-1649420I-81260J-79420D01*
G02X6624990Y-1664790I15732J-15376D01*
G01Y-1800000D01*
X-274990D01*
Y4710010D01*
X1112000D01*
Y3674000D01*
X2872740D01*
G02X2892780Y3642940I-7J-22000D01*
G03X3127220I117220J-52940D01*
G02X3147260Y3674000I20047J9060D01*
G01X5238000D01*
Y4710010D01*
X6624990D01*
Y-223270D01*
G02X6587710Y-239100I-22001J0D01*
G03Y-420900I-87710J-90900D01*
G02X6624990Y-436730I15279J-15830D01*
G01Y-654080D01*
X6394080D01*
Y-885920D01*
X6624990D01*
Y-922140D01*
G02X6588160Y-938390I-21999J-2D01*
G03Y-1109610I-78160J-85610D01*
G02X6624990Y-1125860I14831J-16248D01*
G01Y-1475210D01*
G37*
%LPC*%
G75*
G36*
G01X2615500Y2590000D02*
G02X2512560Y2530740I-45503J-39996D01*
G02Y2649260I-12560J59260D01*
G02X2615500Y2590000I57437J-19264D01*
G37*
G36*
G01X3543180Y2581510D02*
G02X3489190Y2515590I6323J-60248D01*
G02X3543180Y2581510I-6323J60248D01*
G37*
G36*
G01X1385920Y2565920D02*
Y2334080D01*
X1154080D01*
Y2565920D01*
X1183910D01*
G03X1204180Y2596470I-2J22001D01*
G02X1315820I55820J23530D01*
G03X1336090Y2565920I20272J-8549D01*
G01X1385920D01*
G37*
G36*
G01X3133090Y2141960D02*
G02X3059270I-36910J48040D01*
G02Y2238040I-36910J48040D01*
G02X3133090I36910J-48040D01*
G02Y2141960I36910J-48040D01*
G37*
G36*
G01X1507680Y1836650D02*
G03X1492320I-7680J-7872D01*
G02Y1923350I-42320J43350D01*
G03X1507680I7680J7872D01*
G02X1590350Y1925190I42320J-43349D01*
G03X1619650I14650J16409D01*
G02X1700350I40350J-45190D01*
G03X1729650I14650J16409D01*
G02Y1834810I40350J-45190D01*
G03X1700350I-14650J-16409D01*
G02X1619650I-40350J45190D01*
G03X1590350I-14650J-16409D01*
G02X1507680Y1836650I-40350J45189D01*
G37*
G36*
G01X2559140Y2969220D02*
X2347720Y2757810D01*
Y1890000D01*
G02X2192280I-77720J0D01*
G01Y2822190D01*
X2447280Y3077190D01*
Y3300000D01*
G02X2447330Y3303080I92721J35D01*
G03X2432290Y3313670I-10994J362D01*
G02X2466030Y3393040I-22289J56331D01*
G03X2496660Y3381970I20342J8374D01*
G02X2632720Y3300000I43338J-81970D01*
G01Y3060000D01*
G02X2562120Y2969960I-92716J0D01*
G01X2559140Y2969220D01*
G37*
G36*
G01X1521920Y1522890D02*
G03X1508080I-6920J-8556D01*
G02Y1617110I-38080J47110D01*
G03X1521920I6920J8556D01*
G02X1602320Y1613350I38085J-47111D01*
G03X1617680I7680J7872D01*
G02X1700350Y1615190I42320J-43349D01*
G03X1729650I14650J16409D01*
G02Y1524810I40350J-45190D01*
G03X1700350I-14650J-16409D01*
G02X1617680Y1526650I-40350J45189D01*
G03X1602320I-7680J-7872D01*
G02X1521920Y1522890I-42315J43351D01*
G37*
G36*
G01X2570570Y1171320D02*
G03X2581320Y1160570I10994J244D01*
G02X2519430Y1098680I-1320J-60570D01*
G03X2508680Y1109430I-10994J-244D01*
G02X2570570Y1171320I1320J60570D01*
G37*
G36*
G01X1395190Y1069650D02*
G03Y1040350I16409J-14650D01*
G02X1304810I-45190J-40350D01*
G03Y1069650I-16409J14650D01*
G02X1395190I45190J40350D01*
G37*
G36*
G01X3789590Y931270D02*
G02X3886820Y912290I41933J-43721D01*
G02X3889640Y791210I3180J-60499D01*
G02X3771250Y809600I-57809J18116D01*
G03X3744120Y831090I-22000J97D01*
G02X3773990Y931650I-14121J58911D01*
G03X3789590Y931270I7989J7563D01*
G37*
G36*
G01X3162140Y907140D02*
G02X3246170Y821400I47858J-37143D01*
G02X3129550Y791270I-56672J-21403D01*
G02X3162140Y907140I9603J59817D01*
G37*
G36*
G01X1873250Y-1375940D02*
G03X1867100Y-1389770I4220J-10159D01*
G02X1786750Y-1354060I-57101J-20230D01*
G03X1792900Y-1340230I-4220J10159D01*
G02X1873250Y-1375940I57101J20230D01*
G37*
G36*
G01X3308300Y2591630D02*
G02X3283670Y2517720I31702J-51623D01*
G03X3251700Y2528370I-20456J-8095D01*
G02X3276330Y2602280I-31702J51623D01*
G03X3308300Y2591630I20456J8095D01*
G37*
G36*
G01X4793410Y2050540D02*
G02X4719260Y2044830I-33403J-50539D01*
G03X4716590Y2079460I-14800J16277D01*
G02X4790740Y2085170I33403J50539D01*
G03X4793410Y2050540I14800J-16277D01*
G37*
G36*
G01X3467500Y1172400D02*
G02Y1247600I-47500J37600D01*
G03X3502000I17250J13653D01*
G02Y1172400I47500J-37600D01*
G03X3467500I-17250J-13653D01*
G37*
G36*
G01X5703920Y-115920D02*
X5472080D01*
Y68040D01*
G03X5447390Y89870I-21999J-4D01*
G02X5448720Y209950I-7386J60129D01*
G03X5473600Y235270I3170J21769D01*
G02X5518160Y161480I114398J18733D01*
G03X5500540Y152290I-6629J-8776D01*
G02X5499930Y141140I-60539J-2280D01*
G03X5521690Y115920I21762J-3221D01*
G01X5703920D01*
Y-115920D01*
G37*
G36*
G01X2907720Y-420000D02*
G02X2752280I-77720J0D01*
G01Y297810D01*
X2538520Y511570D01*
X2527200Y500260D01*
X2527540Y495270D01*
G02X2527720Y490000I-77539J-5286D01*
G01Y422090D01*
X2527890Y421140D01*
G02Y394120I-76540J-13510D01*
G01X2527720Y393170D01*
Y240000D01*
G02X2372280I-77720J0D01*
G01Y457810D01*
X2102280Y727810D01*
Y1540000D01*
G02X2248020Y1577590I77718J0D01*
G03X2283320Y1573180I19255J10642D01*
G02X2285040Y1574960I56745J-53111D01*
G01X2305040Y1594960D01*
G02X2417720Y1487950I54959J-54959D01*
G01Y852190D01*
X2440090Y829820D01*
X2450140Y839870D01*
X2450830Y843010D01*
G02X2518510Y889980I59168J-13010D01*
G02X2622810Y830420I56101J-22861D01*
G02X2583540Y735520I-49331J-35162D01*
G03X2571640Y698270I3657J-21694D01*
G01X2907720Y362190D01*
Y-420000D01*
G37*
G54D22*
X110000Y-780000D03*
X40000Y-280000D03*
X790000Y-1260000D03*
X810000Y-270000D03*
X860000Y4220000D03*
X1180000Y-1400000D03*
X990000Y-860000D03*
X1430000Y-160000D03*
X1360000Y260000D03*
Y490000D03*
Y660000D03*
X1770000Y590000D03*
X1760000Y740000D03*
Y890000D03*
X1770000Y1720000D03*
X2470000Y-160000D03*
X2420000Y20000D03*
X2970000Y610000D03*
X2810000Y680000D03*
X3080000Y3350000D03*
X2690000Y2890000D03*
X2670000Y3480000D03*
X3236200Y-1000000D03*
X3320000Y-850000D03*
X3484500Y860000D03*
X3370000Y2930000D03*
X3330000Y3500000D03*
X3482870Y3430000D03*
X4290000Y-1020000D03*
X4220000Y2600000D03*
X4030000Y2690000D03*
X4660000Y-720000D03*
X5050000Y-610000D03*
X4690000Y282120D03*
X5220000Y30000D03*
X4952760Y1012760D03*
X4590000Y1280000D03*
X4950000Y1743400D03*
X4955420Y1195420D03*
X4730000Y2590000D03*
X4950000Y2510000D03*
X4800000Y2780000D03*
X4940000Y3570000D03*
X4950000Y3387340D03*
X5300000Y-900000D03*
X5710000Y-480000D03*
X5300000Y380000D03*
X5360000Y740000D03*
X5300000Y1290000D03*
X5800000Y2020000D03*
X5310000Y2108720D03*
Y2656700D03*
X6020000Y-490000D03*
X6162940Y-270000D03*
G54D25*
X1741500Y2916000D03*
G54D24*
X1228440Y2919560D03*
Y3427560D03*
X1995500Y3170000D03*
X2244440Y3173560D03*
X1741500Y3424000D03*
G54D20*
X254000Y2032000D03*
Y2286000D03*
X762000Y2032000D03*
Y2286000D03*
X4718000Y3500000D03*
G54D19*
X254000Y0D03*
X0D03*
X254000Y254000D03*
Y508000D03*
Y762000D03*
Y1016000D03*
Y1270000D03*
Y1524000D03*
Y1778000D03*
Y2540000D03*
Y2794000D03*
X0Y254000D03*
Y508000D03*
Y762000D03*
Y1016000D03*
Y1270000D03*
Y1524000D03*
Y1778000D03*
Y2032000D03*
Y2286000D03*
Y2540000D03*
Y2794000D03*
X254000Y3302000D03*
Y3048000D03*
X0D03*
Y3302000D03*
X254000Y4572000D03*
X0Y4318000D03*
X254000D03*
X0Y4064000D03*
X254000D03*
X0Y3810000D03*
X254000D03*
X0Y3556000D03*
X254000D03*
X762000Y0D03*
Y254000D03*
Y508000D03*
Y762000D03*
Y1016000D03*
Y1778000D03*
Y2540000D03*
Y2794000D03*
Y3048000D03*
Y3302000D03*
X1650000Y284000D03*
X1524000Y2450000D03*
X1990000Y284000D03*
X3590000Y344000D03*
Y598000D03*
X3700000Y2782000D03*
Y3036000D03*
X4464000Y3500000D03*
X5998000Y-1570000D03*
X5744000D03*
X5588000Y508000D03*
Y1016000D03*
Y762000D03*
Y1778000D03*
Y1524000D03*
Y1270000D03*
Y2692000D03*
Y2438000D03*
Y3200000D03*
Y2946000D03*
Y3962000D03*
Y3708000D03*
Y3454000D03*
Y4470000D03*
Y4216000D03*
X6252000Y-1570000D03*
X6350000Y3556000D03*
X6096000D03*
X6350000Y3810000D03*
X6096000D03*
X6350000Y4064000D03*
X6096000D03*
X6350000Y4318000D03*
X6096000D03*
X6350000Y4572000D03*
X6096000Y3302000D03*
Y3048000D03*
X6350000D03*
Y3302000D03*
X6096000Y2794000D03*
Y2540000D03*
Y2286000D03*
Y2032000D03*
Y1778000D03*
Y1524000D03*
Y1270000D03*
Y1016000D03*
Y762000D03*
Y508000D03*
Y254000D03*
X6350000Y2794000D03*
Y2540000D03*
Y2286000D03*
Y2032000D03*
Y1778000D03*
Y1524000D03*
Y1270000D03*
Y1016000D03*
Y762000D03*
Y508000D03*
Y254000D03*
X6096000Y0D03*
X6350000D03*
G54D28*
X4500000Y2950000D03*
G54D23*
X990000Y-710000D03*
G54D27*
X3460500Y-1338000D03*
G54D26*
X3079500D03*
X4111000Y-1328000D03*
X4492000D03*
X4873000D03*
G54D21*
X0Y4572000D03*
X762000Y1270000D03*
Y3556000D03*
X1650000Y30000D03*
X1990000D03*
X3590000Y90000D03*
X3700000Y3290000D03*
X4210000Y3500000D03*
X5490000Y-1570000D03*
X5588000Y2184000D03*
X6096000Y4572000D03*
%LPD*%
G75*
G36*
G01X2020000Y1960000D02*
Y1460000D01*
X2580000D01*
Y1960000D01*
X2020000D01*
G37*
G54D10*
X-190000Y-1710000D03*
X-180000Y-1060000D03*
X110000Y-780000D03*
X40000Y-280000D03*
X-210000Y650000D03*
Y1420000D03*
Y2650000D03*
Y3430000D03*
X-200000Y4390000D03*
X210000Y-1720000D03*
X750000Y-1550000D03*
X790000Y-1260000D03*
X810000Y-270000D03*
X390000Y-760000D03*
Y-510000D03*
X510000Y3560000D03*
X860000Y4220000D03*
X490000Y4470000D03*
X480000Y4220000D03*
X1180000Y-1400000D03*
X1470000Y-1180000D03*
X990000Y-1010000D03*
Y-710000D03*
Y-860000D03*
X1430000Y-160000D03*
X1360000Y260000D03*
Y490000D03*
X1350000Y1000000D03*
X1360000Y660000D03*
X1350000Y1110000D03*
X1560000Y1570000D03*
X1470000D03*
X1450000Y1880000D03*
X1550000D03*
X1260000Y2620000D03*
X1270000Y2220000D03*
Y2040000D03*
X1490000Y2920000D03*
X1060000D03*
X1490000Y3500000D03*
X1060000Y4230000D03*
X1850000Y-1320000D03*
X1810000Y-1410000D03*
X1730000Y-740000D03*
X2321410Y372460D03*
X1770000Y590000D03*
X2081410Y582460D03*
X1760000Y740000D03*
Y890000D03*
X1930000Y1640000D03*
Y1800000D03*
X2070000Y1540000D03*
Y1720000D03*
Y1890000D03*
X2180000Y1540000D03*
X2270000Y1890000D03*
X2370000D03*
X2280000Y1540000D03*
X2170000Y1890000D03*
X1770000Y1570000D03*
X1660000D03*
X1770000Y1720000D03*
X1660000Y1880000D03*
X1770000D03*
X1930000Y2320000D03*
X2070000Y2090000D03*
Y2250000D03*
X1930000Y2140000D03*
Y1980000D03*
X2050000Y2940000D03*
X2140000Y3460000D03*
X1930000D03*
X2700000Y-1210000D03*
X2620000Y-490000D03*
X2830000Y-420000D03*
Y-340000D03*
Y-260000D03*
X2550000Y-750000D03*
X2470000Y-160000D03*
X3010000Y470000D03*
X2620000Y-70000D03*
X2830000Y-180000D03*
X2451350Y407630D03*
X2450000Y323820D03*
Y240000D03*
X2420000Y20000D03*
X2970000Y610000D03*
X2580000Y1100000D03*
X2510000Y1170000D03*
X2810000Y680000D03*
X2450000Y490000D03*
X2574610Y867120D03*
X2573480Y795260D03*
X2510000Y830000D03*
X2600000Y1280000D03*
Y1440000D03*
X2490000Y1370000D03*
X3080000Y1280000D03*
X3020500Y1460000D03*
Y1620000D03*
Y1780000D03*
X2380000Y1540000D03*
X2480000D03*
X2470000Y1890000D03*
X2570000Y2170000D03*
Y1990000D03*
X2470000Y2090000D03*
Y2250000D03*
X3020500Y1940000D03*
X2570000Y2630000D03*
Y2550000D03*
X2500000Y2590000D03*
X3022360Y2190000D03*
X3080000Y3350000D03*
X2690000Y2890000D03*
X2540000Y3060000D03*
Y3300000D03*
Y3223820D03*
X2539990Y3140010D03*
X2670000Y3480000D03*
X2410000Y3370000D03*
X3236200Y-1000000D03*
X3730000Y-1040000D03*
X3320000Y-850000D03*
X3660000Y-800000D03*
X3320000Y-610000D03*
X3660000Y-600000D03*
X3300000Y140000D03*
X3410000Y-30000D03*
X3484500Y860000D03*
X3730000Y890000D03*
X3139140Y851090D03*
X3210000Y870000D03*
X3189500Y800000D03*
X3420000Y1210000D03*
X3549500D03*
X3240000Y1280000D03*
X3165500Y1460000D03*
Y1620000D03*
Y1780000D03*
X3310500Y1460000D03*
Y1620000D03*
Y1780000D03*
X3455500Y1460000D03*
Y1620000D03*
Y1780000D03*
X3600000Y1460000D03*
Y1620000D03*
Y1780000D03*
X3745000Y1460000D03*
Y1620000D03*
Y1780000D03*
X3549500Y2521260D03*
X3482870Y2575840D03*
X3340000Y2540000D03*
X3680000Y2140000D03*
X3380000D03*
X3540000D03*
X3165500Y1940000D03*
X3310500D03*
X3455500D03*
X3600000D03*
X3745000D03*
X3096180Y2190000D03*
X3170000D03*
X3220000Y2580000D03*
X3370000Y2930000D03*
X3220000D03*
X3330000Y3500000D03*
X3482870Y3430000D03*
X3230000Y3500000D03*
X4300000Y-1430000D03*
X3940000Y-1440000D03*
X4290000Y-1020000D03*
X3890000Y-260000D03*
X3870000Y-800000D03*
Y-600000D03*
X3890000Y50000D03*
Y390000D03*
X4280000Y440000D03*
Y240000D03*
X4450000Y940000D03*
Y1170000D03*
X4280000Y1120000D03*
X3890000Y851790D03*
X3831830Y809330D03*
X3831520Y887550D03*
X4450000Y1450000D03*
X4280000Y1380000D03*
Y1540000D03*
Y1700000D03*
X4150000Y1380000D03*
Y1540000D03*
Y1700000D03*
Y1860000D03*
X4010000Y1380000D03*
Y1540000D03*
Y1700000D03*
Y1860000D03*
X3890000Y1780000D03*
Y1620000D03*
Y1460000D03*
X4310000Y2430000D03*
X4510000Y2220000D03*
Y2430000D03*
X4410000Y2320000D03*
X3890000Y1940000D03*
X4220000Y2600000D03*
X4030000Y2690000D03*
X4360000Y3110000D03*
X4020000Y3180000D03*
X4030000Y2830000D03*
X5110000Y-1150000D03*
X5170000Y-1610000D03*
X4700000Y-1430000D03*
X5110000Y-900000D03*
X5130000Y-380000D03*
X4660000Y-720000D03*
X5050000Y-610000D03*
X4690000Y282120D03*
X5220000Y30000D03*
X4952760Y1012760D03*
X4590000Y1040000D03*
Y1280000D03*
X4950000Y1743400D03*
X4650000Y1880000D03*
X4955420Y1195420D03*
X4760000Y2000000D03*
X4730000Y2590000D03*
X4600000Y2320000D03*
X4750000Y2130000D03*
X4950000Y2510000D03*
X4680000Y3110000D03*
X4800000Y2780000D03*
X4940000Y3570000D03*
X4950000Y3387340D03*
X5300000Y-900000D03*
X5710000Y-480000D03*
X5310000Y-360000D03*
X5920000Y-490000D03*
X5580000Y-480000D03*
X5440000Y150000D03*
X5300000Y380000D03*
X5360000Y740000D03*
X5300000Y1290000D03*
X5800000Y2020000D03*
X5310000Y2108720D03*
Y2656700D03*
X6020000Y-490000D03*
X6162940Y-270000D03*
X6180000Y-490000D03*
X6550000Y120000D03*
Y640000D03*
X6560000Y1150000D03*
Y2030000D03*
Y3680000D03*
X6550000Y4440000D03*
G54D11*
X254000Y0D03*
X0D03*
X254000Y254000D03*
Y508000D03*
X0Y254000D03*
Y508000D03*
X254000Y762000D03*
Y1016000D03*
X0Y762000D03*
Y1016000D03*
X254000Y1270000D03*
Y1524000D03*
Y1778000D03*
X0Y1270000D03*
Y1524000D03*
Y1778000D03*
X254000Y2032000D03*
Y2286000D03*
Y2540000D03*
X0Y2032000D03*
Y2286000D03*
Y2540000D03*
X254000Y2794000D03*
X0D03*
X254000Y3302000D03*
Y3048000D03*
X0D03*
Y3302000D03*
Y4064000D03*
X254000D03*
X0Y3810000D03*
X254000D03*
X0Y3556000D03*
X254000D03*
Y4572000D03*
X0Y4318000D03*
X254000D03*
X762000Y0D03*
Y254000D03*
Y508000D03*
Y762000D03*
Y1016000D03*
Y1778000D03*
Y2032000D03*
Y2286000D03*
Y2540000D03*
Y2794000D03*
Y3048000D03*
Y3302000D03*
X1650000Y284000D03*
X1524000Y2450000D03*
X1990000Y284000D03*
X3590000Y344000D03*
Y598000D03*
X3700000Y2782000D03*
Y3036000D03*
X4464000Y3500000D03*
X4718000D03*
X5998000Y-1570000D03*
X5744000D03*
X5588000Y508000D03*
Y254000D03*
Y1016000D03*
Y762000D03*
Y1778000D03*
Y1524000D03*
Y1270000D03*
Y2692000D03*
Y2438000D03*
Y3200000D03*
Y2946000D03*
Y3962000D03*
Y3708000D03*
Y3454000D03*
Y4470000D03*
Y4216000D03*
X6510000Y-1024000D03*
X6506000Y-1570000D03*
X6252000D03*
X6350000Y0D03*
X6096000D03*
X6350000Y254000D03*
Y508000D03*
X6096000Y254000D03*
Y508000D03*
X6350000Y762000D03*
Y1016000D03*
X6096000Y762000D03*
Y1016000D03*
X6350000Y1270000D03*
Y1524000D03*
Y1778000D03*
X6096000Y1270000D03*
Y1524000D03*
Y1778000D03*
X6350000Y2032000D03*
Y2286000D03*
Y2540000D03*
X6096000Y2032000D03*
Y2286000D03*
Y2540000D03*
X6350000Y2794000D03*
X6096000D03*
X6350000Y3302000D03*
Y3048000D03*
X6096000D03*
Y3302000D03*
Y4064000D03*
X6350000D03*
X6096000Y3810000D03*
X6350000D03*
X6096000Y3556000D03*
X6350000D03*
Y4572000D03*
X6096000Y4318000D03*
X6350000D03*
G54D12*
X0Y4572000D03*
X762000Y1270000D03*
Y3556000D03*
X1650000Y30000D03*
X1270000Y2450000D03*
X1990000Y30000D03*
X3590000Y90000D03*
X3700000Y3290000D03*
X4210000Y3500000D03*
X5490000Y-1570000D03*
X5588000Y0D03*
Y2184000D03*
X6510000Y-770000D03*
X6096000Y4572000D03*
G54D13*
X1228440Y2919560D03*
Y3427560D03*
X1995500Y3170000D03*
X1741500Y2916000D03*
X2244440Y3173560D03*
X1741500Y3424000D03*
G54D14*
X3079500Y-1338000D03*
X3460500D03*
X4111000Y-1328000D03*
X4492000D03*
X4873000D03*
G54D15*
X3010000Y3590000D03*
X4500000Y2950000D03*
X6500000Y-330000D03*
G54D16*
G01X129380Y2032000D02*
X254000D01*
G01X129380Y2286000D02*
X254000D01*
G01X762000Y2161380D02*
Y2286000D01*
G01D02*
Y2410620D01*
G01X637380Y2286000D02*
X762000D01*
G01D02*
X886620D01*
G01X762000Y1907380D02*
Y2032000D01*
G01D02*
Y2156620D01*
G01X637380Y2032000D02*
X762000D01*
G01D02*
X886620D01*
G01X254000Y1907380D02*
Y2032000D01*
G01D02*
Y2156620D01*
G01Y2032000D02*
X378620D01*
G01X254000Y2161380D02*
Y2286000D01*
G01D02*
Y2410620D01*
G01Y2286000D02*
X378620D01*
G01X2180000Y1540000D02*
X2070000D01*
G01X1741500Y2797730D02*
Y2916000D01*
G01D02*
Y3034270D01*
G01X1623230Y2916000D02*
X1741500D01*
G01D02*
X1859770D01*
G01X2539990Y3140010D02*
Y3060010D01*
X2540000Y3060000D01*
G01X3460500Y-1488020D02*
Y-1338000D01*
G01D02*
Y-1187980D01*
G01X3310480Y-1338000D02*
X3460500D01*
G01D02*
X3610520D01*
G01X4362680Y2950000D02*
X4500000D01*
G01Y2812680D02*
Y2950000D01*
G01D02*
Y3087320D01*
G01Y2950000D02*
X4637320D01*
G01X4718000Y3375380D02*
Y3500000D01*
G01D02*
Y3624620D01*
G01X4593380Y3500000D02*
X4718000D01*
G01D02*
X4842620D01*
G01X6506000Y-1694620D02*
Y-1570000D01*
G01D02*
Y-1445380D01*
G01X6381380Y-1570000D02*
X6506000D01*
G01X6500000Y-467320D02*
Y-330000D01*
G01D02*
Y-192680D01*
G01X6362680Y-330000D02*
X6500000D01*
G54D17*
G01X2450000Y490000D02*
X2180000Y760000D01*
Y1540000D01*
G01X2340000Y1520000D02*
Y820000D01*
X2830000Y330000D01*
Y-180000D01*
G01X2270000Y1890000D02*
Y2790000D01*
X2540000Y3060000D01*
G01X2360000Y1540000D02*
X2340000Y1520000D01*
G01X2830000Y-180000D02*
Y-260000D01*
G01D02*
Y-340000D01*
G01D02*
Y-420000D01*
G01X2450000Y490000D02*
Y408980D01*
X2451350Y407630D01*
G01X2450000Y240000D02*
Y323820D01*
G01D02*
Y406280D01*
X2451350Y407630D01*
G54D18*
G01X2540000Y3223820D02*
Y3300000D01*
G01Y3060000D02*
Y3223820D01*
M02*
