G04 ================== begin FILE IDENTIFICATION RECORD ==================*
G04 Layout Name:  X-NUCLEO-IHM07M1_L6230_Nucleo_Shield.brd*
G04 Film Name:    X-NUCLEO-IHM07M1-drill-chart*
G04 File Format:  Gerber RS274X*
G04 File Origin:  Cadence Allegro 16.6-S023*
G04 Origin Date:  Wed Mar 18 16:01:41 2015*
G04 *
G04 Layer:  MANUFACTURING/NCLEGEND-1-4*
G04 Layer:  BOARD GEOMETRY/OUTLINE*
G04 *
G04 Offset:    (0.0000 0.0000)*
G04 Mirror:    No*
G04 Mode:      Positive*
G04 Rotation:  0*
G04 FullContactRelief:  No*
G04 UndefLineWidth:     0.0200*
G04 ================== end FILE IDENTIFICATION RECORD ====================*
%FSLAX35Y35*MOMM*%
%IR0*IPPOS*OFA0.00000B0.00000*MIA0B0*SFA1.00000B1.00000*%
%AMMACRO12*
1,1,.02,.762,0.0*
20,1,.02,.762,0.0,-.762,0.0,0.0*
1,1,.02,-.762,0.0*
1,1,.02,0.0,.762*
20,1,.02,0.0,.762,0.0,-.762,0.0*
1,1,.02,0.0,-.762*
%
%ADD12MACRO12*%
%AMMACRO10*
1,1,.02,.635,0.0*
20,1,.02,.635,0.0,.625353,-.110267,0.0*
1,1,.02,.625353,-.110267*
20,1,.02,.625353,-.110267,.596705,-.217183,0.0*
1,1,.02,.596705,-.217183*
20,1,.02,.596705,-.217183,.549926,-.3175,0.0*
1,1,.02,.549926,-.3175*
20,1,.02,.549926,-.3175,.486438,-.40817,0.0*
1,1,.02,.486438,-.40817*
20,1,.02,.486438,-.40817,.40817,-.486438,0.0*
1,1,.02,.40817,-.486438*
20,1,.02,.40817,-.486438,.3175,-.549926,0.0*
1,1,.02,.3175,-.549926*
20,1,.02,.3175,-.549926,.217183,-.596705,0.0*
1,1,.02,.217183,-.596705*
20,1,.02,.217183,-.596705,.110267,-.625353,0.0*
1,1,.02,.110267,-.625353*
20,1,.02,.110267,-.625353,0.0,-.635,0.0*
1,1,.02,0.0,-.635*
20,1,.02,0.0,-.635,-.110267,-.625353,0.0*
1,1,.02,-.110267,-.625353*
20,1,.02,-.110267,-.625353,-.217183,-.596705,0.0*
1,1,.02,-.217183,-.596705*
20,1,.02,-.217183,-.596705,-.3175,-.549926,0.0*
1,1,.02,-.3175,-.549926*
20,1,.02,-.3175,-.549926,-.40817,-.486438,0.0*
1,1,.02,-.40817,-.486438*
20,1,.02,-.40817,-.486438,-.486438,-.40817,0.0*
1,1,.02,-.486438,-.40817*
20,1,.02,-.486438,-.40817,-.549926,-.3175,0.0*
1,1,.02,-.549926,-.3175*
20,1,.02,-.549926,-.3175,-.596705,-.217183,0.0*
1,1,.02,-.596705,-.217183*
20,1,.02,-.596705,-.217183,-.625353,-.110267,0.0*
1,1,.02,-.625353,-.110267*
20,1,.02,-.625353,-.110267,-.635,0.0,0.0*
1,1,.02,-.635,0.0*
20,1,.02,-.635,0.0,-.625353,.110267,0.0*
1,1,.02,-.625353,.110267*
20,1,.02,-.625353,.110267,-.596705,.217183,0.0*
1,1,.02,-.596705,.217183*
20,1,.02,-.596705,.217183,-.549926,.3175,0.0*
1,1,.02,-.549926,.3175*
20,1,.02,-.549926,.3175,-.486438,.40817,0.0*
1,1,.02,-.486438,.40817*
20,1,.02,-.486438,.40817,-.40817,.486438,0.0*
1,1,.02,-.40817,.486438*
20,1,.02,-.40817,.486438,-.3175,.549926,0.0*
1,1,.02,-.3175,.549926*
20,1,.02,-.3175,.549926,-.217183,.596705,0.0*
1,1,.02,-.217183,.596705*
20,1,.02,-.217183,.596705,-.110267,.625353,0.0*
1,1,.02,-.110267,.625353*
20,1,.02,-.110267,.625353,0.0,.635,0.0*
1,1,.02,0.0,.635*
20,1,.02,0.0,.635,.110267,.625353,0.0*
1,1,.02,.110267,.625353*
20,1,.02,.110267,.625353,.217183,.596705,0.0*
1,1,.02,.217183,.596705*
20,1,.02,.217183,.596705,.3175,.549926,0.0*
1,1,.02,.3175,.549926*
20,1,.02,.3175,.549926,.40817,.486438,0.0*
1,1,.02,.40817,.486438*
20,1,.02,.40817,.486438,.486438,.40817,0.0*
1,1,.02,.486438,.40817*
20,1,.02,.486438,.40817,.549926,.3175,0.0*
1,1,.02,.549926,.3175*
20,1,.02,.549926,.3175,.596705,.217183,0.0*
1,1,.02,.596705,.217183*
20,1,.02,.596705,.217183,.625353,.110267,0.0*
1,1,.02,.625353,.110267*
20,1,.02,.625353,.110267,.635,0.0,0.0*
1,1,.02,.635,0.0*
1,1,.02,.3175,0.0*
20,1,.02,.3175,0.0,-.3175,0.0,0.0*
1,1,.02,-.3175,0.0*
1,1,.02,0.0,.3175*
20,1,.02,0.0,.3175,0.0,-.3175,0.0*
1,1,.02,0.0,-.3175*
%
%ADD10MACRO10*%
%AMMACRO13*
1,1,.02,.762,0.0*
20,1,.02,.762,0.0,.750424,-.13232,0.0*
1,1,.02,.750424,-.13232*
20,1,.02,.750424,-.13232,.716046,-.260619,0.0*
1,1,.02,.716046,-.260619*
20,1,.02,.716046,-.260619,.659911,-.381,0.0*
1,1,.02,.659911,-.381*
20,1,.02,.659911,-.381,.583726,-.489804,0.0*
1,1,.02,.583726,-.489804*
20,1,.02,.583726,-.489804,.489804,-.583726,0.0*
1,1,.02,.489804,-.583726*
20,1,.02,.489804,-.583726,.381,-.659911,0.0*
1,1,.02,.381,-.659911*
20,1,.02,.381,-.659911,.260619,-.716046,0.0*
1,1,.02,.260619,-.716046*
20,1,.02,.260619,-.716046,.13232,-.750424,0.0*
1,1,.02,.13232,-.750424*
20,1,.02,.13232,-.750424,0.0,-.762,0.0*
1,1,.02,0.0,-.762*
20,1,.02,0.0,-.762,-.13232,-.750424,0.0*
1,1,.02,-.13232,-.750424*
20,1,.02,-.13232,-.750424,-.260619,-.716046,0.0*
1,1,.02,-.260619,-.716046*
20,1,.02,-.260619,-.716046,-.381,-.659911,0.0*
1,1,.02,-.381,-.659911*
20,1,.02,-.381,-.659911,-.489804,-.583726,0.0*
1,1,.02,-.489804,-.583726*
20,1,.02,-.489804,-.583726,-.583726,-.489804,0.0*
1,1,.02,-.583726,-.489804*
20,1,.02,-.583726,-.489804,-.659911,-.381,0.0*
1,1,.02,-.659911,-.381*
20,1,.02,-.659911,-.381,-.716046,-.260619,0.0*
1,1,.02,-.716046,-.260619*
20,1,.02,-.716046,-.260619,-.750424,-.13232,0.0*
1,1,.02,-.750424,-.13232*
20,1,.02,-.750424,-.13232,-.762,0.0,0.0*
1,1,.02,-.762,0.0*
20,1,.02,-.762,0.0,-.750424,.13232,0.0*
1,1,.02,-.750424,.13232*
20,1,.02,-.750424,.13232,-.716046,.260619,0.0*
1,1,.02,-.716046,.260619*
20,1,.02,-.716046,.260619,-.659911,.381,0.0*
1,1,.02,-.659911,.381*
20,1,.02,-.659911,.381,-.583726,.489804,0.0*
1,1,.02,-.583726,.489804*
20,1,.02,-.583726,.489804,-.489804,.583726,0.0*
1,1,.02,-.489804,.583726*
20,1,.02,-.489804,.583726,-.381,.659911,0.0*
1,1,.02,-.381,.659911*
20,1,.02,-.381,.659911,-.260619,.716046,0.0*
1,1,.02,-.260619,.716046*
20,1,.02,-.260619,.716046,-.13232,.750424,0.0*
1,1,.02,-.13232,.750424*
20,1,.02,-.13232,.750424,0.0,.762,0.0*
1,1,.02,0.0,.762*
20,1,.02,0.0,.762,.13232,.750424,0.0*
1,1,.02,.13232,.750424*
20,1,.02,.13232,.750424,.260619,.716046,0.0*
1,1,.02,.260619,.716046*
20,1,.02,.260619,.716046,.381,.659911,0.0*
1,1,.02,.381,.659911*
20,1,.02,.381,.659911,.489804,.583726,0.0*
1,1,.02,.489804,.583726*
20,1,.02,.489804,.583726,.583726,.489804,0.0*
1,1,.02,.583726,.489804*
20,1,.02,.583726,.489804,.659911,.381,0.0*
1,1,.02,.659911,.381*
20,1,.02,.659911,.381,.716046,.260619,0.0*
1,1,.02,.716046,.260619*
20,1,.02,.716046,.260619,.750424,.13232,0.0*
1,1,.02,.750424,.13232*
20,1,.02,.750424,.13232,.762,0.0,0.0*
1,1,.02,.762,0.0*
1,1,.02,-.3175,-.381*
20,1,.02,-.3175,-.381,0.0,.381,0.0*
1,1,.02,0.0,.381*
20,1,.02,0.0,.381,.3175,-.381,0.0*
1,1,.02,.3175,-.381*
1,1,.02,.2032,-.1143*
20,1,.02,.2032,-.1143,-.2032,-.1143,0.0*
1,1,.02,-.2032,-.1143*
%
%ADD13MACRO13*%
%AMMACRO11*
1,1,.02,.635,0.0*
20,1,.02,.635,0.0,.625353,-.110267,0.0*
1,1,.02,.625353,-.110267*
20,1,.02,.625353,-.110267,.596705,-.217183,0.0*
1,1,.02,.596705,-.217183*
20,1,.02,.596705,-.217183,.549926,-.3175,0.0*
1,1,.02,.549926,-.3175*
20,1,.02,.549926,-.3175,.486438,-.40817,0.0*
1,1,.02,.486438,-.40817*
20,1,.02,.486438,-.40817,.40817,-.486438,0.0*
1,1,.02,.40817,-.486438*
20,1,.02,.40817,-.486438,.3175,-.549926,0.0*
1,1,.02,.3175,-.549926*
20,1,.02,.3175,-.549926,.217183,-.596705,0.0*
1,1,.02,.217183,-.596705*
20,1,.02,.217183,-.596705,.110267,-.625353,0.0*
1,1,.02,.110267,-.625353*
20,1,.02,.110267,-.625353,0.0,-.635,0.0*
1,1,.02,0.0,-.635*
20,1,.02,0.0,-.635,-.110267,-.625353,0.0*
1,1,.02,-.110267,-.625353*
20,1,.02,-.110267,-.625353,-.217183,-.596705,0.0*
1,1,.02,-.217183,-.596705*
20,1,.02,-.217183,-.596705,-.3175,-.549926,0.0*
1,1,.02,-.3175,-.549926*
20,1,.02,-.3175,-.549926,-.40817,-.486438,0.0*
1,1,.02,-.40817,-.486438*
20,1,.02,-.40817,-.486438,-.486438,-.40817,0.0*
1,1,.02,-.486438,-.40817*
20,1,.02,-.486438,-.40817,-.549926,-.3175,0.0*
1,1,.02,-.549926,-.3175*
20,1,.02,-.549926,-.3175,-.596705,-.217183,0.0*
1,1,.02,-.596705,-.217183*
20,1,.02,-.596705,-.217183,-.625353,-.110267,0.0*
1,1,.02,-.625353,-.110267*
20,1,.02,-.625353,-.110267,-.635,0.0,0.0*
1,1,.02,-.635,0.0*
20,1,.02,-.635,0.0,-.625353,.110267,0.0*
1,1,.02,-.625353,.110267*
20,1,.02,-.625353,.110267,-.596705,.217183,0.0*
1,1,.02,-.596705,.217183*
20,1,.02,-.596705,.217183,-.549926,.3175,0.0*
1,1,.02,-.549926,.3175*
20,1,.02,-.549926,.3175,-.486438,.40817,0.0*
1,1,.02,-.486438,.40817*
20,1,.02,-.486438,.40817,-.40817,.486438,0.0*
1,1,.02,-.40817,.486438*
20,1,.02,-.40817,.486438,-.3175,.549926,0.0*
1,1,.02,-.3175,.549926*
20,1,.02,-.3175,.549926,-.217183,.596705,0.0*
1,1,.02,-.217183,.596705*
20,1,.02,-.217183,.596705,-.110267,.625353,0.0*
1,1,.02,-.110267,.625353*
20,1,.02,-.110267,.625353,0.0,.635,0.0*
1,1,.02,0.0,.635*
20,1,.02,0.0,.635,.110267,.625353,0.0*
1,1,.02,.110267,.625353*
20,1,.02,.110267,.625353,.217183,.596705,0.0*
1,1,.02,.217183,.596705*
20,1,.02,.217183,.596705,.3175,.549926,0.0*
1,1,.02,.3175,.549926*
20,1,.02,.3175,.549926,.40817,.486438,0.0*
1,1,.02,.40817,.486438*
20,1,.02,.40817,.486438,.486438,.40817,0.0*
1,1,.02,.486438,.40817*
20,1,.02,.486438,.40817,.549926,.3175,0.0*
1,1,.02,.549926,.3175*
20,1,.02,.549926,.3175,.596705,.217183,0.0*
1,1,.02,.596705,.217183*
20,1,.02,.596705,.217183,.625353,.110267,0.0*
1,1,.02,.625353,.110267*
20,1,.02,.625353,.110267,.635,0.0,0.0*
1,1,.02,.635,0.0*
1,1,.02,.1905,-.3175*
20,1,.02,.1905,-.3175,.1905,.1058,0.0*
1,1,.02,.1905,.1058*
1,1,.02,.1905,.0318*
20,1,.02,.1905,.0318,.1482,.0741,0.0*
1,1,.02,.1482,.0741*
20,1,.02,.1482,.0741,.0847,.0952,0.0*
1,1,.02,.0847,.0952*
20,1,.02,.0847,.0952,.0106,.1058,0.0*
1,1,.02,.0106,.1058*
20,1,.02,.0106,.1058,-.0635,.0847,0.0*
1,1,.02,-.0635,.0847*
20,1,.02,-.0635,.0847,-.127,.0423,0.0*
1,1,.02,-.127,.0423*
20,1,.02,-.127,.0423,-.1693,-.0212,0.0*
1,1,.02,-.1693,-.0212*
20,1,.02,-.1693,-.0212,-.1905,-.1058,0.0*
1,1,.02,-.1905,-.1058*
20,1,.02,-.1905,-.1058,-.1693,-.1905,0.0*
1,1,.02,-.1693,-.1905*
20,1,.02,-.1693,-.1905,-.127,-.254,0.0*
1,1,.02,-.127,-.254*
20,1,.02,-.127,-.254,-.0635,-.2963,0.0*
1,1,.02,-.0635,-.2963*
20,1,.02,-.0635,-.2963,.0106,-.3175,0.0*
1,1,.02,.0106,-.3175*
20,1,.02,.0106,-.3175,.0847,-.3069,0.0*
1,1,.02,.0847,-.3069*
20,1,.02,.0847,-.3069,.1482,-.2752,0.0*
1,1,.02,.1482,-.2752*
20,1,.02,.1482,-.2752,.1905,-.2329,0.0*
1,1,.02,.1905,-.2329*
%
%ADD11MACRO11*%
%ADD14C,.02*%
G75*
%LPD*%
G75*
G54D10*
X-190000Y-1710000D03*
X-180000Y-1060000D03*
X110000Y-780000D03*
X40000Y-280000D03*
X-210000Y650000D03*
Y1420000D03*
Y2650000D03*
Y3430000D03*
X-200000Y4390000D03*
X210000Y-1720000D03*
X750000Y-1550000D03*
X790000Y-1260000D03*
X810000Y-270000D03*
X390000Y-760000D03*
Y-510000D03*
X510000Y3560000D03*
X860000Y4220000D03*
X490000Y4470000D03*
X480000Y4220000D03*
X1180000Y-1400000D03*
X1470000Y-1180000D03*
X990000Y-1010000D03*
Y-710000D03*
Y-860000D03*
X1430000Y-160000D03*
X1360000Y260000D03*
Y490000D03*
X1350000Y1000000D03*
X1360000Y660000D03*
X1350000Y1110000D03*
X1560000Y1570000D03*
X1470000D03*
X1450000Y1880000D03*
X1550000D03*
X1260000Y2620000D03*
X1270000Y2220000D03*
Y2040000D03*
X1490000Y2920000D03*
X1060000D03*
X1490000Y3500000D03*
X1060000Y4230000D03*
X1850000Y-1320000D03*
X1810000Y-1410000D03*
X1730000Y-740000D03*
X2321410Y372460D03*
X1770000Y590000D03*
X2081410Y582460D03*
X1760000Y740000D03*
Y890000D03*
X1930000Y1640000D03*
Y1800000D03*
X2070000Y1540000D03*
Y1720000D03*
Y1890000D03*
X2180000Y1540000D03*
X2270000Y1890000D03*
X2370000D03*
X2280000Y1540000D03*
X2170000Y1890000D03*
X1770000Y1570000D03*
X1660000D03*
X1770000Y1720000D03*
X1660000Y1880000D03*
X1770000D03*
X1930000Y2320000D03*
X2070000Y2090000D03*
Y2250000D03*
X1930000Y2140000D03*
Y1980000D03*
X2050000Y2940000D03*
X2140000Y3460000D03*
X1930000D03*
X2700000Y-1210000D03*
X2620000Y-490000D03*
X2830000Y-420000D03*
Y-340000D03*
Y-260000D03*
X2550000Y-750000D03*
X2470000Y-160000D03*
X3010000Y470000D03*
X2620000Y-70000D03*
X2830000Y-180000D03*
X2451350Y407630D03*
X2450000Y323820D03*
Y240000D03*
X2420000Y20000D03*
X2970000Y610000D03*
X2580000Y1100000D03*
X2510000Y1170000D03*
X2810000Y680000D03*
X2450000Y490000D03*
X2574610Y867120D03*
X2573480Y795260D03*
X2510000Y830000D03*
X2600000Y1280000D03*
Y1440000D03*
X2490000Y1370000D03*
X3080000Y1280000D03*
X3020500Y1460000D03*
Y1620000D03*
Y1780000D03*
X2380000Y1540000D03*
X2480000D03*
X2470000Y1890000D03*
X2570000Y2170000D03*
Y1990000D03*
X2470000Y2090000D03*
Y2250000D03*
X3020500Y1940000D03*
X2570000Y2630000D03*
Y2550000D03*
X2500000Y2590000D03*
X3022360Y2190000D03*
X3080000Y3350000D03*
X2690000Y2890000D03*
X2540000Y3060000D03*
Y3300000D03*
Y3223820D03*
X2539990Y3140010D03*
X2670000Y3480000D03*
X2410000Y3370000D03*
X3236200Y-1000000D03*
X3730000Y-1040000D03*
X3320000Y-850000D03*
X3660000Y-800000D03*
X3320000Y-610000D03*
X3660000Y-600000D03*
X3300000Y140000D03*
X3410000Y-30000D03*
X3484500Y860000D03*
X3730000Y890000D03*
X3139140Y851090D03*
X3210000Y870000D03*
X3189500Y800000D03*
X3420000Y1210000D03*
X3549500D03*
X3240000Y1280000D03*
X3165500Y1460000D03*
Y1620000D03*
Y1780000D03*
X3310500Y1460000D03*
Y1620000D03*
Y1780000D03*
X3455500Y1460000D03*
Y1620000D03*
Y1780000D03*
X3600000Y1460000D03*
Y1620000D03*
Y1780000D03*
X3745000Y1460000D03*
Y1620000D03*
Y1780000D03*
X3549500Y2521260D03*
X3482870Y2575840D03*
X3340000Y2540000D03*
X3680000Y2140000D03*
X3380000D03*
X3540000D03*
X3165500Y1940000D03*
X3310500D03*
X3455500D03*
X3600000D03*
X3745000D03*
X3096180Y2190000D03*
X3170000D03*
X3220000Y2580000D03*
X3370000Y2930000D03*
X3220000D03*
X3330000Y3500000D03*
X3482870Y3430000D03*
X3230000Y3500000D03*
X4300000Y-1430000D03*
X3940000Y-1440000D03*
X4290000Y-1020000D03*
X3890000Y-260000D03*
X3870000Y-800000D03*
Y-600000D03*
X3890000Y50000D03*
Y390000D03*
X4280000Y440000D03*
Y240000D03*
X4450000Y940000D03*
Y1170000D03*
X4280000Y1120000D03*
X3890000Y851790D03*
X3831830Y809330D03*
X3831520Y887550D03*
X4450000Y1450000D03*
X4280000Y1380000D03*
Y1540000D03*
Y1700000D03*
X4150000Y1380000D03*
Y1540000D03*
Y1700000D03*
Y1860000D03*
X4010000Y1380000D03*
Y1540000D03*
Y1700000D03*
Y1860000D03*
X3890000Y1780000D03*
Y1620000D03*
Y1460000D03*
X4310000Y2430000D03*
X4510000Y2220000D03*
Y2430000D03*
X4410000Y2320000D03*
X3890000Y1940000D03*
X4220000Y2600000D03*
X4030000Y2690000D03*
X4360000Y3110000D03*
X4020000Y3180000D03*
X4030000Y2830000D03*
X5110000Y-1150000D03*
X5170000Y-1610000D03*
X4700000Y-1430000D03*
X5110000Y-900000D03*
X5130000Y-380000D03*
X4660000Y-720000D03*
X5050000Y-610000D03*
X4690000Y282120D03*
X5220000Y30000D03*
X4952760Y1012760D03*
X4590000Y1040000D03*
Y1280000D03*
X4950000Y1743400D03*
X4650000Y1880000D03*
X4955420Y1195420D03*
X4760000Y2000000D03*
X4730000Y2590000D03*
X4600000Y2320000D03*
X4750000Y2130000D03*
X4950000Y2510000D03*
X4680000Y3110000D03*
X4800000Y2780000D03*
X4940000Y3570000D03*
X4950000Y3387340D03*
X5300000Y-900000D03*
X5710000Y-480000D03*
X5310000Y-360000D03*
X5920000Y-490000D03*
X5580000Y-480000D03*
X5440000Y150000D03*
X5300000Y380000D03*
X5360000Y740000D03*
X5300000Y1290000D03*
X5800000Y2020000D03*
X5310000Y2108720D03*
Y2656700D03*
X6020000Y-490000D03*
X6162940Y-270000D03*
X6180000Y-490000D03*
X6550000Y120000D03*
Y640000D03*
X6560000Y1150000D03*
Y2030000D03*
Y3680000D03*
X6550000Y4440000D03*
X9451730Y1925650D03*
G54D11*
X254000Y0D03*
X0D03*
X254000Y254000D03*
Y508000D03*
X0Y254000D03*
Y508000D03*
X254000Y762000D03*
Y1016000D03*
X0Y762000D03*
Y1016000D03*
X254000Y1270000D03*
Y1524000D03*
Y1778000D03*
X0Y1270000D03*
Y1524000D03*
Y1778000D03*
X254000Y2032000D03*
Y2286000D03*
Y2540000D03*
X0Y2032000D03*
Y2286000D03*
Y2540000D03*
X254000Y2794000D03*
X0D03*
X254000Y3302000D03*
Y3048000D03*
X0D03*
Y3302000D03*
Y4064000D03*
X254000D03*
X0Y3810000D03*
X254000D03*
X0Y3556000D03*
X254000D03*
X0Y4572000D03*
X254000D03*
X0Y4318000D03*
X254000D03*
X762000Y0D03*
Y254000D03*
Y508000D03*
Y762000D03*
Y1016000D03*
Y1778000D03*
Y1270000D03*
Y2032000D03*
Y2286000D03*
Y2540000D03*
Y2794000D03*
Y3048000D03*
Y3302000D03*
Y3556000D03*
X1650000Y30000D03*
Y284000D03*
X1270000Y2450000D03*
X1524000D03*
X1990000Y30000D03*
Y284000D03*
X3590000Y90000D03*
Y344000D03*
Y598000D03*
X3700000Y2782000D03*
Y3290000D03*
Y3036000D03*
X4210000Y3500000D03*
X4464000D03*
X4718000D03*
X5998000Y-1570000D03*
X5490000D03*
X5744000D03*
X5588000Y508000D03*
Y0D03*
Y254000D03*
Y1016000D03*
Y762000D03*
Y1778000D03*
Y1524000D03*
Y1270000D03*
Y2692000D03*
Y2184000D03*
Y2438000D03*
Y3200000D03*
Y2946000D03*
Y3962000D03*
Y3708000D03*
Y3454000D03*
Y4470000D03*
Y4216000D03*
X6510000Y-1024000D03*
X6506000Y-1570000D03*
X6252000D03*
X6510000Y-770000D03*
X6350000Y0D03*
X6096000D03*
X6350000Y254000D03*
Y508000D03*
X6096000Y254000D03*
Y508000D03*
X6350000Y762000D03*
Y1016000D03*
X6096000Y762000D03*
Y1016000D03*
X6350000Y1270000D03*
Y1524000D03*
Y1778000D03*
X6096000Y1270000D03*
Y1524000D03*
Y1778000D03*
X6350000Y2032000D03*
Y2286000D03*
Y2540000D03*
X6096000Y2032000D03*
Y2286000D03*
Y2540000D03*
X6350000Y2794000D03*
X6096000D03*
X6350000Y3302000D03*
Y3048000D03*
X6096000D03*
Y3302000D03*
Y4064000D03*
X6350000D03*
X6096000Y3810000D03*
X6350000D03*
X6096000Y3556000D03*
X6350000D03*
X6096000Y4572000D03*
X6350000D03*
X6096000Y4318000D03*
X6350000D03*
X9451730Y498170D03*
G54D12*
X1228440Y2919560D03*
Y3427560D03*
X1995500Y3170000D03*
X1741500Y2916000D03*
X2244440Y3173560D03*
X1741500Y3424000D03*
X9451730Y1211910D03*
G54D13*
X3079500Y-1338000D03*
X3010000Y3590000D03*
X3460500Y-1338000D03*
X4111000Y-1328000D03*
X4492000D03*
X4500000Y2950000D03*
X4873000Y-1328000D03*
X6500000Y-330000D03*
X9451730Y-929310D03*
Y-215570D03*
G54D14*
G01X6674990Y-1840000D02*
Y4760010D01*
X5188000D01*
Y3724000D01*
X1162000D01*
Y4760010D01*
X-324990D01*
Y-1840000D01*
X6674990D01*
G01X8310000Y-1286180D02*
Y4360000D01*
X20593440D01*
Y-1286180D01*
X8310000D01*
G01Y-572440D02*
X20593440D01*
G01X8310000Y141300D02*
X20593440D01*
G01X8310000Y855040D02*
X20593440D01*
G01X8310000Y1568780D02*
X20593440D01*
G01X8589520Y2520010D02*
Y2837510D01*
X8739140D01*
G01X8684010Y2684060D02*
X8589520D01*
G01X8932050Y2837510D02*
X9026530D01*
G01X8979290D02*
Y2520010D01*
G01X8932050D02*
X9026530D01*
G01X9317870Y2678760D02*
X9396620D01*
Y2583510D01*
X9372990Y2551750D01*
X9345430Y2530590D01*
X9306060Y2520010D01*
X9266690Y2530590D01*
X9239130Y2551750D01*
X9215510Y2583510D01*
X9199760Y2620550D01*
X9191880Y2662880D01*
Y2699930D01*
X9199760Y2731670D01*
X9215510Y2768720D01*
X9239130Y2800470D01*
X9262750Y2821630D01*
X9294250Y2837510D01*
X9321810D01*
X9353300Y2826930D01*
X9376930Y2805760D01*
G01X9522600Y2837510D02*
Y2609970D01*
X9538340Y2562330D01*
X9569840Y2530590D01*
X9609210Y2520010D01*
X9648580Y2530590D01*
X9680080Y2562330D01*
X9695820Y2609970D01*
Y2837510D01*
G01X9845430Y2520010D02*
Y2837510D01*
X9943850D01*
X9975350Y2821630D01*
X9995040Y2800470D01*
X10002910Y2758130D01*
X9995040Y2715800D01*
X9971410Y2689350D01*
X9943850Y2673460D01*
X9845430D01*
G01X9943850D02*
X10002910Y2520010D01*
G01X10317870D02*
X10160390D01*
Y2837510D01*
X10317870D01*
G01X10254880Y2684060D02*
X10160390D01*
G01X8310000Y2282520D02*
X20593440D01*
G01X8310000Y2996260D02*
X20593440D01*
G01X8310000Y3710000D02*
X20593440D01*
G01X10101330Y3233750D02*
X10199760Y3551250D01*
X10298190Y3233750D01*
G01X10262750Y3344870D02*
X10136760D01*
G01X10435980Y3551250D02*
Y3233750D01*
X10593460D01*
G01X10750940Y3551250D02*
Y3233750D01*
X10908420D01*
G01X11372990Y3551250D02*
Y3323710D01*
X11388730Y3276070D01*
X11420230Y3244330D01*
X11459600Y3233750D01*
X11498970Y3244330D01*
X11530470Y3276070D01*
X11546210Y3323710D01*
Y3551250D01*
G01X11684010Y3233750D02*
Y3551250D01*
X11865110Y3233750D01*
Y3551250D01*
G01X12042280D02*
X12136760D01*
G01X12089520D02*
Y3233750D01*
G01X12042280D02*
X12136760D01*
G01X12404480Y3551250D02*
Y3233750D01*
G01X12313930Y3551250D02*
X12495030D01*
G01X12636760Y3276070D02*
X12668260Y3249620D01*
X12703690Y3233750D01*
X12735190D01*
X12766680Y3249620D01*
X12790310Y3276070D01*
X12802120Y3313130D01*
X12794250Y3350160D01*
X12774560Y3381910D01*
X12739120Y3403090D01*
X12691880Y3413670D01*
X12664320Y3434830D01*
X12652510Y3471870D01*
X12660390Y3508920D01*
X12680070Y3535370D01*
X12707630Y3551250D01*
X12735190D01*
X12762750Y3540670D01*
X12786370Y3514210D01*
G01X13250930Y3233750D02*
X13349360Y3551250D01*
X13447790Y3233750D01*
G01X13412350Y3344870D02*
X13286360D01*
G01X13585580Y3233750D02*
Y3551250D01*
X13684000D01*
X13715500Y3535370D01*
X13735190Y3514210D01*
X13743060Y3471870D01*
X13735190Y3429540D01*
X13711560Y3403090D01*
X13684000Y3387200D01*
X13585580D01*
G01X13684000D02*
X13743060Y3233750D01*
G01X14058020D02*
X13900540D01*
Y3551250D01*
X14058020D01*
G01X13995030Y3397800D02*
X13900540D01*
G01X14561960Y3551250D02*
X14656440D01*
G01X14609200D02*
Y3233750D01*
G01X14561960D02*
X14656440D01*
G01X14833610D02*
Y3551250D01*
X15014710Y3233750D01*
Y3551250D01*
G01X15451710Y3233750D02*
Y3551250D01*
X15554080Y3286670D01*
X15656450Y3551250D01*
Y3233750D01*
G01X15821800Y3551250D02*
X15916280D01*
G01X15869040D02*
Y3233750D01*
G01X15821800D02*
X15916280D01*
G01X16105260Y3551250D02*
Y3233750D01*
X16262740D01*
G01X16420220Y3551250D02*
Y3233750D01*
X16577700D01*
G01X16766680Y3551250D02*
X16861160D01*
G01X16813920D02*
Y3233750D01*
G01X16766680D02*
X16861160D01*
G01X17026510D02*
Y3551250D01*
X17128880Y3286670D01*
X17231250Y3551250D01*
Y3233750D01*
G01X17522580D02*
X17365100D01*
Y3551250D01*
X17522580D01*
G01X17459590Y3397800D02*
X17365100D01*
G01X17758800Y3551250D02*
Y3233750D01*
G01X17668250Y3551250D02*
X17849350D01*
G01X18152500Y3233750D02*
X17995020D01*
Y3551250D01*
X18152500D01*
G01X18089510Y3397800D02*
X17995020D01*
G01X18309980Y3233750D02*
Y3551250D01*
X18408400D01*
X18439900Y3535370D01*
X18459590Y3514210D01*
X18467460Y3471870D01*
X18459590Y3429540D01*
X18435960Y3403090D01*
X18408400Y3387200D01*
X18309980D01*
G01X18408400D02*
X18467460Y3233750D01*
G01X18621000Y3276070D02*
X18652500Y3249620D01*
X18687930Y3233750D01*
X18719430D01*
X18750920Y3249620D01*
X18774550Y3276070D01*
X18786360Y3313130D01*
X18778490Y3350160D01*
X18758800Y3381910D01*
X18723360Y3403090D01*
X18676120Y3413670D01*
X18648560Y3434830D01*
X18636750Y3471870D01*
X18644630Y3508920D01*
X18664310Y3535370D01*
X18691870Y3551250D01*
X18719430D01*
X18746990Y3540670D01*
X18770610Y3514210D01*
G01X10593460Y2996260D02*
Y-1286180D01*
G01X10428110Y3883750D02*
Y4201250D01*
X10506840D01*
X10538340Y4185370D01*
X10561960Y4164210D01*
X10581650Y4132460D01*
X10597400Y4095410D01*
X10601330Y4042500D01*
X10597400Y3989580D01*
X10581650Y3952540D01*
X10561960Y3920780D01*
X10538340Y3899620D01*
X10506840Y3883750D01*
X10428110D01*
G01X10750940D02*
Y4201250D01*
X10849360D01*
X10880860Y4185370D01*
X10900550Y4164210D01*
X10908420Y4121870D01*
X10900550Y4079540D01*
X10876920Y4053090D01*
X10849360Y4037200D01*
X10750940D01*
G01X10849360D02*
X10908420Y3883750D01*
G01X11097400Y4201250D02*
X11191880D01*
G01X11144640D02*
Y3883750D01*
G01X11097400D02*
X11191880D01*
G01X11380860Y4201250D02*
Y3883750D01*
X11538340D01*
G01X11695820Y4201250D02*
Y3883750D01*
X11853300D01*
G01X12491090Y4174790D02*
X12467470Y4190670D01*
X12439920Y4201250D01*
X12408420D01*
X12372980Y4185370D01*
X12345430Y4158920D01*
X12325740Y4127160D01*
X12309990Y4074250D01*
X12306050Y4026620D01*
X12313930Y3979000D01*
X12325740Y3947250D01*
X12349360Y3915490D01*
X12376920Y3894330D01*
X12404480Y3883750D01*
X12432040D01*
X12459600Y3894330D01*
X12483220Y3910200D01*
X12502910Y3931360D01*
G01X12636760Y3883750D02*
Y4201250D01*
G01X12802120D02*
Y3883750D01*
G01Y4042500D02*
X12636760D01*
G01X12935970Y3883750D02*
X13034400Y4201250D01*
X13132830Y3883750D01*
G01X13097390Y3994870D02*
X12971400D01*
G01X13270620Y3883750D02*
Y4201250D01*
X13369040D01*
X13400540Y4185370D01*
X13420230Y4164210D01*
X13428100Y4121870D01*
X13420230Y4079540D01*
X13396600Y4053090D01*
X13369040Y4037200D01*
X13270620D01*
G01X13369040D02*
X13428100Y3883750D01*
G01X13664320Y4201250D02*
Y3883750D01*
G01X13573770Y4201250D02*
X13754870D01*
G01X13979280Y3873170D02*
X13971400Y3878460D01*
Y3889040D01*
X13979280Y3894330D01*
X13987160Y3889040D01*
Y3878460D01*
X13979280Y3873170D01*
G01Y4016030D02*
X13971400Y4021330D01*
Y4031910D01*
X13979280Y4037200D01*
X13987160Y4031910D01*
Y4021330D01*
X13979280Y4016030D01*
G01X14609200Y4201250D02*
Y3883750D01*
G01X14518650Y4201250D02*
X14699750D01*
G01X14924160Y3883750D02*
X14892660Y3889040D01*
X14865110Y3910200D01*
X14841480Y3941960D01*
X14825730Y3979000D01*
X14817860Y4021330D01*
Y4063670D01*
X14825730Y4106000D01*
X14841480Y4143040D01*
X14865110Y4174790D01*
X14892660Y4195960D01*
X14924160Y4201250D01*
X14955650Y4195960D01*
X14983210Y4174790D01*
X15006840Y4143040D01*
X15022590Y4106000D01*
X15030460Y4063670D01*
Y4021330D01*
X15022590Y3979000D01*
X15006840Y3941960D01*
X14983210Y3910200D01*
X14955650Y3889040D01*
X14924160Y3883750D01*
G01X15160380D02*
Y4201250D01*
X15254870D01*
X15286360Y4185370D01*
X15309990Y4148330D01*
X15317860Y4106000D01*
X15309990Y4063670D01*
X15290300Y4031910D01*
X15254870Y4016030D01*
X15160380D01*
G01X15869040Y4201250D02*
Y3883750D01*
G01X15813920Y4095410D02*
X15924160D01*
G01X16184000Y3883750D02*
X16160380Y3889040D01*
X16136760Y3910200D01*
X16121000Y3947250D01*
X16113130Y3989580D01*
X16121000Y4031910D01*
X16136760Y4068960D01*
X16160380Y4090120D01*
X16184000Y4095410D01*
X16207620Y4090120D01*
X16231240Y4068960D01*
X16246990Y4031910D01*
X16250930Y3989580D01*
X16246990Y3947250D01*
X16231240Y3910200D01*
X16207620Y3889040D01*
X16184000Y3883750D01*
G01X16845410Y4053090D02*
X16861160Y4068960D01*
X16872970Y4095410D01*
X16880850Y4132460D01*
X16872970Y4164210D01*
X16857230Y4185370D01*
X16829670Y4201250D01*
X16723370D01*
Y3883750D01*
X16853290D01*
X16880850Y3904910D01*
X16896600Y3936670D01*
X16904470Y3973710D01*
X16896600Y4010740D01*
X16872970Y4042500D01*
X16845410Y4053090D01*
X16723370D01*
G01X17128880Y3883750D02*
X17097380Y3889040D01*
X17069830Y3910200D01*
X17046200Y3941960D01*
X17030450Y3979000D01*
X17022580Y4021330D01*
Y4063670D01*
X17030450Y4106000D01*
X17046200Y4143040D01*
X17069830Y4174790D01*
X17097380Y4195960D01*
X17128880Y4201250D01*
X17160370Y4195960D01*
X17187930Y4174790D01*
X17211560Y4143040D01*
X17227310Y4106000D01*
X17235180Y4063670D01*
Y4021330D01*
X17227310Y3979000D01*
X17211560Y3941960D01*
X17187930Y3910200D01*
X17160370Y3889040D01*
X17128880Y3883750D01*
G01X17443840Y4201250D02*
Y3883750D01*
G01X17353290Y4201250D02*
X17534390D01*
G01X17758800D02*
Y3883750D01*
G01X17668250Y4201250D02*
X17849350D01*
G01X18073760Y3883750D02*
X18042260Y3889040D01*
X18014710Y3910200D01*
X17991080Y3941960D01*
X17975330Y3979000D01*
X17967460Y4021330D01*
Y4063670D01*
X17975330Y4106000D01*
X17991080Y4143040D01*
X18014710Y4174790D01*
X18042260Y4195960D01*
X18073760Y4201250D01*
X18105250Y4195960D01*
X18132810Y4174790D01*
X18156440Y4143040D01*
X18172190Y4106000D01*
X18180060Y4063670D01*
Y4021330D01*
X18172190Y3979000D01*
X18156440Y3941960D01*
X18132810Y3910200D01*
X18105250Y3889040D01*
X18073760Y3883750D01*
G01X18286350D02*
Y4201250D01*
X18388720Y3936670D01*
X18491090Y4201250D01*
Y3883750D01*
G01X12439910Y2562330D02*
X12471410Y2535880D01*
X12506840Y2520010D01*
X12538340D01*
X12569830Y2535880D01*
X12593460Y2562330D01*
X12605270Y2599390D01*
X12597400Y2636420D01*
X12577710Y2668170D01*
X12542270Y2689350D01*
X12495030Y2699930D01*
X12467470Y2721090D01*
X12455660Y2758130D01*
X12463540Y2795180D01*
X12483220Y2821630D01*
X12510780Y2837510D01*
X12538340D01*
X12565900Y2826930D01*
X12589520Y2800470D01*
G01X12790310Y2837510D02*
X12884790D01*
G01X12837550D02*
Y2520010D01*
G01X12790310D02*
X12884790D01*
G01X13077700Y2837510D02*
X13227320D01*
X13077700Y2520010D01*
X13227320D01*
G01X13546210D02*
X13388730D01*
Y2837510D01*
X13546210D01*
G01X13483220Y2684060D02*
X13388730D01*
G01X12680070Y-1088060D02*
Y-770560D01*
X12632830Y-834060D01*
G01Y-1088060D02*
X12727310D01*
G01X12995030Y-1098640D02*
X12987150Y-1093350D01*
Y-1082770D01*
X12995030Y-1077480D01*
X13002910Y-1082770D01*
Y-1093350D01*
X12995030Y-1098640D01*
G01X13235180Y-823480D02*
X13258810Y-791730D01*
X13286370Y-775850D01*
X13317870Y-770560D01*
X13357230Y-781140D01*
X13384800Y-807600D01*
X13392670Y-839350D01*
X13388730Y-871110D01*
X13372980Y-897560D01*
X13294240Y-950480D01*
X13258810Y-987520D01*
X13235180Y-1040450D01*
X13227310Y-1088060D01*
X13392670D01*
G01X12680070Y-374320D02*
Y-56820D01*
X12632830Y-120320D01*
G01Y-374320D02*
X12727310D01*
G01X12995030Y-384900D02*
X12987150Y-379610D01*
Y-369030D01*
X12995030Y-363740D01*
X13002910Y-369030D01*
Y-379610D01*
X12995030Y-384900D01*
G01X13309990Y-374320D02*
Y-56820D01*
X13262750Y-120320D01*
G01Y-374320D02*
X13357230D01*
G01X12680070Y339420D02*
Y656920D01*
X12632830Y593420D01*
G01Y339420D02*
X12727310D01*
G01X12995030Y328840D02*
X12987150Y334130D01*
Y344710D01*
X12995030Y350000D01*
X13002910Y344710D01*
Y334130D01*
X12995030Y328840D01*
G01X13309990Y656920D02*
X13278490Y646340D01*
X13254870Y619880D01*
X13239120Y588130D01*
X13227310Y545790D01*
X13223380Y498170D01*
X13227310Y450540D01*
X13239120Y408210D01*
X13254870Y376450D01*
X13278490Y350000D01*
X13309990Y339420D01*
X13341480Y350000D01*
X13365110Y376450D01*
X13380860Y408210D01*
X13392670Y450540D01*
X13396600Y498170D01*
X13392670Y545790D01*
X13380860Y588130D01*
X13365110Y619880D01*
X13341480Y646340D01*
X13309990Y656920D01*
G01X12680070Y1370660D02*
X12648570Y1360080D01*
X12624950Y1333620D01*
X12609200Y1301870D01*
X12597390Y1259530D01*
X12593460Y1211910D01*
X12597390Y1164280D01*
X12609200Y1121950D01*
X12624950Y1090190D01*
X12648570Y1063740D01*
X12680070Y1053160D01*
X12711560Y1063740D01*
X12735190Y1090190D01*
X12750940Y1121950D01*
X12762750Y1164280D01*
X12766680Y1211910D01*
X12762750Y1259530D01*
X12750940Y1301870D01*
X12735190Y1333620D01*
X12711560Y1360080D01*
X12680070Y1370660D01*
G01X12995030Y1042580D02*
X12987150Y1047870D01*
Y1058450D01*
X12995030Y1063740D01*
X13002910Y1058450D01*
Y1047870D01*
X12995030Y1042580D01*
G01X13309990Y1053160D02*
X13337550Y1058450D01*
X13369040Y1074320D01*
X13388730Y1100770D01*
X13396600Y1137830D01*
X13388730Y1174860D01*
X13365110Y1206610D01*
X13329670Y1222500D01*
X13290310D01*
X13266680Y1233080D01*
X13246990Y1259530D01*
X13239120Y1296570D01*
X13250940Y1333620D01*
X13278490Y1360080D01*
X13309990Y1370660D01*
X13341480Y1360080D01*
X13369040Y1333620D01*
X13380860Y1296570D01*
X13372980Y1259530D01*
X13353300Y1233080D01*
X13329670Y1222500D01*
X13290310D01*
X13254870Y1206610D01*
X13231250Y1174860D01*
X13223380Y1137830D01*
X13231250Y1100770D01*
X13250940Y1074320D01*
X13282430Y1058450D01*
X13309990Y1053160D01*
G01X12680070Y2084400D02*
X12648570Y2073820D01*
X12624950Y2047360D01*
X12609200Y2015610D01*
X12597390Y1973270D01*
X12593460Y1925650D01*
X12597390Y1878020D01*
X12609200Y1835690D01*
X12624950Y1803930D01*
X12648570Y1777480D01*
X12680070Y1766900D01*
X12711560Y1777480D01*
X12735190Y1803930D01*
X12750940Y1835690D01*
X12762750Y1878020D01*
X12766680Y1925650D01*
X12762750Y1973270D01*
X12750940Y2015610D01*
X12735190Y2047360D01*
X12711560Y2073820D01*
X12680070Y2084400D01*
G01X12995030Y1756320D02*
X12987150Y1761610D01*
Y1772190D01*
X12995030Y1777480D01*
X13002910Y1772190D01*
Y1761610D01*
X12995030Y1756320D01*
G01X13223380Y1830400D02*
X13246990Y1793350D01*
X13278490Y1772190D01*
X13313930Y1766900D01*
X13345430Y1772190D01*
X13376920Y1798640D01*
X13396600Y1830400D01*
X13400540Y1862150D01*
X13392670Y1899180D01*
X13365110Y1925650D01*
X13337550Y1936240D01*
X13302110D01*
G01X13337550D02*
X13361170Y1952110D01*
X13380860Y1978560D01*
X13388730Y2010310D01*
X13380860Y2042070D01*
X13361170Y2068520D01*
X13325740Y2084400D01*
X13290310Y2079110D01*
X13254870Y2057940D01*
G01X15396600Y2996260D02*
Y-1286180D01*
G01X16144630Y-1088060D02*
Y-770560D01*
X16239120D01*
X16270610Y-786440D01*
X16294240Y-823480D01*
X16302110Y-865810D01*
X16294240Y-908140D01*
X16274550Y-939900D01*
X16239120Y-955780D01*
X16144630D01*
G01X16459590Y-770560D02*
Y-1088060D01*
X16617070D01*
G01X16754860D02*
X16853290Y-770560D01*
X16951720Y-1088060D01*
G01X16916280Y-976940D02*
X16790290D01*
G01X17168250Y-770560D02*
Y-1088060D01*
G01X17077700Y-770560D02*
X17258800D01*
G01X17561950Y-1088060D02*
X17404470D01*
Y-770560D01*
X17561950D01*
G01X17498960Y-924010D02*
X17404470D01*
G01X17711560Y-1088060D02*
Y-770560D01*
X17790290D01*
X17821790Y-786440D01*
X17845410Y-807600D01*
X17865100Y-839350D01*
X17880850Y-876400D01*
X17884780Y-929310D01*
X17880850Y-982230D01*
X17865100Y-1019270D01*
X17845410Y-1051030D01*
X17821790Y-1072190D01*
X17790290Y-1088060D01*
X17711560D01*
G01X16144630Y-374320D02*
Y-56820D01*
X16239120D01*
X16270610Y-72700D01*
X16294240Y-109740D01*
X16302110Y-152070D01*
X16294240Y-194400D01*
X16274550Y-226160D01*
X16239120Y-242040D01*
X16144630D01*
G01X16459590Y-56820D02*
Y-374320D01*
X16617070D01*
G01X16754860D02*
X16853290Y-56820D01*
X16951720Y-374320D01*
G01X16916280Y-263200D02*
X16790290D01*
G01X17168250Y-56820D02*
Y-374320D01*
G01X17077700Y-56820D02*
X17258800D01*
G01X17561950Y-374320D02*
X17404470D01*
Y-56820D01*
X17561950D01*
G01X17498960Y-210270D02*
X17404470D01*
G01X17711560Y-374320D02*
Y-56820D01*
X17790290D01*
X17821790Y-72700D01*
X17845410Y-93860D01*
X17865100Y-125610D01*
X17880850Y-162660D01*
X17884780Y-215570D01*
X17880850Y-268490D01*
X17865100Y-305530D01*
X17845410Y-337290D01*
X17821790Y-358450D01*
X17790290Y-374320D01*
X17711560D01*
G01X16144630Y339420D02*
Y656920D01*
X16239120D01*
X16270610Y641040D01*
X16294240Y604000D01*
X16302110Y561670D01*
X16294240Y519340D01*
X16274550Y487580D01*
X16239120Y471700D01*
X16144630D01*
G01X16459590Y656920D02*
Y339420D01*
X16617070D01*
G01X16754860D02*
X16853290Y656920D01*
X16951720Y339420D01*
G01X16916280Y450540D02*
X16790290D01*
G01X17168250Y656920D02*
Y339420D01*
G01X17077700Y656920D02*
X17258800D01*
G01X17561950Y339420D02*
X17404470D01*
Y656920D01*
X17561950D01*
G01X17498960Y503470D02*
X17404470D01*
G01X17711560Y339420D02*
Y656920D01*
X17790290D01*
X17821790Y641040D01*
X17845410Y619880D01*
X17865100Y588130D01*
X17880850Y551080D01*
X17884780Y498170D01*
X17880850Y445250D01*
X17865100Y408210D01*
X17845410Y376450D01*
X17821790Y355290D01*
X17790290Y339420D01*
X17711560D01*
G01X16144630Y1053160D02*
Y1370660D01*
X16239120D01*
X16270610Y1354780D01*
X16294240Y1317740D01*
X16302110Y1275410D01*
X16294240Y1233080D01*
X16274550Y1201320D01*
X16239120Y1185440D01*
X16144630D01*
G01X16459590Y1370660D02*
Y1053160D01*
X16617070D01*
G01X16754860D02*
X16853290Y1370660D01*
X16951720Y1053160D01*
G01X16916280Y1164280D02*
X16790290D01*
G01X17168250Y1370660D02*
Y1053160D01*
G01X17077700Y1370660D02*
X17258800D01*
G01X17561950Y1053160D02*
X17404470D01*
Y1370660D01*
X17561950D01*
G01X17498960Y1217210D02*
X17404470D01*
G01X17711560Y1053160D02*
Y1370660D01*
X17790290D01*
X17821790Y1354780D01*
X17845410Y1333620D01*
X17865100Y1301870D01*
X17880850Y1264820D01*
X17884780Y1211910D01*
X17880850Y1158990D01*
X17865100Y1121950D01*
X17845410Y1090190D01*
X17821790Y1069030D01*
X17790290Y1053160D01*
X17711560D01*
G01X16144630Y1766900D02*
Y2084400D01*
X16239120D01*
X16270610Y2068520D01*
X16294240Y2031480D01*
X16302110Y1989150D01*
X16294240Y1946820D01*
X16274550Y1915060D01*
X16239120Y1899180D01*
X16144630D01*
G01X16459590Y2084400D02*
Y1766900D01*
X16617070D01*
G01X16754860D02*
X16853290Y2084400D01*
X16951720Y1766900D01*
G01X16916280Y1878020D02*
X16790290D01*
G01X17168250Y2084400D02*
Y1766900D01*
G01X17077700Y2084400D02*
X17258800D01*
G01X17561950Y1766900D02*
X17404470D01*
Y2084400D01*
X17561950D01*
G01X17498960Y1930950D02*
X17404470D01*
G01X17711560Y1766900D02*
Y2084400D01*
X17790290D01*
X17821790Y2068520D01*
X17845410Y2047360D01*
X17865100Y2015610D01*
X17880850Y1978560D01*
X17884780Y1925650D01*
X17880850Y1872730D01*
X17865100Y1835690D01*
X17845410Y1803930D01*
X17821790Y1782770D01*
X17790290Y1766900D01*
X17711560D01*
G01X16144630Y2520010D02*
Y2837510D01*
X16239120D01*
X16270610Y2821630D01*
X16294240Y2784590D01*
X16302110Y2742260D01*
X16294240Y2699930D01*
X16274550Y2668170D01*
X16239120Y2652290D01*
X16144630D01*
G01X16459590Y2837510D02*
Y2520010D01*
X16617070D01*
G01X16754860D02*
X16853290Y2837510D01*
X16951720Y2520010D01*
G01X16916280Y2631130D02*
X16790290D01*
G01X17168250Y2837510D02*
Y2520010D01*
G01X17077700Y2837510D02*
X17258800D01*
G01X17561950Y2520010D02*
X17404470D01*
Y2837510D01*
X17561950D01*
G01X17498960Y2684060D02*
X17404470D01*
G01X17711560Y2520010D02*
Y2837510D01*
X17790290D01*
X17821790Y2821630D01*
X17845410Y2800470D01*
X17865100Y2768720D01*
X17880850Y2731670D01*
X17884780Y2678760D01*
X17880850Y2625840D01*
X17865100Y2588800D01*
X17845410Y2557040D01*
X17821790Y2535880D01*
X17790290Y2520010D01*
X17711560D01*
G01X18624940Y2996260D02*
Y-1286180D01*
G01X19522580Y-1040450D02*
X19546190Y-1066900D01*
X19573750Y-1082770D01*
X19609190Y-1088060D01*
X19644630Y-1077480D01*
X19672180Y-1056320D01*
X19691870Y-1019270D01*
X19695800Y-976940D01*
X19687930Y-934610D01*
X19668240Y-908140D01*
X19640680Y-886980D01*
X19613130Y-881690D01*
X19585570Y-886980D01*
X19550140Y-908140D01*
X19561950Y-770560D01*
X19668240D01*
G01X19522580Y-310820D02*
X19546190Y-347870D01*
X19577690Y-369030D01*
X19613130Y-374320D01*
X19644630Y-369030D01*
X19676120Y-342580D01*
X19695800Y-310820D01*
X19699740Y-279070D01*
X19691870Y-242040D01*
X19664310Y-215570D01*
X19636750Y-204980D01*
X19601310D01*
G01X19636750D02*
X19660370Y-189110D01*
X19680060Y-162660D01*
X19687930Y-130910D01*
X19680060Y-99150D01*
X19660370Y-72700D01*
X19624940Y-56820D01*
X19589510Y-62110D01*
X19554070Y-83280D01*
G01X19294230Y339420D02*
Y656920D01*
X19246990Y593420D01*
G01Y339420D02*
X19341470D01*
G01X19522580Y402920D02*
X19546190Y365870D01*
X19577690Y344710D01*
X19613130Y339420D01*
X19644630Y344710D01*
X19676120Y371160D01*
X19695800Y402920D01*
X19699740Y434670D01*
X19691870Y471700D01*
X19664310Y498170D01*
X19636750Y508760D01*
X19601310D01*
G01X19636750D02*
X19660370Y524630D01*
X19680060Y551080D01*
X19687930Y582830D01*
X19680060Y614590D01*
X19660370Y641040D01*
X19624940Y656920D01*
X19589510Y651630D01*
X19554070Y630460D01*
G01X19924150Y656920D02*
X19892650Y646340D01*
X19869030Y619880D01*
X19853280Y588130D01*
X19841470Y545790D01*
X19837540Y498170D01*
X19841470Y450540D01*
X19853280Y408210D01*
X19869030Y376450D01*
X19892650Y350000D01*
X19924150Y339420D01*
X19955640Y350000D01*
X19979270Y376450D01*
X19995020Y408210D01*
X20006830Y450540D01*
X20010760Y498170D01*
X20006830Y545790D01*
X19995020Y588130D01*
X19979270Y619880D01*
X19955640Y646340D01*
X19924150Y656920D01*
G01X19534380Y1185440D02*
X19561950Y1222500D01*
X19585570Y1243660D01*
X19617070Y1254240D01*
X19644630Y1243660D01*
X19664310Y1222500D01*
X19680060Y1190740D01*
X19684000Y1153700D01*
X19680060Y1121950D01*
X19664310Y1090190D01*
X19640680Y1063740D01*
X19613130Y1053160D01*
X19581630Y1063740D01*
X19554070Y1095480D01*
X19538320Y1143120D01*
X19534380Y1196030D01*
X19542260Y1264820D01*
X19554070Y1301870D01*
X19573750Y1338910D01*
X19601310Y1365370D01*
X19628870Y1370660D01*
X19656430Y1360080D01*
X19676120Y1333620D01*
G01X19219420Y2031480D02*
X19243050Y2063230D01*
X19270610Y2079110D01*
X19302110Y2084400D01*
X19341470Y2073820D01*
X19369040Y2047360D01*
X19376910Y2015610D01*
X19372970Y1983850D01*
X19357220Y1957400D01*
X19278480Y1904480D01*
X19243050Y1867440D01*
X19219420Y1814510D01*
X19211550Y1766900D01*
X19376910D01*
G01X19522580Y1814510D02*
X19546190Y1788060D01*
X19573750Y1772190D01*
X19609190Y1766900D01*
X19644630Y1777480D01*
X19672180Y1798640D01*
X19691870Y1835690D01*
X19695800Y1878020D01*
X19687930Y1920350D01*
X19668240Y1946820D01*
X19640680Y1967980D01*
X19613130Y1973270D01*
X19585570Y1967980D01*
X19550140Y1946820D01*
X19561950Y2084400D01*
X19668240D01*
G01X19916270Y1766900D02*
X19924150Y1835690D01*
X19935960Y1893890D01*
X19951710Y1946820D01*
X19971390Y2005020D01*
X20002890Y2084400D01*
X19845410D01*
G01X19294230Y2520010D02*
X19262730Y2525300D01*
X19235180Y2546460D01*
X19211550Y2578220D01*
X19195800Y2615260D01*
X19187930Y2657590D01*
Y2699930D01*
X19195800Y2742260D01*
X19211550Y2779300D01*
X19235180Y2811050D01*
X19262730Y2832220D01*
X19294230Y2837510D01*
X19325720Y2832220D01*
X19353280Y2811050D01*
X19376910Y2779300D01*
X19392660Y2742260D01*
X19400530Y2699930D01*
Y2657590D01*
X19392660Y2615260D01*
X19376910Y2578220D01*
X19353280Y2546460D01*
X19325720Y2525300D01*
X19294230Y2520010D01*
G01X19325720Y2604680D02*
X19372970Y2520010D01*
G01X19609190Y2837510D02*
Y2520010D01*
G01X19518640Y2837510D02*
X19699740D01*
G01X19924150Y2520010D02*
Y2662880D01*
X19845410Y2837510D01*
G01X20002890D02*
X19924150Y2662880D01*
M02*
