G04 ================== begin FILE IDENTIFICATION RECORD ==================*
G04 Layout Name:  X-NUCLEO-IHM07M1_L6230_Nucleo_Shield.brd*
G04 Film Name:    X-NUCLEO-IHM07M1-solder-mask-bottom*
G04 File Format:  Gerber RS274X*
G04 File Origin:  Cadence Allegro 16.6-S023*
G04 Origin Date:  Wed Mar 18 16:01:40 2015*
G04 *
G04 Layer:  PIN/SOLDERMASK_BOTTOM*
G04 Layer:  PACKAGE GEOMETRY/SOLDERMASK_BOTTOM*
G04 *
G04 Offset:    (0.0000 0.0000)*
G04 Mirror:    No*
G04 Mode:      Positive*
G04 Rotation:  0*
G04 FullContactRelief:  No*
G04 UndefLineWidth:     0.0000*
G04 ================== end FILE IDENTIFICATION RECORD ====================*
%FSLAX35Y35*MOMM*%
%IR0*IPPOS*OFA0.00000B0.00000*MIA0B0*SFA1.00000B1.00000*%
%ADD13C,2.3622*%
%ADD10C,1.905*%
%ADD14C,2.159*%
%ADD11R,1.905X1.905*%
%ADD12C,1.778*%
%ADD15C,.18*%
%ADD16C,.0254*%
%ADD17C,.0381*%
G75*
%LPD*%
G75*
G36*
G01X4500000Y1280000D02*
Y2120000D01*
X2370000D01*
Y1280000D01*
X4500000D01*
G37*
G36*
G01X4441740Y-136370D02*
Y-213330D01*
X4384080D01*
Y-190220D01*
X4417860D01*
Y-136370D01*
X4441740D01*
G37*
G36*
G01X4349030Y-136110D02*
X4363250D01*
Y-213840D01*
X4334300D01*
Y-136110D01*
X4349030D01*
G37*
G36*
G01X4623100Y-214090D02*
Y-135860D01*
X4599980D01*
X4583980Y-151860D01*
X4568230Y-136110D01*
X4542830D01*
Y-213580D01*
X4569500D01*
Y-175230D01*
X4582710Y-188690D01*
X4595410Y-175990D01*
Y-214090D01*
X4623100D01*
G37*
G54D10*
X254000Y0D03*
X0D03*
X254000Y254000D03*
Y508000D03*
X0Y254000D03*
Y508000D03*
X254000Y762000D03*
Y1016000D03*
X0Y762000D03*
Y1016000D03*
X254000Y1270000D03*
Y1524000D03*
Y1778000D03*
X0Y1270000D03*
Y1524000D03*
Y1778000D03*
X254000Y2032000D03*
Y2286000D03*
Y2540000D03*
X0Y2032000D03*
Y2286000D03*
Y2540000D03*
X254000Y2794000D03*
X0D03*
X254000Y3302000D03*
Y3048000D03*
X0D03*
Y3302000D03*
Y4064000D03*
X254000D03*
X0Y3810000D03*
X254000D03*
X0Y3556000D03*
X254000D03*
Y4572000D03*
X0Y4318000D03*
X254000D03*
X762000Y0D03*
Y254000D03*
Y508000D03*
Y762000D03*
Y1016000D03*
Y1778000D03*
Y2032000D03*
Y2286000D03*
Y2540000D03*
Y2794000D03*
Y3048000D03*
Y3302000D03*
X1650000Y284000D03*
X1524000Y2450000D03*
X1990000Y284000D03*
X3590000Y344000D03*
Y598000D03*
X3700000Y2782000D03*
Y3036000D03*
X4464000Y3500000D03*
X4718000D03*
X5998000Y-1570000D03*
X5744000D03*
X5588000Y508000D03*
Y254000D03*
Y1016000D03*
Y762000D03*
Y1778000D03*
Y1524000D03*
Y1270000D03*
Y2692000D03*
Y2438000D03*
Y3200000D03*
Y2946000D03*
Y3962000D03*
Y3708000D03*
Y3454000D03*
Y4470000D03*
Y4216000D03*
X6510000Y-1024000D03*
X6506000Y-1570000D03*
X6252000D03*
X6350000Y0D03*
X6096000D03*
X6350000Y254000D03*
Y508000D03*
X6096000Y254000D03*
Y508000D03*
X6350000Y762000D03*
Y1016000D03*
X6096000Y762000D03*
Y1016000D03*
X6350000Y1270000D03*
Y1524000D03*
Y1778000D03*
X6096000Y1270000D03*
Y1524000D03*
Y1778000D03*
X6350000Y2032000D03*
Y2286000D03*
Y2540000D03*
X6096000Y2032000D03*
Y2286000D03*
Y2540000D03*
X6350000Y2794000D03*
X6096000D03*
X6350000Y3302000D03*
Y3048000D03*
X6096000D03*
Y3302000D03*
Y4064000D03*
X6350000D03*
X6096000Y3810000D03*
X6350000D03*
X6096000Y3556000D03*
X6350000D03*
Y4572000D03*
X6096000Y4318000D03*
X6350000D03*
G54D11*
X0Y4572000D03*
X762000Y1270000D03*
Y3556000D03*
X1650000Y30000D03*
X1270000Y2450000D03*
X1990000Y30000D03*
X3590000Y90000D03*
X3700000Y3290000D03*
X4210000Y3500000D03*
X5490000Y-1570000D03*
X5588000Y0D03*
Y2184000D03*
X6510000Y-770000D03*
X6096000Y4572000D03*
G54D12*
X1228440Y2919560D03*
Y3427560D03*
X1995500Y3170000D03*
X1741500Y2916000D03*
X2244440Y3173560D03*
X1741500Y3424000D03*
G54D13*
X3079500Y-1338000D03*
X3460500D03*
X4111000Y-1328000D03*
X4492000D03*
X4873000D03*
G54D14*
X3010000Y3590000D03*
X4500000Y2950000D03*
X6500000Y-330000D03*
G54D15*
G01X450980Y2347350D02*
X444630Y2357000D01*
X440400Y2368260D01*
Y2381130D01*
X446750Y2395610D01*
X457330Y2406870D01*
X470030Y2414910D01*
X491200Y2421350D01*
X510250Y2422960D01*
X529300Y2419740D01*
X542000Y2414910D01*
X554700Y2405260D01*
X563170Y2394000D01*
X567400Y2382740D01*
Y2371480D01*
X563170Y2360220D01*
X556820Y2350570D01*
X548350Y2342520D01*
G01X567400Y2290200D02*
X440400D01*
X567400Y2216200D01*
X440400D01*
G01X567400Y2126880D02*
X539890Y2123660D01*
X516600Y2118830D01*
X495430Y2112400D01*
X472150Y2104360D01*
X440400Y2091490D01*
Y2155830D01*
G01X5784980Y2767350D02*
X5778630Y2777000D01*
X5774400Y2788260D01*
Y2801130D01*
X5780750Y2815610D01*
X5791330Y2826870D01*
X5804030Y2834910D01*
X5825200Y2841350D01*
X5844250Y2842960D01*
X5863300Y2839740D01*
X5876000Y2834910D01*
X5888700Y2825260D01*
X5897170Y2814000D01*
X5901400Y2802740D01*
Y2791480D01*
X5897170Y2780220D01*
X5890820Y2770570D01*
X5882350Y2762520D01*
G01X5901400Y2710200D02*
X5774400D01*
X5901400Y2636200D01*
X5774400D01*
G01X5901400Y2543660D02*
X5774400D01*
X5799800Y2562960D01*
G01X5901400D02*
Y2524360D01*
G01X5774400Y2414120D02*
X5778630Y2426990D01*
X5789220Y2436640D01*
X5801910Y2443080D01*
X5818850Y2447900D01*
X5837900Y2449510D01*
X5856950Y2447900D01*
X5873890Y2443080D01*
X5886590Y2436640D01*
X5897170Y2426990D01*
X5901400Y2414120D01*
X5897170Y2401250D01*
X5886590Y2391600D01*
X5873890Y2385160D01*
X5856950Y2380340D01*
X5837900Y2378730D01*
X5818850Y2380340D01*
X5801910Y2385160D01*
X5789220Y2391600D01*
X5778630Y2401250D01*
X5774400Y2414120D01*
G54D16*
G01X4582400Y270140D02*
X4285220D01*
G01X4582400Y267600D02*
X4285220D01*
G01X4567160Y265060D02*
X4292840D01*
G01X4567160Y262520D02*
X4292840D01*
G01X4567160Y259980D02*
X4292840D01*
G01X4551920Y257440D02*
X4308080D01*
G01X4551920Y254900D02*
X4308080D01*
G01X4551920Y252360D02*
X4308080D01*
G01X4536680Y249820D02*
X4330940D01*
G01X4536680Y247280D02*
X4330940D01*
G01X4536680Y244740D02*
X4330940D01*
G01X4513820Y242200D02*
X4353800D01*
G01X4513820Y239660D02*
X4353800D01*
G01X4513820Y237120D02*
X4353800D01*
G01X4483340Y234580D02*
X4384280D01*
G01X4483340Y232040D02*
X4384280D01*
G01X4483340Y229500D02*
X4384280D01*
G01X4529060Y420000D02*
X4338560D01*
G01X4521440Y417460D02*
X4346180D01*
G01X4521440Y414920D02*
X4346180D01*
G01X4521440Y412380D02*
X4346180D01*
G01X4506200Y409840D02*
X4361420D01*
G01X4506200Y407300D02*
X4361420D01*
G01X4506200Y404760D02*
X4361420D01*
G01X4490960Y402220D02*
X4376660D01*
G01X4490960Y399680D02*
X4376660D01*
G01X4490960Y397140D02*
X4376660D01*
G01X4468100Y394600D02*
X4399520D01*
G01X4468100Y392060D02*
X4399520D01*
G01X4468100Y389520D02*
X4399520D01*
G01X4330940Y348880D02*
X4193780D01*
G01X4330940Y346340D02*
X4193780D01*
G01X4330940Y343800D02*
X4193780D01*
G01X4346180Y341260D02*
X4201400D01*
G01X4346180Y338720D02*
X4201400D01*
G01X4346180Y336180D02*
X4201400D01*
G01X4361420Y333640D02*
X4209020D01*
G01X4361420Y331100D02*
X4209020D01*
G01X4361420Y328560D02*
X4209020D01*
G01X4650980Y326020D02*
X4483340D01*
G01X4384280D02*
X4216640D01*
G01X4650980Y323480D02*
X4483340D01*
G01X4384280D02*
X4216640D01*
G01X4650980Y320940D02*
X4483340D01*
G01X4384280D02*
X4216640D01*
G01X4643360Y318400D02*
X4224260D01*
G01X4643360Y315860D02*
X4224260D01*
G01X4643360Y313320D02*
X4224260D01*
G01X4635740Y310780D02*
X4231880D01*
G01X4635740Y308240D02*
X4231880D01*
G01X4635740Y305700D02*
X4231880D01*
G01X4628120Y303160D02*
X4239500D01*
G01X4628120Y300620D02*
X4239500D01*
G01X4628120Y298080D02*
X4239500D01*
G01X4612880Y295540D02*
X4247120D01*
G01X4612880Y293000D02*
X4247120D01*
G01X4612880Y290460D02*
X4247120D01*
G01X4605260Y287920D02*
X4262360D01*
G01X4605260Y285380D02*
X4262360D01*
G01X4605260Y282840D02*
X4262360D01*
G01X4597640Y280300D02*
X4269980D01*
G01X4597640Y277760D02*
X4269980D01*
G01X4597640Y275220D02*
X4269980D01*
G01X4582400Y272680D02*
X4285220D01*
G01X4254740Y420000D02*
X4155680D01*
G01X4254740Y417460D02*
X4155680D01*
G01X4254740Y414920D02*
X4155680D01*
G01X4254740Y412380D02*
X4155680D01*
G01X4262360Y409840D02*
X4163300D01*
G01X4262360Y407300D02*
X4163300D01*
G01X4262360Y404760D02*
X4163300D01*
G01X4269980Y402220D02*
X4163300D01*
G01X4269980Y399680D02*
X4163300D01*
G01X4269980Y397140D02*
X4163300D01*
G01X4277600Y394600D02*
X4170920D01*
G01X4277600Y392060D02*
X4170920D01*
G01X4277600Y389520D02*
X4170920D01*
G01X4285220Y386980D02*
X4170920D01*
G01X4285220Y384440D02*
X4170920D01*
G01X4285220Y381900D02*
X4170920D01*
G01X4292840Y379360D02*
X4178540D01*
G01X4292840Y376820D02*
X4178540D01*
G01X4292840Y374280D02*
X4178540D01*
G01X4300460Y371740D02*
X4178540D01*
G01X4300460Y369200D02*
X4178540D01*
G01X4300460Y366660D02*
X4178540D01*
G01X4308080Y364120D02*
X4186160D01*
G01X4308080Y361580D02*
X4186160D01*
G01X4308080Y359040D02*
X4186160D01*
G01X4315700Y356500D02*
X4193780D01*
G01X4315700Y353960D02*
X4193780D01*
G01X4315700Y351420D02*
X4193780D01*
G01X4582400Y531760D02*
X4292840D01*
G01X4582400Y529220D02*
X4292840D01*
G01X4582400Y526680D02*
X4292840D01*
G01X4582400Y524140D02*
X4292840D01*
G01X4582400Y521600D02*
X4292840D01*
G01X4582400Y519060D02*
X4292840D01*
G01X4582400Y516520D02*
X4292840D01*
G01X4582400Y513980D02*
X4292840D01*
G01X4582400Y511440D02*
X4292840D01*
G01X4323320Y478420D02*
X4300460D01*
G01X4323320Y475880D02*
X4300460D01*
G01X4323320Y473340D02*
X4300460D01*
G01X4323320Y470800D02*
X4308080D01*
G01X4323320Y468260D02*
X4308080D01*
G01X4323320Y465720D02*
X4308080D01*
G01X4330940Y463180D02*
X4308080D01*
G01X4330940Y460640D02*
X4308080D01*
G01X4330940Y458100D02*
X4308080D01*
G01X4559540Y455560D02*
X4483340D01*
G01X4346180D02*
X4315700D01*
G01X4559540Y453020D02*
X4483340D01*
G01X4346180D02*
X4315700D01*
G01X4559540Y450480D02*
X4483340D01*
G01X4346180D02*
X4315700D01*
G01X4551920Y447940D02*
X4475720D01*
G01X4361420D02*
X4315700D01*
G01X4551920Y445400D02*
X4475720D01*
G01X4361420D02*
X4315700D01*
G01X4551920Y442860D02*
X4475720D01*
G01X4361420D02*
X4315700D01*
G01X4544300Y440320D02*
X4460480D01*
G01X4384280D02*
X4323320D01*
G01X4544300Y437780D02*
X4460480D01*
G01X4384280D02*
X4323320D01*
G01X4544300Y435240D02*
X4460480D01*
G01X4384280D02*
X4323320D01*
G01X4544300Y432700D02*
X4330940D01*
G01X4544300Y430160D02*
X4330940D01*
G01X4544300Y427620D02*
X4330940D01*
G01X4529060Y425080D02*
X4338560D01*
G01X4529060Y422540D02*
X4338560D01*
G01X4475720Y836560D02*
X4391900D01*
G01X4475720Y834020D02*
X4391900D01*
G01X4475720Y831480D02*
X4391900D01*
G01X4513820Y828940D02*
X4361420D01*
G01X4513820Y826400D02*
X4361420D01*
G01X4513820Y823860D02*
X4361420D01*
G01X4536680Y821320D02*
X4338560D01*
G01X4536680Y818780D02*
X4338560D01*
G01X4536680Y816240D02*
X4338560D01*
G01X4551920Y813700D02*
X4315700D01*
G01X4551920Y811160D02*
X4315700D01*
G01X4551920Y808620D02*
X4315700D01*
G01X4567160Y806080D02*
X4300460D01*
G01X4567160Y803540D02*
X4300460D01*
G01X4567160Y801000D02*
X4300460D01*
G01X4582400Y798460D02*
X4292840D01*
G01X4582400Y795920D02*
X4292840D01*
G01X4582400Y793380D02*
X4292840D01*
G01X4597640Y790840D02*
X4277600D01*
G01X4597640Y788300D02*
X4277600D01*
G01X4597640Y785760D02*
X4277600D01*
G01X4605260Y783220D02*
X4262360D01*
G01X4605260Y780680D02*
X4262360D01*
G01X4605260Y778140D02*
X4262360D01*
G01X4620500Y775600D02*
X4254740D01*
G01X4620500Y773060D02*
X4254740D01*
G01X4620500Y770520D02*
X4254740D01*
G01X4628120Y767980D02*
X4247120D01*
G01X4628120Y765440D02*
X4247120D01*
G01X4628120Y762900D02*
X4247120D01*
G01X4635740Y760360D02*
X4239500D01*
G01X4635740Y757820D02*
X4239500D01*
G01X4635740Y755280D02*
X4239500D01*
G01X4643360Y752740D02*
X4224260D01*
G01X4643360Y750200D02*
X4224260D01*
G01X4643360Y747660D02*
X4224260D01*
G01X4650980Y745120D02*
X4475720D01*
G01X4391900D02*
X4216640D01*
G01X4650980Y742580D02*
X4475720D01*
G01X4391900D02*
X4216640D01*
G01X4650980Y740040D02*
X4475720D01*
G01X4391900D02*
X4216640D01*
G01X4361420Y737500D02*
X4209020D01*
G01X4361420Y734960D02*
X4209020D01*
G01X4361420Y732420D02*
X4209020D01*
G01X4346180Y729880D02*
X4201400D01*
G01X4346180Y727340D02*
X4201400D01*
G01X4346180Y724800D02*
X4201400D01*
G01X4330940Y722260D02*
X4193780D01*
G01X4330940Y719720D02*
X4193780D01*
G01X4330940Y717180D02*
X4193780D01*
G01X4323320Y714640D02*
X4193780D01*
G01X4323320Y712100D02*
X4193780D01*
G01X4323320Y709560D02*
X4193780D01*
G01X4460480Y676540D02*
X4407140D01*
G01X4460480Y674000D02*
X4407140D01*
G01X4460480Y671460D02*
X4407140D01*
G01X4490960Y668920D02*
X4376660D01*
G01X4490960Y666380D02*
X4376660D01*
G01X4490960Y663840D02*
X4376660D01*
G01X4506200Y661300D02*
X4361420D01*
G01X4506200Y658760D02*
X4361420D01*
G01X4506200Y656220D02*
X4361420D01*
G01X4513820Y653680D02*
X4346180D01*
G01X4513820Y651140D02*
X4346180D01*
G01X4513820Y648600D02*
X4346180D01*
G01X4529060Y646060D02*
X4338560D01*
G01X4529060Y643520D02*
X4338560D01*
G01X4529060Y640980D02*
X4338560D01*
G01X4536680Y638440D02*
X4330940D01*
G01X4536680Y635900D02*
X4330940D01*
G01X4536680Y633360D02*
X4330940D01*
G01X4544300Y630820D02*
X4323320D01*
G01X4544300Y628280D02*
X4323320D01*
G01X4544300Y625740D02*
X4323320D01*
G01X4551920Y623200D02*
X4315700D01*
G01X4551920Y620660D02*
X4315700D01*
G01X4551920Y618120D02*
X4315700D01*
G01X4551920Y615580D02*
X4468100D01*
G01X4407140D02*
X4308080D01*
G01X4551920Y613040D02*
X4468100D01*
G01X4407140D02*
X4308080D01*
G01X4551920Y610500D02*
X4468100D01*
G01X4407140D02*
X4308080D01*
G01X4559540Y607960D02*
X4475720D01*
G01X4391900D02*
X4308080D01*
G01X4559540Y605420D02*
X4475720D01*
G01X4391900D02*
X4308080D01*
G01X4559540Y602880D02*
X4475720D01*
G01X4391900D02*
X4308080D01*
G01X4376660Y600340D02*
X4300460D01*
G01X4376660Y597800D02*
X4300460D01*
G01X4376660Y595260D02*
X4300460D01*
G01X4369040Y592720D02*
X4300460D01*
G01X4369040Y590180D02*
X4300460D01*
G01X4369040Y587640D02*
X4300460D01*
G01X4369040Y585100D02*
X4300460D01*
G01X4369040Y582560D02*
X4300460D01*
G01X4369040Y580020D02*
X4300460D01*
G01X4361420Y577480D02*
X4292840D01*
G01X4361420Y574940D02*
X4292840D01*
G01X4361420Y572400D02*
X4292840D01*
G01X4361420Y569860D02*
X4292840D01*
G01X4361420Y567320D02*
X4292840D01*
G01X4361420Y564780D02*
X4292840D01*
G01X4353800Y562240D02*
X4292840D01*
G01X4353800Y559700D02*
X4292840D01*
G01X4353800Y557160D02*
X4292840D01*
G01X4582400Y554620D02*
X4292840D01*
G01X4582400Y552080D02*
X4292840D01*
G01X4582400Y549540D02*
X4292840D01*
G01X4582400Y547000D02*
X4292840D01*
G01X4582400Y544460D02*
X4292840D01*
G01X4582400Y541920D02*
X4292840D01*
G01X4582400Y539380D02*
X4292840D01*
G01X4582400Y536840D02*
X4292840D01*
G01X4582400Y534300D02*
X4292840D01*
G01X4224260Y531760D02*
X4132820D01*
G01X4224260Y529220D02*
X4132820D01*
G01X4224260Y526680D02*
X4132820D01*
G01X4224260Y524140D02*
X4132820D01*
G01X4224260Y521600D02*
X4132820D01*
G01X4224260Y519060D02*
X4132820D01*
G01X4224260Y516520D02*
X4132820D01*
G01X4224260Y513980D02*
X4132820D01*
G01X4224260Y511440D02*
X4132820D01*
G01X4224260Y508900D02*
X4132820D01*
G01X4224260Y506360D02*
X4132820D01*
G01X4224260Y503820D02*
X4132820D01*
G01X4224260Y501280D02*
X4132820D01*
G01X4224260Y498740D02*
X4132820D01*
G01X4224260Y496200D02*
X4132820D01*
G01X4224260Y493660D02*
X4140440D01*
G01X4224260Y491120D02*
X4140440D01*
G01X4224260Y488580D02*
X4140440D01*
G01X4231880Y486040D02*
X4140440D01*
G01X4231880Y483500D02*
X4140440D01*
G01X4231880Y480960D02*
X4140440D01*
G01X4231880Y478420D02*
X4140440D01*
G01X4231880Y475880D02*
X4140440D01*
G01X4231880Y473340D02*
X4140440D01*
G01X4231880Y470800D02*
X4140440D01*
G01X4231880Y468260D02*
X4140440D01*
G01X4231880Y465720D02*
X4140440D01*
G01X4239500Y463180D02*
X4140440D01*
G01X4239500Y460640D02*
X4140440D01*
G01X4239500Y458100D02*
X4140440D01*
G01X4239500Y455560D02*
X4148060D01*
G01X4239500Y453020D02*
X4148060D01*
G01X4239500Y450480D02*
X4148060D01*
G01X4239500Y447940D02*
X4148060D01*
G01X4239500Y445400D02*
X4148060D01*
G01X4239500Y442860D02*
X4148060D01*
G01X4247120Y440320D02*
X4148060D01*
G01X4247120Y437780D02*
X4148060D01*
G01X4247120Y435240D02*
X4148060D01*
G01X4247120Y432700D02*
X4148060D01*
G01X4247120Y430160D02*
X4148060D01*
G01X4247120Y427620D02*
X4148060D01*
G01X4254740Y425080D02*
X4155680D01*
G01X4254740Y422540D02*
X4155680D01*
G01X4308080Y707020D02*
X4186160D01*
G01X4308080Y704480D02*
X4186160D01*
G01X4308080Y701940D02*
X4186160D01*
G01X4300460Y699400D02*
X4178540D01*
G01X4300460Y696860D02*
X4178540D01*
G01X4300460Y694320D02*
X4178540D01*
G01X4292840Y691780D02*
X4170920D01*
G01X4292840Y689240D02*
X4170920D01*
G01X4292840Y686700D02*
X4170920D01*
G01X4285220Y684160D02*
X4170920D01*
G01X4285220Y681620D02*
X4170920D01*
G01X4285220Y679080D02*
X4170920D01*
G01X4277600Y676540D02*
X4163300D01*
G01X4277600Y674000D02*
X4163300D01*
G01X4277600Y671460D02*
X4163300D01*
G01X4269980Y668920D02*
X4155680D01*
G01X4269980Y666380D02*
X4155680D01*
G01X4269980Y663840D02*
X4155680D01*
G01X4262360Y661300D02*
X4186160D01*
G01X4170920D02*
X4155680D01*
G01X4262360Y658760D02*
X4186160D01*
G01X4170920D02*
X4155680D01*
G01X4262360Y656220D02*
X4186160D01*
G01X4170920D02*
X4155680D01*
G01X4254740Y653680D02*
X4193780D01*
G01X4163300D02*
X4148060D01*
G01X4254740Y651140D02*
X4193780D01*
G01X4163300D02*
X4148060D01*
G01X4254740Y648600D02*
X4193780D01*
G01X4163300D02*
X4148060D01*
G01X4254740Y646060D02*
X4201400D01*
G01X4155680D02*
X4148060D01*
G01X4254740Y643520D02*
X4201400D01*
G01X4155680D02*
X4148060D01*
G01X4254740Y640980D02*
X4201400D01*
G01X4155680D02*
X4148060D01*
G01X4247120Y638440D02*
X4209020D01*
G01X4247120Y635900D02*
X4209020D01*
G01X4247120Y633360D02*
X4209020D01*
G01X4247120Y630820D02*
X4216640D01*
G01X4186160D02*
X4170920D01*
G01X4247120Y628280D02*
X4216640D01*
G01X4186160D02*
X4170920D01*
G01X4247120Y625740D02*
X4216640D01*
G01X4186160D02*
X4170920D01*
G01X4239500Y623200D02*
X4224260D01*
G01X4193780D02*
X4163300D01*
G01X4239500Y620660D02*
X4224260D01*
G01X4193780D02*
X4163300D01*
G01X4239500Y618120D02*
X4224260D01*
G01X4193780D02*
X4163300D01*
G01X4239500Y615580D02*
X4231880D01*
G01X4201400D02*
X4155680D01*
G01X4239500Y613040D02*
X4231880D01*
G01X4201400D02*
X4155680D01*
G01X4239500Y610500D02*
X4231880D01*
G01X4201400D02*
X4155680D01*
G01X4209020Y607960D02*
X4148060D01*
G01X4209020Y605420D02*
X4148060D01*
G01X4209020Y602880D02*
X4148060D01*
G01X4216640Y600340D02*
X4140440D01*
G01X4216640Y597800D02*
X4140440D01*
G01X4216640Y595260D02*
X4140440D01*
G01X4224260Y592720D02*
X4140440D01*
G01X4224260Y590180D02*
X4140440D01*
G01X4224260Y587640D02*
X4140440D01*
G01X4231880Y585100D02*
X4132820D01*
G01X4231880Y582560D02*
X4132820D01*
G01X4231880Y580020D02*
X4132820D01*
G01X4239500Y577480D02*
X4125200D01*
G01X4239500Y574940D02*
X4125200D01*
G01X4239500Y572400D02*
X4125200D01*
G01X4247120Y569860D02*
X4117580D01*
G01X4247120Y567320D02*
X4117580D01*
G01X4247120Y564780D02*
X4117580D01*
G01X4254740Y562240D02*
X4109960D01*
G01X4254740Y559700D02*
X4109960D01*
G01X4254740Y557160D02*
X4109960D01*
G01X4262360Y554620D02*
X4102340D01*
G01X4262360Y552080D02*
X4102340D01*
G01X4262360Y549540D02*
X4102340D01*
G01X4269980Y547000D02*
X4094720D01*
G01X4269980Y544460D02*
X4094720D01*
G01X4269980Y541920D02*
X4094720D01*
G01X4269980Y539380D02*
X4094720D01*
G01X4269980Y536840D02*
X4094720D01*
G01X4269980Y534300D02*
X4094720D01*
G01X4719560Y420000D02*
X4711940D01*
G01X4719560Y417460D02*
X4704320D01*
G01X4673840D02*
X4612880D01*
G01X4719560Y414920D02*
X4704320D01*
G01X4673840D02*
X4612880D01*
G01X4719560Y412380D02*
X4704320D01*
G01X4673840D02*
X4612880D01*
G01X4711940Y409840D02*
X4696700D01*
G01X4681460D02*
X4605260D01*
G01X4711940Y407300D02*
X4696700D01*
G01X4681460D02*
X4605260D01*
G01X4711940Y404760D02*
X4696700D01*
G01X4681460D02*
X4605260D01*
G01X4711940Y402220D02*
X4597640D01*
G01X4711940Y399680D02*
X4597640D01*
G01X4711940Y397140D02*
X4597640D01*
G01X4704320Y394600D02*
X4597640D01*
G01X4704320Y392060D02*
X4597640D01*
G01X4704320Y389520D02*
X4597640D01*
G01X4704320Y386980D02*
X4590020D01*
G01X4704320Y384440D02*
X4590020D01*
G01X4704320Y381900D02*
X4590020D01*
G01X4696700Y379360D02*
X4582400D01*
G01X4696700Y376820D02*
X4582400D01*
G01X4696700Y374280D02*
X4582400D01*
G01X4689080Y371740D02*
X4567160D01*
G01X4689080Y369200D02*
X4567160D01*
G01X4689080Y366660D02*
X4567160D01*
G01X4689080Y364120D02*
X4559540D01*
G01X4689080Y361580D02*
X4559540D01*
G01X4689080Y359040D02*
X4559540D01*
G01X4681460Y356500D02*
X4551920D01*
G01X4681460Y353960D02*
X4551920D01*
G01X4681460Y351420D02*
X4551920D01*
G01X4673840Y348880D02*
X4536680D01*
G01X4673840Y346340D02*
X4536680D01*
G01X4673840Y343800D02*
X4536680D01*
G01X4666220Y420000D02*
X4620500D01*
G01X4666220Y341260D02*
X4521440D01*
G01X4666220Y338720D02*
X4521440D01*
G01X4666220Y336180D02*
X4521440D01*
G01X4658600Y333640D02*
X4506200D01*
G01X4658600Y331100D02*
X4506200D01*
G01X4658600Y328560D02*
X4506200D01*
G01X4734800Y531760D02*
X4643360D01*
G01X4734800Y529220D02*
X4643360D01*
G01X4734800Y526680D02*
X4643360D01*
G01X4780520Y524140D02*
X4597640D01*
G01X4780520Y521600D02*
X4597640D01*
G01X4780520Y519060D02*
X4597640D01*
G01X4772900Y516520D02*
X4605260D01*
G01X4772900Y513980D02*
X4605260D01*
G01X4772900Y511440D02*
X4605260D01*
G01X4765280Y508900D02*
X4612880D01*
G01X4765280Y506360D02*
X4612880D01*
G01X4765280Y503820D02*
X4612880D01*
G01X4757660Y501280D02*
X4620500D01*
G01X4757660Y498740D02*
X4620500D01*
G01X4757660Y496200D02*
X4620500D01*
G01X4750040Y493660D02*
X4628120D01*
G01X4750040Y491120D02*
X4628120D01*
G01X4750040Y488580D02*
X4628120D01*
G01X4742420Y486040D02*
X4635740D01*
G01X4742420Y483500D02*
X4635740D01*
G01X4742420Y480960D02*
X4635740D01*
G01X4734800Y478420D02*
X4643360D01*
G01X4734800Y475880D02*
X4643360D01*
G01X4734800Y473340D02*
X4643360D01*
G01X4727180Y470800D02*
X4650980D01*
G01X4727180Y468260D02*
X4650980D01*
G01X4727180Y465720D02*
X4650980D01*
G01X4719560Y463180D02*
X4658600D01*
G01X4719560Y460640D02*
X4658600D01*
G01X4719560Y458100D02*
X4658600D01*
G01X4711940Y455560D02*
X4666220D01*
G01X4711940Y453020D02*
X4666220D01*
G01X4711940Y450480D02*
X4666220D01*
G01X4704320Y447940D02*
X4673840D01*
G01X4704320Y445400D02*
X4673840D01*
G01X4704320Y442860D02*
X4673840D01*
G01X4696700Y440320D02*
X4681460D01*
G01X4696700Y437780D02*
X4681460D01*
G01X4696700Y435240D02*
X4681460D01*
G01X4719560Y425080D02*
X4711940D01*
G01X4719560Y422540D02*
X4711940D01*
G01X4673840Y722260D02*
X4536680D01*
G01X4673840Y719720D02*
X4536680D01*
G01X4673840Y717180D02*
X4536680D01*
G01X4673840Y714640D02*
X4551920D01*
G01X4673840Y712100D02*
X4551920D01*
G01X4673840Y709560D02*
X4551920D01*
G01X4681460Y707020D02*
X4559540D01*
G01X4681460Y704480D02*
X4559540D01*
G01X4681460Y701940D02*
X4559540D01*
G01X4689080Y699400D02*
X4567160D01*
G01X4689080Y696860D02*
X4567160D01*
G01X4689080Y694320D02*
X4567160D01*
G01X4689080Y691780D02*
X4574780D01*
G01X4689080Y689240D02*
X4574780D01*
G01X4689080Y686700D02*
X4574780D01*
G01X4696700Y684160D02*
X4582400D01*
G01X4696700Y681620D02*
X4582400D01*
G01X4696700Y679080D02*
X4582400D01*
G01X4696700Y676540D02*
X4590020D01*
G01X4696700Y674000D02*
X4590020D01*
G01X4696700Y671460D02*
X4590020D01*
G01X4704320Y668920D02*
X4597640D01*
G01X4704320Y666380D02*
X4597640D01*
G01X4704320Y663840D02*
X4597640D01*
G01X4704320Y661300D02*
X4605260D01*
G01X4704320Y658760D02*
X4605260D01*
G01X4704320Y656220D02*
X4605260D01*
G01X4711940Y653680D02*
X4612880D01*
G01X4711940Y651140D02*
X4612880D01*
G01X4711940Y648600D02*
X4612880D01*
G01X4711940Y646060D02*
X4612880D01*
G01X4711940Y643520D02*
X4612880D01*
G01X4711940Y640980D02*
X4612880D01*
G01X4719560Y638440D02*
X4620500D01*
G01X4719560Y635900D02*
X4620500D01*
G01X4719560Y633360D02*
X4620500D01*
G01X4719560Y630820D02*
X4620500D01*
G01X4719560Y628280D02*
X4620500D01*
G01X4719560Y625740D02*
X4620500D01*
G01X4719560Y623200D02*
X4628120D01*
G01X4719560Y620660D02*
X4628120D01*
G01X4719560Y618120D02*
X4628120D01*
G01X4727180Y615580D02*
X4628120D01*
G01X4727180Y613040D02*
X4628120D01*
G01X4727180Y610500D02*
X4628120D01*
G01X4727180Y607960D02*
X4635740D01*
G01X4727180Y605420D02*
X4635740D01*
G01X4727180Y602880D02*
X4635740D01*
G01X4727180Y600340D02*
X4635740D01*
G01X4727180Y597800D02*
X4635740D01*
G01X4727180Y595260D02*
X4635740D01*
G01X4727180Y592720D02*
X4635740D01*
G01X4727180Y590180D02*
X4635740D01*
G01X4727180Y587640D02*
X4635740D01*
G01X4727180Y585100D02*
X4635740D01*
G01X4727180Y582560D02*
X4635740D01*
G01X4727180Y580020D02*
X4635740D01*
G01X4734800Y577480D02*
X4643360D01*
G01X4734800Y574940D02*
X4643360D01*
G01X4734800Y572400D02*
X4643360D01*
G01X4734800Y569860D02*
X4643360D01*
G01X4734800Y567320D02*
X4643360D01*
G01X4734800Y564780D02*
X4643360D01*
G01X4734800Y562240D02*
X4643360D01*
G01X4734800Y559700D02*
X4643360D01*
G01X4734800Y557160D02*
X4643360D01*
G01X4734800Y554620D02*
X4643360D01*
G01X4734800Y552080D02*
X4643360D01*
G01X4734800Y549540D02*
X4643360D01*
G01X4734800Y547000D02*
X4643360D01*
G01X4734800Y544460D02*
X4643360D01*
G01X4734800Y541920D02*
X4643360D01*
G01X4734800Y539380D02*
X4643360D01*
G01X4734800Y536840D02*
X4643360D01*
G01X4734800Y534300D02*
X4643360D01*
G01X4582400Y508900D02*
X4506200D01*
G01X4582400Y506360D02*
X4506200D01*
G01X4582400Y503820D02*
X4506200D01*
G01X4582400Y501280D02*
X4506200D01*
G01X4582400Y498740D02*
X4506200D01*
G01X4582400Y496200D02*
X4506200D01*
G01X4574780Y493660D02*
X4506200D01*
G01X4574780Y491120D02*
X4506200D01*
G01X4574780Y488580D02*
X4506200D01*
G01X4574780Y486040D02*
X4506200D01*
G01X4574780Y483500D02*
X4506200D01*
G01X4574780Y480960D02*
X4506200D01*
G01X4574780Y478420D02*
X4498580D01*
G01X4574780Y475880D02*
X4498580D01*
G01X4574780Y473340D02*
X4498580D01*
G01X4567160Y470800D02*
X4498580D01*
G01X4567160Y468260D02*
X4498580D01*
G01X4567160Y465720D02*
X4498580D01*
G01X4567160Y463180D02*
X4490960D01*
G01X4567160Y460640D02*
X4490960D01*
G01X4567160Y458100D02*
X4490960D01*
G01X4643360Y447940D02*
X4628120D01*
G01X4643360Y445400D02*
X4628120D01*
G01X4643360Y442860D02*
X4628120D01*
G01X4650980Y440320D02*
X4628120D01*
G01X4650980Y437780D02*
X4628120D01*
G01X4650980Y435240D02*
X4628120D01*
G01X4658600Y432700D02*
X4620500D01*
G01X4658600Y430160D02*
X4620500D01*
G01X4658600Y427620D02*
X4620500D01*
G01X4666220Y425080D02*
X4620500D01*
G01X4666220Y422540D02*
X4620500D01*
G01X4658600Y737500D02*
X4506200D01*
G01X4658600Y734960D02*
X4506200D01*
G01X4658600Y732420D02*
X4506200D01*
G01X4666220Y729880D02*
X4521440D01*
G01X4666220Y727340D02*
X4521440D01*
G01X4666220Y724800D02*
X4521440D01*
G01X4567160Y600340D02*
X4490960D01*
G01X4567160Y597800D02*
X4490960D01*
G01X4567160Y595260D02*
X4490960D01*
G01X4567160Y592720D02*
X4490960D01*
G01X4567160Y590180D02*
X4490960D01*
G01X4567160Y587640D02*
X4490960D01*
G01X4574780Y585100D02*
X4498580D01*
G01X4574780Y582560D02*
X4498580D01*
G01X4574780Y580020D02*
X4498580D01*
G01X4574780Y577480D02*
X4506200D01*
G01X4574780Y574940D02*
X4506200D01*
G01X4574780Y572400D02*
X4506200D01*
G01X4574780Y569860D02*
X4506200D01*
G01X4574780Y567320D02*
X4506200D01*
G01X4574780Y564780D02*
X4506200D01*
G01X4574780Y562240D02*
X4513820D01*
G01X4574780Y559700D02*
X4513820D01*
G01X4574780Y557160D02*
X4513820D01*
G54D17*
G01X4421420Y-333980D02*
X4393480D01*
G01X4020100Y-354300D02*
X3992160D01*
G01X4352840Y-333980D02*
X4322360D01*
G01X4299500D02*
X4291880D01*
G01X4020100Y-356840D02*
X3992160D01*
G01X4266480Y-333980D02*
X4208060D01*
G01X4177580D02*
X4144560D01*
G01X4020100Y-359380D02*
X3992160D01*
G01X4020100Y-333980D02*
X3992160D01*
G01X4020100Y-361920D02*
X3992160D01*
G01X4020100Y-364460D02*
X3992160D01*
G01X4528100Y-336520D02*
X4472220D01*
G01X4020100Y-367000D02*
X3992160D01*
G01X4464600Y-336520D02*
X4454440D01*
G01X4413800D02*
X4401100D01*
G01X4020100Y-369540D02*
X3992160D01*
G01X4345220Y-336520D02*
X4329980D01*
G01X4302040D02*
X4291880D01*
G01X4020100Y-372080D02*
X3992160D01*
G01X4266480Y-336520D02*
X4208060D01*
G01X4167420D02*
X4152180D01*
G01X4020100Y-374620D02*
X3992160D01*
G01X4020100Y-336520D02*
X3992160D01*
G01X4020100Y-377160D02*
X3992160D01*
G01X4020100Y-339060D02*
X3992160D01*
G01X4020100Y-379700D02*
X3992160D01*
G01X4020100Y-341600D02*
X3992160D01*
G01X4020100Y-382240D02*
X3992160D01*
G01X4020100Y-344140D02*
X3992160D01*
G01X4020100Y-384780D02*
X3992160D01*
G01X4020100Y-346680D02*
X3992160D01*
G01X4020100Y-387320D02*
X3992160D01*
G01X4020100Y-349220D02*
X3992160D01*
G01X4020100Y-389860D02*
X3992160D01*
G01X4020100Y-351760D02*
X3992160D01*
G01X4500160Y-300960D02*
X4477300D01*
G01X4454440D02*
X4446820D01*
G01X4431580D02*
X4378240D01*
G01X4363000D02*
X4342680D01*
G01X4332520D02*
X4312200D01*
G01X4291880D02*
X4284260D01*
G01X4266480D02*
X4210600D01*
G01X4195360D02*
X4172500D01*
G01X4020100D02*
X3992160D01*
G01X4505240Y-303500D02*
X4479840D01*
G01X4454440D02*
X4446820D01*
G01X4429040D02*
X4378240D01*
G01X4350300D02*
X4345220D01*
G01X4329980D02*
X4312200D01*
G01X4291880D02*
X4284260D01*
G01X4266480D02*
X4210600D01*
G01X4195360D02*
X4172500D01*
G01X4020100D02*
X3992160D01*
G01X4507780Y-306040D02*
X4482380D01*
G01X4456980D02*
X4446820D01*
G01X4426500D02*
X4401100D01*
G01X4398560D02*
X4378240D01*
G01X4329980D02*
X4309660D01*
G01X4294420D02*
X4284260D01*
G01X4266480D02*
X4210600D01*
G01X4195360D02*
X4172500D01*
G01X4020100D02*
X3992160D01*
G01X4510320Y-308580D02*
X4484920D01*
G01X4456980D02*
X4446820D01*
G01X4423960D02*
X4403640D01*
G01X4398560D02*
X4378240D01*
G01X4329980D02*
X4309660D01*
G01X4294420D02*
X4284260D01*
G01X4266480D02*
X4243620D01*
G01X4192820D02*
X4172500D01*
G01X4152180D02*
X4149640D01*
G01X4020100D02*
X3992160D01*
G01X4456980Y-311120D02*
X4449360D01*
G01X4418880D02*
X4408720D01*
G01X4398560D02*
X4380780D01*
G01X4329980D02*
X4309660D01*
G01X4294420D02*
X4286800D01*
G01X4266480D02*
X4243620D01*
G01X4192820D02*
X4172500D01*
G01X4152180D02*
X4139480D01*
G01X4020100D02*
X3992160D01*
G01X4456980Y-313660D02*
X4449360D01*
G01X4398560D02*
X4380780D01*
G01X4329980D02*
X4309660D01*
G01X4294420D02*
X4286800D01*
G01X4266480D02*
X4243620D01*
G01X4192820D02*
X4172500D01*
G01X4152180D02*
X4129320D01*
G01X4020100D02*
X3992160D01*
G01X4459520Y-316200D02*
X4449360D01*
G01X4398560D02*
X4380780D01*
G01X4347760D02*
X4345220D01*
G01X4329980D02*
X4312200D01*
G01X4296960D02*
X4286800D01*
G01X4266480D02*
X4243620D01*
G01X4192820D02*
X4169960D01*
G01X4154720D02*
X4131860D01*
G01X4020100D02*
X3992160D01*
G01X4459520Y-318740D02*
X4449360D01*
G01X4413800D02*
X4411260D01*
G01X4398560D02*
X4380780D01*
G01X4365540D02*
X4345220D01*
G01X4329980D02*
X4312200D01*
G01X4296960D02*
X4286800D01*
G01X4266480D02*
X4243620D01*
G01X4190280D02*
X4167420D01*
G01X4157260D02*
X4131860D01*
G01X4020100D02*
X3992160D01*
G01X4459520Y-321280D02*
X4451900D01*
G01X4431580D02*
X4411260D01*
G01X4401100D02*
X4383320D01*
G01X4363000D02*
X4345220D01*
G01X4329980D02*
X4312200D01*
G01X4296960D02*
X4289340D01*
G01X4266480D02*
X4208060D01*
G01X4190280D02*
X4131860D01*
G01X4020100D02*
X3992160D01*
G01X4523020Y-323820D02*
X4472220D01*
G01X4459520D02*
X4451900D01*
G01X4429040D02*
X4408720D01*
G01X4401100D02*
X4383320D01*
G01X4363000D02*
X4342680D01*
G01X4332520D02*
X4314740D01*
G01X4296960D02*
X4289340D01*
G01X4266480D02*
X4208060D01*
G01X4187740D02*
X4134400D01*
G01X4020100D02*
X3992160D01*
G01X4523020Y-326360D02*
X4472220D01*
G01X4462060D02*
X4451900D01*
G01X4429040D02*
X4385860D01*
G01X4360460D02*
X4314740D01*
G01X4299500D02*
X4289340D01*
G01X4266480D02*
X4208060D01*
G01X4187740D02*
X4136940D01*
G01X4020100D02*
X3992160D01*
G01X4525560Y-328900D02*
X4472220D01*
G01X4462060D02*
X4451900D01*
G01X4426500D02*
X4385860D01*
G01X4360460D02*
X4317280D01*
G01X4299500D02*
X4289340D01*
G01X4266480D02*
X4208060D01*
G01X4185200D02*
X4136940D01*
G01X4020100D02*
X3992160D01*
G01X4525560Y-331440D02*
X4472220D01*
G01X4462060D02*
X4454440D01*
G01X4423960D02*
X4388400D01*
G01X4357920D02*
X4319820D01*
G01X4299500D02*
X4291880D01*
G01X4266480D02*
X4208060D01*
G01X4182660D02*
X4139480D01*
G01X4020100D02*
X3992160D01*
G01X4525560Y-333980D02*
X4472220D01*
G01X4462060D02*
X4454440D01*
G01X4020100Y-392400D02*
X3992160D01*
G01X4020100Y-394940D02*
X3992160D01*
G01X4020100Y-397480D02*
X3992160D01*
G01X4871000Y-400020D02*
X3992160D01*
G01X4871000Y-402560D02*
X3992160D01*
G01X4871000Y-405100D02*
X3992160D01*
G01X4871000Y-407640D02*
X3992160D01*
G01X4871000Y-410180D02*
X3992160D01*
G01X4871000Y-412720D02*
X3992160D01*
G01X4871000Y-415260D02*
X3992160D01*
G01X4871000Y-417800D02*
X3992160D01*
G01X4871000Y-420340D02*
X3992160D01*
G01X4871000Y-422880D02*
X3992160D01*
G01X4871000Y-425420D02*
X3992160D01*
G01X4871000Y-427960D02*
X3992160D01*
G01X4213140Y14000D02*
X4114080D01*
G01X4020100D02*
X3992160D01*
G01X4497620Y11460D02*
X4449360D01*
G01X4429040D02*
X4276640D01*
G01X4205520D02*
X4111540D01*
G01X4020100D02*
X3992160D01*
G01X4497620Y8920D02*
X4449360D01*
G01X4429040D02*
X4276640D01*
G01X4197900D02*
X4111540D01*
G01X4020100D02*
X3992160D01*
G01X4497620Y6380D02*
X4449360D01*
G01X4429040D02*
X4276640D01*
G01X4187740D02*
X4109000D01*
G01X4020100D02*
X3992160D01*
G01X4497620Y3840D02*
X4449360D01*
G01X4429040D02*
X4375700D01*
G01X4329980D02*
X4276640D01*
G01X4177580D02*
X4109000D01*
G01X4020100D02*
X3992160D01*
G01X4497620Y1300D02*
X4449360D01*
G01X4429040D02*
X4375700D01*
G01X4329980D02*
X4276640D01*
G01X4169960D02*
X4109000D01*
G01X4020100D02*
X3992160D01*
G01X4497620Y-1240D02*
X4449360D01*
G01X4429040D02*
X4375700D01*
G01X4329980D02*
X4276640D01*
G01X4233460D02*
X4200440D01*
G01X4167420D02*
X4109000D01*
G01X4020100D02*
X3992160D01*
G01X4497620Y-3780D02*
X4449360D01*
G01X4429040D02*
X4375700D01*
G01X4329980D02*
X4276640D01*
G01X4253780D02*
X4200440D01*
G01X4164880D02*
X4109000D01*
G01X4020100D02*
X3992160D01*
G01X4497620Y-6320D02*
X4449360D01*
G01X4429040D02*
X4375700D01*
G01X4329980D02*
X4276640D01*
G01X4253780D02*
X4200440D01*
G01X4162340D02*
X4109000D01*
G01X4020100D02*
X3992160D01*
G01X4497620Y-8860D02*
X4449360D01*
G01X4429040D02*
X4375700D01*
G01X4329980D02*
X4276640D01*
G01X4253780D02*
X4197900D01*
G01X4162340D02*
X4109000D01*
G01X4020100D02*
X3992160D01*
G01X4500160Y-11400D02*
X4449360D01*
G01X4429040D02*
X4375700D01*
G01X4329980D02*
X4276640D01*
G01X4253780D02*
X4197900D01*
G01X4162340D02*
X4109000D01*
G01X4020100D02*
X3992160D01*
G01X4500160Y-13940D02*
X4451900D01*
G01X4429040D02*
X4375700D01*
G01X4329980D02*
X4276640D01*
G01X4251240D02*
X4197900D01*
G01X4162340D02*
X4109000D01*
G01X4020100D02*
X3992160D01*
G01X4500160Y-16480D02*
X4451900D01*
G01X4429040D02*
X4375700D01*
G01X4329980D02*
X4276640D01*
G01X4251240D02*
X4195360D01*
G01X4164880D02*
X4109000D01*
G01X4020100D02*
X3992160D01*
G01X4502700Y-19020D02*
X4451900D01*
G01X4429040D02*
X4375700D01*
G01X4329980D02*
X4276640D01*
G01X4251240D02*
X4192820D01*
G01X4164880D02*
X4111540D01*
G01X4020100D02*
X3992160D01*
G01X4502700Y-21560D02*
X4454440D01*
G01X4429040D02*
X4375700D01*
G01X4329980D02*
X4276640D01*
G01X4251240D02*
X4190280D01*
G01X4167420D02*
X4111540D01*
G01X4020100D02*
X3992160D01*
G01X4505240Y-24100D02*
X4454440D01*
G01X4429040D02*
X4375700D01*
G01X4329980D02*
X4276640D01*
G01X4248700D02*
X4185200D01*
G01X4172500D02*
X4111540D01*
G01X4020100D02*
X3992160D01*
G01X4510320Y-26640D02*
X4454440D01*
G01X4429040D02*
X4375700D01*
G01X4329980D02*
X4276640D01*
G01X4248700D02*
X4114080D01*
G01X4020100D02*
X3992160D01*
G01X4573820Y-29180D02*
X4456980D01*
G01X4429040D02*
X4375700D01*
G01X4329980D02*
X4276640D01*
G01X4246160D02*
X4114080D01*
G01X4020100D02*
X3992160D01*
G01X4571280Y-31720D02*
X4459520D01*
G01X4429040D02*
X4375700D01*
G01X4329980D02*
X4276640D01*
G01X4246160D02*
X4116620D01*
G01X4020100D02*
X3992160D01*
G01X4571280Y-34260D02*
X4459520D01*
G01X4429040D02*
X4375700D01*
G01X4329980D02*
X4276640D01*
G01X4243620D02*
X4119160D01*
G01X4020100D02*
X3992160D01*
G01X4568740Y-36800D02*
X4462060D01*
G01X4429040D02*
X4375700D01*
G01X4329980D02*
X4276640D01*
G01X4241080D02*
X4119160D01*
G01X4020100D02*
X3992160D01*
G01X4566200Y-39340D02*
X4464600D01*
G01X4429040D02*
X4375700D01*
G01X4329980D02*
X4276640D01*
G01X4238540D02*
X4121700D01*
G01X4020100D02*
X3992160D01*
G01X4563660Y-41880D02*
X4467140D01*
G01X4429040D02*
X4375700D01*
G01X4329980D02*
X4276640D01*
G01X4238540D02*
X4124240D01*
G01X4020100D02*
X3992160D01*
G01X4561120Y-44420D02*
X4469680D01*
G01X4429040D02*
X4375700D01*
G01X4329980D02*
X4276640D01*
G01X4236000D02*
X4129320D01*
G01X4020100D02*
X3992160D01*
G01X4558580Y-46960D02*
X4472220D01*
G01X4429040D02*
X4375700D01*
G01X4329980D02*
X4276640D01*
G01X4230920D02*
X4131860D01*
G01X4020100D02*
X3992160D01*
G01X4553500Y-49500D02*
X4477300D01*
G01X4429040D02*
X4375700D01*
G01X4329980D02*
X4276640D01*
G01X4228380D02*
X4136940D01*
G01X4020100D02*
X3992160D01*
G01X4548420Y-52040D02*
X4482380D01*
G01X4429040D02*
X4375700D01*
G01X4329980D02*
X4276640D01*
G01X4223300D02*
X4142020D01*
G01X4020100D02*
X3992160D01*
G01X4543340Y-54580D02*
X4487460D01*
G01X4429040D02*
X4375700D01*
G01X4329980D02*
X4276640D01*
G01X4215680D02*
X4147100D01*
G01X4020100D02*
X3992160D01*
G01X4205520Y-57120D02*
X4157260D01*
G01X4020100D02*
X3992160D01*
G01X4020100Y-59660D02*
X3992160D01*
G01X4020100Y-62200D02*
X3992160D01*
G01X4020100Y-64740D02*
X3992160D01*
G01X4020100Y-67280D02*
X3992160D01*
G01X4020100Y-69820D02*
X3992160D01*
G01X4020100Y-72360D02*
X3992160D01*
G01X4020100Y-74900D02*
X3992160D01*
G01X4020100Y-77440D02*
X3992160D01*
G01X4020100Y-79980D02*
X3992160D01*
G01X4020100Y-82520D02*
X3992160D01*
G01X4020100Y-85060D02*
X3992160D01*
G01X4020100Y-87600D02*
X3992160D01*
G01X4020100Y-90140D02*
X3992160D01*
G01X4020100Y-92680D02*
X3992160D01*
G01X4020100Y-95220D02*
X3992160D01*
G01X4020100Y-97760D02*
X3992160D01*
G01X4020100Y-100300D02*
X3992160D01*
G01X4020100Y-102840D02*
X3992160D01*
G01X4020100Y-105380D02*
X3992160D01*
G01X4020100Y-107920D02*
X3992160D01*
G01X4020100Y-110460D02*
X3992160D01*
G01X4020100Y-113000D02*
X3992160D01*
G01X4020100Y-115540D02*
X3992160D01*
G01X4020100Y-118080D02*
X3992160D01*
G01X4020100Y-120620D02*
X3992160D01*
G01X4020100Y-123160D02*
X3992160D01*
G01X4020100Y-125700D02*
X3992160D01*
G01X4020100Y-128240D02*
X3992160D01*
G01X4020100Y-130780D02*
X3992160D01*
G01X4020100Y-133320D02*
X3992160D01*
G01X4020100Y-135860D02*
X3992160D01*
G01X4523020Y-137130D02*
X4472220D01*
G01X4290610Y-136110D02*
X4260130D01*
G01X4217710Y-135100D02*
X4194850D01*
G01X4164370D02*
X4141510D01*
G01X4128300D02*
X4049560D01*
G01X4020100Y-138400D02*
X3992160D01*
G01X4523020Y-139670D02*
X4467140D01*
G01X4290610Y-138650D02*
X4260130D01*
G01X4217710Y-137640D02*
X4192310D01*
G01X4164370D02*
X4141510D01*
G01X4128300D02*
X4049560D01*
G01X4020100Y-140940D02*
X3992160D01*
G01X4523020Y-142210D02*
X4464600D01*
G01X4290610Y-141190D02*
X4260130D01*
G01X4217710Y-140180D02*
X4192310D01*
G01X4164370D02*
X4141510D01*
G01X4128300D02*
X4049560D01*
G01X4020100Y-143480D02*
X3992160D01*
G01X4523020Y-144750D02*
X4462060D01*
G01X4293150Y-143730D02*
X4257590D01*
G01X4217710Y-142720D02*
X4189770D01*
G01X4164370D02*
X4141510D01*
G01X4128300D02*
X4049560D01*
G01X4020100Y-146020D02*
X3992160D01*
G01X4523020Y-147290D02*
X4462060D01*
G01X4293150Y-146270D02*
X4257590D01*
G01X4217710Y-145260D02*
X4187230D01*
G01X4164370D02*
X4141510D01*
G01X4128300D02*
X4049560D01*
G01X4020100Y-148560D02*
X3992160D01*
G01X4523020Y-149830D02*
X4459520D01*
G01X4293150Y-148810D02*
X4257590D01*
G01X4217710Y-147800D02*
X4184690D01*
G01X4164370D02*
X4141510D01*
G01X4128300D02*
X4049560D01*
G01X4020100Y-151100D02*
X3992160D01*
G01X4523020Y-152370D02*
X4459520D01*
G01X4295690Y-151350D02*
X4255050D01*
G01X4217710Y-150340D02*
X4184690D01*
G01X4164370D02*
X4141510D01*
G01X4128300D02*
X4049560D01*
G01X4020100Y-153640D02*
X3992160D01*
G01X4487460Y-154910D02*
X4459520D01*
G01X4295690Y-153890D02*
X4255050D01*
G01X4217710Y-152880D02*
X4182150D01*
G01X4164370D02*
X4141510D01*
G01X4102900D02*
X4074960D01*
G01X4020100Y-156180D02*
X3992160D01*
G01X4484920Y-157450D02*
X4456980D01*
G01X4298230Y-156430D02*
X4252510D01*
G01X4217710Y-155420D02*
X4179610D01*
G01X4164370D02*
X4141510D01*
G01X4102900D02*
X4074960D01*
G01X4020100Y-158720D02*
X3992160D01*
G01X4484920Y-159990D02*
X4456980D01*
G01X4298230Y-158970D02*
X4252510D01*
G01X4217710Y-157960D02*
X4179610D01*
G01X4164370D02*
X4141510D01*
G01X4102900D02*
X4074960D01*
G01X4020100Y-161260D02*
X3992160D01*
G01X4484920Y-162530D02*
X4456980D01*
G01X4298230Y-161510D02*
X4277910D01*
G01X4272830D02*
X4252510D01*
G01X4217710Y-160500D02*
X4177070D01*
G01X4164370D02*
X4141510D01*
G01X4102900D02*
X4074960D01*
G01X4020100Y-163800D02*
X3992160D01*
G01X4484920Y-165070D02*
X4456980D01*
G01X4300770Y-164050D02*
X4277910D01*
G01X4272830D02*
X4249970D01*
G01X4217710Y-163040D02*
X4174530D01*
G01X4164370D02*
X4141510D01*
G01X4102900D02*
X4074960D01*
G01X4020100Y-166340D02*
X3992160D01*
G01X4484920Y-167610D02*
X4456980D01*
G01X4300770Y-166590D02*
X4277910D01*
G01X4272830D02*
X4249970D01*
G01X4217710Y-165580D02*
X4171990D01*
G01X4164370D02*
X4141510D01*
G01X4102900D02*
X4074960D01*
G01X4020100Y-168880D02*
X3992160D01*
G01X4487460Y-170150D02*
X4459520D01*
G01X4300770Y-169130D02*
X4280450D01*
G01X4270290D02*
X4249970D01*
G01X4217710Y-168120D02*
X4171990D01*
G01X4164370D02*
X4141510D01*
G01X4102900D02*
X4074960D01*
G01X4020100Y-171420D02*
X3992160D01*
G01X4523020Y-172690D02*
X4459520D01*
G01X4303310Y-171670D02*
X4280450D01*
G01X4270290D02*
X4247430D01*
G01X4217710Y-170660D02*
X4169450D01*
G01X4164370D02*
X4141510D01*
G01X4102900D02*
X4074960D01*
G01X4020100Y-173960D02*
X3992160D01*
G01X4523020Y-175230D02*
X4459520D01*
G01X4303310Y-174210D02*
X4280450D01*
G01X4270290D02*
X4247430D01*
G01X4217710Y-173200D02*
X4194850D01*
G01X4192310D02*
X4166910D01*
G01X4164370D02*
X4141510D01*
G01X4102900D02*
X4074960D01*
G01X4020100Y-176500D02*
X3992160D01*
G01X4523020Y-177770D02*
X4462060D01*
G01X4303310Y-176750D02*
X4280450D01*
G01X4267750D02*
X4247430D01*
G01X4217710Y-175740D02*
X4194850D01*
G01X4189770D02*
X4141510D01*
G01X4102900D02*
X4074960D01*
G01X4020100Y-179040D02*
X3992160D01*
G01X4523020Y-180310D02*
X4462060D01*
G01X4305850Y-179290D02*
X4282990D01*
G01X4267750D02*
X4244890D01*
G01X4217710Y-178280D02*
X4194850D01*
G01X4187230D02*
X4141510D01*
G01X4102900D02*
X4074960D01*
G01X4020100Y-181580D02*
X3992160D01*
G01X4523020Y-182850D02*
X4464600D01*
G01X4305850Y-181830D02*
X4244890D01*
G01X4217710Y-180820D02*
X4194850D01*
G01X4187230D02*
X4141510D01*
G01X4102900D02*
X4074960D01*
G01X4020100Y-184120D02*
X3992160D01*
G01X4523020Y-185390D02*
X4467140D01*
G01X4308390Y-184370D02*
X4242350D01*
G01X4217710Y-183360D02*
X4194850D01*
G01X4184690D02*
X4141510D01*
G01X4102900D02*
X4074960D01*
G01X4020100Y-186660D02*
X3992160D01*
G01X4523020Y-187930D02*
X4474760D01*
G01X4308390Y-186910D02*
X4242350D01*
G01X4217710Y-185900D02*
X4194850D01*
G01X4182150D02*
X4141510D01*
G01X4102900D02*
X4074960D01*
G01X4020100Y-189200D02*
X3992160D01*
G01X4308390Y-189450D02*
X4242350D01*
G01X4217710Y-188440D02*
X4194850D01*
G01X4182150D02*
X4141510D01*
G01X4102900D02*
X4074960D01*
G01X4020100Y-191740D02*
X3992160D01*
G01X4310930Y-191990D02*
X4239810D01*
G01X4217710Y-190980D02*
X4194850D01*
G01X4179610D02*
X4141510D01*
G01X4102900D02*
X4074960D01*
G01X4020100Y-194280D02*
X3992160D01*
G01X4310930Y-194530D02*
X4239810D01*
G01X4217710Y-193520D02*
X4194850D01*
G01X4177070D02*
X4141510D01*
G01X4102900D02*
X4074960D01*
G01X4020100Y-196820D02*
X3992160D01*
G01X4310930Y-197070D02*
X4239810D01*
G01X4217710Y-196060D02*
X4194850D01*
G01X4174530D02*
X4141510D01*
G01X4102900D02*
X4074960D01*
G01X4020100Y-199360D02*
X3992160D01*
G01X4313470Y-199610D02*
X4237270D01*
G01X4217710Y-198600D02*
X4194850D01*
G01X4174530D02*
X4141510D01*
G01X4102900D02*
X4074960D01*
G01X4020100Y-201900D02*
X3992160D01*
G01X4313470Y-202150D02*
X4288070D01*
G01X4262670D02*
X4237270D01*
G01X4217710Y-201140D02*
X4194850D01*
G01X4171990D02*
X4141510D01*
G01X4102900D02*
X4074960D01*
G01X4020100Y-204440D02*
X3992160D01*
G01X4313470Y-204690D02*
X4290610D01*
G01X4260130D02*
X4237270D01*
G01X4217710Y-203680D02*
X4194850D01*
G01X4169450D02*
X4141510D01*
G01X4102900D02*
X4074960D01*
G01X4020100Y-206980D02*
X3992160D01*
G01X4316010Y-207230D02*
X4290610D01*
G01X4260130D02*
X4234730D01*
G01X4217710Y-206220D02*
X4194850D01*
G01X4169450D02*
X4141510D01*
G01X4102900D02*
X4074960D01*
G01X4020100Y-209520D02*
X3992160D01*
G01X4316010Y-209770D02*
X4290610D01*
G01X4260130D02*
X4234730D01*
G01X4217710Y-208760D02*
X4194850D01*
G01X4166910D02*
X4141510D01*
G01X4102900D02*
X4074960D01*
G01X4020100Y-212060D02*
X3992160D01*
G01X4318550Y-212310D02*
X4293150D01*
G01X4257590D02*
X4232190D01*
G01X4217710Y-211300D02*
X4194850D01*
G01X4164370D02*
X4141510D01*
G01X4102900D02*
X4074960D01*
G01X4020100Y-214600D02*
X3992160D01*
G01X4020100Y-217140D02*
X3992160D01*
G01X4020100Y-219680D02*
X3992160D01*
G01X4020100Y-222220D02*
X3992160D01*
G01X4020100Y-224760D02*
X3992160D01*
G01X4020100Y-227300D02*
X3992160D01*
G01X4020100Y-229840D02*
X3992160D01*
G01X4020100Y-232380D02*
X3992160D01*
G01X4020100Y-234920D02*
X3992160D01*
G01X4020100Y-237460D02*
X3992160D01*
G01X4020100Y-240000D02*
X3992160D01*
G01X4020100Y-242540D02*
X3992160D01*
G01X4020100Y-245080D02*
X3992160D01*
G01X4020100Y-247620D02*
X3992160D01*
G01X4020100Y-250160D02*
X3992160D01*
G01X4020100Y-252700D02*
X3992160D01*
G01X4020100Y-255240D02*
X3992160D01*
G01X4020100Y-257780D02*
X3992160D01*
G01X4020100Y-260320D02*
X3992160D01*
G01X4020100Y-262860D02*
X3992160D01*
G01X4446820Y-265400D02*
X4436660D01*
G01X4413800D02*
X4401100D01*
G01X4355380D02*
X4312200D01*
G01X4284260D02*
X4274100D01*
G01X4266480D02*
X4208060D01*
G01X4167420D02*
X4154720D01*
G01X4020100D02*
X3992160D01*
G01X4515400Y-267940D02*
X4482380D01*
G01X4446820D02*
X4439200D01*
G01X4421420D02*
X4393480D01*
G01X4355380D02*
X4312200D01*
G01X4284260D02*
X4276640D01*
G01X4266480D02*
X4208060D01*
G01X4177580D02*
X4144560D01*
G01X4020100D02*
X3992160D01*
G01X4517940Y-270480D02*
X4479840D01*
G01X4446820D02*
X4439200D01*
G01X4426500D02*
X4388400D01*
G01X4355380D02*
X4312200D01*
G01X4284260D02*
X4276640D01*
G01X4266480D02*
X4208060D01*
G01X4182660D02*
X4139480D01*
G01X4020100D02*
X3992160D01*
G01X4520480Y-273020D02*
X4477300D01*
G01X4449360D02*
X4439200D01*
G01X4429040D02*
X4385860D01*
G01X4355380D02*
X4312200D01*
G01X4286800D02*
X4276640D01*
G01X4266480D02*
X4208060D01*
G01X4185200D02*
X4136940D01*
G01X4020100D02*
X3992160D01*
G01X4520480Y-275560D02*
X4474760D01*
G01X4449360D02*
X4439200D01*
G01X4429040D02*
X4385860D01*
G01X4357920D02*
X4312200D01*
G01X4286800D02*
X4276640D01*
G01X4266480D02*
X4208060D01*
G01X4187740D02*
X4136940D01*
G01X4020100D02*
X3992160D01*
G01X4495080Y-278100D02*
X4474760D01*
G01X4449360D02*
X4441740D01*
G01X4431580D02*
X4411260D01*
G01X4403640D02*
X4383320D01*
G01X4357920D02*
X4312200D01*
G01X4286800D02*
X4279180D01*
G01X4266480D02*
X4208060D01*
G01X4190280D02*
X4134400D01*
G01X4020100D02*
X3992160D01*
G01X4492540Y-280640D02*
X4472220D01*
G01X4449360D02*
X4441740D01*
G01X4431580D02*
X4413800D01*
G01X4401100D02*
X4383320D01*
G01X4357920D02*
X4340140D01*
G01X4286800D02*
X4279180D01*
G01X4266480D02*
X4208060D01*
G01X4190280D02*
X4131860D01*
G01X4020100D02*
X3992160D01*
G01X4492540Y-283180D02*
X4472220D01*
G01X4451900D02*
X4441740D01*
G01X4431580D02*
X4413800D01*
G01X4398560D02*
X4380780D01*
G01X4357920D02*
X4342680D01*
G01X4289340D02*
X4279180D01*
G01X4266480D02*
X4243620D01*
G01X4192820D02*
X4167420D01*
G01X4157260D02*
X4131860D01*
G01X4020100D02*
X3992160D01*
G01X4492540Y-285720D02*
X4472220D01*
G01X4451900D02*
X4441740D01*
G01X4434120D02*
X4413800D01*
G01X4398560D02*
X4380780D01*
G01X4357920D02*
X4342680D01*
G01X4289340D02*
X4279180D01*
G01X4266480D02*
X4243620D01*
G01X4192820D02*
X4169960D01*
G01X4154720D02*
X4131860D01*
G01X4020100D02*
X3992160D01*
G01X4492540Y-288260D02*
X4472220D01*
G01X4451900D02*
X4444280D01*
G01X4434120D02*
X4413800D01*
G01X4398560D02*
X4380780D01*
G01X4360460D02*
X4342680D01*
G01X4335060D02*
X4327440D01*
G01X4289340D02*
X4281720D01*
G01X4266480D02*
X4243620D01*
G01X4192820D02*
X4172500D01*
G01X4152180D02*
X4136940D01*
G01X4020100D02*
X3992160D01*
G01X4492540Y-290800D02*
X4474760D01*
G01X4451900D02*
X4444280D01*
G01X4434120D02*
X4413800D01*
G01X4398560D02*
X4380780D01*
G01X4360460D02*
X4319820D01*
G01X4289340D02*
X4281720D01*
G01X4266480D02*
X4210600D01*
G01X4192820D02*
X4172500D01*
G01X4152180D02*
X4149640D01*
G01X4020100D02*
X3992160D01*
G01X4495080Y-293340D02*
X4474760D01*
G01X4454440D02*
X4444280D01*
G01X4434120D02*
X4413800D01*
G01X4398560D02*
X4378240D01*
G01X4360460D02*
X4317280D01*
G01X4291880D02*
X4281720D01*
G01X4266480D02*
X4210600D01*
G01X4192820D02*
X4172500D01*
G01X4020100D02*
X3992160D01*
G01X4495080Y-295880D02*
X4474760D01*
G01X4454440D02*
X4444280D01*
G01X4431580D02*
X4413800D01*
G01X4401100D02*
X4378240D01*
G01X4360460D02*
X4314740D01*
G01X4291880D02*
X4281720D01*
G01X4266480D02*
X4210600D01*
G01X4195360D02*
X4172500D01*
G01X4020100D02*
X3992160D01*
G01X4497620Y-298420D02*
X4477300D01*
G01X4454440D02*
X4446820D01*
G01X4431580D02*
X4411260D01*
G01X4401100D02*
X4378240D01*
G01X4360460D02*
X4312200D01*
G01X4291880D02*
X4284260D01*
G01X4266480D02*
X4210600D01*
G01X4195360D02*
X4172500D01*
G01X4020100D02*
X3992160D01*
G01X4871000Y209580D02*
X3992160D01*
G01X4871000Y207040D02*
X3992160D01*
G01X4871000Y204500D02*
X3992160D01*
G01X4871000Y201960D02*
X3992160D01*
G01X4871000Y199420D02*
X3992160D01*
G01X4871000Y196880D02*
X3992160D01*
G01X4871000Y194340D02*
X3992160D01*
G01X4871000Y191800D02*
X3992160D01*
G01X4871000Y189260D02*
X3992160D01*
G01X4871000Y186720D02*
X3992160D01*
G01X4871000Y184180D02*
X3992160D01*
G01X4871000Y181640D02*
X3992160D01*
G01X4020100Y179100D02*
X3992160D01*
G01X4020100Y176560D02*
X3992160D01*
G01X4020100Y174020D02*
X3992160D01*
G01X4020100Y171480D02*
X3992160D01*
G01X4020100Y168940D02*
X3992160D01*
G01X4020100Y166400D02*
X3992160D01*
G01X4020100Y163860D02*
X3992160D01*
G01X4020100Y161320D02*
X3992160D01*
G01X4020100Y158780D02*
X3992160D01*
G01X4020100Y156240D02*
X3992160D01*
G01X4020100Y153700D02*
X3992160D01*
G01X4020100Y151160D02*
X3992160D01*
G01X4020100Y148620D02*
X3992160D01*
G01X4020100Y146080D02*
X3992160D01*
G01X4020100Y143540D02*
X3992160D01*
G01X4020100Y141000D02*
X3992160D01*
G01X4020100Y138460D02*
X3992160D01*
G01X4020100Y135920D02*
X3992160D01*
G01X4020100Y133380D02*
X3992160D01*
G01X4020100Y130840D02*
X3992160D01*
G01X4020100Y128300D02*
X3992160D01*
G01X4020100Y125760D02*
X3992160D01*
G01X4020100Y123220D02*
X3992160D01*
G01X4020100Y120680D02*
X3992160D01*
G01X4020100Y118140D02*
X3992160D01*
G01X4020100Y115600D02*
X3992160D01*
G01X4020100Y113060D02*
X3992160D01*
G01X4020100Y110520D02*
X3992160D01*
G01X4020100Y107980D02*
X3992160D01*
G01X4020100Y105440D02*
X3992160D01*
G01X4020100Y102900D02*
X3992160D01*
G01X4202980Y100360D02*
X4157260D01*
G01X4020100D02*
X3992160D01*
G01X4429040Y97820D02*
X4375700D01*
G01X4329980D02*
X4276640D01*
G01X4215680D02*
X4147100D01*
G01X4020100D02*
X3992160D01*
G01X4429040Y95280D02*
X4375700D01*
G01X4329980D02*
X4276640D01*
G01X4220760D02*
X4142020D01*
G01X4020100D02*
X3992160D01*
G01X4429040Y92740D02*
X4375700D01*
G01X4329980D02*
X4276640D01*
G01X4225840D02*
X4136940D01*
G01X4020100D02*
X3992160D01*
G01X4429040Y90200D02*
X4375700D01*
G01X4329980D02*
X4276640D01*
G01X4230920D02*
X4131860D01*
G01X4020100D02*
X3992160D01*
G01X4429040Y87660D02*
X4375700D01*
G01X4329980D02*
X4276640D01*
G01X4233460D02*
X4129320D01*
G01X4020100D02*
X3992160D01*
G01X4429040Y85120D02*
X4375700D01*
G01X4329980D02*
X4276640D01*
G01X4236000D02*
X4126780D01*
G01X4020100D02*
X3992160D01*
G01X4429040Y82580D02*
X4375700D01*
G01X4329980D02*
X4276640D01*
G01X4238540D02*
X4124240D01*
G01X4020100D02*
X3992160D01*
G01X4429040Y80040D02*
X4375700D01*
G01X4329980D02*
X4276640D01*
G01X4241080D02*
X4121700D01*
G01X4020100D02*
X3992160D01*
G01X4429040Y77500D02*
X4375700D01*
G01X4329980D02*
X4276640D01*
G01X4243620D02*
X4121700D01*
G01X4020100D02*
X3992160D01*
G01X4429040Y74960D02*
X4375700D01*
G01X4329980D02*
X4276640D01*
G01X4243620D02*
X4119160D01*
G01X4020100D02*
X3992160D01*
G01X4429040Y72420D02*
X4375700D01*
G01X4329980D02*
X4276640D01*
G01X4246160D02*
X4119160D01*
G01X4020100D02*
X3992160D01*
G01X4429040Y69880D02*
X4375700D01*
G01X4329980D02*
X4276640D01*
G01X4246160D02*
X4187740D01*
G01X4180120D02*
X4116620D01*
G01X4020100D02*
X3992160D01*
G01X4429040Y67340D02*
X4375700D01*
G01X4329980D02*
X4276640D01*
G01X4246160D02*
X4192820D01*
G01X4175040D02*
X4116620D01*
G01X4020100D02*
X3992160D01*
G01X4429040Y64800D02*
X4375700D01*
G01X4329980D02*
X4276640D01*
G01X4248700D02*
X4195360D01*
G01X4172500D02*
X4116620D01*
G01X4020100D02*
X3992160D01*
G01X4429040Y62260D02*
X4375700D01*
G01X4329980D02*
X4276640D01*
G01X4248700D02*
X4195360D01*
G01X4169960D02*
X4114080D01*
G01X4020100D02*
X3992160D01*
G01X4429040Y59720D02*
X4375700D01*
G01X4329980D02*
X4276640D01*
G01X4248700D02*
X4195360D01*
G01X4169960D02*
X4114080D01*
G01X4020100D02*
X3992160D01*
G01X4543340Y57180D02*
X4487460D01*
G01X4429040D02*
X4375700D01*
G01X4329980D02*
X4276640D01*
G01X4248700D02*
X4195360D01*
G01X4169960D02*
X4114080D01*
G01X4020100D02*
X3992160D01*
G01X4548420Y54640D02*
X4482380D01*
G01X4429040D02*
X4375700D01*
G01X4329980D02*
X4276640D01*
G01X4248700D02*
X4192820D01*
G01X4167420D02*
X4114080D01*
G01X4020100D02*
X3992160D01*
G01X4553500Y52100D02*
X4477300D01*
G01X4429040D02*
X4375700D01*
G01X4329980D02*
X4276640D01*
G01X4248700D02*
X4190280D01*
G01X4167420D02*
X4131860D01*
G01X4020100D02*
X3992160D01*
G01X4558580Y49560D02*
X4472220D01*
G01X4429040D02*
X4375700D01*
G01X4329980D02*
X4276640D01*
G01X4248700D02*
X4180120D01*
G01X4020100D02*
X3992160D01*
G01X4561120Y47020D02*
X4469680D01*
G01X4429040D02*
X4375700D01*
G01X4329980D02*
X4276640D01*
G01X4248700D02*
X4167420D01*
G01X4020100D02*
X3992160D01*
G01X4563660Y44480D02*
X4467140D01*
G01X4429040D02*
X4276640D01*
G01X4246160D02*
X4159800D01*
G01X4020100D02*
X3992160D01*
G01X4566200Y41940D02*
X4464600D01*
G01X4429040D02*
X4276640D01*
G01X4246160D02*
X4149640D01*
G01X4020100D02*
X3992160D01*
G01X4568740Y39400D02*
X4462060D01*
G01X4429040D02*
X4276640D01*
G01X4246160D02*
X4142020D01*
G01X4020100D02*
X3992160D01*
G01X4571280Y36860D02*
X4459520D01*
G01X4429040D02*
X4276640D01*
G01X4243620D02*
X4136940D01*
G01X4020100D02*
X3992160D01*
G01X4571280Y34320D02*
X4456980D01*
G01X4429040D02*
X4276640D01*
G01X4243620D02*
X4131860D01*
G01X4020100D02*
X3992160D01*
G01X4573820Y31780D02*
X4456980D01*
G01X4429040D02*
X4276640D01*
G01X4241080D02*
X4129320D01*
G01X4020100D02*
X3992160D01*
G01X4510320Y29240D02*
X4454440D01*
G01X4429040D02*
X4276640D01*
G01X4238540D02*
X4124240D01*
G01X4020100D02*
X3992160D01*
G01X4505240Y26700D02*
X4454440D01*
G01X4429040D02*
X4276640D01*
G01X4236000D02*
X4121700D01*
G01X4020100D02*
X3992160D01*
G01X4502700Y24160D02*
X4451900D01*
G01X4429040D02*
X4276640D01*
G01X4233460D02*
X4119160D01*
G01X4020100D02*
X3992160D01*
G01X4502700Y21620D02*
X4451900D01*
G01X4429040D02*
X4276640D01*
G01X4228380D02*
X4116620D01*
G01X4020100D02*
X3992160D01*
G01X4500160Y19080D02*
X4451900D01*
G01X4429040D02*
X4276640D01*
G01X4225840D02*
X4116620D01*
G01X4020100D02*
X3992160D01*
G01X4500160Y16540D02*
X4451900D01*
G01X4429040D02*
X4276640D01*
G01X4218220D02*
X4114080D01*
G01X4020100D02*
X3992160D01*
G01X4500160Y14000D02*
X4449360D01*
G01X4429040D02*
X4276640D01*
G01X4871000Y-354300D02*
X4843060D01*
G01X4871000Y-356840D02*
X4843060D01*
G01X4871000Y-359380D02*
X4843060D01*
G01X4871000Y-361920D02*
X4843060D01*
G01X4871000Y-336520D02*
X4843060D01*
G01X4733840D02*
X4677960D01*
G01X4871000Y-364460D02*
X4843060D01*
G01X4644940Y-336520D02*
X4629700D01*
G01X4576360D02*
X4561120D01*
G01X4871000Y-367000D02*
X4843060D01*
G01X4871000Y-369540D02*
X4843060D01*
G01X4871000Y-372080D02*
X4843060D01*
G01X4871000Y-374620D02*
X4843060D01*
G01X4871000Y-377160D02*
X4843060D01*
G01X4871000Y-339060D02*
X4843060D01*
G01X4871000Y-379700D02*
X4843060D01*
G01X4871000Y-341600D02*
X4843060D01*
G01X4871000Y-382240D02*
X4843060D01*
G01X4871000Y-344140D02*
X4843060D01*
G01X4871000Y-384780D02*
X4843060D01*
G01X4871000Y-346680D02*
X4843060D01*
G01X4871000Y-387320D02*
X4843060D01*
G01X4871000Y-349220D02*
X4843060D01*
G01X4871000Y-389860D02*
X4843060D01*
G01X4871000Y-351760D02*
X4843060D01*
G01X4871000Y-392400D02*
X4843060D01*
G01X4871000Y-300960D02*
X4843060D01*
G01X4705900D02*
X4683040D01*
G01X4665260D02*
X4644940D01*
G01X4629700D02*
X4609380D01*
G01X4596680D02*
X4576360D01*
G01X4561120D02*
X4540800D01*
G01X4871000Y-303500D02*
X4843060D01*
G01X4710980D02*
X4685580D01*
G01X4665260D02*
X4644940D01*
G01X4629700D02*
X4609380D01*
G01X4596680D02*
X4576360D01*
G01X4561120D02*
X4540800D01*
G01X4871000Y-306040D02*
X4843060D01*
G01X4713520D02*
X4688120D01*
G01X4665260D02*
X4644940D01*
G01X4629700D02*
X4609380D01*
G01X4596680D02*
X4576360D01*
G01X4561120D02*
X4540800D01*
G01X4871000Y-308580D02*
X4843060D01*
G01X4716060D02*
X4690660D01*
G01X4665260D02*
X4644940D01*
G01X4629700D02*
X4609380D01*
G01X4596680D02*
X4576360D01*
G01X4561120D02*
X4540800D01*
G01X4871000Y-311120D02*
X4843060D01*
G01X4718600D02*
X4695740D01*
G01X4662720D02*
X4644940D01*
G01X4629700D02*
X4611920D01*
G01X4594140D02*
X4576360D01*
G01X4561120D02*
X4543340D01*
G01X4512860D02*
X4490000D01*
G01X4871000Y-313660D02*
X4843060D01*
G01X4721140D02*
X4698280D01*
G01X4662720D02*
X4644940D01*
G01X4629700D02*
X4611920D01*
G01X4594140D02*
X4576360D01*
G01X4561120D02*
X4543340D01*
G01X4515400D02*
X4492540D01*
G01X4871000Y-316200D02*
X4843060D01*
G01X4723680D02*
X4700820D01*
G01X4662720D02*
X4644940D01*
G01X4629700D02*
X4611920D01*
G01X4594140D02*
X4576360D01*
G01X4561120D02*
X4543340D01*
G01X4517940D02*
X4495080D01*
G01X4871000Y-318740D02*
X4843060D01*
G01X4726220D02*
X4703360D01*
G01X4662720D02*
X4644940D01*
G01X4629700D02*
X4611920D01*
G01X4594140D02*
X4576360D01*
G01X4561120D02*
X4543340D01*
G01X4520480D02*
X4497620D01*
G01X4871000Y-321280D02*
X4843060D01*
G01X4726220D02*
X4705900D01*
G01X4662720D02*
X4642400D01*
G01X4632240D02*
X4611920D01*
G01X4594140D02*
X4573820D01*
G01X4563660D02*
X4543340D01*
G01X4520480D02*
X4500160D01*
G01X4871000Y-323820D02*
X4843060D01*
G01X4728760D02*
X4677960D01*
G01X4660180D02*
X4642400D01*
G01X4632240D02*
X4614460D01*
G01X4591600D02*
X4573820D01*
G01X4563660D02*
X4545880D01*
G01X4871000Y-326360D02*
X4843060D01*
G01X4728760D02*
X4677960D01*
G01X4660180D02*
X4614460D01*
G01X4591600D02*
X4545880D01*
G01X4871000Y-328900D02*
X4843060D01*
G01X4731300D02*
X4677960D01*
G01X4657640D02*
X4617000D01*
G01X4589060D02*
X4548420D01*
G01X4871000Y-331440D02*
X4843060D01*
G01X4731300D02*
X4677960D01*
G01X4655100D02*
X4619540D01*
G01X4586520D02*
X4550960D01*
G01X4871000Y-333980D02*
X4843060D01*
G01X4731300D02*
X4677960D01*
G01X4652560D02*
X4622080D01*
G01X4583980D02*
X4553500D01*
G01X4871000Y-394940D02*
X4843060D01*
G01X4871000Y-397480D02*
X4843060D01*
G01X4871000Y11460D02*
X4843060D01*
G01X4741460D02*
X4632240D01*
G01X4581440D02*
X4533180D01*
G01X4871000Y8920D02*
X4843060D01*
G01X4741460D02*
X4627160D01*
G01X4581440D02*
X4533180D01*
G01X4871000Y6380D02*
X4843060D01*
G01X4741460D02*
X4624620D01*
G01X4581440D02*
X4533180D01*
G01X4871000Y3840D02*
X4843060D01*
G01X4741460D02*
X4688120D01*
G01X4683040D02*
X4622080D01*
G01X4581440D02*
X4533180D01*
G01X4871000Y1300D02*
X4843060D01*
G01X4741460D02*
X4688120D01*
G01X4677960D02*
X4619540D01*
G01X4581440D02*
X4533180D01*
G01X4871000Y-1240D02*
X4843060D01*
G01X4741460D02*
X4688120D01*
G01X4675420D02*
X4617000D01*
G01X4581440D02*
X4533180D01*
G01X4871000Y-3780D02*
X4843060D01*
G01X4741460D02*
X4688120D01*
G01X4672880D02*
X4617000D01*
G01X4581440D02*
X4533180D01*
G01X4871000Y-6320D02*
X4843060D01*
G01X4741460D02*
X4688120D01*
G01X4670340D02*
X4614460D01*
G01X4581440D02*
X4533180D01*
G01X4871000Y-8860D02*
X4843060D01*
G01X4741460D02*
X4688120D01*
G01X4670340D02*
X4611920D01*
G01X4581440D02*
X4533180D01*
G01X4871000Y-11400D02*
X4843060D01*
G01X4741460D02*
X4688120D01*
G01X4667800D02*
X4611920D01*
G01X4581440D02*
X4530640D01*
G01X4871000Y-13940D02*
X4843060D01*
G01X4741460D02*
X4688120D01*
G01X4667800D02*
X4609380D01*
G01X4578900D02*
X4530640D01*
G01X4871000Y-16480D02*
X4843060D01*
G01X4741460D02*
X4688120D01*
G01X4665260D02*
X4609380D01*
G01X4578900D02*
X4530640D01*
G01X4871000Y-19020D02*
X4843060D01*
G01X4741460D02*
X4688120D01*
G01X4662720D02*
X4606840D01*
G01X4578900D02*
X4528100D01*
G01X4871000Y-21560D02*
X4843060D01*
G01X4741460D02*
X4688120D01*
G01X4662720D02*
X4604300D01*
G01X4578900D02*
X4528100D01*
G01X4871000Y-24100D02*
X4843060D01*
G01X4741460D02*
X4688120D01*
G01X4660180D02*
X4604300D01*
G01X4576360D02*
X4525560D01*
G01X4871000Y-26640D02*
X4843060D01*
G01X4741460D02*
X4688120D01*
G01X4660180D02*
X4601760D01*
G01X4576360D02*
X4520480D01*
G01X4871000Y-29180D02*
X4843060D01*
G01X4741460D02*
X4688120D01*
G01X4657640D02*
X4601760D01*
G01X4871000Y-31720D02*
X4843060D01*
G01X4741460D02*
X4688120D01*
G01X4657640D02*
X4599220D01*
G01X4871000Y-34260D02*
X4843060D01*
G01X4741460D02*
X4688120D01*
G01X4655100D02*
X4599220D01*
G01X4871000Y-36800D02*
X4843060D01*
G01X4741460D02*
X4688120D01*
G01X4652560D02*
X4596680D01*
G01X4871000Y-39340D02*
X4843060D01*
G01X4741460D02*
X4688120D01*
G01X4652560D02*
X4594140D01*
G01X4871000Y-41880D02*
X4843060D01*
G01X4741460D02*
X4688120D01*
G01X4650020D02*
X4594140D01*
G01X4871000Y-44420D02*
X4843060D01*
G01X4741460D02*
X4688120D01*
G01X4650020D02*
X4591600D01*
G01X4871000Y-46960D02*
X4843060D01*
G01X4741460D02*
X4688120D01*
G01X4647480D02*
X4591600D01*
G01X4871000Y-49500D02*
X4843060D01*
G01X4741460D02*
X4688120D01*
G01X4644940D02*
X4589060D01*
G01X4871000Y-52040D02*
X4843060D01*
G01X4741460D02*
X4688120D01*
G01X4644940D02*
X4586520D01*
G01X4871000Y-54580D02*
X4843060D01*
G01X4741460D02*
X4688120D01*
G01X4642400D02*
X4589060D01*
G01X4871000Y-57120D02*
X4843060D01*
G01X4533180D02*
X4497620D01*
G01X4871000Y-59660D02*
X4843060D01*
G01X4871000Y-62200D02*
X4843060D01*
G01X4871000Y-64740D02*
X4843060D01*
G01X4871000Y-67280D02*
X4843060D01*
G01X4871000Y-69820D02*
X4843060D01*
G01X4871000Y-72360D02*
X4843060D01*
G01X4871000Y-74900D02*
X4843060D01*
G01X4871000Y-77440D02*
X4843060D01*
G01X4871000Y-79980D02*
X4843060D01*
G01X4871000Y-82520D02*
X4843060D01*
G01X4871000Y-85060D02*
X4843060D01*
G01X4871000Y-87600D02*
X4843060D01*
G01X4871000Y-90140D02*
X4843060D01*
G01X4871000Y-92680D02*
X4843060D01*
G01X4871000Y-95220D02*
X4843060D01*
G01X4871000Y-97760D02*
X4843060D01*
G01X4871000Y-100300D02*
X4843060D01*
G01X4871000Y-102840D02*
X4843060D01*
G01X4871000Y-105380D02*
X4843060D01*
G01X4871000Y-107920D02*
X4843060D01*
G01X4871000Y-110460D02*
X4843060D01*
G01X4871000Y-113000D02*
X4843060D01*
G01X4871000Y-115540D02*
X4843060D01*
G01X4871000Y-118080D02*
X4843060D01*
G01X4871000Y-120620D02*
X4843060D01*
G01X4871000Y-123160D02*
X4843060D01*
G01X4871000Y-125700D02*
X4843060D01*
G01X4871000Y-128240D02*
X4843060D01*
G01X4871000Y-130780D02*
X4843060D01*
G01X4871000Y-133320D02*
X4843060D01*
G01X4871000Y-135860D02*
X4843060D01*
G01X4778800Y-132300D02*
X4753400D01*
G01X4692440D02*
X4667040D01*
G01X4871000Y-138400D02*
X4843060D01*
G01X4783880Y-134840D02*
X4745780D01*
G01X4700060D02*
X4659420D01*
G01X4871000Y-140940D02*
X4843060D01*
G01X4788960Y-137380D02*
X4743240D01*
G01X4702600D02*
X4654340D01*
G01X4871000Y-143480D02*
X4843060D01*
G01X4791500Y-139920D02*
X4740700D01*
G01X4707680D02*
X4651800D01*
G01X4871000Y-146020D02*
X4843060D01*
G01X4794040Y-142460D02*
X4738160D01*
G01X4710220D02*
X4649260D01*
G01X4871000Y-148560D02*
X4843060D01*
G01X4796580Y-145000D02*
X4735620D01*
G01X4712760D02*
X4646720D01*
G01X4871000Y-151100D02*
X4843060D01*
G01X4796580Y-147540D02*
X4733080D01*
G01X4712760D02*
X4646720D01*
G01X4871000Y-153640D02*
X4843060D01*
G01X4799120Y-150080D02*
X4771180D01*
G01X4763560D02*
X4733080D01*
G01X4715300D02*
X4684820D01*
G01X4674660D02*
X4644180D01*
G01X4871000Y-156180D02*
X4843060D01*
G01X4799120Y-152620D02*
X4773720D01*
G01X4761020D02*
X4733080D01*
G01X4715300D02*
X4687360D01*
G01X4672120D02*
X4644180D01*
G01X4523020Y-154910D02*
X4495080D01*
G01X4871000Y-158720D02*
X4843060D01*
G01X4801660Y-155160D02*
X4773720D01*
G01X4758480D02*
X4733080D01*
G01X4717840D02*
X4689900D01*
G01X4669580D02*
X4641640D01*
G01X4523020Y-157450D02*
X4495080D01*
G01X4871000Y-161260D02*
X4843060D01*
G01X4801660Y-157700D02*
X4776260D01*
G01X4758480D02*
X4748320D01*
G01X4717840D02*
X4689900D01*
G01X4669580D02*
X4641640D01*
G01X4523020Y-159990D02*
X4495080D01*
G01X4871000Y-163800D02*
X4843060D01*
G01X4801660Y-160240D02*
X4776260D01*
G01X4717840D02*
X4692440D01*
G01X4667040D02*
X4641640D01*
G01X4523020Y-162530D02*
X4495080D01*
G01X4871000Y-166340D02*
X4843060D01*
G01X4801660Y-162780D02*
X4776260D01*
G01X4717840D02*
X4692440D01*
G01X4667040D02*
X4641640D01*
G01X4523020Y-165070D02*
X4495080D01*
G01X4871000Y-168880D02*
X4843060D01*
G01X4804200Y-165320D02*
X4776260D01*
G01X4717840D02*
X4692440D01*
G01X4667040D02*
X4639100D01*
G01X4523020Y-167610D02*
X4495080D01*
G01X4871000Y-171420D02*
X4843060D01*
G01X4804200Y-167860D02*
X4776260D01*
G01X4720380D02*
X4692440D01*
G01X4667040D02*
X4639100D01*
G01X4523020Y-170150D02*
X4495080D01*
G01X4871000Y-173960D02*
X4843060D01*
G01X4804200Y-170400D02*
X4776260D01*
G01X4720380D02*
X4692440D01*
G01X4667040D02*
X4639100D01*
G01X4871000Y-176500D02*
X4843060D01*
G01X4804200Y-172940D02*
X4776260D01*
G01X4720380D02*
X4692440D01*
G01X4667040D02*
X4639100D01*
G01X4871000Y-179040D02*
X4843060D01*
G01X4804200Y-175480D02*
X4776260D01*
G01X4720380D02*
X4692440D01*
G01X4667040D02*
X4639100D01*
G01X4871000Y-181580D02*
X4843060D01*
G01X4804200Y-178020D02*
X4776260D01*
G01X4720380D02*
X4692440D01*
G01X4667040D02*
X4639100D01*
G01X4871000Y-184120D02*
X4843060D01*
G01X4804200Y-180560D02*
X4776260D01*
G01X4720380D02*
X4692440D01*
G01X4667040D02*
X4641640D01*
G01X4871000Y-186660D02*
X4843060D01*
G01X4801660Y-183100D02*
X4776260D01*
G01X4758480D02*
X4750860D01*
G01X4717840D02*
X4692440D01*
G01X4667040D02*
X4641640D01*
G01X4871000Y-189200D02*
X4843060D01*
G01X4801660Y-185640D02*
X4776260D01*
G01X4758480D02*
X4740700D01*
G01X4717840D02*
X4692440D01*
G01X4667040D02*
X4641640D01*
G01X4871000Y-191740D02*
X4843060D01*
G01X4801660Y-188180D02*
X4776260D01*
G01X4758480D02*
X4733080D01*
G01X4717840D02*
X4689900D01*
G01X4669580D02*
X4641640D01*
G01X4523020Y-190470D02*
X4495080D01*
G01X4871000Y-194280D02*
X4843060D01*
G01X4801660Y-190720D02*
X4773720D01*
G01X4761020D02*
X4733080D01*
G01X4717840D02*
X4689900D01*
G01X4669580D02*
X4641640D01*
G01X4523020Y-193010D02*
X4495080D01*
G01X4871000Y-196820D02*
X4843060D01*
G01X4799120Y-193260D02*
X4773720D01*
G01X4761020D02*
X4733080D01*
G01X4715300D02*
X4687360D01*
G01X4672120D02*
X4644180D01*
G01X4523020Y-195550D02*
X4495080D01*
G01X4871000Y-199360D02*
X4843060D01*
G01X4799120Y-195800D02*
X4771180D01*
G01X4763560D02*
X4733080D01*
G01X4715300D02*
X4684820D01*
G01X4674660D02*
X4644180D01*
G01X4523020Y-198090D02*
X4495080D01*
G01X4871000Y-201900D02*
X4843060D01*
G01X4796580Y-198340D02*
X4735620D01*
G01X4712760D02*
X4646720D01*
G01X4523020Y-200630D02*
X4495080D01*
G01X4871000Y-204440D02*
X4843060D01*
G01X4796580Y-200880D02*
X4735620D01*
G01X4712760D02*
X4646720D01*
G01X4523020Y-203170D02*
X4495080D01*
G01X4871000Y-206980D02*
X4843060D01*
G01X4794040Y-203420D02*
X4738160D01*
G01X4710220D02*
X4649260D01*
G01X4523020Y-205710D02*
X4495080D01*
G01X4871000Y-209520D02*
X4843060D01*
G01X4791500Y-205960D02*
X4740700D01*
G01X4707680D02*
X4651800D01*
G01X4523020Y-208250D02*
X4495080D01*
G01X4871000Y-212060D02*
X4843060D01*
G01X4788960Y-208500D02*
X4743240D01*
G01X4705140D02*
X4654340D01*
G01X4523020Y-210790D02*
X4495080D01*
G01X4871000Y-214600D02*
X4843060D01*
G01X4783880Y-211040D02*
X4745780D01*
G01X4700060D02*
X4659420D01*
G01X4523020Y-213330D02*
X4495080D01*
G01X4871000Y-217140D02*
X4843060D01*
G01X4778800Y-213580D02*
X4753400D01*
G01X4692440D02*
X4667040D01*
G01X4871000Y-219680D02*
X4843060D01*
G01X4871000Y-222220D02*
X4843060D01*
G01X4871000Y-224760D02*
X4843060D01*
G01X4871000Y-227300D02*
X4843060D01*
G01X4871000Y-229840D02*
X4843060D01*
G01X4871000Y-232380D02*
X4843060D01*
G01X4871000Y-234920D02*
X4843060D01*
G01X4871000Y-237460D02*
X4843060D01*
G01X4871000Y-240000D02*
X4843060D01*
G01X4871000Y-242540D02*
X4843060D01*
G01X4871000Y-245080D02*
X4843060D01*
G01X4871000Y-247620D02*
X4843060D01*
G01X4871000Y-250160D02*
X4843060D01*
G01X4871000Y-252700D02*
X4843060D01*
G01X4871000Y-255240D02*
X4843060D01*
G01X4871000Y-257780D02*
X4843060D01*
G01X4871000Y-260320D02*
X4843060D01*
G01X4871000Y-262860D02*
X4843060D01*
G01X4871000Y-265400D02*
X4843060D01*
G01X4710980D02*
X4698280D01*
G01X4642400D02*
X4629700D01*
G01X4573820D02*
X4561120D01*
G01X4505240D02*
X4492540D01*
G01X4871000Y-267940D02*
X4843060D01*
G01X4721140D02*
X4688120D01*
G01X4652560D02*
X4622080D01*
G01X4583980D02*
X4553500D01*
G01X4871000Y-270480D02*
X4843060D01*
G01X4723680D02*
X4685580D01*
G01X4655100D02*
X4619540D01*
G01X4586520D02*
X4550960D01*
G01X4871000Y-273020D02*
X4843060D01*
G01X4726220D02*
X4683040D01*
G01X4657640D02*
X4617000D01*
G01X4589060D02*
X4548420D01*
G01X4871000Y-275560D02*
X4843060D01*
G01X4726220D02*
X4680500D01*
G01X4660180D02*
X4614460D01*
G01X4591600D02*
X4545880D01*
G01X4871000Y-278100D02*
X4843060D01*
G01X4728760D02*
X4708440D01*
G01X4700820D02*
X4680500D01*
G01X4660180D02*
X4642400D01*
G01X4632240D02*
X4614460D01*
G01X4591600D02*
X4573820D01*
G01X4563660D02*
X4545880D01*
G01X4523020D02*
X4502700D01*
G01X4871000Y-280640D02*
X4843060D01*
G01X4728760D02*
X4710980D01*
G01X4698280D02*
X4677960D01*
G01X4662720D02*
X4642400D01*
G01X4632240D02*
X4611920D01*
G01X4594140D02*
X4573820D01*
G01X4563660D02*
X4543340D01*
G01X4523020D02*
X4505240D01*
G01X4871000Y-283180D02*
X4843060D01*
G01X4728760D02*
X4710980D01*
G01X4698280D02*
X4677960D01*
G01X4662720D02*
X4644940D01*
G01X4629700D02*
X4611920D01*
G01X4594140D02*
X4576360D01*
G01X4561120D02*
X4543340D01*
G01X4523020D02*
X4505240D01*
G01X4871000Y-285720D02*
X4843060D01*
G01X4731300D02*
X4710980D01*
G01X4698280D02*
X4677960D01*
G01X4662720D02*
X4644940D01*
G01X4629700D02*
X4611920D01*
G01X4594140D02*
X4576360D01*
G01X4561120D02*
X4543340D01*
G01X4525560D02*
X4505240D01*
G01X4871000Y-288260D02*
X4843060D01*
G01X4716060D02*
X4710980D01*
G01X4698280D02*
X4677960D01*
G01X4662720D02*
X4644940D01*
G01X4629700D02*
X4611920D01*
G01X4594140D02*
X4576360D01*
G01X4561120D02*
X4543340D01*
G01X4510320D02*
X4505240D01*
G01X4871000Y-290800D02*
X4843060D01*
G01X4698280D02*
X4680500D01*
G01X4662720D02*
X4644940D01*
G01X4629700D02*
X4611920D01*
G01X4594140D02*
X4576360D01*
G01X4561120D02*
X4543340D01*
G01X4871000Y-293340D02*
X4843060D01*
G01X4700820D02*
X4680500D01*
G01X4665260D02*
X4644940D01*
G01X4629700D02*
X4609380D01*
G01X4596680D02*
X4576360D01*
G01X4561120D02*
X4540800D01*
G01X4871000Y-295880D02*
X4843060D01*
G01X4700820D02*
X4680500D01*
G01X4665260D02*
X4644940D01*
G01X4629700D02*
X4609380D01*
G01X4596680D02*
X4576360D01*
G01X4561120D02*
X4540800D01*
G01X4871000Y-298420D02*
X4843060D01*
G01X4703360D02*
X4683040D01*
G01X4665260D02*
X4644940D01*
G01X4629700D02*
X4609380D01*
G01X4596680D02*
X4576360D01*
G01X4561120D02*
X4540800D01*
G01X4871000Y179100D02*
X4843060D01*
G01X4871000Y176560D02*
X4843060D01*
G01X4871000Y174020D02*
X4843060D01*
G01X4871000Y171480D02*
X4843060D01*
G01X4871000Y168940D02*
X4843060D01*
G01X4871000Y166400D02*
X4843060D01*
G01X4871000Y163860D02*
X4843060D01*
G01X4871000Y161320D02*
X4843060D01*
G01X4871000Y158780D02*
X4843060D01*
G01X4871000Y156240D02*
X4843060D01*
G01X4871000Y153700D02*
X4843060D01*
G01X4871000Y151160D02*
X4843060D01*
G01X4871000Y148620D02*
X4843060D01*
G01X4871000Y146080D02*
X4843060D01*
G01X4871000Y143540D02*
X4843060D01*
G01X4871000Y141000D02*
X4843060D01*
G01X4871000Y138460D02*
X4843060D01*
G01X4871000Y135920D02*
X4843060D01*
G01X4871000Y133380D02*
X4843060D01*
G01X4871000Y130840D02*
X4843060D01*
G01X4871000Y128300D02*
X4843060D01*
G01X4871000Y125760D02*
X4843060D01*
G01X4871000Y123220D02*
X4843060D01*
G01X4871000Y120680D02*
X4843060D01*
G01X4871000Y118140D02*
X4843060D01*
G01X4871000Y115600D02*
X4843060D01*
G01X4871000Y113060D02*
X4843060D01*
G01X4871000Y110520D02*
X4843060D01*
G01X4871000Y107980D02*
X4843060D01*
G01X4871000Y105440D02*
X4843060D01*
G01X4871000Y102900D02*
X4843060D01*
G01X4871000Y100360D02*
X4843060D01*
G01X4871000Y97820D02*
X4843060D01*
G01X4741460D02*
X4634780D01*
G01X4871000Y95280D02*
X4843060D01*
G01X4741460D02*
X4624620D01*
G01X4871000Y92740D02*
X4843060D01*
G01X4741460D02*
X4619540D01*
G01X4871000Y90200D02*
X4843060D01*
G01X4741460D02*
X4614460D01*
G01X4871000Y87660D02*
X4843060D01*
G01X4741460D02*
X4611920D01*
G01X4871000Y85120D02*
X4843060D01*
G01X4741460D02*
X4609380D01*
G01X4871000Y82580D02*
X4843060D01*
G01X4741460D02*
X4606840D01*
G01X4871000Y80040D02*
X4843060D01*
G01X4741460D02*
X4606840D01*
G01X4871000Y77500D02*
X4843060D01*
G01X4741460D02*
X4604300D01*
G01X4871000Y74960D02*
X4843060D01*
G01X4741460D02*
X4604300D01*
G01X4871000Y72420D02*
X4843060D01*
G01X4741460D02*
X4601760D01*
G01X4871000Y69880D02*
X4843060D01*
G01X4741460D02*
X4601760D01*
G01X4871000Y67340D02*
X4843060D01*
G01X4741460D02*
X4599220D01*
G01X4871000Y64800D02*
X4843060D01*
G01X4741460D02*
X4688120D01*
G01X4662720D02*
X4599220D01*
G01X4871000Y62260D02*
X4843060D01*
G01X4741460D02*
X4688120D01*
G01X4657640D02*
X4599220D01*
G01X4871000Y59720D02*
X4843060D01*
G01X4741460D02*
X4688120D01*
G01X4655100D02*
X4599220D01*
G01X4533180D02*
X4497620D01*
G01X4871000Y57180D02*
X4843060D01*
G01X4741460D02*
X4688120D01*
G01X4652560D02*
X4599220D01*
G01X4871000Y54640D02*
X4843060D01*
G01X4741460D02*
X4688120D01*
G01X4652560D02*
X4599220D01*
G01X4871000Y52100D02*
X4843060D01*
G01X4741460D02*
X4688120D01*
G01X4652560D02*
X4599220D01*
G01X4871000Y49560D02*
X4843060D01*
G01X4741460D02*
X4688120D01*
G01X4652560D02*
X4599220D01*
G01X4871000Y47020D02*
X4843060D01*
G01X4741460D02*
X4688120D01*
G01X4652560D02*
X4599220D01*
G01X4871000Y44480D02*
X4843060D01*
G01X4741460D02*
X4688120D01*
G01X4655100D02*
X4599220D01*
G01X4871000Y41940D02*
X4843060D01*
G01X4741460D02*
X4688120D01*
G01X4655100D02*
X4601760D01*
G01X4871000Y39400D02*
X4843060D01*
G01X4741460D02*
X4688120D01*
G01X4657640D02*
X4601760D01*
G01X4871000Y36860D02*
X4843060D01*
G01X4741460D02*
X4688120D01*
G01X4667800D02*
X4601760D01*
G01X4871000Y34320D02*
X4843060D01*
G01X4741460D02*
X4604300D01*
G01X4871000Y31780D02*
X4843060D01*
G01X4741460D02*
X4604300D01*
G01X4871000Y29240D02*
X4843060D01*
G01X4741460D02*
X4606840D01*
G01X4573820D02*
X4520480D01*
G01X4871000Y26700D02*
X4843060D01*
G01X4741460D02*
X4609380D01*
G01X4576360D02*
X4525560D01*
G01X4871000Y24160D02*
X4843060D01*
G01X4741460D02*
X4611920D01*
G01X4576360D02*
X4528100D01*
G01X4871000Y21620D02*
X4843060D01*
G01X4741460D02*
X4614460D01*
G01X4578900D02*
X4528100D01*
G01X4871000Y19080D02*
X4843060D01*
G01X4741460D02*
X4617000D01*
G01X4578900D02*
X4530640D01*
G01X4871000Y16540D02*
X4843060D01*
G01X4741460D02*
X4619540D01*
G01X4578900D02*
X4530640D01*
G01X4871000Y14000D02*
X4843060D01*
G01X4741460D02*
X4624620D01*
G01X4581440D02*
X4530640D01*
M02*
