G04 ================== begin FILE IDENTIFICATION RECORD ==================*
G04 Layout Name:  X-NUCLEO-IHM07M1_L6230_Nucleo_Shield.brd*
G04 Film Name:    X-NUCLEO-IHM07M1-paste-mask-top*
G04 File Format:  Gerber RS274X*
G04 File Origin:  Cadence Allegro 16.6-S023*
G04 Origin Date:  Wed Mar 18 16:01:41 2015*
G04 *
G04 Layer:  PIN/PASTEMASK_TOP*
G04 Layer:  PACKAGE GEOMETRY/PASTEMASK_TOP*
G04 *
G04 Offset:    (0.0000 0.0000)*
G04 Mirror:    No*
G04 Mode:      Positive*
G04 Rotation:  0*
G04 FullContactRelief:  No*
G04 UndefLineWidth:     0.0000*
G04 ================== end FILE IDENTIFICATION RECORD ====================*
%FSLAX35Y35*MOMM*%
%IR0*IPPOS*OFA0.00000B0.00000*MIA0B0*SFA1.00000B1.00000*%
%ADD14O,1.651X.4064*%
%ADD22O,.4064X2.159*%
%ADD19R,1.651X.4064*%
%AMMACRO11*
4,1,5,-.62,.46,
.62,.46,
.16,0.0,
.62,-.46,
-.62,-.46,
-.62,.46,
0.0*
%
%ADD11MACRO11*%
%AMMACRO10*
4,1,5,.62,.46,
-.16,.46,
-.62,0.0,
-.16,-.46,
.62,-.46,
.62,.46,
0.0*
%
%ADD10MACRO10*%
%ADD23R,.4064X2.159*%
%ADD26R,1.016X.8636*%
%ADD27R,1.27X.8636*%
%ADD24R,.6096X.6096*%
%AMMACRO17*
4,1,5,.62,-.46,
-.62,-.46,
-.16,0.0,
-.62,.46,
.62,.46,
.62,-.46,
0.0*
%
%ADD17MACRO17*%
%AMMACRO16*
4,1,5,-.62,-.46,
.16,-.46,
.62,0.0,
.16,.46,
-.62,.46,
-.62,-.46,
0.0*
%
%ADD16MACRO16*%
%ADD21R,1.524X2.286*%
%ADD18R,4.3942X2.032*%
%ADD20R,1.9304X3.048*%
%ADD30R,.4826X.5334*%
%ADD29R,.5334X.4826*%
%ADD13R,1.1938X1.1938*%
%ADD28R,.8128X.9652*%
%ADD12R,.7874X.9144*%
%ADD15R,.9144X.7874*%
%ADD25R,9.9568X6.35*%
%LPD*%
G75*
G54D10*
X37030Y-640000D03*
Y-390000D03*
X357030D03*
X727030Y3840000D03*
Y4310000D03*
Y4640000D03*
X1227030Y-20000D03*
Y320000D03*
Y1000000D03*
Y660000D03*
Y1150000D03*
Y490000D03*
X5187030Y2291380D03*
G54D20*
X2990280Y-290000D03*
X2620280Y360000D03*
X2690280Y3170000D03*
X3589720Y-290000D03*
X3219720Y360000D03*
X3289720Y3170000D03*
G54D11*
X-76540Y-640000D03*
Y-390000D03*
X243460D03*
X613460Y3840000D03*
Y4310000D03*
Y4640000D03*
X1113460Y-20000D03*
Y320000D03*
Y1000000D03*
Y660000D03*
Y1150000D03*
Y490000D03*
X5073460Y2291380D03*
G54D12*
X530000Y-640000D03*
X690000D03*
X230000Y-890000D03*
X390000D03*
X530000D03*
X690000D03*
Y-390000D03*
X530000D03*
X230000Y-640000D03*
X390000D03*
X750000Y3990000D03*
X590000D03*
X750000Y4140000D03*
X590000D03*
X750000Y4470000D03*
X590000D03*
X1570000Y-1180000D03*
X1090000Y-1010000D03*
X1250000D03*
Y-1160000D03*
X1090000D03*
Y-560000D03*
X1250000D03*
Y-260000D03*
X1090000D03*
Y-860000D03*
X1250000D03*
Y-710000D03*
X1090000D03*
Y-410000D03*
X1250000D03*
X1500000Y890000D03*
Y1040000D03*
Y740000D03*
Y590000D03*
X1730000Y-1180000D03*
X2100000Y-1350000D03*
X1940000D03*
X2030000Y-1180000D03*
X1870000D03*
X2290000Y-1050000D03*
Y-750000D03*
Y-600000D03*
X1990000Y-440000D03*
X1830000D03*
X2290000Y-900000D03*
X1990000Y-290000D03*
X1830000D03*
X1660000Y890000D03*
Y1040000D03*
Y740000D03*
Y590000D03*
X2450000Y-1050000D03*
Y-750000D03*
Y-600000D03*
Y-900000D03*
X3100000Y670000D03*
X3260000D03*
X3740000Y3600000D03*
X4480000Y-270000D03*
X4330000D03*
X4170000D03*
X3900000Y3600000D03*
X4950000Y-270000D03*
X4790000D03*
X4640000D03*
X5720000Y-600000D03*
X5880000D03*
X5420000D03*
X5580000D03*
Y-750000D03*
X5420000D03*
X5880000D03*
X5720000D03*
X6290000Y-1290000D03*
X6450000D03*
X6020000Y-600000D03*
X6180000D03*
X6240000Y-750000D03*
X6080000D03*
G54D30*
X5572940Y-360000D03*
X5427060D03*
X5862940D03*
X5717060D03*
X6162940D03*
X6017060D03*
G54D21*
X3046300Y-710000D03*
X3473700D03*
G54D13*
X1474690Y-1360000D03*
X1685310D03*
X4464690Y-560000D03*
X4325310Y-760000D03*
X4114690D03*
X5035310D03*
X4824690D03*
X4675310Y-560000D03*
G54D22*
X3029500Y1050950D03*
X2964500D03*
X2899500Y2365050D03*
X2964500D03*
X3029500D03*
X3744500Y1050950D03*
X3679500D03*
X3614500D03*
X3549500D03*
X3484500D03*
X3419500D03*
X3354500D03*
X3289500D03*
X3224500D03*
X3159500D03*
X3094500D03*
Y2365050D03*
X3159500D03*
X3224500D03*
X3289500D03*
X3354500D03*
X3419500D03*
X3484500D03*
X3549500D03*
X3614500D03*
X3679500D03*
X3744500D03*
X4004500Y1050950D03*
X3939500D03*
X3874500D03*
X3809500D03*
Y2365050D03*
X3874500D03*
X3939500D03*
X4004500D03*
G54D23*
X2899500Y1050950D03*
G54D14*
X1472550Y-1005080D03*
Y-614940D03*
Y-679960D03*
Y-744980D03*
Y-810010D03*
Y-875030D03*
Y-940060D03*
X2047450D03*
Y-875030D03*
Y-810010D03*
Y-744980D03*
Y-679960D03*
Y-614940D03*
G54D15*
X1430000Y-440000D03*
Y-280000D03*
X2290000Y-1210000D03*
Y-1370000D03*
X2320000Y-290000D03*
Y-450000D03*
X2170000D03*
Y-290000D03*
X1680000Y-280000D03*
Y-440000D03*
X2450000Y-1210000D03*
Y-1370000D03*
X2470000Y-450000D03*
Y-290000D03*
X2730000Y980000D03*
Y820000D03*
Y2390000D03*
Y2550000D03*
X3050000Y2670000D03*
Y2830000D03*
X3220000D03*
Y2670000D03*
X3370000Y2830000D03*
Y2670000D03*
X3940000Y2600000D03*
X4120000D03*
X3940000Y3060000D03*
Y2900000D03*
Y2760000D03*
X4120000Y2900000D03*
Y3060000D03*
Y2760000D03*
X5110000Y30000D03*
Y-130000D03*
X4850000Y2130000D03*
Y2290000D03*
Y2430000D03*
Y2590000D03*
X5420000Y-1060000D03*
X5720000D03*
X5570000D03*
X5870000D03*
X5420000Y-900000D03*
X5720000D03*
X5570000D03*
X5870000D03*
X6020000Y-1060000D03*
X6170000D03*
X6020000Y-900000D03*
X6170000D03*
G54D24*
X2759520Y1100000D03*
X2660480D03*
G54D25*
X3452000Y1708000D03*
G54D16*
X1112970Y150000D03*
Y830000D03*
X5072970Y282120D03*
Y464780D03*
Y647440D03*
Y1012760D03*
Y830100D03*
Y1195420D03*
Y1560740D03*
Y1378080D03*
Y1743400D03*
Y1926060D03*
Y2474040D03*
Y2108720D03*
Y3022020D03*
Y3204680D03*
Y2656700D03*
Y2839360D03*
Y3570000D03*
Y3387340D03*
G54D17*
X1226540Y150000D03*
Y830000D03*
X5186540Y282120D03*
Y464780D03*
Y647440D03*
Y1012760D03*
Y830100D03*
Y1195420D03*
Y1560740D03*
Y1378080D03*
Y1743400D03*
Y1926060D03*
Y2474040D03*
Y2108720D03*
Y3022020D03*
Y3204680D03*
Y2656700D03*
Y2839360D03*
Y3570000D03*
Y3387340D03*
G54D26*
X2887800Y2695880D03*
Y2883840D03*
G54D18*
X1500290Y1720000D03*
X2339710D03*
G54D27*
X2687140Y2789860D03*
G54D28*
X3438880Y3600000D03*
X3581120D03*
G54D19*
X2047450Y-1005080D03*
G54D29*
X4330000Y22940D03*
Y-122940D03*
X4170000Y22940D03*
Y-122940D03*
X4480000Y22940D03*
Y-122940D03*
X4950000Y22940D03*
Y-122940D03*
X4640000Y22940D03*
Y-122940D03*
X4790000Y22940D03*
Y-122940D03*
M02*
