G04 ================== begin FILE IDENTIFICATION RECORD ==================*
G04 Layout Name:  EVSPIN32G4-DUAL-R1.brd*
G04 Film Name:    EVSPIN32G4-DUAL-R1-SMT*
G04 File Format:  Gerber RS274X*
G04 File Origin:  Cadence Allegro 17.4-S024*
G04 Origin Date:  Wed Jan 12 10:19:19 2022*
G04 *
G04 Layer:  BOARD GEOMETRY/DESIGN_OUTLINE*
G04 Layer:  VIA CLASS/SOLDERMASK_TOP*
G04 Layer:  PACKAGE GEOMETRY/SOLDERMASK_TOP*
G04 Layer:  PIN/SOLDERMASK_TOP*
G04 *
G04 Offset:    (0.00 0.00)*
G04 Mirror:    No*
G04 Mode:      Positive*
G04 Rotation:  0*
G04 FullContactRelief:  No*
G04 UndefLineWidth:     1.00*
G04 ================== end FILE IDENTIFICATION RECORD ====================*
%FSLAX25Y25*MOIN*%
%IR0*IPPOS*OFA0.00000B0.00000*MIA0B0*SFA1.00000B1.00000*%
%ADD36C,.04*%
%ADD20R,.14X.075*%
%ADD12C,.013*%
%ADD44R,.04X.04*%
%ADD28C,.056*%
%ADD21C,.066*%
%ADD47C,.076*%
%ADD13C,.069*%
%ADD15C,.04417*%
%ADD30R,.028X.028*%
%ADD25R,.037X.037*%
%ADD11R,.11584X.03513*%
%ADD14R,.069X.069*%
%ADD39R,.069X.14379*%
%ADD48R,.15157X.07087*%
%ADD40R,.054X.02*%
%ADD42R,.02X.054*%
%ADD31R,.04X.036*%
%ADD18R,.041X.036*%
%ADD16R,.036X.041*%
%ADD49C,.106*%
%ADD38O,.064X.0154*%
%ADD37O,.0154X.064*%
%ADD22R,.06012X.072*%
%ADD43R,.111X.111*%
%ADD27R,.038X.037*%
%ADD24R,.046X.056*%
%ADD29R,.037X.038*%
%ADD17R,.056X.046*%
%ADD45R,.054X.049*%
%ADD34R,.06102X.05315*%
%ADD32R,.05315X.06102*%
%ADD35R,.097X.075*%
%ADD10C,.1378*%
%ADD33R,.04337X.03117*%
%ADD41R,.167X.167*%
%ADD19R,.04337X.0256*%
%ADD23R,.04134X.03937*%
%ADD26R,.03937X.04134*%
%ADD46R,.02959X.049*%
%ADD50C,.001*%
%ADD51C,.00669*%
G75*
%LPD*%
G75*
G36*
G01X36800Y357050D02*
Y357950D01*
X31200D01*
Y357050D01*
X36800D01*
G37*
G36*
G01X93200Y196450D02*
Y195550D01*
X98800D01*
Y196450D01*
X93200D01*
G37*
G36*
G01X80450Y371300D02*
X79550D01*
Y365700D01*
X80450D01*
Y371300D01*
G37*
G36*
G01X93450D02*
X92550D01*
Y365700D01*
X93450D01*
Y371300D01*
G37*
G36*
G01X105550Y365700D02*
X106450D01*
Y371300D01*
X105550D01*
Y365700D01*
G37*
G36*
G01X138700Y196450D02*
Y195550D01*
X144300D01*
Y196450D01*
X138700D01*
G37*
G36*
G01X123450Y371300D02*
X122550D01*
Y365700D01*
X123450D01*
Y371300D01*
G37*
G36*
G01X179050Y238700D02*
X179950D01*
Y244300D01*
X179050D01*
Y238700D01*
G37*
G36*
G01X175050Y366700D02*
X175950D01*
Y372300D01*
X175050D01*
Y366700D01*
G37*
G36*
G01X195700Y49950D02*
Y49050D01*
X201300D01*
Y49950D01*
X195700D01*
G37*
G36*
G01X204200D02*
Y49050D01*
X209800D01*
Y49950D01*
X204200D01*
G37*
G36*
G01X202550Y337200D02*
X203450D01*
Y342800D01*
X202550D01*
Y337200D01*
G37*
G36*
G01X212700Y49950D02*
Y49050D01*
X218300D01*
Y49950D01*
X212700D01*
G37*
G36*
G01X221200D02*
Y49050D01*
X226800D01*
Y49950D01*
X221200D01*
G37*
G36*
G01X215450Y342800D02*
X214550D01*
Y337200D01*
X215450D01*
Y342800D01*
G37*
G36*
G01X229700Y49950D02*
Y49050D01*
X235300D01*
Y49950D01*
X229700D01*
G37*
G36*
G01X238200D02*
Y49050D01*
X243800D01*
Y49950D01*
X238200D01*
G37*
G36*
G01X254300Y366550D02*
Y367450D01*
X248700D01*
Y366550D01*
X254300D01*
G37*
G36*
G01X245800D02*
Y367450D01*
X240200D01*
Y366550D01*
X245800D01*
G37*
G36*
G01X259050Y39200D02*
X259950D01*
Y44800D01*
X259050D01*
Y39200D01*
G37*
G36*
G01Y56200D02*
X259950D01*
Y61800D01*
X259050D01*
Y56200D01*
G37*
G36*
G01Y47700D02*
X259950D01*
Y53300D01*
X259050D01*
Y47700D01*
G37*
G36*
G01X262800Y366550D02*
Y367450D01*
X257200D01*
Y366550D01*
X262800D01*
G37*
G36*
G01X274950Y74800D02*
X274050D01*
Y69200D01*
X274950D01*
Y74800D01*
G37*
G36*
G01Y338300D02*
X274050D01*
Y332700D01*
X274950D01*
Y338300D01*
G37*
G36*
G01X300600Y99500D02*
X302500D01*
Y100300D01*
X320500D01*
Y99500D01*
X322400D01*
Y95900D01*
X320500D01*
Y89900D01*
X322400D01*
Y86200D01*
X319600D01*
X317800Y84400D01*
X304400D01*
X302600Y86200D01*
X300600D01*
Y89900D01*
X302500D01*
Y95900D01*
X300600D01*
Y99500D01*
G37*
G36*
G01Y152000D02*
X302500D01*
Y152800D01*
X320500D01*
Y152000D01*
X322400D01*
Y148400D01*
X320500D01*
Y142400D01*
X322400D01*
Y138700D01*
X319600D01*
X317800Y136900D01*
X304400D01*
X302600Y138700D01*
X300600D01*
Y142400D01*
X302500D01*
Y148400D01*
X300600D01*
Y152000D01*
G37*
G36*
G01X322400Y251500D02*
X320500D01*
Y250700D01*
X302500D01*
Y251500D01*
X300600D01*
Y255100D01*
X302500D01*
Y261100D01*
X300600D01*
Y264800D01*
X303400D01*
X305200Y266600D01*
X318600D01*
X320400Y264800D01*
X322400D01*
Y261100D01*
X320500D01*
Y255100D01*
X322400D01*
Y251500D01*
G37*
G36*
G01Y304000D02*
X320500D01*
Y303200D01*
X302500D01*
Y304000D01*
X300600D01*
Y307600D01*
X302500D01*
Y313600D01*
X300600D01*
Y317300D01*
X303400D01*
X305200Y319100D01*
X318600D01*
X320400Y317300D01*
X322400D01*
Y313600D01*
X320500D01*
Y307600D01*
X322400D01*
Y304000D01*
G37*
G36*
G01X352100Y99500D02*
X354000D01*
Y100300D01*
X372000D01*
Y99500D01*
X373900D01*
Y95900D01*
X372000D01*
Y89900D01*
X373900D01*
Y86200D01*
X371100D01*
X369300Y84400D01*
X355900D01*
X354100Y86200D01*
X352100D01*
Y89900D01*
X354000D01*
Y95900D01*
X352100D01*
Y99500D01*
G37*
G36*
G01Y152000D02*
X354000D01*
Y152800D01*
X372000D01*
Y152000D01*
X373900D01*
Y148400D01*
X372000D01*
Y142400D01*
X373900D01*
Y138700D01*
X371100D01*
X369300Y136900D01*
X355900D01*
X354100Y138700D01*
X352100D01*
Y142400D01*
X354000D01*
Y148400D01*
X352100D01*
Y152000D01*
G37*
G36*
G01X373900Y251500D02*
X372000D01*
Y250700D01*
X354000D01*
Y251500D01*
X352100D01*
Y255100D01*
X354000D01*
Y261100D01*
X352100D01*
Y264800D01*
X354900D01*
X356700Y266600D01*
X370100D01*
X371900Y264800D01*
X373900D01*
Y261100D01*
X372000D01*
Y255100D01*
X373900D01*
Y251500D01*
G37*
G36*
G01Y304000D02*
X372000D01*
Y303200D01*
X354000D01*
Y304000D01*
X352100D01*
Y307600D01*
X354000D01*
Y313600D01*
X352100D01*
Y317300D01*
X354900D01*
X356700Y319100D01*
X370100D01*
X371900Y317300D01*
X373900D01*
Y313600D01*
X372000D01*
Y307600D01*
X373900D01*
Y304000D01*
G37*
G36*
G01X403600Y99500D02*
X405500D01*
Y100300D01*
X423500D01*
Y99500D01*
X425400D01*
Y95900D01*
X423500D01*
Y89900D01*
X425400D01*
Y86200D01*
X422600D01*
X420800Y84400D01*
X407400D01*
X405600Y86200D01*
X403600D01*
Y89900D01*
X405500D01*
Y95900D01*
X403600D01*
Y99500D01*
G37*
G36*
G01X403100Y152000D02*
X405000D01*
Y152800D01*
X423000D01*
Y152000D01*
X424900D01*
Y148400D01*
X423000D01*
Y142400D01*
X424900D01*
Y138700D01*
X422100D01*
X420300Y136900D01*
X406900D01*
X405100Y138700D01*
X403100D01*
Y142400D01*
X405000D01*
Y148400D01*
X403100D01*
Y152000D01*
G37*
G36*
G01X424900Y251500D02*
X423000D01*
Y250700D01*
X405000D01*
Y251500D01*
X403100D01*
Y255100D01*
X405000D01*
Y261100D01*
X403100D01*
Y264800D01*
X405900D01*
X407700Y266600D01*
X421100D01*
X422900Y264800D01*
X424900D01*
Y261100D01*
X423000D01*
Y255100D01*
X424900D01*
Y251500D01*
G37*
G36*
G01X425400Y304000D02*
X423500D01*
Y303200D01*
X405500D01*
Y304000D01*
X403600D01*
Y307600D01*
X405500D01*
Y313600D01*
X403600D01*
Y317300D01*
X406400D01*
X408200Y319100D01*
X421600D01*
X423400Y317300D01*
X425400D01*
Y313600D01*
X423500D01*
Y307600D01*
X425400D01*
Y304000D01*
G37*
G54D10*
X14000Y14000D03*
Y201500D03*
Y391512D03*
X33000Y15500D03*
X36000Y391000D03*
X517500Y14000D03*
X500000Y9000D03*
X517500Y201500D03*
Y391512D03*
G54D11*
X13488Y277500D03*
Y282500D03*
Y287500D03*
Y292500D03*
Y297500D03*
Y302500D03*
Y307500D03*
X29512Y277500D03*
Y282500D03*
Y287500D03*
Y292500D03*
Y297500D03*
Y302500D03*
Y307500D03*
G54D20*
X79500Y21000D03*
X485000Y186500D03*
Y217500D03*
G54D30*
X139900Y304500D03*
Y318500D03*
X144100Y304500D03*
Y318500D03*
G54D21*
X79000Y196000D03*
X91500Y248500D03*
Y266500D03*
X95500Y355500D03*
X120500Y287000D03*
X116500Y355500D03*
X124500Y196000D03*
X140500Y231500D03*
X127000Y244000D03*
Y258000D03*
X142000Y333000D03*
X151000Y218000D03*
Y240500D03*
X151500Y278500D03*
Y293000D03*
X148000Y368500D03*
X182500Y76000D03*
X178000Y89500D03*
X189000Y222500D03*
X169000Y236000D03*
X181000Y250000D03*
X190000Y66000D03*
X205000D03*
X197500Y76000D03*
X205000Y129500D03*
X204500Y222500D03*
X201000Y330500D03*
X220000Y66000D03*
X227500Y76000D03*
X212500D03*
X217500Y212500D03*
X213500Y234500D03*
X212000Y330500D03*
X284000Y64500D03*
Y336500D03*
G54D12*
X5500Y282500D03*
Y297500D03*
Y292500D03*
Y302500D03*
X32000Y264000D03*
X32250Y256750D03*
X49000Y106500D03*
X36500Y271500D03*
X51000Y302500D03*
X53750Y305250D03*
X42750Y297250D03*
X41250Y293750D03*
X48000Y299750D03*
X38500Y291000D03*
X48000Y295500D03*
X52500Y349500D03*
X46000Y335000D03*
X54500Y343101D03*
Y332000D03*
X76500Y92000D03*
X76130Y299500D03*
X56500Y308000D03*
X62250Y313750D03*
X59250Y310750D03*
X65000Y317500D03*
X61854Y334646D03*
X68500Y343000D03*
X62000Y340500D03*
X74000Y360000D03*
Y354000D03*
X79500Y21000D03*
X98000Y40500D03*
X89000Y72500D03*
X78000Y79000D03*
X95870Y112000D03*
X88000Y202500D03*
X85500Y237000D03*
X91500Y248500D03*
X95500Y355500D03*
X83000Y354000D03*
Y360000D03*
X96000Y364000D03*
X105500Y37500D03*
X113000Y31000D03*
X116000Y34000D03*
X120000Y51000D03*
Y87500D03*
X101500D03*
X100146Y262000D03*
X117854D03*
X112123Y249000D03*
X118000D03*
X100000Y249250D03*
X105000Y281500D03*
X120000Y302500D03*
X116500Y322750D03*
X101000Y309000D03*
X108000Y364500D03*
X111500Y354000D03*
Y360000D03*
X103500Y364000D03*
X125250Y43500D03*
X131500Y44000D03*
X132500Y48000D03*
X125630Y112000D03*
X133500Y202500D03*
X137500Y224000D03*
X133500Y254000D03*
Y248000D03*
X136000Y260000D03*
Y283500D03*
X135500Y277000D03*
X126500Y283500D03*
X135500Y266500D03*
X136000Y290000D03*
X135500Y296500D03*
X126500Y302500D03*
X137000Y318500D03*
X135000Y347500D03*
Y355500D03*
Y363500D03*
X159000Y216500D03*
Y230500D03*
X151000Y224500D03*
X159000Y243250D03*
X152000Y286000D03*
X154500Y281000D03*
X147000Y304500D03*
X159000D03*
X158000Y328500D03*
X161500D03*
X154500Y322500D03*
X164000D03*
X163500Y311500D03*
X155500Y351000D03*
X160000Y344500D03*
X151500D03*
X155500Y354500D03*
X166500Y76000D03*
X178000Y88000D03*
X176000Y217500D03*
X179000Y208750D03*
X176646Y230500D03*
X166000Y243000D03*
X173500Y257000D03*
X169000Y254000D03*
X172500Y244000D03*
X184500Y296500D03*
Y300000D03*
X171500Y301501D03*
X168000Y307500D03*
X169500Y311000D03*
X172000D03*
X186000Y332000D03*
X169500Y369500D03*
X207000Y43000D03*
X192000Y85500D03*
X208500D03*
X197500Y76000D03*
X208500Y79500D03*
X205000Y88000D03*
X191500Y103945D03*
Y97055D03*
X193500Y115354D03*
Y132250D03*
X189000Y205000D03*
Y243000D03*
X202000Y241500D03*
X195500Y229500D03*
X200000Y256100D03*
X207000Y254000D03*
X195500Y261000D03*
X191500Y283000D03*
X203500D03*
X190612Y275000D03*
X191500Y295000D03*
X203500D03*
X197500Y289000D03*
X203500Y321000D03*
X207000Y323500D03*
X201000Y330500D03*
X188000Y317000D03*
X200146Y351000D03*
X192500Y349000D03*
Y341000D03*
X190500Y338000D03*
X188500Y335000D03*
X194000Y344000D03*
X203000Y374500D03*
X224000Y43000D03*
X218500Y96000D03*
X214500Y92000D03*
Y100000D03*
X222500D03*
Y92000D03*
X224000Y109500D03*
X214000Y114000D03*
X221500Y217500D03*
X229500Y221500D03*
X227000Y234000D03*
X216500Y247500D03*
X227000D03*
X214476Y269976D03*
X211500Y295000D03*
X225500Y308500D03*
X218062Y305938D03*
X226500Y320000D03*
X212000Y330500D03*
X214500Y311000D03*
X215500Y314500D03*
X221000Y315000D03*
X228000Y311500D03*
X213001Y317001D03*
X218354Y351000D03*
X223000Y340500D03*
X209500Y364000D03*
X215500Y374500D03*
X241000Y43000D03*
X245000Y86500D03*
X241500Y95000D03*
X234000Y97500D03*
X245000Y103000D03*
Y110500D03*
X232501Y117000D03*
X251500Y137000D03*
Y150000D03*
X230914Y224914D03*
X231500Y235500D03*
Y239000D03*
X244500Y361000D03*
X241500D03*
X253500Y43000D03*
Y40500D03*
Y58000D03*
Y60500D03*
X268500Y64500D03*
X253500Y49000D03*
Y52000D03*
X268000Y72000D03*
X263500Y79000D03*
X270500Y86000D03*
X263500Y98000D03*
X271000Y104750D03*
X263500Y117000D03*
X263665Y181164D03*
X260000Y181000D03*
X270500Y238000D03*
X270000Y224750D03*
X266500Y247500D03*
X270500Y271000D03*
X264000Y283000D03*
X270500Y290000D03*
X264000Y302000D03*
X270500Y309000D03*
X268600Y328500D03*
X268500Y335500D03*
X279250Y10750D03*
X282000Y95000D03*
Y98500D03*
X280500Y131500D03*
Y128000D03*
X282000Y151500D03*
Y158911D03*
X283500Y397500D03*
X314000Y77000D03*
X316500Y80500D03*
X296500Y87500D03*
X299000Y84000D03*
X296500Y80500D03*
X309000Y77000D03*
X304000D03*
X299000D03*
X301500Y80500D03*
X306500D03*
X311500D03*
X317499Y89499D03*
X305499D03*
X299000Y91000D03*
X317499Y97999D03*
X311499Y93499D03*
X305499Y97999D03*
X309000Y110500D03*
X313500D03*
X318000D03*
X316500Y114000D03*
X312000D03*
X318000Y117000D03*
X313500D03*
X309000D03*
X299000Y142500D03*
Y151500D03*
Y147000D03*
X317999Y142499D03*
Y146499D03*
Y150499D03*
X311499D03*
Y146499D03*
Y142499D03*
X304999Y150499D03*
Y146499D03*
Y142499D03*
X318000Y163500D03*
X313500D03*
X309000D03*
X311000Y167000D03*
X315500D03*
X308999Y170499D03*
X318000Y170500D03*
X313500D03*
X315500Y195000D03*
X316000Y204500D03*
X311500Y202000D03*
Y207500D03*
X305500Y240000D03*
X310000D03*
X314500D03*
X317000Y236500D03*
X312500D03*
X308000D03*
X316000Y227000D03*
X312500Y229000D03*
Y232500D03*
X316000Y230500D03*
Y234000D03*
X305001Y253001D03*
X318001D03*
X311501D03*
X305001Y261001D03*
Y257001D03*
X318001Y261001D03*
Y257001D03*
X311501D03*
Y261001D03*
X313000Y286000D03*
X304000D03*
X308500D03*
X317500D03*
X304000Y292500D03*
X308500D03*
X313000D03*
X306500Y289500D03*
X311000D03*
X317500Y292500D03*
X315500Y289500D03*
X305000Y305500D03*
X318000D03*
X305000Y313500D03*
X311500Y309500D03*
X318000Y313500D03*
X306501Y323001D03*
X311500Y323000D03*
X316500D03*
X309001Y326501D03*
X314001D03*
X333500Y98500D03*
Y95000D03*
X322500Y110500D03*
X321000Y114000D03*
X325500D03*
X322500Y117000D03*
X320000Y167000D03*
X325000D03*
X322500Y163500D03*
Y170500D03*
X332000Y195000D03*
X335500Y199000D03*
X324000D03*
X329500D03*
X326500Y195000D03*
X318500Y199000D03*
X321000Y195000D03*
X338500D03*
X335500Y221000D03*
Y217500D03*
X334000Y234000D03*
X329630Y234126D03*
X325000Y234000D03*
X320500D03*
X338500D03*
X319000Y240000D03*
X321500Y236500D03*
X322500Y244500D03*
X324000Y261000D03*
Y256500D03*
Y252000D03*
X322500Y296500D03*
X320000Y289500D03*
X321500Y323000D03*
X326500D03*
X319001Y326501D03*
X324001D03*
Y319501D03*
X326501Y316001D03*
X324001Y312501D03*
X348000Y87500D03*
X350500Y84000D03*
X348000Y80500D03*
X360500Y77000D03*
X355500D03*
X350500D03*
X353000Y80500D03*
X358000D03*
X356999Y89499D03*
X350500Y91000D03*
X356999Y97999D03*
X360501Y110501D03*
X352000Y106411D03*
X360501Y117001D03*
X350500Y142500D03*
X356500Y150500D03*
Y146500D03*
Y142500D03*
X350500Y151500D03*
Y147000D03*
X358500Y163000D03*
X352000Y158911D03*
X352500Y199000D03*
X347000D03*
X341500D03*
X344000Y195000D03*
X355500D03*
X349500D03*
X355000Y204500D03*
X359500Y202000D03*
Y207500D03*
X354000Y240500D03*
X358500D03*
X356500Y234000D03*
X352000D03*
X343000D03*
X347500D03*
X356501Y253001D03*
Y257001D03*
Y261001D03*
X354000Y286500D03*
X358500D03*
X341000Y305500D03*
X356500D03*
X354000Y293000D03*
X358500D03*
X356500Y290000D03*
X361130D03*
X341000Y309000D03*
X356500Y313500D03*
X360501Y326501D03*
X358001Y323001D03*
X365500Y77000D03*
X368000Y80500D03*
X363000D03*
X368999Y89499D03*
Y97999D03*
X362999Y93499D03*
X365001Y110501D03*
X369501D03*
X374001D03*
X365001Y117001D03*
X369501D03*
X374001D03*
X363001Y114001D03*
X367501D03*
X372001D03*
X376501D03*
X363000Y150500D03*
Y146500D03*
Y142500D03*
X369500D03*
Y146500D03*
Y150500D03*
X367500Y163000D03*
X363000D03*
X369500Y169500D03*
X374000D03*
X378500D03*
X382999Y169499D03*
X372000Y163000D03*
X371000Y199000D03*
X366500Y196000D03*
X370500Y208500D03*
X379000Y204500D03*
X373500D03*
X382000Y208500D03*
X376500D03*
X366500Y201500D03*
X363000Y240500D03*
X367500D03*
X374000Y244589D03*
X363001Y253001D03*
Y257001D03*
Y261001D03*
X369501Y253001D03*
Y261001D03*
Y257001D03*
X375500Y261000D03*
Y256500D03*
Y252000D03*
X363001Y286501D03*
X367501D03*
X374000Y296500D03*
X369500Y305500D03*
X363000Y293000D03*
X367500D03*
X365500Y290000D03*
X370000D03*
X369500Y313500D03*
X363000Y309500D03*
X370501Y326501D03*
X365501D03*
X373000Y323000D03*
X368000D03*
X363000D03*
X378001Y316001D03*
X375501Y319501D03*
Y326501D03*
X378000Y323000D03*
X375501Y312501D03*
X404500Y80500D03*
X402000Y77000D03*
X399500Y80500D03*
X402000Y84000D03*
X399500Y87500D03*
X385000Y98500D03*
Y95000D03*
X402000Y91000D03*
X403500Y106411D03*
X401500Y142500D03*
Y151500D03*
Y147000D03*
X404499Y166999D03*
X392000Y169500D03*
X387500D03*
X396500D03*
X405500D03*
X401000D03*
X403000Y158911D03*
X390500Y183000D03*
Y186500D03*
Y204500D03*
X402000D03*
X396500D03*
X405000Y208500D03*
X399500D03*
X394000D03*
X384500Y204500D03*
X387500Y208500D03*
X403000Y233000D03*
X405500Y236500D03*
X403000Y240000D03*
X400500Y236500D03*
X392500Y305500D03*
X404000Y297000D03*
X392500Y309000D03*
X419500Y80500D03*
X414500D03*
X409500D03*
X417000Y77000D03*
X407000D03*
X412000D03*
X420499Y89499D03*
X408499D03*
X420499Y97999D03*
X408499D03*
X414499Y93499D03*
X414500Y106500D03*
X420999Y142499D03*
Y146499D03*
Y150499D03*
X414499D03*
Y146499D03*
Y142499D03*
X407999Y150499D03*
Y146499D03*
Y142499D03*
X409000Y167000D03*
X413500D03*
X418000D03*
X407000Y163500D03*
X411500D03*
X416000D03*
X420500D03*
X410000Y173000D03*
X413500Y171000D03*
Y174500D03*
X410000Y176500D03*
Y169500D03*
X414500Y196000D03*
X410000Y199000D03*
X414500Y201500D03*
X407500Y204500D03*
X410500Y208500D03*
X412001Y240001D03*
X407500Y233000D03*
X412000D03*
X410000Y236500D03*
X412000Y240000D03*
X407500D03*
X416500Y233000D03*
X414500Y236500D03*
X416500Y240000D03*
X425000Y244589D03*
X408001Y253001D03*
Y261001D03*
Y257001D03*
X414501Y253001D03*
X421001D03*
X414501Y257001D03*
Y261001D03*
X421001Y257001D03*
Y261001D03*
X426500Y252000D03*
Y256500D03*
Y261000D03*
X425500Y297089D03*
X421000Y305500D03*
X408000D03*
X421000Y313500D03*
X414500Y309500D03*
X408000Y313500D03*
X422001Y326501D03*
X417001D03*
X424500Y323000D03*
X419500D03*
X414500D03*
X412001Y326501D03*
X409501Y323001D03*
X427001Y319501D03*
Y326501D03*
Y312501D03*
X444000Y305500D03*
Y309000D03*
X429501Y316001D03*
X429500Y323000D03*
X480000Y186500D03*
X490000D03*
Y217500D03*
X480000D03*
G54D22*
X76130Y286060D03*
Y312440D03*
X95870Y98560D03*
X80130D03*
X95870Y124940D03*
X80130D03*
X91870Y286060D03*
Y312440D03*
X125630Y98560D03*
X141370D03*
X125630Y124940D03*
X141370D03*
G54D31*
X139490Y313419D03*
Y309581D03*
X144510D03*
Y313419D03*
G54D40*
X209800Y91080D03*
Y93048D03*
Y95016D03*
Y96984D03*
Y98952D03*
Y100920D03*
X227200D03*
Y98952D03*
Y96984D03*
Y95016D03*
Y93048D03*
Y91080D03*
G54D13*
X20000Y68625D03*
Y88625D03*
X30000D03*
X20000Y78625D03*
X30000D03*
X20000Y108625D03*
X30000D03*
X20000Y98625D03*
X30000D03*
Y118625D03*
X20000D03*
X30000Y128625D03*
X20000D03*
X30000Y138625D03*
X20000D03*
X30000Y148625D03*
X20000D03*
X30000Y158625D03*
X20000D03*
X18000Y242500D03*
Y232500D03*
Y342500D03*
Y352500D03*
Y362500D03*
X78000Y166000D03*
X68000Y384500D03*
X78000D03*
X88000Y176000D03*
X98000Y166000D03*
X84000Y219000D03*
X94000D03*
X98000Y384500D03*
X88000D03*
X119500Y21000D03*
X109500D03*
X123500Y166000D03*
X114000Y219000D03*
X104000D03*
X118000Y384500D03*
X108000D03*
X133500Y176000D03*
X143500Y166000D03*
X138000Y384500D03*
X128000D03*
X159500Y21000D03*
X179500D03*
X169500D03*
X171000Y111000D03*
X168000Y384500D03*
X188000D03*
X178000D03*
X189500Y21000D03*
X198000Y384500D03*
X228000D03*
X239500Y21000D03*
X249500D03*
X238000Y344500D03*
X248000Y384500D03*
X238000D03*
X269500Y21000D03*
X259500D03*
X258000Y384500D03*
G54D50*
G01X531500Y0D02*
Y405512D01*
X0D01*
Y0D01*
X531500D01*
G54D23*
X58500Y340354D03*
Y334646D03*
X88000Y198854D03*
Y193146D03*
X133500Y198854D03*
Y193146D03*
X126500Y305646D03*
Y317146D03*
Y322854D03*
Y311354D03*
X165000Y259646D03*
Y265354D03*
X196000Y86146D03*
X197000Y109646D03*
X196000Y91854D03*
X197000Y115354D03*
Y132354D03*
Y126646D03*
X195500Y239354D03*
Y233646D03*
X202000Y246646D03*
Y252354D03*
X189000Y246646D03*
Y252354D03*
G54D41*
X197500Y289000D03*
G54D32*
X140445Y341500D03*
X133555D03*
X221555Y115000D03*
X228445D03*
X234555Y86500D03*
X241445D03*
X234555Y103000D03*
X241445D03*
X234555Y270500D03*
X241445D03*
X234555Y283000D03*
X241445D03*
X234555Y295500D03*
X241445D03*
X290445Y39500D03*
X283555D03*
X286055Y97500D03*
X292945D03*
X290445Y366000D03*
X283555D03*
X337555Y97500D03*
X336945Y306500D03*
X330055D03*
X344445Y97500D03*
X381555Y306500D03*
X389055Y97500D03*
X395945D03*
X388445Y306500D03*
X439945D03*
X433055D03*
G54D14*
X30000Y68625D03*
X18000Y252500D03*
Y332500D03*
X74000Y219000D03*
X129500Y21000D03*
X148000Y384500D03*
X171000Y121000D03*
X199500Y21000D03*
X208000Y384500D03*
X229500Y21000D03*
X248000Y344500D03*
X268000Y384500D03*
G54D51*
G01X2347Y-31181D02*
X509D01*
Y-27638D01*
X2347D01*
G01X1612Y-29350D02*
X509D01*
G01X3627Y-27638D02*
X4775Y-31181D01*
X5923Y-27638D01*
G01X7157Y-30709D02*
X7525Y-31004D01*
X7938Y-31181D01*
X8306D01*
X8673Y-31004D01*
X8949Y-30709D01*
X9087Y-30295D01*
X8995Y-29882D01*
X8765Y-29528D01*
X8352Y-29291D01*
X7800Y-29173D01*
X7479Y-28937D01*
X7341Y-28524D01*
X7433Y-28110D01*
X7663Y-27815D01*
X7984Y-27638D01*
X8306D01*
X8627Y-27756D01*
X8903Y-28051D01*
G01X10550Y-31181D02*
Y-27638D01*
X11653D01*
X12020Y-27815D01*
X12296Y-28228D01*
X12388Y-28701D01*
X12296Y-29173D01*
X12066Y-29528D01*
X11653Y-29705D01*
X10550D01*
G01X14265Y-27638D02*
X15367D01*
G01X14816D02*
Y-31181D01*
G01X14265D02*
X15367D01*
G01X17107D02*
Y-27638D01*
X19219Y-31181D01*
Y-27638D01*
G01X20499Y-30472D02*
X20775Y-30886D01*
X21142Y-31122D01*
X21556Y-31181D01*
X21923Y-31122D01*
X22291Y-30827D01*
X22521Y-30472D01*
X22566Y-30118D01*
X22475Y-29705D01*
X22153Y-29410D01*
X21832Y-29291D01*
X21418D01*
G01X21832D02*
X22107Y-29114D01*
X22337Y-28819D01*
X22429Y-28465D01*
X22337Y-28110D01*
X22107Y-27815D01*
X21694Y-27638D01*
X21280Y-27697D01*
X20867Y-27933D01*
G01X23984Y-28228D02*
X24260Y-27874D01*
X24581Y-27697D01*
X24949Y-27638D01*
X25408Y-27756D01*
X25730Y-28051D01*
X25822Y-28406D01*
X25776Y-28760D01*
X25592Y-29055D01*
X24673Y-29646D01*
X24260Y-30059D01*
X23984Y-30650D01*
X23892Y-31181D01*
X25822D01*
G01X28480Y-29410D02*
X29398D01*
Y-30472D01*
X29123Y-30827D01*
X28801Y-31063D01*
X28342Y-31181D01*
X27882Y-31063D01*
X27561Y-30827D01*
X27285Y-30472D01*
X27102Y-30059D01*
X27010Y-29587D01*
Y-29173D01*
X27102Y-28819D01*
X27285Y-28406D01*
X27561Y-28051D01*
X27836Y-27815D01*
X28204Y-27638D01*
X28526D01*
X28893Y-27756D01*
X29169Y-27992D01*
G01X32102Y-31181D02*
Y-27638D01*
X30403Y-30177D01*
X32699D01*
G01X34301Y-30000D02*
X35495D01*
G01X37234Y-31181D02*
Y-27638D01*
X38153D01*
X38521Y-27815D01*
X38796Y-28051D01*
X39026Y-28406D01*
X39210Y-28819D01*
X39256Y-29410D01*
X39210Y-30000D01*
X39026Y-30413D01*
X38796Y-30768D01*
X38521Y-31004D01*
X38153Y-31181D01*
X37234D01*
G01X40581Y-27638D02*
Y-30177D01*
X40765Y-30709D01*
X41133Y-31063D01*
X41592Y-31181D01*
X42051Y-31063D01*
X42419Y-30709D01*
X42603Y-30177D01*
Y-27638D01*
G01X43791Y-31181D02*
X44939Y-27638D01*
X46087Y-31181D01*
G01X45674Y-29941D02*
X44204D01*
G01X47367Y-27638D02*
Y-31181D01*
X49205D01*
G01X54061D02*
Y-27638D01*
X55210D01*
X55577Y-27815D01*
X55807Y-28051D01*
X55899Y-28524D01*
X55807Y-28996D01*
X55531Y-29291D01*
X55210Y-29469D01*
X54061D01*
G01X55210D02*
X55899Y-31181D01*
G01X61674D02*
Y-27638D01*
X61123Y-28347D01*
G01Y-31181D02*
X62225D01*
G01X67403Y-30709D02*
X67771Y-31004D01*
X68184Y-31181D01*
X68552D01*
X68919Y-31004D01*
X69195Y-30709D01*
X69333Y-30295D01*
X69241Y-29882D01*
X69011Y-29528D01*
X68598Y-29291D01*
X68046Y-29173D01*
X67725Y-28937D01*
X67587Y-28524D01*
X67679Y-28110D01*
X67909Y-27815D01*
X68230Y-27638D01*
X68552D01*
X68873Y-27756D01*
X69149Y-28051D01*
G01X70521Y-31181D02*
Y-27638D01*
X71715Y-30591D01*
X72909Y-27638D01*
Y-31181D01*
G01X75062Y-27638D02*
Y-31181D01*
G01X74006Y-27638D02*
X76118D01*
G01X85103Y-31181D02*
Y-27638D01*
X84552Y-28347D01*
G01Y-31181D02*
X85654D01*
G01X87577Y-28228D02*
X87853Y-27874D01*
X88174Y-27697D01*
X88542Y-27638D01*
X89001Y-27756D01*
X89323Y-28051D01*
X89415Y-28406D01*
X89369Y-28760D01*
X89185Y-29055D01*
X88266Y-29646D01*
X87853Y-30059D01*
X87577Y-30650D01*
X87485Y-31181D01*
X89415D01*
G01X91200Y-30000D02*
X92394D01*
G01X94225Y-30472D02*
X94455Y-30827D01*
X94731Y-31063D01*
X95052Y-31181D01*
X95420Y-31063D01*
X95695Y-30827D01*
X95971Y-30472D01*
X96063Y-30000D01*
Y-27638D01*
G01X99318Y-31181D02*
Y-28819D01*
G01Y-29232D02*
X99134Y-28996D01*
X98858Y-28878D01*
X98537Y-28819D01*
X98215Y-28937D01*
X97940Y-29173D01*
X97756Y-29528D01*
X97664Y-30000D01*
X97756Y-30472D01*
X97940Y-30827D01*
X98215Y-31063D01*
X98537Y-31181D01*
X98858Y-31122D01*
X99134Y-30945D01*
X99318Y-30709D01*
G01X101057Y-31181D02*
Y-28819D01*
G01Y-29410D02*
X101241Y-29114D01*
X101516Y-28878D01*
X101884Y-28819D01*
X102205Y-28878D01*
X102481Y-29114D01*
X102619Y-29528D01*
Y-31181D01*
G01X104588Y-30000D02*
X105782D01*
G01X107659Y-28228D02*
X107935Y-27874D01*
X108256Y-27697D01*
X108624Y-27638D01*
X109083Y-27756D01*
X109405Y-28051D01*
X109497Y-28406D01*
X109451Y-28760D01*
X109267Y-29055D01*
X108348Y-29646D01*
X107935Y-30059D01*
X107659Y-30650D01*
X107567Y-31181D01*
X109497D01*
G01X111879Y-27638D02*
X111511Y-27756D01*
X111236Y-28051D01*
X111052Y-28406D01*
X110914Y-28878D01*
X110868Y-29410D01*
X110914Y-29941D01*
X111052Y-30413D01*
X111236Y-30768D01*
X111511Y-31063D01*
X111879Y-31181D01*
X112246Y-31063D01*
X112522Y-30768D01*
X112706Y-30413D01*
X112844Y-29941D01*
X112890Y-29410D01*
X112844Y-28878D01*
X112706Y-28406D01*
X112522Y-28051D01*
X112246Y-27756D01*
X111879Y-27638D01*
G01X114353Y-28228D02*
X114629Y-27874D01*
X114950Y-27697D01*
X115318Y-27638D01*
X115777Y-27756D01*
X116099Y-28051D01*
X116191Y-28406D01*
X116145Y-28760D01*
X115961Y-29055D01*
X115042Y-29646D01*
X114629Y-30059D01*
X114353Y-30650D01*
X114261Y-31181D01*
X116191D01*
G01X117700Y-28228D02*
X117976Y-27874D01*
X118297Y-27697D01*
X118665Y-27638D01*
X119124Y-27756D01*
X119446Y-28051D01*
X119538Y-28406D01*
X119492Y-28760D01*
X119308Y-29055D01*
X118389Y-29646D01*
X117976Y-30059D01*
X117700Y-30650D01*
X117608Y-31181D01*
X119538D01*
G01X127695D02*
Y-27638D01*
X128844D01*
X129211Y-27815D01*
X129441Y-28051D01*
X129533Y-28524D01*
X129441Y-28996D01*
X129165Y-29291D01*
X128844Y-29469D01*
X127695D01*
G01X128844D02*
X129533Y-31181D01*
G01X131961Y-28819D02*
Y-31181D01*
G01Y-27874D02*
X131869Y-27815D01*
Y-27697D01*
X131961Y-27638D01*
X132053Y-27697D01*
Y-27815D01*
X131961Y-27874D01*
G01X134665Y-32067D02*
X134986Y-32303D01*
X135354Y-32362D01*
X135675Y-32303D01*
X135951Y-32008D01*
X136135Y-31594D01*
Y-28819D01*
G01Y-29291D02*
X135951Y-29055D01*
X135675Y-28878D01*
X135354Y-28819D01*
X134986Y-28937D01*
X134757Y-29173D01*
X134573Y-29587D01*
X134481Y-30000D01*
X134527Y-30354D01*
X134711Y-30768D01*
X134986Y-31063D01*
X135354Y-31181D01*
X135630Y-31122D01*
X135951Y-30886D01*
X136135Y-30650D01*
G01X138655Y-31181D02*
X138379Y-31122D01*
X138104Y-30886D01*
X137920Y-30472D01*
X137828Y-30000D01*
X137920Y-29528D01*
X138104Y-29114D01*
X138379Y-28878D01*
X138655Y-28819D01*
X138931Y-28878D01*
X139206Y-29114D01*
X139390Y-29528D01*
X139436Y-30000D01*
X139390Y-30472D01*
X139206Y-30886D01*
X138931Y-31122D01*
X138655Y-31181D01*
G54D33*
X140100Y351760D03*
X129900D03*
X140100Y359240D03*
X129900D03*
Y355500D03*
G54D24*
X77450Y368500D03*
X82550D03*
X95550D03*
X90450D03*
X103450D03*
X108550D03*
X120450D03*
X125550D03*
X176950Y241500D03*
X182050D03*
X172950Y369500D03*
X178050D03*
X200450Y340000D03*
X205550D03*
X217550D03*
X212450D03*
X256950Y42000D03*
X262050D03*
X256950Y59000D03*
X262050D03*
X256950Y50500D03*
X262050D03*
X271950Y72000D03*
Y335500D03*
X277050Y72000D03*
Y335500D03*
G54D42*
X223420Y87300D03*
X221452D03*
X219484D03*
X217516D03*
X215548D03*
X213580D03*
Y104700D03*
X215548D03*
X217516D03*
X219484D03*
X221452D03*
X223420D03*
G54D15*
X21500Y280000D03*
Y305000D03*
G54D34*
X159500Y321945D03*
Y315055D03*
X160000Y339945D03*
Y333055D03*
X151500D03*
Y339945D03*
X187000Y84555D03*
Y91445D03*
Y103945D03*
Y97055D03*
X186000Y321055D03*
Y327945D03*
X168000Y315055D03*
Y321945D03*
X196000Y103945D03*
Y97055D03*
X283500Y24555D03*
Y31445D03*
Y373555D03*
Y380445D03*
G54D43*
X218500Y96000D03*
G54D16*
X34000Y340250D03*
Y334750D03*
X100000Y240250D03*
Y245750D03*
X112000Y240250D03*
X106000D03*
X118000D03*
X112000Y245750D03*
X106000D03*
X118000D03*
X120000Y305750D03*
Y311250D03*
Y317250D03*
Y322750D03*
X133000Y305750D03*
Y317250D03*
Y322750D03*
Y311250D03*
X159000Y219750D03*
X151000Y233750D03*
Y228250D03*
X159000Y239250D03*
Y233750D03*
Y225250D03*
X151000Y246750D03*
Y252250D03*
X159000D03*
Y246750D03*
X184000Y109750D03*
Y126750D03*
Y132250D03*
Y115250D03*
X176000Y214250D03*
Y208750D03*
X182500D03*
Y214250D03*
X173500Y253250D03*
Y247750D03*
X166000Y246750D03*
Y252250D03*
X190500Y109750D03*
Y115250D03*
Y132250D03*
Y126750D03*
X195500Y219750D03*
Y225250D03*
X189000Y239250D03*
Y233750D03*
X195500Y246750D03*
Y252250D03*
X206000Y366750D03*
Y372250D03*
X200000D03*
Y366750D03*
X220500Y225250D03*
Y230750D03*
X227000D03*
Y225250D03*
X212500Y366750D03*
Y372250D03*
X218500D03*
Y366750D03*
X267500Y85750D03*
Y91250D03*
Y110250D03*
Y104750D03*
Y129250D03*
Y123750D03*
Y143250D03*
Y137750D03*
Y156250D03*
Y150750D03*
Y169250D03*
Y163750D03*
X267000Y243250D03*
Y237750D03*
Y230250D03*
Y224750D03*
Y256250D03*
Y250750D03*
Y276250D03*
Y270750D03*
Y295250D03*
Y289750D03*
Y308750D03*
Y314250D03*
X284500Y132750D03*
Y127250D03*
X285000Y272750D03*
Y278250D03*
X297000Y112250D03*
Y106750D03*
Y164750D03*
Y159250D03*
X326000Y238750D03*
Y244250D03*
Y291250D03*
Y296750D03*
X348500Y112250D03*
Y106750D03*
Y164750D03*
Y159250D03*
X377500Y238750D03*
Y244250D03*
Y291250D03*
Y296750D03*
X400000Y112250D03*
Y106750D03*
X399500Y164750D03*
Y159250D03*
X428500Y238750D03*
Y244250D03*
X429000Y291250D03*
Y296750D03*
G54D25*
X97500Y87500D03*
X91500D03*
X124000D03*
X130000D03*
G54D26*
X100146Y265500D03*
X112146D03*
X117854D03*
X105854D03*
X139146Y266500D03*
Y277000D03*
Y290000D03*
Y296500D03*
X134146Y368500D03*
X139854D03*
X144854Y266500D03*
Y277000D03*
X162646Y301500D03*
X144854Y290000D03*
Y296500D03*
X159146Y308500D03*
X164854D03*
X182354Y234000D03*
X176646D03*
X168354Y301500D03*
X201646Y236500D03*
X207354D03*
X205854Y347500D03*
X200146D03*
X216354Y243500D03*
X210646D03*
X216354Y251500D03*
X210646D03*
X221146D03*
X226854D03*
X222854Y320000D03*
X217146D03*
X212646Y347500D03*
X218354D03*
X230146Y369500D03*
X235854D03*
X267854Y34500D03*
X262146D03*
G54D35*
X162050Y352500D03*
X177050D03*
G54D17*
X34000Y354950D03*
Y360050D03*
X96000Y198550D03*
Y193450D03*
X141500Y198550D03*
Y193450D03*
X198500Y46950D03*
X207000D03*
X198500Y52050D03*
X207000D03*
X215500Y46950D03*
X224000D03*
X215500Y52050D03*
X224000D03*
X232500Y46950D03*
X241000D03*
X232500Y52050D03*
X241000D03*
X251500Y364450D03*
Y369550D03*
X243000Y364450D03*
Y369550D03*
X260000Y364450D03*
Y369550D03*
G54D44*
X253130Y110500D03*
Y91500D03*
Y129500D03*
Y143500D03*
Y169500D03*
Y156500D03*
Y230500D03*
Y243500D03*
Y256500D03*
Y276500D03*
Y295500D03*
Y314500D03*
X261870Y110500D03*
Y91500D03*
Y129500D03*
Y143500D03*
Y169500D03*
Y156500D03*
Y230500D03*
Y243500D03*
Y256500D03*
Y276500D03*
Y295500D03*
Y314500D03*
G54D45*
X283500Y10750D03*
Y18250D03*
Y393750D03*
Y386250D03*
G54D27*
X100123Y252500D03*
X105877D03*
X117877D03*
X112123D03*
X176623Y221000D03*
X182377D03*
X205877Y360500D03*
X200123D03*
X226377Y237000D03*
X220623D03*
X212623Y360500D03*
X218377D03*
G54D18*
X48750Y349500D03*
X43250D03*
X80250Y87500D03*
X85750D03*
X100250Y258500D03*
X119750Y39000D03*
X105750Y258500D03*
X117750D03*
X112250D03*
X125250Y39000D03*
X141250Y87500D03*
X135750D03*
X142250Y248000D03*
X136750D03*
X139250Y260000D03*
X136750Y254000D03*
X142250D03*
X139250Y283500D03*
X126250Y266500D03*
X131750D03*
Y277000D03*
X126250D03*
X131750Y296500D03*
X126250D03*
X144750Y260000D03*
Y283500D03*
X175750Y76000D03*
X170250D03*
X176750Y227500D03*
X182250D03*
X191250Y121000D03*
X196750D03*
X200250Y354000D03*
X205750D03*
X226750Y243500D03*
X221250D03*
X225750Y326500D03*
X220250D03*
Y332500D03*
X225750D03*
X218250Y354000D03*
X212750D03*
X271750Y64500D03*
X254750Y79000D03*
X260250D03*
X254750Y85000D03*
X260250D03*
X254750Y98000D03*
X260250D03*
X254750Y104000D03*
X260250D03*
X254750Y117000D03*
X260250D03*
X254750Y123000D03*
X260250D03*
X254750Y137000D03*
X260250D03*
X254750Y150000D03*
X260250D03*
X254750Y163000D03*
X260250D03*
X254750Y237000D03*
X260250D03*
X254750Y224000D03*
X260250D03*
X254750Y264000D03*
X260250D03*
X254750Y250000D03*
X260250D03*
X254750Y283000D03*
X260250D03*
X254750Y270000D03*
X260250D03*
X254750Y302000D03*
X260250D03*
X254750Y289000D03*
X260250D03*
X254750Y308000D03*
X260250D03*
X271750Y328500D03*
X277250Y64500D03*
X284250Y175500D03*
X278750D03*
X277250Y328500D03*
G54D36*
X178200Y269700D03*
X216800Y308300D03*
G54D46*
X314000Y84589D03*
X309000D03*
X304000D03*
Y106411D03*
X309000D03*
X314000D03*
Y137089D03*
X309000D03*
X304000D03*
Y158911D03*
X309000D03*
X314000D03*
Y244589D03*
X309000D03*
X304000D03*
Y266411D03*
X309000D03*
X314000D03*
Y297089D03*
X309000D03*
X304000D03*
Y318911D03*
X309000D03*
X314000D03*
X319000Y84589D03*
Y106411D03*
Y137089D03*
Y158911D03*
Y244589D03*
Y266411D03*
Y297089D03*
Y318911D03*
X360500Y84589D03*
X355500D03*
Y106411D03*
X360500D03*
Y137089D03*
X355500D03*
Y158911D03*
X360500D03*
Y244589D03*
X355500D03*
Y266411D03*
X360500D03*
Y297089D03*
X355500D03*
Y318911D03*
X360500D03*
X370500Y84589D03*
X365500D03*
Y106411D03*
X370500D03*
Y137089D03*
X365500D03*
Y158911D03*
X370500D03*
Y244589D03*
X365500D03*
Y266411D03*
X370500D03*
Y297089D03*
X365500D03*
Y318911D03*
X370500D03*
X422000Y84589D03*
X417000D03*
X412000D03*
X407000D03*
Y106411D03*
X412000D03*
X417000D03*
X422000D03*
X421500Y137089D03*
X416500D03*
X411500D03*
X406500D03*
Y158911D03*
X411500D03*
X416500D03*
X421500D03*
Y244589D03*
X416500D03*
X411500D03*
X406500D03*
Y266411D03*
X411500D03*
X416500D03*
X421500D03*
X422000Y297089D03*
X417000D03*
X412000D03*
X407000D03*
Y318911D03*
X412000D03*
X417000D03*
X422000D03*
G54D19*
X40900Y333660D03*
Y336220D03*
Y338780D03*
Y341340D03*
X51100D03*
Y333660D03*
Y338780D03*
Y336220D03*
G54D37*
X184708Y269976D03*
X182740D03*
Y308024D03*
X184708D03*
X208324Y269976D03*
X206356D03*
X204388D03*
X202420D03*
X200452D03*
X198484D03*
X196516D03*
X194548D03*
X192580D03*
X190612D03*
X188644D03*
X186676D03*
Y308024D03*
X188644D03*
X190612D03*
X192580D03*
X194548D03*
X196516D03*
X198484D03*
X200452D03*
X202420D03*
X204388D03*
X206356D03*
X208324D03*
X212260Y269976D03*
X210292D03*
Y308024D03*
X212260D03*
G54D28*
X124500Y235500D03*
X163500Y368500D03*
X175000Y66000D03*
X168000Y202000D03*
G54D29*
X131000Y284123D03*
Y289877D03*
X189000Y208623D03*
Y214377D03*
G54D38*
X178476Y274240D03*
Y276208D03*
Y278176D03*
Y280144D03*
Y282112D03*
Y284080D03*
Y286048D03*
Y288016D03*
Y289984D03*
Y291952D03*
Y293920D03*
Y295888D03*
Y297856D03*
Y299824D03*
Y301792D03*
Y303760D03*
X216524Y286048D03*
Y284080D03*
Y282112D03*
Y280144D03*
Y278176D03*
Y276208D03*
Y274240D03*
Y303760D03*
Y301792D03*
Y299824D03*
Y297856D03*
Y295888D03*
Y293920D03*
Y291952D03*
Y289984D03*
Y288016D03*
G54D47*
X324500Y19500D03*
Y39500D03*
Y364000D03*
Y384000D03*
X378000Y19500D03*
Y39500D03*
Y364000D03*
Y384000D03*
X431500Y19500D03*
Y39500D03*
Y364000D03*
Y384000D03*
G54D48*
X344500Y204295D03*
X326500D03*
X344500Y228705D03*
X326500D03*
X381500Y174795D03*
Y199205D03*
X399500Y174795D03*
Y199205D03*
G54D39*
X178224Y338000D03*
X168776D03*
G54D49*
X491608Y43158D03*
Y62842D03*
Y109315D03*
Y129000D03*
Y148685D03*
Y255815D03*
Y275500D03*
Y295185D03*
Y341658D03*
Y361342D03*
X511292Y43158D03*
Y62842D03*
Y109315D03*
Y129000D03*
Y148685D03*
Y255815D03*
Y275500D03*
Y295185D03*
Y341658D03*
Y361342D03*
M02*
