G04 ================== begin FILE IDENTIFICATION RECORD ==================*
G04 Layout Name:  EVSPIN32G4-DUAL-R1.brd*
G04 Film Name:    EVSPIN32G4-DUAL-R1-SMB*
G04 File Format:  Gerber RS274X*
G04 File Origin:  Cadence Allegro 17.4-S024*
G04 Origin Date:  Wed Jan 12 10:19:19 2022*
G04 *
G04 Layer:  BOARD GEOMETRY/DESIGN_OUTLINE*
G04 Layer:  VIA CLASS/SOLDERMASK_BOTTOM*
G04 Layer:  PIN/SOLDERMASK_BOTTOM*
G04 Layer:  PACKAGE GEOMETRY/SOLDERMASK_BOTTOM*
G04 Layer:  BOARD GEOMETRY/SOLDERMASK_BOTTOM*
G04 *
G04 Offset:    (0.00 0.00)*
G04 Mirror:    No*
G04 Mode:      Positive*
G04 Rotation:  0*
G04 FullContactRelief:  No*
G04 UndefLineWidth:     1.00*
G04 ================== end FILE IDENTIFICATION RECORD ====================*
%FSLAX25Y25*MOIN*%
%IR0*IPPOS*OFA0.00000B0.00000*MIA0B0*SFA1.00000B1.00000*%
%ADD11C,.013*%
%ADD15C,.056*%
%ADD16C,.076*%
%ADD12C,.069*%
%ADD14C,.04417*%
%ADD13R,.069X.069*%
%ADD17C,.106*%
%ADD10C,.1378*%
%ADD18C,.001*%
%ADD19C,.00669*%
G75*
%LPD*%
G75*
G54D10*
X14000Y14000D03*
Y201500D03*
Y391512D03*
X517500Y14000D03*
Y201500D03*
Y391512D03*
G54D11*
X5500Y282500D03*
Y297500D03*
Y292500D03*
Y302500D03*
X32000Y264000D03*
X32250Y256750D03*
X49000Y106500D03*
X36500Y271500D03*
X51000Y302500D03*
X53750Y305250D03*
X42750Y297250D03*
X41250Y293750D03*
X48000Y299750D03*
X38500Y291000D03*
X48000Y295500D03*
X52500Y349500D03*
X46000Y335000D03*
X54500Y343101D03*
Y332000D03*
X76500Y92000D03*
X76130Y299500D03*
X56500Y308000D03*
X62250Y313750D03*
X59250Y310750D03*
X65000Y317500D03*
X61854Y334646D03*
X68500Y343000D03*
X62000Y340500D03*
X74000Y360000D03*
Y354000D03*
X79500Y21000D03*
X98000Y40500D03*
X89000Y72500D03*
X78000Y79000D03*
X95870Y112000D03*
X88000Y202500D03*
X85500Y237000D03*
X91500Y248500D03*
X95500Y355500D03*
X83000Y354000D03*
Y360000D03*
X96000Y364000D03*
X105500Y37500D03*
X113000Y31000D03*
X116000Y34000D03*
X120000Y51000D03*
Y87500D03*
X101500D03*
X100146Y262000D03*
X117854D03*
X112123Y249000D03*
X118000D03*
X100000Y249250D03*
X105000Y281500D03*
X120000Y302500D03*
X116500Y322750D03*
X101000Y309000D03*
X108000Y364500D03*
X111500Y354000D03*
Y360000D03*
X103500Y364000D03*
X125250Y43500D03*
X131500Y44000D03*
X132500Y48000D03*
X125630Y112000D03*
X133500Y202500D03*
X137500Y224000D03*
X133500Y254000D03*
Y248000D03*
X136000Y260000D03*
Y283500D03*
X135500Y277000D03*
X126500Y283500D03*
X135500Y266500D03*
X136000Y290000D03*
X135500Y296500D03*
X126500Y302500D03*
X137000Y318500D03*
X135000Y347500D03*
Y355500D03*
Y363500D03*
X159000Y216500D03*
Y230500D03*
X151000Y224500D03*
X159000Y243250D03*
X152000Y286000D03*
X154500Y281000D03*
X147000Y304500D03*
X159000D03*
X158000Y328500D03*
X161500D03*
X154500Y322500D03*
X164000D03*
X163500Y311500D03*
X155500Y351000D03*
X160000Y344500D03*
X151500D03*
X155500Y354500D03*
X166500Y76000D03*
X178000Y88000D03*
X176000Y217500D03*
X179000Y208750D03*
X176646Y230500D03*
X166000Y243000D03*
X173500Y257000D03*
X169000Y254000D03*
X172500Y244000D03*
X184500Y296500D03*
Y300000D03*
X171500Y301501D03*
X168000Y307500D03*
X169500Y311000D03*
X172000D03*
X186000Y332000D03*
X169500Y369500D03*
X207000Y43000D03*
X192000Y85500D03*
X208500D03*
X197500Y76000D03*
X208500Y79500D03*
X205000Y88000D03*
X191500Y103945D03*
Y97055D03*
X193500Y115354D03*
Y132250D03*
X189000Y205000D03*
Y243000D03*
X202000Y241500D03*
X195500Y229500D03*
X200000Y256100D03*
X207000Y254000D03*
X195500Y261000D03*
X191500Y283000D03*
X203500D03*
X190612Y275000D03*
X191500Y295000D03*
X203500D03*
X197500Y289000D03*
X203500Y321000D03*
X207000Y323500D03*
X201000Y330500D03*
X188000Y317000D03*
X200146Y351000D03*
X192500Y349000D03*
Y341000D03*
X190500Y338000D03*
X188500Y335000D03*
X194000Y344000D03*
X203000Y374500D03*
X224000Y43000D03*
X218500Y96000D03*
X214500Y92000D03*
Y100000D03*
X222500D03*
Y92000D03*
X224000Y109500D03*
X214000Y114000D03*
X221500Y217500D03*
X229500Y221500D03*
X227000Y234000D03*
X216500Y247500D03*
X227000D03*
X214476Y269976D03*
X211500Y295000D03*
X225500Y308500D03*
X218062Y305938D03*
X226500Y320000D03*
X212000Y330500D03*
X214500Y311000D03*
X215500Y314500D03*
X221000Y315000D03*
X228000Y311500D03*
X213001Y317001D03*
X218354Y351000D03*
X223000Y340500D03*
X209500Y364000D03*
X215500Y374500D03*
X241000Y43000D03*
X245000Y86500D03*
X241500Y95000D03*
X234000Y97500D03*
X245000Y103000D03*
Y110500D03*
X232501Y117000D03*
X251500Y137000D03*
Y150000D03*
X230914Y224914D03*
X231500Y235500D03*
Y239000D03*
X244500Y361000D03*
X241500D03*
X253500Y43000D03*
Y40500D03*
Y58000D03*
Y60500D03*
X268500Y64500D03*
X253500Y49000D03*
Y52000D03*
X268000Y72000D03*
X263500Y79000D03*
X270500Y86000D03*
X263500Y98000D03*
X271000Y104750D03*
X263500Y117000D03*
X263665Y181164D03*
X260000Y181000D03*
X270500Y238000D03*
X270000Y224750D03*
X266500Y247500D03*
X270500Y271000D03*
X264000Y283000D03*
X270500Y290000D03*
X264000Y302000D03*
X270500Y309000D03*
X268600Y328500D03*
X268500Y335500D03*
X279250Y10750D03*
X282000Y95000D03*
Y98500D03*
X280500Y131500D03*
Y128000D03*
X282000Y151500D03*
Y158911D03*
X283500Y397500D03*
X314000Y77000D03*
X316500Y80500D03*
X296500Y87500D03*
X299000Y84000D03*
X296500Y80500D03*
X309000Y77000D03*
X304000D03*
X299000D03*
X301500Y80500D03*
X306500D03*
X311500D03*
X317499Y89499D03*
X305499D03*
X299000Y91000D03*
X317499Y97999D03*
X311499Y93499D03*
X305499Y97999D03*
X309000Y110500D03*
X313500D03*
X318000D03*
X316500Y114000D03*
X312000D03*
X318000Y117000D03*
X313500D03*
X309000D03*
X299000Y142500D03*
Y151500D03*
Y147000D03*
X317999Y142499D03*
Y146499D03*
Y150499D03*
X311499D03*
Y146499D03*
Y142499D03*
X304999Y150499D03*
Y146499D03*
Y142499D03*
X318000Y163500D03*
X313500D03*
X309000D03*
X311000Y167000D03*
X315500D03*
X308999Y170499D03*
X318000Y170500D03*
X313500D03*
X315500Y195000D03*
X316000Y204500D03*
X311500Y202000D03*
Y207500D03*
X305500Y240000D03*
X310000D03*
X314500D03*
X317000Y236500D03*
X312500D03*
X308000D03*
X316000Y227000D03*
X312500Y229000D03*
Y232500D03*
X316000Y230500D03*
Y234000D03*
X305001Y253001D03*
X318001D03*
X311501D03*
X305001Y261001D03*
Y257001D03*
X318001Y261001D03*
Y257001D03*
X311501D03*
Y261001D03*
X313000Y286000D03*
X304000D03*
X308500D03*
X317500D03*
X304000Y292500D03*
X308500D03*
X313000D03*
X306500Y289500D03*
X311000D03*
X317500Y292500D03*
X315500Y289500D03*
X305000Y305500D03*
X318000D03*
X305000Y313500D03*
X311500Y309500D03*
X318000Y313500D03*
X306501Y323001D03*
X311500Y323000D03*
X316500D03*
X309001Y326501D03*
X314001D03*
X333500Y98500D03*
Y95000D03*
X322500Y110500D03*
X321000Y114000D03*
X325500D03*
X322500Y117000D03*
X320000Y167000D03*
X325000D03*
X322500Y163500D03*
Y170500D03*
X332000Y195000D03*
X335500Y199000D03*
X324000D03*
X329500D03*
X326500Y195000D03*
X318500Y199000D03*
X321000Y195000D03*
X338500D03*
X335500Y221000D03*
Y217500D03*
X334000Y234000D03*
X329630Y234126D03*
X325000Y234000D03*
X320500D03*
X338500D03*
X319000Y240000D03*
X321500Y236500D03*
X322500Y244500D03*
X324000Y261000D03*
Y256500D03*
Y252000D03*
X322500Y296500D03*
X320000Y289500D03*
X321500Y323000D03*
X326500D03*
X319001Y326501D03*
X324001D03*
Y319501D03*
X326501Y316001D03*
X324001Y312501D03*
X348000Y87500D03*
X350500Y84000D03*
X348000Y80500D03*
X360500Y77000D03*
X355500D03*
X350500D03*
X353000Y80500D03*
X358000D03*
X356999Y89499D03*
X350500Y91000D03*
X356999Y97999D03*
X360501Y110501D03*
X352000Y106411D03*
X360501Y117001D03*
X350500Y142500D03*
X356500Y150500D03*
Y146500D03*
Y142500D03*
X350500Y151500D03*
Y147000D03*
X358500Y163000D03*
X352000Y158911D03*
X352500Y199000D03*
X347000D03*
X341500D03*
X344000Y195000D03*
X355500D03*
X349500D03*
X355000Y204500D03*
X359500Y202000D03*
Y207500D03*
X354000Y240500D03*
X358500D03*
X356500Y234000D03*
X352000D03*
X343000D03*
X347500D03*
X356501Y253001D03*
Y257001D03*
Y261001D03*
X354000Y286500D03*
X358500D03*
X341000Y305500D03*
X356500D03*
X354000Y293000D03*
X358500D03*
X356500Y290000D03*
X361130D03*
X341000Y309000D03*
X356500Y313500D03*
X360501Y326501D03*
X358001Y323001D03*
X365500Y77000D03*
X368000Y80500D03*
X363000D03*
X368999Y89499D03*
Y97999D03*
X362999Y93499D03*
X365001Y110501D03*
X369501D03*
X374001D03*
X365001Y117001D03*
X369501D03*
X374001D03*
X363001Y114001D03*
X367501D03*
X372001D03*
X376501D03*
X363000Y150500D03*
Y146500D03*
Y142500D03*
X369500D03*
Y146500D03*
Y150500D03*
X367500Y163000D03*
X363000D03*
X369500Y169500D03*
X374000D03*
X378500D03*
X382999Y169499D03*
X372000Y163000D03*
X371000Y199000D03*
X366500Y196000D03*
X370500Y208500D03*
X379000Y204500D03*
X373500D03*
X382000Y208500D03*
X376500D03*
X366500Y201500D03*
X363000Y240500D03*
X367500D03*
X374000Y244589D03*
X363001Y253001D03*
Y257001D03*
Y261001D03*
X369501Y253001D03*
Y261001D03*
Y257001D03*
X375500Y261000D03*
Y256500D03*
Y252000D03*
X363001Y286501D03*
X367501D03*
X374000Y296500D03*
X369500Y305500D03*
X363000Y293000D03*
X367500D03*
X365500Y290000D03*
X370000D03*
X369500Y313500D03*
X363000Y309500D03*
X370501Y326501D03*
X365501D03*
X373000Y323000D03*
X368000D03*
X363000D03*
X378001Y316001D03*
X375501Y319501D03*
Y326501D03*
X378000Y323000D03*
X375501Y312501D03*
X404500Y80500D03*
X402000Y77000D03*
X399500Y80500D03*
X402000Y84000D03*
X399500Y87500D03*
X385000Y98500D03*
Y95000D03*
X402000Y91000D03*
X403500Y106411D03*
X401500Y142500D03*
Y151500D03*
Y147000D03*
X404499Y166999D03*
X392000Y169500D03*
X387500D03*
X396500D03*
X405500D03*
X401000D03*
X403000Y158911D03*
X390500Y183000D03*
Y186500D03*
Y204500D03*
X402000D03*
X396500D03*
X405000Y208500D03*
X399500D03*
X394000D03*
X384500Y204500D03*
X387500Y208500D03*
X403000Y233000D03*
X405500Y236500D03*
X403000Y240000D03*
X400500Y236500D03*
X392500Y305500D03*
X404000Y297000D03*
X392500Y309000D03*
X419500Y80500D03*
X414500D03*
X409500D03*
X417000Y77000D03*
X407000D03*
X412000D03*
X420499Y89499D03*
X408499D03*
X420499Y97999D03*
X408499D03*
X414499Y93499D03*
X414500Y106500D03*
X420999Y142499D03*
Y146499D03*
Y150499D03*
X414499D03*
Y146499D03*
Y142499D03*
X407999Y150499D03*
Y146499D03*
Y142499D03*
X409000Y167000D03*
X413500D03*
X418000D03*
X407000Y163500D03*
X411500D03*
X416000D03*
X420500D03*
X410000Y173000D03*
X413500Y171000D03*
Y174500D03*
X410000Y176500D03*
Y169500D03*
X414500Y196000D03*
X410000Y199000D03*
X414500Y201500D03*
X407500Y204500D03*
X410500Y208500D03*
X412001Y240001D03*
X407500Y233000D03*
X412000D03*
X410000Y236500D03*
X412000Y240000D03*
X407500D03*
X416500Y233000D03*
X414500Y236500D03*
X416500Y240000D03*
X425000Y244589D03*
X408001Y253001D03*
Y261001D03*
Y257001D03*
X414501Y253001D03*
X421001D03*
X414501Y257001D03*
Y261001D03*
X421001Y257001D03*
Y261001D03*
X426500Y252000D03*
Y256500D03*
Y261000D03*
X425500Y297089D03*
X421000Y305500D03*
X408000D03*
X421000Y313500D03*
X414500Y309500D03*
X408000Y313500D03*
X422001Y326501D03*
X417001D03*
X424500Y323000D03*
X419500D03*
X414500D03*
X412001Y326501D03*
X409501Y323001D03*
X427001Y319501D03*
Y326501D03*
Y312501D03*
X444000Y305500D03*
Y309000D03*
X429501Y316001D03*
X429500Y323000D03*
X480000Y186500D03*
X490000D03*
Y217500D03*
X480000D03*
G54D12*
X20000Y68625D03*
Y88625D03*
X30000D03*
X20000Y78625D03*
X30000D03*
X20000Y108625D03*
X30000D03*
X20000Y98625D03*
X30000D03*
Y118625D03*
X20000D03*
X30000Y128625D03*
X20000D03*
X30000Y138625D03*
X20000D03*
X30000Y148625D03*
X20000D03*
X30000Y158625D03*
X20000D03*
X18000Y242500D03*
Y232500D03*
Y342500D03*
Y352500D03*
Y362500D03*
X78000Y166000D03*
X68000Y384500D03*
X78000D03*
X88000Y176000D03*
X98000Y166000D03*
X84000Y219000D03*
X94000D03*
X98000Y384500D03*
X88000D03*
X119500Y21000D03*
X109500D03*
X123500Y166000D03*
X114000Y219000D03*
X104000D03*
X118000Y384500D03*
X108000D03*
X133500Y176000D03*
X143500Y166000D03*
X138000Y384500D03*
X128000D03*
X159500Y21000D03*
X179500D03*
X169500D03*
X171000Y111000D03*
X168000Y384500D03*
X188000D03*
X178000D03*
X189500Y21000D03*
X198000Y384500D03*
X228000D03*
X239500Y21000D03*
X249500D03*
X238000Y344500D03*
X248000Y384500D03*
X238000D03*
X269500Y21000D03*
X259500D03*
X258000Y384500D03*
G54D13*
X30000Y68625D03*
X18000Y252500D03*
Y332500D03*
X74000Y219000D03*
X129500Y21000D03*
X148000Y384500D03*
X171000Y121000D03*
X199500Y21000D03*
X208000Y384500D03*
X229500Y21000D03*
X248000Y344500D03*
X268000Y384500D03*
G54D14*
X21500Y280000D03*
Y305000D03*
G54D15*
X124500Y235500D03*
X163500Y368500D03*
X175000Y66000D03*
X168000Y202000D03*
G54D16*
X324500Y19500D03*
Y39500D03*
Y364000D03*
Y384000D03*
X378000Y19500D03*
Y39500D03*
Y364000D03*
Y384000D03*
X431500Y19500D03*
Y39500D03*
Y364000D03*
Y384000D03*
G54D17*
X491608Y43158D03*
Y62842D03*
Y109315D03*
Y129000D03*
Y148685D03*
Y255815D03*
Y275500D03*
Y295185D03*
Y341658D03*
Y361342D03*
X511292Y43158D03*
Y62842D03*
Y109315D03*
Y129000D03*
Y148685D03*
Y255815D03*
Y275500D03*
Y295185D03*
Y341658D03*
Y361342D03*
G54D18*
G01X531500Y0D02*
Y405512D01*
X0D01*
Y0D01*
X531500D01*
G54D19*
G01X295703Y-31000D02*
X297541D01*
Y-27457D01*
X295703D01*
G01X296438Y-29169D02*
X297541D01*
G01X294423Y-27457D02*
X293275Y-31000D01*
X292127Y-27457D01*
G01X290893Y-30528D02*
X290525Y-30823D01*
X290112Y-31000D01*
X289744D01*
X289377Y-30823D01*
X289101Y-30528D01*
X288963Y-30114D01*
X289055Y-29701D01*
X289285Y-29347D01*
X289698Y-29110D01*
X290250Y-28992D01*
X290571Y-28756D01*
X290709Y-28343D01*
X290617Y-27929D01*
X290387Y-27634D01*
X290066Y-27457D01*
X289744D01*
X289423Y-27575D01*
X289147Y-27870D01*
G01X287500Y-31000D02*
Y-27457D01*
X286397D01*
X286030Y-27634D01*
X285754Y-28047D01*
X285662Y-28520D01*
X285754Y-28992D01*
X285984Y-29347D01*
X286397Y-29524D01*
X287500D01*
G01X283785Y-27457D02*
X282683D01*
G01X283234D02*
Y-31000D01*
G01X283785D02*
X282683D01*
G01X280943D02*
Y-27457D01*
X278831Y-31000D01*
Y-27457D01*
G01X277551Y-30291D02*
X277275Y-30705D01*
X276908Y-30941D01*
X276494Y-31000D01*
X276127Y-30941D01*
X275759Y-30646D01*
X275529Y-30291D01*
X275484Y-29937D01*
X275575Y-29524D01*
X275897Y-29229D01*
X276218Y-29110D01*
X276632D01*
G01X276218D02*
X275943Y-28933D01*
X275713Y-28638D01*
X275621Y-28284D01*
X275713Y-27929D01*
X275943Y-27634D01*
X276356Y-27457D01*
X276770Y-27516D01*
X277183Y-27752D01*
G01X274066Y-28047D02*
X273790Y-27693D01*
X273469Y-27516D01*
X273101Y-27457D01*
X272642Y-27575D01*
X272320Y-27870D01*
X272228Y-28225D01*
X272274Y-28579D01*
X272458Y-28874D01*
X273377Y-29465D01*
X273790Y-29878D01*
X274066Y-30469D01*
X274158Y-31000D01*
X272228D01*
G01X269570Y-29229D02*
X268652D01*
Y-30291D01*
X268927Y-30646D01*
X269249Y-30882D01*
X269708Y-31000D01*
X270168Y-30882D01*
X270489Y-30646D01*
X270765Y-30291D01*
X270948Y-29878D01*
X271040Y-29406D01*
Y-28992D01*
X270948Y-28638D01*
X270765Y-28225D01*
X270489Y-27870D01*
X270214Y-27634D01*
X269846Y-27457D01*
X269524D01*
X269157Y-27575D01*
X268881Y-27811D01*
G01X265948Y-31000D02*
Y-27457D01*
X267647Y-29996D01*
X265351D01*
G01X263749Y-29819D02*
X262555D01*
G01X260816Y-31000D02*
Y-27457D01*
X259897D01*
X259529Y-27634D01*
X259254Y-27870D01*
X259024Y-28225D01*
X258840Y-28638D01*
X258794Y-29229D01*
X258840Y-29819D01*
X259024Y-30232D01*
X259254Y-30587D01*
X259529Y-30823D01*
X259897Y-31000D01*
X260816D01*
G01X257469Y-27457D02*
Y-29996D01*
X257285Y-30528D01*
X256917Y-30882D01*
X256458Y-31000D01*
X255999Y-30882D01*
X255631Y-30528D01*
X255447Y-29996D01*
Y-27457D01*
G01X254259Y-31000D02*
X253111Y-27457D01*
X251963Y-31000D01*
G01X252376Y-29760D02*
X253846D01*
G01X250683Y-27457D02*
Y-31000D01*
X248845D01*
G01X243989D02*
Y-27457D01*
X242840D01*
X242473Y-27634D01*
X242243Y-27870D01*
X242151Y-28343D01*
X242243Y-28815D01*
X242519Y-29110D01*
X242840Y-29288D01*
X243989D01*
G01X242840D02*
X242151Y-31000D01*
G01X236376D02*
Y-27457D01*
X236927Y-28166D01*
G01Y-31000D02*
X235825D01*
G01X230647Y-30528D02*
X230279Y-30823D01*
X229866Y-31000D01*
X229498D01*
X229131Y-30823D01*
X228855Y-30528D01*
X228717Y-30114D01*
X228809Y-29701D01*
X229039Y-29347D01*
X229452Y-29110D01*
X230004Y-28992D01*
X230325Y-28756D01*
X230463Y-28343D01*
X230371Y-27929D01*
X230141Y-27634D01*
X229820Y-27457D01*
X229498D01*
X229177Y-27575D01*
X228901Y-27870D01*
G01X227529Y-31000D02*
Y-27457D01*
X226335Y-30410D01*
X225141Y-27457D01*
Y-31000D01*
G01X222621Y-29110D02*
X222437Y-28933D01*
X222299Y-28638D01*
X222207Y-28225D01*
X222299Y-27870D01*
X222483Y-27634D01*
X222804Y-27457D01*
X224044D01*
Y-31000D01*
X222529D01*
X222207Y-30764D01*
X222023Y-30410D01*
X221932Y-29996D01*
X222023Y-29583D01*
X222299Y-29229D01*
X222621Y-29110D01*
X224044D01*
G01X212947Y-31000D02*
Y-27457D01*
X213498Y-28166D01*
G01Y-31000D02*
X212396D01*
G01X210473Y-28047D02*
X210197Y-27693D01*
X209876Y-27516D01*
X209508Y-27457D01*
X209049Y-27575D01*
X208727Y-27870D01*
X208635Y-28225D01*
X208681Y-28579D01*
X208865Y-28874D01*
X209784Y-29465D01*
X210197Y-29878D01*
X210473Y-30469D01*
X210565Y-31000D01*
X208635D01*
G01X206850Y-29819D02*
X205656D01*
G01X203825Y-30291D02*
X203595Y-30646D01*
X203319Y-30882D01*
X202998Y-31000D01*
X202630Y-30882D01*
X202355Y-30646D01*
X202079Y-30291D01*
X201987Y-29819D01*
Y-27457D01*
G01X198732Y-31000D02*
Y-28638D01*
G01Y-29051D02*
X198916Y-28815D01*
X199192Y-28697D01*
X199513Y-28638D01*
X199835Y-28756D01*
X200110Y-28992D01*
X200294Y-29347D01*
X200386Y-29819D01*
X200294Y-30291D01*
X200110Y-30646D01*
X199835Y-30882D01*
X199513Y-31000D01*
X199192Y-30941D01*
X198916Y-30764D01*
X198732Y-30528D01*
G01X196993Y-31000D02*
Y-28638D01*
G01Y-29229D02*
X196809Y-28933D01*
X196534Y-28697D01*
X196166Y-28638D01*
X195845Y-28697D01*
X195569Y-28933D01*
X195431Y-29347D01*
Y-31000D01*
G01X193462Y-29819D02*
X192268D01*
G01X190391Y-28047D02*
X190115Y-27693D01*
X189794Y-27516D01*
X189426Y-27457D01*
X188967Y-27575D01*
X188645Y-27870D01*
X188553Y-28225D01*
X188599Y-28579D01*
X188783Y-28874D01*
X189702Y-29465D01*
X190115Y-29878D01*
X190391Y-30469D01*
X190483Y-31000D01*
X188553D01*
G01X186171Y-27457D02*
X186539Y-27575D01*
X186814Y-27870D01*
X186998Y-28225D01*
X187136Y-28697D01*
X187182Y-29229D01*
X187136Y-29760D01*
X186998Y-30232D01*
X186814Y-30587D01*
X186539Y-30882D01*
X186171Y-31000D01*
X185804Y-30882D01*
X185528Y-30587D01*
X185344Y-30232D01*
X185206Y-29760D01*
X185160Y-29229D01*
X185206Y-28697D01*
X185344Y-28225D01*
X185528Y-27870D01*
X185804Y-27575D01*
X186171Y-27457D01*
G01X183697Y-28047D02*
X183421Y-27693D01*
X183100Y-27516D01*
X182732Y-27457D01*
X182273Y-27575D01*
X181951Y-27870D01*
X181859Y-28225D01*
X181905Y-28579D01*
X182089Y-28874D01*
X183008Y-29465D01*
X183421Y-29878D01*
X183697Y-30469D01*
X183789Y-31000D01*
X181859D01*
G01X180350Y-28047D02*
X180074Y-27693D01*
X179753Y-27516D01*
X179385Y-27457D01*
X178926Y-27575D01*
X178604Y-27870D01*
X178512Y-28225D01*
X178558Y-28579D01*
X178742Y-28874D01*
X179661Y-29465D01*
X180074Y-29878D01*
X180350Y-30469D01*
X180442Y-31000D01*
X178512D01*
G01X170355D02*
Y-27457D01*
X169206D01*
X168839Y-27634D01*
X168609Y-27870D01*
X168517Y-28343D01*
X168609Y-28815D01*
X168885Y-29110D01*
X169206Y-29288D01*
X170355D01*
G01X169206D02*
X168517Y-31000D01*
G01X166089Y-28638D02*
Y-31000D01*
G01Y-27693D02*
X166181Y-27634D01*
Y-27516D01*
X166089Y-27457D01*
X165997Y-27516D01*
Y-27634D01*
X166089Y-27693D01*
G01X163385Y-31886D02*
X163064Y-32122D01*
X162696Y-32181D01*
X162375Y-32122D01*
X162099Y-31827D01*
X161915Y-31413D01*
Y-28638D01*
G01Y-29110D02*
X162099Y-28874D01*
X162375Y-28697D01*
X162696Y-28638D01*
X163064Y-28756D01*
X163293Y-28992D01*
X163477Y-29406D01*
X163569Y-29819D01*
X163523Y-30173D01*
X163339Y-30587D01*
X163064Y-30882D01*
X162696Y-31000D01*
X162420Y-30941D01*
X162099Y-30705D01*
X161915Y-30469D01*
G01X159395Y-31000D02*
X159671Y-30941D01*
X159946Y-30705D01*
X160130Y-30291D01*
X160222Y-29819D01*
X160130Y-29347D01*
X159946Y-28933D01*
X159671Y-28697D01*
X159395Y-28638D01*
X159119Y-28697D01*
X158844Y-28933D01*
X158660Y-29347D01*
X158614Y-29819D01*
X158660Y-30291D01*
X158844Y-30705D01*
X159119Y-30941D01*
X159395Y-31000D01*
M02*
