G04 ================== begin FILE IDENTIFICATION RECORD ==================*
G04 Layout Name:  EVSPIN32G4-DUAL-R1.brd*
G04 Film Name:    EVSPIN32G4-DUAL-R1-PMT*
G04 File Format:  Gerber RS274X*
G04 File Origin:  Cadence Allegro 17.4-S024*
G04 Origin Date:  Wed Jan 12 10:19:19 2022*
G04 *
G04 Layer:  BOARD GEOMETRY/DESIGN_OUTLINE*
G04 Layer:  PIN/PASTEMASK_TOP*
G04 Layer:  PACKAGE GEOMETRY/PASTEMASK_TOP*
G04 *
G04 Offset:    (0.00 0.00)*
G04 Mirror:    No*
G04 Mode:      Positive*
G04 Rotation:  0*
G04 FullContactRelief:  No*
G04 UndefLineWidth:     1.00*
G04 ================== end FILE IDENTIFICATION RECORD ====================*
%FSLAX25Y25*MOIN*%
%IR0*IPPOS*OFA0.00000B0.00000*MIA0B0*SFA1.00000B1.00000*%
%ADD16R,.125X.06*%
%ADD17C,.06*%
%ADD11C,.063*%
%ADD25R,.022X.022*%
%ADD21R,.033X.033*%
%ADD38R,.03543X.03543*%
%ADD33R,.063X.13779*%
%ADD10R,.10984X.02913*%
%ADD41R,.14567X.06496*%
%ADD32O,.06X.0114*%
%ADD20R,.04X.05*%
%ADD34R,.05X.014*%
%ADD31O,.0114X.06*%
%ADD13R,.05X.04*%
%ADD36R,.014X.05*%
%ADD14R,.035X.03*%
%ADD12R,.03X.035*%
%ADD39R,.05X.045*%
%ADD23R,.033X.0315*%
%ADD24R,.0315X.033*%
%ADD37R,.106X.106*%
%ADD30R,.091X.069*%
%ADD26R,.03445X.03051*%
%ADD35R,.16142X.16142*%
%ADD29R,.05512X.04724*%
%ADD40R,.02559X.045*%
%ADD27R,.04724X.05512*%
%ADD19R,.03543X.03346*%
%ADD22R,.03346X.03543*%
%ADD18R,.05512X.06693*%
%ADD28R,.03937X.02717*%
%ADD15R,.03937X.01773*%
%ADD42C,.001*%
%ADD43C,.00669*%
G75*
%LPD*%
G75*
G36*
G01X312400Y87500D02*
Y99900D01*
X320200D01*
Y87500D01*
X312400D01*
G37*
G36*
G01X310600Y99900D02*
Y87500D01*
X302800D01*
Y99900D01*
X310600D01*
G37*
G36*
G01X312400Y140000D02*
Y152400D01*
X320200D01*
Y140000D01*
X312400D01*
G37*
G36*
G01X310600Y152400D02*
Y140000D01*
X302800D01*
Y152400D01*
X310600D01*
G37*
G36*
G01Y263500D02*
Y251100D01*
X302800D01*
Y263500D01*
X310600D01*
G37*
G36*
G01X312400Y251100D02*
Y263500D01*
X320200D01*
Y251100D01*
X312400D01*
G37*
G36*
G01X310600Y316000D02*
Y303600D01*
X302800D01*
Y316000D01*
X310600D01*
G37*
G36*
G01X312400Y303600D02*
Y316000D01*
X320200D01*
Y303600D01*
X312400D01*
G37*
G36*
G01X362100Y99900D02*
Y87500D01*
X354300D01*
Y99900D01*
X362100D01*
G37*
G36*
G01Y152400D02*
Y140000D01*
X354300D01*
Y152400D01*
X362100D01*
G37*
G36*
G01Y263500D02*
Y251100D01*
X354300D01*
Y263500D01*
X362100D01*
G37*
G36*
G01Y316000D02*
Y303600D01*
X354300D01*
Y316000D01*
X362100D01*
G37*
G36*
G01X363900Y87500D02*
Y99900D01*
X371700D01*
Y87500D01*
X363900D01*
G37*
G36*
G01Y140000D02*
Y152400D01*
X371700D01*
Y140000D01*
X363900D01*
G37*
G36*
G01Y251100D02*
Y263500D01*
X371700D01*
Y251100D01*
X363900D01*
G37*
G36*
G01Y303600D02*
Y316000D01*
X371700D01*
Y303600D01*
X363900D01*
G37*
G36*
G01X415400Y87500D02*
Y99900D01*
X423200D01*
Y87500D01*
X415400D01*
G37*
G36*
G01X413600Y99900D02*
Y87500D01*
X405800D01*
Y99900D01*
X413600D01*
G37*
G36*
G01X414900Y140000D02*
Y152400D01*
X422700D01*
Y140000D01*
X414900D01*
G37*
G36*
G01X413100Y152400D02*
Y140000D01*
X405300D01*
Y152400D01*
X413100D01*
G37*
G36*
G01Y263500D02*
Y251100D01*
X405300D01*
Y263500D01*
X413100D01*
G37*
G36*
G01X414900Y251100D02*
Y263500D01*
X422700D01*
Y251100D01*
X414900D01*
G37*
G36*
G01X413600Y316000D02*
Y303600D01*
X405800D01*
Y316000D01*
X413600D01*
G37*
G36*
G01X415400Y303600D02*
Y316000D01*
X423200D01*
Y303600D01*
X415400D01*
G37*
G54D10*
X13488Y277500D03*
Y282500D03*
Y287500D03*
Y292500D03*
Y297500D03*
Y302500D03*
Y307500D03*
X29512Y277500D03*
Y282500D03*
Y287500D03*
Y292500D03*
Y297500D03*
Y302500D03*
Y307500D03*
G54D20*
X77450Y368500D03*
X82550D03*
X95550D03*
X90450D03*
X103450D03*
X108550D03*
X120450D03*
X125550D03*
X176950Y241500D03*
X182050D03*
X172950Y369500D03*
X178050D03*
X200450Y340000D03*
X205550D03*
X217550D03*
X212450D03*
X256950Y42000D03*
X262050D03*
X256950Y59000D03*
X262050D03*
X256950Y50500D03*
X262050D03*
X271950Y72000D03*
Y335500D03*
X277050Y72000D03*
Y335500D03*
G54D11*
X33000Y15500D03*
X36000Y391000D03*
X500000Y9000D03*
G54D30*
X162050Y352500D03*
X177050D03*
G54D12*
X34000Y340250D03*
Y334750D03*
X100000Y240250D03*
Y245750D03*
X112000Y240250D03*
X106000D03*
X118000D03*
X112000Y245750D03*
X106000D03*
X118000D03*
X120000Y305750D03*
Y311250D03*
Y317250D03*
Y322750D03*
X133000Y305750D03*
Y317250D03*
Y322750D03*
Y311250D03*
X159000Y219750D03*
X151000Y233750D03*
Y228250D03*
X159000Y239250D03*
Y233750D03*
Y225250D03*
X151000Y246750D03*
Y252250D03*
X159000D03*
Y246750D03*
X184000Y109750D03*
Y126750D03*
Y132250D03*
Y115250D03*
X176000Y214250D03*
Y208750D03*
X182500D03*
Y214250D03*
X173500Y253250D03*
Y247750D03*
X166000Y246750D03*
Y252250D03*
X190500Y109750D03*
Y115250D03*
Y132250D03*
Y126750D03*
X195500Y219750D03*
Y225250D03*
X189000Y239250D03*
Y233750D03*
X195500Y246750D03*
Y252250D03*
X206000Y366750D03*
Y372250D03*
X200000D03*
Y366750D03*
X220500Y225250D03*
Y230750D03*
X227000D03*
Y225250D03*
X212500Y366750D03*
Y372250D03*
X218500D03*
Y366750D03*
X267500Y85750D03*
Y91250D03*
Y110250D03*
Y104750D03*
Y129250D03*
Y123750D03*
Y143250D03*
Y137750D03*
Y156250D03*
Y150750D03*
Y169250D03*
Y163750D03*
X267000Y243250D03*
Y237750D03*
Y230250D03*
Y224750D03*
Y256250D03*
Y250750D03*
Y276250D03*
Y270750D03*
Y295250D03*
Y289750D03*
Y308750D03*
Y314250D03*
X284500Y132750D03*
Y127250D03*
X285000Y272750D03*
Y278250D03*
X297000Y112250D03*
Y106750D03*
Y164750D03*
Y159250D03*
X326000Y238750D03*
Y244250D03*
Y291250D03*
Y296750D03*
X348500Y112250D03*
Y106750D03*
Y164750D03*
Y159250D03*
X377500Y238750D03*
Y244250D03*
Y291250D03*
Y296750D03*
X400000Y112250D03*
Y106750D03*
X399500Y164750D03*
Y159250D03*
X428500Y238750D03*
Y244250D03*
X429000Y291250D03*
Y296750D03*
G54D21*
X97500Y87500D03*
X91500D03*
X124000D03*
X130000D03*
G54D22*
X100146Y265500D03*
X112146D03*
X117854D03*
X105854D03*
X139146Y266500D03*
Y277000D03*
Y290000D03*
Y296500D03*
X134146Y368500D03*
X139854D03*
X144854Y266500D03*
Y277000D03*
X162646Y301500D03*
X144854Y290000D03*
Y296500D03*
X159146Y308500D03*
X164854D03*
X182354Y234000D03*
X176646D03*
X168354Y301500D03*
X201646Y236500D03*
X207354D03*
X205854Y347500D03*
X200146D03*
X216354Y243500D03*
X210646D03*
X216354Y251500D03*
X210646D03*
X221146D03*
X226854D03*
X222854Y320000D03*
X217146D03*
X212646Y347500D03*
X218354D03*
X230146Y369500D03*
X235854D03*
X267854Y34500D03*
X262146D03*
G54D40*
X314000Y84589D03*
X309000D03*
X304000D03*
Y106411D03*
X309000D03*
X314000D03*
Y137089D03*
X309000D03*
X304000D03*
Y158911D03*
X309000D03*
X314000D03*
Y244589D03*
X309000D03*
X304000D03*
Y266411D03*
X309000D03*
X314000D03*
Y297089D03*
X309000D03*
X304000D03*
Y318911D03*
X309000D03*
X314000D03*
X319000Y84589D03*
Y106411D03*
Y137089D03*
Y158911D03*
Y244589D03*
Y266411D03*
Y297089D03*
Y318911D03*
X360500Y84589D03*
X355500D03*
Y106411D03*
X360500D03*
Y137089D03*
X355500D03*
Y158911D03*
X360500D03*
Y244589D03*
X355500D03*
Y266411D03*
X360500D03*
Y297089D03*
X355500D03*
Y318911D03*
X360500D03*
X370500Y84589D03*
X365500D03*
Y106411D03*
X370500D03*
Y137089D03*
X365500D03*
Y158911D03*
X370500D03*
Y244589D03*
X365500D03*
Y266411D03*
X370500D03*
Y297089D03*
X365500D03*
Y318911D03*
X370500D03*
X422000Y84589D03*
X417000D03*
X412000D03*
X407000D03*
Y106411D03*
X412000D03*
X417000D03*
X422000D03*
X421500Y137089D03*
X416500D03*
X411500D03*
X406500D03*
Y158911D03*
X411500D03*
X416500D03*
X421500D03*
Y244589D03*
X416500D03*
X411500D03*
X406500D03*
Y266411D03*
X411500D03*
X416500D03*
X421500D03*
X422000Y297089D03*
X417000D03*
X412000D03*
X407000D03*
Y318911D03*
X412000D03*
X417000D03*
X422000D03*
G54D13*
X34000Y354950D03*
Y360050D03*
X96000Y198550D03*
Y193450D03*
X141500Y198550D03*
Y193450D03*
X198500Y46950D03*
X207000D03*
X198500Y52050D03*
X207000D03*
X215500Y46950D03*
X224000D03*
X215500Y52050D03*
X224000D03*
X232500Y46950D03*
X241000D03*
X232500Y52050D03*
X241000D03*
X251500Y364450D03*
Y369550D03*
X243000Y364450D03*
Y369550D03*
X260000Y364450D03*
Y369550D03*
G54D31*
X184708Y269976D03*
X182740D03*
Y308024D03*
X184708D03*
X208324Y269976D03*
X206356D03*
X204388D03*
X202420D03*
X200452D03*
X198484D03*
X196516D03*
X194548D03*
X192580D03*
X190612D03*
X188644D03*
X186676D03*
Y308024D03*
X188644D03*
X190612D03*
X192580D03*
X194548D03*
X196516D03*
X198484D03*
X200452D03*
X202420D03*
X204388D03*
X206356D03*
X208324D03*
X212260Y269976D03*
X210292D03*
Y308024D03*
X212260D03*
G54D23*
X100123Y252500D03*
X105877D03*
X117877D03*
X112123D03*
X176623Y221000D03*
X182377D03*
X205877Y360500D03*
X200123D03*
X226377Y237000D03*
X220623D03*
X212623Y360500D03*
X218377D03*
G54D14*
X48750Y349500D03*
X43250D03*
X80250Y87500D03*
X85750D03*
X100250Y258500D03*
X119750Y39000D03*
X105750Y258500D03*
X117750D03*
X112250D03*
X125250Y39000D03*
X141250Y87500D03*
X135750D03*
X142250Y248000D03*
X136750D03*
X139250Y260000D03*
X136750Y254000D03*
X142250D03*
X139250Y283500D03*
X126250Y266500D03*
X131750D03*
Y277000D03*
X126250D03*
X131750Y296500D03*
X126250D03*
X144750Y260000D03*
Y283500D03*
X175750Y76000D03*
X170250D03*
X176750Y227500D03*
X182250D03*
X191250Y121000D03*
X196750D03*
X200250Y354000D03*
X205750D03*
X226750Y243500D03*
X221250D03*
X225750Y326500D03*
X220250D03*
Y332500D03*
X225750D03*
X218250Y354000D03*
X212750D03*
X271750Y64500D03*
X254750Y79000D03*
X260250D03*
X254750Y85000D03*
X260250D03*
X254750Y98000D03*
X260250D03*
X254750Y104000D03*
X260250D03*
X254750Y117000D03*
X260250D03*
X254750Y123000D03*
X260250D03*
X254750Y137000D03*
X260250D03*
X254750Y150000D03*
X260250D03*
X254750Y163000D03*
X260250D03*
X254750Y237000D03*
X260250D03*
X254750Y224000D03*
X260250D03*
X254750Y264000D03*
X260250D03*
X254750Y250000D03*
X260250D03*
X254750Y283000D03*
X260250D03*
X254750Y270000D03*
X260250D03*
X254750Y302000D03*
X260250D03*
X254750Y289000D03*
X260250D03*
X254750Y308000D03*
X260250D03*
X271750Y328500D03*
X277250Y64500D03*
X284250Y175500D03*
X278750D03*
X277250Y328500D03*
G54D32*
X178476Y274240D03*
Y276208D03*
Y278176D03*
Y280144D03*
Y282112D03*
Y284080D03*
Y286048D03*
Y288016D03*
Y289984D03*
Y291952D03*
Y293920D03*
Y295888D03*
Y297856D03*
Y299824D03*
Y301792D03*
Y303760D03*
X216524Y286048D03*
Y284080D03*
Y282112D03*
Y280144D03*
Y278176D03*
Y276208D03*
Y274240D03*
Y303760D03*
Y301792D03*
Y299824D03*
Y297856D03*
Y295888D03*
Y293920D03*
Y291952D03*
Y289984D03*
Y288016D03*
G54D41*
X344500Y204295D03*
X326500D03*
X344500Y228705D03*
X326500D03*
X381500Y174795D03*
Y199205D03*
X399500Y174795D03*
Y199205D03*
G54D42*
G01X531500Y0D02*
Y405512D01*
X0D01*
Y0D01*
X531500D01*
G54D15*
X40900Y333660D03*
Y336220D03*
Y338780D03*
Y341340D03*
X51100D03*
Y333660D03*
Y338780D03*
Y336220D03*
G54D24*
X131000Y284123D03*
Y289877D03*
X189000Y208623D03*
Y214377D03*
G54D33*
X178224Y338000D03*
X168776D03*
G54D43*
G01X3347Y-31681D02*
X1509D01*
Y-28138D01*
X3347D01*
G01X2612Y-29850D02*
X1509D01*
G01X4627Y-28138D02*
X5775Y-31681D01*
X6923Y-28138D01*
G01X8157Y-31209D02*
X8525Y-31504D01*
X8938Y-31681D01*
X9306D01*
X9673Y-31504D01*
X9949Y-31209D01*
X10087Y-30795D01*
X9995Y-30382D01*
X9765Y-30028D01*
X9352Y-29791D01*
X8800Y-29673D01*
X8479Y-29437D01*
X8341Y-29024D01*
X8433Y-28610D01*
X8663Y-28315D01*
X8984Y-28138D01*
X9306D01*
X9627Y-28256D01*
X9903Y-28551D01*
G01X11550Y-31681D02*
Y-28138D01*
X12653D01*
X13020Y-28315D01*
X13296Y-28728D01*
X13388Y-29201D01*
X13296Y-29673D01*
X13066Y-30028D01*
X12653Y-30205D01*
X11550D01*
G01X15265Y-28138D02*
X16367D01*
G01X15816D02*
Y-31681D01*
G01X15265D02*
X16367D01*
G01X18107D02*
Y-28138D01*
X20219Y-31681D01*
Y-28138D01*
G01X21499Y-30972D02*
X21775Y-31386D01*
X22142Y-31622D01*
X22556Y-31681D01*
X22923Y-31622D01*
X23291Y-31327D01*
X23521Y-30972D01*
X23566Y-30618D01*
X23475Y-30205D01*
X23153Y-29910D01*
X22832Y-29791D01*
X22418D01*
G01X22832D02*
X23107Y-29614D01*
X23337Y-29319D01*
X23429Y-28965D01*
X23337Y-28610D01*
X23107Y-28315D01*
X22694Y-28138D01*
X22280Y-28197D01*
X21867Y-28433D01*
G01X24984Y-28728D02*
X25260Y-28374D01*
X25581Y-28197D01*
X25949Y-28138D01*
X26408Y-28256D01*
X26730Y-28551D01*
X26822Y-28906D01*
X26776Y-29260D01*
X26592Y-29555D01*
X25673Y-30146D01*
X25260Y-30559D01*
X24984Y-31150D01*
X24892Y-31681D01*
X26822D01*
G01X29480Y-29910D02*
X30398D01*
Y-30972D01*
X30123Y-31327D01*
X29801Y-31563D01*
X29342Y-31681D01*
X28882Y-31563D01*
X28561Y-31327D01*
X28285Y-30972D01*
X28102Y-30559D01*
X28010Y-30087D01*
Y-29673D01*
X28102Y-29319D01*
X28285Y-28906D01*
X28561Y-28551D01*
X28836Y-28315D01*
X29204Y-28138D01*
X29526D01*
X29893Y-28256D01*
X30169Y-28492D01*
G01X33102Y-31681D02*
Y-28138D01*
X31403Y-30677D01*
X33699D01*
G01X35301Y-30500D02*
X36495D01*
G01X38234Y-31681D02*
Y-28138D01*
X39153D01*
X39521Y-28315D01*
X39796Y-28551D01*
X40026Y-28906D01*
X40210Y-29319D01*
X40256Y-29910D01*
X40210Y-30500D01*
X40026Y-30913D01*
X39796Y-31268D01*
X39521Y-31504D01*
X39153Y-31681D01*
X38234D01*
G01X41581Y-28138D02*
Y-30677D01*
X41765Y-31209D01*
X42133Y-31563D01*
X42592Y-31681D01*
X43051Y-31563D01*
X43419Y-31209D01*
X43603Y-30677D01*
Y-28138D01*
G01X44791Y-31681D02*
X45939Y-28138D01*
X47087Y-31681D01*
G01X46674Y-30441D02*
X45204D01*
G01X48367Y-28138D02*
Y-31681D01*
X50205D01*
G01X55061D02*
Y-28138D01*
X56210D01*
X56577Y-28315D01*
X56807Y-28551D01*
X56899Y-29024D01*
X56807Y-29496D01*
X56531Y-29791D01*
X56210Y-29969D01*
X55061D01*
G01X56210D02*
X56899Y-31681D01*
G01X62674D02*
Y-28138D01*
X62123Y-28847D01*
G01Y-31681D02*
X63225D01*
G01X68449D02*
Y-28138D01*
X69552D01*
X69919Y-28315D01*
X70195Y-28728D01*
X70287Y-29201D01*
X70195Y-29673D01*
X69965Y-30028D01*
X69552Y-30205D01*
X68449D01*
G01X71521Y-31681D02*
Y-28138D01*
X72715Y-31091D01*
X73909Y-28138D01*
Y-31681D01*
G01X76062Y-28138D02*
Y-31681D01*
G01X75006Y-28138D02*
X77118D01*
G01X86103Y-31681D02*
Y-28138D01*
X85552Y-28847D01*
G01Y-31681D02*
X86654D01*
G01X88577Y-28728D02*
X88853Y-28374D01*
X89174Y-28197D01*
X89542Y-28138D01*
X90001Y-28256D01*
X90323Y-28551D01*
X90415Y-28906D01*
X90369Y-29260D01*
X90185Y-29555D01*
X89266Y-30146D01*
X88853Y-30559D01*
X88577Y-31150D01*
X88485Y-31681D01*
X90415D01*
G01X92200Y-30500D02*
X93394D01*
G01X95225Y-30972D02*
X95455Y-31327D01*
X95731Y-31563D01*
X96052Y-31681D01*
X96420Y-31563D01*
X96695Y-31327D01*
X96971Y-30972D01*
X97063Y-30500D01*
Y-28138D01*
G01X100318Y-31681D02*
Y-29319D01*
G01Y-29732D02*
X100134Y-29496D01*
X99858Y-29378D01*
X99537Y-29319D01*
X99215Y-29437D01*
X98940Y-29673D01*
X98756Y-30028D01*
X98664Y-30500D01*
X98756Y-30972D01*
X98940Y-31327D01*
X99215Y-31563D01*
X99537Y-31681D01*
X99858Y-31622D01*
X100134Y-31445D01*
X100318Y-31209D01*
G01X102057Y-31681D02*
Y-29319D01*
G01Y-29910D02*
X102241Y-29614D01*
X102516Y-29378D01*
X102884Y-29319D01*
X103205Y-29378D01*
X103481Y-29614D01*
X103619Y-30028D01*
Y-31681D01*
G01X105588Y-30500D02*
X106782D01*
G01X108659Y-28728D02*
X108935Y-28374D01*
X109256Y-28197D01*
X109624Y-28138D01*
X110083Y-28256D01*
X110405Y-28551D01*
X110497Y-28906D01*
X110451Y-29260D01*
X110267Y-29555D01*
X109348Y-30146D01*
X108935Y-30559D01*
X108659Y-31150D01*
X108567Y-31681D01*
X110497D01*
G01X112879Y-28138D02*
X112511Y-28256D01*
X112236Y-28551D01*
X112052Y-28906D01*
X111914Y-29378D01*
X111868Y-29910D01*
X111914Y-30441D01*
X112052Y-30913D01*
X112236Y-31268D01*
X112511Y-31563D01*
X112879Y-31681D01*
X113246Y-31563D01*
X113522Y-31268D01*
X113706Y-30913D01*
X113844Y-30441D01*
X113890Y-29910D01*
X113844Y-29378D01*
X113706Y-28906D01*
X113522Y-28551D01*
X113246Y-28256D01*
X112879Y-28138D01*
G01X115353Y-28728D02*
X115629Y-28374D01*
X115950Y-28197D01*
X116318Y-28138D01*
X116777Y-28256D01*
X117099Y-28551D01*
X117191Y-28906D01*
X117145Y-29260D01*
X116961Y-29555D01*
X116042Y-30146D01*
X115629Y-30559D01*
X115353Y-31150D01*
X115261Y-31681D01*
X117191D01*
G01X118700Y-28728D02*
X118976Y-28374D01*
X119297Y-28197D01*
X119665Y-28138D01*
X120124Y-28256D01*
X120446Y-28551D01*
X120538Y-28906D01*
X120492Y-29260D01*
X120308Y-29555D01*
X119389Y-30146D01*
X118976Y-30559D01*
X118700Y-31150D01*
X118608Y-31681D01*
X120538D01*
G01X128695D02*
Y-28138D01*
X129844D01*
X130211Y-28315D01*
X130441Y-28551D01*
X130533Y-29024D01*
X130441Y-29496D01*
X130165Y-29791D01*
X129844Y-29969D01*
X128695D01*
G01X129844D02*
X130533Y-31681D01*
G01X132961Y-29319D02*
Y-31681D01*
G01Y-28374D02*
X132869Y-28315D01*
Y-28197D01*
X132961Y-28138D01*
X133053Y-28197D01*
Y-28315D01*
X132961Y-28374D01*
G01X135665Y-32567D02*
X135986Y-32803D01*
X136354Y-32862D01*
X136675Y-32803D01*
X136951Y-32508D01*
X137135Y-32094D01*
Y-29319D01*
G01Y-29791D02*
X136951Y-29555D01*
X136675Y-29378D01*
X136354Y-29319D01*
X135986Y-29437D01*
X135757Y-29673D01*
X135573Y-30087D01*
X135481Y-30500D01*
X135527Y-30854D01*
X135711Y-31268D01*
X135986Y-31563D01*
X136354Y-31681D01*
X136630Y-31622D01*
X136951Y-31386D01*
X137135Y-31150D01*
G01X139655Y-31681D02*
X139379Y-31622D01*
X139104Y-31386D01*
X138920Y-30972D01*
X138828Y-30500D01*
X138920Y-30028D01*
X139104Y-29614D01*
X139379Y-29378D01*
X139655Y-29319D01*
X139931Y-29378D01*
X140206Y-29614D01*
X140390Y-30028D01*
X140436Y-30500D01*
X140390Y-30972D01*
X140206Y-31386D01*
X139931Y-31622D01*
X139655Y-31681D01*
G54D34*
X209800Y91080D03*
Y93048D03*
Y95016D03*
Y96984D03*
Y98952D03*
Y100920D03*
X227200D03*
Y98952D03*
Y96984D03*
Y95016D03*
Y93048D03*
Y91080D03*
G54D25*
X139900Y304500D03*
Y318500D03*
X144100Y304500D03*
Y318500D03*
G54D16*
X79500Y21000D03*
X485000Y186500D03*
Y217500D03*
G54D35*
X197500Y289000D03*
G54D26*
X139490Y313419D03*
Y309581D03*
X144510D03*
Y313419D03*
G54D17*
X79000Y196000D03*
X91500Y248500D03*
Y266500D03*
X95500Y355500D03*
X120500Y287000D03*
X116500Y355500D03*
X124500Y196000D03*
X140500Y231500D03*
X127000Y244000D03*
Y258000D03*
X142000Y333000D03*
X151000Y218000D03*
Y240500D03*
X151500Y278500D03*
Y293000D03*
X148000Y368500D03*
X182500Y76000D03*
X178000Y89500D03*
X189000Y222500D03*
X169000Y236000D03*
X181000Y250000D03*
X190000Y66000D03*
X205000D03*
X197500Y76000D03*
X205000Y129500D03*
X204500Y222500D03*
X201000Y330500D03*
X220000Y66000D03*
X227500Y76000D03*
X212500D03*
X217500Y212500D03*
X213500Y234500D03*
X212000Y330500D03*
X284000Y64500D03*
Y336500D03*
G54D18*
X76130Y286060D03*
Y312440D03*
X95870Y98560D03*
X80130D03*
X95870Y124940D03*
X80130D03*
X91870Y286060D03*
Y312440D03*
X125630Y98560D03*
X141370D03*
X125630Y124940D03*
X141370D03*
G54D27*
X140445Y341500D03*
X133555D03*
X221555Y115000D03*
X228445D03*
X234555Y86500D03*
X241445D03*
X234555Y103000D03*
X241445D03*
X234555Y270500D03*
X241445D03*
X234555Y283000D03*
X241445D03*
X234555Y295500D03*
X241445D03*
X290445Y39500D03*
X283555D03*
X286055Y97500D03*
X292945D03*
X290445Y366000D03*
X283555D03*
X337555Y97500D03*
X336945Y306500D03*
X330055D03*
X344445Y97500D03*
X381555Y306500D03*
X389055Y97500D03*
X395945D03*
X388445Y306500D03*
X439945D03*
X433055D03*
G54D36*
X223420Y87300D03*
X221452D03*
X219484D03*
X217516D03*
X215548D03*
X213580D03*
Y104700D03*
X215548D03*
X217516D03*
X219484D03*
X221452D03*
X223420D03*
G54D28*
X140100Y351760D03*
X129900D03*
X140100Y359240D03*
X129900D03*
Y355500D03*
G54D19*
X58500Y340354D03*
Y334646D03*
X88000Y198854D03*
Y193146D03*
X133500Y198854D03*
Y193146D03*
X126500Y305646D03*
Y317146D03*
Y322854D03*
Y311354D03*
X165000Y259646D03*
Y265354D03*
X196000Y86146D03*
X197000Y109646D03*
X196000Y91854D03*
X197000Y115354D03*
Y132354D03*
Y126646D03*
X195500Y239354D03*
Y233646D03*
X202000Y246646D03*
Y252354D03*
X189000Y246646D03*
Y252354D03*
G54D37*
X218500Y96000D03*
G54D29*
X159500Y321945D03*
Y315055D03*
X160000Y339945D03*
Y333055D03*
X151500D03*
Y339945D03*
X187000Y84555D03*
Y91445D03*
Y103945D03*
Y97055D03*
X186000Y321055D03*
Y327945D03*
X168000Y315055D03*
Y321945D03*
X196000Y103945D03*
Y97055D03*
X283500Y24555D03*
Y31445D03*
Y373555D03*
Y380445D03*
G54D38*
X253130Y110500D03*
Y91500D03*
Y129500D03*
Y143500D03*
Y169500D03*
Y156500D03*
Y230500D03*
Y243500D03*
Y256500D03*
Y276500D03*
Y295500D03*
Y314500D03*
X261870Y110500D03*
Y91500D03*
Y129500D03*
Y143500D03*
Y169500D03*
Y156500D03*
Y230500D03*
Y243500D03*
Y256500D03*
Y276500D03*
Y295500D03*
Y314500D03*
G54D39*
X283500Y10750D03*
Y18250D03*
Y393750D03*
Y386250D03*
M02*
