M48
INCH,TZ
T01C.01181
T02C.0315
T03C.03543
T04C.03937
T05C.05118
T06C.04016
T07C.12598
;LEADER: 12 
;HEADER: 
;CODE  : ASCII 
;FILE  : EVSPIN32G4-DUAL-R1-1-4.drl for board C:/cadence/INDUSTRIAL/EVSPIN32G4-Dual - Prospero/Allegro/#Taaaafa18428.tmp ... layers TOP and BOTTOM
;T01 Holesize 1. = 11.810000 Tolerance = +0.000000/-0.000000 PLATED MILS Quantity = 595
;T02 Holesize 2. = 31.500000 Tolerance = +2.000000/-0.000000 PLATED MILS Quantity = 4
;T03 Holesize 3. = 35.430000 Tolerance = +0.000000/-0.000000 PLATED MILS Quantity = 74
;T04 Holesize 4. = 39.370000 Tolerance = +0.000000/-0.000000 PLATED MILS Quantity = 12
;T05 Holesize 5. = 51.180000 Tolerance = +1.180000/-0.390000 PLATED MILS Quantity = 20
;T06 Holesize 6. = 40.160000 Tolerance = +0.000000/-0.000000 NON_PLATED MILS Quantity = 2
;T07 Holesize 7. = 125.980000 Tolerance = +0.000000/-0.000000 NON_PLATED MILS Quantity = 6
%
G90
T01
X79500Y21000
X279250Y10750
X253500Y58000
Y52000
Y49000
Y43000
Y40500
X241000Y43000
X224000
X207000
X132500Y48000
X131500Y44000
X125250Y43500
X120000Y51000
X116000Y34000
X113000Y31000
X105500Y37500
X98000Y40500
X78000Y79000
X89000Y72500
X101500Y87500
X120000
X166500Y76000
X178000Y88000
X192000Y85500
X197500Y76000
X205000Y88000
X208500Y79500
Y85500
X245000Y86500
X253500Y60500
X263500Y79000
X268000Y72000
X268500Y64500
X270500Y86000
X296500Y80500
Y87500
X299000Y77000
Y84000
X301500Y80500
X304000Y77000
X305499Y89499
X306500Y80500
X309000Y77000
X311500Y80500
X314000Y77000
X316500Y80500
X317499Y89499
X348000Y80500
Y87500
X350500Y77000
Y84000
X353000Y80500
X355500Y77000
X356999Y89499
X358000Y80500
X360500Y77000
X363000Y80500
X365500Y77000
X368000Y80500
X368999Y89499
X399500Y80500
Y87500
X402000Y77000
Y84000
X404500Y80500
X407000Y77000
X408499Y89499
X409500Y80500
X412000Y77000
X414500Y80500
X417000Y77000
X419500Y80500
X420499Y89499
Y97999
X414500Y106500
X414499Y93499
X408499Y97999
X403500Y106411
X402000Y91000
X385000Y98500
Y95000
X376501Y114001
X374001Y117001
Y110501
X372001Y114001
X369501Y117001
Y110501
X368999Y97999
X367501Y114001
X365001Y117001
Y110501
X363001Y114001
X362999Y93499
X360501Y117001
Y110501
X356999Y97999
X352000Y106411
X350500Y91000
X333500Y98500
Y95000
X325500Y114000
X322500Y117000
Y110500
X321000Y114000
X318000Y117000
Y110500
X317499Y97999
X316500Y114000
X313500Y117000
Y110500
X312000Y114000
X311499Y93499
X309000Y117000
Y110500
X305499Y97999
X299000Y91000
X282000Y98500
Y95000
X271000Y104750
X263500Y117000
Y98000
X245000Y110500
Y103000
X241500Y95000
X234000Y97500
X232501Y117000
X224000Y109500
X222500Y100000
Y92000
X218500Y96000
X214500Y100000
Y92000
X214000Y114000
X193500Y115354
X191500Y103945
Y97055
X125630Y112000
X95870
X76500Y92000
X49000Y106500
X193500Y132250
X251500Y137000
X280500Y128000
Y131500
X299000Y142500
Y147000
X304999Y142499
Y146499
X311499Y142499
Y146499
X317999Y142499
Y146499
X350500Y142500
Y147000
X356500Y142500
Y146500
X363000Y142500
Y146500
X369500Y142500
Y146500
X401500Y142500
Y147000
X407999Y142499
Y146499
X414499Y142499
Y146499
X420999Y142499
Y146499
Y150499
X420500Y163500
X418000Y167000
X416000Y163500
X414499Y150499
X413500Y174500
Y171000
Y167000
X411500Y163500
X410000Y176500
R02Y-3500
X409000Y167000
X407999Y150499
X407000Y163500
X405500Y169500
X404499Y166999
X403000Y158911
X401500Y151500
X401000Y169500
X396500
R02X-4500
X382999Y169499
X378500Y169500
X374000
X372000Y163000
X369500Y169500
Y150500
X367500Y163000
X363000
Y150500
X358500Y163000
X356500Y150500
X352000Y158911
X350500Y151500
X325000Y167000
X322500Y170500
Y163500
X320000Y167000
X318000Y170500
Y163500
X317999Y150499
X315500Y167000
X313500Y170500
Y163500
X311499Y150499
X311000Y167000
X308999Y170499
X309000Y163500
X304999Y150499
X299000Y151500
X282000Y158911
Y151500
X251500Y150000
X88000Y202500
X133500
X179000Y208750
X189000Y205000
X260000Y181000
X263665Y181164
X311500Y202000
Y207500
X315500Y195000
X316000Y204500
X318500Y199000
X321000Y195000
X324000Y199000
X326500Y195000
X329500Y199000
X332000Y195000
X335500Y199000
X338500Y195000
X341500Y199000
X344000Y195000
X347000Y199000
X349500Y195000
X352500Y199000
X355000Y204500
X355500Y195000
X359500Y202000
Y207500
X366500Y196000
Y201500
X370500Y208500
X371000Y199000
X373500Y204500
X376500Y208500
X379000Y204500
X382000Y208500
X384500Y204500
X387500Y208500
X390500Y183000
Y186500
Y204500
X394000Y208500
X396500Y204500
X399500Y208500
X402000Y204500
X405000Y208500
X407500Y204500
X410000Y199000
X410500Y208500
X414500Y196000
Y201500
X480000Y186500
X490000
Y217500
X480000
X416500Y233000
X414500Y236500
X412000Y233000
X410000Y236500
X407500Y233000
X405500Y236500
X403000Y233000
X400500Y236500
X356500Y234000
R04X-4500
X335500Y221000
Y217500
X334000Y234000
X329630Y234126
X325000Y234000
X321500Y236500
X320500Y234000
X317000Y236500
X316000Y234000
R02Y-3500
X312500Y236500
Y232500
Y229000
X308000Y236500
X270500Y238000
X270000Y224750
X231500Y239000
Y235500
X230914Y224914
X229500Y221500
X227000Y234000
X221500Y217500
X195500Y229500
X176646Y230500
X176000Y217500
X159000Y230500
Y216500
X151000Y224500
X137500Y224000
X85500Y237000
X32000Y264000
X32250Y256750
X91500Y248500
X100000Y249250
X100146Y262000
X112123Y249000
X117854Y262000
X118000Y249000
X133500Y248000
Y254000
X135500Y266500
X136000Y260000
X159000Y243250
X166000Y243000
X169000Y254000
X172500Y244000
X173500Y257000
X189000Y243000
X195500Y261000
X200000Y256100
X202000Y241500
X207000Y254000
X216500Y247500
X227000
X266500
X305001Y253001
Y257001
Y261001
X305500Y240000
X310000
X311501Y253001
R02Y4000
X314500Y240000
X318001Y253001
Y257001
Y261001
X319000Y240000
X322500Y244500
X324000Y252000
R02Y4500
X354000Y240500
X356501Y253001
Y257001
Y261001
X358500Y240500
X363000
X363001Y253001
R02Y4000
X367500Y240500
X369501Y253001
Y257001
Y261001
X374000Y244589
X375500Y252000
Y256500
Y261000
X403000Y240000
X407500
X408001Y253001
R02Y4000
X412001Y240001
X412000Y240000
X414501Y253001
R02Y4000
X416500Y240000
X421001Y253001
Y257001
Y261001
X425000Y244589
X426500Y252000
Y256500
Y261000
X425500Y297089
X404000Y297000
X374000Y296500
X370000Y290000
X367500Y293000
X367501Y286501
X365500Y290000
X363000Y293000
X363001Y286501
X361130Y290000
X358500Y293000
Y286500
X356500Y290000
X354000Y293000
Y286500
X322500Y296500
X320000Y289500
X317500Y292500
Y286000
X315500Y289500
X313000Y292500
Y286000
X311000Y289500
X308500Y292500
Y286000
X306500Y289500
X304000Y292500
Y286000
X270500Y290000
Y271000
X264000Y283000
X214476Y269976
X211500Y295000
X203500
Y283000
X197500Y289000
X191500Y295000
Y283000
X190612Y275000
X184500Y296500
X154500Y281000
X152000Y286000
X136000Y290000
Y283500
X135500Y296500
Y277000
X126500Y283500
X105000Y281500
X76130Y299500
X48000Y299750
Y295500
X42750Y297250
X41250Y293750
X38500Y291000
X36500Y271500
X5500Y297500
Y292500
Y282500
Y302500
X51000
X53750Y305250
X56500Y308000
X59250Y310750
X62250Y313750
X65000Y317500
X101000Y309000
X116500Y322750
X120000Y302500
X126500
X137000Y318500
X147000Y304500
X154500Y322500
X158000Y328500
X159000Y304500
X161500Y328500
X163500Y311500
X164000Y322500
X168000Y307500
X169500Y311000
X171500Y301501
X172000Y311000
X184500Y300000
X188000Y317000
X203500Y321000
X207000Y323500
X213001Y317001
X214500Y311000
X215500Y314500
X218062Y305938
X221000Y315000
X225500Y308500
X226500Y320000
X228000Y311500
X264000Y302000
X268600Y328500
X270500Y309000
X305000Y305500
Y313500
X306501Y323001
X309001Y326501
X311500Y309500
Y323000
X314001Y326501
X316500Y323000
X318000Y305500
Y313500
X319001Y326501
X321500Y323000
X324001Y312501
R02Y7000
X326501Y316001
X326500Y323000
X341000Y305500
Y309000
X356500Y305500
Y313500
X358001Y323001
X360501Y326501
X363000Y309500
Y323000
X365501Y326501
X368000Y323000
X369500Y305500
Y313500
X370501Y326501
X373000Y323000
X375501Y312501
R02Y7000
X378001Y316001
X378000Y323000
X392500Y305500
Y309000
X408000Y305500
Y313500
X409501Y323001
X412001Y326501
X414500Y309500
Y323000
X417001Y326501
X419500Y323000
X421000Y305500
Y313500
X422001Y326501
X424500Y323000
X427001Y312501
R02Y7000
X429501Y316001
X429500Y323000
X444000Y305500
Y309000
X268500Y335500
X223000Y340500
X218354Y351000
X212000Y330500
X201000
X200146Y351000
X194000Y344000
X192500Y349000
Y341000
X190500Y338000
X188500Y335000
X186000Y332000
X160000Y344500
X155500Y354500
Y351000
X151500Y344500
X135000Y355500
Y347500
X111500Y354000
X95500Y355500
X83000Y354000
X74000
X68500Y343000
X62000Y340500
X61854Y334646
X54500Y343101
Y332000
X52500Y349500
X46000Y335000
X74000Y360000
X83000
X96000Y364000
X103500
X108000Y364500
X111500Y360000
X135000Y363500
X169500Y369500
X203000Y374500
X209500Y364000
X215500Y374500
X241500Y361000
X244500
X283500Y397500
T02
X175000Y66000
X168000Y202000
X124500Y235500
X163500Y368500
T03
X20000Y68625
R03Y10000
X30000Y68625
R03Y10000
X109500Y21000
R02X10000
X159500
R04X10000
X229500
R04X10000
X171000Y121000
Y111000
X143500Y166000
X133500Y176000
X123500Y166000
X98000
X88000Y176000
X78000Y166000
X30000Y158625
R05Y-10000
X20000Y158625
R05Y-10000
X114000Y219000
R04X-10000
X18000Y252500
R02Y-10000
Y332500
R03Y10000
X68000Y384500
R08X10000
X168000
R04X10000
X228000
X238000Y344500
Y384500
X248000Y344500
Y384500
R02X10000
T04
X324500Y19500
Y39500
X378000Y19500
Y39500
X431500Y19500
Y39500
X324500Y364000
Y384000
X378000Y364000
Y384000
X431500Y364000
Y384000
T05
X491608Y43158
X511292
Y62842
X491608
Y109315
X511292
Y129000
X491608
Y148685
X511292
Y255815
X491608
Y275500
X511292
Y295185
X491608
Y341658
X511292
Y361342
X491608
T06
X21500Y280000
Y305000
T07
X14000Y14000
Y201500
Y391512
X517500
Y201500
Y14000
M30
