G04 ================== begin FILE IDENTIFICATION RECORD ==================*
G04 Layout Name:  EVSPIN32G4-DUAL-R1.brd*
G04 Film Name:    EVSPIN32G4-DUAL-R1-L1-TOP*
G04 File Format:  Gerber RS274X*
G04 File Origin:  Cadence Allegro 17.4-S024*
G04 Origin Date:  Wed Jan 12 10:19:19 2022*
G04 *
G04 Layer:  BOARD GEOMETRY/DESIGN_OUTLINE*
G04 Layer:  DRAWING FORMAT/TITLE_BLOCK*
G04 Layer:  ETCH/TOP*
G04 Layer:  PIN/TOP*
G04 Layer:  VIA CLASS/TOP*
G04 *
G04 Offset:    (0.00 0.00)*
G04 Mirror:    No*
G04 Mode:      Positive*
G04 Rotation:  0*
G04 FullContactRelief:  No*
G04 UndefLineWidth:     1.00*
G04 ================== end FILE IDENTIFICATION RECORD ====================*
%FSLAX25Y25*MOIN*%
%IR0*IPPOS*OFA0.00000B0.00000*MIA0B0*SFA1.00000B1.00000*%
%ADD36C,.02*%
%ADD20R,.135X.07*%
%ADD28C,.05*%
%ADD21C,.06*%
%ADD47C,.07*%
%ADD13C,.063*%
%ADD30R,.022X.022*%
%ADD15C,.04016*%
%ADD25R,.033X.033*%
%ADD14R,.063X.063*%
%ADD12C,.02559*%
%ADD44R,.03543X.03543*%
%ADD39R,.063X.13779*%
%ADD11R,.10984X.02913*%
%ADD48R,.14567X.06496*%
%ADD38O,.06X.0114*%
%ADD24R,.04X.05*%
%ADD50C,.1*%
%ADD49R,.015X.03*%
%ADD40R,.05X.014*%
%ADD37O,.0114X.06*%
%ADD17R,.05X.04*%
%ADD42R,.014X.05*%
%ADD18R,.035X.03*%
%ADD16R,.03X.035*%
%ADD45R,.05X.045*%
%ADD27R,.033X.0315*%
%ADD29R,.0315X.033*%
%ADD43R,.106X.106*%
%ADD35R,.091X.069*%
%ADD31R,.03445X.03051*%
%ADD41R,.16142X.16142*%
%ADD34R,.05512X.04724*%
%ADD10C,.00394*%
%ADD46R,.02559X.045*%
%ADD32R,.04724X.05512*%
%ADD23R,.03543X.03346*%
%ADD26R,.03346X.03543*%
%ADD22R,.05512X.06693*%
%ADD33R,.03937X.02717*%
%ADD19R,.03937X.01773*%
%ADD51C,.01*%
%ADD52C,.011*%
%ADD53C,.012*%
%ADD54C,.03*%
%ADD55C,.04*%
%ADD56C,.014*%
%ADD57C,.015*%
%ADD58C,.025*%
%ADD59C,.035*%
%ADD60C,.018*%
%ADD61C,.02287*%
%ADD62C,.03287*%
%ADD63C,.01787*%
%ADD64C,.001*%
%ADD65C,.00669*%
%ADD66C,.00787*%
%ADD67C,.03862*%
%ADD69C,.12406*%
%ADD68C,.15406*%
G75*
%LPD*%
G75*
G36*
G01X93500Y382500D02*
X93869Y382869D01*
X94036Y382701D01*
X94051Y382669D01*
G03X98000Y380147I3949J1831D01*
G03X101663Y382148I0J4353D01*
G02X102285Y382215I338J-217D01*
G01X105500Y379000D01*
Y363000D01*
X106500Y362000D01*
X112000D01*
X112500Y361500D01*
Y352500D01*
X112000Y352000D01*
X72500D01*
X72000Y352500D01*
Y361000D01*
X73000Y362000D01*
X92500D01*
X93500Y363000D01*
Y382500D01*
G37*
G36*
G01X165000Y345500D02*
X173000D01*
X173500Y345000D01*
Y331500D01*
X177098Y327901D01*
Y319000D01*
G03X178691Y316739I2401J0D01*
G01X178734Y316724D01*
X180479Y314979D01*
G03X182000Y314348I1522J1521D01*
G03X182965Y314577I-1J2152D01*
G01X183008Y314598D01*
X183207D01*
X185403Y312403D01*
G03X185474Y312336I1100J1094D01*
G01Y310675D01*
X185472Y310658D01*
G03X185454Y310454I1204J-209D01*
G01Y310016D01*
G02X184768Y309732I-402J0D01*
G01X183960Y310540D01*
X183952Y310608D01*
G03X182740Y311676I-1212J-154D01*
G03X181774Y311202I0J-1221D01*
G01X179791D01*
X178791Y312202D01*
X175298D01*
X172000Y315500D01*
Y325500D01*
X171000Y326500D01*
X139500D01*
X138500Y327500D01*
Y335500D01*
X163500D01*
X164500Y336500D01*
Y345000D01*
X165000Y345500D01*
G37*
G36*
G01X138500Y334500D02*
Y353000D01*
X145500D01*
X146500Y352000D01*
Y336500D01*
X148000Y335000D01*
Y334500D01*
X138500D01*
G37*
G36*
G01X131000Y370500D02*
X136210D01*
Y366726D01*
X137500D01*
Y360760D01*
X137495Y360739D01*
G03X137480Y360598I637J-139D01*
G01Y357882D01*
G03X137495Y357741I652J-2D01*
G01X137500Y357720D01*
Y353280D01*
X137495Y353259D01*
G03X137480Y353118I637J-139D01*
G01Y350402D01*
G03X137495Y350261I652J-2D01*
G01X137500Y350240D01*
Y345500D01*
X136062Y344062D01*
X136014D01*
Y344014D01*
X136000Y344000D01*
Y338500D01*
X131000D01*
Y349750D01*
X131868D01*
G03X132520Y350402I0J651D01*
G01Y353118D01*
G03X131868Y353770I-652J1D01*
G01X131000D01*
Y354500D01*
X128500D01*
Y356500D01*
X131000D01*
Y357230D01*
X131868D01*
G03X132520Y357882I0J651D01*
G01Y360598D01*
G03X131868Y361250I-652J0D01*
G01X131000D01*
Y370500D01*
G37*
G36*
G01X138500D02*
X150000D01*
X151000Y369500D01*
Y366500D01*
X142500Y358000D01*
X138500D01*
Y370500D01*
G37*
G36*
G01X152500Y320500D02*
X155500D01*
Y312000D01*
X157000Y310500D01*
X161000D01*
Y306500D01*
X164500Y303000D01*
Y299500D01*
X160699D01*
X152500Y307699D01*
Y320500D01*
G37*
G36*
G01X156500Y317500D02*
X162500D01*
Y314500D01*
X166000Y311000D01*
X166500D01*
X170000Y307500D01*
X176000D01*
X178500Y305000D01*
X180500D01*
X181000Y304500D01*
Y303500D01*
X180514Y303014D01*
X176046D01*
G03X175878Y303002I3J-1222D01*
G01X175864Y303000D01*
X173500D01*
X172500Y304000D01*
X165500D01*
X163000Y306500D01*
Y309500D01*
X161000Y311500D01*
X157500D01*
X156500Y312500D01*
Y317500D01*
G37*
G36*
G01X156000Y319500D02*
X155500Y319000D01*
X153000D01*
X152500Y319500D01*
Y325000D01*
X153000Y325500D01*
X170500D01*
X171000Y325000D01*
Y319500D01*
X156000D01*
G37*
G36*
G01X148000Y337500D02*
X147500Y338000D01*
Y355500D01*
X148500Y356500D01*
X167000D01*
Y348500D01*
X163500Y345000D01*
Y338000D01*
X163000Y337500D01*
X148000D01*
G37*
G36*
G01X165000Y317500D02*
X171000D01*
Y315000D01*
X174500Y311500D01*
X178500D01*
X179500Y310500D01*
X183000D01*
Y305000D01*
X181500D01*
X180500Y306000D01*
X178500D01*
X176500Y308000D01*
X176492D01*
X176291Y308202D01*
X170298D01*
X166000Y312500D01*
X165500D01*
X165000Y313000D01*
Y317500D01*
G37*
G36*
G01X204500Y359000D02*
Y368500D01*
X214000D01*
Y359000D01*
X204500D01*
G37*
G36*
G01X212000Y272500D02*
X214000D01*
X216000Y270500D01*
Y269000D01*
X214000Y267000D01*
X212500D01*
X212000Y267500D01*
Y272500D01*
G37*
G36*
G01X240000Y360000D02*
Y366500D01*
X246000D01*
Y360000D01*
X245500Y359500D01*
X240500D01*
X240000Y360000D01*
G37*
G36*
G01X252500Y45000D02*
X259000D01*
Y39000D01*
X252500D01*
X252000Y39500D01*
Y44500D01*
X252500Y45000D01*
G37*
G36*
G01Y62000D02*
X259000D01*
Y56000D01*
X252500D01*
X252000Y56500D01*
Y61500D01*
X252500Y62000D01*
G37*
G36*
G01Y53500D02*
X259000D01*
Y47500D01*
X252500D01*
X252000Y48000D01*
Y53000D01*
X252500Y53500D01*
G37*
G36*
G01X484500Y51500D02*
X521500D01*
X522500Y50500D01*
Y25304D01*
G02X521946Y24932I-402J0D01*
G03X517500Y25814I-4487J-10971D01*
G03X505686Y14000I39J-11853D01*
G03X505691Y13697I11853J44D01*
G02X505338Y13560I-201J-6D01*
G03X500000Y16020I-5337J-4560D01*
G03X492980Y9000I0J-7020D01*
G03X495997Y3232I7020J-1D01*
G02X495768Y2500I-229J-330D01*
G01X289000D01*
X288000Y3500D01*
Y27000D01*
X289000Y28000D01*
X461000D01*
X484500Y51500D01*
G37*
G36*
G01X392702Y100500D02*
X521500D01*
X522500Y99500D01*
Y54500D01*
X521500Y53500D01*
X483000D01*
X460000Y30500D01*
X289000D01*
X288000Y31500D01*
Y92298D01*
X288498D01*
X289702Y93502D01*
Y94938D01*
X290486D01*
Y100062D01*
X289702D01*
Y100500D01*
X330298D01*
Y93502D01*
X331502Y92298D01*
X332362D01*
X332399Y92284D01*
G03X333500Y92069I1102J2716D01*
G03X334637Y92298I1J2931D01*
G01X339998D01*
X341202Y93502D01*
Y94938D01*
X341986D01*
Y100062D01*
X341202D01*
Y100500D01*
X381798D01*
Y93502D01*
X383002Y92298D01*
X383862D01*
X383899Y92284D01*
G03X385000Y92069I1102J2716D01*
G03X386137Y92298I1J2931D01*
G01X391498D01*
X392702Y93502D01*
Y94938D01*
X393486D01*
Y100062D01*
X392702D01*
Y100500D01*
G37*
G36*
G01X280500Y93500D02*
X280000Y94000D01*
Y100000D01*
X280500Y100500D01*
X288500D01*
Y94000D01*
X288000Y93500D01*
X280500D01*
G37*
G36*
G01X288500Y153000D02*
X332500D01*
X333000Y152500D01*
Y104500D01*
X332500Y104000D01*
X306431D01*
Y108661D01*
G03X305280Y109812I-1151J0D01*
G01X302720D01*
G03X301572Y108748I0J-1151D01*
G01X301558Y108562D01*
X299662D01*
X299629Y108724D01*
G03X298500Y109652I-1129J-223D01*
G01X295500D01*
G03X294469Y109013I0J-1151D01*
G01X294414Y108902D01*
X289141D01*
X288000Y110043D01*
Y152500D01*
X288500Y153000D01*
G37*
G36*
G01X289000Y178000D02*
X441500D01*
X442000Y177500D01*
Y175500D01*
X423000Y156500D01*
X408931D01*
Y161161D01*
G03X407780Y162312I-1151J0D01*
G01X405220D01*
G03X404126Y161519I0J-1151D01*
G02X403639Y161257I-382J126D01*
G03X403000Y161342I-637J-2346D01*
G03X402333Y161249I-1J-2431D01*
G02X402088Y161376I-55J193D01*
G03X401000Y162152I-1088J-375D01*
G01X398000D01*
G03X396848Y161000I0J-1152D01*
G01Y157500D01*
G03X396937Y157057I1152J1D01*
G02X396566Y156500I-371J-155D01*
G01X357931D01*
Y161161D01*
G03X356780Y162312I-1151J0D01*
G01X354220D01*
G03X353126Y161519I0J-1151D01*
G02X352639Y161257I-382J126D01*
G03X352000Y161342I-637J-2346D01*
G03X351333Y161249I-1J-2431D01*
G02X351088Y161376I-55J193D01*
G03X350000Y162152I-1088J-375D01*
G01X347000D01*
G03X345848Y161000I0J-1152D01*
G01Y157500D01*
G03X345937Y157057I1152J1D01*
G02X345566Y156500I-371J-155D01*
G01X306431D01*
Y161161D01*
G03X305280Y162312I-1151J0D01*
G01X302720D01*
G03X301572Y161248I0J-1151D01*
G01X301558Y161062D01*
X299662D01*
X299629Y161224D01*
G03X298500Y162152I-1129J-223D01*
G01X295500D01*
G03X294469Y161513I0J-1151D01*
G01X294414Y161402D01*
X289141D01*
X288000Y162543D01*
Y177000D01*
X289000Y178000D01*
G37*
G36*
G01X336764Y212000D02*
X362000D01*
X362500Y211500D01*
Y192500D01*
X362000Y192000D01*
X289000D01*
X288000Y193000D01*
Y211000D01*
X289000Y212000D01*
X334236D01*
G03X334750Y211748I515J400D01*
G01X336250D01*
G03X336764Y212000I-1J652D01*
G37*
G36*
G01X380434Y247000D02*
X419069D01*
Y242339D01*
G03X420220Y241188I1151J0D01*
G01X422780D01*
G03X423874Y241981I0J1151D01*
G02X424361Y242243I382J-126D01*
G03X425000Y242158I637J2346D01*
G03X425667Y242251I1J2431D01*
G02X425912Y242124I55J-193D01*
G03X427000Y241348I1088J375D01*
G01X430000D01*
G03X430684Y241574I-1J1152D01*
G01X430823Y241677D01*
X444500Y228000D01*
Y226000D01*
X444000Y225500D01*
X289000D01*
X288000Y226500D01*
Y246000D01*
X289000Y247000D01*
X316569D01*
Y242339D01*
G03X317720Y241188I1151J0D01*
G01X320280D01*
G03X321352Y241921I-1J1151D01*
G02X321837Y242161I374J-147D01*
G03X322500Y242069I662J2339D01*
G03X323195Y242170I2J2431D01*
G02X323438Y242055I58J-192D01*
G03X324500Y241348I1062J444D01*
G01X327500D01*
G03X328652Y242500I0J1152D01*
G01Y246000D01*
G03X328563Y246443I-1152J-1D01*
G02X328934Y247000I371J155D01*
G01X368069D01*
Y242339D01*
G03X369220Y241188I1151J0D01*
G01X371780D01*
G03X372874Y241981I0J1151D01*
G02X373361Y242243I382J-126D01*
G03X374000Y242158I637J2346D01*
G03X374667Y242251I1J2431D01*
G02X374912Y242124I55J-193D01*
G03X376000Y241348I1088J375D01*
G01X379000D01*
G03X380152Y242500I0J1152D01*
G01Y246000D01*
G03X380063Y246443I-1152J-1D01*
G02X380434Y247000I371J155D01*
G37*
G36*
G01X328367Y299500D02*
X336000D01*
X336500Y299000D01*
Y251000D01*
X336000Y250500D01*
X288500D01*
X288000Y251000D01*
Y299500D01*
X317069D01*
Y294839D01*
G03X317720Y294188I651J0D01*
G01X320280D01*
G03X320931Y294839I0J651D01*
G01Y295066D01*
X321205D01*
X321261Y295019D01*
G03X322500Y294569I1239J1481D01*
G03X323414Y294799I0J1931D01*
G02X323946Y294657I190J-354D01*
G03X324500Y294348I554J342D01*
G01X327500D01*
G03X328152Y295000I0J652D01*
G01Y298500D01*
G03X328036Y298870I-652J-1D01*
G02X328367Y299500I331J228D01*
G37*
G36*
G01X289000Y374000D02*
X460000D01*
X483000Y351000D01*
X521500D01*
X522500Y350000D01*
Y314000D01*
X521500Y313000D01*
X441000D01*
X440202Y312202D01*
X437502D01*
X436298Y310998D01*
Y309062D01*
X435514D01*
Y307514D01*
X431000Y303000D01*
X395684D01*
G02X395542Y303343I0J201D01*
G01X395702Y303502D01*
Y310998D01*
X394498Y312202D01*
X386002D01*
X384798Y310998D01*
Y309062D01*
X384014D01*
Y303938D01*
X384798D01*
Y303000D01*
X344184D01*
G02X344042Y303343I0J201D01*
G01X344202Y303502D01*
Y310998D01*
X342998Y312202D01*
X334502D01*
X333298Y310998D01*
Y309062D01*
X332514D01*
Y303938D01*
X333298D01*
Y303000D01*
X289000D01*
X288000Y304000D01*
Y373000D01*
X289000Y374000D01*
G37*
G36*
G01Y401500D02*
X509954D01*
G02X510203Y400782I0J-402D01*
G03X505686Y391512I7336J-9310D01*
G03X517500Y379698I11853J39D01*
G03X521946Y380580I-41J11853D01*
G02X522500Y380208I152J-372D01*
G01Y354000D01*
X521500Y353000D01*
X484500D01*
X461000Y376500D01*
X289000D01*
X288000Y377500D01*
Y400500D01*
X289000Y401500D01*
G37*
G36*
G01X300870Y99281D02*
X302740D01*
Y100600D01*
X320260D01*
Y99281D01*
X322130D01*
Y96131D01*
X320260D01*
Y89635D01*
X322130D01*
Y86485D01*
X320260D01*
Y84300D01*
X317701D01*
Y84674D01*
X315240D01*
Y84301D01*
X313000Y84299D01*
Y84700D01*
X310000D01*
Y84299D01*
X307760Y84301D01*
Y84674D01*
X305299D01*
Y84300D01*
X302740D01*
Y86485D01*
X300870D01*
Y89635D01*
X302740D01*
Y96131D01*
X300870D01*
Y99281D01*
G37*
G36*
G01Y151781D02*
X302740D01*
Y153100D01*
X320260D01*
Y151781D01*
X322130D01*
Y148631D01*
X320260D01*
Y142135D01*
X322130D01*
Y138985D01*
X320260D01*
Y136800D01*
X317701D01*
Y137174D01*
X315240D01*
Y136801D01*
X313000Y136799D01*
Y137200D01*
X310000D01*
Y136799D01*
X307760Y136801D01*
Y137174D01*
X305299D01*
Y136800D01*
X302740D01*
Y138985D01*
X300870D01*
Y142135D01*
X302740D01*
Y148631D01*
X300870D01*
Y151781D01*
G37*
G36*
G01X322130Y251719D02*
X320260D01*
Y250400D01*
X302740D01*
Y251719D01*
X300870D01*
Y254869D01*
X302740D01*
Y261365D01*
X300870D01*
Y264515D01*
X302740D01*
Y266700D01*
X305299D01*
Y266326D01*
X307760D01*
Y266699D01*
X310000Y266701D01*
Y266300D01*
X313000D01*
Y266701D01*
X315240Y266699D01*
Y266326D01*
X317701D01*
Y266700D01*
X320260D01*
Y264515D01*
X322130D01*
Y261365D01*
X320260D01*
Y254869D01*
X322130D01*
Y251719D01*
G37*
G36*
G01Y304219D02*
X320260D01*
Y302900D01*
X302740D01*
Y304219D01*
X300870D01*
Y307369D01*
X302740D01*
Y313865D01*
X300870D01*
Y317015D01*
X302740D01*
Y319200D01*
X305299D01*
Y318826D01*
X307760D01*
Y319199D01*
X310000Y319201D01*
Y318800D01*
X313000D01*
Y319201D01*
X315240Y319199D01*
Y318826D01*
X317701D01*
Y319200D01*
X320260D01*
Y317015D01*
X322130D01*
Y313865D01*
X320260D01*
Y307369D01*
X322130D01*
Y304219D01*
G37*
G36*
G01X332000Y93500D02*
X331500Y94000D01*
Y100000D01*
X332000Y100500D01*
X340000D01*
Y94000D01*
X339500Y93500D01*
X332000D01*
G37*
G36*
G01X336500Y153000D02*
X386000D01*
X386500Y152500D01*
Y104500D01*
X386000Y104000D01*
X357931D01*
Y108661D01*
G03X356780Y109812I-1151J0D01*
G01X354220D01*
G03X353126Y109019I0J-1151D01*
G02X352639Y108757I-382J126D01*
G03X352000Y108842I-637J-2346D01*
G03X351333Y108749I-1J-2431D01*
G02X351088Y108876I-55J193D01*
G03X350000Y109652I-1088J-375D01*
G01X347000D01*
G03X345848Y108500I0J-1152D01*
G01Y105000D01*
G03X345937Y104557I1152J1D01*
G02X345566Y104000I-371J-155D01*
G01X336500D01*
X336000Y104500D01*
Y152500D01*
X336500Y153000D01*
G37*
G36*
G01X342500Y303500D02*
X334500D01*
Y310500D01*
X335000Y311000D01*
X342500D01*
X343000Y310500D01*
Y304000D01*
X342500Y303500D01*
G37*
G36*
G01X352370Y99281D02*
X354240D01*
Y100600D01*
X371760D01*
Y99281D01*
X373630D01*
Y96131D01*
X371760D01*
Y89635D01*
X373630D01*
Y86485D01*
X371760D01*
Y84300D01*
X369201D01*
Y84674D01*
X366740D01*
Y84301D01*
X364500Y84299D01*
Y84700D01*
X361500D01*
Y84299D01*
X359260Y84301D01*
Y84674D01*
X356799D01*
Y84300D01*
X354240D01*
Y86485D01*
X352370D01*
Y89635D01*
X354240D01*
Y96131D01*
X352370D01*
Y99281D01*
G37*
G36*
G01Y151781D02*
X354240D01*
Y153100D01*
X371760D01*
Y151781D01*
X373630D01*
Y148631D01*
X371760D01*
Y142135D01*
X373630D01*
Y138985D01*
X371760D01*
Y136800D01*
X369201D01*
Y137174D01*
X366740D01*
Y136801D01*
X364500Y136799D01*
Y137200D01*
X361500D01*
Y136799D01*
X359260Y136801D01*
Y137174D01*
X356799D01*
Y136800D01*
X354240D01*
Y138985D01*
X352370D01*
Y142135D01*
X354240D01*
Y148631D01*
X352370D01*
Y151781D01*
G37*
G36*
G01X373630Y251719D02*
X371760D01*
Y250400D01*
X354240D01*
Y251719D01*
X352370D01*
Y254869D01*
X354240D01*
Y261365D01*
X352370D01*
Y264515D01*
X354240D01*
Y266700D01*
X356799D01*
Y266326D01*
X359260D01*
Y266699D01*
X361500Y266701D01*
Y266300D01*
X364500D01*
Y266701D01*
X366740Y266699D01*
Y266326D01*
X369201D01*
Y266700D01*
X371760D01*
Y264515D01*
X373630D01*
Y261365D01*
X371760D01*
Y254869D01*
X373630D01*
Y251719D01*
G37*
G36*
G01X379867Y299500D02*
X389500D01*
X390000Y299000D01*
Y251000D01*
X389500Y250500D01*
X340000D01*
X339500Y251000D01*
Y299000D01*
X340000Y299500D01*
X368569D01*
Y294839D01*
G03X369220Y294188I651J0D01*
G01X371780D01*
G03X372431Y294839I0J651D01*
G01Y295066D01*
X372705D01*
X372761Y295019D01*
G03X374000Y294569I1239J1481D01*
G03X374914Y294799I0J1931D01*
G02X375446Y294657I190J-354D01*
G03X376000Y294348I554J342D01*
G01X379000D01*
G03X379652Y295000I0J652D01*
G01Y298500D01*
G03X379536Y298870I-652J-1D01*
G02X379867Y299500I331J228D01*
G37*
G36*
G01X373630Y304219D02*
X371760D01*
Y302900D01*
X354240D01*
Y304219D01*
X352370D01*
Y307369D01*
X354240D01*
Y313865D01*
X352370D01*
Y317015D01*
X354240D01*
Y319200D01*
X356799D01*
Y318826D01*
X359260D01*
Y319199D01*
X361500Y319201D01*
Y318800D01*
X364500D01*
Y319201D01*
X366740Y319199D01*
Y318826D01*
X369201D01*
Y319200D01*
X371760D01*
Y317015D01*
X373630D01*
Y313865D01*
X371760D01*
Y307369D01*
X373630D01*
Y304219D01*
G37*
G36*
G01X364000Y212000D02*
X429500D01*
X430500Y211000D01*
Y193000D01*
X429500Y192000D01*
X391764D01*
G03X391250Y192252I-515J-400D01*
G01X389750D01*
G03X389236Y192000I1J-652D01*
G01X364000D01*
X363500Y192500D01*
Y211500D01*
X364000Y212000D01*
G37*
G36*
G01X403870Y99281D02*
X405740D01*
Y100600D01*
X423260D01*
Y99281D01*
X425130D01*
Y96131D01*
X423260D01*
Y89635D01*
X425130D01*
Y86485D01*
X423260D01*
Y84300D01*
X420701D01*
Y84674D01*
X418240D01*
Y84301D01*
X416000Y84299D01*
Y84700D01*
X413000D01*
Y84299D01*
X410760Y84301D01*
Y84674D01*
X408299D01*
Y84300D01*
X405740D01*
Y86485D01*
X403870D01*
Y89635D01*
X405740D01*
Y96131D01*
X403870D01*
Y99281D01*
G37*
G36*
G01X383500Y93500D02*
X383000Y94000D01*
Y100000D01*
X383500Y100500D01*
X391500D01*
Y94000D01*
X391000Y93500D01*
X383500D01*
G37*
G36*
G01X448500Y178000D02*
X521500D01*
X522500Y177000D01*
Y138500D01*
X521500Y137500D01*
X486000D01*
X477500Y129000D01*
Y105000D01*
X476500Y104000D01*
X409431D01*
Y108661D01*
G03X408280Y109812I-1151J0D01*
G01X405720D01*
G03X404626Y109019I0J-1151D01*
G02X404139Y108757I-382J126D01*
G03X403500Y108842I-637J-2346D01*
G03X402833Y108749I-1J-2431D01*
G02X402588Y108876I-55J193D01*
G03X401500Y109652I-1088J-375D01*
G01X398500D01*
G03X397348Y108500I0J-1152D01*
G01Y105000D01*
G03X397437Y104557I1152J1D01*
G02X397066Y104000I-371J-155D01*
G01X390000D01*
X389500Y104500D01*
Y152500D01*
X390000Y153000D01*
X423500D01*
X448500Y178000D01*
G37*
G36*
G01X403370Y151781D02*
X405240D01*
Y153100D01*
X422760D01*
Y151781D01*
X424630D01*
Y148631D01*
X422760D01*
Y142135D01*
X424630D01*
Y138985D01*
X422760D01*
Y136800D01*
X420201D01*
Y137174D01*
X417740D01*
Y136801D01*
X415500Y136799D01*
Y137200D01*
X412500D01*
Y136799D01*
X410260Y136801D01*
Y137174D01*
X407799D01*
Y136800D01*
X405240D01*
Y138985D01*
X403370D01*
Y142135D01*
X405240D01*
Y148631D01*
X403370D01*
Y151781D01*
G37*
G36*
G01X424630Y251719D02*
X422760D01*
Y250400D01*
X405240D01*
Y251719D01*
X403370D01*
Y254869D01*
X405240D01*
Y261365D01*
X403370D01*
Y264515D01*
X405240D01*
Y266700D01*
X407799D01*
Y266326D01*
X410260D01*
Y266699D01*
X412500Y266701D01*
Y266300D01*
X415500D01*
Y266701D01*
X417740Y266699D01*
Y266326D01*
X420201D01*
Y266700D01*
X422760D01*
Y264515D01*
X424630D01*
Y261365D01*
X422760D01*
Y254869D01*
X424630D01*
Y251719D01*
G37*
G36*
G01X431367Y299500D02*
X476500D01*
X477500Y298500D01*
Y275500D01*
X486000Y267000D01*
X521500D01*
X522500Y266000D01*
Y226500D01*
X521500Y225500D01*
X455500D01*
X430500Y250500D01*
X393500D01*
X393000Y251000D01*
Y299000D01*
X393500Y299500D01*
X420069D01*
Y294839D01*
G03X420720Y294188I651J0D01*
G01X423280D01*
G03X423931Y294839I0J651D01*
G01Y295438D01*
X424498D01*
X424544Y295411D01*
G03X425500Y295158I956J1678D01*
G03X426456Y295411I0J1931D01*
G01X426502Y295438D01*
X426848D01*
Y295000D01*
G03X427500Y294348I652J0D01*
G01X430500D01*
G03X431152Y295000I0J652D01*
G01Y298500D01*
G03X431036Y298870I-652J-1D01*
G02X431367Y299500I331J228D01*
G37*
G36*
G01X394000Y303500D02*
X386000D01*
Y310500D01*
X386500Y311000D01*
X394000D01*
X394500Y310500D01*
Y304000D01*
X394000Y303500D01*
G37*
G36*
G01X425130Y304219D02*
X423260D01*
Y302900D01*
X405740D01*
Y304219D01*
X403870D01*
Y307369D01*
X405740D01*
Y313865D01*
X403870D01*
Y317015D01*
X405740D01*
Y319200D01*
X408299D01*
Y318826D01*
X410760D01*
Y319199D01*
X413000Y319201D01*
Y318800D01*
X416000D01*
Y319201D01*
X418240Y319199D01*
Y318826D01*
X420701D01*
Y319200D01*
X423260D01*
Y317015D01*
X425130D01*
Y313865D01*
X423260D01*
Y307369D01*
X425130D01*
Y304219D01*
G37*
G36*
G01X445500Y303500D02*
X437500D01*
Y310500D01*
X438000Y311000D01*
X445500D01*
X446000Y310500D01*
Y304000D01*
X445500Y303500D01*
G37*
%LPC*%
G75*
G54D67*
X159000Y304500D03*
G54D69*
X378000Y19500D03*
X431500D03*
X324500D03*
Y39500D03*
X378000D03*
X431500D03*
Y364000D03*
X378000D03*
X324500D03*
X378000Y384000D03*
X431500D03*
X324500D03*
X491608Y148685D03*
X511292D03*
X491608Y255815D03*
X511292D03*
G54D68*
Y43158D03*
X491608D03*
Y62842D03*
X511292D03*
X491608Y341658D03*
X511292D03*
X491608Y361342D03*
X511292D03*
%LPD*%
G75*
G54D10*
X14000Y14000D03*
Y201500D03*
Y391512D03*
X517500Y14000D03*
Y201500D03*
Y391512D03*
G54D11*
X13488Y277500D03*
Y282500D03*
Y287500D03*
Y292500D03*
Y297500D03*
Y302500D03*
Y307500D03*
X29512Y277500D03*
Y282500D03*
Y287500D03*
Y292500D03*
Y297500D03*
Y302500D03*
Y307500D03*
G54D20*
X79500Y21000D03*
X485000Y186500D03*
Y217500D03*
G54D12*
X5500Y282500D03*
Y297500D03*
Y292500D03*
Y302500D03*
X32000Y264000D03*
X32250Y256750D03*
X49000Y106500D03*
X36500Y271500D03*
X51000Y302500D03*
X53750Y305250D03*
X42750Y297250D03*
X41250Y293750D03*
X48000Y299750D03*
X38500Y291000D03*
X48000Y295500D03*
X52500Y349500D03*
X46000Y335000D03*
X54500Y343101D03*
Y332000D03*
X76500Y92000D03*
X76130Y299500D03*
X56500Y308000D03*
X62250Y313750D03*
X59250Y310750D03*
X65000Y317500D03*
X61854Y334646D03*
X68500Y343000D03*
X62000Y340500D03*
X74000Y360000D03*
Y354000D03*
X79500Y21000D03*
X98000Y40500D03*
X89000Y72500D03*
X78000Y79000D03*
X95870Y112000D03*
X88000Y202500D03*
X85500Y237000D03*
X91500Y248500D03*
X95500Y355500D03*
X83000Y354000D03*
Y360000D03*
X96000Y364000D03*
X105500Y37500D03*
X113000Y31000D03*
X116000Y34000D03*
X120000Y51000D03*
Y87500D03*
X101500D03*
X100146Y262000D03*
X117854D03*
X112123Y249000D03*
X118000D03*
X100000Y249250D03*
X105000Y281500D03*
X120000Y302500D03*
X116500Y322750D03*
X101000Y309000D03*
X108000Y364500D03*
X111500Y354000D03*
Y360000D03*
X103500Y364000D03*
X125250Y43500D03*
X131500Y44000D03*
X132500Y48000D03*
X125630Y112000D03*
X133500Y202500D03*
X137500Y224000D03*
X133500Y254000D03*
Y248000D03*
X136000Y260000D03*
Y283500D03*
X135500Y277000D03*
X126500Y283500D03*
X135500Y266500D03*
X136000Y290000D03*
X135500Y296500D03*
X126500Y302500D03*
X137000Y318500D03*
X135000Y347500D03*
Y355500D03*
Y363500D03*
X159000Y216500D03*
Y230500D03*
X151000Y224500D03*
X159000Y243250D03*
X152000Y286000D03*
X154500Y281000D03*
X147000Y304500D03*
X159000D03*
X158000Y328500D03*
X161500D03*
X154500Y322500D03*
X164000D03*
X163500Y311500D03*
X155500Y351000D03*
X160000Y344500D03*
X151500D03*
X155500Y354500D03*
X166500Y76000D03*
X178000Y88000D03*
X176000Y217500D03*
X179000Y208750D03*
X176646Y230500D03*
X166000Y243000D03*
X173500Y257000D03*
X169000Y254000D03*
X172500Y244000D03*
X184500Y296500D03*
Y300000D03*
X171500Y301501D03*
X168000Y307500D03*
X169500Y311000D03*
X172000D03*
X186000Y332000D03*
X169500Y369500D03*
X207000Y43000D03*
X192000Y85500D03*
X208500D03*
X197500Y76000D03*
X208500Y79500D03*
X205000Y88000D03*
X191500Y103945D03*
Y97055D03*
X193500Y115354D03*
Y132250D03*
X189000Y205000D03*
Y243000D03*
X202000Y241500D03*
X195500Y229500D03*
X200000Y256100D03*
X207000Y254000D03*
X195500Y261000D03*
X191500Y283000D03*
X203500D03*
X190612Y275000D03*
X191500Y295000D03*
X203500D03*
X197500Y289000D03*
X203500Y321000D03*
X207000Y323500D03*
X201000Y330500D03*
X188000Y317000D03*
X200146Y351000D03*
X192500Y349000D03*
Y341000D03*
X190500Y338000D03*
X188500Y335000D03*
X194000Y344000D03*
X203000Y374500D03*
X224000Y43000D03*
X218500Y96000D03*
X214500Y92000D03*
Y100000D03*
X222500D03*
Y92000D03*
X224000Y109500D03*
X214000Y114000D03*
X221500Y217500D03*
X229500Y221500D03*
X227000Y234000D03*
X216500Y247500D03*
X227000D03*
X214476Y269976D03*
X211500Y295000D03*
X225500Y308500D03*
X218062Y305938D03*
X226500Y320000D03*
X212000Y330500D03*
X214500Y311000D03*
X215500Y314500D03*
X221000Y315000D03*
X228000Y311500D03*
X213001Y317001D03*
X218354Y351000D03*
X223000Y340500D03*
X209500Y364000D03*
X215500Y374500D03*
X241000Y43000D03*
X245000Y86500D03*
X241500Y95000D03*
X234000Y97500D03*
X245000Y103000D03*
Y110500D03*
X232501Y117000D03*
X251500Y137000D03*
Y150000D03*
X230914Y224914D03*
X231500Y235500D03*
Y239000D03*
X244500Y361000D03*
X241500D03*
X253500Y43000D03*
Y40500D03*
Y58000D03*
Y60500D03*
X268500Y64500D03*
X253500Y49000D03*
Y52000D03*
X268000Y72000D03*
X263500Y79000D03*
X270500Y86000D03*
X263500Y98000D03*
X271000Y104750D03*
X263500Y117000D03*
X263665Y181164D03*
X260000Y181000D03*
X270500Y238000D03*
X270000Y224750D03*
X266500Y247500D03*
X270500Y271000D03*
X264000Y283000D03*
X270500Y290000D03*
X264000Y302000D03*
X270500Y309000D03*
X268600Y328500D03*
X268500Y335500D03*
X279250Y10750D03*
X282000Y95000D03*
Y98500D03*
X280500Y131500D03*
Y128000D03*
X282000Y151500D03*
Y158911D03*
X283500Y397500D03*
X314000Y77000D03*
X316500Y80500D03*
X296500Y87500D03*
X299000Y84000D03*
X296500Y80500D03*
X309000Y77000D03*
X304000D03*
X299000D03*
X301500Y80500D03*
X306500D03*
X311500D03*
X317499Y89499D03*
X305499D03*
X299000Y91000D03*
X317499Y97999D03*
X311499Y93499D03*
X305499Y97999D03*
X309000Y110500D03*
X313500D03*
X318000D03*
X316500Y114000D03*
X312000D03*
X318000Y117000D03*
X313500D03*
X309000D03*
X299000Y142500D03*
Y151500D03*
Y147000D03*
X317999Y142499D03*
Y146499D03*
Y150499D03*
X311499D03*
Y146499D03*
Y142499D03*
X304999Y150499D03*
Y146499D03*
Y142499D03*
X318000Y163500D03*
X313500D03*
X309000D03*
X311000Y167000D03*
X315500D03*
X308999Y170499D03*
X318000Y170500D03*
X313500D03*
X315500Y195000D03*
X316000Y204500D03*
X311500Y202000D03*
Y207500D03*
X305500Y240000D03*
X310000D03*
X314500D03*
X317000Y236500D03*
X312500D03*
X308000D03*
X316000Y227000D03*
X312500Y229000D03*
Y232500D03*
X316000Y230500D03*
Y234000D03*
X305001Y253001D03*
X318001D03*
X311501D03*
X305001Y261001D03*
Y257001D03*
X318001Y261001D03*
Y257001D03*
X311501D03*
Y261001D03*
X313000Y286000D03*
X304000D03*
X308500D03*
X317500D03*
X304000Y292500D03*
X308500D03*
X313000D03*
X306500Y289500D03*
X311000D03*
X317500Y292500D03*
X315500Y289500D03*
X305000Y305500D03*
X318000D03*
X305000Y313500D03*
X311500Y309500D03*
X318000Y313500D03*
X306501Y323001D03*
X311500Y323000D03*
X316500D03*
X309001Y326501D03*
X314001D03*
X333500Y98500D03*
Y95000D03*
X322500Y110500D03*
X321000Y114000D03*
X325500D03*
X322500Y117000D03*
X320000Y167000D03*
X325000D03*
X322500Y163500D03*
Y170500D03*
X332000Y195000D03*
X335500Y199000D03*
X324000D03*
X329500D03*
X326500Y195000D03*
X318500Y199000D03*
X321000Y195000D03*
X338500D03*
X335500Y221000D03*
Y217500D03*
X334000Y234000D03*
X329630Y234126D03*
X325000Y234000D03*
X320500D03*
X338500D03*
X319000Y240000D03*
X321500Y236500D03*
X322500Y244500D03*
X324000Y261000D03*
Y256500D03*
Y252000D03*
X322500Y296500D03*
X320000Y289500D03*
X321500Y323000D03*
X326500D03*
X319001Y326501D03*
X324001D03*
Y319501D03*
X326501Y316001D03*
X324001Y312501D03*
X348000Y87500D03*
X350500Y84000D03*
X348000Y80500D03*
X360500Y77000D03*
X355500D03*
X350500D03*
X353000Y80500D03*
X358000D03*
X356999Y89499D03*
X350500Y91000D03*
X356999Y97999D03*
X360501Y110501D03*
X352000Y106411D03*
X360501Y117001D03*
X350500Y142500D03*
X356500Y150500D03*
Y146500D03*
Y142500D03*
X350500Y151500D03*
Y147000D03*
X358500Y163000D03*
X352000Y158911D03*
X352500Y199000D03*
X347000D03*
X341500D03*
X344000Y195000D03*
X355500D03*
X349500D03*
X355000Y204500D03*
X359500Y202000D03*
Y207500D03*
X354000Y240500D03*
X358500D03*
X356500Y234000D03*
X352000D03*
X343000D03*
X347500D03*
X356501Y253001D03*
Y257001D03*
Y261001D03*
X354000Y286500D03*
X358500D03*
X341000Y305500D03*
X356500D03*
X354000Y293000D03*
X358500D03*
X356500Y290000D03*
X361130D03*
X341000Y309000D03*
X356500Y313500D03*
X360501Y326501D03*
X358001Y323001D03*
X365500Y77000D03*
X368000Y80500D03*
X363000D03*
X368999Y89499D03*
Y97999D03*
X362999Y93499D03*
X365001Y110501D03*
X369501D03*
X374001D03*
X365001Y117001D03*
X369501D03*
X374001D03*
X363001Y114001D03*
X367501D03*
X372001D03*
X376501D03*
X363000Y150500D03*
Y146500D03*
Y142500D03*
X369500D03*
Y146500D03*
Y150500D03*
X367500Y163000D03*
X363000D03*
X369500Y169500D03*
X374000D03*
X378500D03*
X382999Y169499D03*
X372000Y163000D03*
X371000Y199000D03*
X366500Y196000D03*
X370500Y208500D03*
X379000Y204500D03*
X373500D03*
X382000Y208500D03*
X376500D03*
X366500Y201500D03*
X363000Y240500D03*
X367500D03*
X374000Y244589D03*
X363001Y253001D03*
Y257001D03*
Y261001D03*
X369501Y253001D03*
Y261001D03*
Y257001D03*
X375500Y261000D03*
Y256500D03*
Y252000D03*
X363001Y286501D03*
X367501D03*
X374000Y296500D03*
X369500Y305500D03*
X363000Y293000D03*
X367500D03*
X365500Y290000D03*
X370000D03*
X369500Y313500D03*
X363000Y309500D03*
X370501Y326501D03*
X365501D03*
X373000Y323000D03*
X368000D03*
X363000D03*
X378001Y316001D03*
X375501Y319501D03*
Y326501D03*
X378000Y323000D03*
X375501Y312501D03*
X404500Y80500D03*
X402000Y77000D03*
X399500Y80500D03*
X402000Y84000D03*
X399500Y87500D03*
X385000Y98500D03*
Y95000D03*
X402000Y91000D03*
X403500Y106411D03*
X401500Y142500D03*
Y151500D03*
Y147000D03*
X404499Y166999D03*
X392000Y169500D03*
X387500D03*
X396500D03*
X405500D03*
X401000D03*
X403000Y158911D03*
X390500Y183000D03*
Y186500D03*
Y204500D03*
X402000D03*
X396500D03*
X405000Y208500D03*
X399500D03*
X394000D03*
X384500Y204500D03*
X387500Y208500D03*
X403000Y233000D03*
X405500Y236500D03*
X403000Y240000D03*
X400500Y236500D03*
X392500Y305500D03*
X404000Y297000D03*
X392500Y309000D03*
X419500Y80500D03*
X414500D03*
X409500D03*
X417000Y77000D03*
X407000D03*
X412000D03*
X420499Y89499D03*
X408499D03*
X420499Y97999D03*
X408499D03*
X414499Y93499D03*
X414500Y106500D03*
X420999Y142499D03*
Y146499D03*
Y150499D03*
X414499D03*
Y146499D03*
Y142499D03*
X407999Y150499D03*
Y146499D03*
Y142499D03*
X409000Y167000D03*
X413500D03*
X418000D03*
X407000Y163500D03*
X411500D03*
X416000D03*
X420500D03*
X410000Y173000D03*
X413500Y171000D03*
Y174500D03*
X410000Y176500D03*
Y169500D03*
X414500Y196000D03*
X410000Y199000D03*
X414500Y201500D03*
X407500Y204500D03*
X410500Y208500D03*
X412001Y240001D03*
X407500Y233000D03*
X412000D03*
X410000Y236500D03*
X412000Y240000D03*
X407500D03*
X416500Y233000D03*
X414500Y236500D03*
X416500Y240000D03*
X425000Y244589D03*
X408001Y253001D03*
Y261001D03*
Y257001D03*
X414501Y253001D03*
X421001D03*
X414501Y257001D03*
Y261001D03*
X421001Y257001D03*
Y261001D03*
X426500Y252000D03*
Y256500D03*
Y261000D03*
X425500Y297089D03*
X421000Y305500D03*
X408000D03*
X421000Y313500D03*
X414500Y309500D03*
X408000Y313500D03*
X422001Y326501D03*
X417001D03*
X424500Y323000D03*
X419500D03*
X414500D03*
X412001Y326501D03*
X409501Y323001D03*
X427001Y319501D03*
Y326501D03*
Y312501D03*
X444000Y305500D03*
Y309000D03*
X429501Y316001D03*
X429500Y323000D03*
X480000Y186500D03*
X490000D03*
Y217500D03*
X480000D03*
G54D30*
X139900Y304500D03*
Y318500D03*
X144100Y304500D03*
Y318500D03*
G54D21*
X79000Y196000D03*
X91500Y248500D03*
Y266500D03*
X95500Y355500D03*
X120500Y287000D03*
X116500Y355500D03*
X124500Y196000D03*
X140500Y231500D03*
X127000Y244000D03*
Y258000D03*
X142000Y333000D03*
X151000Y218000D03*
Y240500D03*
X151500Y278500D03*
Y293000D03*
X148000Y368500D03*
X182500Y76000D03*
X178000Y89500D03*
X189000Y222500D03*
X169000Y236000D03*
X181000Y250000D03*
X190000Y66000D03*
X205000D03*
X197500Y76000D03*
X205000Y129500D03*
X204500Y222500D03*
X201000Y330500D03*
X220000Y66000D03*
X227500Y76000D03*
X212500D03*
X217500Y212500D03*
X213500Y234500D03*
X212000Y330500D03*
X284000Y64500D03*
Y336500D03*
G54D22*
X76130Y286060D03*
Y312440D03*
X95870Y98560D03*
X80130D03*
X95870Y124940D03*
X80130D03*
X91870Y286060D03*
Y312440D03*
X125630Y98560D03*
X141370D03*
X125630Y124940D03*
X141370D03*
G54D31*
X139490Y313419D03*
Y309581D03*
X144510D03*
Y313419D03*
G54D40*
X209800Y91080D03*
Y93048D03*
Y95016D03*
Y96984D03*
Y98952D03*
Y100920D03*
X227200D03*
Y98952D03*
Y96984D03*
Y95016D03*
Y93048D03*
Y91080D03*
G54D13*
X33000Y15500D03*
X20000Y68625D03*
Y88625D03*
X30000D03*
X20000Y78625D03*
X30000D03*
X20000Y108625D03*
X30000D03*
X20000Y98625D03*
X30000D03*
Y118625D03*
X20000D03*
X30000Y128625D03*
X20000D03*
X30000Y138625D03*
X20000D03*
X30000Y148625D03*
X20000D03*
X30000Y158625D03*
X20000D03*
X18000Y242500D03*
Y232500D03*
Y342500D03*
Y352500D03*
Y362500D03*
X36000Y391000D03*
X78000Y166000D03*
X68000Y384500D03*
X78000D03*
X88000Y176000D03*
X98000Y166000D03*
X84000Y219000D03*
X94000D03*
X98000Y384500D03*
X88000D03*
X119500Y21000D03*
X109500D03*
X123500Y166000D03*
X114000Y219000D03*
X104000D03*
X118000Y384500D03*
X108000D03*
X133500Y176000D03*
X143500Y166000D03*
X138000Y384500D03*
X128000D03*
X159500Y21000D03*
X179500D03*
X169500D03*
X171000Y111000D03*
X168000Y384500D03*
X188000D03*
X178000D03*
X189500Y21000D03*
X198000Y384500D03*
X228000D03*
X239500Y21000D03*
X249500D03*
X238000Y344500D03*
X248000Y384500D03*
X238000D03*
X269500Y21000D03*
X259500D03*
X258000Y384500D03*
X500000Y9000D03*
G54D23*
X58500Y340354D03*
Y334646D03*
X88000Y198854D03*
Y193146D03*
X133500Y198854D03*
Y193146D03*
X126500Y305646D03*
Y317146D03*
Y322854D03*
Y311354D03*
X165000Y259646D03*
Y265354D03*
X196000Y86146D03*
X197000Y109646D03*
X196000Y91854D03*
X197000Y115354D03*
Y132354D03*
Y126646D03*
X195500Y239354D03*
Y233646D03*
X202000Y246646D03*
Y252354D03*
X189000Y246646D03*
Y252354D03*
G54D32*
X140445Y341500D03*
X133555D03*
X221555Y115000D03*
X228445D03*
X234555Y86500D03*
X241445D03*
X234555Y103000D03*
X241445D03*
X234555Y270500D03*
X241445D03*
X234555Y283000D03*
X241445D03*
X234555Y295500D03*
X241445D03*
X290445Y39500D03*
X283555D03*
X286055Y97500D03*
X292945D03*
X290445Y366000D03*
X283555D03*
X337555Y97500D03*
X336945Y306500D03*
X330055D03*
X344445Y97500D03*
X381555Y306500D03*
X389055Y97500D03*
X395945D03*
X388445Y306500D03*
X439945D03*
X433055D03*
G54D41*
X197500Y289000D03*
G54D50*
X491608Y43158D03*
Y62842D03*
Y109315D03*
Y129000D03*
Y148685D03*
Y255815D03*
Y275500D03*
Y295185D03*
Y341658D03*
Y361342D03*
X511292Y43158D03*
Y62842D03*
Y109315D03*
Y129000D03*
Y148685D03*
Y255815D03*
Y275500D03*
Y295185D03*
Y341658D03*
Y361342D03*
G54D14*
X30000Y68625D03*
X18000Y252500D03*
Y332500D03*
X74000Y219000D03*
X129500Y21000D03*
X148000Y384500D03*
X171000Y121000D03*
X199500Y21000D03*
X208000Y384500D03*
X229500Y21000D03*
X248000Y344500D03*
X268000Y384500D03*
G54D60*
G01X40900Y333660D02*
X44660D01*
X46000Y335000D01*
G01D02*
X47220Y336220D01*
X51100D01*
G01D02*
X54780D01*
X56354Y334646D01*
X58500D01*
G01X51100Y338780D02*
X54280D01*
X55854Y340354D01*
X58500D01*
G01Y334646D02*
X61854D01*
G01X183500Y316500D02*
X186500Y313500D01*
G01X266500Y247500D02*
Y250250D01*
G01X267000Y308750D02*
X270250D01*
X270500Y309000D01*
G01X260250Y302000D02*
X264000D01*
G54D51*
G01X221146Y251500D02*
Y252855D01*
X219001Y255000D01*
X211000D01*
X205096Y260904D01*
Y264404D01*
X204388Y265112D01*
Y269976D01*
G54D33*
X140100Y351760D03*
X129900D03*
X140100Y359240D03*
X129900D03*
Y355500D03*
G54D42*
X223420Y87300D03*
X221452D03*
X219484D03*
X217516D03*
X215548D03*
X213580D03*
Y104700D03*
X215548D03*
X217516D03*
X219484D03*
X221452D03*
X223420D03*
G54D24*
X77450Y368500D03*
X82550D03*
X95550D03*
X90450D03*
X103450D03*
X108550D03*
X120450D03*
X125550D03*
X176950Y241500D03*
X182050D03*
X172950Y369500D03*
X178050D03*
X200450Y340000D03*
X205550D03*
X217550D03*
X212450D03*
X256950Y42000D03*
X262050D03*
X256950Y59000D03*
X262050D03*
X256950Y50500D03*
X262050D03*
X271950Y72000D03*
Y335500D03*
X277050Y72000D03*
Y335500D03*
G54D15*
X21500Y280000D03*
Y305000D03*
G54D61*
G01X491608Y142282D02*
Y148685D01*
G01D02*
Y155088D01*
G01X485205Y148685D02*
X491608D01*
G01D02*
X498011D01*
G01X486879Y143956D02*
X491608Y148685D01*
G01D02*
X496337Y153414D01*
G01X486879D02*
X491608Y148685D01*
G01D02*
X496337Y143956D01*
G01X491608Y249412D02*
Y255815D01*
G01D02*
Y262218D01*
G01X485205Y255815D02*
X491608D01*
G01D02*
X498011D01*
G01X486879Y251086D02*
X491608Y255815D01*
G01D02*
X496337Y260544D01*
G01X486879D02*
X491608Y255815D01*
G01D02*
X496337Y251086D01*
G01X511292Y142282D02*
Y148685D01*
G01D02*
Y155088D01*
G01X504889Y148685D02*
X511292D01*
G01D02*
X517695D01*
G01X506563Y143956D02*
X511292Y148685D01*
G01D02*
X516021Y153414D01*
G01X506563D02*
X511292Y148685D01*
G01D02*
X516021Y143956D01*
G01X511292Y249412D02*
Y255815D01*
G01D02*
Y262218D01*
G01X504889Y255815D02*
X511292D01*
G01D02*
X517695D01*
G01X506563Y251086D02*
X511292Y255815D01*
G01D02*
X516021Y260544D01*
G01X506563D02*
X511292Y255815D01*
G01D02*
X516021Y251086D01*
G54D52*
G01X96000Y198550D02*
Y217000D01*
X94000Y219000D01*
G01X178476Y282112D02*
X161612D01*
X153500Y274000D01*
X92500D01*
X87000Y268500D01*
Y241000D01*
X94000Y234000D01*
Y219000D01*
G01X104000D02*
X110000Y213000D01*
X129000D01*
X141500Y200500D01*
Y198550D01*
G01X105854Y266401D02*
X111453Y272000D01*
X154500D01*
X162644Y280144D01*
X178476D01*
G01X112146Y265500D02*
Y266647D01*
X115499Y270000D01*
X155500D01*
X163676Y278176D01*
X178476D01*
G01X137500Y224000D02*
X136000Y225500D01*
Y236500D01*
X145250Y245750D01*
Y253750D01*
X155500Y264000D01*
X158500D01*
X166500Y272000D01*
X180716D01*
X182740Y269976D01*
G01X127000Y258000D02*
X126250Y258750D01*
Y265750D01*
G01X142250Y251000D02*
X132000D01*
X127000Y246000D01*
Y244000D01*
G01X178476Y289984D02*
X161016D01*
X151432Y299568D01*
X137182D01*
X133000Y303750D01*
Y304000D01*
G01X178476Y291952D02*
X161548D01*
X151500Y302000D01*
X141100D01*
X139900Y303200D01*
Y304500D01*
G01X133000Y322750D02*
X144250D01*
X151000Y316000D01*
Y307500D01*
X161000Y297500D01*
X172000D01*
X174324Y299824D01*
X178476D01*
G01X126396Y317250D02*
X126500Y317146D01*
G01X164500Y256500D02*
X167500D01*
X171000Y260000D01*
X183000D01*
X188644Y265644D01*
Y269976D01*
G01X144750Y260000D02*
X150750Y266000D01*
X157500D01*
X165740Y274240D01*
X178476D01*
G01Y286048D02*
X156048D01*
X153500Y283500D01*
X144750D01*
G01X178476Y284080D02*
X158500D01*
G01X157080D02*
X157079D01*
X150098Y277099D01*
X144854D01*
G01Y266500D02*
X146354Y268000D01*
X156500D01*
X164708Y276208D01*
X178476D01*
G01X151500Y293000D02*
X148000Y296500D01*
X144854D01*
G01X178476Y288016D02*
X156484D01*
G01X154016D02*
X153984D01*
X151500Y290500D01*
Y293000D01*
G01X178476Y293920D02*
X162080D01*
X148500Y307500D01*
Y311000D01*
X146081Y313419D01*
X144510D01*
G01X181000Y250000D02*
Y250500D01*
X194548Y264048D01*
Y269976D01*
G01X173500Y253250D02*
Y257000D01*
G01D02*
X174000Y257500D01*
X185000D01*
X192580Y265080D01*
Y269976D01*
G01X169000Y254000D02*
X167250Y252250D01*
X166000D01*
G01X165000Y265354D02*
X166000Y264354D01*
X182354D01*
X184708Y266708D01*
Y269976D01*
G01X186676D02*
Y266176D01*
X182500Y262000D01*
X169000D01*
X166646Y259646D01*
X165000D01*
G01X184708Y312042D02*
Y308024D01*
G01X184500Y296500D02*
X183888Y295888D01*
X178476D01*
G01X184500Y300000D02*
X184000Y299500D01*
X183500D01*
X181856Y297856D01*
X178476D01*
G01Y301792D02*
X171791D01*
X171500Y301501D01*
G01X186500Y313500D02*
X186676Y313324D01*
Y308024D01*
G01X206356Y269976D02*
Y265644D01*
X206800Y265200D01*
Y263200D01*
X207750Y262250D01*
G01X200452Y263048D02*
Y269976D01*
G01X202420D02*
Y264080D01*
X202900Y263600D01*
G01X195500Y252250D02*
Y256000D01*
X198484Y258984D01*
Y269976D01*
G01X196516D02*
Y262861D01*
X195500Y261845D01*
Y261000D01*
G01D02*
X189000Y254500D01*
Y252354D01*
G01X208324Y269976D02*
Y266376D01*
X208600Y266100D01*
Y265400D01*
X209000Y265000D01*
G01X190612Y269976D02*
Y275000D01*
G01X206356Y308024D02*
Y314751D01*
X211605Y320000D01*
X217146D01*
G01X212000Y330500D02*
X208000D01*
X200452Y322952D01*
Y308024D01*
G01X203500Y321000D02*
X202420Y319920D01*
Y308024D01*
G01X207000Y323500D02*
Y319000D01*
X204388Y316388D01*
Y308024D01*
G01X194548D02*
Y338952D01*
X192500Y341000D01*
G01X201000Y330500D02*
X198484Y327984D01*
Y308024D01*
G01X188000Y316144D02*
X188644Y315500D01*
Y308024D01*
G01X192580D02*
Y335920D01*
X190500Y338000D01*
G01X188500Y335000D02*
X190612Y332888D01*
Y308024D01*
G01X194000Y344000D02*
X196516Y341484D01*
Y308024D01*
G01X213001Y317001D02*
X212501D01*
X208324Y312824D01*
Y308024D01*
G01X210292Y269976D02*
Y266708D01*
X212000Y265000D01*
G01X226250Y283550D02*
X225720Y284080D01*
X216524D01*
G01X221500Y276500D02*
Y276700D01*
G01X214500Y311000D02*
X213500D01*
X212260Y309760D01*
Y308024D01*
G01X215500Y314500D02*
X214500Y313500D01*
X212000D01*
X210292Y311792D01*
Y308024D01*
G01X216524Y295888D02*
X212388D01*
X211500Y295000D01*
G01X225500Y308500D02*
Y302300D01*
X221056Y297856D01*
X216524D01*
G01X221000Y315000D02*
Y303000D01*
X219792Y301792D01*
X216524D01*
G01X218062Y305938D02*
Y305298D01*
X216524Y303760D01*
G01X228000Y311500D02*
X224500D01*
X223000Y310000D01*
Y302400D01*
X220424Y299824D01*
X216524D01*
G01X223000Y292500D02*
X222452Y291952D01*
X216524D01*
G01X226000Y291500D02*
X224484Y289984D01*
X216524D01*
G54D34*
X159500Y321945D03*
Y315055D03*
X160000Y339945D03*
Y333055D03*
X151500D03*
Y339945D03*
X187000Y84555D03*
Y91445D03*
Y103945D03*
Y97055D03*
X186000Y321055D03*
Y327945D03*
X168000Y315055D03*
Y321945D03*
X196000Y103945D03*
Y97055D03*
X283500Y24555D03*
Y31445D03*
Y373555D03*
Y380445D03*
G54D43*
X218500Y96000D03*
G54D16*
X34000Y340250D03*
Y334750D03*
X100000Y240250D03*
Y245750D03*
X112000Y240250D03*
X106000D03*
X118000D03*
X112000Y245750D03*
X106000D03*
X118000D03*
X120000Y305750D03*
Y311250D03*
Y317250D03*
Y322750D03*
X133000Y305750D03*
Y317250D03*
Y322750D03*
Y311250D03*
X159000Y219750D03*
X151000Y233750D03*
Y228250D03*
X159000Y239250D03*
Y233750D03*
Y225250D03*
X151000Y246750D03*
Y252250D03*
X159000D03*
Y246750D03*
X184000Y109750D03*
Y126750D03*
Y132250D03*
Y115250D03*
X176000Y214250D03*
Y208750D03*
X182500D03*
Y214250D03*
X173500Y253250D03*
Y247750D03*
X166000Y246750D03*
Y252250D03*
X190500Y109750D03*
Y115250D03*
Y132250D03*
Y126750D03*
X195500Y219750D03*
Y225250D03*
X189000Y239250D03*
Y233750D03*
X195500Y246750D03*
Y252250D03*
X206000Y366750D03*
Y372250D03*
X200000D03*
Y366750D03*
X220500Y225250D03*
Y230750D03*
X227000D03*
Y225250D03*
X212500Y366750D03*
Y372250D03*
X218500D03*
Y366750D03*
X267500Y85750D03*
Y91250D03*
Y110250D03*
Y104750D03*
Y129250D03*
Y123750D03*
Y143250D03*
Y137750D03*
Y156250D03*
Y150750D03*
Y169250D03*
Y163750D03*
X267000Y243250D03*
Y237750D03*
Y230250D03*
Y224750D03*
Y256250D03*
Y250750D03*
Y276250D03*
Y270750D03*
Y295250D03*
Y289750D03*
Y308750D03*
Y314250D03*
X284500Y132750D03*
Y127250D03*
X285000Y272750D03*
Y278250D03*
X297000Y112250D03*
Y106750D03*
Y164750D03*
Y159250D03*
X326000Y238750D03*
Y244250D03*
Y291250D03*
Y296750D03*
X348500Y112250D03*
Y106750D03*
Y164750D03*
Y159250D03*
X377500Y238750D03*
Y244250D03*
Y291250D03*
Y296750D03*
X400000Y112250D03*
Y106750D03*
X399500Y164750D03*
Y159250D03*
X428500Y238750D03*
Y244250D03*
X429000Y291250D03*
Y296750D03*
G54D25*
X97500Y87500D03*
X91500D03*
X124000D03*
X130000D03*
G54D62*
G01X319771Y14771D02*
X324500Y19500D01*
G01D02*
X329229Y24229D01*
G01X319771D02*
X324500Y19500D01*
G01D02*
X329229Y14771D01*
G01X319771Y34771D02*
X324500Y39500D01*
G01D02*
X329229Y44229D01*
G01X319771D02*
X324500Y39500D01*
G01D02*
X329229Y34771D01*
G01X319771Y359271D02*
X324500Y364000D01*
G01D02*
X329229Y368729D01*
G01X319771D02*
X324500Y364000D01*
G01D02*
X329229Y359271D01*
G01X319771Y379271D02*
X324500Y384000D01*
G01D02*
X329229Y388729D01*
G01X319771D02*
X324500Y384000D01*
G01D02*
X329229Y379271D01*
G01X373271Y14771D02*
X378000Y19500D01*
G01D02*
X382729Y24229D01*
G01X373271D02*
X378000Y19500D01*
G01D02*
X382729Y14771D01*
G01X373271Y34771D02*
X378000Y39500D01*
G01D02*
X382729Y44229D01*
G01X373271D02*
X378000Y39500D01*
G01D02*
X382729Y34771D01*
G01X373271Y359271D02*
X378000Y364000D01*
G01D02*
X382729Y368729D01*
G01X373271D02*
X378000Y364000D01*
G01D02*
X382729Y359271D01*
G01X373271Y379271D02*
X378000Y384000D01*
G01D02*
X382729Y388729D01*
G01X373271D02*
X378000Y384000D01*
G01D02*
X382729Y379271D01*
G01X426771Y14771D02*
X431500Y19500D01*
G01X426771Y24229D02*
X431500Y19500D01*
G01X426771Y34771D02*
X431500Y39500D01*
G01X426771Y44229D02*
X431500Y39500D01*
G01X426771Y359271D02*
X431500Y364000D01*
G01X426771Y368729D02*
X431500Y364000D01*
G01X426771Y379271D02*
X431500Y384000D01*
G01X426771Y388729D02*
X431500Y384000D01*
G01Y19500D02*
X436229Y24229D01*
G01X431500Y19500D02*
X436229Y14771D01*
G01X431500Y39500D02*
X436229Y44229D01*
G01X431500Y39500D02*
X436229Y34771D01*
G01X431500Y364000D02*
X436229Y368729D01*
G01X431500Y364000D02*
X436229Y359271D01*
G01X431500Y384000D02*
X436229Y388729D01*
G01X431500Y384000D02*
X436229Y379271D01*
G01X485819Y37369D02*
X491608Y43158D01*
G01D02*
X497397Y48947D01*
G01X485819D02*
X491608Y43158D01*
G01D02*
X497397Y37369D01*
G01X485819Y57053D02*
X491608Y62842D01*
G01D02*
X497397Y68631D01*
G01X485819D02*
X491608Y62842D01*
G01D02*
X497397Y57053D01*
G01X485819Y335869D02*
X491608Y341658D01*
G01D02*
X497397Y347447D01*
G01X485819D02*
X491608Y341658D01*
G01D02*
X497397Y335869D01*
G01X485819Y355553D02*
X491608Y361342D01*
G01D02*
X497397Y367131D01*
G01X485819D02*
X491608Y361342D01*
G01D02*
X497397Y355553D01*
G01X505503Y37369D02*
X511292Y43158D01*
G01D02*
X517081Y48947D01*
G01X505503D02*
X511292Y43158D01*
G01D02*
X517081Y37369D01*
G01X505503Y57053D02*
X511292Y62842D01*
G01D02*
X517081Y68631D01*
G01X505503D02*
X511292Y62842D01*
G01D02*
X517081Y57053D01*
G01X505503Y335869D02*
X511292Y341658D01*
G01D02*
X517081Y347447D01*
G01X505503D02*
X511292Y341658D01*
G01D02*
X517081Y335869D01*
G01X505503Y355553D02*
X511292Y361342D01*
G01D02*
X517081Y367131D01*
G01X505503D02*
X511292Y361342D01*
G01D02*
X517081Y355553D01*
G54D53*
G01X32250Y256750D02*
X18000Y242500D01*
G01X34000Y340250D02*
X20250D01*
X18000Y342500D01*
G01X34000Y334750D02*
X20250D01*
X18000Y332500D01*
G01X43250Y349500D02*
Y345750D01*
G01X40900Y338780D02*
X35470D01*
X34000Y340250D01*
G01X40900Y336220D02*
X35470D01*
X34000Y334750D01*
G01X79000Y223500D02*
Y214000D01*
G01X88000Y193146D02*
Y176000D01*
G01X120500Y287000D02*
X110000Y276500D01*
X91500D01*
X84651Y269651D01*
Y237849D01*
X85500Y237000D01*
G01X105854Y266401D02*
Y266646D01*
X103500Y269000D01*
X94000D01*
X91500Y266500D01*
G01X166000Y252250D02*
X165500D01*
X163000Y249750D01*
Y174500D01*
X116500Y128000D01*
Y80000D01*
X136500Y60000D01*
Y28000D01*
X129500Y21000D01*
G01X105750Y258500D02*
Y252627D01*
X105877Y252500D01*
G01D02*
Y245873D01*
X106000Y245750D01*
G01X105854Y265500D02*
Y258604D01*
X105750Y258500D01*
G01X112250D02*
X112146Y258604D01*
Y265500D01*
G01X112123Y252500D02*
Y255443D01*
X112250Y255570D01*
Y258500D01*
G01X112000Y245750D02*
X112123Y245873D01*
Y249000D01*
G01D02*
Y252500D01*
G01X105854Y265500D02*
Y266401D01*
G01X133000Y304000D02*
X128500Y299500D01*
X123000D01*
X105000Y281500D01*
G01X131000Y289877D02*
X130877Y290000D01*
X123500D01*
X120500Y287000D01*
G01X120000Y311250D02*
X122868D01*
X122972Y311354D01*
X126500D01*
G01X126396Y317250D02*
X120000D01*
G01X135750Y87500D02*
X130000D01*
G01X146000Y234000D02*
X143500Y231500D01*
X140500D01*
G01X126250Y265750D02*
X129000Y263000D01*
X142500D01*
X144854Y265354D01*
Y266500D01*
G01X142250Y248000D02*
Y251000D01*
G01Y254000D02*
X142750Y254500D01*
Y256750D01*
X144750Y258750D01*
Y260000D01*
G01X142250Y251000D02*
Y254000D01*
G01X139250Y260000D02*
X136000D01*
G01X144750Y286500D02*
X134377D01*
X131000Y289877D01*
G01X139146Y266500D02*
X135500D01*
G01D02*
X131750D01*
G01X144854Y277099D02*
Y278646D01*
X143250Y280250D01*
X128750D01*
X126250Y277750D01*
Y277000D01*
G01Y266500D02*
Y265750D01*
G01X133000Y305750D02*
Y304000D01*
G01X126250Y296500D02*
Y294750D01*
X127500Y293500D01*
X143500D01*
X144854Y294854D01*
Y296500D01*
G01X139490Y309581D02*
Y304910D01*
X139900Y304500D01*
G01X126500Y311354D02*
X132896D01*
X133000Y311250D01*
G01Y317250D02*
X126396D01*
G01X159000Y225250D02*
X157750D01*
X151000Y218500D01*
Y218000D01*
G01X146000Y234000D02*
Y243000D01*
X147500Y244500D01*
Y250000D01*
X149750Y252250D01*
X151000D01*
G01Y233750D02*
X146250D01*
X146000Y234000D01*
G01X151000Y246750D02*
Y240500D01*
G01X159000Y239250D02*
X156000Y242250D01*
Y250500D01*
X157750Y252250D01*
X159000D01*
G01Y225250D02*
X156000Y228250D01*
Y237500D01*
X157750Y239250D01*
X159000D01*
G01Y233750D02*
Y230500D01*
G01X151000Y228250D02*
Y224500D01*
G01X165000Y265354D02*
X163854D01*
X151000Y252500D01*
Y252250D01*
G01X165000Y259646D02*
X161146D01*
X154000Y252500D01*
Y249000D01*
X151750Y246750D01*
X151000D01*
G01X159000Y252250D02*
X163250Y256500D01*
X164500D01*
G01X144750Y283500D02*
Y286500D01*
G01X152000Y286000D02*
X154016Y288016D01*
G01X144854Y277000D02*
Y277099D01*
G01Y277000D02*
X150000D01*
X151500Y278500D01*
G01X158500Y284080D02*
X157080D01*
G01X154500Y281000D02*
Y281500D01*
X157080Y284080D01*
G01X144854Y290000D02*
X144750Y289896D01*
Y286500D01*
G01X156484Y288016D02*
X154016D01*
G01X144510Y313419D02*
Y318090D01*
X144100Y318500D01*
G01X182500Y76000D02*
X175750D01*
G01X205000Y88000D02*
X199500Y82500D01*
X194000D01*
X187500Y76000D01*
X182500D01*
G01X182377Y221000D02*
Y214373D01*
X182500Y214250D01*
G01X176000Y208750D02*
X179000D01*
G01D02*
X182500D01*
G01X181000Y250000D02*
Y248500D01*
X176950Y244450D01*
Y241500D01*
G01X173500Y253250D02*
Y253000D01*
X169500Y249000D01*
Y237500D01*
X169000Y237000D01*
Y236000D01*
G01X182050Y241500D02*
Y234304D01*
X182354Y234000D01*
G01D02*
Y227604D01*
X182250Y227500D01*
G01D02*
Y221127D01*
X182377Y221000D01*
G01X172500Y244000D02*
X173000Y244500D01*
Y247250D01*
X173500Y247750D01*
G01X178000Y384500D02*
Y369550D01*
X178050Y369500D01*
G01X192500Y349000D02*
X178050Y363450D01*
Y369500D01*
G01X190000Y66000D02*
Y75000D01*
X195500Y80500D01*
X202000D01*
X207000Y85500D01*
X208500D01*
G01X205000Y66000D02*
Y76000D01*
X208500Y79500D01*
G01X197500Y76000D02*
X201000D01*
X207500Y82500D01*
X214000D01*
X215548Y84048D01*
Y87300D01*
G01X217516D02*
Y83016D01*
X215000Y80500D01*
X209500D01*
X208500Y79500D01*
G01X209800Y91080D02*
X208080D01*
X205000Y88000D01*
G01X205500Y92500D02*
X206048Y93048D01*
X209800D01*
G01X195500Y219750D02*
X198500Y222750D01*
Y237500D01*
X196646Y239354D01*
X195500D01*
G01X189000Y233750D02*
X192500Y237250D01*
Y250500D01*
X190646Y252354D01*
X189000D01*
G01Y233750D02*
Y222500D01*
G01X195500Y246750D02*
Y239354D01*
G01X200600Y262900D02*
X200452Y263048D01*
G01X200450Y340000D02*
Y331050D01*
X201000Y330500D01*
G01X188000Y384500D02*
Y359000D01*
X197000Y350000D01*
Y345000D01*
X200450Y341550D01*
Y340000D01*
G01X205854Y347500D02*
Y353896D01*
X205750Y354000D01*
G01X205550Y340000D02*
X205450Y340100D01*
Y347096D01*
X205854Y347500D01*
G01X205750Y354000D02*
Y354873D01*
X200123Y360500D01*
G01D02*
Y365550D01*
X200000Y365673D01*
Y366750D01*
G01X206000Y372250D02*
X203000D01*
G01X200000D02*
X203000D01*
G01D02*
Y374500D01*
G01X198000Y384500D02*
X205000Y377500D01*
X220000D01*
X222000Y375500D01*
Y344450D01*
X217550Y340000D01*
G01X221452Y87300D02*
Y67452D01*
X220000Y66000D01*
G01X219484Y87300D02*
Y81984D01*
X213500Y76000D01*
X212500D01*
G01X208500Y85500D02*
X212380D01*
X213580Y86700D01*
Y87300D01*
G01X223420D02*
Y80080D01*
X227500Y76000D01*
G01X217500Y212500D02*
Y229000D01*
X219250Y230750D01*
X220500D01*
G01X220623Y237000D02*
Y239943D01*
X221250Y240570D01*
Y243500D01*
G01X220500Y230750D02*
Y233868D01*
X220623Y233991D01*
Y237000D01*
G01X260000Y181000D02*
Y192000D01*
X232680Y219320D01*
X231680D01*
X229500Y221500D01*
G01X212000Y265000D02*
X212500D01*
G01X221250Y243500D02*
Y251396D01*
X221146Y251500D01*
G01X224000Y281750D02*
X223638Y282112D01*
X216524D01*
G01X227500Y286048D02*
X216524D01*
G01Y280144D02*
X221756D01*
X222357Y279543D01*
G01X221500Y276700D02*
X220024Y278176D01*
X216524D01*
G01X221250Y294500D02*
X220670Y293920D01*
X216524D01*
G01Y288016D02*
X225516D01*
X226500Y289000D01*
G01X220250Y326500D02*
Y326250D01*
X217146Y323146D01*
Y320000D01*
G01X220250Y332500D02*
Y326500D01*
G01X238000Y344500D02*
X232000D01*
X220250Y332750D01*
Y332500D01*
G01X217550Y340000D02*
Y336050D01*
X212000Y330500D01*
G01X212646Y347500D02*
Y340196D01*
X212450Y340000D01*
G01X212646Y347500D02*
Y353896D01*
X212750Y354000D01*
G01X218377Y360500D02*
X212750Y354873D01*
Y354000D01*
G01X218377Y360500D02*
Y366627D01*
X218500Y366750D01*
G01Y372250D02*
X215500D01*
G01X212500D02*
X215500D01*
G01D02*
Y374500D01*
G01X263665Y181164D02*
Y191164D01*
X233094Y221735D01*
Y222734D01*
X230914Y224914D01*
G01X285000Y272750D02*
X284000Y271750D01*
Y222500D01*
X277000Y215500D01*
X245500D01*
X231500Y229500D01*
Y235500D01*
G01X285000Y278250D02*
X283250D01*
X282000Y277000D01*
Y223000D01*
X276500Y217500D01*
X246000D01*
X234500Y229000D01*
Y237500D01*
X233000Y239000D01*
X231500D01*
G01X271750Y328500D02*
X268600D01*
G01X280500Y131500D02*
X283250D01*
X284500Y132750D01*
G01Y127250D02*
X283250Y128500D01*
X281000D01*
X280500Y128000D01*
G01X335500Y213900D02*
Y217500D01*
G01Y221000D02*
Y227000D01*
G01X390500Y177000D02*
Y183000D01*
G01Y190100D02*
Y186500D01*
G54D26*
X100146Y265500D03*
X112146D03*
X117854D03*
X105854D03*
X139146Y266500D03*
Y277000D03*
Y290000D03*
Y296500D03*
X134146Y368500D03*
X139854D03*
X144854Y266500D03*
Y277000D03*
X162646Y301500D03*
X144854Y290000D03*
Y296500D03*
X159146Y308500D03*
X164854D03*
X182354Y234000D03*
X176646D03*
X168354Y301500D03*
X201646Y236500D03*
X207354D03*
X205854Y347500D03*
X200146D03*
X216354Y243500D03*
X210646D03*
X216354Y251500D03*
X210646D03*
X221146D03*
X226854D03*
X222854Y320000D03*
X217146D03*
X212646Y347500D03*
X218354D03*
X230146Y369500D03*
X235854D03*
X267854Y34500D03*
X262146D03*
G54D35*
X162050Y352500D03*
X177050D03*
G54D17*
X34000Y354950D03*
Y360050D03*
X96000Y198550D03*
Y193450D03*
X141500Y198550D03*
Y193450D03*
X198500Y46950D03*
X207000D03*
X198500Y52050D03*
X207000D03*
X215500Y46950D03*
X224000D03*
X215500Y52050D03*
X224000D03*
X232500Y46950D03*
X241000D03*
X232500Y52050D03*
X241000D03*
X251500Y364450D03*
Y369550D03*
X243000Y364450D03*
Y369550D03*
X260000Y364450D03*
Y369550D03*
G54D44*
X253130Y110500D03*
Y91500D03*
Y129500D03*
Y143500D03*
Y169500D03*
Y156500D03*
Y230500D03*
Y243500D03*
Y256500D03*
Y276500D03*
Y295500D03*
Y314500D03*
X261870Y110500D03*
Y91500D03*
Y129500D03*
Y143500D03*
Y169500D03*
Y156500D03*
Y230500D03*
Y243500D03*
Y256500D03*
Y276500D03*
Y295500D03*
Y314500D03*
G54D63*
G01X94580Y381080D02*
X98000Y384500D01*
G01D02*
X101420Y381080D01*
G54D54*
G01X13488Y282500D02*
X5500D01*
G01X13488Y297500D02*
X5500D01*
G01X13488Y292500D02*
X5500D01*
G01X13488Y302500D02*
X5500D01*
G01X178224Y338000D02*
X179500Y336724D01*
G01Y319000D02*
X182000Y316500D01*
G01X178457Y338233D02*
X178224Y338000D01*
G01X228000Y384500D02*
X230146Y382354D01*
Y369500D01*
G01X248000Y344500D02*
X251500Y348000D01*
Y364450D01*
G01X260000Y369550D02*
X251500D01*
G01X243000D02*
X235904D01*
X235854Y369500D01*
G01X243000Y369550D02*
X251500D01*
G01X238000Y384500D02*
X235854Y382354D01*
Y369500D01*
G01X269500Y21000D02*
Y29314D01*
X267854Y30960D01*
Y34500D01*
G01X259500Y21000D02*
Y28314D01*
X262146Y30960D01*
Y34500D01*
G01X262050Y42500D02*
X262146Y42404D01*
Y34500D01*
G01X262050Y42000D02*
Y42500D01*
G01D02*
Y50500D01*
G01D02*
Y59000D01*
G01X284250Y175500D02*
X289000D01*
G54D27*
X100123Y252500D03*
X105877D03*
X117877D03*
X112123D03*
X176623Y221000D03*
X182377D03*
X205877Y360500D03*
X200123D03*
X226377Y237000D03*
X220623D03*
X212623Y360500D03*
X218377D03*
G54D45*
X283500Y10750D03*
Y18250D03*
Y393750D03*
Y386250D03*
G54D18*
X48750Y349500D03*
X43250D03*
X80250Y87500D03*
X85750D03*
X100250Y258500D03*
X119750Y39000D03*
X105750Y258500D03*
X117750D03*
X112250D03*
X125250Y39000D03*
X141250Y87500D03*
X135750D03*
X142250Y248000D03*
X136750D03*
X139250Y260000D03*
X136750Y254000D03*
X142250D03*
X139250Y283500D03*
X126250Y266500D03*
X131750D03*
Y277000D03*
X126250D03*
X131750Y296500D03*
X126250D03*
X144750Y260000D03*
Y283500D03*
X175750Y76000D03*
X170250D03*
X176750Y227500D03*
X182250D03*
X191250Y121000D03*
X196750D03*
X200250Y354000D03*
X205750D03*
X226750Y243500D03*
X221250D03*
X225750Y326500D03*
X220250D03*
Y332500D03*
X225750D03*
X218250Y354000D03*
X212750D03*
X271750Y64500D03*
X254750Y79000D03*
X260250D03*
X254750Y85000D03*
X260250D03*
X254750Y98000D03*
X260250D03*
X254750Y104000D03*
X260250D03*
X254750Y117000D03*
X260250D03*
X254750Y123000D03*
X260250D03*
X254750Y137000D03*
X260250D03*
X254750Y150000D03*
X260250D03*
X254750Y163000D03*
X260250D03*
X254750Y237000D03*
X260250D03*
X254750Y224000D03*
X260250D03*
X254750Y264000D03*
X260250D03*
X254750Y250000D03*
X260250D03*
X254750Y283000D03*
X260250D03*
X254750Y270000D03*
X260250D03*
X254750Y302000D03*
X260250D03*
X254750Y289000D03*
X260250D03*
X254750Y308000D03*
X260250D03*
X271750Y328500D03*
X277250Y64500D03*
X284250Y175500D03*
X278750D03*
X277250Y328500D03*
G54D36*
G01X18000Y352500D02*
X31550D01*
X34000Y354950D01*
G01X18000Y362500D02*
X31550D01*
X34000Y360050D01*
G01X48750Y349500D02*
X52500D01*
G01X76130Y299500D02*
Y286060D01*
G01Y312440D02*
Y299500D01*
G01X58500Y340354D02*
X61854D01*
X62000Y340500D01*
G01X97500Y87500D02*
X101500D01*
G01X95870Y112000D02*
Y98560D01*
G01Y124940D02*
Y112000D01*
G01X88000Y198854D02*
Y202500D01*
G01X91870Y286060D02*
Y312440D01*
G01X124000Y87500D02*
X120000D01*
G01X100146Y262000D02*
Y265500D01*
G01X100250Y258500D02*
Y259000D01*
X100146Y259104D01*
Y262000D01*
G01X117854Y265500D02*
Y262000D01*
G01D02*
X117750Y261896D01*
Y258500D01*
G01X118000Y249000D02*
Y245750D01*
G01X117877Y252500D02*
Y249123D01*
X118000Y249000D01*
G01X100000Y249250D02*
Y252377D01*
X100123Y252500D01*
G01X100000Y245750D02*
Y249250D01*
G01X120000Y305750D02*
Y302500D01*
G01X126500Y322854D02*
X126396Y322750D01*
X120000D01*
G01D02*
X116500D01*
G01Y355500D02*
Y364550D01*
X120450Y368500D01*
G01X125250Y39000D02*
Y43500D01*
G01X125630Y112000D02*
Y98560D01*
G01Y124940D02*
Y112000D01*
G01X133500Y198854D02*
Y202500D01*
G01X136750Y254000D02*
X133500D01*
G01X136750Y248000D02*
X133500D01*
G01X139250Y283500D02*
X136000D01*
G01X139146Y277000D02*
X135500D01*
G01D02*
X131750D01*
G01X126500Y283500D02*
X130377D01*
X131000Y284123D01*
G01X139146Y290000D02*
X136000D01*
G01X139146Y296500D02*
X135500D01*
G01D02*
X131750D01*
G01X126500Y305646D02*
Y302500D01*
G01X139900Y318500D02*
X137000D01*
G01X139490Y313419D02*
Y318090D01*
X139900Y318500D01*
G01X159000Y219750D02*
Y216500D01*
G01Y246750D02*
Y243250D01*
G01X144100Y304500D02*
X147000D01*
G01X144100D02*
X144510Y304910D01*
Y309581D01*
G01X170250Y76000D02*
X166500D01*
G01X187000Y91445D02*
X179945D01*
X178000Y89500D01*
G01X196000Y91854D02*
X187409D01*
X187000Y91445D01*
G01X184000Y132250D02*
X181750D01*
X171000Y121500D01*
Y121000D01*
G01D02*
X178250D01*
X184000Y115250D01*
G01X176000Y214250D02*
Y217500D01*
G01D02*
Y220377D01*
X176623Y221000D01*
G01X176646Y234000D02*
Y230500D01*
G01D02*
Y227604D01*
X176750Y227500D01*
G01X166000Y246750D02*
Y243000D01*
G01X171500Y301501D02*
X171499Y301500D01*
X168354D01*
G01X192000Y85500D02*
X191055Y84555D01*
X187000D01*
G01X196000Y86146D02*
X192646D01*
X192000Y85500D01*
G01X191500Y103945D02*
X187000D01*
G01X196000D02*
X191500D01*
G01X196000Y97055D02*
X201445D01*
X203484Y95016D01*
G01X196000Y97055D02*
X191500D01*
G01D02*
X187000D01*
G01X196000Y91854D02*
X204854D01*
X205500Y92500D01*
G01X197000Y115354D02*
X193500D01*
G01D02*
X190604D01*
X190500Y115250D01*
G01D02*
Y120250D01*
X191250Y121000D01*
G01X190500Y132250D02*
X193500D01*
G01D02*
X196896D01*
X197000Y132354D01*
G01X189000Y208623D02*
Y205000D01*
G01Y239250D02*
Y243000D01*
G01X202000Y241500D02*
Y246646D01*
G01X201646Y236500D02*
Y240500D01*
X202000Y240854D01*
Y241500D01*
G01Y252354D02*
X202646D01*
X206000Y249000D01*
Y240000D01*
X207354Y238646D01*
Y236500D01*
G01X211000Y259000D02*
X227500D01*
X249130Y237370D01*
Y234500D01*
X253130Y230500D01*
G01X189000Y243000D02*
Y246646D01*
G01X202000Y252354D02*
X201988Y252573D01*
Y254112D01*
X200000Y256100D01*
G01X203500Y258000D02*
X207000Y254500D01*
Y254000D01*
G01D02*
X207500D01*
X210000Y251500D01*
X210646D01*
G01X211500Y262000D02*
X228630D01*
X247130Y243500D01*
X253130D01*
G01X200146Y347500D02*
Y351000D01*
G01D02*
Y353896D01*
X200250Y354000D01*
G01X234555Y86500D02*
X231500D01*
X228000Y90000D01*
G01X253130Y122000D02*
X251130Y120000D01*
X219000D01*
X217000Y118000D01*
Y111000D01*
G01X221555Y115000D02*
Y113610D01*
X220000Y112055D01*
Y110000D01*
G01X214000Y114000D02*
Y110000D01*
G01X212000Y107500D02*
X210585Y108915D01*
Y116085D01*
X246000Y151500D01*
Y157000D01*
X252000Y163000D01*
X254750D01*
G01X253130Y91500D02*
X232500D01*
G01X241500Y95000D02*
X241000Y94500D01*
X233500D01*
G01X253130Y110500D02*
X250130Y107500D01*
X231000D01*
X227200Y103700D01*
Y101700D01*
G01X234555Y103000D02*
X232000Y100445D01*
Y100000D01*
G01X245000Y110500D02*
X230000D01*
X225000Y105500D01*
G01X232501Y117000D02*
X230501Y115000D01*
X228445D01*
G01X227000Y230750D02*
Y234000D01*
G01X226377Y237000D02*
X227003Y236374D01*
Y235512D01*
G01X227012D02*
X227003D01*
G01D02*
Y234253D01*
X227000Y234250D01*
Y234000D01*
G01X212500Y265000D02*
X229756D01*
X238256Y256500D01*
X253130D01*
G01X216500Y247500D02*
Y251354D01*
X216354Y251500D01*
G01Y243500D02*
Y247354D01*
X216500Y247500D01*
G01X227000D02*
Y251354D01*
X226854Y251500D01*
G01X226750Y243500D02*
X227000Y243750D01*
Y247500D01*
G01X210646Y251500D02*
Y243500D01*
G01X253130Y276500D02*
X251630Y278000D01*
X227750D01*
X224000Y281750D01*
G01X241500Y283500D02*
Y286085D01*
X240085Y287500D01*
X230500D01*
X229048Y286048D01*
X227500D01*
G01X234555Y283000D02*
X226800D01*
X226250Y283550D01*
G01X222357Y279543D02*
X226650Y275250D01*
X238751D01*
X241445Y272556D01*
Y270500D01*
G01X234555D02*
X227500D01*
X221500Y276500D01*
G01X254750Y308000D02*
X250000D01*
X245000Y303000D01*
X229750D01*
X221250Y294500D01*
G01X227500Y289000D02*
X229000Y290500D01*
X253250D01*
X254750Y289000D01*
G01X241445Y295500D02*
Y298056D01*
X239201Y300300D01*
X230800D01*
X223000Y292500D01*
G01X234555Y295500D02*
X230000D01*
X226000Y291500D01*
G01X222854Y320000D02*
X226500D01*
G01X218354Y347500D02*
Y351000D01*
G01D02*
Y353896D01*
X218250Y354000D01*
G01X225750Y332500D02*
X236000D01*
X248000Y344500D01*
G01X241445Y86500D02*
X245000D01*
G01D02*
X252500Y79000D01*
X254750D01*
G01X241445Y103000D02*
X245000D01*
G01D02*
X250000Y98000D01*
X254750D01*
G01Y117000D02*
X232501D01*
G01X254750Y137000D02*
X251500D01*
G01Y150000D02*
X254750D01*
G01X241445Y270500D02*
X245501D01*
X252001Y264000D01*
X254750D01*
G01Y283000D02*
X242000D01*
X241500Y283500D01*
G01X241445Y283000D02*
Y283445D01*
X241500Y283500D01*
G01X254750Y302000D02*
X247945D01*
X241445Y295500D01*
G01X268000Y72000D02*
X271950D01*
G01X263500Y79000D02*
X260250D01*
G01X270500Y86000D02*
X267750D01*
X267500Y85750D01*
G01X260250Y85000D02*
X266750D01*
X267500Y85750D01*
G01X253130Y91500D02*
Y86620D01*
X254750Y85000D01*
G01X260250Y98000D02*
X263500D01*
G01X271000Y104750D02*
X267500D01*
G01X260250Y104000D02*
X266750D01*
X267500Y104750D01*
G01X261870Y91500D02*
X267250D01*
X267500Y91250D01*
G01X261870Y110500D02*
X267250D01*
X267500Y110250D01*
G01X253130Y110500D02*
Y105620D01*
X254750Y104000D01*
G01X253130Y129500D02*
Y122000D01*
G01X254750Y123000D02*
X254130D01*
X253130Y122000D01*
G01X263500Y117000D02*
X260250D01*
G01Y123000D02*
X266750D01*
X267500Y123750D01*
G01X297000Y106750D02*
X288250D01*
X271250Y123750D01*
X267500D01*
G01X261870Y129500D02*
X267250D01*
X267500Y129250D01*
G01X260250Y137000D02*
X266750D01*
X267500Y137750D01*
G01X282000Y151500D02*
Y151000D01*
X268750Y137750D01*
X267500D01*
G01X261870Y143500D02*
X267250D01*
X267500Y143250D01*
G01X260250Y150000D02*
X266750D01*
X267500Y150750D01*
G01X282000Y158911D02*
X273839Y150750D01*
X267500D01*
G01X253130Y143500D02*
Y138620D01*
X254750Y137000D01*
G01X253130Y156500D02*
Y151620D01*
X254750Y150000D01*
G01X253130Y169500D02*
Y164620D01*
X254750Y163000D01*
G01X261870Y156500D02*
X267250D01*
X267500Y156250D01*
G01X261870Y169500D02*
X267250D01*
X267500Y169250D01*
G01Y163750D02*
X266750Y163000D01*
X260250D01*
G01X297000Y159250D02*
X288250D01*
X283750Y163750D01*
X267500D01*
G01X253130Y230500D02*
Y225620D01*
X254750Y224000D01*
G01X253130Y243500D02*
Y238620D01*
X254750Y237000D01*
G01X260250D02*
X266250D01*
X267000Y237750D01*
G01D02*
X270250D01*
X270500Y238000D01*
G01X267000Y243250D02*
X262120D01*
X261870Y243500D01*
G01X267000Y230250D02*
X262120D01*
X261870Y230500D01*
G01X267000Y224750D02*
X270000D01*
G01X260250Y224000D02*
X266250D01*
X267000Y224750D01*
G01X253130Y256500D02*
X254750Y254880D01*
Y250000D01*
G01X267000Y256250D02*
X262120D01*
X261870Y256500D01*
G01X267000Y250750D02*
X266500Y250250D01*
G01D02*
X266250Y250000D01*
X260250D01*
G01X288500Y290500D02*
X286000D01*
X274000Y278500D01*
Y269500D01*
X268500Y264000D01*
X260250D01*
G01X253130Y276500D02*
X254750Y274880D01*
Y270000D01*
G01X267000Y270750D02*
X261000D01*
X260250Y270000D01*
G01X270500Y271000D02*
X270000D01*
X269750Y270750D01*
X267000D01*
G01Y276250D02*
X262120D01*
X261870Y276500D01*
G01X260250Y283000D02*
X264000D01*
G01X253130Y314500D02*
X254750Y312880D01*
Y308000D01*
G01Y289000D02*
Y293880D01*
X253130Y295500D01*
G01X267000Y295250D02*
X262120D01*
X261870Y295500D01*
G01X267000Y289750D02*
X261000D01*
X260250Y289000D01*
G01X270500Y290000D02*
X270000D01*
X269750Y289750D01*
X267000D01*
G01X260250Y308000D02*
X261000Y308750D01*
X267000D01*
G01Y314250D02*
X266750Y314500D01*
X261870D01*
G01X283500Y10750D02*
X279250D01*
G01X283500Y24555D02*
Y18250D01*
G01X283555Y39500D02*
Y31500D01*
X283500Y31445D01*
G01X283555Y366000D02*
Y373500D01*
X283500Y373555D01*
G01Y393750D02*
Y397500D01*
G01Y380445D02*
Y386250D01*
G01X304000Y106411D02*
X297339D01*
X297000Y106750D01*
G01X304000Y158911D02*
X297339D01*
X297000Y159250D01*
G01X322500Y244500D02*
X322411Y244589D01*
X319000D01*
G01X326000Y244250D02*
X325661Y244589D01*
X322589D01*
X322500Y244500D01*
G01X326000Y296750D02*
X325790Y296960D01*
X322960D01*
X322500Y296500D01*
G01D02*
X321911Y297089D01*
X319000D01*
G01X355500Y106411D02*
X352000D01*
G01D02*
X348839D01*
X348500Y106750D01*
G01X355500Y158911D02*
X352000D01*
G01D02*
X348839D01*
X348500Y159250D01*
G01X370500Y244589D02*
X374000D01*
G01D02*
X377161D01*
X377500Y244250D01*
G01Y296750D02*
X377290Y296960D01*
X374460D01*
X374000Y296500D01*
G01D02*
X373411Y297089D01*
X370500D01*
G01X407000Y106411D02*
X403500D01*
G01D02*
X400339D01*
X400000Y106750D01*
G01X406500Y158911D02*
X403000D01*
G01D02*
X399839D01*
X399500Y159250D01*
G01X421500Y244589D02*
X425000D01*
G01D02*
X428161D01*
X428500Y244250D01*
G01X422000Y297089D02*
X425500D01*
G01D02*
X428661D01*
X429000Y296750D01*
X178200Y269700D03*
X216800Y308300D03*
G54D64*
G01X531500Y0D02*
Y405512D01*
X0D01*
Y0D01*
X531500D01*
G54D55*
G01X78000Y384500D02*
X77450Y383950D01*
Y368500D01*
G01X88000Y384500D02*
Y370950D01*
X90450Y368500D01*
G01X82550D02*
X90450D01*
G01X98000Y384500D02*
Y370950D01*
G01X108000Y384500D02*
X108550Y383950D01*
Y368500D01*
G01X118000Y384500D02*
Y370950D01*
X120450Y368500D01*
G01X125550D02*
Y363950D01*
X124500Y362900D01*
Y340000D01*
X131500Y333000D01*
X142000D01*
G01X128000Y384500D02*
Y370950D01*
X125550Y368500D01*
G01X148000Y384500D02*
Y368500D01*
G01X260000Y364450D02*
X260050Y364500D01*
X265500D01*
X276500Y375500D01*
Y387500D01*
X272500Y391500D01*
X155000D01*
X148000Y384500D01*
G01X177050Y352500D02*
X178457Y351093D01*
Y338233D01*
G54D19*
X40900Y333660D03*
Y336220D03*
Y338780D03*
Y341340D03*
X51100D03*
Y333660D03*
Y338780D03*
Y336220D03*
G54D46*
X314000Y84589D03*
X309000D03*
X304000D03*
Y106411D03*
X309000D03*
X314000D03*
Y137089D03*
X309000D03*
X304000D03*
Y158911D03*
X309000D03*
X314000D03*
Y244589D03*
X309000D03*
X304000D03*
Y266411D03*
X309000D03*
X314000D03*
Y297089D03*
X309000D03*
X304000D03*
Y318911D03*
X309000D03*
X314000D03*
X319000Y84589D03*
Y106411D03*
Y137089D03*
Y158911D03*
Y244589D03*
Y266411D03*
Y297089D03*
Y318911D03*
X360500Y84589D03*
X355500D03*
Y106411D03*
X360500D03*
Y137089D03*
X355500D03*
Y158911D03*
X360500D03*
Y244589D03*
X355500D03*
Y266411D03*
X360500D03*
Y297089D03*
X355500D03*
Y318911D03*
X360500D03*
X370500Y84589D03*
X365500D03*
Y106411D03*
X370500D03*
Y137089D03*
X365500D03*
Y158911D03*
X370500D03*
Y244589D03*
X365500D03*
Y266411D03*
X370500D03*
Y297089D03*
X365500D03*
Y318911D03*
X370500D03*
X422000Y84589D03*
X417000D03*
X412000D03*
X407000D03*
Y106411D03*
X412000D03*
X417000D03*
X422000D03*
X421500Y137089D03*
X416500D03*
X411500D03*
X406500D03*
Y158911D03*
X411500D03*
X416500D03*
X421500D03*
Y244589D03*
X416500D03*
X411500D03*
X406500D03*
Y266411D03*
X411500D03*
X416500D03*
X421500D03*
X422000Y297089D03*
X417000D03*
X412000D03*
X407000D03*
Y318911D03*
X412000D03*
X417000D03*
X422000D03*
G54D37*
X184708Y269976D03*
X182740D03*
Y308024D03*
X184708D03*
X208324Y269976D03*
X206356D03*
X204388D03*
X202420D03*
X200452D03*
X198484D03*
X196516D03*
X194548D03*
X192580D03*
X190612D03*
X188644D03*
X186676D03*
Y308024D03*
X188644D03*
X190612D03*
X192580D03*
X194548D03*
X196516D03*
X198484D03*
X200452D03*
X202420D03*
X204388D03*
X206356D03*
X208324D03*
X212260Y269976D03*
X210292D03*
Y308024D03*
X212260D03*
G54D28*
X124500Y235500D03*
X163500Y368500D03*
X175000Y66000D03*
X168000Y202000D03*
G54D65*
G01X3347Y-32181D02*
X1509D01*
Y-28638D01*
X3347D01*
G01X2612Y-30350D02*
X1509D01*
G01X4627Y-28638D02*
X5775Y-32181D01*
X6923Y-28638D01*
G01X8157Y-31709D02*
X8525Y-32004D01*
X8938Y-32181D01*
X9306D01*
X9673Y-32004D01*
X9949Y-31709D01*
X10087Y-31295D01*
X9995Y-30882D01*
X9765Y-30528D01*
X9352Y-30291D01*
X8800Y-30173D01*
X8479Y-29937D01*
X8341Y-29524D01*
X8433Y-29110D01*
X8663Y-28815D01*
X8984Y-28638D01*
X9306D01*
X9627Y-28756D01*
X9903Y-29051D01*
G01X11550Y-32181D02*
Y-28638D01*
X12653D01*
X13020Y-28815D01*
X13296Y-29228D01*
X13388Y-29701D01*
X13296Y-30173D01*
X13066Y-30528D01*
X12653Y-30705D01*
X11550D01*
G01X15265Y-28638D02*
X16367D01*
G01X15816D02*
Y-32181D01*
G01X15265D02*
X16367D01*
G01X18107D02*
Y-28638D01*
X20219Y-32181D01*
Y-28638D01*
G01X21499Y-31472D02*
X21775Y-31886D01*
X22142Y-32122D01*
X22556Y-32181D01*
X22923Y-32122D01*
X23291Y-31827D01*
X23521Y-31472D01*
X23566Y-31118D01*
X23475Y-30705D01*
X23153Y-30410D01*
X22832Y-30291D01*
X22418D01*
G01X22832D02*
X23107Y-30114D01*
X23337Y-29819D01*
X23429Y-29465D01*
X23337Y-29110D01*
X23107Y-28815D01*
X22694Y-28638D01*
X22280Y-28697D01*
X21867Y-28933D01*
G01X24984Y-29228D02*
X25260Y-28874D01*
X25581Y-28697D01*
X25949Y-28638D01*
X26408Y-28756D01*
X26730Y-29051D01*
X26822Y-29406D01*
X26776Y-29760D01*
X26592Y-30055D01*
X25673Y-30646D01*
X25260Y-31059D01*
X24984Y-31650D01*
X24892Y-32181D01*
X26822D01*
G01X29480Y-30410D02*
X30398D01*
Y-31472D01*
X30123Y-31827D01*
X29801Y-32063D01*
X29342Y-32181D01*
X28882Y-32063D01*
X28561Y-31827D01*
X28285Y-31472D01*
X28102Y-31059D01*
X28010Y-30587D01*
Y-30173D01*
X28102Y-29819D01*
X28285Y-29406D01*
X28561Y-29051D01*
X28836Y-28815D01*
X29204Y-28638D01*
X29526D01*
X29893Y-28756D01*
X30169Y-28992D01*
G01X33102Y-32181D02*
Y-28638D01*
X31403Y-31177D01*
X33699D01*
G01X35301Y-31000D02*
X36495D01*
G01X38234Y-32181D02*
Y-28638D01*
X39153D01*
X39521Y-28815D01*
X39796Y-29051D01*
X40026Y-29406D01*
X40210Y-29819D01*
X40256Y-30410D01*
X40210Y-31000D01*
X40026Y-31413D01*
X39796Y-31768D01*
X39521Y-32004D01*
X39153Y-32181D01*
X38234D01*
G01X41581Y-28638D02*
Y-31177D01*
X41765Y-31709D01*
X42133Y-32063D01*
X42592Y-32181D01*
X43051Y-32063D01*
X43419Y-31709D01*
X43603Y-31177D01*
Y-28638D01*
G01X44791Y-32181D02*
X45939Y-28638D01*
X47087Y-32181D01*
G01X46674Y-30941D02*
X45204D01*
G01X48367Y-28638D02*
Y-32181D01*
X50205D01*
G01X55061D02*
Y-28638D01*
X56210D01*
X56577Y-28815D01*
X56807Y-29051D01*
X56899Y-29524D01*
X56807Y-29996D01*
X56531Y-30291D01*
X56210Y-30469D01*
X55061D01*
G01X56210D02*
X56899Y-32181D01*
G01X62674D02*
Y-28638D01*
X62123Y-29347D01*
G01Y-32181D02*
X63225D01*
G01X69368Y-28638D02*
Y-32181D01*
G01X68312Y-28638D02*
X70424D01*
G01X72715Y-32181D02*
X72347Y-32122D01*
X72026Y-31886D01*
X71750Y-31531D01*
X71567Y-31118D01*
X71475Y-30646D01*
Y-30173D01*
X71567Y-29701D01*
X71750Y-29288D01*
X72026Y-28933D01*
X72347Y-28697D01*
X72715Y-28638D01*
X73082Y-28697D01*
X73404Y-28933D01*
X73680Y-29288D01*
X73863Y-29701D01*
X73955Y-30173D01*
Y-30646D01*
X73863Y-31118D01*
X73680Y-31531D01*
X73404Y-31886D01*
X73082Y-32122D01*
X72715Y-32181D01*
G01X75143D02*
Y-28638D01*
X76246D01*
X76613Y-28815D01*
X76889Y-29228D01*
X76981Y-29701D01*
X76889Y-30173D01*
X76659Y-30528D01*
X76246Y-30705D01*
X75143D01*
G01X86103Y-32181D02*
Y-28638D01*
X85552Y-29347D01*
G01Y-32181D02*
X86654D01*
G01X88577Y-29228D02*
X88853Y-28874D01*
X89174Y-28697D01*
X89542Y-28638D01*
X90001Y-28756D01*
X90323Y-29051D01*
X90415Y-29406D01*
X90369Y-29760D01*
X90185Y-30055D01*
X89266Y-30646D01*
X88853Y-31059D01*
X88577Y-31650D01*
X88485Y-32181D01*
X90415D01*
G01X92200Y-31000D02*
X93394D01*
G01X95225Y-31472D02*
X95455Y-31827D01*
X95731Y-32063D01*
X96052Y-32181D01*
X96420Y-32063D01*
X96695Y-31827D01*
X96971Y-31472D01*
X97063Y-31000D01*
Y-28638D01*
G01X100318Y-32181D02*
Y-29819D01*
G01Y-30232D02*
X100134Y-29996D01*
X99858Y-29878D01*
X99537Y-29819D01*
X99215Y-29937D01*
X98940Y-30173D01*
X98756Y-30528D01*
X98664Y-31000D01*
X98756Y-31472D01*
X98940Y-31827D01*
X99215Y-32063D01*
X99537Y-32181D01*
X99858Y-32122D01*
X100134Y-31945D01*
X100318Y-31709D01*
G01X102057Y-32181D02*
Y-29819D01*
G01Y-30410D02*
X102241Y-30114D01*
X102516Y-29878D01*
X102884Y-29819D01*
X103205Y-29878D01*
X103481Y-30114D01*
X103619Y-30528D01*
Y-32181D01*
G01X105588Y-31000D02*
X106782D01*
G01X108659Y-29228D02*
X108935Y-28874D01*
X109256Y-28697D01*
X109624Y-28638D01*
X110083Y-28756D01*
X110405Y-29051D01*
X110497Y-29406D01*
X110451Y-29760D01*
X110267Y-30055D01*
X109348Y-30646D01*
X108935Y-31059D01*
X108659Y-31650D01*
X108567Y-32181D01*
X110497D01*
G01X112879Y-28638D02*
X112511Y-28756D01*
X112236Y-29051D01*
X112052Y-29406D01*
X111914Y-29878D01*
X111868Y-30410D01*
X111914Y-30941D01*
X112052Y-31413D01*
X112236Y-31768D01*
X112511Y-32063D01*
X112879Y-32181D01*
X113246Y-32063D01*
X113522Y-31768D01*
X113706Y-31413D01*
X113844Y-30941D01*
X113890Y-30410D01*
X113844Y-29878D01*
X113706Y-29406D01*
X113522Y-29051D01*
X113246Y-28756D01*
X112879Y-28638D01*
G01X115353Y-29228D02*
X115629Y-28874D01*
X115950Y-28697D01*
X116318Y-28638D01*
X116777Y-28756D01*
X117099Y-29051D01*
X117191Y-29406D01*
X117145Y-29760D01*
X116961Y-30055D01*
X116042Y-30646D01*
X115629Y-31059D01*
X115353Y-31650D01*
X115261Y-32181D01*
X117191D01*
G01X118700Y-29228D02*
X118976Y-28874D01*
X119297Y-28697D01*
X119665Y-28638D01*
X120124Y-28756D01*
X120446Y-29051D01*
X120538Y-29406D01*
X120492Y-29760D01*
X120308Y-30055D01*
X119389Y-30646D01*
X118976Y-31059D01*
X118700Y-31650D01*
X118608Y-32181D01*
X120538D01*
G01X128695D02*
Y-28638D01*
X129844D01*
X130211Y-28815D01*
X130441Y-29051D01*
X130533Y-29524D01*
X130441Y-29996D01*
X130165Y-30291D01*
X129844Y-30469D01*
X128695D01*
G01X129844D02*
X130533Y-32181D01*
G01X132961Y-29819D02*
Y-32181D01*
G01Y-28874D02*
X132869Y-28815D01*
Y-28697D01*
X132961Y-28638D01*
X133053Y-28697D01*
Y-28815D01*
X132961Y-28874D01*
G01X135665Y-33067D02*
X135986Y-33303D01*
X136354Y-33362D01*
X136675Y-33303D01*
X136951Y-33008D01*
X137135Y-32594D01*
Y-29819D01*
G01Y-30291D02*
X136951Y-30055D01*
X136675Y-29878D01*
X136354Y-29819D01*
X135986Y-29937D01*
X135757Y-30173D01*
X135573Y-30587D01*
X135481Y-31000D01*
X135527Y-31354D01*
X135711Y-31768D01*
X135986Y-32063D01*
X136354Y-32181D01*
X136630Y-32122D01*
X136951Y-31886D01*
X137135Y-31650D01*
G01X139655Y-32181D02*
X139379Y-32122D01*
X139104Y-31886D01*
X138920Y-31472D01*
X138828Y-31000D01*
X138920Y-30528D01*
X139104Y-30114D01*
X139379Y-29878D01*
X139655Y-29819D01*
X139931Y-29878D01*
X140206Y-30114D01*
X140390Y-30528D01*
X140436Y-31000D01*
X140390Y-31472D01*
X140206Y-31886D01*
X139931Y-32122D01*
X139655Y-32181D01*
G01X46500Y2729D02*
Y6272D01*
X45949Y5563D01*
G01Y2729D02*
X47051D01*
G54D56*
G01X209800Y96984D02*
X205016D01*
X201000Y101000D01*
Y107000D01*
X198354Y109646D01*
X197000D01*
G01X203484Y95016D02*
X209800D01*
G01Y98952D02*
X206048D01*
X203000Y102000D01*
Y108000D01*
X200500Y110500D01*
Y117250D01*
X196750Y121000D01*
G01X209800Y100920D02*
X207080D01*
X205000Y103000D01*
Y109000D01*
X202500Y111500D01*
Y121146D01*
X197000Y126646D01*
G01X228000Y90000D02*
Y90280D01*
X227200Y91080D01*
G01X217000Y111000D02*
X217516Y110484D01*
Y104700D01*
G01X220000Y110000D02*
X219484Y109484D01*
Y104700D01*
G01X214000Y110000D02*
X215548Y108452D01*
Y104700D01*
G01X213580D02*
Y105920D01*
X212000Y107500D01*
G01X232500Y91500D02*
X230952Y93048D01*
X227200D01*
G01X233500Y94500D02*
X232984Y95016D01*
X227200D01*
G01Y96984D02*
X233484D01*
X234000Y97500D01*
G01X227200Y101700D02*
Y100920D01*
G01X232000Y100000D02*
X230952Y98952D01*
X227200D01*
G01X225000Y105500D02*
X224200Y104700D01*
X223420D01*
G01X224000Y109500D02*
X223000D01*
X221452Y107952D01*
Y104700D01*
G54D29*
X131000Y284123D03*
Y289877D03*
X189000Y208623D03*
Y214377D03*
G54D38*
X178476Y274240D03*
Y276208D03*
Y278176D03*
Y280144D03*
Y282112D03*
Y284080D03*
Y286048D03*
Y288016D03*
Y289984D03*
Y291952D03*
Y293920D03*
Y295888D03*
Y297856D03*
Y299824D03*
Y301792D03*
Y303760D03*
X216524Y286048D03*
Y284080D03*
Y282112D03*
Y280144D03*
Y278176D03*
Y276208D03*
Y274240D03*
Y303760D03*
Y301792D03*
Y299824D03*
Y297856D03*
Y295888D03*
Y293920D03*
Y291952D03*
Y289984D03*
Y288016D03*
G54D47*
X324500Y19500D03*
Y39500D03*
Y364000D03*
Y384000D03*
X378000Y19500D03*
Y39500D03*
Y364000D03*
Y384000D03*
X431500Y19500D03*
Y39500D03*
Y364000D03*
Y384000D03*
G54D66*
G01X253500Y43000D02*
X254000D01*
X255000Y42000D01*
X256950D01*
G01X412000Y106411D02*
X414411D01*
X414500Y106500D01*
G54D57*
G01X30000Y98625D02*
X30125D01*
X44500Y113000D01*
Y295500D01*
X42750Y297250D01*
G01X30000Y108625D02*
X30125D01*
X42000Y120500D01*
Y293000D01*
X41250Y293750D01*
G01X38500Y291000D02*
X39500Y290000D01*
Y138000D01*
X30125Y128625D01*
X30000D01*
G01X36500Y271500D02*
X37000Y271000D01*
Y145500D01*
X30125Y138625D01*
X30000D01*
G01X13488Y277500D02*
X12500Y276512D01*
Y248000D01*
X18000Y242500D01*
G01Y252500D02*
X29500Y264000D01*
X31012D01*
G01X32000D02*
X31012D01*
G01X29512Y277500D02*
Y265500D01*
X31012Y264000D01*
G01X29512Y282500D02*
X35000D01*
X37000Y280500D01*
Y272000D01*
X36500Y271500D01*
G01X29512Y302500D02*
X37500D01*
X42750Y297250D01*
G01X29512Y297500D02*
X37500D01*
X41250Y293750D01*
G01X29512Y292500D02*
X37000D01*
X38500Y291000D01*
G01X105500Y37500D02*
X54500Y88500D01*
Y299000D01*
X51000Y302500D01*
G01X98000Y40500D02*
X52000Y86500D01*
Y296000D01*
X48250Y299750D01*
X48000D01*
G01Y295500D02*
Y107500D01*
X49000Y106500D01*
G01X113000Y31000D02*
Y34500D01*
X57250Y90250D01*
Y301750D01*
X53750Y305250D01*
G01X43250Y345750D02*
X40900Y343400D01*
Y341340D01*
G01X43250Y345750D02*
X43500Y346000D01*
X65500D01*
X68500Y343000D01*
G01X54500Y343101D02*
X52601D01*
X51100Y341600D01*
Y341340D01*
G01X54500Y332000D02*
X53000D01*
X51340Y333660D01*
X51100D01*
G01X116000Y34000D02*
Y35500D01*
X60000Y91500D01*
Y304500D01*
X56500Y308000D01*
G01X89000Y72500D02*
X65750Y95750D01*
Y310250D01*
X62250Y313750D01*
G01X78000Y79000D02*
X77000D01*
X62750Y93250D01*
Y307250D01*
X59250Y310750D01*
G01X76500Y92000D02*
X68500Y100000D01*
Y314000D01*
X65000Y317500D01*
G01X120000Y317250D02*
X119250Y318000D01*
X87500D01*
X83500Y314000D01*
Y278000D01*
X79000Y273500D01*
Y223500D01*
G01Y214000D02*
X71500Y206500D01*
Y134000D01*
X80130Y125370D01*
Y124940D01*
G01X120000Y51000D02*
X107000Y64000D01*
Y147000D01*
X74000Y180000D01*
Y204000D01*
X84000Y214000D01*
Y219000D01*
G01X74000D02*
Y277500D01*
X71000Y280500D01*
Y340500D01*
X68500Y343000D01*
G01X85750Y87500D02*
X91500D01*
G01X80130Y98560D02*
Y87620D01*
X80250Y87500D01*
G01X80130Y124940D02*
Y98560D01*
G01X88000Y193146D02*
X95696D01*
X96000Y193450D01*
G01X88000Y193146D02*
X81854D01*
X79000Y196000D01*
G01X101000Y309000D02*
Y286000D01*
X94500Y279500D01*
X90500D01*
X82000Y271000D01*
Y221000D01*
X84000Y219000D01*
G01X120000Y311250D02*
X118250D01*
X117060Y312440D01*
X91870D01*
G01X119500Y21000D02*
Y38750D01*
X119750Y39000D01*
G01X119500Y21000D02*
Y18500D01*
X122500Y15500D01*
X134000D01*
X150500Y32000D01*
Y135000D01*
X222500Y207000D01*
Y216500D01*
X221500Y217500D01*
G01X131500Y44000D02*
X110000Y65500D01*
Y144000D01*
X146000Y180000D01*
Y201500D01*
X143000Y204500D01*
X142000D01*
X106250Y240250D01*
X106000D01*
G01X132500Y48000D02*
X113000Y67500D01*
Y143000D01*
X149000Y179000D01*
Y202500D01*
X118000Y233500D01*
Y240250D01*
G01X100000D02*
X106000D01*
G01X118000D02*
X112000D01*
G01X141370Y98560D02*
Y93695D01*
X141250Y93575D01*
Y87500D01*
G01X141370Y124940D02*
Y98560D01*
G01X195500Y219750D02*
Y193000D01*
X141370Y138870D01*
Y124940D01*
G01X133500Y176000D02*
Y193146D01*
G01D02*
X141196D01*
X141500Y193450D01*
G01X133500Y193146D02*
X127354D01*
X124500Y196000D01*
G01X249500Y21000D02*
X241000Y12500D01*
X158500D01*
X154000Y17000D01*
Y134500D01*
X225500Y206000D01*
Y223750D01*
X227000Y225250D01*
G01X198500Y46950D02*
X195450D01*
X169500Y21000D01*
G01X179500D02*
X185000Y15500D01*
X204000D01*
X232500Y44000D01*
Y46950D01*
G01X190500Y109750D02*
X184000D01*
G01D02*
X172250D01*
X171000Y111000D01*
G01X190500Y126750D02*
X184000D01*
G01D02*
Y127000D01*
G01X169500Y369500D02*
X172950D01*
G01X215500Y46950D02*
X189550Y21000D01*
X189500D01*
G01X207000Y46950D02*
Y43000D01*
G01X212500Y76000D02*
Y57550D01*
X207000Y52050D01*
G01D02*
X198500D01*
G01X197000Y109646D02*
X190604D01*
X190500Y109750D01*
G01X197000Y126646D02*
X202146D01*
X205000Y129500D01*
G01X197000Y126646D02*
X190604D01*
X190500Y126750D01*
G01X278750Y175500D02*
X246000D01*
X205000Y134500D01*
Y129500D01*
G01X189000Y222500D02*
Y214377D01*
G01X207354Y236500D02*
Y225354D01*
X204500Y222500D01*
G01X207750Y262250D02*
X211000Y259000D01*
G01X200000Y256100D02*
X200600Y256700D01*
Y262900D01*
G01X202900Y263600D02*
Y258600D01*
X203500Y258000D01*
G01X209000Y265000D02*
Y264500D01*
X211500Y262000D01*
G01X223000Y340500D02*
X225500Y343000D01*
Y376000D01*
X217000Y384500D01*
X208000D01*
G01X224000Y43000D02*
Y46950D01*
G01X227500Y76000D02*
Y57050D01*
X232500Y52050D01*
G01X224000D02*
X220000D01*
G01Y66000D02*
Y52050D01*
G01D02*
X215500D01*
G01X210646Y243500D02*
Y237354D01*
X213500Y234500D01*
G01X220500Y225250D02*
X227000D01*
G01X226500Y289000D02*
X227500D01*
G01X241000Y43000D02*
Y46950D01*
G01X232500Y52050D02*
X241000D01*
G01X271750Y64500D02*
X268500D01*
G54D48*
X344500Y204295D03*
X326500D03*
X344500Y228705D03*
X326500D03*
X381500Y174795D03*
Y199205D03*
X399500Y174795D03*
Y199205D03*
G54D39*
X178224Y338000D03*
X168776D03*
G54D58*
G01X108000Y364500D02*
Y367450D01*
X108550Y368000D01*
Y368500D01*
G01X133500Y248000D02*
X133000Y247500D01*
Y223000D01*
X152500Y203500D01*
Y175000D01*
X143500Y166000D01*
G01X151445Y333000D02*
X151500Y333055D01*
G01X186000Y332000D02*
Y327945D01*
G01Y321055D02*
Y319000D01*
X188000Y317000D01*
G01X182000Y316500D02*
X183500D01*
G01X195500Y229500D02*
Y225250D01*
G01Y233646D02*
Y229500D01*
G01X188000Y317000D02*
Y316144D01*
G01X225750Y326500D02*
Y320750D01*
X226500Y320000D01*
G01X271950Y335500D02*
X268500D01*
G01X277050Y72000D02*
Y64700D01*
X277250Y64500D01*
G01D02*
X284000D01*
G01D02*
X288500D01*
G01X284000Y336500D02*
Y331482D01*
X281018Y328500D01*
X277250D01*
G01D02*
X277050Y328700D01*
Y335500D01*
G01X284000Y336500D02*
X289500D01*
G54D49*
X335500Y211100D03*
Y213900D03*
X390500Y192900D03*
Y190100D03*
G54D59*
G01X179500Y336724D02*
Y319000D01*
M02*
