G04 ================== begin FILE IDENTIFICATION RECORD ==================*
G04 Layout Name:  STEVAL-IPM20B.brd*
G04 Film Name:    STEVAL-IPM20B -assembly-bottom*
G04 File Format:  Gerber RS274X*
G04 File Origin:  Cadence Allegro 17.2-S054*
G04 Origin Date:  Thu Nov 28 11:36:22 2019*
G04 *
G04 Layer:  REF DES/ASSEMBLY_BOTTOM*
G04 Layer:  PACKAGE GEOMETRY/ASSEMBLY_BOTTOM*
G04 Layer:  BOARD GEOMETRY/OUTLINE*
G04 *
G04 Offset:    (0.0000 0.0000)*
G04 Mirror:    No*
G04 Mode:      Positive*
G04 Rotation:  0*
G04 FullContactRelief:  No*
G04 UndefLineWidth:     0.1500*
G04 ================== end FILE IDENTIFICATION RECORD ====================*
%FSLAX35Y35*MOMM*%
%IR0*IPPOS*OFA0.00000B0.00000*MIA0B0*SFA1.00000B1.00000*%
%ADD10C,.1*%
%ADD11C,.17*%
%ADD12C,.15*%
G75*
%LPD*%
G75*
G54D10*
G01X-2976600Y-633500D02*
X823400D01*
Y-1673500D01*
X673400D01*
G03X513400Y-1833500I0J-160000D01*
G03X673400Y-1993500I160000J0D01*
G01X823400D01*
Y-3033500D01*
X-2976600D01*
Y-1993500D01*
X-2826600D01*
G03X-2666600Y-1833500I0J160000D01*
G03X-2826600Y-1673500I-160000J0D01*
G01X-2976600D01*
Y-633500D01*
G01X-2854600Y-3293500D02*
Y-3033500D01*
G01Y-373500D02*
Y-633500D01*
G01X-2600600Y-3293500D02*
Y-3743500D01*
G01Y-3293500D02*
Y-3033500D01*
G01X-2499000Y-373500D02*
Y-633500D01*
G01X-2346600Y-3293500D02*
Y-3033500D01*
G01X-2321200Y-373500D02*
Y-633500D01*
G01X-2143400Y-373500D02*
Y-633500D01*
G01X-1965600Y-373500D02*
Y-633500D01*
G01X-1838600Y-3293500D02*
Y-3033500D01*
G01X-1787800Y-373500D02*
Y-633500D01*
G01X-1610000Y-373500D02*
Y-633500D01*
G01X-1432200Y-373500D02*
Y-633500D01*
G01X-1330600Y-3293500D02*
Y-3033500D01*
G01X-1254400Y-373500D02*
Y-633500D01*
G01X-1076600Y-373500D02*
Y-633500D01*
G01X-822600Y-3293500D02*
Y-3033500D01*
G01X-898800Y-373500D02*
Y-633500D01*
G01X-721000Y-373500D02*
Y-633500D01*
G01X-314600Y-3293500D02*
Y-3033500D01*
G01X-365400Y-373500D02*
Y-633500D01*
G01X-9800Y-373500D02*
Y-633500D01*
G01X447400Y-3293500D02*
Y-3033500D01*
G01X345800Y-373500D02*
Y-633500D01*
G01X701400Y-3293500D02*
Y-3033500D01*
G54D11*
G01X-924390Y-1433800D02*
Y-1490200D01*
X-928280Y-1502010D01*
X-936070Y-1509880D01*
X-945800Y-1512500D01*
X-955530Y-1509880D01*
X-963320Y-1502010D01*
X-967210Y-1490200D01*
Y-1433800D01*
G01X-1006010Y-1446920D02*
X-1011850Y-1439050D01*
X-1018660Y-1435110D01*
X-1026450Y-1433800D01*
X-1036180Y-1436420D01*
X-1042990Y-1442980D01*
X-1044940Y-1450850D01*
X-1043970Y-1458720D01*
X-1040070Y-1465280D01*
X-1020610Y-1478400D01*
X-1011850Y-1487580D01*
X-1006010Y-1500700D01*
X-1004060Y-1512500D01*
X-1044940D01*
G54D12*
G01X3880000Y4320000D02*
Y-7820000D01*
X-6150000D01*
Y4320000D01*
X3880000D01*
M02*
