M48
INCH
T01C.024
T02C.028
T03C.032
T04C.039
T05C.044
T06C.051181
T07C.075
T08C.119
T09C.23
;LEADER: 12 
;HEADER: 
;CODE  : ASCII 
;FILE  : STEVAL-IPM20B-1-2.drl for  ... layers TOP and BOTTOM
;DESIGN: STEVAL-IPM20B.brd
;T01 Holesize 1. = 24.000000 Tolerance = +0.000000/-0.000000 PLATED MILS Quantity = 51
;T02 Holesize 2. = 28.000000 Tolerance = +0.000000/-0.000000 PLATED MILS Quantity = 8
;T03 Holesize 3. = 32.000000 Tolerance = +0.000000/-0.000000 PLATED MILS Quantity = 2
;T04 Holesize 4. = 39.000000 Tolerance = +0.000000/-0.000000 PLATED MILS Quantity = 162
;T05 Holesize 5. = 44.000000 Tolerance = +0.000000/-0.000000 PLATED MILS Quantity = 26
;T06 Holesize 6. = 51.181102 Tolerance = +0.000000/-0.000000 PLATED MILS Quantity = 7
;T07 Holesize 7. = 75.000000 Tolerance = +0.000000/-0.000000 PLATED MILS Quantity = 2
;T08 Holesize 8. = 119.000000 Tolerance = +0.000000/-0.000000 PLATED MILS Quantity = 4
;T09 Holesize 9. = 230.000000 Tolerance = +0.000000/-0.000000 NON_PLATED MILS Quantity = 2
%
G90
T01
X00045079Y00078740
X-00136417Y-00054528
X-00123917Y00123524
X-00073622Y-00046654
X00067126Y00067323
X00082776Y-00015453
X-00126772Y00115157
X-00194295Y-00054531
X-00121654Y00110728
X-00116732Y00105906
X-00074409Y00069882
X-00106496Y00120472
X-00043701Y00063390
X-00060630Y00084646
X00039370Y00123622
X-00069094Y00075591
X-00088976Y-00222441
X-00170669Y00079575
X-00088976Y-00216339
X-00121654Y00101575
X-00148819Y-00179921
X-00129331Y00089370
X-00146654Y-00223031
X-00218110Y00087992
X00057087Y00117717
X-00117717Y-00208858
X-00124803Y00095079
X-00205512Y00035433
X-00117520Y-00223031
X-00198819Y00050394
X-00218307Y00098228
X-00155315Y00029528
X-00117717Y-00229724
X-00205512Y00045276
X-00088976Y-00229528
X-00170669Y00089811
X-00146457Y-00229331
X-00218110Y00077953
X-00092327Y-00097043
X-00208268Y-00019291
X-00202953Y00014370
X-00197634Y00115551
X-00190154Y00049996
X00025787Y-00100193
X00085827Y-00035630
X00075787Y00093303
X00099606Y-00014567
X00082870Y00019685
X00082870Y00059843
X-00084055Y00070866
X-00090748Y00079724
T02
X-00188823Y-00071528
X-00188823Y-00081528
X-00160870Y-00071528
X-00160870Y-00081528
X-00046969Y00040157
X-00056969Y00040157
X-00124846Y-00024134
X-00124846Y-00034134
T03
X00050394Y00098701
X00050394Y00088701
T04
X-00090945Y-00138189
X-00116535Y-00137402
X00037008Y-00222441
X00029528Y-00214961
X00043701Y-00215354
X00018898Y-00195669
X00032283Y-00196063
X00011417Y-00187795
X00025197Y-00188189
X-00003150Y-00173228
X00003937Y-00180315
X00017717Y-00180315
X00035827Y-00207283
X-00026378Y-00149606
X-00032677Y-00140945
X-00001181Y-00224016
X-00008661Y-00216535
X00005512Y-00216929
X-00009055Y-00198031
X-00024016Y-00182677
X-00016535Y-00190157
X-00031890Y-00174803
X-00001378Y-00208858
X-00052362Y-00150787
X-00052362Y-00140551
X-00039370Y-00223622
X-00046850Y-00216142
X-00032677Y-00216535
X-00032283Y-00200787
X-00042913Y-00193701
X-00046850Y-00200000
X-00050787Y-00185827
X-00057874Y-00178740
X-00040157Y-00208465
X-00064567Y-00172047
X-00072047Y-00150787
X-00072047Y-00140551
X-00102953Y-00138386
X-00173819Y-00294409
X-00190551Y-00294016
X-00163819Y-00280394
X-00173819Y-00270394
X-00178346Y-00250591
X-00212717Y-00263780
X-00185039Y-00225787
X-00232677Y-00247559
X-00232677Y-00212992
X-00233268Y-00199409
X-00222677Y-00257559
X-00222677Y-00237559
X-00212205Y-00200000
X-00212677Y-00247559
X-00213465Y-00226575
X-00201378Y-00278858
X-00201378Y-00258858
X-00200984Y-00237598
X-00217717Y-00215866
X-00222441Y-00205709
X-00190551Y-00270000
X-00190551Y-00250000
X-00197874Y-00225866
X-00204567Y-00216693
X-00180906Y-00281614
X-00180906Y-00261614
X-00180984Y-00237598
X-00187874Y-00215866
X-00120594Y00137520
X-00120594Y00147520
X-00110594Y00137520
X-00110594Y00147520
X-00100594Y00137520
X-00100594Y00147520
X-00090594Y00137520
X-00090594Y00147520
X-00080594Y00137520
X-00080594Y00147520
X-00070594Y00137520
X-00070594Y00147520
X-00060594Y00137520
X-00060594Y00147520
X-00050594Y00137520
X-00050594Y00147520
X-00040594Y00137520
X-00040594Y00147520
X-00030594Y00137520
X-00030594Y00147520
X-00020594Y00137520
X-00020594Y00147520
X-00010594Y00137520
X-00010594Y00147520
X-00000594Y00137520
X-00000594Y00147520
X00009406Y00137520
X00009406Y00147520
X00019406Y00137520
X00019406Y00147520
X00029406Y00137520
X00029406Y00147520
X00039406Y00137520
X00039406Y00147520
X-00039020Y00105906
R02Y-00010000
X-00019728Y00105906
R02Y-00010000
X00018854Y00105906
R02Y-00010000
X-00000437Y00105906
R02Y-00010000
X00120079Y-00029724
R02Y-00010000
X00116929Y00084059
X00106929Y00084059
X00116929Y00043898
X00106929Y00043898
X00116929Y00003146
X00106929Y00003146
X00105906Y00103941
X00095906Y00103941
X00106102Y00063189
X00096102Y00063189
X00105906Y00022634
X00095906Y00022634
X00140551Y00062717
R04Y-00010000
X00136811Y-00029724
R02Y-00010000
X-00102386Y-00147382
X00027614Y-00014705
R04X-00014000
X-00035386Y-00014705
R11X-00007000
X-00112386Y-00129665
R02X00010000
X-00072386Y-00129665
R03X00020000
X00017614Y-00129665
X00027614Y-00129665
T05
X00043504Y00063386
X-00012598Y00016929
X-00000394Y00005118
X00013780Y00016929
X-00028346Y00012992
X-00034252Y00028740
X-00042520Y00012992
X-00084386Y00024016
X-00010476Y-00165354
X-00040398Y-00165354
X-00230709Y-00228740
X-00063386Y00012992
X-00070516Y-00165354
X-00070386Y00028740
X-00077559Y00012992
X-00090945Y-00150197
X-00099409Y00028346
X-00103500Y-00184449
X-00116689Y-00146457
X-00115945Y00025197
X-00195866Y-00207480
X-00105512Y00006102
X-00091339Y00012992
X-00133705Y00016535
X-00165354Y00009843
X-00190157Y00011614
T06
X00108382Y-00283386
X00078382Y-00283386
X00028972Y-00283386
R02X-00030000
X00106654Y00146457
X00086654Y00146457
T07
X00081496Y-00164370
X00081496Y-00203740
T08
X-00227362Y-00292520
X-00225000Y00153937
X00137795Y00155709
X00138583Y-00292323
T09
X-00111283Y-00072185
X00026512Y-00072185
M30
