G04 ================== begin FILE IDENTIFICATION RECORD ==================*
G04 Layout Name:  STEVAL-IPM20B.brd*
G04 Film Name:    STEVAL-IPM20B -assembly-top*
G04 File Format:  Gerber RS274X*
G04 File Origin:  Cadence Allegro 17.2-S054*
G04 Origin Date:  Thu Nov 28 11:36:22 2019*
G04 *
G04 Layer:  REF DES/ASSEMBLY_TOP*
G04 Layer:  PACKAGE GEOMETRY/ASSEMBLY_TOP*
G04 Layer:  BOARD GEOMETRY/OUTLINE*
G04 *
G04 Offset:    (0.0000 0.0000)*
G04 Mirror:    No*
G04 Mode:      Positive*
G04 Rotation:  0*
G04 FullContactRelief:  No*
G04 UndefLineWidth:     0.1500*
G04 ================== end FILE IDENTIFICATION RECORD ====================*
%FSLAX35Y35*MOMM*%
%IR0*IPPOS*OFA0.00000B0.00000*MIA0B0*SFA1.00000B1.00000*%
%ADD10C,.2*%
%ADD11C,.15*%
%ADD12C,.2032*%
%ADD13C,.254*%
%ADD14C,.05*%
%ADD15C,.0508*%
%ADD16C,.0762*%
G75*
%LPD*%
G75*
G36*
G01X-4563440Y-2159700D02*
G02X-5028760I-232660J215597D01*
G01X-4563440D01*
G37*
G36*
G01X-3853440D02*
G02X-4318760I-232660J215597D01*
G01X-3853440D01*
G37*
G36*
G01X-4193450Y3535830D02*
X-4336050D01*
Y3483790D01*
X-4193450D01*
Y3535830D01*
G37*
G36*
G01X-3948450D02*
X-4091050D01*
Y3483790D01*
X-3948450D01*
Y3535830D01*
G37*
G36*
G01X-3703450D02*
X-3846050D01*
Y3483790D01*
X-3703450D01*
Y3535830D01*
G37*
G36*
G01X-3364140Y-905100D02*
X-2978060D01*
G02X-3364140I-193040J165093D01*
G37*
G36*
G01X-3033070Y3106550D02*
Y2963950D01*
X-2981030D01*
Y3106550D01*
X-3033070D01*
G37*
G36*
G01X-1485100Y1213040D02*
Y826960D01*
G02Y1213040I165093J193040D01*
G37*
G36*
G01X950000Y-6055000D02*
G03X3190000I1120000J1367500D01*
G01X950000D01*
G37*
G36*
G01X1293450Y-1200310D02*
X1436050D01*
Y-1148270D01*
X1293450D01*
Y-1200310D01*
G37*
G54D10*
G01X-5445330Y-3945000D02*
Y-3845000D01*
X-5394670D01*
G01X-5413330Y-3893330D02*
X-5445330D01*
G01X-5420000Y-3280000D02*
X-5430670Y-3283330D01*
X-5438670Y-3291670D01*
X-5444000Y-3301670D01*
X-5448000Y-3315000D01*
X-5449330Y-3330000D01*
X-5448000Y-3345000D01*
X-5444000Y-3358330D01*
X-5438670Y-3368340D01*
X-5430670Y-3376670D01*
X-5420000Y-3380000D01*
X-5409330Y-3376670D01*
X-5401330Y-3368340D01*
X-5396000Y-3358330D01*
X-5392000Y-3345000D01*
X-5390670Y-3330000D01*
X-5392000Y-3315000D01*
X-5396000Y-3301670D01*
X-5401330Y-3291670D01*
X-5409330Y-3283330D01*
X-5420000Y-3280000D01*
G01Y-2730000D02*
X-5430670Y-2733330D01*
X-5438670Y-2741670D01*
X-5444000Y-2751670D01*
X-5448000Y-2765000D01*
X-5449330Y-2780000D01*
X-5448000Y-2795000D01*
X-5444000Y-2808330D01*
X-5438670Y-2818340D01*
X-5430670Y-2826670D01*
X-5420000Y-2830000D01*
X-5409330Y-2826670D01*
X-5401330Y-2818340D01*
X-5396000Y-2808330D01*
X-5392000Y-2795000D01*
X-5390670Y-2780000D01*
X-5392000Y-2765000D01*
X-5396000Y-2751670D01*
X-5401330Y-2741670D01*
X-5409330Y-2733330D01*
X-5420000Y-2730000D01*
G01X-4864330Y-3891670D02*
X-4859000Y-3886670D01*
X-4855000Y-3878340D01*
X-4852330Y-3866670D01*
X-4855000Y-3856670D01*
X-4860330Y-3850000D01*
X-4869670Y-3845000D01*
X-4905670D01*
Y-3945000D01*
X-4861670D01*
X-4852330Y-3938330D01*
X-4847000Y-3928330D01*
X-4844330Y-3916670D01*
X-4847000Y-3905000D01*
X-4855000Y-3895000D01*
X-4864330Y-3891670D01*
X-4905670D01*
G01X-4904330Y-3360000D02*
X-4896330Y-3371670D01*
X-4885670Y-3378330D01*
X-4873670Y-3380000D01*
X-4863000Y-3378330D01*
X-4852330Y-3370000D01*
X-4845670Y-3360000D01*
X-4844330Y-3350000D01*
X-4847000Y-3338340D01*
X-4856330Y-3330000D01*
X-4865670Y-3326670D01*
X-4877670D01*
G01X-4865670D02*
X-4857670Y-3321670D01*
X-4851000Y-3313340D01*
X-4848330Y-3303330D01*
X-4851000Y-3293330D01*
X-4857670Y-3285000D01*
X-4869670Y-3280000D01*
X-4881670Y-3281670D01*
X-4893670Y-3288330D01*
G01X-4875000Y-2830000D02*
Y-2730000D01*
X-4891000Y-2750000D01*
G01Y-2830000D02*
X-4859000D01*
G01X-4359330Y-3365000D02*
X-4351330Y-3373330D01*
X-4342000Y-3378330D01*
X-4330000Y-3380000D01*
X-4318000Y-3376670D01*
X-4308670Y-3370000D01*
X-4302000Y-3358330D01*
X-4300670Y-3345000D01*
X-4303330Y-3331670D01*
X-4310000Y-3323330D01*
X-4319330Y-3316670D01*
X-4328670Y-3315000D01*
X-4338000Y-3316670D01*
X-4350000Y-3323330D01*
X-4346000Y-3280000D01*
X-4310000D01*
G01X-4355330Y-2746670D02*
X-4347330Y-2736670D01*
X-4338000Y-2731670D01*
X-4327330Y-2730000D01*
X-4314000Y-2733330D01*
X-4304670Y-2741670D01*
X-4302000Y-2751670D01*
X-4303330Y-2761670D01*
X-4308670Y-2770000D01*
X-4335330Y-2786670D01*
X-4347330Y-2798330D01*
X-4355330Y-2815000D01*
X-4358000Y-2830000D01*
X-4302000D01*
G01X-3787670Y-3380000D02*
X-3785000Y-3358330D01*
X-3781000Y-3340000D01*
X-3775670Y-3323330D01*
X-3769000Y-3305000D01*
X-3758330Y-3280000D01*
X-3811670D01*
G01X-3814330Y-2810000D02*
X-3806330Y-2821670D01*
X-3795670Y-2828330D01*
X-3783670Y-2830000D01*
X-3773000Y-2828330D01*
X-3762330Y-2820000D01*
X-3755670Y-2810000D01*
X-3754330Y-2800000D01*
X-3757000Y-2788340D01*
X-3766330Y-2780000D01*
X-3775670Y-2776670D01*
X-3787670D01*
G01X-3775670D02*
X-3767670Y-2771670D01*
X-3761000Y-2763340D01*
X-3758330Y-2753330D01*
X-3761000Y-2743330D01*
X-3767670Y-2735000D01*
X-3779670Y-2730000D01*
X-3791670Y-2731670D01*
X-3803670Y-2738330D01*
G01X1470000Y-2810000D02*
X1670000D01*
G01X1570000Y-2710000D02*
Y-2910000D01*
G54D11*
G01X-5966990Y-5568860D02*
Y-5647600D01*
G01X-5989380Y-5568860D02*
X-5944600D01*
G01X-5913040Y-5647600D02*
Y-5568860D01*
X-5889680D01*
X-5881890Y-5572800D01*
X-5876040Y-5581980D01*
X-5874100Y-5592480D01*
X-5876040Y-5602980D01*
X-5880910Y-5610860D01*
X-5889680Y-5614790D01*
X-5913040D01*
G01X-5820150Y-5647600D02*
Y-5568860D01*
X-5831830Y-5584610D01*
G01Y-5647600D02*
X-5808470D01*
G01X-5746730D02*
Y-5568860D01*
X-5758410Y-5584610D01*
G01Y-5647600D02*
X-5735050D01*
G01X-5940870Y-4030340D02*
X-5892610Y-4115000D01*
G01Y-4030340D02*
X-5940870Y-4115000D01*
G01X-5940000Y-3545000D02*
Y-3460340D01*
G01Y-3483620D02*
X-5935180Y-3473030D01*
X-5927130Y-3464570D01*
X-5915870Y-3460340D01*
X-5904610Y-3464570D01*
X-5896570Y-3473030D01*
X-5891740Y-3483620D01*
Y-3545000D01*
G01Y-3483620D02*
X-5886910Y-3473030D01*
X-5878870Y-3464570D01*
X-5867610Y-3460340D01*
X-5856350Y-3464570D01*
X-5848300Y-3473030D01*
X-5843480Y-3485730D01*
Y-3545000D01*
G01X-5919090Y-2975000D02*
Y-2890340D01*
G01Y-2911500D02*
X-5912650Y-2900920D01*
X-5903000Y-2892450D01*
X-5890130Y-2890340D01*
X-5878870Y-2892450D01*
X-5869220Y-2900920D01*
X-5864390Y-2915730D01*
Y-2975000D01*
G01X-6030520Y-2583070D02*
X-6017650Y-2593650D01*
X-6003170Y-2600000D01*
X-5990310D01*
X-5977440Y-2593650D01*
X-5967780Y-2583070D01*
X-5962960Y-2568250D01*
X-5966170Y-2553440D01*
X-5974220Y-2540730D01*
X-5988700Y-2532270D01*
X-6008000Y-2528030D01*
X-6019260Y-2519570D01*
X-6024090Y-2504750D01*
X-6020870Y-2489930D01*
X-6012830Y-2479350D01*
X-6001570Y-2473000D01*
X-5990310D01*
X-5979040Y-2477230D01*
X-5969390Y-2487820D01*
G01X-5890220Y-2473000D02*
Y-2600000D01*
G01X-5927220Y-2473000D02*
X-5853220D01*
G01X-5751530Y-2600000D02*
X-5815870D01*
Y-2473000D01*
X-5751530D01*
G01X-5777270Y-2534380D02*
X-5815870D01*
G01X-5717400Y-2473000D02*
X-5677180Y-2600000D01*
X-5636960Y-2473000D01*
G01X-5610880Y-2600000D02*
X-5570660Y-2473000D01*
X-5530440Y-2600000D01*
G01X-5544920Y-2555550D02*
X-5596400D01*
G01X-5496310Y-2473000D02*
Y-2600000D01*
X-5431970D01*
G01X-5378530Y-2557670D02*
X-5336710D01*
G01X-5270400Y-2473000D02*
X-5231800D01*
G01X-5251100D02*
Y-2600000D01*
G01X-5270400D02*
X-5231800D01*
G01X-5176750D02*
Y-2473000D01*
X-5138150D01*
X-5125280Y-2479350D01*
X-5115620Y-2494170D01*
X-5112410Y-2511100D01*
X-5115620Y-2528030D01*
X-5123670Y-2540730D01*
X-5138150Y-2547090D01*
X-5176750D01*
G01X-5079890Y-2600000D02*
Y-2473000D01*
X-5038060Y-2578830D01*
X-4996230Y-2473000D01*
Y-2600000D01*
G01X-4958890D02*
Y-2515340D01*
G01Y-2536500D02*
X-4952450Y-2525920D01*
X-4942800Y-2517450D01*
X-4929930Y-2515340D01*
X-4918670Y-2517450D01*
X-4909020Y-2525920D01*
X-4904190Y-2540730D01*
Y-2600000D01*
G01X-4873280D02*
Y-2515340D01*
G01Y-2538620D02*
X-4868460Y-2528030D01*
X-4860410Y-2519570D01*
X-4849150Y-2515340D01*
X-4837890Y-2519570D01*
X-4829850Y-2528030D01*
X-4825020Y-2538620D01*
Y-2600000D01*
G01Y-2538620D02*
X-4820190Y-2528030D01*
X-4812150Y-2519570D01*
X-4800890Y-2515340D01*
X-4789630Y-2519570D01*
X-4781580Y-2528030D01*
X-4776760Y-2540730D01*
Y-2600000D01*
G01X-4742630Y-2515340D02*
X-4694370Y-2600000D01*
G01Y-2515340D02*
X-4742630Y-2600000D01*
G01X-5664600Y603750D02*
Y682490D01*
X-5640260D01*
X-5632470Y678550D01*
X-5627600Y673300D01*
X-5625660Y662800D01*
X-5627600Y652310D01*
X-5633450Y645750D01*
X-5640260Y641810D01*
X-5664600D01*
G01X-5640260D02*
X-5625660Y603750D01*
G01X-5593130Y619500D02*
X-5587290Y610310D01*
X-5579500Y605060D01*
X-5570740Y603750D01*
X-5562950Y605060D01*
X-5555160Y611620D01*
X-5550290Y619500D01*
X-5549320Y627370D01*
X-5551260Y636560D01*
X-5558080Y643120D01*
X-5564890Y645750D01*
X-5573660D01*
G01X-5564890D02*
X-5559050Y649680D01*
X-5554180Y656240D01*
X-5552240Y664120D01*
X-5554180Y671990D01*
X-5559050Y678550D01*
X-5567820Y682490D01*
X-5576580Y681180D01*
X-5585340Y675930D01*
G01X-5486610Y603750D02*
Y682490D01*
X-5522630Y626060D01*
X-5473950D01*
G01X-5665360Y853750D02*
Y932490D01*
X-5641020D01*
X-5633230Y928550D01*
X-5628360Y923300D01*
X-5626420Y912800D01*
X-5628360Y902310D01*
X-5634210Y895750D01*
X-5641020Y891810D01*
X-5665360D01*
G01X-5641020D02*
X-5626420Y853750D01*
G01X-5593890Y869500D02*
X-5588050Y860310D01*
X-5580260Y855060D01*
X-5571500Y853750D01*
X-5563710Y855060D01*
X-5555920Y861620D01*
X-5551050Y869500D01*
X-5550080Y877370D01*
X-5552020Y886560D01*
X-5558840Y893120D01*
X-5565650Y895750D01*
X-5574420D01*
G01X-5565650D02*
X-5559810Y899680D01*
X-5554940Y906240D01*
X-5553000Y914120D01*
X-5554940Y921990D01*
X-5559810Y928550D01*
X-5568580Y932490D01*
X-5577340Y931180D01*
X-5586100Y925930D01*
G01X-5520470Y865560D02*
X-5514630Y859000D01*
X-5507810Y855060D01*
X-5499050Y853750D01*
X-5490290Y856370D01*
X-5483470Y861620D01*
X-5478600Y870810D01*
X-5477630Y881310D01*
X-5479580Y891810D01*
X-5484450Y898370D01*
X-5491260Y903620D01*
X-5498080Y904930D01*
X-5504890Y903620D01*
X-5513650Y898370D01*
X-5510730Y932490D01*
X-5484450D01*
G01X-5665360Y1103750D02*
Y1182490D01*
X-5641020D01*
X-5633230Y1178550D01*
X-5628360Y1173300D01*
X-5626420Y1162800D01*
X-5628360Y1152310D01*
X-5634210Y1145750D01*
X-5641020Y1141810D01*
X-5665360D01*
G01X-5641020D02*
X-5626420Y1103750D01*
G01X-5593890Y1119500D02*
X-5588050Y1110310D01*
X-5580260Y1105060D01*
X-5571500Y1103750D01*
X-5563710Y1105060D01*
X-5555920Y1111620D01*
X-5551050Y1119500D01*
X-5550080Y1127370D01*
X-5552020Y1136560D01*
X-5558840Y1143120D01*
X-5565650Y1145750D01*
X-5574420D01*
G01X-5565650D02*
X-5559810Y1149680D01*
X-5554940Y1156240D01*
X-5553000Y1164120D01*
X-5554940Y1171990D01*
X-5559810Y1178550D01*
X-5568580Y1182490D01*
X-5577340Y1181180D01*
X-5586100Y1175930D01*
G01X-5501000Y1103750D02*
X-5499050Y1120810D01*
X-5496130Y1135240D01*
X-5492230Y1148370D01*
X-5487370Y1162800D01*
X-5479580Y1182490D01*
X-5518520D01*
G01X-5675360Y1358750D02*
Y1437490D01*
X-5651020D01*
X-5643230Y1433550D01*
X-5638360Y1428300D01*
X-5636420Y1417800D01*
X-5638360Y1407310D01*
X-5644210Y1400750D01*
X-5651020Y1396810D01*
X-5675360D01*
G01X-5651020D02*
X-5636420Y1358750D01*
G01X-5603890Y1374500D02*
X-5598050Y1365310D01*
X-5590260Y1360060D01*
X-5581500Y1358750D01*
X-5573710Y1360060D01*
X-5565920Y1366620D01*
X-5561050Y1374500D01*
X-5560080Y1382370D01*
X-5562020Y1391560D01*
X-5568840Y1398120D01*
X-5575650Y1400750D01*
X-5584420D01*
G01X-5575650D02*
X-5569810Y1404680D01*
X-5564940Y1411240D01*
X-5563000Y1419120D01*
X-5564940Y1426990D01*
X-5569810Y1433550D01*
X-5578580Y1437490D01*
X-5587340Y1436180D01*
X-5596100Y1430930D01*
G01X-5525600Y1367930D02*
X-5518790Y1361370D01*
X-5511000Y1358750D01*
X-5503210Y1361370D01*
X-5496390Y1369250D01*
X-5491520Y1381060D01*
X-5489580Y1392870D01*
Y1407310D01*
X-5491520Y1419120D01*
X-5496390Y1429620D01*
X-5502230Y1434870D01*
X-5509050Y1437490D01*
X-5516840Y1434870D01*
X-5522680Y1429620D01*
X-5526580Y1421740D01*
X-5528520Y1411240D01*
X-5526580Y1402060D01*
X-5521710Y1392870D01*
X-5515870Y1387620D01*
X-5509050Y1386310D01*
X-5501260Y1388930D01*
X-5495420Y1395490D01*
X-5489580Y1407310D01*
G01X-5508520Y-4281170D02*
Y-4202430D01*
X-5484180D01*
X-5476390Y-4206370D01*
X-5471520Y-4211620D01*
X-5469580Y-4222120D01*
X-5471520Y-4232610D01*
X-5477370Y-4239170D01*
X-5484180Y-4243110D01*
X-5508520D01*
G01X-5484180D02*
X-5469580Y-4281170D01*
G01X-5394210Y-4208990D02*
X-5400050Y-4205050D01*
X-5406870Y-4202430D01*
X-5414660D01*
X-5423420Y-4206370D01*
X-5430230Y-4212930D01*
X-5435100Y-4220800D01*
X-5439000Y-4233930D01*
X-5439970Y-4245740D01*
X-5438020Y-4257550D01*
X-5435100Y-4265420D01*
X-5429260Y-4273300D01*
X-5422450Y-4278550D01*
X-5415630Y-4281170D01*
X-5408810D01*
X-5402000Y-4278550D01*
X-5396160Y-4274610D01*
X-5391290Y-4269360D01*
G01X-5342210Y-4281170D02*
X-5335390Y-4279860D01*
X-5327610Y-4275920D01*
X-5322740Y-4269360D01*
X-5320790Y-4260170D01*
X-5322740Y-4250990D01*
X-5328580Y-4243110D01*
X-5337340Y-4239170D01*
X-5347080D01*
X-5352920Y-4236550D01*
X-5357790Y-4229990D01*
X-5359740Y-4220800D01*
X-5356810Y-4211620D01*
X-5350000Y-4205050D01*
X-5342210Y-4202430D01*
X-5334420Y-4205050D01*
X-5327610Y-4211620D01*
X-5324680Y-4220800D01*
X-5326630Y-4229990D01*
X-5331500Y-4236550D01*
X-5337340Y-4239170D01*
X-5347080D01*
X-5355840Y-4243110D01*
X-5361680Y-4250990D01*
X-5363630Y-4260170D01*
X-5361680Y-4269360D01*
X-5356810Y-4275920D01*
X-5349030Y-4279860D01*
X-5342210Y-4281170D01*
G01X-5508520Y-3731170D02*
Y-3652430D01*
X-5484180D01*
X-5476390Y-3656370D01*
X-5471520Y-3661620D01*
X-5469580Y-3672120D01*
X-5471520Y-3682610D01*
X-5477370Y-3689170D01*
X-5484180Y-3693110D01*
X-5508520D01*
G01X-5484180D02*
X-5469580Y-3731170D01*
G01X-5394210Y-3658990D02*
X-5400050Y-3655050D01*
X-5406870Y-3652430D01*
X-5414660D01*
X-5423420Y-3656370D01*
X-5430230Y-3662930D01*
X-5435100Y-3670800D01*
X-5439000Y-3683930D01*
X-5439970Y-3695740D01*
X-5438020Y-3707550D01*
X-5435100Y-3715420D01*
X-5429260Y-3723300D01*
X-5422450Y-3728550D01*
X-5415630Y-3731170D01*
X-5408810D01*
X-5402000Y-3728550D01*
X-5396160Y-3724610D01*
X-5391290Y-3719360D01*
G01X-5330530Y-3731170D02*
Y-3652430D01*
X-5366550Y-3708860D01*
X-5317870D01*
G01X-5508520Y-3181170D02*
Y-3102430D01*
X-5484180D01*
X-5476390Y-3106370D01*
X-5471520Y-3111620D01*
X-5469580Y-3122120D01*
X-5471520Y-3132610D01*
X-5477370Y-3139170D01*
X-5484180Y-3143110D01*
X-5508520D01*
G01X-5484180D02*
X-5469580Y-3181170D01*
G01X-5394210Y-3108990D02*
X-5400050Y-3105050D01*
X-5406870Y-3102430D01*
X-5414660D01*
X-5423420Y-3106370D01*
X-5430230Y-3112930D01*
X-5435100Y-3120800D01*
X-5439000Y-3133930D01*
X-5439970Y-3145740D01*
X-5438020Y-3157550D01*
X-5435100Y-3165420D01*
X-5429260Y-3173300D01*
X-5422450Y-3178550D01*
X-5415630Y-3181170D01*
X-5408810D01*
X-5402000Y-3178550D01*
X-5396160Y-3174610D01*
X-5391290Y-3169360D01*
G01X-5342210Y-3181170D02*
Y-3102430D01*
X-5353890Y-3118180D01*
G01Y-3181170D02*
X-5330530D01*
G01X-5320930Y-172000D02*
X-5324870Y-177840D01*
X-5327490Y-184660D01*
Y-192450D01*
X-5323550Y-201210D01*
X-5316990Y-208020D01*
X-5309120Y-212890D01*
X-5295990Y-216790D01*
X-5284180Y-217760D01*
X-5272370Y-215810D01*
X-5264500Y-212890D01*
X-5256620Y-207050D01*
X-5251370Y-200240D01*
X-5248750Y-193420D01*
Y-186600D01*
X-5251370Y-179790D01*
X-5255310Y-173950D01*
X-5260560Y-169080D01*
G01X-5264500Y-141420D02*
X-5255310Y-135580D01*
X-5250060Y-127790D01*
X-5248750Y-119030D01*
X-5250060Y-111240D01*
X-5256620Y-103450D01*
X-5264500Y-98580D01*
X-5272370Y-97610D01*
X-5281560Y-99550D01*
X-5288120Y-106370D01*
X-5290750Y-113180D01*
Y-121950D01*
G01Y-113180D02*
X-5294680Y-107340D01*
X-5301240Y-102470D01*
X-5309120Y-100530D01*
X-5316990Y-102470D01*
X-5323550Y-107340D01*
X-5327490Y-116110D01*
X-5326180Y-124870D01*
X-5320930Y-133630D01*
G01X-5248750Y-46580D02*
X-5327490D01*
X-5311740Y-58260D01*
G01X-5248750D02*
Y-34900D01*
G01X-5240130Y337490D02*
Y258750D01*
G01X-5262520Y337490D02*
X-5217740D01*
G01X-5186180Y258750D02*
Y337490D01*
X-5162820D01*
X-5155030Y333550D01*
X-5149180Y324370D01*
X-5147240Y313870D01*
X-5149180Y303370D01*
X-5154050Y295490D01*
X-5162820Y291560D01*
X-5186180D01*
G01X-5111790Y324370D02*
X-5105950Y332240D01*
X-5099130Y336180D01*
X-5091340Y337490D01*
X-5081610Y334870D01*
X-5074790Y328300D01*
X-5072840Y320430D01*
X-5073820Y312550D01*
X-5077710Y305990D01*
X-5097180Y292870D01*
X-5105950Y283680D01*
X-5111790Y270560D01*
X-5113740Y258750D01*
X-5072840D01*
G01X-5038370Y291560D02*
X-5031550Y300750D01*
X-5025710Y305990D01*
X-5017920Y308620D01*
X-5011110Y305990D01*
X-5006240Y300750D01*
X-5002340Y292870D01*
X-5001370Y283680D01*
X-5002340Y275810D01*
X-5006240Y267930D01*
X-5012080Y261370D01*
X-5018900Y258750D01*
X-5026690Y261370D01*
X-5033500Y269250D01*
X-5037400Y281060D01*
X-5038370Y294180D01*
X-5036420Y311240D01*
X-5033500Y320430D01*
X-5028630Y329620D01*
X-5021820Y336180D01*
X-5015000Y337490D01*
X-5008190Y334870D01*
X-5003320Y328300D01*
G01X-5278840Y1683750D02*
Y1762490D01*
X-5254500D01*
X-5246710Y1758550D01*
X-5241840Y1753300D01*
X-5239900Y1742800D01*
X-5241840Y1732310D01*
X-5247690Y1725750D01*
X-5254500Y1721810D01*
X-5278840D01*
G01X-5254500D02*
X-5239900Y1683750D01*
G01X-5174270D02*
Y1762490D01*
X-5210290Y1706060D01*
X-5161610D01*
G01X-5133950Y1699500D02*
X-5128110Y1690310D01*
X-5120320Y1685060D01*
X-5111560Y1683750D01*
X-5103770Y1685060D01*
X-5095980Y1691620D01*
X-5091110Y1699500D01*
X-5090140Y1707370D01*
X-5092080Y1716560D01*
X-5098900Y1723120D01*
X-5105710Y1725750D01*
X-5114480D01*
G01X-5105710D02*
X-5099870Y1729680D01*
X-5095000Y1736240D01*
X-5093060Y1744120D01*
X-5095000Y1751990D01*
X-5099870Y1758550D01*
X-5108640Y1762490D01*
X-5117400Y1761180D01*
X-5126160Y1755930D01*
G01X-5278840Y1938750D02*
Y2017490D01*
X-5254500D01*
X-5246710Y2013550D01*
X-5241840Y2008300D01*
X-5239900Y1997800D01*
X-5241840Y1987310D01*
X-5247690Y1980750D01*
X-5254500Y1976810D01*
X-5278840D01*
G01X-5254500D02*
X-5239900Y1938750D01*
G01X-5174270D02*
Y2017490D01*
X-5210290Y1961060D01*
X-5161610D01*
G01X-5131030Y2004370D02*
X-5125190Y2012240D01*
X-5118370Y2016180D01*
X-5110580Y2017490D01*
X-5100850Y2014870D01*
X-5094030Y2008300D01*
X-5092080Y2000430D01*
X-5093060Y1992550D01*
X-5096950Y1985990D01*
X-5116420Y1972870D01*
X-5125190Y1963680D01*
X-5131030Y1950560D01*
X-5132980Y1938750D01*
X-5092080D01*
G01X-5278840Y2193750D02*
Y2272490D01*
X-5254500D01*
X-5246710Y2268550D01*
X-5241840Y2263300D01*
X-5239900Y2252800D01*
X-5241840Y2242310D01*
X-5247690Y2235750D01*
X-5254500Y2231810D01*
X-5278840D01*
G01X-5254500D02*
X-5239900Y2193750D01*
G01X-5174270D02*
Y2272490D01*
X-5210290Y2216060D01*
X-5161610D01*
G01X-5112530Y2272490D02*
X-5120320Y2269870D01*
X-5126160Y2263300D01*
X-5130060Y2255430D01*
X-5132980Y2244930D01*
X-5133950Y2233120D01*
X-5132980Y2221310D01*
X-5130060Y2210810D01*
X-5126160Y2202930D01*
X-5120320Y2196370D01*
X-5112530Y2193750D01*
X-5104740Y2196370D01*
X-5098900Y2202930D01*
X-5095000Y2210810D01*
X-5092080Y2221310D01*
X-5091110Y2233120D01*
X-5092080Y2244930D01*
X-5095000Y2255430D01*
X-5098900Y2263300D01*
X-5104740Y2269870D01*
X-5112530Y2272490D01*
G01X-5284600Y2453750D02*
Y2532490D01*
X-5260260D01*
X-5252470Y2528550D01*
X-5247600Y2523300D01*
X-5245660Y2512800D01*
X-5247600Y2502310D01*
X-5253450Y2495750D01*
X-5260260Y2491810D01*
X-5284600D01*
G01X-5260260D02*
X-5245660Y2453750D01*
G01X-5213130Y2469500D02*
X-5207290Y2460310D01*
X-5199500Y2455060D01*
X-5190740Y2453750D01*
X-5182950Y2455060D01*
X-5175160Y2461620D01*
X-5170290Y2469500D01*
X-5169320Y2477370D01*
X-5171260Y2486560D01*
X-5178080Y2493120D01*
X-5184890Y2495750D01*
X-5193660D01*
G01X-5184890D02*
X-5179050Y2499680D01*
X-5174180Y2506240D01*
X-5172240Y2514120D01*
X-5174180Y2521990D01*
X-5179050Y2528550D01*
X-5187820Y2532490D01*
X-5196580Y2531180D01*
X-5205340Y2525930D01*
G01X-5118290Y2453750D02*
X-5111470Y2455060D01*
X-5103690Y2459000D01*
X-5098820Y2465560D01*
X-5096870Y2474750D01*
X-5098820Y2483930D01*
X-5104660Y2491810D01*
X-5113420Y2495750D01*
X-5123160D01*
X-5129000Y2498370D01*
X-5133870Y2504930D01*
X-5135820Y2514120D01*
X-5132890Y2523300D01*
X-5126080Y2529870D01*
X-5118290Y2532490D01*
X-5110500Y2529870D01*
X-5103690Y2523300D01*
X-5100760Y2514120D01*
X-5102710Y2504930D01*
X-5107580Y2498370D01*
X-5113420Y2495750D01*
X-5123160D01*
X-5131920Y2491810D01*
X-5137760Y2483930D01*
X-5139710Y2474750D01*
X-5137760Y2465560D01*
X-5132890Y2459000D01*
X-5125110Y2455060D01*
X-5118290Y2453750D01*
G01X-5227000Y2790930D02*
X-5232840Y2794870D01*
X-5239660Y2797490D01*
X-5247450D01*
X-5256210Y2793550D01*
X-5263020Y2786990D01*
X-5267890Y2779120D01*
X-5271790Y2765990D01*
X-5272760Y2754180D01*
X-5270810Y2742370D01*
X-5267890Y2734500D01*
X-5262050Y2726620D01*
X-5255240Y2721370D01*
X-5248420Y2718750D01*
X-5241600D01*
X-5234790Y2721370D01*
X-5228950Y2725310D01*
X-5224080Y2730560D01*
G01X-5193500Y2784370D02*
X-5187660Y2792240D01*
X-5180840Y2796180D01*
X-5173050Y2797490D01*
X-5163320Y2794870D01*
X-5156500Y2788300D01*
X-5154550Y2780430D01*
X-5155530Y2772550D01*
X-5159420Y2765990D01*
X-5178890Y2752870D01*
X-5187660Y2743680D01*
X-5193500Y2730560D01*
X-5195450Y2718750D01*
X-5154550D01*
G01X-5101580D02*
X-5094760Y2720060D01*
X-5086980Y2724000D01*
X-5082110Y2730560D01*
X-5080160Y2739750D01*
X-5082110Y2748930D01*
X-5087950Y2756810D01*
X-5096710Y2760750D01*
X-5106450D01*
X-5112290Y2763370D01*
X-5117160Y2769930D01*
X-5119110Y2779120D01*
X-5116180Y2788300D01*
X-5109370Y2794870D01*
X-5101580Y2797490D01*
X-5093790Y2794870D01*
X-5086980Y2788300D01*
X-5084050Y2779120D01*
X-5086000Y2769930D01*
X-5090870Y2763370D01*
X-5096710Y2760750D01*
X-5106450D01*
X-5115210Y2756810D01*
X-5121050Y2748930D01*
X-5123000Y2739750D01*
X-5121050Y2730560D01*
X-5116180Y2724000D01*
X-5108400Y2720060D01*
X-5101580Y2718750D01*
G01X-5061990Y-5023860D02*
Y-5102600D01*
G01X-5084380Y-5023860D02*
X-5039600D01*
G01X-5008040Y-5102600D02*
Y-5023860D01*
X-4984680D01*
X-4976890Y-5027800D01*
X-4971040Y-5036980D01*
X-4969100Y-5047480D01*
X-4971040Y-5057980D01*
X-4975910Y-5065860D01*
X-4984680Y-5069790D01*
X-5008040D01*
G01X-4933650Y-5036980D02*
X-4927810Y-5029110D01*
X-4920990Y-5025170D01*
X-4913200Y-5023860D01*
X-4903470Y-5026480D01*
X-4896650Y-5033050D01*
X-4894700Y-5040920D01*
X-4895680Y-5048800D01*
X-4899570Y-5055360D01*
X-4919040Y-5068480D01*
X-4927810Y-5077670D01*
X-4933650Y-5090790D01*
X-4935600Y-5102600D01*
X-4894700D01*
G01X-4841730D02*
Y-5023860D01*
X-4853410Y-5039610D01*
G01Y-5102600D02*
X-4830050D01*
G01X-4963520Y-4286170D02*
Y-4207430D01*
X-4939180D01*
X-4931390Y-4211370D01*
X-4926520Y-4216620D01*
X-4924580Y-4227120D01*
X-4926520Y-4237610D01*
X-4932370Y-4244170D01*
X-4939180Y-4248110D01*
X-4963520D01*
G01X-4939180D02*
X-4924580Y-4286170D01*
G01X-4849210Y-4213990D02*
X-4855050Y-4210050D01*
X-4861870Y-4207430D01*
X-4869660D01*
X-4878420Y-4211370D01*
X-4885230Y-4217930D01*
X-4890100Y-4225800D01*
X-4894000Y-4238930D01*
X-4894970Y-4250740D01*
X-4893020Y-4262550D01*
X-4890100Y-4270420D01*
X-4884260Y-4278300D01*
X-4877450Y-4283550D01*
X-4870630Y-4286170D01*
X-4863810D01*
X-4857000Y-4283550D01*
X-4851160Y-4279610D01*
X-4846290Y-4274360D01*
G01X-4813760Y-4276990D02*
X-4806950Y-4283550D01*
X-4799160Y-4286170D01*
X-4791370Y-4283550D01*
X-4784550Y-4275670D01*
X-4779680Y-4263860D01*
X-4777740Y-4252050D01*
Y-4237610D01*
X-4779680Y-4225800D01*
X-4784550Y-4215300D01*
X-4790390Y-4210050D01*
X-4797210Y-4207430D01*
X-4805000Y-4210050D01*
X-4810840Y-4215300D01*
X-4814740Y-4223180D01*
X-4816680Y-4233680D01*
X-4814740Y-4242860D01*
X-4809870Y-4252050D01*
X-4804030Y-4257300D01*
X-4797210Y-4258610D01*
X-4789420Y-4255990D01*
X-4783580Y-4249430D01*
X-4777740Y-4237610D01*
G01X-4963520Y-3731170D02*
Y-3652430D01*
X-4939180D01*
X-4931390Y-3656370D01*
X-4926520Y-3661620D01*
X-4924580Y-3672120D01*
X-4926520Y-3682610D01*
X-4932370Y-3689170D01*
X-4939180Y-3693110D01*
X-4963520D01*
G01X-4939180D02*
X-4924580Y-3731170D01*
G01X-4849210Y-3658990D02*
X-4855050Y-3655050D01*
X-4861870Y-3652430D01*
X-4869660D01*
X-4878420Y-3656370D01*
X-4885230Y-3662930D01*
X-4890100Y-3670800D01*
X-4894000Y-3683930D01*
X-4894970Y-3695740D01*
X-4893020Y-3707550D01*
X-4890100Y-3715420D01*
X-4884260Y-3723300D01*
X-4877450Y-3728550D01*
X-4870630Y-3731170D01*
X-4863810D01*
X-4857000Y-3728550D01*
X-4851160Y-3724610D01*
X-4846290Y-3719360D01*
G01X-4818630D02*
X-4812790Y-3725920D01*
X-4805970Y-3729860D01*
X-4797210Y-3731170D01*
X-4788450Y-3728550D01*
X-4781630Y-3723300D01*
X-4776760Y-3714110D01*
X-4775790Y-3703610D01*
X-4777740Y-3693110D01*
X-4782610Y-3686550D01*
X-4789420Y-3681300D01*
X-4796240Y-3679990D01*
X-4803050Y-3681300D01*
X-4811810Y-3686550D01*
X-4808890Y-3652430D01*
X-4782610D01*
G01X-4963520Y-3181170D02*
Y-3102430D01*
X-4939180D01*
X-4931390Y-3106370D01*
X-4926520Y-3111620D01*
X-4924580Y-3122120D01*
X-4926520Y-3132610D01*
X-4932370Y-3139170D01*
X-4939180Y-3143110D01*
X-4963520D01*
G01X-4939180D02*
X-4924580Y-3181170D01*
G01X-4849210Y-3108990D02*
X-4855050Y-3105050D01*
X-4861870Y-3102430D01*
X-4869660D01*
X-4878420Y-3106370D01*
X-4885230Y-3112930D01*
X-4890100Y-3120800D01*
X-4894000Y-3133930D01*
X-4894970Y-3145740D01*
X-4893020Y-3157550D01*
X-4890100Y-3165420D01*
X-4884260Y-3173300D01*
X-4877450Y-3178550D01*
X-4870630Y-3181170D01*
X-4863810D01*
X-4857000Y-3178550D01*
X-4851160Y-3174610D01*
X-4846290Y-3169360D01*
G01X-4815710Y-3115550D02*
X-4809870Y-3107680D01*
X-4803050Y-3103740D01*
X-4795260Y-3102430D01*
X-4785530Y-3105050D01*
X-4778710Y-3111620D01*
X-4776760Y-3119490D01*
X-4777740Y-3127370D01*
X-4781630Y-3133930D01*
X-4801100Y-3147050D01*
X-4809870Y-3156240D01*
X-4815710Y-3169360D01*
X-4817660Y-3181170D01*
X-4776760D01*
G01X-4855000Y-1512500D02*
Y-1572500D01*
G01X-4822500Y-1540000D02*
X-4887500D01*
G01X-4899600Y-1216250D02*
Y-1137510D01*
X-4875260D01*
X-4867470Y-1141450D01*
X-4862600Y-1146700D01*
X-4860660Y-1157200D01*
X-4862600Y-1167690D01*
X-4868450Y-1174250D01*
X-4875260Y-1178190D01*
X-4899600D01*
G01X-4875260D02*
X-4860660Y-1216250D01*
G01X-4828130Y-1200500D02*
X-4822290Y-1209690D01*
X-4814500Y-1214940D01*
X-4805740Y-1216250D01*
X-4797950Y-1214940D01*
X-4790160Y-1208380D01*
X-4785290Y-1200500D01*
X-4784320Y-1192630D01*
X-4786260Y-1183440D01*
X-4793080Y-1176880D01*
X-4799890Y-1174250D01*
X-4808660D01*
G01X-4799890D02*
X-4794050Y-1170320D01*
X-4789180Y-1163760D01*
X-4787240Y-1155880D01*
X-4789180Y-1148010D01*
X-4794050Y-1141450D01*
X-4802820Y-1137510D01*
X-4811580Y-1138820D01*
X-4820340Y-1144070D01*
G01X-4751790Y-1183440D02*
X-4744970Y-1174250D01*
X-4739130Y-1169010D01*
X-4731340Y-1166380D01*
X-4724530Y-1169010D01*
X-4719660Y-1174250D01*
X-4715760Y-1182130D01*
X-4714790Y-1191320D01*
X-4715760Y-1199190D01*
X-4719660Y-1207070D01*
X-4725500Y-1213630D01*
X-4732320Y-1216250D01*
X-4740110Y-1213630D01*
X-4746920Y-1205750D01*
X-4750820Y-1193940D01*
X-4751790Y-1180820D01*
X-4749840Y-1163760D01*
X-4746920Y-1154570D01*
X-4742050Y-1145380D01*
X-4735240Y-1138820D01*
X-4728420Y-1137510D01*
X-4721610Y-1140130D01*
X-4716740Y-1146700D01*
G01X-4993750Y-255360D02*
X-5072490D01*
Y-231020D01*
X-5068550Y-223230D01*
X-5063300Y-218360D01*
X-5052800Y-216420D01*
X-5042310Y-218360D01*
X-5035750Y-224210D01*
X-5031810Y-231020D01*
Y-255360D01*
G01Y-231020D02*
X-4993750Y-216420D01*
G01Y-150790D02*
X-5072490D01*
X-5016060Y-186810D01*
Y-138130D01*
G01X-4993750Y-89050D02*
X-5072490D01*
X-5056740Y-100730D01*
G01X-4993750D02*
Y-77370D01*
G01X-5042000Y680930D02*
X-5047840Y684870D01*
X-5054660Y687490D01*
X-5062450D01*
X-5071210Y683550D01*
X-5078020Y676990D01*
X-5082890Y669120D01*
X-5086790Y655990D01*
X-5087760Y644180D01*
X-5085810Y632370D01*
X-5082890Y624500D01*
X-5077050Y616620D01*
X-5070240Y611370D01*
X-5063420Y608750D01*
X-5056600D01*
X-5049790Y611370D01*
X-5043950Y615310D01*
X-5039080Y620560D01*
G01X-5008500Y674370D02*
X-5002660Y682240D01*
X-4995840Y686180D01*
X-4988050Y687490D01*
X-4978320Y684870D01*
X-4971500Y678300D01*
X-4969550Y670430D01*
X-4970530Y662550D01*
X-4974420Y655990D01*
X-4993890Y642870D01*
X-5002660Y633680D01*
X-5008500Y620560D01*
X-5010450Y608750D01*
X-4969550D01*
G01X-4935080Y641560D02*
X-4928260Y650750D01*
X-4922420Y655990D01*
X-4914630Y658620D01*
X-4907820Y655990D01*
X-4902950Y650750D01*
X-4899050Y642870D01*
X-4898080Y633680D01*
X-4899050Y625810D01*
X-4902950Y617930D01*
X-4908790Y611370D01*
X-4915610Y608750D01*
X-4923400Y611370D01*
X-4930210Y619250D01*
X-4934110Y631060D01*
X-4935080Y644180D01*
X-4933130Y661240D01*
X-4930210Y670430D01*
X-4925340Y679620D01*
X-4918530Y686180D01*
X-4911710Y687490D01*
X-4904900Y684870D01*
X-4900030Y678300D01*
G01X-4810950Y-1909700D02*
X-4816790Y-1905760D01*
X-4823610Y-1903140D01*
X-4831400D01*
X-4840160Y-1907080D01*
X-4846970Y-1913640D01*
X-4851840Y-1921510D01*
X-4855740Y-1934640D01*
X-4856710Y-1946450D01*
X-4854760Y-1958260D01*
X-4851840Y-1966130D01*
X-4846000Y-1974010D01*
X-4839190Y-1979260D01*
X-4832370Y-1981880D01*
X-4825550D01*
X-4818740Y-1979260D01*
X-4812900Y-1975320D01*
X-4808030Y-1970070D01*
G01X-4780370Y-1966130D02*
X-4774530Y-1975320D01*
X-4766740Y-1980570D01*
X-4757980Y-1981880D01*
X-4750190Y-1980570D01*
X-4742400Y-1974010D01*
X-4737530Y-1966130D01*
X-4736560Y-1958260D01*
X-4738500Y-1949070D01*
X-4745320Y-1942510D01*
X-4752130Y-1939880D01*
X-4760900D01*
G01X-4752130D02*
X-4746290Y-1935950D01*
X-4741420Y-1929390D01*
X-4739480Y-1921510D01*
X-4741420Y-1913640D01*
X-4746290Y-1907080D01*
X-4755060Y-1903140D01*
X-4763820Y-1904450D01*
X-4772580Y-1909700D01*
G01X-4592000Y-1399070D02*
X-4597840Y-1395130D01*
X-4604660Y-1392510D01*
X-4612450D01*
X-4621210Y-1396450D01*
X-4628020Y-1403010D01*
X-4632890Y-1410880D01*
X-4636790Y-1424010D01*
X-4637760Y-1435820D01*
X-4635810Y-1447630D01*
X-4632890Y-1455500D01*
X-4627050Y-1463380D01*
X-4620240Y-1468630D01*
X-4613420Y-1471250D01*
X-4606600D01*
X-4599790Y-1468630D01*
X-4593950Y-1464690D01*
X-4589080Y-1459440D01*
G01X-4558500Y-1405630D02*
X-4552660Y-1397760D01*
X-4545840Y-1393820D01*
X-4538050Y-1392510D01*
X-4528320Y-1395130D01*
X-4521500Y-1401700D01*
X-4519550Y-1409570D01*
X-4520530Y-1417450D01*
X-4524420Y-1424010D01*
X-4543890Y-1437130D01*
X-4552660Y-1446320D01*
X-4558500Y-1459440D01*
X-4560450Y-1471250D01*
X-4519550D01*
G01X-4483130Y-1462070D02*
X-4476320Y-1468630D01*
X-4468530Y-1471250D01*
X-4460740Y-1468630D01*
X-4453920Y-1460750D01*
X-4449050Y-1448940D01*
X-4447110Y-1437130D01*
Y-1422690D01*
X-4449050Y-1410880D01*
X-4453920Y-1400380D01*
X-4459760Y-1395130D01*
X-4466580Y-1392510D01*
X-4474370Y-1395130D01*
X-4480210Y-1400380D01*
X-4484110Y-1408260D01*
X-4486050Y-1418760D01*
X-4484110Y-1427940D01*
X-4479240Y-1437130D01*
X-4473400Y-1442380D01*
X-4466580Y-1443690D01*
X-4458790Y-1441070D01*
X-4452950Y-1434510D01*
X-4447110Y-1422690D01*
G01X-4870930Y-762000D02*
X-4874870Y-767840D01*
X-4877490Y-774660D01*
Y-782450D01*
X-4873550Y-791210D01*
X-4866990Y-798020D01*
X-4859120Y-802890D01*
X-4845990Y-806790D01*
X-4834180Y-807760D01*
X-4822370Y-805810D01*
X-4814500Y-802890D01*
X-4806620Y-797050D01*
X-4801370Y-790240D01*
X-4798750Y-783420D01*
Y-776600D01*
X-4801370Y-769790D01*
X-4805310Y-763950D01*
X-4810560Y-759080D01*
G01X-4864370Y-728500D02*
X-4872240Y-722660D01*
X-4876180Y-715840D01*
X-4877490Y-708050D01*
X-4874870Y-698320D01*
X-4868300Y-691500D01*
X-4860430Y-689550D01*
X-4852550Y-690530D01*
X-4845990Y-694420D01*
X-4832870Y-713890D01*
X-4823680Y-722660D01*
X-4810560Y-728500D01*
X-4798750Y-730450D01*
Y-689550D01*
G01Y-638530D02*
X-4815810Y-636580D01*
X-4830240Y-633660D01*
X-4843370Y-629760D01*
X-4857800Y-624900D01*
X-4877490Y-617110D01*
Y-656050D01*
G01X-4458520Y-4286170D02*
Y-4207430D01*
X-4434180D01*
X-4426390Y-4211370D01*
X-4421520Y-4216620D01*
X-4419580Y-4227120D01*
X-4421520Y-4237610D01*
X-4427370Y-4244170D01*
X-4434180Y-4248110D01*
X-4458520D01*
G01X-4434180D02*
X-4419580Y-4286170D01*
G01X-4344210Y-4213990D02*
X-4350050Y-4210050D01*
X-4356870Y-4207430D01*
X-4364660D01*
X-4373420Y-4211370D01*
X-4380230Y-4217930D01*
X-4385100Y-4225800D01*
X-4389000Y-4238930D01*
X-4389970Y-4250740D01*
X-4388020Y-4262550D01*
X-4385100Y-4270420D01*
X-4379260Y-4278300D01*
X-4372450Y-4283550D01*
X-4365630Y-4286170D01*
X-4358810D01*
X-4352000Y-4283550D01*
X-4346160Y-4279610D01*
X-4341290Y-4274360D01*
G01X-4292210Y-4286170D02*
Y-4207430D01*
X-4303890Y-4223180D01*
G01Y-4286170D02*
X-4280530D01*
G01X-4218790Y-4207430D02*
X-4226580Y-4210050D01*
X-4232420Y-4216620D01*
X-4236320Y-4224490D01*
X-4239240Y-4234990D01*
X-4240210Y-4246800D01*
X-4239240Y-4258610D01*
X-4236320Y-4269110D01*
X-4232420Y-4276990D01*
X-4226580Y-4283550D01*
X-4218790Y-4286170D01*
X-4211000Y-4283550D01*
X-4205160Y-4276990D01*
X-4201260Y-4269110D01*
X-4198340Y-4258610D01*
X-4197370Y-4246800D01*
X-4198340Y-4234990D01*
X-4201260Y-4224490D01*
X-4205160Y-4216620D01*
X-4211000Y-4210050D01*
X-4218790Y-4207430D01*
G01X-4418520Y-3731170D02*
Y-3652430D01*
X-4394180D01*
X-4386390Y-3656370D01*
X-4381520Y-3661620D01*
X-4379580Y-3672120D01*
X-4381520Y-3682610D01*
X-4387370Y-3689170D01*
X-4394180Y-3693110D01*
X-4418520D01*
G01X-4394180D02*
X-4379580Y-3731170D01*
G01X-4304210Y-3658990D02*
X-4310050Y-3655050D01*
X-4316870Y-3652430D01*
X-4324660D01*
X-4333420Y-3656370D01*
X-4340230Y-3662930D01*
X-4345100Y-3670800D01*
X-4349000Y-3683930D01*
X-4349970Y-3695740D01*
X-4348020Y-3707550D01*
X-4345100Y-3715420D01*
X-4339260Y-3723300D01*
X-4332450Y-3728550D01*
X-4325630Y-3731170D01*
X-4318810D01*
X-4312000Y-3728550D01*
X-4306160Y-3724610D01*
X-4301290Y-3719360D01*
G01X-4270710Y-3698360D02*
X-4263890Y-3689170D01*
X-4258050Y-3683930D01*
X-4250260Y-3681300D01*
X-4243450Y-3683930D01*
X-4238580Y-3689170D01*
X-4234680Y-3697050D01*
X-4233710Y-3706240D01*
X-4234680Y-3714110D01*
X-4238580Y-3721990D01*
X-4244420Y-3728550D01*
X-4251240Y-3731170D01*
X-4259030Y-3728550D01*
X-4265840Y-3720670D01*
X-4269740Y-3708860D01*
X-4270710Y-3695740D01*
X-4268760Y-3678680D01*
X-4265840Y-3669490D01*
X-4260970Y-3660300D01*
X-4254160Y-3653740D01*
X-4247340Y-3652430D01*
X-4240530Y-3655050D01*
X-4235660Y-3661620D01*
G01X-4418520Y-3181170D02*
Y-3102430D01*
X-4394180D01*
X-4386390Y-3106370D01*
X-4381520Y-3111620D01*
X-4379580Y-3122120D01*
X-4381520Y-3132610D01*
X-4387370Y-3139170D01*
X-4394180Y-3143110D01*
X-4418520D01*
G01X-4394180D02*
X-4379580Y-3181170D01*
G01X-4304210Y-3108990D02*
X-4310050Y-3105050D01*
X-4316870Y-3102430D01*
X-4324660D01*
X-4333420Y-3106370D01*
X-4340230Y-3112930D01*
X-4345100Y-3120800D01*
X-4349000Y-3133930D01*
X-4349970Y-3145740D01*
X-4348020Y-3157550D01*
X-4345100Y-3165420D01*
X-4339260Y-3173300D01*
X-4332450Y-3178550D01*
X-4325630Y-3181170D01*
X-4318810D01*
X-4312000Y-3178550D01*
X-4306160Y-3174610D01*
X-4301290Y-3169360D01*
G01X-4273630Y-3165420D02*
X-4267790Y-3174610D01*
X-4260000Y-3179860D01*
X-4251240Y-3181170D01*
X-4243450Y-3179860D01*
X-4235660Y-3173300D01*
X-4230790Y-3165420D01*
X-4229820Y-3157550D01*
X-4231760Y-3148360D01*
X-4238580Y-3141800D01*
X-4245390Y-3139170D01*
X-4254160D01*
G01X-4245390D02*
X-4239550Y-3135240D01*
X-4234680Y-3128680D01*
X-4232740Y-3120800D01*
X-4234680Y-3112930D01*
X-4239550Y-3106370D01*
X-4248320Y-3102430D01*
X-4257080Y-3103740D01*
X-4265840Y-3108990D01*
G01X-4497000Y-14070D02*
X-4502840Y-10130D01*
X-4509660Y-7510D01*
X-4517450D01*
X-4526210Y-11450D01*
X-4533020Y-18010D01*
X-4537890Y-25880D01*
X-4541790Y-39010D01*
X-4542760Y-50820D01*
X-4540810Y-62630D01*
X-4537890Y-70500D01*
X-4532050Y-78380D01*
X-4525240Y-83630D01*
X-4518420Y-86250D01*
X-4511600D01*
X-4504790Y-83630D01*
X-4498950Y-79690D01*
X-4494080Y-74440D01*
G01X-4466420Y-70500D02*
X-4460580Y-79690D01*
X-4452790Y-84940D01*
X-4444030Y-86250D01*
X-4436240Y-84940D01*
X-4428450Y-78380D01*
X-4423580Y-70500D01*
X-4422610Y-62630D01*
X-4424550Y-53440D01*
X-4431370Y-46880D01*
X-4438180Y-44250D01*
X-4446950D01*
G01X-4438180D02*
X-4432340Y-40320D01*
X-4427470Y-33760D01*
X-4425530Y-25880D01*
X-4427470Y-18010D01*
X-4432340Y-11450D01*
X-4441110Y-7510D01*
X-4449870Y-8820D01*
X-4458630Y-14070D01*
G01X-4371580Y-7510D02*
X-4379370Y-10130D01*
X-4385210Y-16700D01*
X-4389110Y-24570D01*
X-4392030Y-35070D01*
X-4393000Y-46880D01*
X-4392030Y-58690D01*
X-4389110Y-69190D01*
X-4385210Y-77070D01*
X-4379370Y-83630D01*
X-4371580Y-86250D01*
X-4363790Y-83630D01*
X-4357950Y-77070D01*
X-4354050Y-69190D01*
X-4351130Y-58690D01*
X-4350160Y-46880D01*
X-4351130Y-35070D01*
X-4354050Y-24570D01*
X-4357950Y-16700D01*
X-4363790Y-10130D01*
X-4371580Y-7510D01*
G01X-4493750Y3302110D02*
X-4572490D01*
Y3326450D01*
X-4568550Y3334240D01*
X-4563300Y3339110D01*
X-4552800Y3341050D01*
X-4542310Y3339110D01*
X-4535750Y3333260D01*
X-4531810Y3326450D01*
Y3302110D01*
G01Y3326450D02*
X-4493750Y3341050D01*
G01X-4559370Y3376500D02*
X-4567240Y3382340D01*
X-4571180Y3389160D01*
X-4572490Y3396950D01*
X-4569870Y3406680D01*
X-4563300Y3413500D01*
X-4555430Y3415450D01*
X-4547550Y3414470D01*
X-4540990Y3410580D01*
X-4527870Y3391110D01*
X-4518680Y3382340D01*
X-4505560Y3376500D01*
X-4493750Y3374550D01*
Y3415450D01*
G01X-4509500Y3447000D02*
X-4500310Y3452840D01*
X-4495060Y3460630D01*
X-4493750Y3469390D01*
X-4495060Y3477180D01*
X-4501620Y3484970D01*
X-4509500Y3489840D01*
X-4517370Y3490810D01*
X-4526560Y3488870D01*
X-4533120Y3482050D01*
X-4535750Y3475240D01*
Y3466470D01*
G01Y3475240D02*
X-4539680Y3481080D01*
X-4546240Y3485950D01*
X-4554120Y3487890D01*
X-4561990Y3485950D01*
X-4568550Y3481080D01*
X-4572490Y3472310D01*
X-4571180Y3463550D01*
X-4565930Y3454790D01*
G01X-4100950Y-1909700D02*
X-4106790Y-1905760D01*
X-4113610Y-1903140D01*
X-4121400D01*
X-4130160Y-1907080D01*
X-4136970Y-1913640D01*
X-4141840Y-1921510D01*
X-4145740Y-1934640D01*
X-4146710Y-1946450D01*
X-4144760Y-1958260D01*
X-4141840Y-1966130D01*
X-4136000Y-1974010D01*
X-4129190Y-1979260D01*
X-4122370Y-1981880D01*
X-4115550D01*
X-4108740Y-1979260D01*
X-4102900Y-1975320D01*
X-4098030Y-1970070D01*
G01X-4037270Y-1981880D02*
Y-1903140D01*
X-4073290Y-1959570D01*
X-4024610D01*
G01X-4090000Y-1517500D02*
Y-1577500D01*
G01X-4057500Y-1545000D02*
X-4122500D01*
G01X-4282890Y-1171250D02*
Y-1092510D01*
X-4258550D01*
X-4250760Y-1096450D01*
X-4245890Y-1101700D01*
X-4243950Y-1112200D01*
X-4245890Y-1122690D01*
X-4251740Y-1129250D01*
X-4258550Y-1133190D01*
X-4282890D01*
G01X-4258550D02*
X-4243950Y-1171250D01*
G01X-4208500Y-1138440D02*
X-4201680Y-1129250D01*
X-4195840Y-1124010D01*
X-4188050Y-1121380D01*
X-4181240Y-1124010D01*
X-4176370Y-1129250D01*
X-4172470Y-1137130D01*
X-4171500Y-1146320D01*
X-4172470Y-1154190D01*
X-4176370Y-1162070D01*
X-4182210Y-1168630D01*
X-4189030Y-1171250D01*
X-4196820Y-1168630D01*
X-4203630Y-1160750D01*
X-4207530Y-1148940D01*
X-4208500Y-1135820D01*
X-4206550Y-1118760D01*
X-4203630Y-1109570D01*
X-4198760Y-1100380D01*
X-4191950Y-1093820D01*
X-4185130Y-1092510D01*
X-4178320Y-1095130D01*
X-4173450Y-1101700D01*
G01X-4218130Y-597510D02*
Y-653940D01*
X-4214240Y-665750D01*
X-4206450Y-673630D01*
X-4196710Y-676250D01*
X-4186970Y-673630D01*
X-4179180Y-665750D01*
X-4175290Y-653940D01*
Y-597510D01*
G01X-4123290Y-676250D02*
Y-597510D01*
X-4134970Y-613260D01*
G01Y-676250D02*
X-4111610D01*
G01X-4320130Y477490D02*
Y398750D01*
G01X-4342520Y477490D02*
X-4297740D01*
G01X-4266180Y398750D02*
Y477490D01*
X-4242820D01*
X-4235030Y473550D01*
X-4229180Y464370D01*
X-4227240Y453870D01*
X-4229180Y443370D01*
X-4234050Y435490D01*
X-4242820Y431560D01*
X-4266180D01*
G01X-4191790Y464370D02*
X-4185950Y472240D01*
X-4179130Y476180D01*
X-4171340Y477490D01*
X-4161610Y474870D01*
X-4154790Y468300D01*
X-4152840Y460430D01*
X-4153820Y452550D01*
X-4157710Y445990D01*
X-4177180Y432870D01*
X-4185950Y423680D01*
X-4191790Y410560D01*
X-4193740Y398750D01*
X-4152840D01*
G01X-4121290Y410560D02*
X-4115450Y404000D01*
X-4108630Y400060D01*
X-4099870Y398750D01*
X-4091110Y401370D01*
X-4084290Y406620D01*
X-4079420Y415810D01*
X-4078450Y426310D01*
X-4080400Y436810D01*
X-4085270Y443370D01*
X-4092080Y448620D01*
X-4098900Y449930D01*
X-4105710Y448620D01*
X-4114470Y443370D01*
X-4111550Y477490D01*
X-4085270D01*
G01X-4328130Y3256510D02*
Y3335250D01*
X-4308660D01*
X-4300870Y3331310D01*
X-4295030Y3326060D01*
X-4290160Y3318190D01*
X-4286260Y3309000D01*
X-4285290Y3295880D01*
X-4286260Y3282760D01*
X-4290160Y3273570D01*
X-4295030Y3265690D01*
X-4300870Y3260450D01*
X-4308660Y3256510D01*
X-4328130D01*
G01X-4254710Y3272260D02*
X-4248870Y3263070D01*
X-4241080Y3257820D01*
X-4232320Y3256510D01*
X-4224530Y3257820D01*
X-4216740Y3264380D01*
X-4211870Y3272260D01*
X-4210900Y3280130D01*
X-4212840Y3289320D01*
X-4219660Y3295880D01*
X-4226470Y3298510D01*
X-4235240D01*
G01X-4226470D02*
X-4220630Y3302440D01*
X-4215760Y3309000D01*
X-4213820Y3316880D01*
X-4215760Y3324750D01*
X-4220630Y3331310D01*
X-4229400Y3335250D01*
X-4238160Y3333940D01*
X-4246920Y3328690D01*
G01X-4228860Y3589000D02*
X-4307600D01*
G01Y3626000D02*
X-4259040Y3589000D01*
G01X-4228860Y3631840D02*
X-4281350Y3605550D01*
G01X-3952890Y-1426250D02*
Y-1347510D01*
X-3928550D01*
X-3920760Y-1351450D01*
X-3915890Y-1356700D01*
X-3913950Y-1367200D01*
X-3915890Y-1377690D01*
X-3921740Y-1384250D01*
X-3928550Y-1388190D01*
X-3952890D01*
G01X-3928550D02*
X-3913950Y-1426250D01*
G01X-3881420Y-1414440D02*
X-3875580Y-1421000D01*
X-3868760Y-1424940D01*
X-3860000Y-1426250D01*
X-3851240Y-1423630D01*
X-3844420Y-1418380D01*
X-3839550Y-1409190D01*
X-3838580Y-1398690D01*
X-3840530Y-1388190D01*
X-3845400Y-1381630D01*
X-3852210Y-1376380D01*
X-3859030Y-1375070D01*
X-3865840Y-1376380D01*
X-3874600Y-1381630D01*
X-3871680Y-1347510D01*
X-3845400D01*
G01X-3907000Y-14070D02*
X-3912840Y-10130D01*
X-3919660Y-7510D01*
X-3927450D01*
X-3936210Y-11450D01*
X-3943020Y-18010D01*
X-3947890Y-25880D01*
X-3951790Y-39010D01*
X-3952760Y-50820D01*
X-3950810Y-62630D01*
X-3947890Y-70500D01*
X-3942050Y-78380D01*
X-3935240Y-83630D01*
X-3928420Y-86250D01*
X-3921600D01*
X-3914790Y-83630D01*
X-3908950Y-79690D01*
X-3904080Y-74440D01*
G01X-3873500Y-20630D02*
X-3867660Y-12760D01*
X-3860840Y-8820D01*
X-3853050Y-7510D01*
X-3843320Y-10130D01*
X-3836500Y-16700D01*
X-3834550Y-24570D01*
X-3835530Y-32450D01*
X-3839420Y-39010D01*
X-3858890Y-52130D01*
X-3867660Y-61320D01*
X-3873500Y-74440D01*
X-3875450Y-86250D01*
X-3834550D01*
G01X-3769900D02*
Y-7510D01*
X-3805920Y-63940D01*
X-3757240D01*
G01X-4022000Y1465930D02*
X-4027840Y1469870D01*
X-4034660Y1472490D01*
X-4042450D01*
X-4051210Y1468550D01*
X-4058020Y1461990D01*
X-4062890Y1454120D01*
X-4066790Y1440990D01*
X-4067760Y1429180D01*
X-4065810Y1417370D01*
X-4062890Y1409500D01*
X-4057050Y1401620D01*
X-4050240Y1396370D01*
X-4043420Y1393750D01*
X-4036600D01*
X-4029790Y1396370D01*
X-4023950Y1400310D01*
X-4019080Y1405560D01*
G01X-3988500Y1459370D02*
X-3982660Y1467240D01*
X-3975840Y1471180D01*
X-3968050Y1472490D01*
X-3958320Y1469870D01*
X-3951500Y1463300D01*
X-3949550Y1455430D01*
X-3950530Y1447550D01*
X-3954420Y1440990D01*
X-3973890Y1427870D01*
X-3982660Y1418680D01*
X-3988500Y1405560D01*
X-3990450Y1393750D01*
X-3949550D01*
G01X-3915080Y1459370D02*
X-3909240Y1467240D01*
X-3902420Y1471180D01*
X-3894630Y1472490D01*
X-3884900Y1469870D01*
X-3878080Y1463300D01*
X-3876130Y1455430D01*
X-3877110Y1447550D01*
X-3881000Y1440990D01*
X-3900470Y1427870D01*
X-3909240Y1418680D01*
X-3915080Y1405560D01*
X-3917030Y1393750D01*
X-3876130D01*
G01X-4067890Y1723750D02*
Y1802490D01*
X-4043550D01*
X-4035760Y1798550D01*
X-4030890Y1793300D01*
X-4028950Y1782800D01*
X-4030890Y1772310D01*
X-4036740Y1765750D01*
X-4043550Y1761810D01*
X-4067890D01*
G01X-4043550D02*
X-4028950Y1723750D01*
G01X-3993500Y1789370D02*
X-3987660Y1797240D01*
X-3980840Y1801180D01*
X-3973050Y1802490D01*
X-3963320Y1799870D01*
X-3956500Y1793300D01*
X-3954550Y1785430D01*
X-3955530Y1777550D01*
X-3959420Y1770990D01*
X-3978890Y1757870D01*
X-3987660Y1748680D01*
X-3993500Y1735560D01*
X-3995450Y1723750D01*
X-3954550D01*
G01X-3918130Y1732930D02*
X-3911320Y1726370D01*
X-3903530Y1723750D01*
X-3895740Y1726370D01*
X-3888920Y1734250D01*
X-3884050Y1746060D01*
X-3882110Y1757870D01*
Y1772310D01*
X-3884050Y1784120D01*
X-3888920Y1794620D01*
X-3894760Y1799870D01*
X-3901580Y1802490D01*
X-3909370Y1799870D01*
X-3915210Y1794620D01*
X-3919110Y1786740D01*
X-3921050Y1776240D01*
X-3919110Y1767060D01*
X-3914240Y1757870D01*
X-3908400Y1752620D01*
X-3901580Y1751310D01*
X-3893790Y1753930D01*
X-3887950Y1760490D01*
X-3882110Y1772310D01*
G01X-4064940Y1974950D02*
Y2053690D01*
X-4040600D01*
X-4032810Y2049750D01*
X-4027940Y2044500D01*
X-4026000Y2034000D01*
X-4027940Y2023510D01*
X-4033790Y2016950D01*
X-4040600Y2013010D01*
X-4064940D01*
G01X-4040600D02*
X-4026000Y1974950D01*
G01X-3993470Y1990700D02*
X-3987630Y1981510D01*
X-3979840Y1976260D01*
X-3971080Y1974950D01*
X-3963290Y1976260D01*
X-3955500Y1982820D01*
X-3950630Y1990700D01*
X-3949660Y1998570D01*
X-3951600Y2007760D01*
X-3958420Y2014320D01*
X-3965230Y2016950D01*
X-3974000D01*
G01X-3965230D02*
X-3959390Y2020880D01*
X-3954520Y2027440D01*
X-3952580Y2035320D01*
X-3954520Y2043190D01*
X-3959390Y2049750D01*
X-3968160Y2053690D01*
X-3976920Y2052380D01*
X-3985680Y2047130D01*
G01X-3898630Y2053690D02*
X-3906420Y2051070D01*
X-3912260Y2044500D01*
X-3916160Y2036630D01*
X-3919080Y2026130D01*
X-3920050Y2014320D01*
X-3919080Y2002510D01*
X-3916160Y1992010D01*
X-3912260Y1984130D01*
X-3906420Y1977570D01*
X-3898630Y1974950D01*
X-3890840Y1977570D01*
X-3885000Y1984130D01*
X-3881100Y1992010D01*
X-3878180Y2002510D01*
X-3877210Y2014320D01*
X-3878180Y2026130D01*
X-3881100Y2036630D01*
X-3885000Y2044500D01*
X-3890840Y2051070D01*
X-3898630Y2053690D01*
G01X-4064940Y2234950D02*
Y2313690D01*
X-4040600D01*
X-4032810Y2309750D01*
X-4027940Y2304500D01*
X-4026000Y2294000D01*
X-4027940Y2283510D01*
X-4033790Y2276950D01*
X-4040600Y2273010D01*
X-4064940D01*
G01X-4040600D02*
X-4026000Y2234950D01*
G01X-3993470Y2250700D02*
X-3987630Y2241510D01*
X-3979840Y2236260D01*
X-3971080Y2234950D01*
X-3963290Y2236260D01*
X-3955500Y2242820D01*
X-3950630Y2250700D01*
X-3949660Y2258570D01*
X-3951600Y2267760D01*
X-3958420Y2274320D01*
X-3965230Y2276950D01*
X-3974000D01*
G01X-3965230D02*
X-3959390Y2280880D01*
X-3954520Y2287440D01*
X-3952580Y2295320D01*
X-3954520Y2303190D01*
X-3959390Y2309750D01*
X-3968160Y2313690D01*
X-3976920Y2312380D01*
X-3985680Y2307130D01*
G01X-3917130Y2300570D02*
X-3911290Y2308440D01*
X-3904470Y2312380D01*
X-3896680Y2313690D01*
X-3886950Y2311070D01*
X-3880130Y2304500D01*
X-3878180Y2296630D01*
X-3879160Y2288750D01*
X-3883050Y2282190D01*
X-3902520Y2269070D01*
X-3911290Y2259880D01*
X-3917130Y2246760D01*
X-3919080Y2234950D01*
X-3878180D01*
G01X-4067540Y2493750D02*
Y2572490D01*
X-4043200D01*
X-4035410Y2568550D01*
X-4030540Y2563300D01*
X-4028600Y2552800D01*
X-4030540Y2542310D01*
X-4036390Y2535750D01*
X-4043200Y2531810D01*
X-4067540D01*
G01X-4043200D02*
X-4028600Y2493750D01*
G01X-3996070Y2509500D02*
X-3990230Y2500310D01*
X-3982440Y2495060D01*
X-3973680Y2493750D01*
X-3965890Y2495060D01*
X-3958100Y2501620D01*
X-3953230Y2509500D01*
X-3952260Y2517370D01*
X-3954200Y2526560D01*
X-3961020Y2533120D01*
X-3967830Y2535750D01*
X-3976600D01*
G01X-3967830D02*
X-3961990Y2539680D01*
X-3957120Y2546240D01*
X-3955180Y2554120D01*
X-3957120Y2561990D01*
X-3961990Y2568550D01*
X-3970760Y2572490D01*
X-3979520Y2571180D01*
X-3988280Y2565930D01*
G01X-3922650Y2509500D02*
X-3916810Y2500310D01*
X-3909020Y2495060D01*
X-3900260Y2493750D01*
X-3892470Y2495060D01*
X-3884680Y2501620D01*
X-3879810Y2509500D01*
X-3878840Y2517370D01*
X-3880780Y2526560D01*
X-3887600Y2533120D01*
X-3894410Y2535750D01*
X-3903180D01*
G01X-3894410D02*
X-3888570Y2539680D01*
X-3883700Y2546240D01*
X-3881760Y2554120D01*
X-3883700Y2561990D01*
X-3888570Y2568550D01*
X-3897340Y2572490D01*
X-3906100Y2571180D01*
X-3914860Y2565930D01*
G01X-4078130Y3251510D02*
Y3330250D01*
X-4058660D01*
X-4050870Y3326310D01*
X-4045030Y3321060D01*
X-4040160Y3313190D01*
X-4036260Y3304000D01*
X-4035290Y3290880D01*
X-4036260Y3277760D01*
X-4040160Y3268570D01*
X-4045030Y3260690D01*
X-4050870Y3255450D01*
X-4058660Y3251510D01*
X-4078130D01*
G01X-3971610D02*
Y3330250D01*
X-4007630Y3273820D01*
X-3958950D01*
G01X-3983860Y3589000D02*
X-4062600D01*
G01Y3626000D02*
X-4014040Y3589000D01*
G01X-3983860Y3631840D02*
X-4036350Y3605550D01*
G01X-3873520Y-3731170D02*
Y-3652430D01*
X-3849180D01*
X-3841390Y-3656370D01*
X-3836520Y-3661620D01*
X-3834580Y-3672120D01*
X-3836520Y-3682610D01*
X-3842370Y-3689170D01*
X-3849180Y-3693110D01*
X-3873520D01*
G01X-3849180D02*
X-3834580Y-3731170D01*
G01X-3759210Y-3658990D02*
X-3765050Y-3655050D01*
X-3771870Y-3652430D01*
X-3779660D01*
X-3788420Y-3656370D01*
X-3795230Y-3662930D01*
X-3800100Y-3670800D01*
X-3804000Y-3683930D01*
X-3804970Y-3695740D01*
X-3803020Y-3707550D01*
X-3800100Y-3715420D01*
X-3794260Y-3723300D01*
X-3787450Y-3728550D01*
X-3780630Y-3731170D01*
X-3773810D01*
X-3767000Y-3728550D01*
X-3761160Y-3724610D01*
X-3756290Y-3719360D01*
G01X-3709160Y-3731170D02*
X-3707210Y-3714110D01*
X-3704290Y-3699680D01*
X-3700390Y-3686550D01*
X-3695530Y-3672120D01*
X-3687740Y-3652430D01*
X-3726680D01*
G01X-3838130Y3256510D02*
Y3335250D01*
X-3818660D01*
X-3810870Y3331310D01*
X-3805030Y3326060D01*
X-3800160Y3318190D01*
X-3796260Y3309000D01*
X-3795290Y3295880D01*
X-3796260Y3282760D01*
X-3800160Y3273570D01*
X-3805030Y3265690D01*
X-3810870Y3260450D01*
X-3818660Y3256510D01*
X-3838130D01*
G01X-3764710Y3268320D02*
X-3758870Y3261760D01*
X-3752050Y3257820D01*
X-3743290Y3256510D01*
X-3734530Y3259130D01*
X-3727710Y3264380D01*
X-3722840Y3273570D01*
X-3721870Y3284070D01*
X-3723820Y3294570D01*
X-3728690Y3301130D01*
X-3735500Y3306380D01*
X-3742320Y3307690D01*
X-3749130Y3306380D01*
X-3757890Y3301130D01*
X-3754970Y3335250D01*
X-3728690D01*
G01X-3738860Y3589000D02*
X-3817600D01*
G01Y3626000D02*
X-3769040Y3589000D01*
G01X-3738860Y3631840D02*
X-3791350Y3605550D01*
G01X-3303540Y-5865520D02*
X-3430540D01*
Y-5825310D01*
X-3424190Y-5812440D01*
X-3415720Y-5804390D01*
X-3398790Y-5801180D01*
X-3381860Y-5804390D01*
X-3371270Y-5814050D01*
X-3364920Y-5825310D01*
Y-5865520D01*
G01Y-5825310D02*
X-3303540Y-5801180D01*
G01X-3409370Y-5757400D02*
X-3422070Y-5747740D01*
X-3428420Y-5736480D01*
X-3430540Y-5723610D01*
X-3426310Y-5707530D01*
X-3415720Y-5696260D01*
X-3403030Y-5693050D01*
X-3390320Y-5694660D01*
X-3379740Y-5701090D01*
X-3358570Y-5733260D01*
X-3343760Y-5747740D01*
X-3322590Y-5757400D01*
X-3303540Y-5760610D01*
Y-5693050D01*
G01X-3322590Y-5655700D02*
X-3312000Y-5646050D01*
X-3305660Y-5634790D01*
X-3303540Y-5620310D01*
X-3307770Y-5605830D01*
X-3316240Y-5594570D01*
X-3331050Y-5586530D01*
X-3347990Y-5584920D01*
X-3364920Y-5588140D01*
X-3375510Y-5596180D01*
X-3383970Y-5607440D01*
X-3386090Y-5618700D01*
X-3383970Y-5629960D01*
X-3375510Y-5644440D01*
X-3430540Y-5639610D01*
Y-5596180D01*
G01X-3605930Y-752000D02*
X-3609870Y-757840D01*
X-3612490Y-764660D01*
Y-772450D01*
X-3608550Y-781210D01*
X-3601990Y-788020D01*
X-3594120Y-792890D01*
X-3580990Y-796790D01*
X-3569180Y-797760D01*
X-3557370Y-795810D01*
X-3549500Y-792890D01*
X-3541620Y-787050D01*
X-3536370Y-780240D01*
X-3533750Y-773420D01*
Y-766600D01*
X-3536370Y-759790D01*
X-3540310Y-753950D01*
X-3545560Y-749080D01*
G01X-3599370Y-718500D02*
X-3607240Y-712660D01*
X-3611180Y-705840D01*
X-3612490Y-698050D01*
X-3609870Y-688320D01*
X-3603300Y-681500D01*
X-3595430Y-679550D01*
X-3587550Y-680530D01*
X-3580990Y-684420D01*
X-3567870Y-703890D01*
X-3558680Y-712660D01*
X-3545560Y-718500D01*
X-3533750Y-720450D01*
Y-679550D01*
G01X-3549500Y-648000D02*
X-3540310Y-642160D01*
X-3535060Y-634370D01*
X-3533750Y-625610D01*
X-3535060Y-617820D01*
X-3541620Y-610030D01*
X-3549500Y-605160D01*
X-3557370Y-604190D01*
X-3566560Y-606130D01*
X-3573120Y-612950D01*
X-3575750Y-619760D01*
Y-628530D01*
G01Y-619760D02*
X-3579680Y-613920D01*
X-3586240Y-609050D01*
X-3594120Y-607110D01*
X-3601990Y-609050D01*
X-3608550Y-613920D01*
X-3612490Y-622690D01*
X-3611180Y-631450D01*
X-3605930Y-640210D01*
G01X-3354850Y-202040D02*
X-3433590D01*
Y-177700D01*
X-3429650Y-169910D01*
X-3424400Y-165040D01*
X-3413900Y-163100D01*
X-3403410Y-165040D01*
X-3396850Y-170890D01*
X-3392910Y-177700D01*
Y-202040D01*
G01Y-177700D02*
X-3354850Y-163100D01*
G01X-3370600Y-130570D02*
X-3361410Y-124730D01*
X-3356160Y-116940D01*
X-3354850Y-108180D01*
X-3356160Y-100390D01*
X-3362720Y-92600D01*
X-3370600Y-87730D01*
X-3378470Y-86760D01*
X-3387660Y-88700D01*
X-3394220Y-95520D01*
X-3396850Y-102330D01*
Y-111100D01*
G01Y-102330D02*
X-3400780Y-96490D01*
X-3407340Y-91620D01*
X-3415220Y-89680D01*
X-3423090Y-91620D01*
X-3429650Y-96490D01*
X-3433590Y-105260D01*
X-3432280Y-114020D01*
X-3427030Y-122780D01*
G01X-3354850Y-35730D02*
X-3433590D01*
X-3417840Y-47410D01*
G01X-3354850D02*
Y-24050D01*
G01X-3505130Y657490D02*
Y578750D01*
G01X-3527520Y657490D02*
X-3482740D01*
G01X-3451180Y578750D02*
Y657490D01*
X-3427820D01*
X-3420030Y653550D01*
X-3414180Y644370D01*
X-3412240Y633870D01*
X-3414180Y623370D01*
X-3419050Y615490D01*
X-3427820Y611560D01*
X-3451180D01*
G01X-3376790Y644370D02*
X-3370950Y652240D01*
X-3364130Y656180D01*
X-3356340Y657490D01*
X-3346610Y654870D01*
X-3339790Y648300D01*
X-3337840Y640430D01*
X-3338820Y632550D01*
X-3342710Y625990D01*
X-3362180Y612870D01*
X-3370950Y603680D01*
X-3376790Y590560D01*
X-3378740Y578750D01*
X-3337840D01*
G01X-3273190D02*
Y657490D01*
X-3309210Y601060D01*
X-3260530D01*
G01X-3212000Y-659070D02*
X-3217840Y-655130D01*
X-3224660Y-652510D01*
X-3232450D01*
X-3241210Y-656450D01*
X-3248020Y-663010D01*
X-3252890Y-670880D01*
X-3256790Y-684010D01*
X-3257760Y-695820D01*
X-3255810Y-707630D01*
X-3252890Y-715500D01*
X-3247050Y-723380D01*
X-3240240Y-728630D01*
X-3233420Y-731250D01*
X-3226600D01*
X-3219790Y-728630D01*
X-3213950Y-724690D01*
X-3209080Y-719440D01*
G01X-3178500Y-665630D02*
X-3172660Y-657760D01*
X-3165840Y-653820D01*
X-3158050Y-652510D01*
X-3148320Y-655130D01*
X-3141500Y-661700D01*
X-3139550Y-669570D01*
X-3140530Y-677450D01*
X-3144420Y-684010D01*
X-3163890Y-697130D01*
X-3172660Y-706320D01*
X-3178500Y-719440D01*
X-3180450Y-731250D01*
X-3139550D01*
G01X-3086580D02*
Y-652510D01*
X-3098260Y-668260D01*
G01Y-731250D02*
X-3074900D01*
G01X-3170250Y-377500D02*
Y-400870D01*
G01X-3153190Y-388210D02*
X-3187320D01*
G01X-3192030Y-161150D02*
X-3195970Y-166990D01*
X-3198590Y-173810D01*
Y-181600D01*
X-3194650Y-190360D01*
X-3188090Y-197170D01*
X-3180220Y-202040D01*
X-3167090Y-205940D01*
X-3155280Y-206910D01*
X-3143470Y-204960D01*
X-3135600Y-202040D01*
X-3127720Y-196200D01*
X-3122470Y-189390D01*
X-3119850Y-182570D01*
Y-175750D01*
X-3122470Y-168940D01*
X-3126410Y-163100D01*
X-3131660Y-158230D01*
G01X-3185470Y-127650D02*
X-3193340Y-121810D01*
X-3197280Y-114990D01*
X-3198590Y-107200D01*
X-3195970Y-97470D01*
X-3189400Y-90650D01*
X-3181530Y-88700D01*
X-3173650Y-89680D01*
X-3167090Y-93570D01*
X-3153970Y-113040D01*
X-3144780Y-121810D01*
X-3131660Y-127650D01*
X-3119850Y-129600D01*
Y-88700D01*
G01X-3131660Y-57150D02*
X-3125100Y-51310D01*
X-3121160Y-44490D01*
X-3119850Y-35730D01*
X-3122470Y-26970D01*
X-3127720Y-20150D01*
X-3136910Y-15280D01*
X-3147410Y-14310D01*
X-3157910Y-16260D01*
X-3164470Y-21130D01*
X-3169720Y-27940D01*
X-3171030Y-34760D01*
X-3169720Y-41570D01*
X-3164470Y-50330D01*
X-3198590Y-47410D01*
Y-21130D01*
G01X-3107000Y1065930D02*
X-3112840Y1069870D01*
X-3119660Y1072490D01*
X-3127450D01*
X-3136210Y1068550D01*
X-3143020Y1061990D01*
X-3147890Y1054120D01*
X-3151790Y1040990D01*
X-3152760Y1029180D01*
X-3150810Y1017370D01*
X-3147890Y1009500D01*
X-3142050Y1001620D01*
X-3135240Y996370D01*
X-3128420Y993750D01*
X-3121600D01*
X-3114790Y996370D01*
X-3108950Y1000310D01*
X-3104080Y1005560D01*
G01X-3055000Y993750D02*
Y1072490D01*
X-3066680Y1056740D01*
G01Y993750D02*
X-3043320D01*
G01X-2983530D02*
X-2981580Y1010810D01*
X-2978660Y1025240D01*
X-2974760Y1038370D01*
X-2969900Y1052800D01*
X-2962110Y1072490D01*
X-3001050D01*
G01X-3173750Y1367110D02*
X-3252490D01*
Y1391450D01*
X-3248550Y1399240D01*
X-3243300Y1404110D01*
X-3232800Y1406050D01*
X-3222310Y1404110D01*
X-3215750Y1398260D01*
X-3211810Y1391450D01*
Y1367110D01*
G01Y1391450D02*
X-3173750Y1406050D01*
G01Y1460000D02*
X-3252490D01*
X-3236740Y1448320D01*
G01X-3173750D02*
Y1471680D01*
G01Y1531470D02*
X-3190810Y1533420D01*
X-3205240Y1536340D01*
X-3218370Y1540240D01*
X-3232800Y1545100D01*
X-3252490Y1552890D01*
Y1513950D01*
G01X-3287890Y3429500D02*
Y3508240D01*
X-3299570Y3492490D01*
G01Y3429500D02*
X-3276210D01*
G01X-3306390Y3749120D02*
X-3300550Y3756990D01*
X-3293730Y3760930D01*
X-3285940Y3762240D01*
X-3276210Y3759620D01*
X-3269390Y3753050D01*
X-3267440Y3745180D01*
X-3268420Y3737300D01*
X-3272310Y3730740D01*
X-3291780Y3717620D01*
X-3300550Y3708430D01*
X-3306390Y3695310D01*
X-3308340Y3683500D01*
X-3267440D01*
G01X-3090890Y-3483860D02*
Y-3562600D01*
G01X-3113280Y-3483860D02*
X-3068500D01*
G01X-3036940Y-3562600D02*
Y-3483860D01*
X-3013580D01*
X-3005790Y-3487800D01*
X-2999940Y-3496980D01*
X-2998000Y-3507480D01*
X-2999940Y-3517980D01*
X-3004810Y-3525860D01*
X-3013580Y-3529790D01*
X-3036940D01*
G01X-2944050Y-3562600D02*
Y-3483860D01*
X-2955730Y-3499610D01*
G01Y-3562600D02*
X-2932370D01*
G01X-2887180Y-3553420D02*
X-2880370Y-3559980D01*
X-2872580Y-3562600D01*
X-2864790Y-3559980D01*
X-2857970Y-3552100D01*
X-2853100Y-3540290D01*
X-2851160Y-3528480D01*
Y-3514040D01*
X-2853100Y-3502230D01*
X-2857970Y-3491730D01*
X-2863810Y-3486480D01*
X-2870630Y-3483860D01*
X-2878420Y-3486480D01*
X-2884260Y-3491730D01*
X-2888160Y-3499610D01*
X-2890100Y-3510110D01*
X-2888160Y-3519290D01*
X-2883290Y-3528480D01*
X-2877450Y-3533730D01*
X-2870630Y-3535040D01*
X-2862840Y-3532420D01*
X-2857000Y-3525860D01*
X-2851160Y-3514040D01*
G01X-3040130Y862490D02*
Y783750D01*
G01X-3062520Y862490D02*
X-3017740D01*
G01X-2986180Y783750D02*
Y862490D01*
X-2962820D01*
X-2955030Y858550D01*
X-2949180Y849370D01*
X-2947240Y838870D01*
X-2949180Y828370D01*
X-2954050Y820490D01*
X-2962820Y816560D01*
X-2986180D01*
G01X-2911790Y849370D02*
X-2905950Y857240D01*
X-2899130Y861180D01*
X-2891340Y862490D01*
X-2881610Y859870D01*
X-2874790Y853300D01*
X-2872840Y845430D01*
X-2873820Y837550D01*
X-2877710Y830990D01*
X-2897180Y817870D01*
X-2905950Y808680D01*
X-2911790Y795560D01*
X-2913740Y783750D01*
X-2872840D01*
G01X-2819870Y862490D02*
X-2827660Y859870D01*
X-2833500Y853300D01*
X-2837400Y845430D01*
X-2840320Y834930D01*
X-2841290Y823120D01*
X-2840320Y811310D01*
X-2837400Y800810D01*
X-2833500Y792930D01*
X-2827660Y786370D01*
X-2819870Y783750D01*
X-2812080Y786370D01*
X-2806240Y792930D01*
X-2802340Y800810D01*
X-2799420Y811310D01*
X-2798450Y823120D01*
X-2799420Y834930D01*
X-2802340Y845430D01*
X-2806240Y853300D01*
X-2812080Y859870D01*
X-2819870Y862490D01*
G01X-2838750Y1357110D02*
X-2917490D01*
Y1381450D01*
X-2913550Y1389240D01*
X-2908300Y1394110D01*
X-2897800Y1396050D01*
X-2887310Y1394110D01*
X-2880750Y1388260D01*
X-2876810Y1381450D01*
Y1357110D01*
G01Y1381450D02*
X-2838750Y1396050D01*
G01Y1450000D02*
X-2917490D01*
X-2901740Y1438320D01*
G01X-2838750D02*
Y1461680D01*
G01X-2847930Y1506870D02*
X-2841370Y1513680D01*
X-2838750Y1521470D01*
X-2841370Y1529260D01*
X-2849250Y1536080D01*
X-2861060Y1540950D01*
X-2872870Y1542890D01*
X-2887310D01*
X-2899120Y1540950D01*
X-2909620Y1536080D01*
X-2914870Y1530240D01*
X-2917490Y1523420D01*
X-2914870Y1515630D01*
X-2909620Y1509790D01*
X-2901740Y1505890D01*
X-2891240Y1503950D01*
X-2882060Y1505890D01*
X-2872870Y1510760D01*
X-2867620Y1516600D01*
X-2866310Y1523420D01*
X-2868930Y1531210D01*
X-2875490Y1537050D01*
X-2887310Y1542890D01*
G01X-3002470Y2855830D02*
Y2934570D01*
X-2983000D01*
X-2975210Y2930630D01*
X-2969370Y2925380D01*
X-2964500Y2917510D01*
X-2960600Y2908320D01*
X-2959630Y2895200D01*
X-2960600Y2882080D01*
X-2964500Y2872890D01*
X-2969370Y2865010D01*
X-2975210Y2859770D01*
X-2983000Y2855830D01*
X-3002470D01*
G01X-2926130Y2888640D02*
X-2919310Y2897830D01*
X-2913470Y2903070D01*
X-2905680Y2905700D01*
X-2898870Y2903070D01*
X-2894000Y2897830D01*
X-2890100Y2889950D01*
X-2889130Y2880760D01*
X-2890100Y2872890D01*
X-2894000Y2865010D01*
X-2899840Y2858450D01*
X-2906660Y2855830D01*
X-2914450Y2858450D01*
X-2921260Y2866330D01*
X-2925160Y2878140D01*
X-2926130Y2891260D01*
X-2924180Y2908320D01*
X-2921260Y2917510D01*
X-2916390Y2926700D01*
X-2909580Y2933260D01*
X-2902760Y2934570D01*
X-2895950Y2931950D01*
X-2891080Y2925380D01*
G01X-3119080Y2988640D02*
Y3067380D01*
G01X-3082080D02*
X-3119080Y3018820D01*
G01X-3076240Y2988640D02*
X-3102530Y3041130D01*
G01X-2578740Y-5865520D02*
X-2705740D01*
Y-5825310D01*
X-2699390Y-5812440D01*
X-2690920Y-5804390D01*
X-2673990Y-5801180D01*
X-2657060Y-5804390D01*
X-2646470Y-5814050D01*
X-2640120Y-5825310D01*
Y-5865520D01*
G01Y-5825310D02*
X-2578740Y-5801180D01*
G01X-2684570Y-5757400D02*
X-2697270Y-5747740D01*
X-2703620Y-5736480D01*
X-2705740Y-5723610D01*
X-2701510Y-5707530D01*
X-2690920Y-5696260D01*
X-2678230Y-5693050D01*
X-2665520Y-5694660D01*
X-2654940Y-5701090D01*
X-2633770Y-5733260D01*
X-2618960Y-5747740D01*
X-2597790Y-5757400D01*
X-2578740Y-5760610D01*
Y-5693050D01*
G01X-2631650Y-5650880D02*
X-2646470Y-5639610D01*
X-2654940Y-5629960D01*
X-2659170Y-5617090D01*
X-2654940Y-5605830D01*
X-2646470Y-5597790D01*
X-2633770Y-5591350D01*
X-2618960Y-5589740D01*
X-2606250Y-5591350D01*
X-2593550Y-5597790D01*
X-2582970Y-5607440D01*
X-2578740Y-5618700D01*
X-2582970Y-5631570D01*
X-2595670Y-5642830D01*
X-2614720Y-5649270D01*
X-2635890Y-5650880D01*
X-2663400Y-5647660D01*
X-2678230Y-5642830D01*
X-2693040Y-5634790D01*
X-2703620Y-5623530D01*
X-2705740Y-5612270D01*
X-2701510Y-5601010D01*
X-2690920Y-5592960D01*
G01X-2755130Y-4452510D02*
Y-4531250D01*
G01X-2777520Y-4452510D02*
X-2732740D01*
G01X-2701180Y-4531250D02*
Y-4452510D01*
X-2677820D01*
X-2670030Y-4456450D01*
X-2664180Y-4465630D01*
X-2662240Y-4476130D01*
X-2664180Y-4486630D01*
X-2669050Y-4494510D01*
X-2677820Y-4498440D01*
X-2701180D01*
G01X-2608290Y-4531250D02*
Y-4452510D01*
X-2619970Y-4468260D01*
G01Y-4531250D02*
X-2596610D01*
G01X-2534870D02*
X-2528050Y-4529940D01*
X-2520270Y-4526000D01*
X-2515400Y-4519440D01*
X-2513450Y-4510250D01*
X-2515400Y-4501070D01*
X-2521240Y-4493190D01*
X-2530000Y-4489250D01*
X-2539740D01*
X-2545580Y-4486630D01*
X-2550450Y-4480070D01*
X-2552400Y-4470880D01*
X-2549470Y-4461700D01*
X-2542660Y-4455130D01*
X-2534870Y-4452510D01*
X-2527080Y-4455130D01*
X-2520270Y-4461700D01*
X-2517340Y-4470880D01*
X-2519290Y-4480070D01*
X-2524160Y-4486630D01*
X-2530000Y-4489250D01*
X-2539740D01*
X-2548500Y-4493190D01*
X-2554340Y-4501070D01*
X-2556290Y-4510250D01*
X-2554340Y-4519440D01*
X-2549470Y-4526000D01*
X-2541690Y-4529940D01*
X-2534870Y-4531250D01*
G01X-2805130Y7490D02*
Y-71250D01*
G01X-2827520Y7490D02*
X-2782740D01*
G01X-2751180Y-71250D02*
Y7490D01*
X-2727820D01*
X-2720030Y3550D01*
X-2714180Y-5630D01*
X-2712240Y-16130D01*
X-2714180Y-26630D01*
X-2719050Y-34510D01*
X-2727820Y-38440D01*
X-2751180D01*
G01X-2676790Y-5630D02*
X-2670950Y2240D01*
X-2664130Y6180D01*
X-2656340Y7490D01*
X-2646610Y4870D01*
X-2639790Y-1700D01*
X-2637840Y-9570D01*
X-2638820Y-17450D01*
X-2642710Y-24010D01*
X-2662180Y-37130D01*
X-2670950Y-46320D01*
X-2676790Y-59440D01*
X-2678740Y-71250D01*
X-2637840D01*
G01X-2603370Y-5630D02*
X-2597530Y2240D01*
X-2590710Y6180D01*
X-2582920Y7490D01*
X-2573190Y4870D01*
X-2566370Y-1700D01*
X-2564420Y-9570D01*
X-2565400Y-17450D01*
X-2569290Y-24010D01*
X-2588760Y-37130D01*
X-2597530Y-46320D01*
X-2603370Y-59440D01*
X-2605320Y-71250D01*
X-2564420D01*
G01X-2650130Y577490D02*
Y498750D01*
G01X-2672520Y577490D02*
X-2627740D01*
G01X-2596180Y498750D02*
Y577490D01*
X-2572820D01*
X-2565030Y573550D01*
X-2559180Y564370D01*
X-2557240Y553870D01*
X-2559180Y543370D01*
X-2564050Y535490D01*
X-2572820Y531560D01*
X-2596180D01*
G01X-2503290Y498750D02*
Y577490D01*
X-2514970Y561740D01*
G01Y498750D02*
X-2491610D01*
G01X-2431820D02*
X-2429870Y515810D01*
X-2426950Y530240D01*
X-2423050Y543370D01*
X-2418190Y557800D01*
X-2410400Y577490D01*
X-2449340D01*
G01X-2598750Y1362110D02*
X-2677490D01*
Y1386450D01*
X-2673550Y1394240D01*
X-2668300Y1399110D01*
X-2657800Y1401050D01*
X-2647310Y1399110D01*
X-2640750Y1393260D01*
X-2636810Y1386450D01*
Y1362110D01*
G01Y1386450D02*
X-2598750Y1401050D01*
G01Y1455000D02*
X-2677490D01*
X-2661740Y1443320D01*
G01X-2598750D02*
Y1466680D01*
G01X-2614500Y1507000D02*
X-2605310Y1512840D01*
X-2600060Y1520630D01*
X-2598750Y1529390D01*
X-2600060Y1537180D01*
X-2606620Y1544970D01*
X-2614500Y1549840D01*
X-2622370Y1550810D01*
X-2631560Y1548870D01*
X-2638120Y1542050D01*
X-2640750Y1535240D01*
Y1526470D01*
G01Y1535240D02*
X-2644680Y1541080D01*
X-2651240Y1545950D01*
X-2659120Y1547890D01*
X-2666990Y1545950D01*
X-2673550Y1541080D01*
X-2677490Y1532310D01*
X-2676180Y1523550D01*
X-2670930Y1514790D01*
G01X-2436990Y-3578860D02*
Y-3657600D01*
G01X-2459380Y-3578860D02*
X-2414600D01*
G01X-2383040Y-3657600D02*
Y-3578860D01*
X-2359680D01*
X-2351890Y-3582800D01*
X-2346040Y-3591980D01*
X-2344100Y-3602480D01*
X-2346040Y-3612980D01*
X-2350910Y-3620860D01*
X-2359680Y-3624790D01*
X-2383040D01*
G01X-2290150Y-3657600D02*
Y-3578860D01*
X-2301830Y-3594610D01*
G01Y-3657600D02*
X-2278470D01*
G01X-2235230Y-3624790D02*
X-2228410Y-3615600D01*
X-2222570Y-3610360D01*
X-2214780Y-3607730D01*
X-2207970Y-3610360D01*
X-2203100Y-3615600D01*
X-2199200Y-3623480D01*
X-2198230Y-3632670D01*
X-2199200Y-3640540D01*
X-2203100Y-3648420D01*
X-2208940Y-3654980D01*
X-2215760Y-3657600D01*
X-2223550Y-3654980D01*
X-2230360Y-3647100D01*
X-2234260Y-3635290D01*
X-2235230Y-3622170D01*
X-2233280Y-3605110D01*
X-2230360Y-3595920D01*
X-2225490Y-3586730D01*
X-2218680Y-3580170D01*
X-2211860Y-3578860D01*
X-2205050Y-3581480D01*
X-2200180Y-3588050D01*
G01X-2592000Y-1179070D02*
X-2597840Y-1175130D01*
X-2604660Y-1172510D01*
X-2612450D01*
X-2621210Y-1176450D01*
X-2628020Y-1183010D01*
X-2632890Y-1190880D01*
X-2636790Y-1204010D01*
X-2637760Y-1215820D01*
X-2635810Y-1227630D01*
X-2632890Y-1235500D01*
X-2627050Y-1243380D01*
X-2620240Y-1248630D01*
X-2613420Y-1251250D01*
X-2606600D01*
X-2599790Y-1248630D01*
X-2593950Y-1244690D01*
X-2589080Y-1239440D01*
G01X-2540000Y-1251250D02*
Y-1172510D01*
X-2551680Y-1188260D01*
G01Y-1251250D02*
X-2528320D01*
G01X-2485080Y-1218440D02*
X-2478260Y-1209250D01*
X-2472420Y-1204010D01*
X-2464630Y-1201380D01*
X-2457820Y-1204010D01*
X-2452950Y-1209250D01*
X-2449050Y-1217130D01*
X-2448080Y-1226320D01*
X-2449050Y-1234190D01*
X-2452950Y-1242070D01*
X-2458790Y-1248630D01*
X-2465610Y-1251250D01*
X-2473400Y-1248630D01*
X-2480210Y-1240750D01*
X-2484110Y-1228940D01*
X-2485080Y-1215820D01*
X-2483130Y-1198760D01*
X-2480210Y-1189570D01*
X-2475340Y-1180380D01*
X-2468530Y-1173820D01*
X-2461710Y-1172510D01*
X-2454900Y-1175130D01*
X-2450030Y-1181700D01*
G01X-2613840Y-986250D02*
Y-907510D01*
X-2589500D01*
X-2581710Y-911450D01*
X-2576840Y-916700D01*
X-2574900Y-927200D01*
X-2576840Y-937690D01*
X-2582690Y-944250D01*
X-2589500Y-948190D01*
X-2613840D01*
G01X-2589500D02*
X-2574900Y-986250D01*
G01X-2542370Y-974440D02*
X-2536530Y-981000D01*
X-2529710Y-984940D01*
X-2520950Y-986250D01*
X-2512190Y-983630D01*
X-2505370Y-978380D01*
X-2500500Y-969190D01*
X-2499530Y-958690D01*
X-2501480Y-948190D01*
X-2506350Y-941630D01*
X-2513160Y-936380D01*
X-2519980Y-935070D01*
X-2526790Y-936380D01*
X-2535550Y-941630D01*
X-2532630Y-907510D01*
X-2506350D01*
G01X-2468950Y-970500D02*
X-2463110Y-979690D01*
X-2455320Y-984940D01*
X-2446560Y-986250D01*
X-2438770Y-984940D01*
X-2430980Y-978380D01*
X-2426110Y-970500D01*
X-2425140Y-962630D01*
X-2427080Y-953440D01*
X-2433900Y-946880D01*
X-2440710Y-944250D01*
X-2449480D01*
G01X-2440710D02*
X-2434870Y-940320D01*
X-2430000Y-933760D01*
X-2428060Y-925880D01*
X-2430000Y-918010D01*
X-2434870Y-911450D01*
X-2443640Y-907510D01*
X-2452400Y-908820D01*
X-2461160Y-914070D01*
G01X-2592000Y-674070D02*
X-2597840Y-670130D01*
X-2604660Y-667510D01*
X-2612450D01*
X-2621210Y-671450D01*
X-2628020Y-678010D01*
X-2632890Y-685880D01*
X-2636790Y-699010D01*
X-2637760Y-710820D01*
X-2635810Y-722630D01*
X-2632890Y-730500D01*
X-2627050Y-738380D01*
X-2620240Y-743630D01*
X-2613420Y-746250D01*
X-2606600D01*
X-2599790Y-743630D01*
X-2593950Y-739690D01*
X-2589080Y-734440D01*
G01X-2540000Y-746250D02*
Y-667510D01*
X-2551680Y-683260D01*
G01Y-746250D02*
X-2528320D01*
G01X-2483130Y-737070D02*
X-2476320Y-743630D01*
X-2468530Y-746250D01*
X-2460740Y-743630D01*
X-2453920Y-735750D01*
X-2449050Y-723940D01*
X-2447110Y-712130D01*
Y-697690D01*
X-2449050Y-685880D01*
X-2453920Y-675380D01*
X-2459760Y-670130D01*
X-2466580Y-667510D01*
X-2474370Y-670130D01*
X-2480210Y-675380D01*
X-2484110Y-683260D01*
X-2486050Y-693760D01*
X-2484110Y-702940D01*
X-2479240Y-712130D01*
X-2473400Y-717380D01*
X-2466580Y-718690D01*
X-2458790Y-716070D01*
X-2452950Y-709510D01*
X-2447110Y-697690D01*
G01X-2430130Y182490D02*
Y103750D01*
G01X-2452520Y182490D02*
X-2407740D01*
G01X-2376180Y103750D02*
Y182490D01*
X-2352820D01*
X-2345030Y178550D01*
X-2339180Y169370D01*
X-2337240Y158870D01*
X-2339180Y148370D01*
X-2344050Y140490D01*
X-2352820Y136560D01*
X-2376180D01*
G01X-2301790Y169370D02*
X-2295950Y177240D01*
X-2289130Y181180D01*
X-2281340Y182490D01*
X-2271610Y179870D01*
X-2264790Y173300D01*
X-2262840Y165430D01*
X-2263820Y157550D01*
X-2267710Y150990D01*
X-2287180Y137870D01*
X-2295950Y128680D01*
X-2301790Y115560D01*
X-2303740Y103750D01*
X-2262840D01*
G01X-2231290Y119500D02*
X-2225450Y110310D01*
X-2217660Y105060D01*
X-2208900Y103750D01*
X-2201110Y105060D01*
X-2193320Y111620D01*
X-2188450Y119500D01*
X-2187480Y127370D01*
X-2189420Y136560D01*
X-2196240Y143120D01*
X-2203050Y145750D01*
X-2211820D01*
G01X-2203050D02*
X-2197210Y149680D01*
X-2192340Y156240D01*
X-2190400Y164120D01*
X-2192340Y171990D01*
X-2197210Y178550D01*
X-2205980Y182490D01*
X-2214740Y181180D01*
X-2223500Y175930D01*
G01X-2527000Y1060930D02*
X-2532840Y1064870D01*
X-2539660Y1067490D01*
X-2547450D01*
X-2556210Y1063550D01*
X-2563020Y1056990D01*
X-2567890Y1049120D01*
X-2571790Y1035990D01*
X-2572760Y1024180D01*
X-2570810Y1012370D01*
X-2567890Y1004500D01*
X-2562050Y996620D01*
X-2555240Y991370D01*
X-2548420Y988750D01*
X-2541600D01*
X-2534790Y991370D01*
X-2528950Y995310D01*
X-2524080Y1000560D01*
G01X-2475000Y988750D02*
Y1067490D01*
X-2486680Y1051740D01*
G01Y988750D02*
X-2463320D01*
G01X-2389900D02*
Y1067490D01*
X-2425920Y1011060D01*
X-2377240D01*
G01X-2215130Y832490D02*
Y753750D01*
G01X-2237520Y832490D02*
X-2192740D01*
G01X-2161180Y753750D02*
Y832490D01*
X-2137820D01*
X-2130030Y828550D01*
X-2124180Y819370D01*
X-2122240Y808870D01*
X-2124180Y798370D01*
X-2129050Y790490D01*
X-2137820Y786560D01*
X-2161180D01*
G01X-2068290Y753750D02*
X-2061470Y755060D01*
X-2053690Y759000D01*
X-2048820Y765560D01*
X-2046870Y774750D01*
X-2048820Y783930D01*
X-2054660Y791810D01*
X-2063420Y795750D01*
X-2073160D01*
X-2079000Y798370D01*
X-2083870Y804930D01*
X-2085820Y814120D01*
X-2082890Y823300D01*
X-2076080Y829870D01*
X-2068290Y832490D01*
X-2060500Y829870D01*
X-2053690Y823300D01*
X-2050760Y814120D01*
X-2052710Y804930D01*
X-2057580Y798370D01*
X-2063420Y795750D01*
X-2073160D01*
X-2081920Y791810D01*
X-2087760Y783930D01*
X-2089710Y774750D01*
X-2087760Y765560D01*
X-2082890Y759000D01*
X-2075110Y755060D01*
X-2068290Y753750D01*
G01X-2268750Y1357110D02*
X-2347490D01*
Y1381450D01*
X-2343550Y1389240D01*
X-2338300Y1394110D01*
X-2327800Y1396050D01*
X-2317310Y1394110D01*
X-2310750Y1388260D01*
X-2306810Y1381450D01*
Y1357110D01*
G01Y1381450D02*
X-2268750Y1396050D01*
G01Y1450000D02*
X-2347490D01*
X-2331740Y1438320D01*
G01X-2268750D02*
Y1461680D01*
G01Y1535100D02*
X-2347490D01*
X-2291060Y1499080D01*
Y1547760D01*
G01X-1838750Y-5866540D02*
X-1965750D01*
Y-5826330D01*
X-1959400Y-5813460D01*
X-1950930Y-5805410D01*
X-1934000Y-5802200D01*
X-1917070Y-5805410D01*
X-1906480Y-5815070D01*
X-1900130Y-5826330D01*
Y-5866540D01*
G01Y-5826330D02*
X-1838750Y-5802200D01*
G01X-1944580Y-5758420D02*
X-1957280Y-5748760D01*
X-1963630Y-5737500D01*
X-1965750Y-5724630D01*
X-1961520Y-5708550D01*
X-1950930Y-5697280D01*
X-1938240Y-5694070D01*
X-1925530Y-5695680D01*
X-1914950Y-5702110D01*
X-1893780Y-5734280D01*
X-1878970Y-5748760D01*
X-1857800Y-5758420D01*
X-1838750Y-5761630D01*
Y-5694070D01*
G01Y-5624550D02*
X-1866260Y-5621330D01*
X-1889550Y-5616500D01*
X-1910720Y-5610070D01*
X-1934000Y-5602030D01*
X-1965750Y-5589160D01*
Y-5653500D01*
G01X-1933090Y-3958860D02*
Y-4037600D01*
G01X-1955480Y-3958860D02*
X-1910700D01*
G01X-1879140Y-4037600D02*
Y-3958860D01*
X-1855780D01*
X-1847990Y-3962800D01*
X-1842140Y-3971980D01*
X-1840200Y-3982480D01*
X-1842140Y-3992980D01*
X-1847010Y-4000860D01*
X-1855780Y-4004790D01*
X-1879140D01*
G01X-1786250Y-4037600D02*
Y-3958860D01*
X-1797930Y-3974610D01*
G01Y-4037600D02*
X-1774570D01*
G01X-1734250Y-4021850D02*
X-1728410Y-4031040D01*
X-1720620Y-4036290D01*
X-1711860Y-4037600D01*
X-1704070Y-4036290D01*
X-1696280Y-4029730D01*
X-1691410Y-4021850D01*
X-1690440Y-4013980D01*
X-1692380Y-4004790D01*
X-1699200Y-3998230D01*
X-1706010Y-3995600D01*
X-1714780D01*
G01X-1706010D02*
X-1700170Y-3991670D01*
X-1695300Y-3985110D01*
X-1693360Y-3977230D01*
X-1695300Y-3969360D01*
X-1700170Y-3962800D01*
X-1708940Y-3958860D01*
X-1717700Y-3960170D01*
X-1726460Y-3965420D01*
G01X-1833750Y-904940D02*
X-1912490D01*
Y-880600D01*
X-1908550Y-872810D01*
X-1903300Y-867940D01*
X-1892800Y-866000D01*
X-1882310Y-867940D01*
X-1875750Y-873790D01*
X-1871810Y-880600D01*
Y-904940D01*
G01Y-880600D02*
X-1833750Y-866000D01*
G01X-1899370Y-830550D02*
X-1907240Y-824710D01*
X-1911180Y-817890D01*
X-1912490Y-810100D01*
X-1909870Y-800370D01*
X-1903300Y-793550D01*
X-1895430Y-791600D01*
X-1887550Y-792580D01*
X-1880990Y-796470D01*
X-1867870Y-815940D01*
X-1858680Y-824710D01*
X-1845560Y-830550D01*
X-1833750Y-832500D01*
Y-791600D01*
G01Y-738630D02*
X-1835060Y-731810D01*
X-1839000Y-724030D01*
X-1845560Y-719160D01*
X-1854750Y-717210D01*
X-1863930Y-719160D01*
X-1871810Y-725000D01*
X-1875750Y-733760D01*
Y-743500D01*
X-1878370Y-749340D01*
X-1884930Y-754210D01*
X-1894120Y-756160D01*
X-1903300Y-753230D01*
X-1909870Y-746420D01*
X-1912490Y-738630D01*
X-1909870Y-730840D01*
X-1903300Y-724030D01*
X-1894120Y-721100D01*
X-1884930Y-723050D01*
X-1878370Y-727920D01*
X-1875750Y-733760D01*
Y-743500D01*
X-1871810Y-752260D01*
X-1863930Y-758100D01*
X-1854750Y-760050D01*
X-1845560Y-758100D01*
X-1839000Y-753230D01*
X-1835060Y-745450D01*
X-1833750Y-738630D01*
G01X-2140930Y-887000D02*
X-2144870Y-892840D01*
X-2147490Y-899660D01*
Y-907450D01*
X-2143550Y-916210D01*
X-2136990Y-923020D01*
X-2129120Y-927890D01*
X-2115990Y-931790D01*
X-2104180Y-932760D01*
X-2092370Y-930810D01*
X-2084500Y-927890D01*
X-2076620Y-922050D01*
X-2071370Y-915240D01*
X-2068750Y-908420D01*
Y-901600D01*
X-2071370Y-894790D01*
X-2075310Y-888950D01*
X-2080560Y-884080D01*
G01X-2134370Y-853500D02*
X-2142240Y-847660D01*
X-2146180Y-840840D01*
X-2147490Y-833050D01*
X-2144870Y-823320D01*
X-2138300Y-816500D01*
X-2130430Y-814550D01*
X-2122550Y-815530D01*
X-2115990Y-819420D01*
X-2102870Y-838890D01*
X-2093680Y-847660D01*
X-2080560Y-853500D01*
X-2068750Y-855450D01*
Y-814550D01*
G01X-2147490Y-761580D02*
X-2144870Y-769370D01*
X-2138300Y-775210D01*
X-2130430Y-779110D01*
X-2119930Y-782030D01*
X-2108120Y-783000D01*
X-2096310Y-782030D01*
X-2085810Y-779110D01*
X-2077930Y-775210D01*
X-2071370Y-769370D01*
X-2068750Y-761580D01*
X-2071370Y-753790D01*
X-2077930Y-747950D01*
X-2085810Y-744050D01*
X-2096310Y-741130D01*
X-2108120Y-740160D01*
X-2119930Y-741130D01*
X-2130430Y-744050D01*
X-2138300Y-747950D01*
X-2144870Y-753790D01*
X-2147490Y-761580D01*
G01X-2070130Y172490D02*
Y93750D01*
G01X-2092520Y172490D02*
X-2047740D01*
G01X-2016180Y93750D02*
Y172490D01*
X-1992820D01*
X-1985030Y168550D01*
X-1979180Y159370D01*
X-1977240Y148870D01*
X-1979180Y138370D01*
X-1984050Y130490D01*
X-1992820Y126560D01*
X-2016180D01*
G01X-1923290Y93750D02*
Y172490D01*
X-1934970Y156740D01*
G01Y93750D02*
X-1911610D01*
G01X-1871290Y105560D02*
X-1865450Y99000D01*
X-1858630Y95060D01*
X-1849870Y93750D01*
X-1841110Y96370D01*
X-1834290Y101620D01*
X-1829420Y110810D01*
X-1828450Y121310D01*
X-1830400Y131810D01*
X-1835270Y138370D01*
X-1842080Y143620D01*
X-1848900Y144930D01*
X-1855710Y143620D01*
X-1864470Y138370D01*
X-1861550Y172490D01*
X-1835270D01*
G01X-1880130Y587490D02*
Y508750D01*
G01X-1902520Y587490D02*
X-1857740D01*
G01X-1826180Y508750D02*
Y587490D01*
X-1802820D01*
X-1795030Y583550D01*
X-1789180Y574370D01*
X-1787240Y563870D01*
X-1789180Y553370D01*
X-1794050Y545490D01*
X-1802820Y541560D01*
X-1826180D01*
G01X-1733290Y508750D02*
Y587490D01*
X-1744970Y571740D01*
G01Y508750D02*
X-1721610D01*
G01X-1648190D02*
Y587490D01*
X-1684210Y531060D01*
X-1635530D01*
G01X-1952630Y1065930D02*
X-1958470Y1069870D01*
X-1965290Y1072490D01*
X-1973080D01*
X-1981840Y1068550D01*
X-1988650Y1061990D01*
X-1993520Y1054120D01*
X-1997420Y1040990D01*
X-1998390Y1029180D01*
X-1996440Y1017370D01*
X-1993520Y1009500D01*
X-1987680Y1001620D01*
X-1980870Y996370D01*
X-1974050Y993750D01*
X-1967230D01*
X-1960420Y996370D01*
X-1954580Y1000310D01*
X-1949710Y1005560D01*
G01X-1900630Y993750D02*
Y1072490D01*
X-1912310Y1056740D01*
G01Y993750D02*
X-1888950D01*
G01X-1827210Y1072490D02*
X-1835000Y1069870D01*
X-1840840Y1063300D01*
X-1844740Y1055430D01*
X-1847660Y1044930D01*
X-1848630Y1033120D01*
X-1847660Y1021310D01*
X-1844740Y1010810D01*
X-1840840Y1002930D01*
X-1835000Y996370D01*
X-1827210Y993750D01*
X-1819420Y996370D01*
X-1813580Y1002930D01*
X-1809680Y1010810D01*
X-1806760Y1021310D01*
X-1805790Y1033120D01*
X-1806760Y1044930D01*
X-1809680Y1055430D01*
X-1813580Y1063300D01*
X-1819420Y1069870D01*
X-1827210Y1072490D01*
G01X-2023750Y1367110D02*
X-2102490D01*
Y1391450D01*
X-2098550Y1399240D01*
X-2093300Y1404110D01*
X-2082800Y1406050D01*
X-2072310Y1404110D01*
X-2065750Y1398260D01*
X-2061810Y1391450D01*
Y1367110D01*
G01Y1391450D02*
X-2023750Y1406050D01*
G01Y1458050D02*
X-2040810Y1460000D01*
X-2055240Y1462920D01*
X-2068370Y1466820D01*
X-2082800Y1471680D01*
X-2102490Y1479470D01*
Y1440530D01*
G01X-1710130Y182490D02*
Y103750D01*
G01X-1732520Y182490D02*
X-1687740D01*
G01X-1656180Y103750D02*
Y182490D01*
X-1632820D01*
X-1625030Y178550D01*
X-1619180Y169370D01*
X-1617240Y158870D01*
X-1619180Y148370D01*
X-1624050Y140490D01*
X-1632820Y136560D01*
X-1656180D01*
G01X-1563290Y103750D02*
Y182490D01*
X-1574970Y166740D01*
G01Y103750D02*
X-1551610D01*
G01X-1508370Y169370D02*
X-1502530Y177240D01*
X-1495710Y181180D01*
X-1487920Y182490D01*
X-1478190Y179870D01*
X-1471370Y173300D01*
X-1469420Y165430D01*
X-1470400Y157550D01*
X-1474290Y150990D01*
X-1493760Y137870D01*
X-1502530Y128680D01*
X-1508370Y115560D01*
X-1510320Y103750D01*
X-1469420D01*
G01X-1698750Y1352110D02*
X-1777490D01*
Y1376450D01*
X-1773550Y1384240D01*
X-1768300Y1389110D01*
X-1757800Y1391050D01*
X-1747310Y1389110D01*
X-1740750Y1383260D01*
X-1736810Y1376450D01*
Y1352110D01*
G01Y1376450D02*
X-1698750Y1391050D01*
G01Y1445000D02*
X-1700060Y1451820D01*
X-1704000Y1459600D01*
X-1710560Y1464470D01*
X-1719750Y1466420D01*
X-1728930Y1464470D01*
X-1736810Y1458630D01*
X-1740750Y1449870D01*
Y1440130D01*
X-1743370Y1434290D01*
X-1749930Y1429420D01*
X-1759120Y1427470D01*
X-1768300Y1430400D01*
X-1774870Y1437210D01*
X-1777490Y1445000D01*
X-1774870Y1452790D01*
X-1768300Y1459600D01*
X-1759120Y1462530D01*
X-1749930Y1460580D01*
X-1743370Y1455710D01*
X-1740750Y1449870D01*
Y1440130D01*
X-1736810Y1431370D01*
X-1728930Y1425530D01*
X-1719750Y1423580D01*
X-1710560Y1425530D01*
X-1704000Y1430400D01*
X-1700060Y1438180D01*
X-1698750Y1445000D01*
G01X-1168090Y-3958860D02*
Y-4037600D01*
G01X-1190480Y-3958860D02*
X-1145700D01*
G01X-1114140Y-4037600D02*
Y-3958860D01*
X-1090780D01*
X-1082990Y-3962800D01*
X-1077140Y-3971980D01*
X-1075200Y-3982480D01*
X-1077140Y-3992980D01*
X-1082010Y-4000860D01*
X-1090780Y-4004790D01*
X-1114140D01*
G01X-1021250Y-4037600D02*
Y-3958860D01*
X-1032930Y-3974610D01*
G01Y-4037600D02*
X-1009570D01*
G01X-947830Y-3958860D02*
X-955620Y-3961480D01*
X-961460Y-3968050D01*
X-965360Y-3975920D01*
X-968280Y-3986420D01*
X-969250Y-3998230D01*
X-968280Y-4010040D01*
X-965360Y-4020540D01*
X-961460Y-4028420D01*
X-955620Y-4034980D01*
X-947830Y-4037600D01*
X-940040Y-4034980D01*
X-934200Y-4028420D01*
X-930300Y-4020540D01*
X-927380Y-4010040D01*
X-926410Y-3998230D01*
X-927380Y-3986420D01*
X-930300Y-3975920D01*
X-934200Y-3968050D01*
X-940040Y-3961480D01*
X-947830Y-3958860D01*
G01X-1165130Y172490D02*
Y93750D01*
G01X-1187520Y172490D02*
X-1142740D01*
G01X-1111180Y93750D02*
Y172490D01*
X-1087820D01*
X-1080030Y168550D01*
X-1074180Y159370D01*
X-1072240Y148870D01*
X-1074180Y138370D01*
X-1079050Y130490D01*
X-1087820Y126560D01*
X-1111180D01*
G01X-1020240Y93750D02*
X-1018290Y110810D01*
X-1015370Y125240D01*
X-1011470Y138370D01*
X-1006610Y152800D01*
X-998820Y172490D01*
X-1037760D01*
G01X-1347950Y645930D02*
X-1353790Y649870D01*
X-1360610Y652490D01*
X-1368400D01*
X-1377160Y648550D01*
X-1383970Y641990D01*
X-1388840Y634120D01*
X-1392740Y620990D01*
X-1393710Y609180D01*
X-1391760Y597370D01*
X-1388840Y589500D01*
X-1383000Y581620D01*
X-1376190Y576370D01*
X-1369370Y573750D01*
X-1362550D01*
X-1355740Y576370D01*
X-1349900Y580310D01*
X-1345030Y585560D01*
G01X-1295950Y573750D02*
Y652490D01*
X-1307630Y636740D01*
G01Y573750D02*
X-1284270D01*
G01X-1243950Y589500D02*
X-1238110Y580310D01*
X-1230320Y575060D01*
X-1221560Y573750D01*
X-1213770Y575060D01*
X-1205980Y581620D01*
X-1201110Y589500D01*
X-1200140Y597370D01*
X-1202080Y606560D01*
X-1208900Y613120D01*
X-1215710Y615750D01*
X-1224480D01*
G01X-1215710D02*
X-1209870Y619680D01*
X-1205000Y626240D01*
X-1203060Y634120D01*
X-1205000Y641990D01*
X-1209870Y648550D01*
X-1218640Y652490D01*
X-1227400Y651180D01*
X-1236160Y645930D01*
G01X-1357000Y1050930D02*
X-1362840Y1054870D01*
X-1369660Y1057490D01*
X-1377450D01*
X-1386210Y1053550D01*
X-1393020Y1046990D01*
X-1397890Y1039120D01*
X-1401790Y1025990D01*
X-1402760Y1014180D01*
X-1400810Y1002370D01*
X-1397890Y994500D01*
X-1392050Y986620D01*
X-1385240Y981370D01*
X-1378420Y978750D01*
X-1371600D01*
X-1364790Y981370D01*
X-1358950Y985310D01*
X-1354080Y990560D01*
G01X-1305000Y978750D02*
Y1057490D01*
X-1316680Y1041740D01*
G01Y978750D02*
X-1293320D01*
G01X-1250080Y1044370D02*
X-1244240Y1052240D01*
X-1237420Y1056180D01*
X-1229630Y1057490D01*
X-1219900Y1054870D01*
X-1213080Y1048300D01*
X-1211130Y1040430D01*
X-1212110Y1032550D01*
X-1216000Y1025990D01*
X-1235470Y1012870D01*
X-1244240Y1003680D01*
X-1250080Y990560D01*
X-1252030Y978750D01*
X-1211130D01*
G01X-1056940Y-6756940D02*
X-1048900Y-6769640D01*
X-1039250Y-6778110D01*
X-1027990Y-6782340D01*
X-1015120Y-6778110D01*
X-1005470Y-6769640D01*
X-995810Y-6756940D01*
X-992600Y-6740010D01*
Y-6655340D01*
G01X-953640Y-6756940D02*
X-943990Y-6771760D01*
X-931120Y-6780220D01*
X-916640Y-6782340D01*
X-903770Y-6780220D01*
X-890900Y-6769640D01*
X-882860Y-6756940D01*
X-881250Y-6744240D01*
X-884470Y-6729430D01*
X-895730Y-6718840D01*
X-906990Y-6714610D01*
X-921470D01*
G01X-906990D02*
X-897340Y-6708260D01*
X-889290Y-6697680D01*
X-886080Y-6684970D01*
X-889290Y-6672270D01*
X-897340Y-6661690D01*
X-911820Y-6655340D01*
X-926290Y-6657460D01*
X-940770Y-6665920D01*
G01X-967500Y1015000D02*
X-1027500D01*
G01X-995000Y982500D02*
Y1047500D01*
G01X-863750Y1353060D02*
X-942490D01*
Y1377400D01*
X-938550Y1385190D01*
X-933300Y1390060D01*
X-922800Y1392000D01*
X-912310Y1390060D01*
X-905750Y1384210D01*
X-901810Y1377400D01*
Y1353060D01*
G01Y1377400D02*
X-863750Y1392000D01*
G01X-929370Y1427450D02*
X-937240Y1433290D01*
X-941180Y1440110D01*
X-942490Y1447900D01*
X-939870Y1457630D01*
X-933300Y1464450D01*
X-925430Y1466400D01*
X-917550Y1465420D01*
X-910990Y1461530D01*
X-897870Y1442060D01*
X-888680Y1433290D01*
X-875560Y1427450D01*
X-863750Y1425500D01*
Y1466400D01*
G01X-942490Y1519370D02*
X-939870Y1511580D01*
X-933300Y1505740D01*
X-925430Y1501840D01*
X-914930Y1498920D01*
X-903120Y1497950D01*
X-891310Y1498920D01*
X-880810Y1501840D01*
X-872930Y1505740D01*
X-866370Y1511580D01*
X-863750Y1519370D01*
X-866370Y1527160D01*
X-872930Y1533000D01*
X-880810Y1536900D01*
X-891310Y1539820D01*
X-903120Y1540790D01*
X-914930Y1539820D01*
X-925430Y1536900D01*
X-933300Y1533000D01*
X-939870Y1527160D01*
X-942490Y1519370D01*
G01X-964900Y2313880D02*
X-958340Y2321670D01*
X-954400Y2330440D01*
Y2338220D01*
X-958340Y2346010D01*
X-964900Y2351860D01*
X-974090Y2354780D01*
X-983270Y2352830D01*
X-991140Y2347960D01*
X-996400Y2339200D01*
X-999020Y2327510D01*
X-1004270Y2320700D01*
X-1013450Y2317780D01*
X-1022640Y2319730D01*
X-1029200Y2324590D01*
X-1033140Y2331410D01*
Y2338220D01*
X-1030520Y2345040D01*
X-1023950Y2350880D01*
G01X-1033140Y2378540D02*
X-954400Y2392170D01*
X-1033140Y2407750D01*
X-954400Y2423330D01*
X-1033140Y2436960D01*
G01X-954400Y2481170D02*
X-1033140D01*
X-1017390Y2469490D01*
G01X-954400D02*
Y2492850D01*
G01X-1032000Y2866190D02*
X-953260D01*
X-969010Y2877870D01*
G01X-1032000D02*
Y2854510D01*
G01X-1084860Y3604000D02*
X-1079990Y3596120D01*
X-1074150Y3590870D01*
X-1067340Y3588250D01*
X-1059550Y3590870D01*
X-1053710Y3596120D01*
X-1047860Y3604000D01*
X-1045920Y3614500D01*
Y3666990D01*
G01X-1010470Y3653870D02*
X-1004630Y3661740D01*
X-997810Y3665680D01*
X-990020Y3666990D01*
X-980290Y3664370D01*
X-973470Y3657800D01*
X-971520Y3649930D01*
X-972500Y3642050D01*
X-976390Y3635490D01*
X-995860Y3622370D01*
X-1004630Y3613180D01*
X-1010470Y3600060D01*
X-1012420Y3588250D01*
X-971520D01*
G01X-793420Y167490D02*
Y88750D01*
G01X-815810Y167490D02*
X-771030D01*
G01X-739470Y88750D02*
Y167490D01*
X-716110D01*
X-708320Y163550D01*
X-702470Y154370D01*
X-700530Y143870D01*
X-702470Y133370D01*
X-707340Y125490D01*
X-716110Y121560D01*
X-739470D01*
G01X-668000Y100560D02*
X-662160Y94000D01*
X-655340Y90060D01*
X-646580Y88750D01*
X-637820Y91370D01*
X-631000Y96620D01*
X-626130Y105810D01*
X-625160Y116310D01*
X-627110Y126810D01*
X-631980Y133370D01*
X-638790Y138620D01*
X-645610Y139930D01*
X-652420Y138620D01*
X-661180Y133370D01*
X-658260Y167490D01*
X-631980D01*
G01X-713420Y832490D02*
Y753750D01*
G01X-735810Y832490D02*
X-691030D01*
G01X-659470Y753750D02*
Y832490D01*
X-636110D01*
X-628320Y828550D01*
X-622470Y819370D01*
X-620530Y808870D01*
X-622470Y798370D01*
X-627340Y790490D01*
X-636110Y786560D01*
X-659470D01*
G01X-585080D02*
X-578260Y795750D01*
X-572420Y800990D01*
X-564630Y803620D01*
X-557820Y800990D01*
X-552950Y795750D01*
X-549050Y787870D01*
X-548080Y778680D01*
X-549050Y770810D01*
X-552950Y762930D01*
X-558790Y756370D01*
X-565610Y753750D01*
X-573400Y756370D01*
X-580210Y764250D01*
X-584110Y776060D01*
X-585080Y789180D01*
X-583130Y806240D01*
X-580210Y815430D01*
X-575340Y824620D01*
X-568530Y831180D01*
X-561710Y832490D01*
X-554900Y829870D01*
X-550030Y823300D01*
G01X-767950Y1065930D02*
X-773790Y1069870D01*
X-780610Y1072490D01*
X-788400D01*
X-797160Y1068550D01*
X-803970Y1061990D01*
X-808840Y1054120D01*
X-812740Y1040990D01*
X-813710Y1029180D01*
X-811760Y1017370D01*
X-808840Y1009500D01*
X-803000Y1001620D01*
X-796190Y996370D01*
X-789370Y993750D01*
X-782550D01*
X-775740Y996370D01*
X-769900Y1000310D01*
X-765030Y1005560D01*
G01X-715950Y993750D02*
Y1072490D01*
X-727630Y1056740D01*
G01Y993750D02*
X-704270D01*
G01X-642530D02*
X-635710Y995060D01*
X-627930Y999000D01*
X-623060Y1005560D01*
X-621110Y1014750D01*
X-623060Y1023930D01*
X-628900Y1031810D01*
X-637660Y1035750D01*
X-647400D01*
X-653240Y1038370D01*
X-658110Y1044930D01*
X-660060Y1054120D01*
X-657130Y1063300D01*
X-650320Y1069870D01*
X-642530Y1072490D01*
X-634740Y1069870D01*
X-627930Y1063300D01*
X-625000Y1054120D01*
X-626950Y1044930D01*
X-631820Y1038370D01*
X-637660Y1035750D01*
X-647400D01*
X-656160Y1031810D01*
X-662000Y1023930D01*
X-663950Y1014750D01*
X-662000Y1005560D01*
X-657130Y999000D01*
X-649350Y995060D01*
X-642530Y993750D01*
G01X-623750Y1353060D02*
X-702490D01*
Y1377400D01*
X-698550Y1385190D01*
X-693300Y1390060D01*
X-682800Y1392000D01*
X-672310Y1390060D01*
X-665750Y1384210D01*
X-661810Y1377400D01*
Y1353060D01*
G01Y1377400D02*
X-623750Y1392000D01*
G01X-689370Y1427450D02*
X-697240Y1433290D01*
X-701180Y1440110D01*
X-702490Y1447900D01*
X-699870Y1457630D01*
X-693300Y1464450D01*
X-685430Y1466400D01*
X-677550Y1465420D01*
X-670990Y1461530D01*
X-657870Y1442060D01*
X-648680Y1433290D01*
X-635560Y1427450D01*
X-623750Y1425500D01*
Y1466400D01*
G01X-689370Y1500870D02*
X-697240Y1506710D01*
X-701180Y1513530D01*
X-702490Y1521320D01*
X-699870Y1531050D01*
X-693300Y1537870D01*
X-685430Y1539820D01*
X-677550Y1538840D01*
X-670990Y1534950D01*
X-657870Y1515480D01*
X-648680Y1506710D01*
X-635560Y1500870D01*
X-623750Y1498920D01*
Y1539820D01*
G01X-408090Y-3958860D02*
Y-4037600D01*
G01X-430480Y-3958860D02*
X-385700D01*
G01X-354140Y-4037600D02*
Y-3958860D01*
X-330780D01*
X-322990Y-3962800D01*
X-317140Y-3971980D01*
X-315200Y-3982480D01*
X-317140Y-3992980D01*
X-322010Y-4000860D01*
X-330780Y-4004790D01*
X-354140D01*
G01X-277800Y-4028420D02*
X-270990Y-4034980D01*
X-263200Y-4037600D01*
X-255410Y-4034980D01*
X-248590Y-4027100D01*
X-243720Y-4015290D01*
X-241780Y-4003480D01*
Y-3989040D01*
X-243720Y-3977230D01*
X-248590Y-3966730D01*
X-254430Y-3961480D01*
X-261250Y-3958860D01*
X-269040Y-3961480D01*
X-274880Y-3966730D01*
X-278780Y-3974610D01*
X-280720Y-3985110D01*
X-278780Y-3994290D01*
X-273910Y-4003480D01*
X-268070Y-4008730D01*
X-261250Y-4010040D01*
X-253460Y-4007420D01*
X-247620Y-4000860D01*
X-241780Y-3989040D01*
G01X-405130Y657490D02*
Y578750D01*
G01X-427520Y657490D02*
X-382740D01*
G01X-351180Y578750D02*
Y657490D01*
X-327820D01*
X-320030Y653550D01*
X-314180Y644370D01*
X-312240Y633870D01*
X-314180Y623370D01*
X-319050Y615490D01*
X-327820Y611560D01*
X-351180D01*
G01X-276790Y644370D02*
X-270950Y652240D01*
X-264130Y656180D01*
X-256340Y657490D01*
X-246610Y654870D01*
X-239790Y648300D01*
X-237840Y640430D01*
X-238820Y632550D01*
X-242710Y625990D01*
X-262180Y612870D01*
X-270950Y603680D01*
X-276790Y590560D01*
X-278740Y578750D01*
X-237840D01*
G01X-474900Y2313880D02*
X-468340Y2321670D01*
X-464400Y2330440D01*
Y2338220D01*
X-468340Y2346010D01*
X-474900Y2351860D01*
X-484090Y2354780D01*
X-493270Y2352830D01*
X-501140Y2347960D01*
X-506400Y2339200D01*
X-509020Y2327510D01*
X-514270Y2320700D01*
X-523450Y2317780D01*
X-532640Y2319730D01*
X-539200Y2324590D01*
X-543140Y2331410D01*
Y2338220D01*
X-540520Y2345040D01*
X-533950Y2350880D01*
G01X-543140Y2378540D02*
X-464400Y2392170D01*
X-543140Y2407750D01*
X-464400Y2423330D01*
X-543140Y2436960D01*
G01X-530020Y2462670D02*
X-537890Y2468510D01*
X-541830Y2475330D01*
X-543140Y2483120D01*
X-540520Y2492850D01*
X-533950Y2499670D01*
X-526080Y2501620D01*
X-518200Y2500640D01*
X-511640Y2496750D01*
X-498520Y2477280D01*
X-489330Y2468510D01*
X-476210Y2462670D01*
X-464400Y2460720D01*
Y2501620D01*
G01X-542000Y2866190D02*
X-463260D01*
X-479010Y2877870D01*
G01X-542000D02*
Y2854510D01*
G01X-401330Y-1017950D02*
X-405270Y-1023790D01*
X-407890Y-1030610D01*
Y-1038400D01*
X-403950Y-1047160D01*
X-397390Y-1053970D01*
X-389520Y-1058840D01*
X-376390Y-1062740D01*
X-364580Y-1063710D01*
X-352770Y-1061760D01*
X-344900Y-1058840D01*
X-337020Y-1053000D01*
X-331770Y-1046190D01*
X-329150Y-1039370D01*
Y-1032550D01*
X-331770Y-1025740D01*
X-335710Y-1019900D01*
X-340960Y-1015030D01*
G01Y-987370D02*
X-334400Y-981530D01*
X-330460Y-974710D01*
X-329150Y-965950D01*
X-331770Y-957190D01*
X-337020Y-950370D01*
X-346210Y-945500D01*
X-356710Y-944530D01*
X-367210Y-946480D01*
X-373770Y-951350D01*
X-379020Y-958160D01*
X-380330Y-964980D01*
X-379020Y-971790D01*
X-373770Y-980550D01*
X-407890Y-977630D01*
Y-951350D01*
G01X-192950Y1065930D02*
X-198790Y1069870D01*
X-205610Y1072490D01*
X-213400D01*
X-222160Y1068550D01*
X-228970Y1061990D01*
X-233840Y1054120D01*
X-237740Y1040990D01*
X-238710Y1029180D01*
X-236760Y1017370D01*
X-233840Y1009500D01*
X-228000Y1001620D01*
X-221190Y996370D01*
X-214370Y993750D01*
X-207550D01*
X-200740Y996370D01*
X-194900Y1000310D01*
X-190030Y1005560D01*
G01X-140950Y993750D02*
Y1072490D01*
X-152630Y1056740D01*
G01Y993750D02*
X-129270D01*
G01X-88950Y1005560D02*
X-83110Y999000D01*
X-76290Y995060D01*
X-67530Y993750D01*
X-58770Y996370D01*
X-51950Y1001620D01*
X-47080Y1010810D01*
X-46110Y1021310D01*
X-48060Y1031810D01*
X-52930Y1038370D01*
X-59740Y1043620D01*
X-66560Y1044930D01*
X-73370Y1043620D01*
X-82130Y1038370D01*
X-79210Y1072490D01*
X-52930D01*
G01X-288750Y1353060D02*
X-367490D01*
Y1377400D01*
X-363550Y1385190D01*
X-358300Y1390060D01*
X-347800Y1392000D01*
X-337310Y1390060D01*
X-330750Y1384210D01*
X-326810Y1377400D01*
Y1353060D01*
G01Y1377400D02*
X-288750Y1392000D01*
G01Y1445950D02*
X-367490D01*
X-351740Y1434270D01*
G01X-288750D02*
Y1457630D01*
G01X-300560Y1497950D02*
X-294000Y1503790D01*
X-290060Y1510610D01*
X-288750Y1519370D01*
X-291370Y1528130D01*
X-296620Y1534950D01*
X-305810Y1539820D01*
X-316310Y1540790D01*
X-326810Y1538840D01*
X-333370Y1533970D01*
X-338620Y1527160D01*
X-339930Y1520340D01*
X-338620Y1513530D01*
X-333370Y1504770D01*
X-367490Y1507690D01*
Y1533970D01*
G01X-45730Y-1017950D02*
X-49670Y-1023790D01*
X-52290Y-1030610D01*
Y-1038400D01*
X-48350Y-1047160D01*
X-41790Y-1053970D01*
X-33920Y-1058840D01*
X-20790Y-1062740D01*
X-8980Y-1063710D01*
X2830Y-1061760D01*
X10700Y-1058840D01*
X18580Y-1053000D01*
X23830Y-1046190D01*
X26450Y-1039370D01*
Y-1032550D01*
X23830Y-1025740D01*
X19890Y-1019900D01*
X14640Y-1015030D01*
G01X-6360Y-984450D02*
X-15550Y-977630D01*
X-20790Y-971790D01*
X-23420Y-964000D01*
X-20790Y-957190D01*
X-15550Y-952320D01*
X-7670Y-948420D01*
X1520Y-947450D01*
X9390Y-948420D01*
X17270Y-952320D01*
X23830Y-958160D01*
X26450Y-964980D01*
X23830Y-972770D01*
X15950Y-979580D01*
X4140Y-983480D01*
X-8980Y-984450D01*
X-26040Y-982500D01*
X-35230Y-979580D01*
X-44420Y-974710D01*
X-50980Y-967900D01*
X-52290Y-961080D01*
X-49670Y-954270D01*
X-43100Y-949400D01*
G01X-110130Y-32510D02*
Y-111250D01*
G01X-132520Y-32510D02*
X-87740D01*
G01X-56180Y-111250D02*
Y-32510D01*
X-32820D01*
X-25030Y-36450D01*
X-19180Y-45630D01*
X-17240Y-56130D01*
X-19180Y-66630D01*
X-24050Y-74510D01*
X-32820Y-78440D01*
X-56180D01*
G01X15290Y-95500D02*
X21130Y-104690D01*
X28920Y-109940D01*
X37680Y-111250D01*
X45470Y-109940D01*
X53260Y-103380D01*
X58130Y-95500D01*
X59100Y-87630D01*
X57160Y-78440D01*
X50340Y-71880D01*
X43530Y-69250D01*
X34760D01*
G01X43530D02*
X49370Y-65320D01*
X54240Y-58760D01*
X56180Y-50880D01*
X54240Y-43010D01*
X49370Y-36450D01*
X40600Y-32510D01*
X31840Y-33820D01*
X23080Y-39070D01*
G01X41250Y1353060D02*
X-37490D01*
Y1377400D01*
X-33550Y1385190D01*
X-28300Y1390060D01*
X-17800Y1392000D01*
X-7310Y1390060D01*
X-750Y1384210D01*
X3190Y1377400D01*
Y1353060D01*
G01Y1377400D02*
X41250Y1392000D01*
G01Y1445950D02*
X-37490D01*
X-21740Y1434270D01*
G01X41250D02*
Y1457630D01*
G01X8440Y1500870D02*
X-750Y1507690D01*
X-5990Y1513530D01*
X-8620Y1521320D01*
X-5990Y1528130D01*
X-750Y1533000D01*
X7130Y1536900D01*
X16320Y1537870D01*
X24190Y1536900D01*
X32070Y1533000D01*
X38630Y1527160D01*
X41250Y1520340D01*
X38630Y1512550D01*
X30750Y1505740D01*
X18940Y1501840D01*
X5820Y1500870D01*
X-11240Y1502820D01*
X-20430Y1505740D01*
X-29620Y1510610D01*
X-36180Y1517420D01*
X-37490Y1524240D01*
X-34870Y1531050D01*
X-28300Y1535920D01*
G01X15100Y2313880D02*
X21660Y2321670D01*
X25600Y2330440D01*
Y2338220D01*
X21660Y2346010D01*
X15100Y2351860D01*
X5910Y2354780D01*
X-3270Y2352830D01*
X-11140Y2347960D01*
X-16400Y2339200D01*
X-19020Y2327510D01*
X-24270Y2320700D01*
X-33450Y2317780D01*
X-42640Y2319730D01*
X-49200Y2324590D01*
X-53140Y2331410D01*
Y2338220D01*
X-50520Y2345040D01*
X-43950Y2350880D01*
G01X-53140Y2378540D02*
X25600Y2392170D01*
X-53140Y2407750D01*
X25600Y2423330D01*
X-53140Y2436960D01*
G01X25600Y2492850D02*
X-53140D01*
X3290Y2456830D01*
Y2505510D01*
G01X-52000Y2866190D02*
X26740D01*
X10990Y2877870D01*
G01X-52000D02*
Y2854510D01*
G01X309870Y-1017950D02*
X305930Y-1023790D01*
X303310Y-1030610D01*
Y-1038400D01*
X307250Y-1047160D01*
X313810Y-1053970D01*
X321680Y-1058840D01*
X334810Y-1062740D01*
X346620Y-1063710D01*
X358430Y-1061760D01*
X366300Y-1058840D01*
X374180Y-1053000D01*
X379430Y-1046190D01*
X382050Y-1039370D01*
Y-1032550D01*
X379430Y-1025740D01*
X375490Y-1019900D01*
X370240Y-1015030D01*
G01X382050Y-967900D02*
X364990Y-965950D01*
X350560Y-963030D01*
X337430Y-959130D01*
X323000Y-954270D01*
X303310Y-946480D01*
Y-985420D01*
G01X269870Y657490D02*
Y578750D01*
G01X247480Y657490D02*
X292260D01*
G01X323820Y578750D02*
Y657490D01*
X347180D01*
X354970Y653550D01*
X360820Y644370D01*
X362760Y633870D01*
X360820Y623370D01*
X355950Y615490D01*
X347180Y611560D01*
X323820D01*
G01X428390Y578750D02*
Y657490D01*
X392370Y601060D01*
X441050D01*
G01X291250Y1353060D02*
X212510D01*
Y1377400D01*
X216450Y1385190D01*
X221700Y1390060D01*
X232200Y1392000D01*
X242690Y1390060D01*
X249250Y1384210D01*
X253190Y1377400D01*
Y1353060D01*
G01Y1377400D02*
X291250Y1392000D01*
G01X282070Y1429400D02*
X288630Y1436210D01*
X291250Y1444000D01*
X288630Y1451790D01*
X280750Y1458610D01*
X268940Y1463480D01*
X257130Y1465420D01*
X242690D01*
X230880Y1463480D01*
X220380Y1458610D01*
X215130Y1452770D01*
X212510Y1445950D01*
X215130Y1438160D01*
X220380Y1432320D01*
X228260Y1428420D01*
X238760Y1426480D01*
X247940Y1428420D01*
X257130Y1433290D01*
X262380Y1439130D01*
X263690Y1445950D01*
X261070Y1453740D01*
X254510Y1459580D01*
X242690Y1465420D01*
G01X486250Y-2797890D02*
X407510D01*
Y-2773550D01*
X411450Y-2765760D01*
X416700Y-2760890D01*
X427200Y-2758950D01*
X437690Y-2760890D01*
X444250Y-2766740D01*
X448190Y-2773550D01*
Y-2797890D01*
G01Y-2773550D02*
X486250Y-2758950D01*
G01Y-2705000D02*
X407510D01*
X423260Y-2716680D01*
G01X486250D02*
Y-2693320D01*
G01X407510Y-2631580D02*
X410130Y-2639370D01*
X416700Y-2645210D01*
X424570Y-2649110D01*
X435070Y-2652030D01*
X446880Y-2653000D01*
X458690Y-2652030D01*
X469190Y-2649110D01*
X477070Y-2645210D01*
X483630Y-2639370D01*
X486250Y-2631580D01*
X483630Y-2623790D01*
X477070Y-2617950D01*
X469190Y-2614050D01*
X458690Y-2611130D01*
X446880Y-2610160D01*
X435070Y-2611130D01*
X424570Y-2614050D01*
X416700Y-2617950D01*
X410130Y-2623790D01*
X407510Y-2631580D01*
G01X387050Y1065930D02*
X381210Y1069870D01*
X374390Y1072490D01*
X366600D01*
X357840Y1068550D01*
X351030Y1061990D01*
X346160Y1054120D01*
X342260Y1040990D01*
X341290Y1029180D01*
X343240Y1017370D01*
X346160Y1009500D01*
X352000Y1001620D01*
X358810Y996370D01*
X365630Y993750D01*
X372450D01*
X379260Y996370D01*
X385100Y1000310D01*
X389970Y1005560D01*
G01X439050Y993750D02*
Y1072490D01*
X427370Y1056740D01*
G01Y993750D02*
X450730D01*
G01X512470D02*
Y1072490D01*
X500790Y1056740D01*
G01Y993750D02*
X524150D01*
G01X621250Y1353060D02*
X542510D01*
Y1377400D01*
X546450Y1385190D01*
X551700Y1390060D01*
X562200Y1392000D01*
X572690Y1390060D01*
X579250Y1384210D01*
X583190Y1377400D01*
Y1353060D01*
G01Y1377400D02*
X621250Y1392000D01*
G01Y1445950D02*
X542510D01*
X558260Y1434270D01*
G01X621250D02*
Y1457630D01*
G01Y1519370D02*
X542510D01*
X558260Y1507690D01*
G01X621250D02*
Y1531050D01*
G01X505100Y2313880D02*
X511660Y2321670D01*
X515600Y2330440D01*
Y2338220D01*
X511660Y2346010D01*
X505100Y2351860D01*
X495910Y2354780D01*
X486730Y2352830D01*
X478860Y2347960D01*
X473600Y2339200D01*
X470980Y2327510D01*
X465730Y2320700D01*
X456550Y2317780D01*
X447360Y2319730D01*
X440800Y2324590D01*
X436860Y2331410D01*
Y2338220D01*
X439480Y2345040D01*
X446050Y2350880D01*
G01X436860Y2378540D02*
X515600Y2392170D01*
X436860Y2407750D01*
X515600Y2423330D01*
X436860Y2436960D01*
G01X499850Y2459750D02*
X509040Y2465590D01*
X514290Y2473380D01*
X515600Y2482140D01*
X514290Y2489930D01*
X507730Y2497720D01*
X499850Y2502590D01*
X491980Y2503560D01*
X482790Y2501620D01*
X476230Y2494800D01*
X473600Y2487990D01*
Y2479220D01*
G01Y2487990D02*
X469670Y2493830D01*
X463110Y2498700D01*
X455230Y2500640D01*
X447360Y2498700D01*
X440800Y2493830D01*
X436860Y2485060D01*
X438170Y2476300D01*
X443420Y2467540D01*
G01X438000Y2866190D02*
X516740D01*
X500990Y2877870D01*
G01X438000D02*
Y2854510D01*
G01X804070Y1393950D02*
X800130Y1388110D01*
X797510Y1381290D01*
Y1373500D01*
X801450Y1364740D01*
X808010Y1357930D01*
X815880Y1353060D01*
X829010Y1349160D01*
X840820Y1348190D01*
X852630Y1350140D01*
X860500Y1353060D01*
X868380Y1358900D01*
X873630Y1365710D01*
X876250Y1372530D01*
Y1379350D01*
X873630Y1386160D01*
X869690Y1392000D01*
X864440Y1396870D01*
G01X876250Y1445950D02*
X874940Y1452770D01*
X871000Y1460550D01*
X864440Y1465420D01*
X855250Y1467370D01*
X846070Y1465420D01*
X838190Y1459580D01*
X834250Y1450820D01*
Y1441080D01*
X831630Y1435240D01*
X825070Y1430370D01*
X815880Y1428420D01*
X806700Y1431350D01*
X800130Y1438160D01*
X797510Y1445950D01*
X800130Y1453740D01*
X806700Y1460550D01*
X815880Y1463480D01*
X825070Y1461530D01*
X831630Y1456660D01*
X834250Y1450820D01*
Y1441080D01*
X838190Y1432320D01*
X846070Y1426480D01*
X855250Y1424530D01*
X864440Y1426480D01*
X871000Y1431350D01*
X874940Y1439130D01*
X876250Y1445950D01*
G01X1058010Y1841140D02*
Y1762400D01*
G01X1035620Y1841140D02*
X1080400D01*
G01X1111960Y1762400D02*
Y1841140D01*
X1135320D01*
X1143110Y1837200D01*
X1148960Y1828020D01*
X1150900Y1817520D01*
X1148960Y1807020D01*
X1144090Y1799140D01*
X1135320Y1795210D01*
X1111960D01*
G01X1204850Y1762400D02*
Y1841140D01*
X1193170Y1825390D01*
G01Y1762400D02*
X1216530D01*
G01X1241250Y-1165370D02*
X1162510D01*
Y-1145900D01*
X1166450Y-1138110D01*
X1171700Y-1132270D01*
X1179570Y-1127400D01*
X1188760Y-1123500D01*
X1201880Y-1122530D01*
X1215000Y-1123500D01*
X1224190Y-1127400D01*
X1232070Y-1132270D01*
X1237310Y-1138110D01*
X1241250Y-1145900D01*
Y-1165370D01*
G01Y-1070530D02*
X1162510D01*
X1178260Y-1082210D01*
G01X1241250D02*
Y-1058850D01*
G01X1267430Y2014040D02*
Y2092780D01*
G01X1304430D02*
X1267430Y2044220D01*
G01X1310270Y2014040D02*
X1283980Y2066530D01*
G01X1224610Y2342140D02*
Y2420880D01*
X1244080D01*
X1251870Y2416940D01*
X1257710Y2411690D01*
X1262580Y2403820D01*
X1266480Y2394630D01*
X1267450Y2381510D01*
X1266480Y2368390D01*
X1262580Y2359200D01*
X1257710Y2351320D01*
X1251870Y2346080D01*
X1244080Y2342140D01*
X1224610D01*
G01X1300950Y2407760D02*
X1306790Y2415630D01*
X1313610Y2419570D01*
X1321400Y2420880D01*
X1331130Y2418260D01*
X1337950Y2411690D01*
X1339900Y2403820D01*
X1338920Y2395940D01*
X1335030Y2389380D01*
X1315560Y2376260D01*
X1306790Y2367070D01*
X1300950Y2353950D01*
X1299000Y2342140D01*
X1339900D01*
G01X1167440Y3445250D02*
X1173280Y3436060D01*
X1181070Y3430810D01*
X1189830Y3429500D01*
X1197620Y3430810D01*
X1205410Y3437370D01*
X1210280Y3445250D01*
X1211250Y3453120D01*
X1209310Y3462310D01*
X1202490Y3468870D01*
X1195680Y3471500D01*
X1186910D01*
G01X1195680D02*
X1201520Y3475430D01*
X1206390Y3481990D01*
X1208330Y3489870D01*
X1206390Y3497740D01*
X1201520Y3504300D01*
X1192750Y3508240D01*
X1183990Y3506930D01*
X1175230Y3501680D01*
G01X1240860Y3445250D02*
X1246700Y3436060D01*
X1254490Y3430810D01*
X1263250Y3429500D01*
X1271040Y3430810D01*
X1278830Y3437370D01*
X1283700Y3445250D01*
X1284670Y3453120D01*
X1282730Y3462310D01*
X1275910Y3468870D01*
X1269100Y3471500D01*
X1260330D01*
G01X1269100D02*
X1274940Y3475430D01*
X1279810Y3481990D01*
X1281750Y3489870D01*
X1279810Y3497740D01*
X1274940Y3504300D01*
X1266170Y3508240D01*
X1257410Y3506930D01*
X1248650Y3501680D01*
G01X1167440Y3699250D02*
X1173280Y3690060D01*
X1181070Y3684810D01*
X1189830Y3683500D01*
X1197620Y3684810D01*
X1205410Y3691370D01*
X1210280Y3699250D01*
X1211250Y3707120D01*
X1209310Y3716310D01*
X1202490Y3722870D01*
X1195680Y3725500D01*
X1186910D01*
G01X1195680D02*
X1201520Y3729430D01*
X1206390Y3735990D01*
X1208330Y3743870D01*
X1206390Y3751740D01*
X1201520Y3758300D01*
X1192750Y3762240D01*
X1183990Y3760930D01*
X1175230Y3755680D01*
G01X1273960Y3683500D02*
Y3762240D01*
X1237940Y3705810D01*
X1286620D01*
G01X1631250Y-1228840D02*
X1552510D01*
Y-1204500D01*
X1556450Y-1196710D01*
X1561700Y-1191840D01*
X1572200Y-1189900D01*
X1582690Y-1191840D01*
X1589250Y-1197690D01*
X1593190Y-1204500D01*
Y-1228840D01*
G01Y-1204500D02*
X1631250Y-1189900D01*
G01X1615500Y-1157370D02*
X1624690Y-1151530D01*
X1629940Y-1143740D01*
X1631250Y-1134980D01*
X1629940Y-1127190D01*
X1623380Y-1119400D01*
X1615500Y-1114530D01*
X1607630Y-1113560D01*
X1598440Y-1115500D01*
X1591880Y-1122320D01*
X1589250Y-1129130D01*
Y-1137900D01*
G01Y-1129130D02*
X1585320Y-1123290D01*
X1578760Y-1118420D01*
X1570880Y-1116480D01*
X1563010Y-1118420D01*
X1556450Y-1123290D01*
X1552510Y-1132060D01*
X1553820Y-1140820D01*
X1559070Y-1149580D01*
G01X1401250Y-1283660D02*
X1322510D01*
G01Y-1246660D02*
X1371070Y-1283660D01*
G01X1401250Y-1240820D02*
X1348760Y-1267110D01*
G01X1756250Y2206160D02*
X1677510D01*
Y2230500D01*
X1681450Y2238290D01*
X1686700Y2243160D01*
X1697200Y2245100D01*
X1707690Y2243160D01*
X1714250Y2237310D01*
X1718190Y2230500D01*
Y2206160D01*
G01Y2230500D02*
X1756250Y2245100D01*
G01Y2299050D02*
X1677510D01*
X1693260Y2287370D01*
G01X1756250D02*
Y2310730D01*
G01X1690630Y2353970D02*
X1682760Y2359810D01*
X1678820Y2366630D01*
X1677510Y2374420D01*
X1680130Y2384150D01*
X1686700Y2390970D01*
X1694570Y2392920D01*
X1702450Y2391940D01*
X1709010Y2388050D01*
X1722130Y2368580D01*
X1731320Y2359810D01*
X1744440Y2353970D01*
X1756250Y2352020D01*
Y2392920D01*
G01X2070620Y-4645920D02*
X2060970Y-4639570D01*
X2049710Y-4635340D01*
X2036840D01*
X2022360Y-4641690D01*
X2011100Y-4652270D01*
X2003060Y-4664970D01*
X1996620Y-4686140D01*
X1995010Y-4705190D01*
X1998230Y-4724240D01*
X2003060Y-4736940D01*
X2012710Y-4749640D01*
X2023970Y-4758110D01*
X2035230Y-4762340D01*
X2046490D01*
X2057750Y-4758110D01*
X2067400Y-4751760D01*
X2075450Y-4743290D01*
G01X2141750Y-4762340D02*
Y-4635340D01*
X2122450Y-4660740D01*
G01Y-4762340D02*
X2161050D01*
G01X1953820Y-1621250D02*
Y-1542510D01*
X1978160D01*
X1985950Y-1546450D01*
X1990820Y-1551700D01*
X1992760Y-1562200D01*
X1990820Y-1572690D01*
X1984970Y-1579250D01*
X1978160Y-1583190D01*
X1953820D01*
G01X1978160D02*
X1992760Y-1621250D01*
G01X2028210Y-1555630D02*
X2034050Y-1547760D01*
X2040870Y-1543820D01*
X2048660Y-1542510D01*
X2058390Y-1545130D01*
X2065210Y-1551700D01*
X2067160Y-1559570D01*
X2066180Y-1567450D01*
X2062290Y-1574010D01*
X2042820Y-1587130D01*
X2034050Y-1596320D01*
X2028210Y-1609440D01*
X2026260Y-1621250D01*
X2067160D01*
G01X1946160Y-1371250D02*
Y-1292510D01*
X1970500D01*
X1978290Y-1296450D01*
X1983160Y-1301700D01*
X1985100Y-1312200D01*
X1983160Y-1322690D01*
X1977310Y-1329250D01*
X1970500Y-1333190D01*
X1946160D01*
G01X1970500D02*
X1985100Y-1371250D01*
G01X2050730D02*
Y-1292510D01*
X2014710Y-1348940D01*
X2063390D01*
G01X1987050Y-1049070D02*
X1981210Y-1045130D01*
X1974390Y-1042510D01*
X1966600D01*
X1957840Y-1046450D01*
X1951030Y-1053010D01*
X1946160Y-1060880D01*
X1942260Y-1074010D01*
X1941290Y-1085820D01*
X1943240Y-1097630D01*
X1946160Y-1105500D01*
X1952000Y-1113380D01*
X1958810Y-1118630D01*
X1965630Y-1121250D01*
X1972450D01*
X1979260Y-1118630D01*
X1985100Y-1114690D01*
X1989970Y-1109440D01*
G01X2020550Y-1055630D02*
X2026390Y-1047760D01*
X2033210Y-1043820D01*
X2041000Y-1042510D01*
X2050730Y-1045130D01*
X2057550Y-1051700D01*
X2059500Y-1059570D01*
X2058520Y-1067450D01*
X2054630Y-1074010D01*
X2035160Y-1087130D01*
X2026390Y-1096320D01*
X2020550Y-1109440D01*
X2018600Y-1121250D01*
X2059500D01*
G01X2058060Y3283070D02*
X2066100Y3270370D01*
X2075750Y3261900D01*
X2087010Y3257670D01*
X2099880Y3261900D01*
X2109530Y3270370D01*
X2119190Y3283070D01*
X2122400Y3300000D01*
Y3384670D01*
G01X2216050Y3257670D02*
Y3384670D01*
X2156530Y3293650D01*
X2236970D01*
G01X2337070Y-2570680D02*
X2331230Y-2566740D01*
X2324410Y-2564120D01*
X2316620D01*
X2307860Y-2568060D01*
X2301050Y-2574620D01*
X2296180Y-2582490D01*
X2292280Y-2595620D01*
X2291310Y-2607430D01*
X2293260Y-2619240D01*
X2296180Y-2627110D01*
X2302020Y-2634990D01*
X2308830Y-2640240D01*
X2315650Y-2642860D01*
X2322470D01*
X2329280Y-2640240D01*
X2335120Y-2636300D01*
X2339990Y-2631050D01*
G01X2372520Y-2633680D02*
X2379330Y-2640240D01*
X2387120Y-2642860D01*
X2394910Y-2640240D01*
X2401730Y-2632360D01*
X2406600Y-2620550D01*
X2408540Y-2608740D01*
Y-2594300D01*
X2406600Y-2582490D01*
X2401730Y-2571990D01*
X2395890Y-2566740D01*
X2389070Y-2564120D01*
X2381280Y-2566740D01*
X2375440Y-2571990D01*
X2371540Y-2579870D01*
X2369600Y-2590370D01*
X2371540Y-2599550D01*
X2376410Y-2608740D01*
X2382250Y-2613990D01*
X2389070Y-2615300D01*
X2396860Y-2612680D01*
X2402700Y-2606120D01*
X2408540Y-2594300D01*
G01X2216250Y-2126180D02*
X2137510D01*
Y-2101840D01*
X2141450Y-2094050D01*
X2146700Y-2089180D01*
X2157200Y-2087240D01*
X2167690Y-2089180D01*
X2174250Y-2095030D01*
X2178190Y-2101840D01*
Y-2126180D01*
G01Y-2101840D02*
X2216250Y-2087240D01*
G01Y-2033290D02*
X2137510D01*
X2153260Y-2044970D01*
G01X2216250D02*
Y-2021610D01*
G01X2181160Y-231150D02*
Y-152410D01*
X2205500D01*
X2213290Y-156350D01*
X2218160Y-161600D01*
X2220100Y-172100D01*
X2218160Y-182590D01*
X2212310Y-189150D01*
X2205500Y-193090D01*
X2181160D01*
G01X2205500D02*
X2220100Y-231150D01*
G01X2285730D02*
Y-152410D01*
X2249710Y-208840D01*
X2298390D01*
G01X2328970Y-198340D02*
X2335790Y-189150D01*
X2341630Y-183910D01*
X2349420Y-181280D01*
X2356230Y-183910D01*
X2361100Y-189150D01*
X2365000Y-197030D01*
X2365970Y-206220D01*
X2365000Y-214090D01*
X2361100Y-221970D01*
X2355260Y-228530D01*
X2348440Y-231150D01*
X2340650Y-228530D01*
X2333840Y-220650D01*
X2329940Y-208840D01*
X2328970Y-195720D01*
X2330920Y-178660D01*
X2333840Y-169470D01*
X2338710Y-160280D01*
X2345520Y-153720D01*
X2352340Y-152410D01*
X2359150Y-155030D01*
X2364020Y-161600D01*
G01X2222050Y90830D02*
X2216210Y94770D01*
X2209390Y97390D01*
X2201600D01*
X2192840Y93450D01*
X2186030Y86890D01*
X2181160Y79020D01*
X2177260Y65890D01*
X2176290Y54080D01*
X2178240Y42270D01*
X2181160Y34400D01*
X2187000Y26520D01*
X2193810Y21270D01*
X2200630Y18650D01*
X2207450D01*
X2214260Y21270D01*
X2220100Y25210D01*
X2224970Y30460D01*
G01X2252630Y34400D02*
X2258470Y25210D01*
X2266260Y19960D01*
X2275020Y18650D01*
X2282810Y19960D01*
X2290600Y26520D01*
X2295470Y34400D01*
X2296440Y42270D01*
X2294500Y51460D01*
X2287680Y58020D01*
X2280870Y60650D01*
X2272100D01*
G01X2280870D02*
X2286710Y64580D01*
X2291580Y71140D01*
X2293520Y79020D01*
X2291580Y86890D01*
X2286710Y93450D01*
X2277940Y97390D01*
X2269180Y96080D01*
X2260420Y90830D01*
G01X2345520Y18650D02*
X2347470Y35710D01*
X2350390Y50140D01*
X2354290Y63270D01*
X2359150Y77700D01*
X2366940Y97390D01*
X2328000D01*
G01X2181160Y268650D02*
Y347390D01*
X2205500D01*
X2213290Y343450D01*
X2218160Y338200D01*
X2220100Y327700D01*
X2218160Y317210D01*
X2212310Y310650D01*
X2205500Y306710D01*
X2181160D01*
G01X2205500D02*
X2220100Y268650D01*
G01X2252630Y280460D02*
X2258470Y273900D01*
X2265290Y269960D01*
X2274050Y268650D01*
X2282810Y271270D01*
X2289630Y276520D01*
X2294500Y285710D01*
X2295470Y296210D01*
X2293520Y306710D01*
X2288650Y313270D01*
X2281840Y318520D01*
X2275020Y319830D01*
X2268210Y318520D01*
X2259450Y313270D01*
X2262370Y347390D01*
X2288650D01*
G01X2328970Y334270D02*
X2334810Y342140D01*
X2341630Y346080D01*
X2349420Y347390D01*
X2359150Y344770D01*
X2365970Y338200D01*
X2367920Y330330D01*
X2366940Y322450D01*
X2363050Y315890D01*
X2343580Y302770D01*
X2334810Y293580D01*
X2328970Y280460D01*
X2327020Y268650D01*
X2367920D01*
G01X2181360Y803750D02*
Y882490D01*
X2205700D01*
X2213490Y878550D01*
X2218360Y873300D01*
X2220300Y862800D01*
X2218360Y852310D01*
X2212510Y845750D01*
X2205700Y841810D01*
X2181360D01*
G01X2205700D02*
X2220300Y803750D01*
G01X2285930D02*
Y882490D01*
X2249910Y826060D01*
X2298590D01*
G01X2326250Y815560D02*
X2332090Y809000D01*
X2338910Y805060D01*
X2347670Y803750D01*
X2356430Y806370D01*
X2363250Y811620D01*
X2368120Y820810D01*
X2369090Y831310D01*
X2367140Y841810D01*
X2362270Y848370D01*
X2355460Y853620D01*
X2348640Y854930D01*
X2341830Y853620D01*
X2333070Y848370D01*
X2335990Y882490D01*
X2362270D01*
G01X2217050Y1120930D02*
X2211210Y1124870D01*
X2204390Y1127490D01*
X2196600D01*
X2187840Y1123550D01*
X2181030Y1116990D01*
X2176160Y1109120D01*
X2172260Y1095990D01*
X2171290Y1084180D01*
X2173240Y1072370D01*
X2176160Y1064500D01*
X2182000Y1056620D01*
X2188810Y1051370D01*
X2195630Y1048750D01*
X2202450D01*
X2209260Y1051370D01*
X2215100Y1055310D01*
X2219970Y1060560D01*
G01X2247630Y1064500D02*
X2253470Y1055310D01*
X2261260Y1050060D01*
X2270020Y1048750D01*
X2277810Y1050060D01*
X2285600Y1056620D01*
X2290470Y1064500D01*
X2291440Y1072370D01*
X2289500Y1081560D01*
X2282680Y1088120D01*
X2275870Y1090750D01*
X2267100D01*
G01X2275870D02*
X2281710Y1094680D01*
X2286580Y1101240D01*
X2288520Y1109120D01*
X2286580Y1116990D01*
X2281710Y1123550D01*
X2272940Y1127490D01*
X2264180Y1126180D01*
X2255420Y1120930D01*
G01X2323970Y1081560D02*
X2330790Y1090750D01*
X2336630Y1095990D01*
X2344420Y1098620D01*
X2351230Y1095990D01*
X2356100Y1090750D01*
X2360000Y1082870D01*
X2360970Y1073680D01*
X2360000Y1065810D01*
X2356100Y1057930D01*
X2350260Y1051370D01*
X2343440Y1048750D01*
X2335650Y1051370D01*
X2328840Y1059250D01*
X2324940Y1071060D01*
X2323970Y1084180D01*
X2325920Y1101240D01*
X2328840Y1110430D01*
X2333710Y1119620D01*
X2340520Y1126180D01*
X2347340Y1127490D01*
X2354150Y1124870D01*
X2359020Y1118300D01*
G01X2181160Y1293750D02*
Y1372490D01*
X2205500D01*
X2213290Y1368550D01*
X2218160Y1363300D01*
X2220100Y1352800D01*
X2218160Y1342310D01*
X2212310Y1335750D01*
X2205500Y1331810D01*
X2181160D01*
G01X2205500D02*
X2220100Y1293750D01*
G01X2252630Y1305560D02*
X2258470Y1299000D01*
X2265290Y1295060D01*
X2274050Y1293750D01*
X2282810Y1296370D01*
X2289630Y1301620D01*
X2294500Y1310810D01*
X2295470Y1321310D01*
X2293520Y1331810D01*
X2288650Y1338370D01*
X2281840Y1343620D01*
X2275020Y1344930D01*
X2268210Y1343620D01*
X2259450Y1338370D01*
X2262370Y1372490D01*
X2288650D01*
G01X2347470Y1293750D02*
Y1372490D01*
X2335790Y1356740D01*
G01Y1293750D02*
X2359150D01*
G01X2181360Y1828650D02*
Y1907390D01*
X2205700D01*
X2213490Y1903450D01*
X2218360Y1898200D01*
X2220300Y1887700D01*
X2218360Y1877210D01*
X2212510Y1870650D01*
X2205700Y1866710D01*
X2181360D01*
G01X2205700D02*
X2220300Y1828650D01*
G01X2285930D02*
Y1907390D01*
X2249910Y1850960D01*
X2298590D01*
G01X2359350Y1828650D02*
Y1907390D01*
X2323330Y1850960D01*
X2372010D01*
G01X2207050Y2151030D02*
X2201210Y2154970D01*
X2194390Y2157590D01*
X2186600D01*
X2177840Y2153650D01*
X2171030Y2147090D01*
X2166160Y2139220D01*
X2162260Y2126090D01*
X2161290Y2114280D01*
X2163240Y2102470D01*
X2166160Y2094600D01*
X2172000Y2086720D01*
X2178810Y2081470D01*
X2185630Y2078850D01*
X2192450D01*
X2199260Y2081470D01*
X2205100Y2085410D01*
X2209970Y2090660D01*
G01X2237630Y2094600D02*
X2243470Y2085410D01*
X2251260Y2080160D01*
X2260020Y2078850D01*
X2267810Y2080160D01*
X2275600Y2086720D01*
X2280470Y2094600D01*
X2281440Y2102470D01*
X2279500Y2111660D01*
X2272680Y2118220D01*
X2265870Y2120850D01*
X2257100D01*
G01X2265870D02*
X2271710Y2124780D01*
X2276580Y2131340D01*
X2278520Y2139220D01*
X2276580Y2147090D01*
X2271710Y2153650D01*
X2262940Y2157590D01*
X2254180Y2156280D01*
X2245420Y2151030D01*
G01X2311050Y2090660D02*
X2316890Y2084100D01*
X2323710Y2080160D01*
X2332470Y2078850D01*
X2341230Y2081470D01*
X2348050Y2086720D01*
X2352920Y2095910D01*
X2353890Y2106410D01*
X2351940Y2116910D01*
X2347070Y2123470D01*
X2340260Y2128720D01*
X2333440Y2130030D01*
X2326630Y2128720D01*
X2317870Y2123470D01*
X2320790Y2157590D01*
X2347070D01*
G01X2181160Y2323850D02*
Y2402590D01*
X2205500D01*
X2213290Y2398650D01*
X2218160Y2393400D01*
X2220100Y2382900D01*
X2218160Y2372410D01*
X2212310Y2365850D01*
X2205500Y2361910D01*
X2181160D01*
G01X2205500D02*
X2220100Y2323850D01*
G01X2252630Y2335660D02*
X2258470Y2329100D01*
X2265290Y2325160D01*
X2274050Y2323850D01*
X2282810Y2326470D01*
X2289630Y2331720D01*
X2294500Y2340910D01*
X2295470Y2351410D01*
X2293520Y2361910D01*
X2288650Y2368470D01*
X2281840Y2373720D01*
X2275020Y2375030D01*
X2268210Y2373720D01*
X2259450Y2368470D01*
X2262370Y2402590D01*
X2288650D01*
G01X2347470D02*
X2339680Y2399970D01*
X2333840Y2393400D01*
X2329940Y2385530D01*
X2327020Y2375030D01*
X2326050Y2363220D01*
X2327020Y2351410D01*
X2329940Y2340910D01*
X2333840Y2333030D01*
X2339680Y2326470D01*
X2347470Y2323850D01*
X2355260Y2326470D01*
X2361100Y2333030D01*
X2365000Y2340910D01*
X2367920Y2351410D01*
X2368890Y2363220D01*
X2367920Y2375030D01*
X2365000Y2385530D01*
X2361100Y2393400D01*
X2355260Y2399970D01*
X2347470Y2402590D01*
G01X2434420Y544250D02*
X2442210Y537690D01*
X2450980Y533750D01*
X2458760D01*
X2466550Y537690D01*
X2472400Y544250D01*
X2475320Y553440D01*
X2473370Y562620D01*
X2468500Y570490D01*
X2459740Y575750D01*
X2448050Y578370D01*
X2441240Y583620D01*
X2438320Y592800D01*
X2440270Y601990D01*
X2445130Y608550D01*
X2451950Y612490D01*
X2458760D01*
X2465580Y609870D01*
X2471420Y603300D01*
G01X2499080Y612490D02*
X2512710Y533750D01*
X2528290Y612490D01*
X2543870Y533750D01*
X2557500Y612490D01*
G01X2601710Y533750D02*
Y612490D01*
X2590030Y596740D01*
G01Y533750D02*
X2613390D01*
G01X2653710Y545560D02*
X2659550Y539000D01*
X2666370Y535060D01*
X2675130Y533750D01*
X2683890Y536370D01*
X2690710Y541620D01*
X2695580Y550810D01*
X2696550Y561310D01*
X2694600Y571810D01*
X2689730Y578370D01*
X2682920Y583620D01*
X2676100Y584930D01*
X2669290Y583620D01*
X2660530Y578370D01*
X2663450Y612490D01*
X2689730D01*
G01X2449420Y1579250D02*
X2457210Y1572690D01*
X2465980Y1568750D01*
X2473760D01*
X2481550Y1572690D01*
X2487400Y1579250D01*
X2490320Y1588440D01*
X2488370Y1597620D01*
X2483500Y1605490D01*
X2474740Y1610750D01*
X2463050Y1613370D01*
X2456240Y1618620D01*
X2453320Y1627800D01*
X2455270Y1636990D01*
X2460130Y1643550D01*
X2466950Y1647490D01*
X2473760D01*
X2480580Y1644870D01*
X2486420Y1638300D01*
G01X2514080Y1647490D02*
X2527710Y1568750D01*
X2543290Y1647490D01*
X2558870Y1568750D01*
X2572500Y1647490D01*
G01X2616710Y1568750D02*
Y1647490D01*
X2605030Y1631740D01*
G01Y1568750D02*
X2628390D01*
G01X2701810D02*
Y1647490D01*
X2665790Y1591060D01*
X2714470D01*
G01X2464420Y2604250D02*
X2472210Y2597690D01*
X2480980Y2593750D01*
X2488760D01*
X2496550Y2597690D01*
X2502400Y2604250D01*
X2505320Y2613440D01*
X2503370Y2622620D01*
X2498500Y2630490D01*
X2489740Y2635750D01*
X2478050Y2638370D01*
X2471240Y2643620D01*
X2468320Y2652800D01*
X2470270Y2661990D01*
X2475130Y2668550D01*
X2481950Y2672490D01*
X2488760D01*
X2495580Y2669870D01*
X2501420Y2663300D01*
G01X2529080Y2672490D02*
X2542710Y2593750D01*
X2558290Y2672490D01*
X2573870Y2593750D01*
X2587500Y2672490D01*
G01X2631710Y2593750D02*
Y2672490D01*
X2620030Y2656740D01*
G01Y2593750D02*
X2643390D01*
G01X2683710Y2609500D02*
X2689550Y2600310D01*
X2697340Y2595060D01*
X2706100Y2593750D01*
X2713890Y2595060D01*
X2721680Y2601620D01*
X2726550Y2609500D01*
X2727520Y2617370D01*
X2725580Y2626560D01*
X2718760Y2633120D01*
X2711950Y2635750D01*
X2703180D01*
G01X2711950D02*
X2717790Y2639680D01*
X2722660Y2646240D01*
X2724600Y2654120D01*
X2722660Y2661990D01*
X2717790Y2668550D01*
X2709020Y2672490D01*
X2700260Y2671180D01*
X2691500Y2665930D01*
G01X2739070Y-1342950D02*
X2735130Y-1348790D01*
X2732510Y-1355610D01*
Y-1363400D01*
X2736450Y-1372160D01*
X2743010Y-1378970D01*
X2750880Y-1383840D01*
X2764010Y-1387740D01*
X2775820Y-1388710D01*
X2787630Y-1386760D01*
X2795500Y-1383840D01*
X2803380Y-1378000D01*
X2808630Y-1371190D01*
X2811250Y-1364370D01*
Y-1357550D01*
X2808630Y-1350740D01*
X2804690Y-1344900D01*
X2799440Y-1340030D01*
G01X2795500Y-1312370D02*
X2804690Y-1306530D01*
X2809940Y-1298740D01*
X2811250Y-1289980D01*
X2809940Y-1282190D01*
X2803380Y-1274400D01*
X2795500Y-1269530D01*
X2787630Y-1268560D01*
X2778440Y-1270500D01*
X2771880Y-1277320D01*
X2769250Y-1284130D01*
Y-1292900D01*
G01Y-1284130D02*
X2765320Y-1278290D01*
X2758760Y-1273420D01*
X2750880Y-1271480D01*
X2743010Y-1273420D01*
X2736450Y-1278290D01*
X2732510Y-1287060D01*
X2733820Y-1295820D01*
X2739070Y-1304580D01*
G01X2745630Y-1236030D02*
X2737760Y-1230190D01*
X2733820Y-1223370D01*
X2732510Y-1215580D01*
X2735130Y-1205850D01*
X2741700Y-1199030D01*
X2749570Y-1197080D01*
X2757450Y-1198060D01*
X2764010Y-1201950D01*
X2777130Y-1221420D01*
X2786320Y-1230190D01*
X2799440Y-1236030D01*
X2811250Y-1237980D01*
Y-1197080D01*
G01X2739070Y-772950D02*
X2735130Y-778790D01*
X2732510Y-785610D01*
Y-793400D01*
X2736450Y-802160D01*
X2743010Y-808970D01*
X2750880Y-813840D01*
X2764010Y-817740D01*
X2775820Y-818710D01*
X2787630Y-816760D01*
X2795500Y-813840D01*
X2803380Y-808000D01*
X2808630Y-801190D01*
X2811250Y-794370D01*
Y-787550D01*
X2808630Y-780740D01*
X2804690Y-774900D01*
X2799440Y-770030D01*
G01X2795500Y-742370D02*
X2804690Y-736530D01*
X2809940Y-728740D01*
X2811250Y-719980D01*
X2809940Y-712190D01*
X2803380Y-704400D01*
X2795500Y-699530D01*
X2787630Y-698560D01*
X2778440Y-700500D01*
X2771880Y-707320D01*
X2769250Y-714130D01*
Y-722900D01*
G01Y-714130D02*
X2765320Y-708290D01*
X2758760Y-703420D01*
X2750880Y-701480D01*
X2743010Y-703420D01*
X2736450Y-708290D01*
X2732510Y-717060D01*
X2733820Y-725820D01*
X2739070Y-734580D01*
G01X2795500Y-668950D02*
X2804690Y-663110D01*
X2809940Y-655320D01*
X2811250Y-646560D01*
X2809940Y-638770D01*
X2803380Y-630980D01*
X2795500Y-626110D01*
X2787630Y-625140D01*
X2778440Y-627080D01*
X2771880Y-633900D01*
X2769250Y-640710D01*
Y-649480D01*
G01Y-640710D02*
X2765320Y-634870D01*
X2758760Y-630000D01*
X2750880Y-628060D01*
X2743010Y-630000D01*
X2736450Y-634870D01*
X2732510Y-643640D01*
X2733820Y-652400D01*
X2739070Y-661160D01*
G01X2755400Y-231250D02*
Y-152510D01*
X2779740D01*
X2787530Y-156450D01*
X2792400Y-161700D01*
X2794340Y-172200D01*
X2792400Y-182690D01*
X2786550Y-189250D01*
X2779740Y-193190D01*
X2755400D01*
G01X2779740D02*
X2794340Y-231250D01*
G01X2859970D02*
Y-152510D01*
X2823950Y-208940D01*
X2872630D01*
G01X2905160Y-222070D02*
X2911970Y-228630D01*
X2919760Y-231250D01*
X2927550Y-228630D01*
X2934370Y-220750D01*
X2939240Y-208940D01*
X2941180Y-197130D01*
Y-182690D01*
X2939240Y-170880D01*
X2934370Y-160380D01*
X2928530Y-155130D01*
X2921710Y-152510D01*
X2913920Y-155130D01*
X2908080Y-160380D01*
X2904180Y-168260D01*
X2902240Y-178760D01*
X2904180Y-187940D01*
X2909050Y-197130D01*
X2914890Y-202380D01*
X2921710Y-203690D01*
X2929500Y-201070D01*
X2935340Y-194510D01*
X2941180Y-182690D01*
G01X2719420Y49250D02*
X2727210Y42690D01*
X2735980Y38750D01*
X2743760D01*
X2751550Y42690D01*
X2757400Y49250D01*
X2760320Y58440D01*
X2758370Y67620D01*
X2753500Y75490D01*
X2744740Y80750D01*
X2733050Y83370D01*
X2726240Y88620D01*
X2723320Y97800D01*
X2725270Y106990D01*
X2730130Y113550D01*
X2736950Y117490D01*
X2743760D01*
X2750580Y114870D01*
X2756420Y108300D01*
G01X2784080Y117490D02*
X2797710Y38750D01*
X2813290Y117490D01*
X2828870Y38750D01*
X2842500Y117490D01*
G01X2886710Y38750D02*
Y117490D01*
X2875030Y101740D01*
G01Y38750D02*
X2898390D01*
G01X2941630Y104370D02*
X2947470Y112240D01*
X2954290Y116180D01*
X2962080Y117490D01*
X2971810Y114870D01*
X2978630Y108300D01*
X2980580Y100430D01*
X2979600Y92550D01*
X2975710Y85990D01*
X2956240Y72870D01*
X2947470Y63680D01*
X2941630Y50560D01*
X2939680Y38750D01*
X2980580D01*
G01X2755400Y803750D02*
Y882490D01*
X2779740D01*
X2787530Y878550D01*
X2792400Y873300D01*
X2794340Y862800D01*
X2792400Y852310D01*
X2786550Y845750D01*
X2779740Y841810D01*
X2755400D01*
G01X2779740D02*
X2794340Y803750D01*
G01X2859970D02*
Y882490D01*
X2823950Y826060D01*
X2872630D01*
G01X2921710Y803750D02*
X2928530Y805060D01*
X2936310Y809000D01*
X2941180Y815560D01*
X2943130Y824750D01*
X2941180Y833930D01*
X2935340Y841810D01*
X2926580Y845750D01*
X2916840D01*
X2911000Y848370D01*
X2906130Y854930D01*
X2904180Y864120D01*
X2907110Y873300D01*
X2913920Y879870D01*
X2921710Y882490D01*
X2929500Y879870D01*
X2936310Y873300D01*
X2939240Y864120D01*
X2937290Y854930D01*
X2932420Y848370D01*
X2926580Y845750D01*
X2916840D01*
X2908080Y841810D01*
X2902240Y833930D01*
X2900290Y824750D01*
X2902240Y815560D01*
X2907110Y809000D01*
X2914890Y805060D01*
X2921710Y803750D01*
G01X2729420Y1084250D02*
X2737210Y1077690D01*
X2745980Y1073750D01*
X2753760D01*
X2761550Y1077690D01*
X2767400Y1084250D01*
X2770320Y1093440D01*
X2768370Y1102620D01*
X2763500Y1110490D01*
X2754740Y1115750D01*
X2743050Y1118370D01*
X2736240Y1123620D01*
X2733320Y1132800D01*
X2735270Y1141990D01*
X2740130Y1148550D01*
X2746950Y1152490D01*
X2753760D01*
X2760580Y1149870D01*
X2766420Y1143300D01*
G01X2794080Y1152490D02*
X2807710Y1073750D01*
X2823290Y1152490D01*
X2838870Y1073750D01*
X2852500Y1152490D01*
G01X2896710Y1073750D02*
Y1152490D01*
X2885030Y1136740D01*
G01Y1073750D02*
X2908390D01*
G01X2970130D02*
Y1152490D01*
X2958450Y1136740D01*
G01Y1073750D02*
X2981810D01*
G01X2754640Y1823850D02*
Y1902590D01*
X2778980D01*
X2786770Y1898650D01*
X2791640Y1893400D01*
X2793580Y1882900D01*
X2791640Y1872410D01*
X2785790Y1865850D01*
X2778980Y1861910D01*
X2754640D01*
G01X2778980D02*
X2793580Y1823850D01*
G01X2859210D02*
Y1902590D01*
X2823190Y1846160D01*
X2871870D01*
G01X2919000Y1823850D02*
X2920950Y1840910D01*
X2923870Y1855340D01*
X2927770Y1868470D01*
X2932630Y1882900D01*
X2940420Y1902590D01*
X2901480D01*
G01X2724420Y2104250D02*
X2732210Y2097690D01*
X2740980Y2093750D01*
X2748760D01*
X2756550Y2097690D01*
X2762400Y2104250D01*
X2765320Y2113440D01*
X2763370Y2122620D01*
X2758500Y2130490D01*
X2749740Y2135750D01*
X2738050Y2138370D01*
X2731240Y2143620D01*
X2728320Y2152800D01*
X2730270Y2161990D01*
X2735130Y2168550D01*
X2741950Y2172490D01*
X2748760D01*
X2755580Y2169870D01*
X2761420Y2163300D01*
G01X2789080Y2172490D02*
X2802710Y2093750D01*
X2818290Y2172490D01*
X2833870Y2093750D01*
X2847500Y2172490D01*
G01X2891710Y2093750D02*
Y2172490D01*
X2880030Y2156740D01*
G01Y2093750D02*
X2903390D01*
G01X2965130Y2172490D02*
X2957340Y2169870D01*
X2951500Y2163300D01*
X2947600Y2155430D01*
X2944680Y2144930D01*
X2943710Y2133120D01*
X2944680Y2121310D01*
X2947600Y2110810D01*
X2951500Y2102930D01*
X2957340Y2096370D01*
X2965130Y2093750D01*
X2972920Y2096370D01*
X2978760Y2102930D01*
X2982660Y2110810D01*
X2985580Y2121310D01*
X2986550Y2133120D01*
X2985580Y2144930D01*
X2982660Y2155430D01*
X2978760Y2163300D01*
X2972920Y2169870D01*
X2965130Y2172490D01*
G01X2828060Y-6786940D02*
X2836100Y-6799640D01*
X2845750Y-6808110D01*
X2857010Y-6812340D01*
X2869880Y-6808110D01*
X2879530Y-6799640D01*
X2889190Y-6786940D01*
X2892400Y-6770010D01*
Y-6685340D01*
G01X2966750Y-6812340D02*
Y-6685340D01*
X2947450Y-6710740D01*
G01Y-6812340D02*
X2986050D01*
G01X3075750Y-1120580D02*
X3082310Y-1112790D01*
X3086250Y-1104020D01*
Y-1096240D01*
X3082310Y-1088450D01*
X3075750Y-1082600D01*
X3066560Y-1079680D01*
X3057380Y-1081630D01*
X3049510Y-1086500D01*
X3044250Y-1095260D01*
X3041630Y-1106950D01*
X3036380Y-1113760D01*
X3027200Y-1116680D01*
X3018010Y-1114730D01*
X3011450Y-1109870D01*
X3007510Y-1103050D01*
Y-1096240D01*
X3010130Y-1089420D01*
X3016700Y-1083580D01*
G01X3007510Y-1055920D02*
X3086250Y-1042290D01*
X3007510Y-1026710D01*
X3086250Y-1011130D01*
X3007510Y-997500D01*
G01X3077070Y-969840D02*
X3083630Y-963030D01*
X3086250Y-955240D01*
X3083630Y-947450D01*
X3075750Y-940630D01*
X3063940Y-935760D01*
X3052130Y-933820D01*
X3037690D01*
X3025880Y-935760D01*
X3015380Y-940630D01*
X3010130Y-946470D01*
X3007510Y-953290D01*
X3010130Y-961080D01*
X3015380Y-966920D01*
X3023260Y-970820D01*
X3033760Y-972760D01*
X3042940Y-970820D01*
X3052130Y-965950D01*
X3057380Y-960110D01*
X3058690Y-953290D01*
X3056070Y-945500D01*
X3049510Y-939660D01*
X3037690Y-933820D01*
G01X3008750Y-570000D02*
X3087490D01*
X3071740Y-558320D01*
G01X3008750D02*
Y-581680D01*
G01X3510750Y-1165580D02*
X3517310Y-1157790D01*
X3521250Y-1149020D01*
Y-1141240D01*
X3517310Y-1133450D01*
X3510750Y-1127600D01*
X3501560Y-1124680D01*
X3492380Y-1126630D01*
X3484510Y-1131500D01*
X3479250Y-1140260D01*
X3476630Y-1151950D01*
X3471380Y-1158760D01*
X3462200Y-1161680D01*
X3453010Y-1159730D01*
X3446450Y-1154870D01*
X3442510Y-1148050D01*
Y-1141240D01*
X3445130Y-1134420D01*
X3451700Y-1128580D01*
G01X3442510Y-1100920D02*
X3521250Y-1087290D01*
X3442510Y-1071710D01*
X3521250Y-1056130D01*
X3442510Y-1042500D01*
G01X3521250Y-998290D02*
X3442510D01*
X3458260Y-1009970D01*
G01X3521250D02*
Y-986610D01*
G01X3488440Y-943370D02*
X3479250Y-936550D01*
X3474010Y-930710D01*
X3471380Y-922920D01*
X3474010Y-916110D01*
X3479250Y-911240D01*
X3487130Y-907340D01*
X3496320Y-906370D01*
X3504190Y-907340D01*
X3512070Y-911240D01*
X3518630Y-917080D01*
X3521250Y-923900D01*
X3518630Y-931690D01*
X3510750Y-938500D01*
X3498940Y-942400D01*
X3485820Y-943370D01*
X3468760Y-941420D01*
X3459570Y-938500D01*
X3450380Y-933630D01*
X3443820Y-926820D01*
X3442510Y-920000D01*
X3445130Y-913190D01*
X3451700Y-908320D01*
G01X3438750Y-585000D02*
X3517490D01*
X3501740Y-573320D01*
G01X3438750D02*
Y-596680D01*
G01X3532050Y315930D02*
X3526210Y319870D01*
X3519390Y322490D01*
X3511600D01*
X3502840Y318550D01*
X3496030Y311990D01*
X3491160Y304120D01*
X3487260Y290990D01*
X3486290Y279180D01*
X3488240Y267370D01*
X3491160Y259500D01*
X3497000Y251620D01*
X3503810Y246370D01*
X3510630Y243750D01*
X3517450D01*
X3524260Y246370D01*
X3530100Y250310D01*
X3534970Y255560D01*
G01X3562630Y259500D02*
X3568470Y250310D01*
X3576260Y245060D01*
X3585020Y243750D01*
X3592810Y245060D01*
X3600600Y251620D01*
X3605470Y259500D01*
X3606440Y267370D01*
X3604500Y276560D01*
X3597680Y283120D01*
X3590870Y285750D01*
X3582100D01*
G01X3590870D02*
X3596710Y289680D01*
X3601580Y296240D01*
X3603520Y304120D01*
X3601580Y311990D01*
X3596710Y318550D01*
X3587940Y322490D01*
X3579180Y321180D01*
X3570420Y315930D01*
G01X3669150Y243750D02*
Y322490D01*
X3633130Y266060D01*
X3681810D01*
G01X3513820Y1464500D02*
X3518690Y1456620D01*
X3524530Y1451370D01*
X3531340Y1448750D01*
X3539130Y1451370D01*
X3544970Y1456620D01*
X3550820Y1464500D01*
X3552760Y1475000D01*
Y1527490D01*
G01X3585290Y1460560D02*
X3591130Y1454000D01*
X3597950Y1450060D01*
X3606710Y1448750D01*
X3615470Y1451370D01*
X3622290Y1456620D01*
X3627160Y1465810D01*
X3628130Y1476310D01*
X3626180Y1486810D01*
X3621310Y1493370D01*
X3614500Y1498620D01*
X3607680Y1499930D01*
X3600870Y1498620D01*
X3592110Y1493370D01*
X3595030Y1527490D01*
X3621310D01*
G01X3880000Y4320000D02*
Y-7820000D01*
X-6150000D01*
Y4320000D01*
X3880000D01*
G01X-5451490Y-4706170D02*
Y-4642670D01*
X-5434550D01*
X-5429130Y-4645850D01*
X-5425750Y-4650080D01*
X-5424390Y-4658550D01*
X-5425750Y-4667010D01*
X-5429810Y-4672300D01*
X-5434550Y-4675480D01*
X-5451490D01*
G01X-5434550D02*
X-5424390Y-4706170D01*
G01X-5367160Y-4647960D02*
X-5371220Y-4644790D01*
X-5375960Y-4642670D01*
X-5381380D01*
X-5387480Y-4645850D01*
X-5392220Y-4651140D01*
X-5395610Y-4657490D01*
X-5398320Y-4668070D01*
X-5398990Y-4677600D01*
X-5397640Y-4687120D01*
X-5395610Y-4693470D01*
X-5391540Y-4699820D01*
X-5386800Y-4704050D01*
X-5382060Y-4706170D01*
X-5377320D01*
X-5372580Y-4704050D01*
X-5368510Y-4700880D01*
X-5365130Y-4696650D01*
G01X-5326180Y-4706170D02*
Y-4642670D01*
X-5334310Y-4655370D01*
G01Y-4706170D02*
X-5318050D01*
G01X-5283170Y-4653250D02*
X-5279110Y-4646900D01*
X-5274360Y-4643730D01*
X-5268950Y-4642670D01*
X-5262170Y-4644790D01*
X-5257430Y-4650080D01*
X-5256080Y-4656430D01*
X-5256750Y-4662780D01*
X-5259460Y-4668070D01*
X-5273010Y-4678650D01*
X-5279110Y-4686060D01*
X-5283170Y-4696650D01*
X-5284520Y-4706170D01*
X-5256080D01*
G01X-4906490D02*
Y-4642670D01*
X-4889550D01*
X-4884130Y-4645850D01*
X-4880750Y-4650080D01*
X-4879390Y-4658550D01*
X-4880750Y-4667010D01*
X-4884810Y-4672300D01*
X-4889550Y-4675480D01*
X-4906490D01*
G01X-4889550D02*
X-4879390Y-4706170D01*
G01X-4822160Y-4647960D02*
X-4826220Y-4644790D01*
X-4830960Y-4642670D01*
X-4836380D01*
X-4842480Y-4645850D01*
X-4847220Y-4651140D01*
X-4850610Y-4657490D01*
X-4853320Y-4668070D01*
X-4853990Y-4677600D01*
X-4852640Y-4687120D01*
X-4850610Y-4693470D01*
X-4846540Y-4699820D01*
X-4841800Y-4704050D01*
X-4837060Y-4706170D01*
X-4832320D01*
X-4827580Y-4704050D01*
X-4823510Y-4700880D01*
X-4820130Y-4696650D01*
G01X-4781180Y-4706170D02*
Y-4642670D01*
X-4789310Y-4655370D01*
G01Y-4706170D02*
X-4773050D01*
G01X-4740200Y-4693470D02*
X-4736140Y-4700880D01*
X-4730720Y-4705110D01*
X-4724620Y-4706170D01*
X-4719200Y-4705110D01*
X-4713780Y-4699820D01*
X-4710400Y-4693470D01*
X-4709720Y-4687120D01*
X-4711080Y-4679710D01*
X-4715820Y-4674420D01*
X-4720560Y-4672300D01*
X-4726650D01*
G01X-4720560D02*
X-4716490Y-4669130D01*
X-4713110Y-4663840D01*
X-4711750Y-4657490D01*
X-4713110Y-4651140D01*
X-4716490Y-4645850D01*
X-4722590Y-4642670D01*
X-4728690Y-4643730D01*
X-4734780Y-4647960D01*
G01X-3816490Y-4136170D02*
Y-4072670D01*
X-3799550D01*
X-3794130Y-4075850D01*
X-3790750Y-4080080D01*
X-3789390Y-4088550D01*
X-3790750Y-4097010D01*
X-3794810Y-4102300D01*
X-3799550Y-4105480D01*
X-3816490D01*
G01X-3799550D02*
X-3789390Y-4136170D01*
G01X-3732160Y-4077960D02*
X-3736220Y-4074790D01*
X-3740960Y-4072670D01*
X-3746380D01*
X-3752480Y-4075850D01*
X-3757220Y-4081140D01*
X-3760610Y-4087490D01*
X-3763320Y-4098070D01*
X-3763990Y-4107600D01*
X-3762640Y-4117120D01*
X-3760610Y-4123470D01*
X-3756540Y-4129820D01*
X-3751800Y-4134050D01*
X-3747060Y-4136170D01*
X-3742320D01*
X-3737580Y-4134050D01*
X-3733510Y-4130880D01*
X-3730130Y-4126650D01*
G01X-3691180Y-4136170D02*
Y-4072670D01*
X-3699310Y-4085370D01*
G01Y-4136170D02*
X-3683050D01*
G01X-3635300D02*
Y-4072670D01*
X-3643430Y-4085370D01*
G01Y-4136170D02*
X-3627170D01*
G54D12*
G01X-4595000Y-4325000D02*
X-6065000D01*
Y-2660000D01*
X-3497760D01*
G01X-6065000Y-3770000D02*
X-3497760D01*
G01X-6065000Y-3215000D02*
X-3497760Y-3213790D01*
G01X-4595000Y-3770000D02*
Y-4325000D01*
G01X-3497760Y-2660000D02*
Y-3770000D01*
G54D13*
G01X-5536750Y-7255250D02*
X-5965500Y-7684000D01*
G01X-5775000Y-7112500D02*
G02Y-7747500I0J-317500D01*
G02Y-7112500I0J317500D01*
G01X-5600250Y-7176000D02*
X-6029000Y-7604750D01*
G01X-5674920Y-7329920D02*
X-5875080Y-7530080D01*
G01Y-7329920D02*
X-5674920Y-7530080D01*
G01X-5715000Y4227500D02*
G02Y3592500I0J-317500D01*
G02Y4227500I0J317500D01*
G01X-5476750Y4084750D02*
X-5905500Y3656000D01*
G01X-5540250Y4164000D02*
X-5969000Y3735250D01*
G01X-5815080Y4010080D02*
X-5614920Y3809920D01*
G01Y4010080D02*
X-5815080Y3809920D01*
G01X3520000Y-7107500D02*
G02Y-7742500I0J-317500D01*
G02Y-7107500I0J317500D01*
G01X3694750Y-7171000D02*
X3266000Y-7599750D01*
G01X3500000Y4272500D02*
G02Y3637500I0J-317500D01*
G02Y4272500I0J317500D01*
G01X3738250Y4129750D02*
X3309500Y3701000D01*
G01X3674750Y4209000D02*
X3246000Y3780250D01*
G01X3758250Y-7250250D02*
X3329500Y-7679000D01*
G01X3419920Y-7324920D02*
X3620080Y-7525080D01*
G01Y-7324920D02*
X3419920Y-7525080D01*
G01X3399920Y4055080D02*
X3600080Y3854920D01*
G01Y4055080D02*
X3399920Y3854920D01*
G54D14*
G01X-5520000Y-4742500D02*
X-5320000D01*
Y-4617500D01*
X-5520000D01*
Y-4742500D01*
G01Y-4172500D02*
X-5320000D01*
Y-4047500D01*
X-5520000D01*
Y-4172500D01*
G01Y-3622500D02*
X-5320000D01*
Y-3497500D01*
X-5520000D01*
Y-3622500D01*
G01Y-3072500D02*
X-5320000D01*
Y-2947500D01*
X-5520000D01*
Y-3072500D01*
G01X-4975000Y-4742500D02*
X-4775000D01*
Y-4617500D01*
X-4975000D01*
Y-4742500D01*
G01Y-4172500D02*
X-4775000D01*
Y-4047500D01*
X-4975000D01*
Y-4172500D01*
G01Y-3622500D02*
X-4775000D01*
Y-3497500D01*
X-4975000D01*
Y-3622500D01*
G01Y-3072500D02*
X-4775000D01*
Y-2947500D01*
X-4975000D01*
Y-3072500D01*
G01X-4430000Y-4172500D02*
X-4230000D01*
Y-4047500D01*
X-4430000D01*
Y-4172500D01*
G01Y-3622500D02*
X-4230000D01*
Y-3497500D01*
X-4430000D01*
Y-3622500D01*
G01Y-3072500D02*
X-4230000D01*
Y-2947500D01*
X-4430000D01*
Y-3072500D01*
G01X-3726100Y-428800D02*
X-4596100D01*
Y-828800D01*
X-3726100D01*
Y-428800D01*
G01X-3885000Y-4172500D02*
X-3685000D01*
Y-4047500D01*
X-3885000D01*
Y-4172500D01*
G01Y-3622500D02*
X-3685000D01*
Y-3497500D01*
X-3885000D01*
Y-3622500D01*
G01X-3772480Y-428140D02*
Y-829460D01*
G01X-3597200Y-5385000D02*
Y-6095000D01*
X-3137200D01*
Y-5385000D01*
X-3597200D01*
G01X-2872400D02*
Y-6095000D01*
X-2412400D01*
Y-5385000D01*
X-2872400D01*
G01X-2144000D02*
Y-6095000D01*
X-1684000D01*
Y-5385000D01*
X-2144000D01*
G01X3133900Y-7753750D02*
X1546400D01*
G01D02*
Y-6769250D01*
G01Y-7623450D02*
X3133900D01*
G01X1546400Y-6769250D02*
X1498650D01*
G01D02*
Y-6690000D01*
G01D02*
X1546400D01*
G01D02*
Y-6610500D01*
G01D02*
X3133900D01*
G01X1990900Y-7426850D02*
G02X1762050Y-7198000I0J228850D01*
G02X1990900Y-6969150I228850J0D01*
G02X2219750Y-7198000I0J-228850D01*
G02X1990900Y-7426850I-228850J0D01*
G01X2752900D02*
G02X2524050Y-7198000I0J228850D01*
G02X2752900Y-6969150I228850J0D01*
G02X2981750Y-7198000I0J-228850D01*
G02X2752900Y-7426850I-228850J0D01*
G01X3133900Y-6769250D02*
Y-7753750D01*
G01Y-6610500D02*
Y-6690000D01*
G01D02*
X3086400D01*
G01D02*
Y-6769250D01*
G01D02*
X3133900D01*
G54D15*
G01X-5733000Y-5810000D02*
G02I-127000J0D01*
G01X-5898100Y-5746500D02*
X-5796500Y-5848100D01*
G02X-5821900Y-5873500I-12700J-12700D01*
G01X-5923500Y-5771900D01*
G02X-5898100Y-5746500I12700J12700D01*
G01X-5730100Y570000D02*
X-5410100D01*
Y730000D01*
X-5730100D01*
Y570000D01*
G01X-5409900Y980000D02*
X-5729900D01*
Y820000D01*
X-5409900D01*
Y980000D01*
G01Y1230000D02*
X-5729900D01*
Y1070000D01*
X-5409900D01*
Y1230000D01*
G01X-5419900Y1485000D02*
X-5739900D01*
Y1325000D01*
X-5419900D01*
Y1485000D01*
G01X-5370000Y30100D02*
Y-289900D01*
X-5210000D01*
Y30100D01*
X-5370000D01*
G01X-5155100Y570000D02*
X-4835100D01*
Y730000D01*
X-5155100D01*
Y570000D01*
G01X-5345100Y1645000D02*
X-5025100D01*
Y1805000D01*
X-5345100D01*
Y1645000D01*
G01Y1900000D02*
X-5025100D01*
Y2060000D01*
X-5345100D01*
Y1900000D01*
G01Y2155000D02*
X-5025100D01*
Y2315000D01*
X-5345100D01*
Y2155000D01*
G01X-5024900Y2575000D02*
X-5344900D01*
Y2415000D01*
X-5024900D01*
Y2575000D01*
G01X-5345100Y2675000D02*
X-5025100D01*
Y2835000D01*
X-5345100D01*
Y2675000D01*
G01X-4848000Y-5270000D02*
G02I-127000J0D01*
G01X-5013100Y-5206500D02*
X-4911500Y-5308100D01*
G02X-4936900Y-5333500I-12700J-12700D01*
G01X-5038500Y-5231900D01*
G02X-5013100Y-5206500I12700J12700D01*
G01X-4930100Y-1258500D02*
X-4610100D01*
Y-1098500D01*
X-4930100D01*
Y-1258500D01*
G01X-4921100Y-548700D02*
Y-868700D01*
X-4761100D01*
Y-548700D01*
X-4921100D01*
G01X-5115000Y30100D02*
Y-289900D01*
X-4955000D01*
Y30100D01*
X-5115000D01*
G01X-4703000Y295000D02*
G02I-127000J0D01*
G01X-4868100Y358500D02*
X-4766500Y256900D01*
G02X-4791900Y231500I-12700J-12700D01*
G01X-4893500Y333100D01*
G02X-4868100Y358500I12700J12700D01*
G01X-4716200Y-1513500D02*
X-4396200D01*
Y-1353500D01*
X-4716200D01*
Y-1513500D01*
G01X-4278800Y31200D02*
X-4598800D01*
Y-128800D01*
X-4278800D01*
Y31200D01*
G01X-4450000Y3229900D02*
Y3549900D01*
X-4610000D01*
Y3229900D01*
X-4450000D01*
G01X-4361000Y-1208500D02*
X-4041000D01*
Y-1048500D01*
X-4361000D01*
Y-1208500D01*
G01X-4073000Y250000D02*
G02I-127000J0D01*
G01X-4238100Y313500D02*
X-4136500Y211900D01*
G02X-4161900Y186500I-12700J-12700D01*
G01X-4263500Y288100D01*
G02X-4238100Y313500I12700J12700D01*
G01X-4031000Y-1463500D02*
X-3711000D01*
Y-1303500D01*
X-4031000D01*
Y-1463500D01*
G01X-4027000Y-128800D02*
X-3707000D01*
Y31200D01*
X-4027000D01*
Y-128800D01*
G01X-3814900Y1510000D02*
X-4134900D01*
Y1350000D01*
X-3814900D01*
Y1510000D01*
G01Y1845000D02*
X-4134900D01*
Y1685000D01*
X-3814900D01*
Y1845000D01*
G01X-4136200Y1941200D02*
X-3816200D01*
Y2101200D01*
X-4136200D01*
Y1941200D01*
G01Y2201200D02*
X-3816200D01*
Y2361200D01*
X-4136200D01*
Y2201200D01*
G01X-4138800Y2460000D02*
X-3818800D01*
Y2620000D01*
X-4138800D01*
Y2460000D01*
G01X-3651100Y-538700D02*
Y-858700D01*
X-3491100D01*
Y-538700D01*
X-3651100D01*
G01X-3171100Y-486000D02*
G02X-2917100Y-740000I0J-254000D01*
G02X-3171100Y-994000I-254000J0D01*
G02X-3425100Y-740000I0J254000D01*
G02X-3171100Y-486000I254000J0D01*
G01X-3476100Y50000D02*
Y-270000D01*
X-3316100D01*
Y50000D01*
X-3476100D01*
G01X-3269100Y420000D02*
G02I-127000J0D01*
G01X-3434200Y483500D02*
X-3332600Y381900D01*
G02X-3358000Y356500I-12700J-12700D01*
G01X-3459600Y458100D01*
G02X-3434200Y483500I12700J12700D01*
G01X-3241100Y50000D02*
Y-270000D01*
X-3081100D01*
Y50000D01*
X-3241100D01*
G01X-2889900Y1110000D02*
X-3209900D01*
Y950000D01*
X-2889900D01*
Y1110000D01*
G01X-3135000Y1284900D02*
Y1604900D01*
X-3295000D01*
Y1284900D01*
X-3135000D01*
G01X-2836900Y-3720000D02*
G02I-127000J0D01*
G01X-3002000Y-3656500D02*
X-2900400Y-3758100D01*
G02X-2925800Y-3783500I-12700J-12700D01*
G01X-3027400Y-3681900D01*
G02X-3002000Y-3656500I12700J12700D01*
G01X-2818000Y640000D02*
G02I-127000J0D01*
G01X-2983100Y703500D02*
X-2881500Y601900D01*
G02X-2906900Y576500I-12700J-12700D01*
G01X-3008500Y678100D01*
G02X-2983100Y703500I12700J12700D01*
G01X-2965000Y1605100D02*
Y1285100D01*
X-2805000D01*
Y1605100D01*
X-2965000D01*
G01X-2501900Y-4685000D02*
G02I-127000J0D01*
G01X-2667000Y-4621500D02*
X-2565400Y-4723100D01*
G02X-2590800Y-4748500I-12700J-12700D01*
G01X-2692400Y-4646900D01*
G02X-2667000Y-4621500I12700J12700D01*
G01X-2711200Y-1290000D02*
X-2391200D01*
Y-1130000D01*
X-2711200D01*
Y-1290000D01*
G01X-2690100Y-1030000D02*
X-2370100D01*
Y-870000D01*
X-2690100D01*
Y-1030000D01*
G01X-2371200Y-630000D02*
X-2691200D01*
Y-790000D01*
X-2371200D01*
Y-630000D01*
G01X-2553000Y155000D02*
G02I-127000J0D01*
G01X-2718100Y218500D02*
X-2616500Y116900D01*
G02X-2641900Y91500I-12700J-12700D01*
G01X-2743500Y193100D01*
G02X-2718100Y218500I12700J12700D01*
G01X-2560000Y1284900D02*
Y1604900D01*
X-2720000D01*
Y1284900D01*
X-2560000D01*
G01X-2183000Y-3815000D02*
G02I-127000J0D01*
G01X-2193000Y330000D02*
G02I-127000J0D01*
G01X-2398000Y720000D02*
G02I-127000J0D01*
G01X-2563100Y783500D02*
X-2461500Y681900D01*
G02X-2486900Y656500I-12700J-12700D01*
G01X-2588500Y758100D01*
G02X-2563100Y783500I12700J12700D01*
G01X-2314900Y1110000D02*
X-2634900D01*
Y950000D01*
X-2314900D01*
Y1110000D01*
G01X-2348100Y-3751500D02*
X-2246500Y-3853100D01*
G02X-2271900Y-3878500I-12700J-12700D01*
G01X-2373500Y-3776900D01*
G02X-2348100Y-3751500I12700J12700D01*
G01X-2190000Y-674900D02*
Y-994900D01*
X-2030000D01*
Y-674900D01*
X-2190000D01*
G01X-2358100Y393500D02*
X-2256500Y291900D01*
G02X-2281900Y266500I-12700J-12700D01*
G01X-2383500Y368100D01*
G02X-2358100Y393500I12700J12700D01*
G01X-2016400Y610000D02*
G02I-127000J0D01*
G01X-2181500Y673500D02*
X-2079900Y571900D01*
G02X-2105300Y546500I-12700J-12700D01*
G01X-2206900Y648100D01*
G02X-2181500Y673500I12700J12700D01*
G01X-2390000Y1605100D02*
Y1285100D01*
X-2230000D01*
Y1605100D01*
X-2390000D01*
G01X-1664100Y-4200000D02*
G02I-127000J0D01*
G01X-1790000Y-996200D02*
Y-676200D01*
X-1950000D01*
Y-996200D01*
X-1790000D01*
G01X-1843000Y330000D02*
G02I-127000J0D01*
G01X-2008100Y393500D02*
X-1906500Y291900D01*
G02X-1931900Y266500I-12700J-12700D01*
G01X-2033500Y368100D01*
G02X-2008100Y393500I12700J12700D01*
G01X-1660800Y730000D02*
G02I-127000J0D01*
G01X-1739900Y1110000D02*
X-2059900D01*
Y950000D01*
X-1739900D01*
Y1110000D01*
G01X-1985000Y1284900D02*
Y1604900D01*
X-2145000D01*
Y1284900D01*
X-1985000D01*
G01X-1829200Y-4136500D02*
X-1727600Y-4238100D01*
G02X-1753000Y-4263500I-12700J-12700D01*
G01X-1854600Y-4161900D01*
G02X-1829200Y-4136500I12700J12700D01*
G01X-1483000Y330000D02*
G02I-127000J0D01*
G01X-1648100Y393500D02*
X-1546500Y291900D01*
G02X-1571900Y266500I-12700J-12700D01*
G01X-1673500Y368100D01*
G02X-1648100Y393500I12700J12700D01*
G01X-1825900Y793500D02*
X-1724300Y691900D01*
G02X-1749700Y666500I-12700J-12700D01*
G01X-1851300Y768100D01*
G02X-1825900Y793500I12700J12700D01*
G01X-1815000Y1605100D02*
Y1285100D01*
X-1655000D01*
Y1605100D01*
X-1815000D01*
G01X-1480100Y530000D02*
X-1160100D01*
Y690000D01*
X-1480100D01*
Y530000D01*
G01X-1066000Y1020000D02*
G02X-1320000Y766000I-254000J0D01*
G02X-1574000Y1020000I0J254000D01*
G02X-1320000Y1274000I254000J0D01*
G02X-1066000Y1020000I0J-254000D01*
G01X-953000Y330000D02*
G02I-127000J0D01*
G01X-899100Y-4200000D02*
G02I-127000J0D01*
G01X-1064200Y-4136500D02*
X-962600Y-4238100D01*
G02X-988000Y-4263500I-12700J-12700D01*
G01X-1089600Y-4161900D01*
G02X-1064200Y-4136500I12700J12700D01*
G01X-1118100Y393500D02*
X-1016500Y291900D01*
G02X-1041900Y266500I-12700J-12700D01*
G01X-1143500Y368100D01*
G02X-1118100Y393500I12700J12700D01*
G01X-743000Y730000D02*
G02I-127000J0D01*
G01X-908100Y793500D02*
X-806500Y691900D01*
G02X-831900Y666500I-12700J-12700D01*
G01X-933500Y768100D01*
G02X-908100Y793500I12700J12700D01*
G01X-985000Y1605100D02*
Y1285100D01*
X-825000D01*
Y1605100D01*
X-985000D01*
G01X-593000Y330000D02*
G02I-127000J0D01*
G01X-758100Y393500D02*
X-656500Y291900D01*
G02X-681900Y266500I-12700J-12700D01*
G01X-783500Y368100D01*
G02X-758100Y393500I12700J12700D01*
G01X-900100Y950000D02*
X-580100D01*
Y1110000D01*
X-900100D01*
Y950000D01*
G01X-745000Y1605100D02*
Y1285100D01*
X-585000D01*
Y1605100D01*
X-745000D01*
G01X-285400Y-1150100D02*
Y-830100D01*
X-445400D01*
Y-1150100D01*
X-285400D01*
G01X-193000Y430000D02*
G02I-127000J0D01*
G01X-139100Y-4200000D02*
G02I-127000J0D01*
G01X-304200Y-4136500D02*
X-202600Y-4238100D01*
G02X-228000Y-4263500I-12700J-12700D01*
G01X-329600Y-4161900D01*
G02X-304200Y-4136500I12700J12700D01*
G01X-358100Y493500D02*
X-256500Y391900D01*
G02X-281900Y366500I-12700J-12700D01*
G01X-383500Y468100D01*
G02X-358100Y493500I12700J12700D01*
G01X-325100Y950000D02*
X-5100D01*
Y1110000D01*
X-325100D01*
Y950000D01*
G01X-410000Y1605100D02*
Y1285100D01*
X-250000D01*
Y1605100D01*
X-410000D01*
G01X70200Y-1150100D02*
Y-830100D01*
X-89800D01*
Y-1150100D01*
X70200D01*
G01X117000Y130000D02*
G02I-127000J0D01*
G01X-48100Y193500D02*
X53500Y91900D01*
G02X28100Y66500I-12700J-12700D01*
G01X-73500Y168100D01*
G02X-48100Y193500I12700J12700D01*
G01X-80000Y1605100D02*
Y1285100D01*
X80000D01*
Y1605100D01*
X-80000D01*
G01X425800Y-1150100D02*
Y-830100D01*
X265800D01*
Y-1150100D01*
X425800D01*
G01X477000Y430000D02*
G02I-127000J0D01*
G01X311900Y493500D02*
X413500Y391900D01*
G02X388100Y366500I-12700J-12700D01*
G01X286500Y468100D01*
G02X311900Y493500I12700J12700D01*
G01X254900Y950000D02*
X574900D01*
Y1110000D01*
X254900D01*
Y950000D01*
G01X170000Y1605100D02*
Y1285100D01*
X330000D01*
Y1605100D01*
X170000D01*
G01X367400Y-2549900D02*
Y-2869900D01*
X527400D01*
Y-2549900D01*
X367400D01*
G01X500000Y1605100D02*
Y1285100D01*
X660000D01*
Y1605100D01*
X500000D01*
G01X755000D02*
Y1285100D01*
X915000D01*
Y1605100D01*
X755000D01*
G01X1232000Y1610000D02*
G02I-127000J0D01*
G01X1066900Y1673500D02*
X1168500Y1571900D01*
G02X1143100Y1546500I-12700J-12700D01*
G01X1041500Y1648100D01*
G02X1066900Y1673500I12700J12700D01*
G01X1675000Y-1330100D02*
Y-1010100D01*
X1515000D01*
Y-1330100D01*
X1675000D01*
G01X1800000Y2114900D02*
Y2434900D01*
X1640000D01*
Y2114900D01*
X1800000D01*
G01X2175100Y-1505000D02*
X1855100D01*
Y-1665000D01*
X2175100D01*
Y-1505000D01*
G01X1854900Y-1415000D02*
X2174900D01*
Y-1255000D01*
X1854900D01*
Y-1415000D01*
G01Y-1165000D02*
X2174900D01*
Y-1005000D01*
X1854900D01*
Y-1165000D01*
G01X2260000Y-2245100D02*
Y-1925100D01*
X2100000D01*
Y-2245100D01*
X2260000D01*
G01X2109900Y-269900D02*
X2429900D01*
Y-109900D01*
X2109900D01*
Y-269900D01*
G01X2430100Y140100D02*
X2110100D01*
Y-19900D01*
X2430100D01*
Y140100D01*
G01Y390100D02*
X2110100D01*
Y230100D01*
X2430100D01*
Y390100D01*
G01X2110100Y765000D02*
X2430100D01*
Y925000D01*
X2110100D01*
Y765000D01*
G01X2430100Y1170000D02*
X2110100D01*
Y1010000D01*
X2430100D01*
Y1170000D01*
G01Y1415000D02*
X2110100D01*
Y1255000D01*
X2430100D01*
Y1415000D01*
G01X2110100Y1789900D02*
X2430100D01*
Y1949900D01*
X2110100D01*
Y1789900D01*
G01X2430100Y2199900D02*
X2110100D01*
Y2039900D01*
X2430100D01*
Y2199900D01*
G01Y2449900D02*
X2110100D01*
Y2289900D01*
X2430100D01*
Y2449900D01*
G01X2850000Y-1455100D02*
Y-1135100D01*
X2690000D01*
Y-1455100D01*
X2850000D01*
G01X2690000Y-564900D02*
Y-884900D01*
X2850000D01*
Y-564900D01*
X2690000D01*
G01X3005100Y-110100D02*
X2685100D01*
Y-270100D01*
X3005100D01*
Y-110100D01*
G01Y925000D02*
X2685100D01*
Y765000D01*
X3005100D01*
Y925000D01*
G01Y1950100D02*
X2685100D01*
Y1790100D01*
X3005100D01*
Y1950100D01*
G01X3740100Y365000D02*
X3420100D01*
Y205000D01*
X3740100D01*
Y365000D01*
G54D16*
G01X-4478600Y-1943800D02*
G03I-317500J0D01*
G01X-3768600D02*
G03I-317500J0D01*
G01X-4337500Y3537760D02*
Y3357760D01*
X-4192500D01*
Y3537760D01*
X-4337500D01*
G01X-4092500D02*
Y3357760D01*
X-3947500D01*
Y3537760D01*
X-4092500D01*
G01X-3847500D02*
Y3357760D01*
X-3702500D01*
Y3537760D01*
X-3847500D01*
G01X-3571100Y3175500D02*
X1508900D01*
Y4064500D01*
X-3571100D01*
Y3175500D01*
G01X-3035000Y2962500D02*
X-2855000D01*
Y3107500D01*
X-3035000D01*
Y2962500D01*
G01X1116900Y-7753750D02*
X-1169100D01*
G01D02*
Y-6769250D01*
G01Y-7623450D02*
X1116900D01*
G01X-1169100Y-6769250D02*
X-1200850D01*
G01D02*
Y-6690000D01*
G01D02*
X-1169100D01*
G01D02*
Y-6610500D01*
G01D02*
X1116900D01*
G01X-1285100Y3239000D02*
X-777100D01*
G01X-788100Y-7426850D02*
G02X-1016950Y-7198000I0J228850D01*
G02X-788100Y-6969150I228850J0D01*
G02X-559250Y-7198000I0J-228850D01*
G02X-788100Y-7426850I-228850J0D01*
G01X-1118100Y2817000D02*
Y2055000D01*
G01D02*
X-864100D01*
G01Y2817000D02*
X-1118100D01*
G01X-864100Y2055000D02*
Y2817000D01*
G01X-628100D02*
Y2055000D01*
G01D02*
X-374100D01*
G01Y2817000D02*
X-628100D01*
G01X-26100Y-7426850D02*
G02X-254950Y-7198000I0J228850D01*
G02X-26100Y-6969150I228850J0D01*
G02X202750Y-7198000I0J-228850D01*
G02X-26100Y-7426850I-228850J0D01*
G01X-374100Y2055000D02*
Y2817000D01*
G01X-138100D02*
Y2055000D01*
G01D02*
X115900D01*
G01Y2817000D02*
X-138100D01*
G01X3848000Y-4675000D02*
G03I-1778000J0D01*
G01X115900Y2055000D02*
Y2817000D01*
G01X735900Y-7426850D02*
G02X507050Y-7198000I0J228850D01*
G02X735900Y-6969150I228850J0D01*
G02X964750Y-7198000I0J-228850D01*
G02X735900Y-7426850I-228850J0D01*
G01X351900Y2817000D02*
Y2055000D01*
G01D02*
X605900D01*
G01Y2817000D02*
X351900D01*
G01X605900Y2055000D02*
Y2817000D01*
G01X1424020Y2126000D02*
G03X1135980I-144020J254065D01*
G01X1534000Y2380000D02*
G03I-254000J0D01*
G01X1116900Y-6769250D02*
Y-7753750D01*
G01Y-6610500D02*
Y-6690000D01*
G01D02*
X1069400D01*
G01D02*
Y-6769250D01*
G01D02*
X1116900D01*
G01X1437500Y-1202240D02*
Y-1022240D01*
X1292500D01*
Y-1202240D01*
X1437500D01*
G01X1135220Y2126000D02*
X1424780D01*
G01X1424020D02*
X1135980D01*
G01X1135220D02*
X1424780D01*
G01X2017000Y-2409500D02*
Y-2790500D01*
G01D02*
X2753600D01*
G01Y-2409500D02*
X2017000D01*
G01X1947000Y3288200D02*
Y3212000D01*
G01D02*
X2963000D01*
G01X1947000Y4151800D02*
Y3364400D01*
G01D02*
X2010500D01*
G01D02*
Y3288200D01*
G01D02*
X1947000D01*
G01X2201000Y3948850D02*
G02X2429850Y3720000I0J-228850D01*
G02X2201000Y3491150I-228850J0D01*
G02X1972150Y3720000I0J228850D01*
G02X2201000Y3948850I228850J0D01*
G01X2963000Y4151800D02*
X1947000D01*
G01X2963000Y4050200D02*
X1947000D01*
G01X2309000Y447900D02*
X2817000D01*
G01X2309000Y701900D02*
Y447900D01*
G01X2817000Y701900D02*
X2309000D01*
G01X2314000Y1478000D02*
X2822000D01*
G01X2314000Y1732000D02*
Y1478000D01*
G01X2822000Y1732000D02*
X2314000D01*
G01X2309000Y2513100D02*
X2817000D01*
G01X2309000Y2767100D02*
Y2513100D01*
G01X2817000Y2767100D02*
X2309000D01*
G01X2709000Y3948850D02*
G02X2937850Y3720000I0J-228850D01*
G02X2709000Y3491150I-228850J0D01*
G02X2480150Y3720000I0J228850D01*
G02X2709000Y3948850I228850J0D01*
G01X2753600Y-2790500D02*
Y-2409500D01*
G01X2589000Y-47100D02*
X3097000D01*
G01X2589000Y206900D02*
Y-47100D01*
G01X3097000Y206900D02*
X2589000D01*
G01Y988000D02*
X3097000D01*
G01X2589000Y1242000D02*
Y988000D01*
G01X3097000Y1242000D02*
X2589000D01*
G01Y2008100D02*
X3097000D01*
G01X2589000Y2262100D02*
Y2008100D01*
G01X3097000Y2262100D02*
X2589000D01*
G01X2923000Y-628000D02*
Y-1390000D01*
G01D02*
X3177000D01*
G01Y-628000D02*
X2923000D01*
G01X2817000Y447900D02*
Y701900D01*
G01X2822000Y1478000D02*
Y1732000D01*
G01X2817000Y2513100D02*
Y2767100D01*
G01X2963000Y3212000D02*
Y3288200D01*
G01Y3364400D02*
Y4151800D01*
G01Y3288200D02*
X3026500D01*
G01D02*
Y3364400D01*
G01D02*
X2963000D01*
G01X3177000Y-1390000D02*
Y-628000D01*
G01X3097000Y-47100D02*
Y206900D01*
G01Y988000D02*
Y1242000D01*
G01Y2008100D02*
Y2262100D01*
G01X3348000Y-628000D02*
Y-1390000D01*
G01D02*
X3602000D01*
G01Y-628000D02*
X3348000D01*
G01X3316000Y450000D02*
Y1720000D01*
G01X3824000Y450000D02*
X3316000D01*
G01X3366800D02*
Y1720000D01*
G01X3316000D02*
X3824000D01*
Y450000D01*
G01X3602000Y-1390000D02*
Y-628000D01*
G01X3773200Y1720000D02*
Y450000D01*
M02*
