G04 ================== begin FILE IDENTIFICATION RECORD ==================*
G04 Layout Name:  STEVAL-IPM20B.brd*
G04 Film Name:    STEVAL-IPM20B -solder-mask-bot*
G04 File Format:  Gerber RS274X*
G04 File Origin:  Cadence Allegro 17.2-S054*
G04 Origin Date:  Thu Nov 28 11:36:22 2019*
G04 *
G04 Layer:  PIN/SOLDERMASK_BOTTOM*
G04 Layer:  PACKAGE GEOMETRY/SOLDERMASK_BOTTOM*
G04 Layer:  BOARD GEOMETRY/SOLDERMASK_BOTTOM*
G04 *
G04 Offset:    (0.0000 0.0000)*
G04 Mirror:    No*
G04 Mode:      Positive*
G04 Rotation:  0*
G04 FullContactRelief:  No*
G04 UndefLineWidth:     0.0000*
G04 ================== end FILE IDENTIFICATION RECORD ====================*
%FSLAX35Y35*MOMM*%
%IR0*IPPOS*OFA0.00000B0.00000*MIA0B0*SFA1.00000B1.00000*%
%ADD12C,1.6002*%
%ADD16O,1.524X2.1336*%
%ADD17C,2.921*%
%ADD20C,3.048*%
%ADD15C,1.905*%
%ADD10C,3.175*%
%ADD11C,2.159*%
%ADD13R,1.651X1.651*%
%ADD22R,2.921X2.921*%
%ADD21R,3.048X3.048*%
%ADD14R,1.905X1.905*%
%ADD19C,1.778*%
%ADD18R,1.778X1.778*%
%ADD23C,.8*%
%ADD24C,1.*%
G75*
%LPD*%
G75*
G54D10*
X-5775000Y-7430000D03*
X-5715000Y3910000D03*
X3520000Y-7425000D03*
X3500000Y3955000D03*
G54D11*
X-5860000Y-5810000D03*
X-4975000Y-5270000D03*
X-4830000Y295000D03*
X-4200000Y250000D03*
X-3396100Y420000D03*
X-2963900Y-3720000D03*
X-2854600Y-3293500D03*
X-2945000Y640000D03*
X-2628900Y-4685000D03*
X-2600600Y-3743500D03*
Y-3293500D03*
X-2680000Y155000D03*
X-2310000Y-3815000D03*
X-2346600Y-3293500D03*
X-2320000Y330000D03*
X-2525000Y720000D03*
X-2143400Y610000D03*
X-1791100Y-4200000D03*
X-1838600Y-3293500D03*
X-1970000Y330000D03*
X-1610000D03*
X-1787800Y730000D03*
X-1330600Y-3293500D03*
X-1080000Y330000D03*
X-1026100Y-4200000D03*
X-822600Y-3293500D03*
X-870000Y730000D03*
X-720000Y330000D03*
X-314600Y-3293500D03*
X-320000Y430000D03*
X-266100Y-4200000D03*
X-10000Y130000D03*
X350000Y430000D03*
X447400Y-3293500D03*
X701400D03*
X1105000Y1610000D03*
G54D20*
X2070000Y-5175000D03*
G54D21*
Y-4175000D03*
G54D12*
X-4796100Y-2070800D03*
X-4086100D03*
X-3171100Y-867000D03*
X-1447000Y1020000D03*
G54D22*
X2752900Y-7198000D03*
G54D13*
X-4796100Y-1816800D03*
X-4086100D03*
X-3171100Y-613000D03*
X-1193000Y1020000D03*
G54D23*
G01X-3040000Y-3530000D02*
Y-4300000D01*
G01X-2910000Y-3520000D02*
Y-4290000D01*
G01X-2695000Y-3570000D02*
Y-4505000D01*
G01X-2565000Y-3570000D02*
Y-4500000D01*
G01X-2370000Y-3520000D02*
Y-4290000D01*
G01X-2240000Y-3510000D02*
Y-4280000D01*
G54D14*
X-3063100Y3493000D03*
X-2047100Y3747000D03*
X-991100Y2690000D03*
X-777100Y3747000D03*
X-501100Y2690000D03*
X-11100D03*
X478900D03*
X492900Y3747000D03*
X3050000Y-755000D03*
X3475000D03*
X3570000Y1593000D03*
G54D24*
G01X-1900000Y-7265000D02*
X-4455000D01*
G01X-1735000Y-7005000D02*
X-4455000D01*
G01X-1735000Y-6745000D02*
X-4445000D01*
G01X-1735000Y-6505000D02*
X-4445000D01*
G01X-1735000Y-6210000D02*
X-4445000D01*
G01X-1880000Y-3570000D02*
Y-4240000D01*
G01D02*
X-1240000Y-4880000D01*
G01X-1740000Y-3570000D02*
Y-4170000D01*
G01D02*
X-780000Y-5130000D01*
G01X-1390000Y-3550000D02*
Y-3950000D01*
G01D02*
X-280000Y-5060000D01*
G01X-1240000Y-4880000D02*
Y-6975000D01*
G01X-1250000Y-3860000D02*
X220000Y-5330000D01*
G01X-1250000Y-3550000D02*
Y-3860000D01*
G01X-1020000Y-6965000D02*
Y-5160000D01*
G01X-890000Y-3570000D02*
Y-3690000D01*
G01D02*
X700000Y-5280000D01*
G01X-780000Y-5130000D02*
Y-6965000D01*
G01X-760000Y-3600000D02*
X920000Y-5270000D01*
G01X-280000Y-5060000D02*
Y-6985000D01*
G01X-30000Y-5380000D02*
Y-6905000D01*
G01X220000Y-5330000D02*
Y-6990000D01*
G01X390000Y-4500000D02*
X1180000Y-5290000D01*
G01X700000Y-5280000D02*
Y-6890000D01*
G01X920000Y-5270000D02*
Y-6905000D01*
G01X1180000Y-5290000D02*
Y-6960000D01*
G54D15*
X-3063100Y3747000D03*
X-2809100Y3493000D03*
Y3747000D03*
X-2555100Y3493000D03*
Y3747000D03*
X-2301100Y3493000D03*
Y3747000D03*
X-2047100Y3493000D03*
X-1793100D03*
Y3747000D03*
X-1539100Y3493000D03*
Y3747000D03*
X-1285100Y3493000D03*
Y3747000D03*
X-991100Y2182000D03*
Y2436000D03*
X-1031100Y3493000D03*
Y3747000D03*
X-777100Y3493000D03*
X-501100Y2182000D03*
Y2436000D03*
X-523100Y3493000D03*
Y3747000D03*
X-269100Y3493000D03*
Y3747000D03*
X-11100Y2182000D03*
Y2436000D03*
X-15100Y3493000D03*
Y3747000D03*
X238900Y3493000D03*
Y3747000D03*
X478900Y2182000D03*
Y2436000D03*
X492900Y3493000D03*
X746900D03*
Y3747000D03*
X1000900Y3493000D03*
Y3747000D03*
X2436000Y574900D03*
X2441000Y1605000D03*
X2436000Y2640100D03*
X2716000Y79900D03*
X2690000Y574900D03*
X2716000Y1115000D03*
X2695000Y1605000D03*
X2716000Y2135100D03*
X2690000Y2640100D03*
X3050000Y-1263000D03*
Y-1009000D03*
X2970000Y79900D03*
Y1115000D03*
Y2135100D03*
X3475000Y-1263000D03*
Y-1009000D03*
X3570000Y577000D03*
Y831000D03*
Y1085000D03*
Y1339000D03*
G54D16*
X-2854600Y-373500D03*
X-2676800D03*
X-2499000D03*
X-2143400D03*
X-2321200D03*
X-1965600D03*
X-1610000D03*
X-1787800D03*
X-1432200D03*
X-1254400D03*
X-898800D03*
X-1076600D03*
X-721000D03*
X-365400D03*
X-9800D03*
X345800D03*
X701400D03*
G54D17*
X-788100Y-7198000D03*
X-26100D03*
X735900D03*
X1990900D03*
X2201000Y3720000D03*
X2709000D03*
G54D18*
X1280000Y2253000D03*
G54D19*
Y2507000D03*
M02*
