G04 ================== begin FILE IDENTIFICATION RECORD ==================*
G04 Layout Name:  STEVAL-IPM20B.brd*
G04 Film Name:    STEVAL-IPM20B -paste-mask-top*
G04 File Format:  Gerber RS274X*
G04 File Origin:  Cadence Allegro 17.2-S054*
G04 Origin Date:  Thu Nov 28 11:36:23 2019*
G04 *
G04 Layer:  PIN/PASTEMASK_TOP*
G04 Layer:  PACKAGE GEOMETRY/PASTEMASK_TOP*
G04 *
G04 Offset:    (0.0000 0.0000)*
G04 Mirror:    No*
G04 Mode:      Positive*
G04 Rotation:  0*
G04 FullContactRelief:  No*
G04 UndefLineWidth:     0.0000*
G04 ================== end FILE IDENTIFICATION RECORD ====================*
%FSLAX35Y35*MOMM*%
%IR0*IPPOS*OFA0.00000B0.00000*MIA0B0*SFA1.00000B1.00000*%
%ADD12O,.635X1.7018*%
%ADD14R,.635X1.7018*%
%ADD13R,.6096X1.0668*%
%ADD18R,1.0668X.6096*%
%ADD19R,2.032X3.048*%
%ADD15R,5.08X3.5052*%
%ADD10R,1.524X1.524*%
%ADD11R,1.1938X1.1938*%
%ADD17R,.7874X.9144*%
%ADD16R,.9144X.7874*%
%LPD*%
G75*
G54D10*
X-5735100Y650000D03*
Y900000D03*
Y1150000D03*
X-5745100Y1405000D03*
X-5290000Y-295100D03*
Y35100D03*
X-5404900Y650000D03*
Y900000D03*
Y1150000D03*
X-5414900Y1405000D03*
X-5350100Y1725000D03*
Y1980000D03*
Y2235000D03*
Y2495000D03*
Y2755000D03*
X-5160100Y650000D03*
X-4935100Y-1178500D03*
X-4841100Y-873900D03*
Y-543700D03*
X-5035000Y-295100D03*
Y35100D03*
X-4829900Y650000D03*
X-5019900Y1725000D03*
Y1980000D03*
Y2235000D03*
Y2495000D03*
Y2755000D03*
X-4721200Y-1433500D03*
X-4604900Y-1178500D03*
X-4604000Y-48800D03*
X-4391000Y-1433500D03*
X-4366000Y-1128500D03*
X-4530000Y3224900D03*
Y3555100D03*
X-4273800Y-48800D03*
X-4140100Y1430000D03*
Y1765000D03*
X-4141200Y2021200D03*
Y2281200D03*
X-4143800Y2540000D03*
X-4036000Y-1383500D03*
X-4035800Y-1128500D03*
X-4032000Y-48800D03*
X-3809900Y1430000D03*
Y1765000D03*
X-3811000Y2021200D03*
Y2281200D03*
X-3813600Y2540000D03*
X-3705800Y-1383500D03*
X-3571100Y-863900D03*
Y-533700D03*
X-3701800Y-48800D03*
X-3396100Y-275200D03*
Y55000D03*
X-3161100Y-275200D03*
Y55000D03*
X-3215100Y1030000D03*
X-3215000Y1279900D03*
Y1610100D03*
X-2884900Y1030000D03*
X-2885000Y1279900D03*
Y1610100D03*
X-2716200Y-1210000D03*
X-2695100Y-950000D03*
X-2696400Y-710000D03*
X-2640100Y1030000D03*
X-2640000Y1279900D03*
Y1610100D03*
X-2386000Y-1210000D03*
X-2364900Y-950000D03*
X-2366200Y-710000D03*
X-2110000Y-1000100D03*
Y-669900D03*
X-2065100Y1030000D03*
X-2309900D03*
X-2065000Y1279900D03*
X-2310000D03*
X-2065000Y1610100D03*
X-2310000D03*
X-1870000Y-1001200D03*
Y-671000D03*
X-1734900Y1030000D03*
X-1735000Y1279900D03*
Y1610100D03*
X-1485100Y610000D03*
X-1154900D03*
X-905100Y1030000D03*
X-905000Y1279900D03*
Y1610100D03*
X-665000Y1279900D03*
Y1610100D03*
X-365400Y-1155100D03*
Y-824900D03*
X-330100Y1030000D03*
X-574900D03*
X-330000Y1279900D03*
Y1610100D03*
X-9800Y-1155100D03*
Y-824900D03*
X100Y1030000D03*
X0Y1279900D03*
Y1610100D03*
X345800Y-1155100D03*
Y-824900D03*
X249900Y1030000D03*
X250000Y1279900D03*
Y1610100D03*
X447400Y-2875100D03*
Y-2544900D03*
X580100Y1030000D03*
X580000Y1279900D03*
Y1610100D03*
X835000Y1279900D03*
Y1610100D03*
X1595000Y-1335100D03*
Y-1004900D03*
X1849900Y-1585000D03*
Y-1335000D03*
Y-1085000D03*
X1720000Y2109900D03*
Y2440100D03*
X2104900Y-189900D03*
Y60100D03*
Y310100D03*
X2105100Y845000D03*
X2104900Y1090000D03*
Y1335000D03*
X2105100Y1869900D03*
X2104900Y2119900D03*
Y2369900D03*
X2180000Y-2250100D03*
Y-1919900D03*
X2180100Y-1585000D03*
Y-1335000D03*
Y-1085000D03*
X2435100Y-189900D03*
Y60100D03*
Y310100D03*
X2435300Y845000D03*
X2435100Y1090000D03*
Y1335000D03*
X2435300Y1869900D03*
X2435100Y2119900D03*
Y2369900D03*
X2770000Y-1460100D03*
Y-1129900D03*
Y-890100D03*
Y-559900D03*
X2679900Y-190100D03*
Y845000D03*
Y1870100D03*
X3010100Y-190100D03*
Y845000D03*
Y1870100D03*
X3414900Y285000D03*
X3745100D03*
G54D11*
X-5525310Y-4680000D03*
X-5314690D03*
X-5525310Y-4110000D03*
X-5314690D03*
X-5525310Y-3560000D03*
X-5314690D03*
X-5525310Y-3010000D03*
X-5314690D03*
X-4980310Y-4680000D03*
Y-4110000D03*
Y-3560000D03*
Y-3010000D03*
X-4769690Y-4680000D03*
Y-4110000D03*
Y-3560000D03*
Y-3010000D03*
X-4435310Y-4110000D03*
Y-3560000D03*
Y-3010000D03*
X-4224690Y-4110000D03*
Y-3560000D03*
Y-3010000D03*
X-3890310Y-4110000D03*
Y-3560000D03*
X-3679690Y-4110000D03*
Y-3560000D03*
G54D12*
X-4542100Y-893710D03*
X-4415100D03*
Y-363890D03*
X-4542100D03*
X-4288100Y-893710D03*
X-4161100D03*
Y-363890D03*
X-4288100D03*
X-4034100Y-893710D03*
X-3907100D03*
Y-363890D03*
X-4034100D03*
X-3780100Y-893710D03*
G54D13*
X-4265000Y3555100D03*
Y3340420D03*
X-4020000Y3555100D03*
Y3340420D03*
X-3775000Y3555100D03*
Y3340420D03*
X1365000Y-1219580D03*
Y-1004900D03*
G54D14*
X-3780100Y-363890D03*
G54D15*
X-3367200Y-5945760D03*
Y-5534240D03*
X-2642400Y-5945760D03*
Y-5534240D03*
X-1914000Y-5945760D03*
Y-5534240D03*
G54D16*
X-2960000Y-4545000D03*
Y-4385000D03*
X-2300000Y-4545000D03*
Y-4385000D03*
G54D17*
X-2865000D03*
X-2705000D03*
X-2555000D03*
X-2395000D03*
G54D18*
X-3052340Y3035000D03*
X-2837660D03*
G54D19*
X2156700Y-2600000D03*
X2613900D03*
M02*
