G04 ================== begin FILE IDENTIFICATION RECORD ==================*
G04 Layout Name:  X-NUCLEO-IHM09M1_SHIELD MC Connector.brd*
G04 Film Name:    X-NUCLEO-IHM09M1-manufacturing-detail*
G04 File Format:  Gerber RS274X*
G04 File Origin:  Cadence Allegro 16.6-S023*
G04 Origin Date:  Thu Apr 02 11:20:12 2015*
G04 *
G04 Layer:  MANUFACTURING/XSECTION_CHART*
G04 Layer:  MANUFACTURING/NCLEGEND-1-2*
G04 Layer:  BOARD GEOMETRY/OUTLINE*
G04 Layer:  BOARD GEOMETRY/DIMENSION*
G04 *
G04 Offset:    (0.0000 0.0000)*
G04 Mirror:    No*
G04 Mode:      Positive*
G04 Rotation:  0*
G04 FullContactRelief:  No*
G04 UndefLineWidth:     0.0201*
G04 ================== end FILE IDENTIFICATION RECORD ====================*
%FSLAX35Y35*MOMM*%
%IR0*IPPOS*OFA0.00000B0.00000*MIA0B0*SFA1.00000B1.00000*%
%AMMACRO10*
1,1,.0201,.762,0.0*
20,1,.0201,.762,0.0,-.762,0.0,0.0*
1,1,.0201,-.762,0.0*
1,1,.0201,0.0,.762*
20,1,.0201,0.0,.762,0.0,-.762,0.0*
1,1,.0201,0.0,-.762*
%
%ADD10MACRO10*%
%AMMACRO12*
1,1,.0201,.635,0.0*
20,1,.0201,.635,0.0,.625353,-.110267,0.0*
1,1,.0201,.625353,-.110267*
20,1,.0201,.625353,-.110267,.596705,-.217183,0.0*
1,1,.0201,.596705,-.217183*
20,1,.0201,.596705,-.217183,.549926,-.3175,0.0*
1,1,.0201,.549926,-.3175*
20,1,.0201,.549926,-.3175,.486438,-.40817,0.0*
1,1,.0201,.486438,-.40817*
20,1,.0201,.486438,-.40817,.40817,-.486438,0.0*
1,1,.0201,.40817,-.486438*
20,1,.0201,.40817,-.486438,.3175,-.549926,0.0*
1,1,.0201,.3175,-.549926*
20,1,.0201,.3175,-.549926,.217183,-.596705,0.0*
1,1,.0201,.217183,-.596705*
20,1,.0201,.217183,-.596705,.110267,-.625353,0.0*
1,1,.0201,.110267,-.625353*
20,1,.0201,.110267,-.625353,0.0,-.635,0.0*
1,1,.0201,0.0,-.635*
20,1,.0201,0.0,-.635,-.110267,-.625353,0.0*
1,1,.0201,-.110267,-.625353*
20,1,.0201,-.110267,-.625353,-.217183,-.596705,0.0*
1,1,.0201,-.217183,-.596705*
20,1,.0201,-.217183,-.596705,-.3175,-.549926,0.0*
1,1,.0201,-.3175,-.549926*
20,1,.0201,-.3175,-.549926,-.40817,-.486438,0.0*
1,1,.0201,-.40817,-.486438*
20,1,.0201,-.40817,-.486438,-.486438,-.40817,0.0*
1,1,.0201,-.486438,-.40817*
20,1,.0201,-.486438,-.40817,-.549926,-.3175,0.0*
1,1,.0201,-.549926,-.3175*
20,1,.0201,-.549926,-.3175,-.596705,-.217183,0.0*
1,1,.0201,-.596705,-.217183*
20,1,.0201,-.596705,-.217183,-.625353,-.110267,0.0*
1,1,.0201,-.625353,-.110267*
20,1,.0201,-.625353,-.110267,-.635,0.0,0.0*
1,1,.0201,-.635,0.0*
20,1,.0201,-.635,0.0,-.625353,.110267,0.0*
1,1,.0201,-.625353,.110267*
20,1,.0201,-.625353,.110267,-.596705,.217183,0.0*
1,1,.0201,-.596705,.217183*
20,1,.0201,-.596705,.217183,-.549926,.3175,0.0*
1,1,.0201,-.549926,.3175*
20,1,.0201,-.549926,.3175,-.486438,.40817,0.0*
1,1,.0201,-.486438,.40817*
20,1,.0201,-.486438,.40817,-.40817,.486438,0.0*
1,1,.0201,-.40817,.486438*
20,1,.0201,-.40817,.486438,-.3175,.549926,0.0*
1,1,.0201,-.3175,.549926*
20,1,.0201,-.3175,.549926,-.217183,.596705,0.0*
1,1,.0201,-.217183,.596705*
20,1,.0201,-.217183,.596705,-.110267,.625353,0.0*
1,1,.0201,-.110267,.625353*
20,1,.0201,-.110267,.625353,0.0,.635,0.0*
1,1,.0201,0.0,.635*
20,1,.0201,0.0,.635,.110267,.625353,0.0*
1,1,.0201,.110267,.625353*
20,1,.0201,.110267,.625353,.217183,.596705,0.0*
1,1,.0201,.217183,.596705*
20,1,.0201,.217183,.596705,.3175,.549926,0.0*
1,1,.0201,.3175,.549926*
20,1,.0201,.3175,.549926,.40817,.486438,0.0*
1,1,.0201,.40817,.486438*
20,1,.0201,.40817,.486438,.486438,.40817,0.0*
1,1,.0201,.486438,.40817*
20,1,.0201,.486438,.40817,.549926,.3175,0.0*
1,1,.0201,.549926,.3175*
20,1,.0201,.549926,.3175,.596705,.217183,0.0*
1,1,.0201,.596705,.217183*
20,1,.0201,.596705,.217183,.625353,.110267,0.0*
1,1,.0201,.625353,.110267*
20,1,.0201,.625353,.110267,.635,0.0,0.0*
1,1,.0201,.635,0.0*
1,1,.0201,.3175,0.0*
20,1,.0201,.3175,0.0,-.3175,0.0,0.0*
1,1,.0201,-.3175,0.0*
1,1,.0201,0.0,.3175*
20,1,.0201,0.0,.3175,0.0,-.3175,0.0*
1,1,.0201,0.0,-.3175*
%
%ADD12MACRO12*%
%AMMACRO13*
1,1,.0201,.762,0.0*
20,1,.0201,.762,0.0,.750424,-.13232,0.0*
1,1,.0201,.750424,-.13232*
20,1,.0201,.750424,-.13232,.716046,-.260619,0.0*
1,1,.0201,.716046,-.260619*
20,1,.0201,.716046,-.260619,.659911,-.381,0.0*
1,1,.0201,.659911,-.381*
20,1,.0201,.659911,-.381,.583726,-.489804,0.0*
1,1,.0201,.583726,-.489804*
20,1,.0201,.583726,-.489804,.489804,-.583726,0.0*
1,1,.0201,.489804,-.583726*
20,1,.0201,.489804,-.583726,.381,-.659911,0.0*
1,1,.0201,.381,-.659911*
20,1,.0201,.381,-.659911,.260619,-.716046,0.0*
1,1,.0201,.260619,-.716046*
20,1,.0201,.260619,-.716046,.13232,-.750424,0.0*
1,1,.0201,.13232,-.750424*
20,1,.0201,.13232,-.750424,0.0,-.762,0.0*
1,1,.0201,0.0,-.762*
20,1,.0201,0.0,-.762,-.13232,-.750424,0.0*
1,1,.0201,-.13232,-.750424*
20,1,.0201,-.13232,-.750424,-.260619,-.716046,0.0*
1,1,.0201,-.260619,-.716046*
20,1,.0201,-.260619,-.716046,-.381,-.659911,0.0*
1,1,.0201,-.381,-.659911*
20,1,.0201,-.381,-.659911,-.489804,-.583726,0.0*
1,1,.0201,-.489804,-.583726*
20,1,.0201,-.489804,-.583726,-.583726,-.489804,0.0*
1,1,.0201,-.583726,-.489804*
20,1,.0201,-.583726,-.489804,-.659911,-.381,0.0*
1,1,.0201,-.659911,-.381*
20,1,.0201,-.659911,-.381,-.716046,-.260619,0.0*
1,1,.0201,-.716046,-.260619*
20,1,.0201,-.716046,-.260619,-.750424,-.13232,0.0*
1,1,.0201,-.750424,-.13232*
20,1,.0201,-.750424,-.13232,-.762,0.0,0.0*
1,1,.0201,-.762,0.0*
20,1,.0201,-.762,0.0,-.750424,.13232,0.0*
1,1,.0201,-.750424,.13232*
20,1,.0201,-.750424,.13232,-.716046,.260619,0.0*
1,1,.0201,-.716046,.260619*
20,1,.0201,-.716046,.260619,-.659911,.381,0.0*
1,1,.0201,-.659911,.381*
20,1,.0201,-.659911,.381,-.583726,.489804,0.0*
1,1,.0201,-.583726,.489804*
20,1,.0201,-.583726,.489804,-.489804,.583726,0.0*
1,1,.0201,-.489804,.583726*
20,1,.0201,-.489804,.583726,-.381,.659911,0.0*
1,1,.0201,-.381,.659911*
20,1,.0201,-.381,.659911,-.260619,.716046,0.0*
1,1,.0201,-.260619,.716046*
20,1,.0201,-.260619,.716046,-.13232,.750424,0.0*
1,1,.0201,-.13232,.750424*
20,1,.0201,-.13232,.750424,0.0,.762,0.0*
1,1,.0201,0.0,.762*
20,1,.0201,0.0,.762,.13232,.750424,0.0*
1,1,.0201,.13232,.750424*
20,1,.0201,.13232,.750424,.260619,.716046,0.0*
1,1,.0201,.260619,.716046*
20,1,.0201,.260619,.716046,.381,.659911,0.0*
1,1,.0201,.381,.659911*
20,1,.0201,.381,.659911,.489804,.583726,0.0*
1,1,.0201,.489804,.583726*
20,1,.0201,.489804,.583726,.583726,.489804,0.0*
1,1,.0201,.583726,.489804*
20,1,.0201,.583726,.489804,.659911,.381,0.0*
1,1,.0201,.659911,.381*
20,1,.0201,.659911,.381,.716046,.260619,0.0*
1,1,.0201,.716046,.260619*
20,1,.0201,.716046,.260619,.750424,.13232,0.0*
1,1,.0201,.750424,.13232*
20,1,.0201,.750424,.13232,.762,0.0,0.0*
1,1,.0201,.762,0.0*
1,1,.0201,-.3175,-.381*
20,1,.0201,-.3175,-.381,0.0,.381,0.0*
1,1,.0201,0.0,.381*
20,1,.0201,0.0,.381,.3175,-.381,0.0*
1,1,.0201,.3175,-.381*
1,1,.0201,.2032,-.1143*
20,1,.0201,.2032,-.1143,-.2032,-.1143,0.0*
1,1,.0201,-.2032,-.1143*
%
%ADD13MACRO13*%
%AMMACRO11*
1,1,.0201,.635,0.0*
20,1,.0201,.635,0.0,.625353,-.110267,0.0*
1,1,.0201,.625353,-.110267*
20,1,.0201,.625353,-.110267,.596705,-.217183,0.0*
1,1,.0201,.596705,-.217183*
20,1,.0201,.596705,-.217183,.549926,-.3175,0.0*
1,1,.0201,.549926,-.3175*
20,1,.0201,.549926,-.3175,.486438,-.40817,0.0*
1,1,.0201,.486438,-.40817*
20,1,.0201,.486438,-.40817,.40817,-.486438,0.0*
1,1,.0201,.40817,-.486438*
20,1,.0201,.40817,-.486438,.3175,-.549926,0.0*
1,1,.0201,.3175,-.549926*
20,1,.0201,.3175,-.549926,.217183,-.596705,0.0*
1,1,.0201,.217183,-.596705*
20,1,.0201,.217183,-.596705,.110267,-.625353,0.0*
1,1,.0201,.110267,-.625353*
20,1,.0201,.110267,-.625353,0.0,-.635,0.0*
1,1,.0201,0.0,-.635*
20,1,.0201,0.0,-.635,-.110267,-.625353,0.0*
1,1,.0201,-.110267,-.625353*
20,1,.0201,-.110267,-.625353,-.217183,-.596705,0.0*
1,1,.0201,-.217183,-.596705*
20,1,.0201,-.217183,-.596705,-.3175,-.549926,0.0*
1,1,.0201,-.3175,-.549926*
20,1,.0201,-.3175,-.549926,-.40817,-.486438,0.0*
1,1,.0201,-.40817,-.486438*
20,1,.0201,-.40817,-.486438,-.486438,-.40817,0.0*
1,1,.0201,-.486438,-.40817*
20,1,.0201,-.486438,-.40817,-.549926,-.3175,0.0*
1,1,.0201,-.549926,-.3175*
20,1,.0201,-.549926,-.3175,-.596705,-.217183,0.0*
1,1,.0201,-.596705,-.217183*
20,1,.0201,-.596705,-.217183,-.625353,-.110267,0.0*
1,1,.0201,-.625353,-.110267*
20,1,.0201,-.625353,-.110267,-.635,0.0,0.0*
1,1,.0201,-.635,0.0*
20,1,.0201,-.635,0.0,-.625353,.110267,0.0*
1,1,.0201,-.625353,.110267*
20,1,.0201,-.625353,.110267,-.596705,.217183,0.0*
1,1,.0201,-.596705,.217183*
20,1,.0201,-.596705,.217183,-.549926,.3175,0.0*
1,1,.0201,-.549926,.3175*
20,1,.0201,-.549926,.3175,-.486438,.40817,0.0*
1,1,.0201,-.486438,.40817*
20,1,.0201,-.486438,.40817,-.40817,.486438,0.0*
1,1,.0201,-.40817,.486438*
20,1,.0201,-.40817,.486438,-.3175,.549926,0.0*
1,1,.0201,-.3175,.549926*
20,1,.0201,-.3175,.549926,-.217183,.596705,0.0*
1,1,.0201,-.217183,.596705*
20,1,.0201,-.217183,.596705,-.110267,.625353,0.0*
1,1,.0201,-.110267,.625353*
20,1,.0201,-.110267,.625353,0.0,.635,0.0*
1,1,.0201,0.0,.635*
20,1,.0201,0.0,.635,.110267,.625353,0.0*
1,1,.0201,.110267,.625353*
20,1,.0201,.110267,.625353,.217183,.596705,0.0*
1,1,.0201,.217183,.596705*
20,1,.0201,.217183,.596705,.3175,.549926,0.0*
1,1,.0201,.3175,.549926*
20,1,.0201,.3175,.549926,.40817,.486438,0.0*
1,1,.0201,.40817,.486438*
20,1,.0201,.40817,.486438,.486438,.40817,0.0*
1,1,.0201,.486438,.40817*
20,1,.0201,.486438,.40817,.549926,.3175,0.0*
1,1,.0201,.549926,.3175*
20,1,.0201,.549926,.3175,.596705,.217183,0.0*
1,1,.0201,.596705,.217183*
20,1,.0201,.596705,.217183,.625353,.110267,0.0*
1,1,.0201,.625353,.110267*
20,1,.0201,.625353,.110267,.635,0.0,0.0*
1,1,.0201,.635,0.0*
1,1,.0201,.1905,-.3175*
20,1,.0201,.1905,-.3175,.1905,.1058,0.0*
1,1,.0201,.1905,.1058*
1,1,.0201,.1905,.0318*
20,1,.0201,.1905,.0318,.1482,.0741,0.0*
1,1,.0201,.1482,.0741*
20,1,.0201,.1482,.0741,.0847,.0952,0.0*
1,1,.0201,.0847,.0952*
20,1,.0201,.0847,.0952,.0106,.1058,0.0*
1,1,.0201,.0106,.1058*
20,1,.0201,.0106,.1058,-.0635,.0847,0.0*
1,1,.0201,-.0635,.0847*
20,1,.0201,-.0635,.0847,-.127,.0423,0.0*
1,1,.0201,-.127,.0423*
20,1,.0201,-.127,.0423,-.1693,-.0212,0.0*
1,1,.0201,-.1693,-.0212*
20,1,.0201,-.1693,-.0212,-.1905,-.1058,0.0*
1,1,.0201,-.1905,-.1058*
20,1,.0201,-.1905,-.1058,-.1693,-.1905,0.0*
1,1,.0201,-.1693,-.1905*
20,1,.0201,-.1693,-.1905,-.127,-.254,0.0*
1,1,.0201,-.127,-.254*
20,1,.0201,-.127,-.254,-.0635,-.2963,0.0*
1,1,.0201,-.0635,-.2963*
20,1,.0201,-.0635,-.2963,.0106,-.3175,0.0*
1,1,.0201,.0106,-.3175*
20,1,.0201,.0106,-.3175,.0847,-.3069,0.0*
1,1,.0201,.0847,-.3069*
20,1,.0201,.0847,-.3069,.1482,-.2752,0.0*
1,1,.0201,.1482,-.2752*
20,1,.0201,.1482,-.2752,.1905,-.2329,0.0*
1,1,.0201,.1905,-.2329*
%
%ADD11MACRO11*%
%ADD14C,.0201*%
%ADD15C,.05*%
G75*
%LPD*%
G75*
G36*
G01X12748000Y18668400D02*
Y18601900D01*
X12811500D01*
Y15694900D01*
X12748000D01*
Y15628400D01*
X13129000D01*
Y15694900D01*
X13065500D01*
Y18601900D01*
X13129000D01*
Y18668400D01*
X12748000D01*
G37*
G36*
G01X12240000Y15628400D02*
Y15694900D01*
X13764000D01*
Y15628400D01*
X12240000D01*
G37*
G36*
G01Y18601900D02*
Y18668400D01*
X13764000D01*
Y18601900D01*
X12240000D01*
G37*
G54D10*
X18371000Y12102000D03*
X18879000D03*
X18625000Y13118000D03*
X27011730Y13771910D03*
G54D11*
X18654000Y14090000D03*
X18400000D03*
X18654000Y14344000D03*
X18400000D03*
X18654000Y14598000D03*
Y14852000D03*
Y15106000D03*
X18400000Y14598000D03*
Y14852000D03*
Y15106000D03*
X18654000Y15360000D03*
Y15614000D03*
Y15868000D03*
X18400000Y15360000D03*
Y15614000D03*
Y15868000D03*
X18654000Y16122000D03*
Y16376000D03*
Y16630000D03*
X18400000Y16122000D03*
Y16376000D03*
Y16630000D03*
X18654000Y16884000D03*
X18400000D03*
X18654000Y17392000D03*
Y17138000D03*
X18400000D03*
Y17392000D03*
Y18154000D03*
X18654000D03*
X18400000Y17900000D03*
X18654000D03*
X18400000Y17646000D03*
X18654000D03*
X18400000Y18662000D03*
X18654000D03*
X18400000Y18408000D03*
X18654000D03*
X19758000Y12243000D03*
Y12497000D03*
X19162000Y14090000D03*
Y14344000D03*
Y14598000D03*
Y14852000D03*
Y15106000D03*
Y15868000D03*
Y15360000D03*
Y16122000D03*
Y16376000D03*
Y16630000D03*
Y16884000D03*
Y17138000D03*
Y17392000D03*
Y17646000D03*
X20012000Y12243000D03*
X20266000D03*
X20520000D03*
X20012000Y12497000D03*
X20266000D03*
X20520000D03*
X20774000Y12243000D03*
X21028000D03*
X21282000D03*
X20774000Y12497000D03*
X21028000D03*
X21282000D03*
X21320000Y17560000D03*
X21536000Y12243000D03*
X21790000D03*
X22044000D03*
X21536000Y12497000D03*
X21790000D03*
X22044000D03*
X21828000Y17560000D03*
X21574000D03*
X22806000Y12243000D03*
X22552000D03*
X22298000D03*
X22806000Y12497000D03*
X22552000D03*
X22298000D03*
X23568000Y12243000D03*
X23314000D03*
X23060000D03*
X23568000Y12497000D03*
X23314000D03*
X23060000D03*
X23822000Y12243000D03*
Y12497000D03*
X23988000Y14090000D03*
Y14344000D03*
Y15106000D03*
Y14852000D03*
Y14598000D03*
Y15868000D03*
Y15614000D03*
Y15360000D03*
Y16782000D03*
Y16274000D03*
Y16528000D03*
Y17544000D03*
Y17290000D03*
Y17036000D03*
Y18306000D03*
Y18052000D03*
Y17798000D03*
Y18560000D03*
X24750000Y14090000D03*
X24496000D03*
X24750000Y14344000D03*
X24496000D03*
X24750000Y14598000D03*
Y14852000D03*
Y15106000D03*
X24496000Y14598000D03*
Y14852000D03*
Y15106000D03*
X24750000Y15360000D03*
Y15614000D03*
Y15868000D03*
X24496000Y15360000D03*
Y15614000D03*
Y15868000D03*
X24750000Y16122000D03*
Y16376000D03*
Y16630000D03*
X24496000Y16122000D03*
Y16376000D03*
Y16630000D03*
X24750000Y16884000D03*
X24496000D03*
X24750000Y17392000D03*
Y17138000D03*
X24496000D03*
Y17392000D03*
Y18154000D03*
X24750000D03*
X24496000Y17900000D03*
X24750000D03*
X24496000Y17646000D03*
X24750000D03*
X24496000Y18662000D03*
X24750000D03*
X24496000Y18408000D03*
X24750000D03*
X27011730Y13058170D03*
G54D12*
X19560000Y16970000D03*
X19890000Y16050000D03*
X20140000Y15820000D03*
X20390000Y16510000D03*
X20910000Y14440000D03*
X20640000Y14720000D03*
X21280000Y15140000D03*
X21150000Y16280000D03*
X21660000Y14300000D03*
X21910000Y14093600D03*
X21560000Y14930000D03*
X21410000Y15350000D03*
X22750000Y15130000D03*
X22710000Y14540000D03*
X22900000Y16760000D03*
X22570000Y17090000D03*
X22420000Y17320000D03*
X22180000Y17210000D03*
X22750000Y17630000D03*
X23172970Y14555000D03*
X23020000Y15820000D03*
X23172970Y15480000D03*
X23020000Y16740000D03*
X23450000Y17200000D03*
X27011730Y14485650D03*
G54D13*
X22520000Y17520000D03*
X27011730Y12344430D03*
G54D14*
G01X12240000Y15694900D02*
Y18601900D01*
X13764000D01*
Y15694900D01*
X12240000D01*
G01X17824990Y11850000D02*
X17029990D01*
G01X17280000Y14992500D02*
Y11850000D01*
G01X17217510Y12250000D02*
X17280000Y11850000D01*
X17342490Y12250000D01*
X17217510D01*
G01X17146650Y15183000D02*
X17153000Y15238030D01*
X17162530Y15284590D01*
X17175220Y15326930D01*
X17191100Y15373500D01*
X17216500Y15437000D01*
X17089500D01*
G01X17407000D02*
X17381600Y15428540D01*
X17362550Y15407370D01*
X17349850Y15381970D01*
X17340320Y15348100D01*
X17337150Y15310000D01*
X17340320Y15271900D01*
X17349850Y15238030D01*
X17362550Y15212630D01*
X17381600Y15191460D01*
X17407000Y15183000D01*
X17432400Y15191460D01*
X17451450Y15212630D01*
X17464150Y15238030D01*
X17473680Y15271900D01*
X17476850Y15310000D01*
X17473680Y15348100D01*
X17464150Y15381970D01*
X17451450Y15407370D01*
X17432400Y15428540D01*
X17407000Y15437000D01*
G01X17280000Y15627500D02*
Y18850000D01*
G01X17824990D02*
X17029990D01*
G01X17342490Y18450000D02*
X17280000Y18850000D01*
X17217510Y18450000D01*
X17342490D01*
G01X25075000Y11850000D02*
Y18850000D01*
X23588000D01*
Y17814000D01*
X19562000D01*
Y18850000D01*
X18075000D01*
Y11850000D01*
X25075000D01*
G01X21057250Y19020000D02*
X18075000D01*
G01X18475000Y19082490D02*
X18075000Y19020000D01*
X18475000Y18957510D01*
Y19082490D01*
G01X18075000Y19100010D02*
Y19270010D01*
G01X21336650Y18893000D02*
X21343000Y18948030D01*
X21352530Y18994590D01*
X21365220Y19036930D01*
X21381100Y19083500D01*
X21406500Y19147000D01*
X21279500D01*
G01X21597000D02*
X21571600Y19138540D01*
X21552550Y19117370D01*
X21539850Y19091970D01*
X21530320Y19058100D01*
X21527150Y19020000D01*
X21530320Y18981900D01*
X21539850Y18948030D01*
X21552550Y18922630D01*
X21571600Y18901460D01*
X21597000Y18893000D01*
X21622400Y18901460D01*
X21641450Y18922630D01*
X21654150Y18948030D01*
X21663680Y18981900D01*
X21666850Y19020000D01*
X21663680Y19058100D01*
X21654150Y19091970D01*
X21641450Y19117370D01*
X21622400Y19138540D01*
X21597000Y19147000D01*
G01X21882750Y19020000D02*
X25075000D01*
G01X24675000Y18957510D02*
X25075000Y19020000D01*
X24675000Y19082490D01*
Y18957510D01*
G01X25075000Y19100010D02*
Y19270010D01*
G01X25870000Y11987560D02*
Y16920000D01*
X38153440D01*
Y11987560D01*
X25870000D01*
G01Y12701300D02*
X38153440D01*
G01X25870000Y13415040D02*
X38153440D01*
G01X25870000Y14128780D02*
X38153440D01*
G01X25870000Y14842520D02*
X38153440D01*
G01X25870000Y15556260D02*
X38153440D01*
G01X25870000Y16270000D02*
X38153440D01*
G01X26149520Y15080010D02*
Y15397510D01*
X26299140D01*
G01X26244010Y15244060D02*
X26149520D01*
G01X26492050Y15397510D02*
X26586530D01*
G01X26539290D02*
Y15080010D01*
G01X26492050D02*
X26586530D01*
G01X26877870Y15238760D02*
X26956620D01*
Y15143510D01*
X26932990Y15111750D01*
X26905430Y15090590D01*
X26866060Y15080010D01*
X26826690Y15090590D01*
X26799130Y15111750D01*
X26775510Y15143510D01*
X26759760Y15180550D01*
X26751880Y15222880D01*
Y15259930D01*
X26759760Y15291670D01*
X26775510Y15328720D01*
X26799130Y15360470D01*
X26822750Y15381630D01*
X26854250Y15397510D01*
X26881810D01*
X26913300Y15386930D01*
X26936930Y15365760D01*
G01X27082600Y15397510D02*
Y15169970D01*
X27098340Y15122330D01*
X27129840Y15090590D01*
X27169210Y15080010D01*
X27208580Y15090590D01*
X27240080Y15122330D01*
X27255820Y15169970D01*
Y15397510D01*
G01X27405430Y15080010D02*
Y15397510D01*
X27503850D01*
X27535350Y15381630D01*
X27555040Y15360470D01*
X27562910Y15318130D01*
X27555040Y15275800D01*
X27531410Y15249350D01*
X27503850Y15233460D01*
X27405430D01*
G01X27503850D02*
X27562910Y15080010D01*
G01X27877870D02*
X27720390D01*
Y15397510D01*
X27877870D01*
G01X27814880Y15244060D02*
X27720390D01*
G01X28153460Y15556260D02*
Y11987560D01*
G01X27661330Y15793750D02*
X27759760Y16111250D01*
X27858190Y15793750D01*
G01X27822750Y15904870D02*
X27696760D01*
G01X27995980Y16111250D02*
Y15793750D01*
X28153460D01*
G01X28310940Y16111250D02*
Y15793750D01*
X28468420D01*
G01X28932990Y16111250D02*
Y15883710D01*
X28948730Y15836070D01*
X28980230Y15804330D01*
X29019600Y15793750D01*
X29058970Y15804330D01*
X29090470Y15836070D01*
X29106210Y15883710D01*
Y16111250D01*
G01X29244010Y15793750D02*
Y16111250D01*
X29425110Y15793750D01*
Y16111250D01*
G01X29602280D02*
X29696760D01*
G01X29649520D02*
Y15793750D01*
G01X29602280D02*
X29696760D01*
G01X29964480Y16111250D02*
Y15793750D01*
G01X29873930Y16111250D02*
X30055030D01*
G01X30196760Y15836070D02*
X30228260Y15809620D01*
X30263690Y15793750D01*
X30295190D01*
X30326680Y15809620D01*
X30350310Y15836070D01*
X30362120Y15873130D01*
X30354250Y15910160D01*
X30334560Y15941910D01*
X30299120Y15963090D01*
X30251880Y15973670D01*
X30224320Y15994830D01*
X30212510Y16031870D01*
X30220390Y16068920D01*
X30240070Y16095370D01*
X30267630Y16111250D01*
X30295190D01*
X30322750Y16100670D01*
X30346370Y16074210D01*
G01X30810930Y15793750D02*
X30909360Y16111250D01*
X31007790Y15793750D01*
G01X30972350Y15904870D02*
X30846360D01*
G01X31145580Y15793750D02*
Y16111250D01*
X31244000D01*
X31275500Y16095370D01*
X31295190Y16074210D01*
X31303060Y16031870D01*
X31295190Y15989540D01*
X31271560Y15963090D01*
X31244000Y15947200D01*
X31145580D01*
G01X31244000D02*
X31303060Y15793750D01*
G01X31618020D02*
X31460540D01*
Y16111250D01*
X31618020D01*
G01X31555030Y15957800D02*
X31460540D01*
G01X32121960Y16111250D02*
X32216440D01*
G01X32169200D02*
Y15793750D01*
G01X32121960D02*
X32216440D01*
G01X32393610D02*
Y16111250D01*
X32574710Y15793750D01*
Y16111250D01*
G01X33011710Y15793750D02*
Y16111250D01*
X33114080Y15846670D01*
X33216450Y16111250D01*
Y15793750D01*
G01X33381800Y16111250D02*
X33476280D01*
G01X33429040D02*
Y15793750D01*
G01X33381800D02*
X33476280D01*
G01X33665260Y16111250D02*
Y15793750D01*
X33822740D01*
G01X33980220Y16111250D02*
Y15793750D01*
X34137700D01*
G01X34326680Y16111250D02*
X34421160D01*
G01X34373920D02*
Y15793750D01*
G01X34326680D02*
X34421160D01*
G01X34586510D02*
Y16111250D01*
X34688880Y15846670D01*
X34791250Y16111250D01*
Y15793750D01*
G01X35082580D02*
X34925100D01*
Y16111250D01*
X35082580D01*
G01X35019590Y15957800D02*
X34925100D01*
G01X35318800Y16111250D02*
Y15793750D01*
G01X35228250Y16111250D02*
X35409350D01*
G01X35712500Y15793750D02*
X35555020D01*
Y16111250D01*
X35712500D01*
G01X35649510Y15957800D02*
X35555020D01*
G01X35869980Y15793750D02*
Y16111250D01*
X35968400D01*
X35999900Y16095370D01*
X36019590Y16074210D01*
X36027460Y16031870D01*
X36019590Y15989540D01*
X35995960Y15963090D01*
X35968400Y15947200D01*
X35869980D01*
G01X35968400D02*
X36027460Y15793750D01*
G01X36181000Y15836070D02*
X36212500Y15809620D01*
X36247930Y15793750D01*
X36279430D01*
X36310920Y15809620D01*
X36334550Y15836070D01*
X36346360Y15873130D01*
X36338490Y15910160D01*
X36318800Y15941910D01*
X36283360Y15963090D01*
X36236120Y15973670D01*
X36208560Y15994830D01*
X36196750Y16031870D01*
X36204630Y16068920D01*
X36224310Y16095370D01*
X36251870Y16111250D01*
X36279430D01*
X36306990Y16100670D01*
X36330610Y16074210D01*
G01X27988110Y16443750D02*
Y16761250D01*
X28066840D01*
X28098340Y16745370D01*
X28121960Y16724210D01*
X28141650Y16692460D01*
X28157400Y16655410D01*
X28161330Y16602500D01*
X28157400Y16549580D01*
X28141650Y16512540D01*
X28121960Y16480780D01*
X28098340Y16459620D01*
X28066840Y16443750D01*
X27988110D01*
G01X28310940D02*
Y16761250D01*
X28409360D01*
X28440860Y16745370D01*
X28460550Y16724210D01*
X28468420Y16681870D01*
X28460550Y16639540D01*
X28436920Y16613090D01*
X28409360Y16597200D01*
X28310940D01*
G01X28409360D02*
X28468420Y16443750D01*
G01X28657400Y16761250D02*
X28751880D01*
G01X28704640D02*
Y16443750D01*
G01X28657400D02*
X28751880D01*
G01X28940860Y16761250D02*
Y16443750D01*
X29098340D01*
G01X29255820Y16761250D02*
Y16443750D01*
X29413300D01*
G01X30051090Y16734790D02*
X30027470Y16750670D01*
X29999920Y16761250D01*
X29968420D01*
X29932980Y16745370D01*
X29905430Y16718920D01*
X29885740Y16687160D01*
X29869990Y16634250D01*
X29866050Y16586620D01*
X29873930Y16539000D01*
X29885740Y16507250D01*
X29909360Y16475490D01*
X29936920Y16454330D01*
X29964480Y16443750D01*
X29992040D01*
X30019600Y16454330D01*
X30043220Y16470200D01*
X30062910Y16491360D01*
G01X30196760Y16443750D02*
Y16761250D01*
G01X30362120D02*
Y16443750D01*
G01Y16602500D02*
X30196760D01*
G01X30495970Y16443750D02*
X30594400Y16761250D01*
X30692830Y16443750D01*
G01X30657390Y16554870D02*
X30531400D01*
G01X30830620Y16443750D02*
Y16761250D01*
X30929040D01*
X30960540Y16745370D01*
X30980230Y16724210D01*
X30988100Y16681870D01*
X30980230Y16639540D01*
X30956600Y16613090D01*
X30929040Y16597200D01*
X30830620D01*
G01X30929040D02*
X30988100Y16443750D01*
G01X31224320Y16761250D02*
Y16443750D01*
G01X31133770Y16761250D02*
X31314870D01*
G01X31539280Y16433170D02*
X31531400Y16438460D01*
Y16449040D01*
X31539280Y16454330D01*
X31547160Y16449040D01*
Y16438460D01*
X31539280Y16433170D01*
G01Y16576030D02*
X31531400Y16581330D01*
Y16591910D01*
X31539280Y16597200D01*
X31547160Y16591910D01*
Y16581330D01*
X31539280Y16576030D01*
G01X32169200Y16761250D02*
Y16443750D01*
G01X32078650Y16761250D02*
X32259750D01*
G01X32484160Y16443750D02*
X32452660Y16449040D01*
X32425110Y16470200D01*
X32401480Y16501960D01*
X32385730Y16539000D01*
X32377860Y16581330D01*
Y16623670D01*
X32385730Y16666000D01*
X32401480Y16703040D01*
X32425110Y16734790D01*
X32452660Y16755960D01*
X32484160Y16761250D01*
X32515650Y16755960D01*
X32543210Y16734790D01*
X32566840Y16703040D01*
X32582590Y16666000D01*
X32590460Y16623670D01*
Y16581330D01*
X32582590Y16539000D01*
X32566840Y16501960D01*
X32543210Y16470200D01*
X32515650Y16449040D01*
X32484160Y16443750D01*
G01X32720380D02*
Y16761250D01*
X32814870D01*
X32846360Y16745370D01*
X32869990Y16708330D01*
X32877860Y16666000D01*
X32869990Y16623670D01*
X32850300Y16591910D01*
X32814870Y16576030D01*
X32720380D01*
G01X33429040Y16761250D02*
Y16443750D01*
G01X33373920Y16655410D02*
X33484160D01*
G01X33744000Y16443750D02*
X33720380Y16449040D01*
X33696760Y16470200D01*
X33681000Y16507250D01*
X33673130Y16549580D01*
X33681000Y16591910D01*
X33696760Y16628960D01*
X33720380Y16650120D01*
X33744000Y16655410D01*
X33767620Y16650120D01*
X33791240Y16628960D01*
X33806990Y16591910D01*
X33810930Y16549580D01*
X33806990Y16507250D01*
X33791240Y16470200D01*
X33767620Y16449040D01*
X33744000Y16443750D01*
G01X34405410Y16613090D02*
X34421160Y16628960D01*
X34432970Y16655410D01*
X34440850Y16692460D01*
X34432970Y16724210D01*
X34417230Y16745370D01*
X34389670Y16761250D01*
X34283370D01*
Y16443750D01*
X34413290D01*
X34440850Y16464910D01*
X34456600Y16496670D01*
X34464470Y16533710D01*
X34456600Y16570740D01*
X34432970Y16602500D01*
X34405410Y16613090D01*
X34283370D01*
G01X34688880Y16443750D02*
X34657380Y16449040D01*
X34629830Y16470200D01*
X34606200Y16501960D01*
X34590450Y16539000D01*
X34582580Y16581330D01*
Y16623670D01*
X34590450Y16666000D01*
X34606200Y16703040D01*
X34629830Y16734790D01*
X34657380Y16755960D01*
X34688880Y16761250D01*
X34720370Y16755960D01*
X34747930Y16734790D01*
X34771560Y16703040D01*
X34787310Y16666000D01*
X34795180Y16623670D01*
Y16581330D01*
X34787310Y16539000D01*
X34771560Y16501960D01*
X34747930Y16470200D01*
X34720370Y16449040D01*
X34688880Y16443750D01*
G01X35003840Y16761250D02*
Y16443750D01*
G01X34913290Y16761250D02*
X35094390D01*
G01X35318800D02*
Y16443750D01*
G01X35228250Y16761250D02*
X35409350D01*
G01X35633760Y16443750D02*
X35602260Y16449040D01*
X35574710Y16470200D01*
X35551080Y16501960D01*
X35535330Y16539000D01*
X35527460Y16581330D01*
Y16623670D01*
X35535330Y16666000D01*
X35551080Y16703040D01*
X35574710Y16734790D01*
X35602260Y16755960D01*
X35633760Y16761250D01*
X35665250Y16755960D01*
X35692810Y16734790D01*
X35716440Y16703040D01*
X35732190Y16666000D01*
X35740060Y16623670D01*
Y16581330D01*
X35732190Y16539000D01*
X35716440Y16501960D01*
X35692810Y16470200D01*
X35665250Y16449040D01*
X35633760Y16443750D01*
G01X35846350D02*
Y16761250D01*
X35948720Y16496670D01*
X36051090Y16761250D01*
Y16443750D01*
G01X30240070Y12185680D02*
Y12503180D01*
X30192830Y12439680D01*
G01Y12185680D02*
X30287310D01*
G01X30555030Y12175100D02*
X30547150Y12180390D01*
Y12190970D01*
X30555030Y12196260D01*
X30562910Y12190970D01*
Y12180390D01*
X30555030Y12175100D01*
G01X30869990Y12185680D02*
Y12503180D01*
X30822750Y12439680D01*
G01Y12185680D02*
X30917230D01*
G01X30240070Y12899420D02*
Y13216920D01*
X30192830Y13153420D01*
G01Y12899420D02*
X30287310D01*
G01X30555030Y12888840D02*
X30547150Y12894130D01*
Y12904710D01*
X30555030Y12910000D01*
X30562910Y12904710D01*
Y12894130D01*
X30555030Y12888840D01*
G01X30869990Y13216920D02*
X30838490Y13206340D01*
X30814870Y13179880D01*
X30799120Y13148130D01*
X30787310Y13105790D01*
X30783380Y13058170D01*
X30787310Y13010540D01*
X30799120Y12968210D01*
X30814870Y12936450D01*
X30838490Y12910000D01*
X30869990Y12899420D01*
X30901480Y12910000D01*
X30925110Y12936450D01*
X30940860Y12968210D01*
X30952670Y13010540D01*
X30956600Y13058170D01*
X30952670Y13105790D01*
X30940860Y13148130D01*
X30925110Y13179880D01*
X30901480Y13206340D01*
X30869990Y13216920D01*
G01X30240070Y13930660D02*
X30208570Y13920080D01*
X30184950Y13893620D01*
X30169200Y13861870D01*
X30157390Y13819530D01*
X30153460Y13771910D01*
X30157390Y13724280D01*
X30169200Y13681950D01*
X30184950Y13650190D01*
X30208570Y13623740D01*
X30240070Y13613160D01*
X30271560Y13623740D01*
X30295190Y13650190D01*
X30310940Y13681950D01*
X30322750Y13724280D01*
X30326680Y13771910D01*
X30322750Y13819530D01*
X30310940Y13861870D01*
X30295190Y13893620D01*
X30271560Y13920080D01*
X30240070Y13930660D01*
G01X30555030Y13602580D02*
X30547150Y13607870D01*
Y13618450D01*
X30555030Y13623740D01*
X30562910Y13618450D01*
Y13607870D01*
X30555030Y13602580D01*
G01X30869990Y13613160D02*
X30897550Y13618450D01*
X30929040Y13634320D01*
X30948730Y13660770D01*
X30956600Y13697830D01*
X30948730Y13734860D01*
X30925110Y13766610D01*
X30889670Y13782500D01*
X30850310D01*
X30826680Y13793080D01*
X30806990Y13819530D01*
X30799120Y13856570D01*
X30810940Y13893620D01*
X30838490Y13920080D01*
X30869990Y13930660D01*
X30901480Y13920080D01*
X30929040Y13893620D01*
X30940860Y13856570D01*
X30932980Y13819530D01*
X30913300Y13793080D01*
X30889670Y13782500D01*
X30850310D01*
X30814870Y13766610D01*
X30791250Y13734860D01*
X30783380Y13697830D01*
X30791250Y13660770D01*
X30810940Y13634320D01*
X30842430Y13618450D01*
X30869990Y13613160D01*
G01X30240070Y14644400D02*
X30208570Y14633820D01*
X30184950Y14607360D01*
X30169200Y14575610D01*
X30157390Y14533270D01*
X30153460Y14485650D01*
X30157390Y14438020D01*
X30169200Y14395690D01*
X30184950Y14363930D01*
X30208570Y14337480D01*
X30240070Y14326900D01*
X30271560Y14337480D01*
X30295190Y14363930D01*
X30310940Y14395690D01*
X30322750Y14438020D01*
X30326680Y14485650D01*
X30322750Y14533270D01*
X30310940Y14575610D01*
X30295190Y14607360D01*
X30271560Y14633820D01*
X30240070Y14644400D01*
G01X30555030Y14316320D02*
X30547150Y14321610D01*
Y14332190D01*
X30555030Y14337480D01*
X30562910Y14332190D01*
Y14321610D01*
X30555030Y14316320D01*
G01X30783380Y14390400D02*
X30806990Y14353350D01*
X30838490Y14332190D01*
X30873930Y14326900D01*
X30905430Y14332190D01*
X30936920Y14358640D01*
X30956600Y14390400D01*
X30960540Y14422150D01*
X30952670Y14459180D01*
X30925110Y14485650D01*
X30897550Y14496240D01*
X30862110D01*
G01X30897550D02*
X30921170Y14512110D01*
X30940860Y14538560D01*
X30948730Y14570310D01*
X30940860Y14602070D01*
X30921170Y14628520D01*
X30885740Y14644400D01*
X30850310Y14639110D01*
X30814870Y14617940D01*
G01X29999910Y15122330D02*
X30031410Y15095880D01*
X30066840Y15080010D01*
X30098340D01*
X30129830Y15095880D01*
X30153460Y15122330D01*
X30165270Y15159390D01*
X30157400Y15196420D01*
X30137710Y15228170D01*
X30102270Y15249350D01*
X30055030Y15259930D01*
X30027470Y15281090D01*
X30015660Y15318130D01*
X30023540Y15355180D01*
X30043220Y15381630D01*
X30070780Y15397510D01*
X30098340D01*
X30125900Y15386930D01*
X30149520Y15360470D01*
G01X30350310Y15397510D02*
X30444790D01*
G01X30397550D02*
Y15080010D01*
G01X30350310D02*
X30444790D01*
G01X30637700Y15397510D02*
X30787320D01*
X30637700Y15080010D01*
X30787320D01*
G01X31106210D02*
X30948730D01*
Y15397510D01*
X31106210D01*
G01X31043220Y15244060D02*
X30948730D01*
G01X32956600Y15556260D02*
Y11987560D01*
G01X33704630Y12185680D02*
Y12503180D01*
X33799120D01*
X33830610Y12487300D01*
X33854240Y12450260D01*
X33862110Y12407930D01*
X33854240Y12365600D01*
X33834550Y12333840D01*
X33799120Y12317960D01*
X33704630D01*
G01X34019590Y12503180D02*
Y12185680D01*
X34177070D01*
G01X34314860D02*
X34413290Y12503180D01*
X34511720Y12185680D01*
G01X34476280Y12296800D02*
X34350290D01*
G01X34728250Y12503180D02*
Y12185680D01*
G01X34637700Y12503180D02*
X34818800D01*
G01X35121950Y12185680D02*
X34964470D01*
Y12503180D01*
X35121950D01*
G01X35058960Y12349730D02*
X34964470D01*
G01X35271560Y12185680D02*
Y12503180D01*
X35350290D01*
X35381790Y12487300D01*
X35405410Y12466140D01*
X35425100Y12434390D01*
X35440850Y12397340D01*
X35444780Y12344430D01*
X35440850Y12291510D01*
X35425100Y12254470D01*
X35405410Y12222710D01*
X35381790Y12201550D01*
X35350290Y12185680D01*
X35271560D01*
G01X33704630Y12899420D02*
Y13216920D01*
X33799120D01*
X33830610Y13201040D01*
X33854240Y13164000D01*
X33862110Y13121670D01*
X33854240Y13079340D01*
X33834550Y13047580D01*
X33799120Y13031700D01*
X33704630D01*
G01X34019590Y13216920D02*
Y12899420D01*
X34177070D01*
G01X34314860D02*
X34413290Y13216920D01*
X34511720Y12899420D01*
G01X34476280Y13010540D02*
X34350290D01*
G01X34728250Y13216920D02*
Y12899420D01*
G01X34637700Y13216920D02*
X34818800D01*
G01X35121950Y12899420D02*
X34964470D01*
Y13216920D01*
X35121950D01*
G01X35058960Y13063470D02*
X34964470D01*
G01X35271560Y12899420D02*
Y13216920D01*
X35350290D01*
X35381790Y13201040D01*
X35405410Y13179880D01*
X35425100Y13148130D01*
X35440850Y13111080D01*
X35444780Y13058170D01*
X35440850Y13005250D01*
X35425100Y12968210D01*
X35405410Y12936450D01*
X35381790Y12915290D01*
X35350290Y12899420D01*
X35271560D01*
G01X33704630Y13613160D02*
Y13930660D01*
X33799120D01*
X33830610Y13914780D01*
X33854240Y13877740D01*
X33862110Y13835410D01*
X33854240Y13793080D01*
X33834550Y13761320D01*
X33799120Y13745440D01*
X33704630D01*
G01X34019590Y13930660D02*
Y13613160D01*
X34177070D01*
G01X34314860D02*
X34413290Y13930660D01*
X34511720Y13613160D01*
G01X34476280Y13724280D02*
X34350290D01*
G01X34728250Y13930660D02*
Y13613160D01*
G01X34637700Y13930660D02*
X34818800D01*
G01X35121950Y13613160D02*
X34964470D01*
Y13930660D01*
X35121950D01*
G01X35058960Y13777210D02*
X34964470D01*
G01X35271560Y13613160D02*
Y13930660D01*
X35350290D01*
X35381790Y13914780D01*
X35405410Y13893620D01*
X35425100Y13861870D01*
X35440850Y13824820D01*
X35444780Y13771910D01*
X35440850Y13718990D01*
X35425100Y13681950D01*
X35405410Y13650190D01*
X35381790Y13629030D01*
X35350290Y13613160D01*
X35271560D01*
G01X33704630Y14326900D02*
Y14644400D01*
X33799120D01*
X33830610Y14628520D01*
X33854240Y14591480D01*
X33862110Y14549150D01*
X33854240Y14506820D01*
X33834550Y14475060D01*
X33799120Y14459180D01*
X33704630D01*
G01X34019590Y14644400D02*
Y14326900D01*
X34177070D01*
G01X34314860D02*
X34413290Y14644400D01*
X34511720Y14326900D01*
G01X34476280Y14438020D02*
X34350290D01*
G01X34728250Y14644400D02*
Y14326900D01*
G01X34637700Y14644400D02*
X34818800D01*
G01X35121950Y14326900D02*
X34964470D01*
Y14644400D01*
X35121950D01*
G01X35058960Y14490950D02*
X34964470D01*
G01X35271560Y14326900D02*
Y14644400D01*
X35350290D01*
X35381790Y14628520D01*
X35405410Y14607360D01*
X35425100Y14575610D01*
X35440850Y14538560D01*
X35444780Y14485650D01*
X35440850Y14432730D01*
X35425100Y14395690D01*
X35405410Y14363930D01*
X35381790Y14342770D01*
X35350290Y14326900D01*
X35271560D01*
G01X33704630Y15080010D02*
Y15397510D01*
X33799120D01*
X33830610Y15381630D01*
X33854240Y15344590D01*
X33862110Y15302260D01*
X33854240Y15259930D01*
X33834550Y15228170D01*
X33799120Y15212290D01*
X33704630D01*
G01X34019590Y15397510D02*
Y15080010D01*
X34177070D01*
G01X34314860D02*
X34413290Y15397510D01*
X34511720Y15080010D01*
G01X34476280Y15191130D02*
X34350290D01*
G01X34728250Y15397510D02*
Y15080010D01*
G01X34637700Y15397510D02*
X34818800D01*
G01X35121950Y15080010D02*
X34964470D01*
Y15397510D01*
X35121950D01*
G01X35058960Y15244060D02*
X34964470D01*
G01X35271560Y15080010D02*
Y15397510D01*
X35350290D01*
X35381790Y15381630D01*
X35405410Y15360470D01*
X35425100Y15328720D01*
X35440850Y15291670D01*
X35444780Y15238760D01*
X35440850Y15185840D01*
X35425100Y15148800D01*
X35405410Y15117040D01*
X35381790Y15095880D01*
X35350290Y15080010D01*
X35271560D01*
G01X36184940Y15556260D02*
Y11987560D01*
G01X37169190Y12185680D02*
Y12503180D01*
X37121950Y12439680D01*
G01Y12185680D02*
X37216430D01*
G01X36854230Y12899420D02*
Y13216920D01*
X36806990Y13153420D01*
G01Y12899420D02*
X36901470D01*
G01X37216430D02*
Y13216920D01*
X37070760Y12989380D01*
X37267620D01*
G01X37397540Y12947030D02*
X37421150Y12920580D01*
X37448710Y12904710D01*
X37484150Y12899420D01*
X37519590Y12910000D01*
X37547140Y12931160D01*
X37566830Y12968210D01*
X37570760Y13010540D01*
X37562890Y13052870D01*
X37543200Y13079340D01*
X37515640Y13100500D01*
X37488090Y13105790D01*
X37460530Y13100500D01*
X37425100Y13079340D01*
X37436910Y13216920D01*
X37543200D01*
G01X37082580Y13676660D02*
X37106190Y13639610D01*
X37137690Y13618450D01*
X37173130Y13613160D01*
X37204630Y13618450D01*
X37236120Y13644900D01*
X37255800Y13676660D01*
X37259740Y13708410D01*
X37251870Y13745440D01*
X37224310Y13771910D01*
X37196750Y13782500D01*
X37161310D01*
G01X37196750D02*
X37220370Y13798370D01*
X37240060Y13824820D01*
X37247930Y13856570D01*
X37240060Y13888330D01*
X37220370Y13914780D01*
X37184940Y13930660D01*
X37149510Y13925370D01*
X37114070Y13904200D01*
G01X36936900Y14591480D02*
X36960530Y14623230D01*
X36988090Y14639110D01*
X37019590Y14644400D01*
X37058950Y14633820D01*
X37086520Y14607360D01*
X37094390Y14575610D01*
X37090450Y14543850D01*
X37074700Y14517400D01*
X36995960Y14464480D01*
X36960530Y14427440D01*
X36936900Y14374510D01*
X36929030Y14326900D01*
X37094390D01*
G01X37373910D02*
Y14644400D01*
X37228240Y14416860D01*
X37425100D01*
G01X36854230Y15080010D02*
X36822730Y15085300D01*
X36795180Y15106460D01*
X36771550Y15138220D01*
X36755800Y15175260D01*
X36747930Y15217590D01*
Y15259930D01*
X36755800Y15302260D01*
X36771550Y15339300D01*
X36795180Y15371050D01*
X36822730Y15392220D01*
X36854230Y15397510D01*
X36885720Y15392220D01*
X36913280Y15371050D01*
X36936910Y15339300D01*
X36952660Y15302260D01*
X36960530Y15259930D01*
Y15217590D01*
X36952660Y15175260D01*
X36936910Y15138220D01*
X36913280Y15106460D01*
X36885720Y15085300D01*
X36854230Y15080010D01*
G01X36885720Y15164680D02*
X36932970Y15080010D01*
G01X37169190Y15397510D02*
Y15080010D01*
G01X37078640Y15397510D02*
X37259740D01*
G01X37484150Y15080010D02*
Y15222880D01*
X37405410Y15397510D01*
G01X37562890D02*
X37484150Y15222880D01*
G54D15*
G01X12288600Y15392470D02*
Y15452460D01*
X12302150D01*
X12307560Y15449460D01*
X12311630Y15445460D01*
X12315020Y15439460D01*
X12317720Y15432460D01*
X12318400Y15422460D01*
X12317720Y15412470D01*
X12315020Y15405470D01*
X12311630Y15399470D01*
X12307560Y15395470D01*
X12302150Y15392470D01*
X12288600D01*
G01X12372930D02*
X12345830D01*
Y15452460D01*
X12372930D01*
G01X12362090Y15423470D02*
X12345830D01*
G01X12401040Y15400470D02*
X12406450Y15395470D01*
X12412550Y15392470D01*
X12417970D01*
X12423390Y15395470D01*
X12427450Y15400470D01*
X12429480Y15407470D01*
X12428130Y15414470D01*
X12424740Y15420460D01*
X12418650Y15424470D01*
X12410520Y15426460D01*
X12405780Y15430460D01*
X12403740Y15437460D01*
X12405100Y15444460D01*
X12408490Y15449460D01*
X12413230Y15452460D01*
X12417970D01*
X12422710Y15450460D01*
X12426780Y15445460D01*
G01X12463010Y15452460D02*
X12479270D01*
G01X12471140D02*
Y15392470D01*
G01X12463010D02*
X12479270D01*
G01X12531080Y15422460D02*
X12544630D01*
Y15404470D01*
X12540570Y15398470D01*
X12535830Y15394470D01*
X12529050Y15392470D01*
X12522280Y15394470D01*
X12517540Y15398470D01*
X12513470Y15404470D01*
X12510760Y15411470D01*
X12509410Y15419470D01*
Y15426460D01*
X12510760Y15432460D01*
X12513470Y15439460D01*
X12517540Y15445460D01*
X12521600Y15449460D01*
X12527020Y15452460D01*
X12531760D01*
X12537180Y15450460D01*
X12541240Y15446460D01*
G01X12567320Y15392470D02*
Y15452460D01*
X12598480Y15392470D01*
Y15452460D01*
G01X12709560Y15447460D02*
X12705500Y15450460D01*
X12700760Y15452460D01*
X12695340D01*
X12689240Y15449460D01*
X12684500Y15444460D01*
X12681110Y15438460D01*
X12678400Y15428460D01*
X12677730Y15419470D01*
X12679080Y15410470D01*
X12681110Y15404470D01*
X12685180Y15398470D01*
X12689920Y15394470D01*
X12694660Y15392470D01*
X12699400D01*
X12704140Y15394470D01*
X12708210Y15397470D01*
X12711590Y15401470D01*
G01X12736990Y15392470D02*
Y15452460D01*
X12753930D01*
X12759350Y15449460D01*
X12762730Y15445460D01*
X12764090Y15437460D01*
X12762730Y15429460D01*
X12758670Y15424470D01*
X12753930Y15421460D01*
X12736990D01*
G01X12753930D02*
X12764090Y15392470D01*
G01X12806420D02*
X12801000Y15393470D01*
X12796260Y15397470D01*
X12792200Y15403470D01*
X12789490Y15410470D01*
X12788130Y15418470D01*
Y15426460D01*
X12789490Y15434460D01*
X12792200Y15441460D01*
X12796260Y15447460D01*
X12801000Y15451460D01*
X12806420Y15452460D01*
X12811840Y15451460D01*
X12816580Y15447460D01*
X12820640Y15441460D01*
X12823350Y15434460D01*
X12824710Y15426460D01*
Y15418470D01*
X12823350Y15410470D01*
X12820640Y15403470D01*
X12816580Y15397470D01*
X12811840Y15393470D01*
X12806420Y15392470D01*
G01X12848080Y15400470D02*
X12853490Y15395470D01*
X12859590Y15392470D01*
X12865010D01*
X12870430Y15395470D01*
X12874490Y15400470D01*
X12876520Y15407470D01*
X12875170Y15414470D01*
X12871780Y15420460D01*
X12865690Y15424470D01*
X12857560Y15426460D01*
X12852820Y15430460D01*
X12850780Y15437460D01*
X12852140Y15444460D01*
X12855530Y15449460D01*
X12860270Y15452460D01*
X12865010D01*
X12869750Y15450460D01*
X12873820Y15445460D01*
G01X12903960Y15400470D02*
X12909370Y15395470D01*
X12915470Y15392470D01*
X12920890D01*
X12926310Y15395470D01*
X12930370Y15400470D01*
X12932400Y15407470D01*
X12931050Y15414470D01*
X12927660Y15420460D01*
X12921570Y15424470D01*
X12913440Y15426460D01*
X12908700Y15430460D01*
X12906660Y15437460D01*
X12908020Y15444460D01*
X12911410Y15449460D01*
X12916150Y15452460D01*
X12920890D01*
X12925630Y15450460D01*
X12929700Y15445460D01*
G01X13015720Y15400470D02*
X13021130Y15395470D01*
X13027230Y15392470D01*
X13032650D01*
X13038070Y15395470D01*
X13042130Y15400470D01*
X13044160Y15407470D01*
X13042810Y15414470D01*
X13039420Y15420460D01*
X13033330Y15424470D01*
X13025200Y15426460D01*
X13020460Y15430460D01*
X13018420Y15437460D01*
X13019780Y15444460D01*
X13023170Y15449460D01*
X13027910Y15452460D01*
X13032650D01*
X13037390Y15450460D01*
X13041460Y15445460D01*
G01X13099370Y15392470D02*
X13072270D01*
Y15452460D01*
X13099370D01*
G01X13088530Y15423470D02*
X13072270D01*
G01X13156600Y15447460D02*
X13152540Y15450460D01*
X13147800Y15452460D01*
X13142380D01*
X13136280Y15449460D01*
X13131540Y15444460D01*
X13128150Y15438460D01*
X13125440Y15428460D01*
X13124770Y15419470D01*
X13126120Y15410470D01*
X13128150Y15404470D01*
X13132220Y15398470D01*
X13136960Y15394470D01*
X13141700Y15392470D01*
X13146440D01*
X13151180Y15394470D01*
X13155250Y15397470D01*
X13158630Y15401470D01*
G01X13197580Y15452460D02*
Y15392470D01*
G01X13182000Y15452460D02*
X13213160D01*
G01X13245330D02*
X13261590D01*
G01X13253460D02*
Y15392470D01*
G01X13245330D02*
X13261590D01*
G01X13309340D02*
X13303920Y15393470D01*
X13299180Y15397470D01*
X13295120Y15403470D01*
X13292410Y15410470D01*
X13291050Y15418470D01*
Y15426460D01*
X13292410Y15434460D01*
X13295120Y15441460D01*
X13299180Y15447460D01*
X13303920Y15451460D01*
X13309340Y15452460D01*
X13314760Y15451460D01*
X13319500Y15447460D01*
X13323560Y15441460D01*
X13326270Y15434460D01*
X13327630Y15426460D01*
Y15418470D01*
X13326270Y15410470D01*
X13323560Y15403470D01*
X13319500Y15397470D01*
X13314760Y15393470D01*
X13309340Y15392470D01*
G01X13349640D02*
Y15452460D01*
X13380800Y15392470D01*
Y15452460D01*
G01X13491880Y15447460D02*
X13487820Y15450460D01*
X13483080Y15452460D01*
X13477660D01*
X13471560Y15449460D01*
X13466820Y15444460D01*
X13463430Y15438460D01*
X13460720Y15428460D01*
X13460050Y15419470D01*
X13461400Y15410470D01*
X13463430Y15404470D01*
X13467500Y15398470D01*
X13472240Y15394470D01*
X13476980Y15392470D01*
X13481720D01*
X13486460Y15394470D01*
X13490530Y15397470D01*
X13493910Y15401470D01*
G01X13518640Y15392470D02*
Y15452460D01*
G01X13547080D02*
Y15392470D01*
G01Y15422460D02*
X13518640D01*
G01X13571810Y15392470D02*
X13588740Y15452460D01*
X13605670Y15392470D01*
G01X13599580Y15413470D02*
X13577900D01*
G01X13631070Y15392470D02*
Y15452460D01*
X13648010D01*
X13653430Y15449460D01*
X13656810Y15445460D01*
X13658170Y15437460D01*
X13656810Y15429460D01*
X13652750Y15424470D01*
X13648010Y15421460D01*
X13631070D01*
G01X13648010D02*
X13658170Y15392470D01*
G01X13700500Y15452460D02*
Y15392470D01*
G01X13684920Y15452460D02*
X13716080D01*
G01X12255240Y15372470D02*
X12295880D01*
G01X12311120D02*
X12351760D01*
G01X12367000D02*
X12407640D01*
G01X12422880D02*
X12463520D01*
G01X12478760D02*
X12519400D01*
G01X12534640D02*
X12575280D01*
G01X12590520D02*
X12631160D01*
G01X12646400D02*
X12687040D01*
G01X12702280D02*
X12742920D01*
G01X12758160D02*
X12798800D01*
G01X12814040D02*
X12854680D01*
G01X12869920D02*
X12910560D01*
G01X12925800D02*
X12966440D01*
G01X12981680D02*
X13022320D01*
G01X13037560D02*
X13078200D01*
G01X13093440D02*
X13134080D01*
G01X13149320D02*
X13189960D01*
G01X13205200D02*
X13245840D01*
G01X13261080D02*
X13301720D01*
G01X13316960D02*
X13357600D01*
G01X13372840D02*
X13413480D01*
G01X13428720D02*
X13469360D01*
G01X13484600D02*
X13525240D01*
G01X13540480D02*
X13581120D01*
G01X13596360D02*
X13637000D01*
G01X13652240D02*
X13692880D01*
G01X13708120D02*
X13748760D01*
G01X12415260Y15332480D02*
Y15272490D01*
G01X12399680Y15332480D02*
X12430840D01*
G01X12471140Y15272490D02*
X12465720Y15273490D01*
X12460980Y15277490D01*
X12456920Y15283490D01*
X12454210Y15290490D01*
X12452850Y15298490D01*
Y15306480D01*
X12454210Y15314480D01*
X12456920Y15321480D01*
X12460980Y15327480D01*
X12465720Y15331480D01*
X12471140Y15332480D01*
X12476560Y15331480D01*
X12481300Y15327480D01*
X12485360Y15321480D01*
X12488070Y15314480D01*
X12489430Y15306480D01*
Y15298490D01*
X12488070Y15290490D01*
X12485360Y15283490D01*
X12481300Y15277490D01*
X12476560Y15273490D01*
X12471140Y15272490D01*
G01X12527020Y15332480D02*
Y15272490D01*
G01X12511440Y15332480D02*
X12542600D01*
G01X12565970Y15272490D02*
X12582900Y15332480D01*
X12599830Y15272490D01*
G01X12593740Y15293490D02*
X12572060D01*
G01X12625230Y15332480D02*
Y15272490D01*
X12652330D01*
G01X12750540Y15332480D02*
Y15272490D01*
G01X12734960Y15332480D02*
X12766120D01*
G01X12792200Y15272490D02*
Y15332480D01*
G01X12820640D02*
Y15272490D01*
G01Y15302480D02*
X12792200D01*
G01X12854170Y15332480D02*
X12870430D01*
G01X12862300D02*
Y15272490D01*
G01X12854170D02*
X12870430D01*
G01X12933080Y15327480D02*
X12929020Y15330480D01*
X12924280Y15332480D01*
X12918860D01*
X12912760Y15329480D01*
X12908020Y15324480D01*
X12904630Y15318480D01*
X12901920Y15308480D01*
X12901250Y15299490D01*
X12902600Y15290490D01*
X12904630Y15284490D01*
X12908700Y15278490D01*
X12913440Y15274490D01*
X12918180Y15272490D01*
X12922920D01*
X12927660Y15274490D01*
X12931730Y15277490D01*
X12935110Y15281490D01*
G01X12959160Y15272490D02*
Y15332480D01*
G01X12984900D02*
X12959160Y15295480D01*
G01X12988960Y15272490D02*
X12970670Y15312480D01*
G01X13014360Y15272490D02*
Y15332480D01*
X13045520Y15272490D01*
Y15332480D01*
G01X13099370Y15272490D02*
X13072270D01*
Y15332480D01*
X13099370D01*
G01X13088530Y15303490D02*
X13072270D01*
G01X13127480Y15280490D02*
X13132890Y15275490D01*
X13138990Y15272490D01*
X13144410D01*
X13149830Y15275490D01*
X13153890Y15280490D01*
X13155920Y15287490D01*
X13154570Y15294490D01*
X13151180Y15300480D01*
X13145090Y15304490D01*
X13136960Y15306480D01*
X13132220Y15310480D01*
X13130180Y15317480D01*
X13131540Y15324480D01*
X13134930Y15329480D01*
X13139670Y15332480D01*
X13144410D01*
X13149150Y15330480D01*
X13153220Y15325480D01*
G01X13183360Y15280490D02*
X13188770Y15275490D01*
X13194870Y15272490D01*
X13200290D01*
X13205710Y15275490D01*
X13209770Y15280490D01*
X13211800Y15287490D01*
X13210450Y15294490D01*
X13207060Y15300480D01*
X13200970Y15304490D01*
X13192840Y15306480D01*
X13188100Y15310480D01*
X13186060Y15317480D01*
X13187420Y15324480D01*
X13190810Y15329480D01*
X13195550Y15332480D01*
X13200290D01*
X13205030Y15330480D01*
X13209100Y15325480D01*
G01X13309340Y15272490D02*
Y15332480D01*
X13301210Y15320480D01*
G01Y15272490D02*
X13317470D01*
G01X13365220Y15270490D02*
X13363870Y15271490D01*
Y15273490D01*
X13365220Y15274490D01*
X13366570Y15273490D01*
Y15271490D01*
X13365220Y15270490D01*
G01X13408230Y15297480D02*
X13412970Y15304490D01*
X13417040Y15308480D01*
X13422450Y15310480D01*
X13427200Y15308480D01*
X13430580Y15304490D01*
X13433290Y15298490D01*
X13433970Y15291490D01*
X13433290Y15285490D01*
X13430580Y15279490D01*
X13426520Y15274490D01*
X13421780Y15272490D01*
X13416360Y15274490D01*
X13411620Y15280490D01*
X13408910Y15289490D01*
X13408230Y15299490D01*
X13409580Y15312480D01*
X13411620Y15319480D01*
X13415000Y15326480D01*
X13419750Y15331480D01*
X13424490Y15332480D01*
X13429230Y15330480D01*
X13432620Y15325480D01*
G01X13515250Y15272490D02*
Y15332480D01*
X13532860Y15282490D01*
X13550470Y15332480D01*
Y15272490D01*
G01X13571130D02*
Y15332480D01*
X13588740Y15282490D01*
X13606350Y15332480D01*
Y15272490D01*
G01X12938500Y18748710D02*
X12878510D01*
X12890510Y18740580D01*
G01X12938500D02*
Y18756840D01*
G01X12918500Y18795780D02*
Y18813400D01*
G01X12888510Y18847600D02*
X12882510Y18851660D01*
X12879510Y18856410D01*
X12878510Y18861820D01*
X12880510Y18868600D01*
X12885510Y18873340D01*
X12891510Y18874690D01*
X12897510Y18874020D01*
X12902510Y18871310D01*
X12912500Y18857760D01*
X12919500Y18851660D01*
X12929500Y18847600D01*
X12938500Y18846250D01*
Y18874690D01*
G01X13826650Y15674910D02*
Y15614920D01*
X13853750D01*
G01X13883210Y15664910D02*
X13887270Y15670910D01*
X13892020Y15673910D01*
X13897430Y15674910D01*
X13904210Y15672910D01*
X13908950Y15667910D01*
X13910300Y15661910D01*
X13909630Y15655910D01*
X13906920Y15650910D01*
X13893370Y15640920D01*
X13887270Y15633920D01*
X13883210Y15623920D01*
X13881860Y15614920D01*
X13910300D01*
G01X13951960Y15612920D02*
X13950610Y15613920D01*
Y15615920D01*
X13951960Y15616920D01*
X13953310Y15615920D01*
Y15613920D01*
X13951960Y15612920D01*
G01Y15639910D02*
X13950610Y15640920D01*
Y15642910D01*
X13951960Y15643910D01*
X13953310Y15642910D01*
Y15640920D01*
X13951960Y15639910D01*
G01X14069140Y15646920D02*
X14071850Y15649910D01*
X14073880Y15654910D01*
X14075240Y15661910D01*
X14073880Y15667910D01*
X14071170Y15671910D01*
X14066430Y15674910D01*
X14048140D01*
Y15614920D01*
X14070490D01*
X14075240Y15618920D01*
X14077940Y15624920D01*
X14079300Y15631920D01*
X14077940Y15638910D01*
X14073880Y15644910D01*
X14069140Y15646920D01*
X14048140D01*
G01X14119600Y15614920D02*
X14114180Y15615920D01*
X14109440Y15619920D01*
X14105380Y15625920D01*
X14102670Y15632920D01*
X14101310Y15640920D01*
Y15648910D01*
X14102670Y15656910D01*
X14105380Y15663910D01*
X14109440Y15669910D01*
X14114180Y15673910D01*
X14119600Y15674910D01*
X14125020Y15673910D01*
X14129760Y15669910D01*
X14133820Y15663910D01*
X14136530Y15656910D01*
X14137890Y15648910D01*
Y15640920D01*
X14136530Y15632920D01*
X14133820Y15625920D01*
X14129760Y15619920D01*
X14125020Y15615920D01*
X14119600Y15614920D01*
G01X14175480Y15674910D02*
Y15614920D01*
G01X14159900Y15674910D02*
X14191060D01*
G01X14231360D02*
Y15614920D01*
G01X14215780Y15674910D02*
X14246940D01*
G01X14287240Y15614920D02*
X14281820Y15615920D01*
X14277080Y15619920D01*
X14273020Y15625920D01*
X14270310Y15632920D01*
X14268950Y15640920D01*
Y15648910D01*
X14270310Y15656910D01*
X14273020Y15663910D01*
X14277080Y15669910D01*
X14281820Y15673910D01*
X14287240Y15674910D01*
X14292660Y15673910D01*
X14297400Y15669910D01*
X14301460Y15663910D01*
X14304170Y15656910D01*
X14305530Y15648910D01*
Y15640920D01*
X14304170Y15632920D01*
X14301460Y15625920D01*
X14297400Y15619920D01*
X14292660Y15615920D01*
X14287240Y15614920D01*
G01X14325510D02*
Y15674910D01*
X14343120Y15624920D01*
X14360730Y15674910D01*
Y15614920D01*
G01X14469780Y15669910D02*
X14465720Y15672910D01*
X14460980Y15674910D01*
X14455560D01*
X14449460Y15671910D01*
X14444720Y15666910D01*
X14441330Y15660910D01*
X14438620Y15650910D01*
X14437950Y15641920D01*
X14439300Y15632920D01*
X14441330Y15626920D01*
X14445400Y15620920D01*
X14450140Y15616920D01*
X14454880Y15614920D01*
X14459620D01*
X14464360Y15616920D01*
X14468430Y15619920D01*
X14471810Y15623920D01*
G01X14510760Y15614920D02*
X14505340Y15615920D01*
X14500600Y15619920D01*
X14496540Y15625920D01*
X14493830Y15632920D01*
X14492470Y15640920D01*
Y15648910D01*
X14493830Y15656910D01*
X14496540Y15663910D01*
X14500600Y15669910D01*
X14505340Y15673910D01*
X14510760Y15674910D01*
X14516180Y15673910D01*
X14520920Y15669910D01*
X14524980Y15663910D01*
X14527690Y15656910D01*
X14529050Y15648910D01*
Y15640920D01*
X14527690Y15632920D01*
X14524980Y15625920D01*
X14520920Y15619920D01*
X14516180Y15615920D01*
X14510760Y15614920D01*
G01X14551060D02*
Y15674910D01*
X14582220Y15614920D01*
Y15674910D01*
G01X14607620Y15614920D02*
Y15674910D01*
X14621170D01*
X14626580Y15671910D01*
X14630650Y15667910D01*
X14634040Y15661910D01*
X14636740Y15654910D01*
X14637420Y15644910D01*
X14636740Y15634920D01*
X14634040Y15627920D01*
X14630650Y15621920D01*
X14626580Y15617920D01*
X14621170Y15614920D01*
X14607620D01*
G01X14663500Y15674910D02*
Y15631920D01*
X14666210Y15622920D01*
X14671630Y15616920D01*
X14678400Y15614920D01*
X14685170Y15616920D01*
X14690590Y15622920D01*
X14693300Y15631920D01*
Y15674910D01*
G01X14749180Y15669910D02*
X14745120Y15672910D01*
X14740380Y15674910D01*
X14734960D01*
X14728860Y15671910D01*
X14724120Y15666910D01*
X14720730Y15660910D01*
X14718020Y15650910D01*
X14717350Y15641920D01*
X14718700Y15632920D01*
X14720730Y15626920D01*
X14724800Y15620920D01*
X14729540Y15616920D01*
X14734280Y15614920D01*
X14739020D01*
X14743760Y15616920D01*
X14747830Y15619920D01*
X14751210Y15623920D01*
G01X14790160Y15674910D02*
Y15614920D01*
G01X14774580Y15674910D02*
X14805740D01*
G01X14846040Y15614920D02*
X14840620Y15615920D01*
X14835880Y15619920D01*
X14831820Y15625920D01*
X14829110Y15632920D01*
X14827750Y15640920D01*
Y15648910D01*
X14829110Y15656910D01*
X14831820Y15663910D01*
X14835880Y15669910D01*
X14840620Y15673910D01*
X14846040Y15674910D01*
X14851460Y15673910D01*
X14856200Y15669910D01*
X14860260Y15663910D01*
X14862970Y15656910D01*
X14864330Y15648910D01*
Y15640920D01*
X14862970Y15632920D01*
X14860260Y15625920D01*
X14856200Y15619920D01*
X14851460Y15615920D01*
X14846040Y15614920D01*
G01X14888370D02*
Y15674910D01*
X14905310D01*
X14910730Y15671910D01*
X14914110Y15667910D01*
X14915470Y15659910D01*
X14914110Y15651910D01*
X14910050Y15646920D01*
X14905310Y15643910D01*
X14888370D01*
G01X14905310D02*
X14915470Y15614920D01*
G01X15004870Y15634920D02*
X15022490D01*
G01X15140340Y15669910D02*
X15136280Y15672910D01*
X15131540Y15674910D01*
X15126120D01*
X15120020Y15671910D01*
X15115280Y15666910D01*
X15111890Y15660910D01*
X15109180Y15650910D01*
X15108510Y15641920D01*
X15109860Y15632920D01*
X15111890Y15626920D01*
X15115960Y15620920D01*
X15120700Y15616920D01*
X15125440Y15614920D01*
X15130180D01*
X15134920Y15616920D01*
X15138990Y15619920D01*
X15142370Y15623920D01*
G01X15181320Y15614920D02*
X15175900Y15615920D01*
X15171160Y15619920D01*
X15167100Y15625920D01*
X15164390Y15632920D01*
X15163030Y15640920D01*
Y15648910D01*
X15164390Y15656910D01*
X15167100Y15663910D01*
X15171160Y15669910D01*
X15175900Y15673910D01*
X15181320Y15674910D01*
X15186740Y15673910D01*
X15191480Y15669910D01*
X15195540Y15663910D01*
X15198250Y15656910D01*
X15199610Y15648910D01*
Y15640920D01*
X15198250Y15632920D01*
X15195540Y15625920D01*
X15191480Y15619920D01*
X15186740Y15615920D01*
X15181320Y15614920D01*
G01X15223650D02*
Y15674910D01*
X15239910D01*
X15245330Y15671910D01*
X15249390Y15664910D01*
X15250750Y15656910D01*
X15249390Y15648910D01*
X15246010Y15642910D01*
X15239910Y15639910D01*
X15223650D01*
G01X15279530Y15614920D02*
Y15674910D01*
X15295790D01*
X15301210Y15671910D01*
X15305270Y15664910D01*
X15306630Y15656910D01*
X15305270Y15648910D01*
X15301890Y15642910D01*
X15295790Y15639910D01*
X15279530D01*
G01X15362510Y15614920D02*
X15335410D01*
Y15674910D01*
X15362510D01*
G01X15351670Y15645920D02*
X15335410D01*
G01X15391290Y15614920D02*
Y15674910D01*
X15408230D01*
X15413650Y15671910D01*
X15417030Y15667910D01*
X15418390Y15659910D01*
X15417030Y15651910D01*
X15412970Y15646920D01*
X15408230Y15643910D01*
X15391290D01*
G01X15408230D02*
X15418390Y15614920D01*
G01X15516600Y15674910D02*
X15511180Y15672910D01*
X15507120Y15667910D01*
X15504410Y15661910D01*
X15502380Y15653910D01*
X15501700Y15644910D01*
X15502380Y15635920D01*
X15504410Y15627920D01*
X15507120Y15621920D01*
X15511180Y15616920D01*
X15516600Y15614920D01*
X15522020Y15616920D01*
X15526080Y15621920D01*
X15528790Y15627920D01*
X15530820Y15635920D01*
X15531500Y15644910D01*
X15530820Y15653910D01*
X15528790Y15661910D01*
X15526080Y15667910D01*
X15522020Y15672910D01*
X15516600Y15674910D01*
G01X15572480Y15612920D02*
X15571130Y15613920D01*
Y15615920D01*
X15572480Y15616920D01*
X15573830Y15615920D01*
Y15613920D01*
X15572480Y15612920D01*
G01X15628360Y15674910D02*
X15622940Y15672910D01*
X15618880Y15667910D01*
X15616170Y15661910D01*
X15614140Y15653910D01*
X15613460Y15644910D01*
X15614140Y15635920D01*
X15616170Y15627920D01*
X15618880Y15621920D01*
X15622940Y15616920D01*
X15628360Y15614920D01*
X15633780Y15616920D01*
X15637840Y15621920D01*
X15640550Y15627920D01*
X15642580Y15635920D01*
X15643260Y15644910D01*
X15642580Y15653910D01*
X15640550Y15661910D01*
X15637840Y15667910D01*
X15633780Y15672910D01*
X15628360Y15674910D01*
G01X15669340Y15626920D02*
X15673400Y15619920D01*
X15678820Y15615920D01*
X15684920Y15614920D01*
X15690340Y15615920D01*
X15695760Y15620920D01*
X15699140Y15626920D01*
X15699820Y15632920D01*
X15698460Y15639910D01*
X15693720Y15644910D01*
X15688980Y15646920D01*
X15682890D01*
G01X15688980D02*
X15693050Y15649910D01*
X15696430Y15654910D01*
X15697790Y15660910D01*
X15696430Y15666910D01*
X15693050Y15671910D01*
X15686950Y15674910D01*
X15680850Y15673910D01*
X15674760Y15669910D01*
G01X15725220Y15623920D02*
X15729280Y15618920D01*
X15734020Y15615920D01*
X15740120Y15614920D01*
X15746220Y15616920D01*
X15750960Y15620920D01*
X15754340Y15627920D01*
X15755020Y15635920D01*
X15753670Y15643910D01*
X15750280Y15648910D01*
X15745540Y15652910D01*
X15740800Y15653910D01*
X15736060Y15652910D01*
X15729960Y15648910D01*
X15731990Y15674910D01*
X15750280D01*
G01X15834270Y15614920D02*
Y15674910D01*
X15851880Y15624920D01*
X15869490Y15674910D01*
Y15614920D01*
G01X15890150D02*
Y15674910D01*
X15907760Y15624920D01*
X15925370Y15674910D01*
Y15614920D01*
G01X13937060Y15532940D02*
X13966860Y15576930D01*
G01X13951960Y15584930D02*
Y15524940D01*
G01X13966860Y15532940D02*
X13937060Y15576930D01*
G01X13931640Y15554940D02*
X13972280D01*
G01X14105380Y15542940D02*
X14110790Y15537940D01*
X14116890Y15534940D01*
X14122310D01*
X14127730Y15537940D01*
X14131790Y15542940D01*
X14133820Y15549940D01*
X14132470Y15556940D01*
X14129080Y15562930D01*
X14122990Y15566940D01*
X14114860Y15568930D01*
X14110120Y15572930D01*
X14108080Y15579930D01*
X14109440Y15586930D01*
X14112830Y15591930D01*
X14117570Y15594930D01*
X14122310D01*
X14127050Y15592930D01*
X14131120Y15587930D01*
G01X14160580Y15594930D02*
Y15551940D01*
X14163290Y15542940D01*
X14168710Y15536940D01*
X14175480Y15534940D01*
X14182250Y15536940D01*
X14187670Y15542940D01*
X14190380Y15551940D01*
Y15594930D01*
G01X14217810Y15534940D02*
Y15594930D01*
X14234750D01*
X14240170Y15591930D01*
X14243550Y15587930D01*
X14244910Y15579930D01*
X14243550Y15571930D01*
X14239490Y15566940D01*
X14234750Y15563930D01*
X14217810D01*
G01X14234750D02*
X14244910Y15534940D01*
G01X14274370D02*
Y15594930D01*
X14300110D01*
G01X14290630Y15565940D02*
X14274370D01*
G01X14326190Y15534940D02*
X14343120Y15594930D01*
X14360050Y15534940D01*
G01X14353960Y15555940D02*
X14332280D01*
G01X14413900Y15589930D02*
X14409840Y15592930D01*
X14405100Y15594930D01*
X14399680D01*
X14393580Y15591930D01*
X14388840Y15586930D01*
X14385450Y15580930D01*
X14382740Y15570930D01*
X14382070Y15561940D01*
X14383420Y15552940D01*
X14385450Y15546940D01*
X14389520Y15540940D01*
X14394260Y15536940D01*
X14399000Y15534940D01*
X14403740D01*
X14408480Y15536940D01*
X14412550Y15539940D01*
X14415930Y15543940D01*
G01X14468430Y15534940D02*
X14441330D01*
Y15594930D01*
X14468430D01*
G01X14457590Y15565940D02*
X14441330D01*
G01X14557830Y15554940D02*
X14575450D01*
G01X14661470Y15534940D02*
X14678400Y15594930D01*
X14695330Y15534940D01*
G01X14689240Y15555940D02*
X14667560D01*
G01X14726150Y15594930D02*
X14742410D01*
G01X14734280D02*
Y15534940D01*
G01X14726150D02*
X14742410D01*
G01X14776610D02*
Y15594930D01*
X14793550D01*
X14798970Y15591930D01*
X14802350Y15587930D01*
X14803710Y15579930D01*
X14802350Y15571930D01*
X14798290Y15566940D01*
X14793550Y15563930D01*
X14776610D01*
G01X14793550D02*
X14803710Y15534940D01*
G01X14901920Y15594930D02*
X14896500Y15592930D01*
X14892440Y15587930D01*
X14889730Y15581930D01*
X14887700Y15573930D01*
X14887020Y15564930D01*
X14887700Y15555940D01*
X14889730Y15547940D01*
X14892440Y15541940D01*
X14896500Y15536940D01*
X14901920Y15534940D01*
X14907340Y15536940D01*
X14911400Y15541940D01*
X14914110Y15547940D01*
X14916140Y15555940D01*
X14916820Y15564930D01*
X14916140Y15573930D01*
X14914110Y15581930D01*
X14911400Y15587930D01*
X14907340Y15592930D01*
X14901920Y15594930D01*
G01X14996070Y15534940D02*
Y15594930D01*
X15013680Y15544940D01*
X15031290Y15594930D01*
Y15534940D01*
G01X15051950D02*
Y15594930D01*
X15069560Y15544940D01*
X15087170Y15594930D01*
Y15534940D01*
G01X13937060Y17146400D02*
X13966860Y17190390D01*
G01X13951960Y17198390D02*
Y17138400D01*
G01X13966860Y17146400D02*
X13937060Y17190390D01*
G01X13931640Y17168400D02*
X13972280D01*
G01X14104700Y17148400D02*
Y17208390D01*
X14118250D01*
X14123660Y17205390D01*
X14127730Y17201390D01*
X14131120Y17195390D01*
X14133820Y17188390D01*
X14134500Y17178390D01*
X14133820Y17168400D01*
X14131120Y17161400D01*
X14127730Y17155400D01*
X14123660Y17151400D01*
X14118250Y17148400D01*
X14104700D01*
G01X14167350Y17208390D02*
X14183610D01*
G01X14175480D02*
Y17148400D01*
G01X14167350D02*
X14183610D01*
G01X14244910D02*
X14217810D01*
Y17208390D01*
X14244910D01*
G01X14234070Y17179400D02*
X14217810D01*
G01X14273690Y17208390D02*
Y17148400D01*
X14300790D01*
G01X14356670D02*
X14329570D01*
Y17208390D01*
X14356670D01*
G01X14345830Y17179400D02*
X14329570D01*
G01X14413900Y17203390D02*
X14409840Y17206390D01*
X14405100Y17208390D01*
X14399680D01*
X14393580Y17205390D01*
X14388840Y17200390D01*
X14385450Y17194390D01*
X14382740Y17184390D01*
X14382070Y17175400D01*
X14383420Y17166400D01*
X14385450Y17160400D01*
X14389520Y17154400D01*
X14394260Y17150400D01*
X14399000Y17148400D01*
X14403740D01*
X14408480Y17150400D01*
X14412550Y17153400D01*
X14415930Y17157400D01*
G01X14454880Y17208390D02*
Y17148400D01*
G01X14439300Y17208390D02*
X14470460D01*
G01X14497210Y17148400D02*
Y17208390D01*
X14514150D01*
X14519570Y17205390D01*
X14522950Y17201390D01*
X14524310Y17193390D01*
X14522950Y17185390D01*
X14518890Y17180400D01*
X14514150Y17177390D01*
X14497210D01*
G01X14514150D02*
X14524310Y17148400D01*
G01X14558510Y17208390D02*
X14574770D01*
G01X14566640D02*
Y17148400D01*
G01X14558510D02*
X14574770D01*
G01X14637420Y17203390D02*
X14633360Y17206390D01*
X14628620Y17208390D01*
X14623200D01*
X14617100Y17205390D01*
X14612360Y17200390D01*
X14608970Y17194390D01*
X14606260Y17184390D01*
X14605590Y17175400D01*
X14606940Y17166400D01*
X14608970Y17160400D01*
X14613040Y17154400D01*
X14617780Y17150400D01*
X14622520Y17148400D01*
X14627260D01*
X14632000Y17150400D01*
X14636070Y17153400D01*
X14639450Y17157400D01*
G01X14725470Y17168400D02*
X14743090D01*
G01X14833170Y17148400D02*
Y17208390D01*
X14858910D01*
G01X14849430Y17179400D02*
X14833170D01*
G01X14888370Y17148400D02*
Y17208390D01*
X14905310D01*
X14910730Y17205390D01*
X14914110Y17201390D01*
X14915470Y17193390D01*
X14914110Y17185390D01*
X14910050Y17180400D01*
X14905310Y17177390D01*
X14888370D01*
G01X14905310D02*
X14915470Y17148400D01*
G01X14948990Y17168400D02*
X14966610D01*
G01X15021810Y17148400D02*
Y17208390D01*
X14996750Y17165400D01*
X15030610D01*
G01X15125440Y17148400D02*
Y17208390D01*
X15117310Y17196390D01*
G01Y17148400D02*
X15133570D01*
G01X15181320Y17146400D02*
X15179970Y17147400D01*
Y17149400D01*
X15181320Y17150400D01*
X15182670Y17149400D01*
Y17147400D01*
X15181320Y17146400D01*
G01X15222300Y17157400D02*
X15226360Y17152400D01*
X15231100Y17149400D01*
X15237200Y17148400D01*
X15243300Y17150400D01*
X15248040Y17154400D01*
X15251420Y17161400D01*
X15252100Y17169400D01*
X15250750Y17177390D01*
X15247360Y17182390D01*
X15242620Y17186390D01*
X15237880Y17187390D01*
X15233140Y17186390D01*
X15227040Y17182390D01*
X15229070Y17208390D01*
X15247360D01*
G01X15278180Y17160400D02*
X15282240Y17153400D01*
X15287660Y17149400D01*
X15293760Y17148400D01*
X15299180Y17149400D01*
X15304600Y17154400D01*
X15307980Y17160400D01*
X15308660Y17166400D01*
X15307300Y17173390D01*
X15302560Y17178390D01*
X15297820Y17180400D01*
X15291730D01*
G01X15297820D02*
X15301890Y17183390D01*
X15305270Y17188390D01*
X15306630Y17194390D01*
X15305270Y17200390D01*
X15301890Y17205390D01*
X15295790Y17208390D01*
X15289690Y17207390D01*
X15283600Y17203390D01*
G01X15387230Y17148400D02*
Y17208390D01*
X15404840Y17158400D01*
X15422450Y17208390D01*
Y17148400D01*
G01X15443110D02*
Y17208390D01*
X15460720Y17158400D01*
X15478330Y17208390D01*
Y17148400D01*
G01X13937060Y18686390D02*
X13966860Y18730380D01*
G01X13951960Y18738380D02*
Y18678390D01*
G01X13966860Y18686390D02*
X13937060Y18730380D01*
G01X13931640Y18708390D02*
X13972280D01*
G01X14105380Y18696390D02*
X14110790Y18691390D01*
X14116890Y18688390D01*
X14122310D01*
X14127730Y18691390D01*
X14131790Y18696390D01*
X14133820Y18703390D01*
X14132470Y18710390D01*
X14129080Y18716380D01*
X14122990Y18720390D01*
X14114860Y18722380D01*
X14110120Y18726380D01*
X14108080Y18733380D01*
X14109440Y18740380D01*
X14112830Y18745380D01*
X14117570Y18748380D01*
X14122310D01*
X14127050Y18746380D01*
X14131120Y18741380D01*
G01X14160580Y18748380D02*
Y18705390D01*
X14163290Y18696390D01*
X14168710Y18690390D01*
X14175480Y18688390D01*
X14182250Y18690390D01*
X14187670Y18696390D01*
X14190380Y18705390D01*
Y18748380D01*
G01X14217810Y18688390D02*
Y18748380D01*
X14234750D01*
X14240170Y18745380D01*
X14243550Y18741380D01*
X14244910Y18733380D01*
X14243550Y18725380D01*
X14239490Y18720390D01*
X14234750Y18717380D01*
X14217810D01*
G01X14234750D02*
X14244910Y18688390D01*
G01X14274370D02*
Y18748380D01*
X14300110D01*
G01X14290630Y18719390D02*
X14274370D01*
G01X14326190Y18688390D02*
X14343120Y18748380D01*
X14360050Y18688390D01*
G01X14353960Y18709390D02*
X14332280D01*
G01X14413900Y18743380D02*
X14409840Y18746380D01*
X14405100Y18748380D01*
X14399680D01*
X14393580Y18745380D01*
X14388840Y18740380D01*
X14385450Y18734380D01*
X14382740Y18724380D01*
X14382070Y18715390D01*
X14383420Y18706390D01*
X14385450Y18700390D01*
X14389520Y18694390D01*
X14394260Y18690390D01*
X14399000Y18688390D01*
X14403740D01*
X14408480Y18690390D01*
X14412550Y18693390D01*
X14415930Y18697390D01*
G01X14468430Y18688390D02*
X14441330D01*
Y18748380D01*
X14468430D01*
G01X14457590Y18719390D02*
X14441330D01*
G01X14557830Y18708390D02*
X14575450D01*
G01X14661470Y18688390D02*
X14678400Y18748380D01*
X14695330Y18688390D01*
G01X14689240Y18709390D02*
X14667560D01*
G01X14726150Y18748380D02*
X14742410D01*
G01X14734280D02*
Y18688390D01*
G01X14726150D02*
X14742410D01*
G01X14776610D02*
Y18748380D01*
X14793550D01*
X14798970Y18745380D01*
X14802350Y18741380D01*
X14803710Y18733380D01*
X14802350Y18725380D01*
X14798290Y18720390D01*
X14793550Y18717380D01*
X14776610D01*
G01X14793550D02*
X14803710Y18688390D01*
G01X14901920Y18748380D02*
X14896500Y18746380D01*
X14892440Y18741380D01*
X14889730Y18735380D01*
X14887700Y18727380D01*
X14887020Y18718380D01*
X14887700Y18709390D01*
X14889730Y18701390D01*
X14892440Y18695390D01*
X14896500Y18690390D01*
X14901920Y18688390D01*
X14907340Y18690390D01*
X14911400Y18695390D01*
X14914110Y18701390D01*
X14916140Y18709390D01*
X14916820Y18718380D01*
X14916140Y18727380D01*
X14914110Y18735380D01*
X14911400Y18741380D01*
X14907340Y18746380D01*
X14901920Y18748380D01*
G01X14996070Y18688390D02*
Y18748380D01*
X15013680Y18698390D01*
X15031290Y18748380D01*
Y18688390D01*
G01X15051950D02*
Y18748380D01*
X15069560Y18698390D01*
X15087170Y18748380D01*
Y18688390D01*
G01X13826650Y18648410D02*
Y18588420D01*
X13853750D01*
G01X13896080D02*
Y18648410D01*
X13887950Y18636410D01*
G01Y18588420D02*
X13904210D01*
G01X13951960Y18586420D02*
X13950610Y18587420D01*
Y18589420D01*
X13951960Y18590420D01*
X13953310Y18589420D01*
Y18587420D01*
X13951960Y18586420D01*
G01Y18613410D02*
X13950610Y18614420D01*
Y18616410D01*
X13951960Y18617410D01*
X13953310Y18616410D01*
Y18614420D01*
X13951960Y18613410D01*
G01X14063720Y18648410D02*
Y18588420D01*
G01X14048140Y18648410D02*
X14079300D01*
G01X14119600Y18588420D02*
X14114180Y18589420D01*
X14109440Y18593420D01*
X14105380Y18599420D01*
X14102670Y18606420D01*
X14101310Y18614420D01*
Y18622410D01*
X14102670Y18630410D01*
X14105380Y18637410D01*
X14109440Y18643410D01*
X14114180Y18647410D01*
X14119600Y18648410D01*
X14125020Y18647410D01*
X14129760Y18643410D01*
X14133820Y18637410D01*
X14136530Y18630410D01*
X14137890Y18622410D01*
Y18614420D01*
X14136530Y18606420D01*
X14133820Y18599420D01*
X14129760Y18593420D01*
X14125020Y18589420D01*
X14119600Y18588420D01*
G01X14161930D02*
Y18648410D01*
X14178190D01*
X14183610Y18645410D01*
X14187670Y18638410D01*
X14189030Y18630410D01*
X14187670Y18622410D01*
X14184290Y18616410D01*
X14178190Y18613410D01*
X14161930D01*
G01X14302140Y18643410D02*
X14298080Y18646410D01*
X14293340Y18648410D01*
X14287920D01*
X14281820Y18645410D01*
X14277080Y18640410D01*
X14273690Y18634410D01*
X14270980Y18624410D01*
X14270310Y18615420D01*
X14271660Y18606420D01*
X14273690Y18600420D01*
X14277760Y18594420D01*
X14282500Y18590420D01*
X14287240Y18588420D01*
X14291980D01*
X14296720Y18590420D01*
X14300790Y18593420D01*
X14304170Y18597420D01*
G01X14343120Y18588420D02*
X14337700Y18589420D01*
X14332960Y18593420D01*
X14328900Y18599420D01*
X14326190Y18606420D01*
X14324830Y18614420D01*
Y18622410D01*
X14326190Y18630410D01*
X14328900Y18637410D01*
X14332960Y18643410D01*
X14337700Y18647410D01*
X14343120Y18648410D01*
X14348540Y18647410D01*
X14353280Y18643410D01*
X14357340Y18637410D01*
X14360050Y18630410D01*
X14361410Y18622410D01*
Y18614420D01*
X14360050Y18606420D01*
X14357340Y18599420D01*
X14353280Y18593420D01*
X14348540Y18589420D01*
X14343120Y18588420D01*
G01X14383420D02*
Y18648410D01*
X14414580Y18588420D01*
Y18648410D01*
G01X14439980Y18588420D02*
Y18648410D01*
X14453530D01*
X14458940Y18645410D01*
X14463010Y18641410D01*
X14466400Y18635410D01*
X14469100Y18628410D01*
X14469780Y18618410D01*
X14469100Y18608420D01*
X14466400Y18601420D01*
X14463010Y18595420D01*
X14458940Y18591420D01*
X14453530Y18588420D01*
X14439980D01*
G01X14495860Y18648410D02*
Y18605420D01*
X14498570Y18596420D01*
X14503990Y18590420D01*
X14510760Y18588420D01*
X14517530Y18590420D01*
X14522950Y18596420D01*
X14525660Y18605420D01*
Y18648410D01*
G01X14581540Y18643410D02*
X14577480Y18646410D01*
X14572740Y18648410D01*
X14567320D01*
X14561220Y18645410D01*
X14556480Y18640410D01*
X14553090Y18634410D01*
X14550380Y18624410D01*
X14549710Y18615420D01*
X14551060Y18606420D01*
X14553090Y18600420D01*
X14557160Y18594420D01*
X14561900Y18590420D01*
X14566640Y18588420D01*
X14571380D01*
X14576120Y18590420D01*
X14580190Y18593420D01*
X14583570Y18597420D01*
G01X14622520Y18648410D02*
Y18588420D01*
G01X14606940Y18648410D02*
X14638100D01*
G01X14678400Y18588420D02*
X14672980Y18589420D01*
X14668240Y18593420D01*
X14664180Y18599420D01*
X14661470Y18606420D01*
X14660110Y18614420D01*
Y18622410D01*
X14661470Y18630410D01*
X14664180Y18637410D01*
X14668240Y18643410D01*
X14672980Y18647410D01*
X14678400Y18648410D01*
X14683820Y18647410D01*
X14688560Y18643410D01*
X14692620Y18637410D01*
X14695330Y18630410D01*
X14696690Y18622410D01*
Y18614420D01*
X14695330Y18606420D01*
X14692620Y18599420D01*
X14688560Y18593420D01*
X14683820Y18589420D01*
X14678400Y18588420D01*
G01X14720730D02*
Y18648410D01*
X14737670D01*
X14743090Y18645410D01*
X14746470Y18641410D01*
X14747830Y18633410D01*
X14746470Y18625410D01*
X14742410Y18620420D01*
X14737670Y18617410D01*
X14720730D01*
G01X14737670D02*
X14747830Y18588420D01*
G01X14837230Y18608420D02*
X14854850D01*
G01X14972700Y18643410D02*
X14968640Y18646410D01*
X14963900Y18648410D01*
X14958480D01*
X14952380Y18645410D01*
X14947640Y18640410D01*
X14944250Y18634410D01*
X14941540Y18624410D01*
X14940870Y18615420D01*
X14942220Y18606420D01*
X14944250Y18600420D01*
X14948320Y18594420D01*
X14953060Y18590420D01*
X14957800Y18588420D01*
X14962540D01*
X14967280Y18590420D01*
X14971350Y18593420D01*
X14974730Y18597420D01*
G01X15013680Y18588420D02*
X15008260Y18589420D01*
X15003520Y18593420D01*
X14999460Y18599420D01*
X14996750Y18606420D01*
X14995390Y18614420D01*
Y18622410D01*
X14996750Y18630410D01*
X14999460Y18637410D01*
X15003520Y18643410D01*
X15008260Y18647410D01*
X15013680Y18648410D01*
X15019100Y18647410D01*
X15023840Y18643410D01*
X15027900Y18637410D01*
X15030610Y18630410D01*
X15031970Y18622410D01*
Y18614420D01*
X15030610Y18606420D01*
X15027900Y18599420D01*
X15023840Y18593420D01*
X15019100Y18589420D01*
X15013680Y18588420D01*
G01X15056010D02*
Y18648410D01*
X15072270D01*
X15077690Y18645410D01*
X15081750Y18638410D01*
X15083110Y18630410D01*
X15081750Y18622410D01*
X15078370Y18616410D01*
X15072270Y18613410D01*
X15056010D01*
G01X15111890Y18588420D02*
Y18648410D01*
X15128150D01*
X15133570Y18645410D01*
X15137630Y18638410D01*
X15138990Y18630410D01*
X15137630Y18622410D01*
X15134250Y18616410D01*
X15128150Y18613410D01*
X15111890D01*
G01X15194870Y18588420D02*
X15167770D01*
Y18648410D01*
X15194870D01*
G01X15184030Y18619420D02*
X15167770D01*
G01X15223650Y18588420D02*
Y18648410D01*
X15240590D01*
X15246010Y18645410D01*
X15249390Y18641410D01*
X15250750Y18633410D01*
X15249390Y18625410D01*
X15245330Y18620420D01*
X15240590Y18617410D01*
X15223650D01*
G01X15240590D02*
X15250750Y18588420D01*
G01X15348960Y18648410D02*
X15343540Y18646410D01*
X15339480Y18641410D01*
X15336770Y18635410D01*
X15334740Y18627410D01*
X15334060Y18618410D01*
X15334740Y18609420D01*
X15336770Y18601420D01*
X15339480Y18595420D01*
X15343540Y18590420D01*
X15348960Y18588420D01*
X15354380Y18590420D01*
X15358440Y18595420D01*
X15361150Y18601420D01*
X15363180Y18609420D01*
X15363860Y18618410D01*
X15363180Y18627410D01*
X15361150Y18635410D01*
X15358440Y18641410D01*
X15354380Y18646410D01*
X15348960Y18648410D01*
G01X15404840Y18586420D02*
X15403490Y18587420D01*
Y18589420D01*
X15404840Y18590420D01*
X15406190Y18589420D01*
Y18587420D01*
X15404840Y18586420D01*
G01X15460720Y18648410D02*
X15455300Y18646410D01*
X15451240Y18641410D01*
X15448530Y18635410D01*
X15446500Y18627410D01*
X15445820Y18618410D01*
X15446500Y18609420D01*
X15448530Y18601420D01*
X15451240Y18595420D01*
X15455300Y18590420D01*
X15460720Y18588420D01*
X15466140Y18590420D01*
X15470200Y18595420D01*
X15472910Y18601420D01*
X15474940Y18609420D01*
X15475620Y18618410D01*
X15474940Y18627410D01*
X15472910Y18635410D01*
X15470200Y18641410D01*
X15466140Y18646410D01*
X15460720Y18648410D01*
G01X15501700Y18600420D02*
X15505760Y18593420D01*
X15511180Y18589420D01*
X15517280Y18588420D01*
X15522700Y18589420D01*
X15528120Y18594420D01*
X15531500Y18600420D01*
X15532180Y18606420D01*
X15530820Y18613410D01*
X15526080Y18618410D01*
X15521340Y18620420D01*
X15515250D01*
G01X15521340D02*
X15525410Y18623410D01*
X15528790Y18628410D01*
X15530150Y18634410D01*
X15528790Y18640410D01*
X15525410Y18645410D01*
X15519310Y18648410D01*
X15513210Y18647410D01*
X15507120Y18643410D01*
G01X15557580Y18597420D02*
X15561640Y18592420D01*
X15566380Y18589420D01*
X15572480Y18588420D01*
X15578580Y18590420D01*
X15583320Y18594420D01*
X15586700Y18601420D01*
X15587380Y18609420D01*
X15586030Y18617410D01*
X15582640Y18622410D01*
X15577900Y18626410D01*
X15573160Y18627410D01*
X15568420Y18626410D01*
X15562320Y18622410D01*
X15564350Y18648410D01*
X15582640D01*
G01X15666630Y18588420D02*
Y18648410D01*
X15684240Y18598420D01*
X15701850Y18648410D01*
Y18588420D01*
G01X15722510D02*
Y18648410D01*
X15740120Y18598420D01*
X15757730Y18648410D01*
Y18588420D01*
M02*
