G04 ================== begin FILE IDENTIFICATION RECORD ==================*
G04 Layout Name:  X-NUCLEO-IHM09M1_SHIELD MC Connector.brd*
G04 Film Name:    X-NUCLEO-IHM09M1-TOP*
G04 File Format:  Gerber RS274X*
G04 File Origin:  Cadence Allegro 16.6-S023*
G04 Origin Date:  Thu Apr 02 11:20:13 2015*
G04 *
G04 Layer:  VIA CLASS/TOP*
G04 Layer:  PIN/TOP*
G04 Layer:  ETCH/TOP*
G04 *
G04 Offset:    (0.0000 0.0000)*
G04 Mirror:    No*
G04 Mode:      Positive*
G04 Rotation:  0*
G04 FullContactRelief:  No*
G04 UndefLineWidth:     0.0000*
G04 ================== end FILE IDENTIFICATION RECORD ====================*
%FSLAX35Y35*MOMM*%
%IR0*IPPOS*OFA0.00000B0.00000*MIA0B0*SFA1.00000B1.00000*%
%ADD17C,.7112*%
%AMMACRO16*
4,1,5,-.62,.46,
.62,.46,
.16,0.0,
.62,-.46,
-.62,-.46,
-.62,.46,
0.0*
%
%ADD16MACRO16*%
%AMMACRO15*
4,1,5,.62,.46,
-.16,.46,
-.62,0.0,
-.16,-.46,
.62,-.46,
.62,.46,
0.0*
%
%ADD15MACRO15*%
%ADD18C,2.032*%
%AMMACRO12*
4,1,5,.62,-.46,
-.62,-.46,
-.16,0.0,
-.62,.46,
.62,.46,
.62,-.46,
0.0*
%
%ADD12MACRO12*%
%ADD10C,1.651*%
%AMMACRO11*
4,1,5,-.62,-.46,
.16,-.46,
.62,0.0,
.16,.46,
-.62,.46,
-.62,-.46,
0.0*
%
%ADD11MACRO11*%
%ADD13C,1.778*%
%ADD14R,1.778X1.778*%
%ADD19R,.9652X.8128*%
%ADD20R,.9144X.7874*%
%ADD21C,.4*%
%ADD22C,.25*%
%ADD23C,.8*%
%ADD29C,2.1452*%
%ADD28C,2.1912*%
%ADD26C,2.2722*%
%ADD24C,2.3182*%
%ADD27R,2.2722X2.2722*%
%ADD25R,2.3182X2.3182*%
G75*
%LPD*%
G75*
G36*
G01X23080940Y17700020D02*
X22884180D01*
X22854180Y17670020D01*
X22795490D01*
G03X22712250Y17677390I-45490J-40021D01*
G02X22697620Y17678220I-6850J8606D01*
G01X22635820Y17740020D01*
X21697420D01*
X21633310Y17675910D01*
X21574000D01*
G03X21689910Y17560000I0J-115910D01*
G01Y17619310D01*
X21730580Y17659980D01*
X21751750D01*
Y17644360D01*
X21748460Y17641130D01*
G03X21920950Y17625330I79537J-81128D01*
G02X21938940Y17659980I17997J12651D01*
G01X22430130D01*
G02X22443460Y17620480I0J-21999D01*
G03X22563330Y17638650I76543J-100478D01*
G01X22567100Y17659980D01*
X22602660D01*
X22672660Y17589980D01*
X22704510D01*
G03X22795490I45490J40020D01*
G01X22887340D01*
X22917340Y17619980D01*
X23080940D01*
Y17583970D01*
X23378570D01*
Y17619980D01*
X23603420D01*
X23719420Y17503980D01*
X23864100D01*
X23879280Y17488800D01*
G02X23871500Y17470020I-7776J-7780D01*
G01X23378570D01*
Y17506030D01*
X23080940D01*
Y17353970D01*
X23132950D01*
Y17276030D01*
X23080940D01*
Y17123970D01*
X23132950D01*
Y17046030D01*
X23080940D01*
Y17010020D01*
X22628820D01*
G02X22613150Y17047460I-2J21999D01*
G03X22524510Y17130020I-43155J42530D01*
G01X22238820D01*
G02X22223150Y17167460I-2J21999D01*
G03X22229320Y17245200I-43149J42539D01*
G02X22247220Y17279980I17905J12781D01*
G01X22374510D01*
G03Y17360020I45490J40020D01*
G01X20246580D01*
X20146580Y17460020D01*
X19969060D01*
Y17496030D01*
X19671430D01*
Y17460020D01*
X19586580D01*
X19520020Y17526580D01*
Y17764000D01*
X23638000D01*
Y18800000D01*
X25025000D01*
Y11900000D01*
X18125000D01*
Y18800000D01*
X19512000D01*
Y18207700D01*
G02X19474770Y18191830I-22001J7D01*
G01X18964580Y18702020D01*
X18777900D01*
X18736500Y18743420D01*
G03X18723750Y18754570I-82473J-81443D01*
G03X18567180Y18585210I-69742J-92578D01*
G01X18569940Y18582090D01*
Y18566920D01*
X18551680D01*
X18515910Y18602690D01*
Y18777910D01*
X18284090D01*
Y18546090D01*
X18459310D01*
X18499300Y18506100D01*
G03X18548490Y18500260I28301J28298D01*
G01X18551140Y18501880D01*
X18568890D01*
Y18486790D01*
X18566220Y18483700D01*
G03X18756500Y18462110I87776J-75700D01*
G02X18775960Y18494380I19458J10269D01*
G01X18959020D01*
X19369980Y18083420D01*
Y17899720D01*
G02X19332750Y17883850I-22001J7D01*
G01X19022580Y18194020D01*
X18777900D01*
X18736510Y18235410D01*
G03Y18072590I-82510J-81410D01*
G01X18777900Y18113980D01*
X18989420D01*
X19299980Y17803420D01*
Y17303420D01*
X19542260Y17061140D01*
G02X19535580Y17025450I-15552J-15559D01*
G03X19605490Y16929980I24418J-55451D01*
G01X23080940D01*
Y16893970D01*
X23378570D01*
Y16929980D01*
X23416580D01*
X23736580Y17249980D01*
X23864100D01*
X23905520Y17208560D01*
X23905540Y17208540D01*
G03X24070460I82460J81460D01*
G01X24070480Y17208560D01*
X24111900Y17249980D01*
X24113420D01*
X24265420Y17097980D01*
X24372100D01*
X24413520Y17056560D01*
X24413540Y17056540D01*
G03X24582820Y17214790I82450J81467D01*
G01X24580060Y17217910D01*
Y17233080D01*
X24598320D01*
X24634090Y17197310D01*
Y17138000D01*
G03X24750000Y17253910I115910J0D01*
G01X24690690D01*
X24650700Y17293900D01*
G03X24601510Y17299740I-28301J-28298D01*
G01X24598860Y17298120D01*
X24581110D01*
Y17313210D01*
X24583780Y17316300D01*
G03X24413520Y17473440I-87779J75699D01*
G01X24372100Y17432020D01*
X24324580D01*
X24172580Y17584020D01*
X24111900D01*
X24070480Y17625440D01*
X24070460Y17625460D01*
G03X23905520Y17625440I-82460J-81460D01*
G01X23864100Y17584020D01*
X23752580D01*
X23636580Y17700020D01*
X23378570D01*
Y17736030D01*
X23080940D01*
Y17700020D01*
G37*
G36*
G01X18765580Y18168140D02*
X18716860Y18216860D01*
X18649000Y18154000D01*
X18716860Y18091140D01*
X18765580Y18139860D01*
G03Y18168140I-14140J14140D01*
G37*
G36*
G01Y18676140D02*
X18716860Y18724860D01*
X18649000Y18662000D01*
X18716860Y18599140D01*
X18765580Y18647860D01*
G03Y18676140I-14140J14140D01*
G37*
G36*
G01X21642900Y17648900D02*
X21574000D01*
X21570460Y17556460D01*
X21662900Y17560000D01*
Y17628900D01*
G03X21642900Y17648900I-20000J0D01*
G37*
G36*
G01X24099580Y17558140D02*
X24050860Y17606860D01*
X23983000Y17544000D01*
X24050860Y17481140D01*
X24099580Y17529860D01*
G03Y17558140I-14140J14140D01*
G37*
G36*
G01X23876420Y17529860D02*
X23925140Y17481140D01*
X23993000Y17544000D01*
X23925140Y17606860D01*
X23876420Y17558140D01*
G03Y17529860I14140J-14140D01*
G37*
G36*
G01X24384420Y17377860D02*
X24433140Y17329140D01*
X24501000Y17392000D01*
X24433140Y17454860D01*
X24384420Y17406140D01*
G03Y17377860I14140J-14140D01*
G37*
G36*
G01X24099580Y17304140D02*
X24050860Y17352860D01*
X23983000Y17290000D01*
X24050860Y17227140D01*
X24099580Y17275860D01*
G03Y17304140I-14140J14140D01*
G37*
G36*
G01X23876420Y17275860D02*
X23925140Y17227140D01*
X23993000Y17290000D01*
X23925140Y17352860D01*
X23876420Y17304140D01*
G03Y17275860I14140J-14140D01*
G37*
G36*
G01X24384420Y17123860D02*
X24433140Y17075140D01*
X24501000Y17138000D01*
X24433140Y17200860D01*
X24384420Y17152140D01*
G03Y17123860I14140J-14140D01*
G37*
G36*
G01X24661100Y17206900D02*
Y17138000D01*
X24753540Y17134460D01*
X24750000Y17226900D01*
X24681100D01*
G03X24661100Y17206900I0J-20000D01*
G37*
%LPC*%
G75*
G36*
G01X24715990Y12050510D02*
X24564010D01*
Y12190450D01*
X24561710D01*
Y12331790D01*
X24599980D01*
Y12580600D01*
X24564250D01*
Y12879400D01*
X24599980D01*
Y13626580D01*
X24849980Y13876580D01*
Y13976250D01*
G03X24815540Y13994400I-22000J5D01*
G02Y14185600I-65540J95600D01*
G03X24849980Y14203750I12440J18145D01*
G01Y14230250D01*
G03X24815540Y14248400I-22000J5D01*
G02Y14439600I-65540J95600D01*
G03X24849980Y14457750I12440J18145D01*
G01Y14484250D01*
G03X24815540Y14502400I-22000J5D01*
G02Y14693600I-65540J95600D01*
G03X24849980Y14711750I12440J18145D01*
G01Y14738250D01*
G03X24815540Y14756400I-22000J5D01*
G02Y14947600I-65540J95600D01*
G03X24849980Y14965750I12440J18145D01*
G01Y14992250D01*
G03X24815540Y15010400I-22000J5D01*
G02X24634090Y15106000I-65541J95600D01*
G01Y15165310D01*
X24605820Y15193580D01*
X24586200D01*
Y15178890D01*
X24588430Y15175940D01*
G02X24413520Y15024560I-92430J-69941D01*
G01X24413500Y15024580D01*
X24372100Y15065980D01*
X24111900D01*
X24070500Y15024580D01*
X24070480Y15024560D01*
G02X23905520I-82480J81440D01*
G01X23905500Y15024580D01*
X23864100Y15065980D01*
X23652580D01*
X23446580Y14859980D01*
X23378570D01*
Y14823970D01*
X23080940D01*
Y14976030D01*
X23132950D01*
Y15053970D01*
X23080940D01*
Y15089980D01*
X22795490D01*
G02X22689410Y15129780I-45491J40021D01*
G03X22651850Y15145260I-22001J-75D01*
G01X22396580Y14889980D01*
X21605490D01*
G02X21514510I-45490J40020D01*
G01X19959060D01*
Y14853970D01*
X19661430D01*
Y14889980D01*
X19466580D01*
X19388580Y14811980D01*
X19285900D01*
X19244500Y14770580D01*
G02X19079500I-82500J81420D01*
G01X19038100Y14811980D01*
X18777900D01*
X18736500Y14770580D01*
G02Y14933420I-82500J81420D01*
G01X18777900Y14892020D01*
X19038100D01*
X19079500Y14933420D01*
G02X19244500I82500J-81420D01*
G01X19285900Y14892020D01*
X19355420D01*
X19433420Y14970020D01*
X19661430D01*
Y15006030D01*
X19959060D01*
Y14970020D01*
X21514510D01*
G02X21605490I45490J-40020D01*
G01X22363420D01*
X22793420Y15400020D01*
X23080940D01*
Y15436030D01*
X23093360D01*
G03X23114560Y15463880I-6J21998D01*
G02X23113020Y15488780I58410J16110D01*
G03X23091250Y15513970I-21767J3190D01*
G01X23080940D01*
Y15666030D01*
X23378570D01*
Y15630020D01*
X23833320D01*
X23857320Y15654020D01*
X23864100D01*
X23872510Y15662420D01*
G03X23856950Y15699980I-15556J15558D01*
G01X23473420D01*
X23416130Y15757280D01*
G03X23378690Y15743970I-15555J-15557D01*
G01X23080940D01*
Y15747170D01*
G03X23048570Y15766570I-22000J-3D01*
G02X22974510Y15779980I-28569J53431D01*
G01X20185490D01*
G02Y15860020I-45490J40020D01*
G01X22974510D01*
G02X23048570Y15873430I45491J-40021D01*
G03X23080940Y15892830I10370J19403D01*
G01Y15896030D01*
X23378570D01*
Y15860020D01*
X23426580D01*
X23506580Y15780020D01*
X23858950D01*
G03X23874510Y15817580I4J22002D01*
G01X23864100Y15827980D01*
X23795420D01*
X23613420Y16009980D01*
X23378570D01*
Y15973970D01*
X23080940D01*
Y16009980D01*
X19935490D01*
G02Y16090020I-45490J40020D01*
G01X23080940D01*
Y16126030D01*
X23378570D01*
Y16090020D01*
X23646580D01*
X23828580Y15908020D01*
X23864100D01*
X23905500Y15949420D01*
X23905520Y15949440D01*
G02X24070480I82480J-81440D01*
G01X24070500Y15949420D01*
X24111900Y15908020D01*
X24372100D01*
X24382110Y15918020D01*
G03X24366550Y15955580I-15556J15558D01*
G01X24267820D01*
X24203420Y16019980D01*
X23813420D01*
X23593420Y16239980D01*
X23378570D01*
Y16203970D01*
X23080940D01*
Y16239980D01*
X21195490D01*
G02Y16320020I-45490J40020D01*
G01X23080940D01*
Y16356030D01*
X23378570D01*
Y16320020D01*
X23626580D01*
X23846580Y16100020D01*
X24236580D01*
X24300980Y16035620D01*
X24365350D01*
G03X24380910Y16073180I4J22002D01*
G01X24372100Y16081980D01*
X24311420D01*
X24162740Y16230660D01*
X24087840Y16158090D01*
X23888160D01*
X23809830Y16233980D01*
X23769420D01*
X23533420Y16469980D01*
X23378570D01*
Y16433970D01*
X23080940D01*
Y16469980D01*
X20435490D01*
G02Y16550020I-45490J40020D01*
G01X23080940D01*
Y16586030D01*
X23378570D01*
Y16550020D01*
X23566580D01*
X23806140Y16310450D01*
X23888160Y16389910D01*
X24087840D01*
X24166170Y16314020D01*
X24192580D01*
X24344580Y16162020D01*
X24372100D01*
X24413500Y16203420D01*
X24413520Y16203440D01*
G02X24583780Y16046300I82481J-81441D01*
G01X24581110Y16043210D01*
Y16028120D01*
X24598870D01*
X24601510Y16029740D01*
G02X24650700Y16023900I20889J-34138D01*
G01X24690690Y15983910D01*
X24750000D01*
G02X24831270Y15950650I0J-115921D01*
G01X24834480Y15947490D01*
X24849980D01*
Y15965420D01*
X24809310Y16006090D01*
X24750000D01*
G02X24865910Y16122000I0J115910D01*
G01Y16062690D01*
X24930020Y15998580D01*
Y13843420D01*
X24680020Y13593420D01*
Y12879400D01*
X24715750D01*
Y12580600D01*
X24680020D01*
Y12331790D01*
X24718290D01*
Y12190450D01*
X24715990D01*
Y12050510D01*
G37*
G36*
G01X19959060Y14223970D02*
X19661430D01*
Y14259980D01*
X19383420D01*
X19339420Y14303980D01*
X19285900D01*
X19244500Y14262580D01*
G02X19079500I-82500J81420D01*
G01X19038100Y14303980D01*
X18777900D01*
X18736500Y14262580D01*
G02X18566220Y14419700I-82501J81421D01*
G01X18568890Y14422790D01*
Y14437880D01*
X18550480D01*
X18515910Y14403310D01*
Y14344000D01*
G02X18400000Y14459910I-115910J0D01*
G01X18459310D01*
X18499300Y14499900D01*
G02X18549950Y14504800I28300J-28299D01*
G01X18552740Y14502920D01*
X18569940D01*
Y14518090D01*
X18567180Y14521210D01*
G02X18736500Y14679420I86828J76784D01*
G01X18777900Y14638020D01*
X19038100D01*
X19079500Y14679420D01*
G02X19244500I82500J-81420D01*
G01X19285900Y14638020D01*
X19361420D01*
X19483420Y14760020D01*
X19661430D01*
Y14796030D01*
X19959060D01*
Y14760020D01*
X20594510D01*
G02Y14679980I45490J-40020D01*
G01X19959060D01*
Y14643970D01*
X19661430D01*
Y14679980D01*
X19516580D01*
X19394580Y14557980D01*
X19285900D01*
X19275490Y14547580D01*
G03X19291050Y14510020I15556J-15558D01*
G01X19383420D01*
X19423420Y14550020D01*
X19661430D01*
Y14586030D01*
X19959060D01*
Y14583130D01*
X19972640Y14577500D01*
X19975150Y14580020D01*
X22664510D01*
G02X22763800Y14512140I45484J-40026D01*
G03X22783340Y14480020I19536J-10119D01*
G01X23080940D01*
Y14516030D01*
X23092140D01*
G03X23113670Y14542550I1J21999D01*
G02Y14567450I59300J12450D01*
G03X23092140Y14593970I-21529J4521D01*
G01X23080940D01*
Y14746030D01*
X23378570D01*
Y14710020D01*
X23473420D01*
X23655420Y14892020D01*
X23864100D01*
X23905500Y14933420D01*
X23905520Y14933440D01*
G02X24070480I82480J-81440D01*
G01X24070500Y14933420D01*
X24111900Y14892020D01*
X24372100D01*
X24413500Y14933420D01*
X24413520Y14933440D01*
G02Y14770560I82480J-81440D01*
G01X24413500Y14770580D01*
X24372100Y14811980D01*
X24111900D01*
X24070500Y14770580D01*
X24070480Y14770560D01*
G02X23905520I-82480J81440D01*
G01X23905500Y14770580D01*
X23864100Y14811980D01*
X23688580D01*
X23506580Y14629980D01*
X23378570D01*
Y14593970D01*
X23253800D01*
G03X23232270Y14567450I-1J-21999D01*
G02Y14542550I-59300J-12450D01*
G03X23253800Y14516030I21529J-4521D01*
G01X23378570D01*
Y14480020D01*
X23503420D01*
X23661420Y14638020D01*
X23864100D01*
X23905500Y14679420D01*
X23905520Y14679440D01*
G02X24070480I82480J-81440D01*
G01X24070500Y14679420D01*
X24111900Y14638020D01*
X24372100D01*
X24413500Y14679420D01*
X24413520Y14679440D01*
G02Y14516560I82480J-81440D01*
G01X24413500Y14516580D01*
X24372100Y14557980D01*
X24111900D01*
X24070500Y14516580D01*
X24070480Y14516560D01*
G02X23905520I-82480J81440D01*
G01X23905500Y14516580D01*
X23864100Y14557980D01*
X23694580D01*
X23536580Y14399980D01*
X23378570D01*
Y14363970D01*
X23080940D01*
Y14399980D01*
X20955490D01*
G02X20856200Y14467860I-45484J40026D01*
G03X20836660Y14499980I-19536J10119D01*
G01X20008310D01*
X19978310Y14469980D01*
X19959060D01*
Y14433970D01*
X19661430D01*
Y14469980D01*
X19456580D01*
X19416580Y14429980D01*
X19293050D01*
G03X19277490Y14392420I-4J-22002D01*
G01X19285900Y14384020D01*
X19372580D01*
X19416580Y14340020D01*
X19661430D01*
Y14376030D01*
X19959060D01*
Y14340020D01*
X21614510D01*
G02Y14259980I45490J-40020D01*
G01X19959060D01*
Y14223970D01*
G37*
G36*
G01X18515910Y16630000D02*
G02X18400000Y16745910I-115910J0D01*
G01X18459310D01*
X18509820Y16796420D01*
X18532680D01*
G03X18552030Y16828880I-1J21998D01*
G02X18753160Y16944020I101968J55119D01*
G01X19062840D01*
G02X19263970Y16828880I99162J-60021D01*
G03X19283320Y16796420I19351J-10462D01*
G01X19661430D01*
Y16836030D01*
X19959060D01*
Y16800020D01*
X22854510D01*
G02X22950760Y16793090I45493J-40020D01*
G03X22982720Y16787760I18428J12016D01*
G02X23048570Y16793430I37282J-47761D01*
G03X23080940Y16812830I10370J19403D01*
G01Y16816030D01*
X23378570D01*
Y16780020D01*
X23483420D01*
X23779420Y17076020D01*
X23864100D01*
X23905500Y17117420D01*
X23905520Y17117440D01*
G02X24070480I82480J-81440D01*
G01X24070500Y17117420D01*
X24111900Y17076020D01*
X24130580D01*
X24282580Y16924020D01*
X24372100D01*
X24413500Y16965420D01*
X24413520Y16965440D01*
G02Y16802560I82480J-81440D01*
G01X24413500Y16802580D01*
X24372100Y16843980D01*
X24249420D01*
X24104660Y16988740D01*
X24070500Y16954580D01*
X24070480Y16954560D01*
G02X23905520I-82480J81440D01*
G01X23905500Y16954580D01*
X23864100Y16995980D01*
X23812580D01*
X23516580Y16699980D01*
X23378570D01*
Y16663970D01*
X23080940D01*
Y16667170D01*
G03X23048570Y16686570I-22000J-3D01*
G02X22969240Y16706910I-28573J53430D01*
G03X22937280Y16712240I-18428J-12016D01*
G02X22854510Y16719980I-37281J47761D01*
G01X19959060D01*
Y16683970D01*
X19661430D01*
Y16716380D01*
X19283960D01*
G03X19264500Y16684110I-2J-22001D01*
G02X19079500Y16548580I-102504J-54109D01*
G01X19038100Y16589980D01*
X18777900D01*
X18736500Y16548580D01*
G02X18560750Y16698850I-82508J81412D01*
G01X18562900Y16701760D01*
Y16716380D01*
X18542980D01*
X18515910Y16689310D01*
Y16630000D01*
G37*
G36*
G01X18665020Y13232920D02*
X18701960Y13195980D01*
G02X18548040I-76960J-77980D01*
G01X18584980Y13232920D01*
Y13643970D01*
X18420940D01*
Y13755430D01*
X18359980Y13816390D01*
Y13966100D01*
X18318580Y14007500D01*
G02X18481420I81420J82500D01*
G01X18440020Y13966100D01*
Y13849550D01*
X18493540Y13796030D01*
X18718570D01*
Y13643970D01*
X18665020D01*
Y13232920D01*
G37*
G36*
G01X18777900Y14049980D02*
X18736500Y14008580D01*
G02Y14171420I-82500J81420D01*
G01X18777900Y14130020D01*
X19038100D01*
X19079500Y14171420D01*
G02X19244500I82500J-81420D01*
G01X19285900Y14130020D01*
X19661430D01*
Y14166030D01*
X19959060D01*
Y14133620D01*
X21864510D01*
G02Y14053580I45490J-40020D01*
G01X19981910D01*
X19978310Y14049980D01*
X19959060D01*
Y14013970D01*
X19661430D01*
Y14049980D01*
X19285900D01*
X19244500Y14008580D01*
G02X19079500I-82500J81420D01*
G01X19038100Y14049980D01*
X18777900D01*
G37*
G36*
G01X24166170D02*
X24087840Y13974090D01*
X23872090D01*
Y14205910D01*
X24087840D01*
X24166170Y14130020D01*
X24372100D01*
X24413500Y14171420D01*
X24413520Y14171440D01*
G02Y14008560I82480J-81440D01*
G01X24413500Y14008580D01*
X24372100Y14049980D01*
X24166170D01*
G37*
G36*
G01X24111900Y14303980D02*
X24070500Y14262580D01*
X24070480Y14262560D01*
G02Y14425440I-82480J81440D01*
G01X24070500Y14425420D01*
X24111900Y14384020D01*
X24372100D01*
X24413500Y14425420D01*
G02X24413520Y14262560I82499J-81420D01*
G01X24413500Y14262580D01*
X24372100Y14303980D01*
X24111900D01*
G37*
G36*
G01X18777900Y15065980D02*
X18736500Y15024580D01*
G02Y15187420I-82500J81420D01*
G01X18777900Y15146020D01*
X19038100D01*
X19079500Y15187420D01*
G02X19244500I82500J-81420D01*
G01X19285900Y15146020D01*
X19399420D01*
X19433420Y15180020D01*
X19661430D01*
Y15216030D01*
X19959060D01*
Y15180020D01*
X21234510D01*
G02Y15099980I45490J-40020D01*
G01X19959060D01*
Y15063970D01*
X19661430D01*
Y15099980D01*
X19466580D01*
X19432580Y15065980D01*
X19285900D01*
X19244500Y15024580D01*
G02X19079500I-82500J81420D01*
G01X19038100Y15065980D01*
X18777900D01*
G37*
G36*
G01X18983830Y15400020D02*
X19062160Y15475910D01*
X19261840D01*
X19340170Y15400020D01*
X19661430D01*
Y15426030D01*
X19959060D01*
Y15390020D01*
X21364510D01*
G02Y15309980I45490J-40020D01*
G01X19959060D01*
Y15273970D01*
X19661430D01*
Y15319980D01*
X19340170D01*
X19261840Y15244090D01*
X19062160D01*
X18983830Y15319980D01*
X18777900D01*
X18736500Y15278580D01*
G02Y15441420I-82500J81420D01*
G01X18777900Y15400020D01*
X18983830D01*
G37*
G36*
G01X18777900Y15827980D02*
X18736500Y15786580D01*
G02Y15949420I-82500J81420D01*
G01X18777900Y15908020D01*
X19038100D01*
X19079500Y15949420D01*
G02Y15786580I82500J-81420D01*
G01X19038100Y15827980D01*
X18777900D01*
G37*
G36*
G01X24257420Y16335980D02*
X24108660Y16484740D01*
X24070500Y16446580D01*
X24070480Y16446560D01*
G02Y16609440I-82480J81440D01*
G01X24070500Y16609420D01*
X24111900Y16568020D01*
X24138580D01*
X24290580Y16416020D01*
X24372100D01*
X24413500Y16457420D01*
X24413520Y16457440D01*
G02Y16294560I82480J-81440D01*
G01X24413500Y16294580D01*
X24372100Y16335980D01*
X24257420D01*
G37*
G36*
G01X24273420Y16589980D02*
X24121420Y16741980D01*
X24111900D01*
X24070500Y16700580D01*
X24070480Y16700560D01*
G02Y16863440I-82480J81440D01*
G01X24070500Y16863420D01*
X24111900Y16822020D01*
X24154580D01*
X24306580Y16670020D01*
X24372100D01*
X24413500Y16711420D01*
X24413520Y16711440D01*
G02Y16548560I82480J-81440D01*
G01X24413500Y16548580D01*
X24372100Y16589980D01*
X24273420D01*
G37*
G36*
G01X18777900Y17097980D02*
X18736500Y17056580D01*
G02Y17219420I-82500J81420D01*
G01X18777900Y17178020D01*
X19038100D01*
X19079500Y17219420D01*
G02Y17056580I82500J-81420D01*
G01X19038100Y17097980D01*
X18777900D01*
G37*
G36*
G01X19062840Y17331980D02*
X18753160D01*
G02Y17452020I-99160J60020D01*
G01X19062840D01*
G02Y17331980I99160J-60020D01*
G37*
G36*
G01X24267420Y17605980D02*
X24115420Y17757980D01*
X24111900D01*
X24070500Y17716580D01*
X24070480Y17716560D01*
G02Y17879440I-82480J81440D01*
G01X24070500Y17879420D01*
X24111900Y17838020D01*
X24148580D01*
X24300580Y17686020D01*
X24372100D01*
X24413500Y17727420D01*
X24413520Y17727440D01*
G02Y17564560I82480J-81440D01*
G01X24413500Y17564580D01*
X24372100Y17605980D01*
X24267420D01*
G37*
G36*
G01X24283420Y17859980D02*
X24131420Y18011980D01*
X24111900D01*
X24070500Y17970580D01*
X24070480Y17970560D01*
G02Y18133440I-82480J81440D01*
G01X24070500Y18133420D01*
X24111900Y18092020D01*
X24164580D01*
X24316580Y17940020D01*
X24372100D01*
X24413500Y17981420D01*
X24413520Y17981440D01*
G02Y17818560I82480J-81440D01*
G01X24413500Y17818580D01*
X24372100Y17859980D01*
X24283420D01*
G37*
G36*
G01X24273420Y18113980D02*
X24121420Y18265980D01*
X24111900D01*
X24070500Y18224580D01*
X24070480Y18224560D01*
G02Y18387440I-82480J81440D01*
G01X24070500Y18387420D01*
X24111900Y18346020D01*
X24154580D01*
X24306580Y18194020D01*
X24372100D01*
X24413500Y18235420D01*
X24413520Y18235440D01*
G02Y18072560I82480J-81440D01*
G01X24413500Y18072580D01*
X24372100Y18113980D01*
X24273420D01*
G37*
G36*
G01X24265420Y18367980D02*
X24113420Y18519980D01*
X24111900D01*
X24070500Y18478580D01*
X24070480Y18478560D01*
G02Y18641440I-82480J81440D01*
G01X24070500Y18641420D01*
X24111900Y18600020D01*
X24146580D01*
X24298580Y18448020D01*
X24372100D01*
X24413500Y18489420D01*
X24413520Y18489440D01*
G02Y18326560I82480J-81440D01*
G01X24413500Y18326580D01*
X24372100Y18367980D01*
X24265420D01*
G37*
G54D29*
X18371000Y12102000D03*
G54D28*
X18879000D03*
G54D26*
X21028000Y12497000D03*
X20520000D03*
X20266000D03*
X20012000D03*
X19162000Y16376000D03*
Y16122000D03*
X19758000Y12497000D03*
X18654000Y16376000D03*
Y16122000D03*
G54D24*
X24750000Y18408000D03*
Y18662000D03*
Y17646000D03*
Y17900000D03*
Y18154000D03*
Y17392000D03*
Y16884000D03*
Y16630000D03*
Y16376000D03*
X23822000Y12497000D03*
Y12243000D03*
X23060000Y12497000D03*
X23568000D03*
X23060000Y12243000D03*
X23314000D03*
X23568000D03*
X22298000Y12497000D03*
X22552000D03*
X22806000D03*
X22298000Y12243000D03*
X22552000D03*
X22806000D03*
X21790000Y12497000D03*
X21536000D03*
X22044000Y12243000D03*
X21790000D03*
X21536000D03*
X21282000Y12497000D03*
Y12243000D03*
X21028000D03*
X20774000D03*
X20520000D03*
X20266000D03*
X20012000D03*
X18400000Y18408000D03*
X18654000Y17646000D03*
X18400000D03*
X18654000Y17900000D03*
X18400000D03*
Y18154000D03*
Y17392000D03*
Y17138000D03*
Y16884000D03*
Y16376000D03*
Y16122000D03*
Y15868000D03*
Y15614000D03*
Y15360000D03*
X18654000Y15614000D03*
X18400000Y15106000D03*
Y14852000D03*
Y14598000D03*
G54D27*
X20774000Y12497000D03*
G54D25*
X24496000Y18662000D03*
X23314000Y12497000D03*
X22044000D03*
X21320000Y17560000D03*
X19162000Y17646000D03*
X19758000Y12243000D03*
%LPD*%
G75*
G36*
G01X18610860Y13220600D02*
X18566630Y13176370D01*
X18625000Y13113000D01*
X18683370Y13176370D01*
X18639140Y13220600D01*
G03X18610860I-14140J-14140D01*
G37*
G36*
G01X19050420Y14075860D02*
X19099140Y14027140D01*
X19167000Y14090000D01*
X19099140Y14152860D01*
X19050420Y14104140D01*
G03Y14075860I14140J-14140D01*
G37*
G36*
G01X18765580Y14104140D02*
X18716860Y14152860D01*
X18649000Y14090000D01*
X18716860Y14027140D01*
X18765580Y14075860D01*
G03Y14104140I-14140J14140D01*
G37*
G36*
G01X18468900Y14432900D02*
X18400000D01*
X18396460Y14340460D01*
X18488900Y14344000D01*
Y14412900D01*
G03X18468900Y14432900I-20000J0D01*
G37*
G36*
G01X19050420Y14329860D02*
X19099140Y14281140D01*
X19167000Y14344000D01*
X19099140Y14406860D01*
X19050420Y14358140D01*
G03Y14329860I14140J-14140D01*
G37*
G36*
G01X18765580Y14358140D02*
X18716860Y14406860D01*
X18649000Y14344000D01*
X18716860Y14281140D01*
X18765580Y14329860D01*
G03Y14358140I-14140J14140D01*
G37*
G36*
G01X18414140Y13978420D02*
X18462860Y14027140D01*
X18400000Y14095000D01*
X18337140Y14027140D01*
X18385860Y13978420D01*
G03X18414140I14140J14140D01*
G37*
G36*
G01X19050420Y14583860D02*
X19099140Y14535140D01*
X19167000Y14598000D01*
X19099140Y14660860D01*
X19050420Y14612140D01*
G03Y14583860I14140J-14140D01*
G37*
G36*
G01X18765580Y14612140D02*
X18716860Y14660860D01*
X18649000Y14598000D01*
X18716860Y14535140D01*
X18765580Y14583860D01*
G03Y14612140I-14140J14140D01*
G37*
G36*
G01X19050420Y15091860D02*
X19099140Y15043140D01*
X19167000Y15106000D01*
X19099140Y15168860D01*
X19050420Y15120140D01*
G03Y15091860I14140J-14140D01*
G37*
G36*
G01X18765580Y15120140D02*
X18716860Y15168860D01*
X18649000Y15106000D01*
X18716860Y15043140D01*
X18765580Y15091860D01*
G03Y15120140I-14140J14140D01*
G37*
G36*
G01X19050420Y14837860D02*
X19099140Y14789140D01*
X19167000Y14852000D01*
X19099140Y14914860D01*
X19050420Y14866140D01*
G03Y14837860I14140J-14140D01*
G37*
G36*
G01X18765580Y14866140D02*
X18716860Y14914860D01*
X18649000Y14852000D01*
X18716860Y14789140D01*
X18765580Y14837860D01*
G03Y14866140I-14140J14140D01*
G37*
G36*
G01X18993330Y15348380D02*
X19073100Y15271100D01*
X19167000Y15360000D01*
X19073100Y15448900D01*
X18993330Y15371620D01*
G03Y15348380I16270J-11620D01*
G37*
G36*
G01X18765580Y15374140D02*
X18716860Y15422860D01*
X18649000Y15360000D01*
X18716860Y15297140D01*
X18765580Y15345860D01*
G03Y15374140I-14140J14140D01*
G37*
G36*
G01X19050420Y15853860D02*
X19099140Y15805140D01*
X19167000Y15868000D01*
X19099140Y15930860D01*
X19050420Y15882140D01*
G03Y15853860I14140J-14140D01*
G37*
G36*
G01X18765580Y15882140D02*
X18716860Y15930860D01*
X18649000Y15868000D01*
X18716860Y15805140D01*
X18765580Y15853860D01*
G03Y15882140I-14140J14140D01*
G37*
G36*
G01X18468900Y16718900D02*
X18400000D01*
X18396460Y16626460D01*
X18488900Y16630000D01*
Y16698900D01*
G03X18468900Y16718900I-20000J0D01*
G37*
G36*
G01X19050420Y16615860D02*
X19099140Y16567140D01*
X19167000Y16630000D01*
X19099140Y16692860D01*
X19050420Y16644140D01*
G03Y16615860I14140J-14140D01*
G37*
G36*
G01X18765580Y16644140D02*
X18716860Y16692860D01*
X18649000Y16630000D01*
X18716860Y16567140D01*
X18765580Y16615860D01*
G03Y16644140I-14140J14140D01*
G37*
G36*
G01X19050420Y17123860D02*
X19099140Y17075140D01*
X19167000Y17138000D01*
X19099140Y17200860D01*
X19050420Y17152140D01*
G03Y17123860I14140J-14140D01*
G37*
G36*
G01X18765580Y17152140D02*
X18716860Y17200860D01*
X18649000Y17138000D01*
X18716860Y17075140D01*
X18765580Y17123860D01*
G03Y17152140I-14140J14140D01*
G37*
G36*
G01X19273580Y14104140D02*
X19224860Y14152860D01*
X19157000Y14090000D01*
X19224860Y14027140D01*
X19273580Y14075860D01*
G03Y14104140I-14140J14140D01*
G37*
G36*
G01Y14358140D02*
X19224860Y14406860D01*
X19157000Y14344000D01*
X19224860Y14281140D01*
X19273580Y14329860D01*
G03Y14358140I-14140J14140D01*
G37*
G36*
G01Y14612140D02*
X19224860Y14660860D01*
X19157000Y14598000D01*
X19224860Y14535140D01*
X19273580Y14583860D01*
G03Y14612140I-14140J14140D01*
G37*
G36*
G01Y15120140D02*
X19224860Y15168860D01*
X19157000Y15106000D01*
X19224860Y15043140D01*
X19273580Y15091860D01*
G03Y15120140I-14140J14140D01*
G37*
G36*
G01Y14866140D02*
X19224860Y14914860D01*
X19157000Y14852000D01*
X19224860Y14789140D01*
X19273580Y14837860D01*
G03Y14866140I-14140J14140D01*
G37*
G36*
G01X19330670Y15371620D02*
X19250900Y15448900D01*
X19157000Y15360000D01*
X19250900Y15271100D01*
X19330670Y15348380D01*
G03Y15371620I-16270J11620D01*
G37*
G36*
G01X24156670Y14101620D02*
X24076900Y14178900D01*
X23983000Y14090000D01*
X24076900Y14001100D01*
X24156670Y14078380D01*
G03Y14101620I-16270J11620D01*
G37*
G36*
G01X24384420Y14075860D02*
X24433140Y14027140D01*
X24501000Y14090000D01*
X24433140Y14152860D01*
X24384420Y14104140D01*
G03Y14075860I14140J-14140D01*
G37*
G36*
G01X24099580Y14358140D02*
X24050860Y14406860D01*
X23983000Y14344000D01*
X24050860Y14281140D01*
X24099580Y14329860D01*
G03Y14358140I-14140J14140D01*
G37*
G36*
G01X24384420Y14329860D02*
X24433140Y14281140D01*
X24501000Y14344000D01*
X24433140Y14406860D01*
X24384420Y14358140D01*
G03Y14329860I14140J-14140D01*
G37*
G36*
G01X24099580Y14612140D02*
X24050860Y14660860D01*
X23983000Y14598000D01*
X24050860Y14535140D01*
X24099580Y14583860D01*
G03Y14612140I-14140J14140D01*
G37*
G36*
G01X23876420Y14583860D02*
X23925140Y14535140D01*
X23993000Y14598000D01*
X23925140Y14660860D01*
X23876420Y14612140D01*
G03Y14583860I14140J-14140D01*
G37*
G36*
G01X24384420D02*
X24433140Y14535140D01*
X24501000Y14598000D01*
X24433140Y14660860D01*
X24384420Y14612140D01*
G03Y14583860I14140J-14140D01*
G37*
G36*
G01X24099580Y14866140D02*
X24050860Y14914860D01*
X23983000Y14852000D01*
X24050860Y14789140D01*
X24099580Y14837860D01*
G03Y14866140I-14140J14140D01*
G37*
G36*
G01X23876420Y14837860D02*
X23925140Y14789140D01*
X23993000Y14852000D01*
X23925140Y14914860D01*
X23876420Y14866140D01*
G03Y14837860I14140J-14140D01*
G37*
G36*
G01X24384420D02*
X24433140Y14789140D01*
X24501000Y14852000D01*
X24433140Y14914860D01*
X24384420Y14866140D01*
G03Y14837860I14140J-14140D01*
G37*
G36*
G01X24099580Y15120140D02*
X24050860Y15168860D01*
X23983000Y15106000D01*
X24050860Y15043140D01*
X24099580Y15091860D01*
G03Y15120140I-14140J14140D01*
G37*
G36*
G01X23876420Y15091860D02*
X23925140Y15043140D01*
X23993000Y15106000D01*
X23925140Y15168860D01*
X23876420Y15120140D01*
G03Y15091860I14140J-14140D01*
G37*
G36*
G01X24384420D02*
X24433140Y15043140D01*
X24501000Y15106000D01*
X24433140Y15168860D01*
X24384420Y15120140D01*
G03Y15091860I14140J-14140D01*
G37*
G36*
G01X24099580Y15882140D02*
X24050860Y15930860D01*
X23983000Y15868000D01*
X24050860Y15805140D01*
X24099580Y15853860D01*
G03Y15882140I-14140J14140D01*
G37*
G36*
G01X23876420Y15853860D02*
X23925140Y15805140D01*
X23993000Y15868000D01*
X23925140Y15930860D01*
X23876420Y15882140D01*
G03Y15853860I14140J-14140D01*
G37*
G36*
G01X24384420D02*
X24433140Y15805140D01*
X24501000Y15868000D01*
X24433140Y15930860D01*
X24384420Y15882140D01*
G03Y15853860I14140J-14140D01*
G37*
G36*
G01X24099580Y15628140D02*
X24050860Y15676860D01*
X23983000Y15614000D01*
X24050860Y15551140D01*
X24099580Y15599860D01*
G03Y15628140I-14140J14140D01*
G37*
G36*
G01X23876420Y15599860D02*
X23925140Y15551140D01*
X23993000Y15614000D01*
X23925140Y15676860D01*
X23876420Y15628140D01*
G03Y15599860I14140J-14140D01*
G37*
G36*
G01X24384420D02*
X24433140Y15551140D01*
X24501000Y15614000D01*
X24433140Y15676860D01*
X24384420Y15628140D01*
G03Y15599860I14140J-14140D01*
G37*
G36*
G01X24099580Y15374140D02*
X24050860Y15422860D01*
X23983000Y15360000D01*
X24050860Y15297140D01*
X24099580Y15345860D01*
G03Y15374140I-14140J14140D01*
G37*
G36*
G01X23876420Y15345860D02*
X23925140Y15297140D01*
X23993000Y15360000D01*
X23925140Y15422860D01*
X23876420Y15374140D01*
G03Y15345860I14140J-14140D01*
G37*
G36*
G01X24384420D02*
X24433140Y15297140D01*
X24501000Y15360000D01*
X24433140Y15422860D01*
X24384420Y15374140D01*
G03Y15345860I14140J-14140D01*
G37*
G36*
G01X24156670Y16285620D02*
X24076900Y16362900D01*
X23983000Y16274000D01*
X24076900Y16185100D01*
X24156670Y16262380D01*
G03Y16285620I-16270J11620D01*
G37*
G36*
G01X23819330Y16262380D02*
X23899100Y16185100D01*
X23993000Y16274000D01*
X23899100Y16362900D01*
X23819330Y16285620D01*
G03Y16262380I16270J-11620D01*
G37*
G36*
G01X24384420Y16107860D02*
X24433140Y16059140D01*
X24501000Y16122000D01*
X24433140Y16184860D01*
X24384420Y16136140D01*
G03Y16107860I14140J-14140D01*
G37*
G36*
G01X24099580Y16796140D02*
X24050860Y16844860D01*
X23983000Y16782000D01*
X24050860Y16719140D01*
X24099580Y16767860D01*
G03Y16796140I-14140J14140D01*
G37*
G36*
G01X24384420Y16615860D02*
X24433140Y16567140D01*
X24501000Y16630000D01*
X24433140Y16692860D01*
X24384420Y16644140D01*
G03Y16615860I14140J-14140D01*
G37*
G36*
G01X24099580Y16542140D02*
X24050860Y16590860D01*
X23983000Y16528000D01*
X24050860Y16465140D01*
X24099580Y16513860D01*
G03Y16542140I-14140J14140D01*
G37*
G36*
G01X24384420Y16361860D02*
X24433140Y16313140D01*
X24501000Y16376000D01*
X24433140Y16438860D01*
X24384420Y16390140D01*
G03Y16361860I14140J-14140D01*
G37*
G36*
G01X24099580Y17050140D02*
X24050860Y17098860D01*
X23983000Y17036000D01*
X24050860Y16973140D01*
X24099580Y17021860D01*
G03Y17050140I-14140J14140D01*
G37*
G36*
G01X23876420Y17021860D02*
X23925140Y16973140D01*
X23993000Y17036000D01*
X23925140Y17098860D01*
X23876420Y17050140D01*
G03Y17021860I14140J-14140D01*
G37*
G36*
G01X24384420Y16869860D02*
X24433140Y16821140D01*
X24501000Y16884000D01*
X24433140Y16946860D01*
X24384420Y16898140D01*
G03Y16869860I14140J-14140D01*
G37*
G36*
G01X24099580Y18066140D02*
X24050860Y18114860D01*
X23983000Y18052000D01*
X24050860Y17989140D01*
X24099580Y18037860D01*
G03Y18066140I-14140J14140D01*
G37*
G36*
G01X24384420Y17885860D02*
X24433140Y17837140D01*
X24501000Y17900000D01*
X24433140Y17962860D01*
X24384420Y17914140D01*
G03Y17885860I14140J-14140D01*
G37*
G36*
G01X24099580Y17812140D02*
X24050860Y17860860D01*
X23983000Y17798000D01*
X24050860Y17735140D01*
X24099580Y17783860D01*
G03Y17812140I-14140J14140D01*
G37*
G36*
G01X24384420Y17631860D02*
X24433140Y17583140D01*
X24501000Y17646000D01*
X24433140Y17708860D01*
X24384420Y17660140D01*
G03Y17631860I14140J-14140D01*
G37*
G36*
G01X24099580Y18320140D02*
X24050860Y18368860D01*
X23983000Y18306000D01*
X24050860Y18243140D01*
X24099580Y18291860D01*
G03Y18320140I-14140J14140D01*
G37*
G36*
G01X24384420Y18139860D02*
X24433140Y18091140D01*
X24501000Y18154000D01*
X24433140Y18216860D01*
X24384420Y18168140D01*
G03Y18139860I14140J-14140D01*
G37*
G36*
G01X24099580Y18574140D02*
X24050860Y18622860D01*
X23983000Y18560000D01*
X24050860Y18497140D01*
X24099580Y18545860D01*
G03Y18574140I-14140J14140D01*
G37*
G36*
G01X24384420Y18393860D02*
X24433140Y18345140D01*
X24501000Y18408000D01*
X24433140Y18470860D01*
X24384420Y18422140D01*
G03Y18393860I14140J-14140D01*
G37*
G36*
G01X24661100Y15174900D02*
Y15106000D01*
X24753540Y15102460D01*
X24750000Y15194900D01*
X24681100D01*
G03X24661100Y15174900I0J-20000D01*
G37*
G36*
G01Y15936900D02*
Y15868000D01*
X24753540Y15864460D01*
X24750000Y15956900D01*
X24681100D01*
G03X24661100Y15936900I0J-20000D01*
G37*
G36*
G01Y15682900D02*
Y15614000D01*
X24753540Y15610460D01*
X24750000Y15702900D01*
X24681100D01*
G03X24661100Y15682900I0J-20000D01*
G37*
G36*
G01X24838900Y16053100D02*
Y16122000D01*
X24746460Y16125540D01*
X24750000Y16033100D01*
X24818900D01*
G03X24838900Y16053100I0J20000D01*
G37*
G54D10*
X18371000Y12102000D03*
X18879000D03*
X18625000Y13118000D03*
G54D20*
X24640000Y12810000D03*
Y12650000D03*
G54D11*
X18512970Y13720000D03*
X23172970Y14440000D03*
Y14900000D03*
Y15130000D03*
Y14670000D03*
Y16050000D03*
Y15360000D03*
Y15820000D03*
Y15590000D03*
Y16510000D03*
Y16280000D03*
Y16740000D03*
Y16970000D03*
Y17200000D03*
Y17430000D03*
Y17660000D03*
G54D21*
G01X18252740Y12102000D02*
X18371000D01*
G01Y11983740D02*
Y12102000D01*
G01D02*
Y12220260D01*
G01Y12102000D02*
X18489260D01*
G01X18400000Y14090000D02*
Y13832970D01*
X18512970Y13720000D01*
G01X18625000Y13118000D02*
Y13718460D01*
X18626540Y13720000D01*
G01X18654000Y14090000D02*
X19162000D01*
G01X18400000Y14344000D02*
X18527600Y14471600D01*
G01X18760400Y14470400D02*
X19090400D01*
G01X19240000Y14470000D02*
X19400000D01*
X19440000Y14510000D01*
X19753460D01*
G01X18654000Y14344000D02*
X19162000D01*
G01Y14598000D02*
X18654000D01*
G01Y15106000D02*
X19162000D01*
G01X18654000Y14852000D02*
X19162000D01*
G01X18654000Y15360000D02*
X19162000D01*
G01X18654000Y15868000D02*
X19162000D01*
G01X18400000Y16630000D02*
X18526400Y16756400D01*
X18593600D01*
G01X18703600D02*
X19083600D01*
G01X19230000D02*
X19749860D01*
X19753460Y16760000D01*
G01X18654000Y16630000D02*
X19162000D01*
G01X19037390Y16376000D02*
X19162000D01*
G01X19037390Y16122000D02*
X19162000D01*
G01X18654000Y16251390D02*
Y16376000D01*
G01D02*
X18778610D01*
G01X18654000Y16122000D02*
Y16246610D01*
G01Y16122000D02*
X18778610D01*
G01X18654000Y17138000D02*
X19162000D01*
G01X18654000Y18154000D02*
X19006000D01*
X19340000Y17820000D01*
Y17320000D01*
X19570000Y17090000D01*
X22570000D01*
G01X19763460Y17210000D02*
X19625600D01*
X19410000Y17425600D01*
Y18100000D01*
X18975600Y18534400D01*
X18734400D01*
G01X18527600D02*
X18400000Y18662000D01*
G01X19763460Y17420000D02*
X19570000D01*
X19480000Y17510000D01*
Y18130000D01*
X18948000Y18662000D01*
X18654000D01*
G01X19758000Y12497000D02*
Y12621610D01*
G01X19633390Y12497000D02*
X19758000D01*
G01D02*
X19882610D01*
G01X19162000Y14090000D02*
X19753460D01*
G01Y14300000D02*
X19400000D01*
X19356000Y14344000D01*
X19162000D01*
G01X19753460Y14720000D02*
X19500000D01*
X19378000Y14598000D01*
X19162000D01*
G01X19753460Y15140000D02*
X19450000D01*
X19416000Y15106000D01*
X19162000D01*
G01X19753460Y14930000D02*
X19450000D01*
X19372000Y14852000D01*
X19162000D01*
G01Y15360000D02*
X19743460D01*
X19753460Y15350000D01*
G01X19162000Y16251390D02*
Y16376000D01*
G01D02*
X19286610D01*
G01X19162000Y16122000D02*
Y16246610D01*
G01Y16122000D02*
X19286610D01*
G01X19560000Y16970000D02*
X23172970D01*
G01X20520000Y12497000D02*
Y12621610D01*
G01X20395390Y12497000D02*
X20520000D01*
G01D02*
X20644610D01*
G01X20266000D02*
Y12621610D01*
G01X20141390Y12497000D02*
X20266000D01*
G01D02*
X20390610D01*
G01X20012000D02*
Y12621610D01*
G01X19887390Y12497000D02*
X20012000D01*
G01D02*
X20136610D01*
G01X21660000Y14300000D02*
X19867030D01*
G01X21910000Y14093600D02*
X19965330D01*
X19961730Y14090000D01*
X19867030D01*
G01Y14930000D02*
X21560000D01*
G01X20640000Y14720000D02*
X19867030D01*
G01X21280000Y15140000D02*
X19867030D01*
G01X22710000Y14540000D02*
X19991730D01*
X19961730Y14510000D01*
X19867030D01*
G01X23020000Y15820000D02*
X20140000D01*
G01X19867030Y15350000D02*
X21410000D01*
G01X19890000Y16050000D02*
X23172970D01*
G01X20390000Y16510000D02*
X23172970D01*
G01X22900000Y16760000D02*
X19867030D01*
G01X19877030Y17420000D02*
X20130000D01*
X20230000Y17320000D01*
X22420000D01*
G01X22180000Y17210000D02*
X19877030D01*
G01X21028000Y12497000D02*
Y12621610D01*
G01X20903390Y12497000D02*
X21028000D01*
G01X20774000D02*
Y12621610D01*
G01X20649390Y12497000D02*
X20774000D01*
G01D02*
X20898610D01*
G01X20910000Y14440000D02*
X23172970D01*
G01Y16280000D02*
X21150000D01*
G01X21560000Y14930000D02*
X22380000D01*
X22810000Y15360000D01*
X23172970D01*
G01X21828000Y17435390D02*
Y17560000D01*
G01X22750000Y17630000D02*
X22689240D01*
X22619240Y17700000D01*
X21714000D01*
X21574000Y17560000D01*
G01X21828000D02*
X21952610D01*
G01X22750000Y15130000D02*
X23172970D01*
G01X22520000Y17382690D02*
Y17520000D01*
G01X22382690D02*
X22520000D01*
G01D02*
X22657310D01*
G01X23172970Y17660000D02*
X22900760D01*
X22870760Y17630000D01*
X22750000D01*
G01X23988000Y14598000D02*
X23678000D01*
X23520000Y14440000D01*
X23286540D01*
G01X23988000Y14852000D02*
X23672000D01*
X23490000Y14670000D01*
X23286540D01*
G01X23172970Y14900000D02*
Y15130000D01*
G01X23988000Y15106000D02*
X23636000D01*
X23430000Y14900000D01*
X23286540D01*
G01X24750000Y15106000D02*
X24622400Y15233600D01*
X24563600D01*
G01X24416400D02*
X24060000D01*
G01X23906400D02*
X23503600D01*
X23400000Y15130000D01*
X23286540D01*
G01X23172970Y14555000D02*
Y14670000D01*
G01X23286540Y15590000D02*
X23849900D01*
X23873900Y15614000D01*
X23988000D01*
G01X23286540Y15360000D02*
X23988000D01*
G01X23172970Y15820000D02*
X23020000D01*
G01X23172970Y15590000D02*
Y15480000D01*
G01X24750000Y15614000D02*
X24622400Y15741600D01*
G01X24420000Y15740400D02*
X24049600D01*
G01X23910000Y15740000D02*
X23490000D01*
X23410000Y15820000D01*
X23286540D01*
G01X23988000Y17036000D02*
X23796000D01*
X23500000Y16740000D01*
X23286540D01*
G01X23988000Y16274000D02*
X23786000D01*
X23550000Y16510000D01*
X23286540D01*
G01X24750000Y15868000D02*
X24622400Y15995600D01*
G01X24415600D02*
X24284400D01*
X24220000Y16060000D01*
X23830000D01*
X23610000Y16280000D01*
X23286540D01*
G01X23988000Y15868000D02*
X23812000D01*
X23630000Y16050000D01*
X23286540D01*
G01X23020000Y16740000D02*
X23172970D01*
G01X23988000Y17290000D02*
X23720000D01*
X23400000Y16970000D01*
X23286540D01*
G01X24750000Y17138000D02*
X24622400Y17265600D01*
G01X24425600D02*
X24314400D01*
X24162400Y17417600D01*
X24042400D01*
G01X23897600D02*
X23885200Y17430000D01*
X23286540D01*
G01Y17200000D02*
X23450000D01*
G01X23172970Y17430000D02*
Y17200000D01*
G01Y16970000D02*
Y17200000D01*
G01X23988000Y17544000D02*
X23736000D01*
X23620000Y17660000D01*
X23286540D01*
G01X24496000Y14090000D02*
X23988000D01*
G01Y14344000D02*
X24496000D01*
G01Y14598000D02*
X23988000D01*
G01X24496000Y14852000D02*
X23988000D01*
G01X24496000Y15106000D02*
X23988000D01*
G01Y15868000D02*
X24496000D01*
G01X23988000Y15614000D02*
X24496000D01*
G01X23988000Y15360000D02*
X24496000D01*
G01Y16122000D02*
X24328000D01*
X24176000Y16274000D01*
X23988000D01*
G01X24496000Y16630000D02*
X24290000D01*
X24138000Y16782000D01*
X23988000D01*
G01X24496000Y16376000D02*
X24274000D01*
X24122000Y16528000D01*
X23988000D01*
G01X24496000Y17392000D02*
X24308000D01*
X24156000Y17544000D01*
X23988000D01*
G01X24496000Y17138000D02*
X24282000D01*
X24130000Y17290000D01*
X23988000D01*
G01X24496000Y16884000D02*
X24266000D01*
X24114000Y17036000D01*
X23988000D01*
G01X24496000Y17900000D02*
X24300000D01*
X24148000Y18052000D01*
X23988000D01*
G01X24496000Y17646000D02*
X24284000D01*
X24132000Y17798000D01*
X23988000D01*
G01X24496000Y18154000D02*
X24290000D01*
X24138000Y18306000D01*
X23988000D01*
G01X24496000Y18408000D02*
X24282000D01*
X24130000Y18560000D01*
X23988000D01*
G01X24640000Y12039510D02*
Y12118880D01*
G01X24553010D02*
X24640000D01*
G01D02*
X24726990D01*
G01X24750000Y16122000D02*
X24890000Y15982000D01*
Y13860000D01*
X24640000Y13610000D01*
Y12810000D01*
G01Y12650000D02*
Y12261120D01*
G54D12*
X18626540Y13720000D03*
X23286540Y14440000D03*
Y14900000D03*
Y15130000D03*
Y14670000D03*
Y16050000D03*
Y15360000D03*
Y15820000D03*
Y15590000D03*
Y16510000D03*
Y16280000D03*
Y16740000D03*
Y16970000D03*
Y17200000D03*
Y17430000D03*
Y17660000D03*
G54D22*
G01X18527600Y14471600D02*
X18528800Y14470400D01*
X18760400D01*
G01X19090400D02*
X19239600D01*
X19240000Y14470000D01*
G01X18593600Y16756400D02*
X18703600D01*
G01X19083600D02*
X19230000D01*
G01X18734400Y18534400D02*
X18527600D01*
G01X24563600Y15233600D02*
X24416400D01*
G01X24060000D02*
X23906400D01*
G01X24622400Y15741600D02*
X24621200Y15740400D01*
X24420000D01*
G01X24049600D02*
X23910400D01*
X23910000Y15740000D01*
G01X24622400Y15995600D02*
X24415600D01*
G01X24622400Y17265600D02*
X24425600D01*
G01X24042400Y17417600D02*
X23897600D01*
G54D13*
X18654000Y14090000D03*
X18400000D03*
X18654000Y14344000D03*
X18400000D03*
X18654000Y14598000D03*
Y14852000D03*
Y15106000D03*
X18400000Y14598000D03*
Y14852000D03*
Y15106000D03*
X18654000Y15360000D03*
Y15614000D03*
Y15868000D03*
X18400000Y15360000D03*
Y15614000D03*
Y15868000D03*
X18654000Y16122000D03*
Y16376000D03*
Y16630000D03*
X18400000Y16122000D03*
Y16376000D03*
Y16630000D03*
X18654000Y16884000D03*
X18400000D03*
X18654000Y17392000D03*
Y17138000D03*
X18400000D03*
Y17392000D03*
Y18154000D03*
X18654000D03*
X18400000Y17900000D03*
X18654000D03*
X18400000Y17646000D03*
X18654000D03*
Y18662000D03*
X18400000Y18408000D03*
X18654000D03*
X19758000Y12497000D03*
X19162000Y14090000D03*
Y14344000D03*
Y14598000D03*
Y14852000D03*
Y15106000D03*
Y15868000D03*
Y16122000D03*
Y16376000D03*
Y16630000D03*
Y16884000D03*
Y17138000D03*
Y17392000D03*
X20012000Y12243000D03*
X20266000D03*
X20520000D03*
X20012000Y12497000D03*
X20266000D03*
X20520000D03*
X20774000Y12243000D03*
X21028000D03*
X21282000D03*
X21028000Y12497000D03*
X21282000D03*
X21536000Y12243000D03*
X21790000D03*
X22044000D03*
X21536000Y12497000D03*
X21790000D03*
X21828000Y17560000D03*
X21574000D03*
X22806000Y12243000D03*
X22552000D03*
X22298000D03*
X22806000Y12497000D03*
X22552000D03*
X22298000D03*
X23568000Y12243000D03*
X23314000D03*
X23060000D03*
X23568000Y12497000D03*
X23060000D03*
X23822000Y12243000D03*
Y12497000D03*
X23988000Y14344000D03*
Y15106000D03*
Y14852000D03*
Y14598000D03*
Y15868000D03*
Y15614000D03*
Y15360000D03*
Y16782000D03*
Y16528000D03*
Y17544000D03*
Y17290000D03*
Y17036000D03*
Y18306000D03*
Y18052000D03*
Y17798000D03*
Y18560000D03*
X24750000Y14090000D03*
X24496000D03*
X24750000Y14344000D03*
X24496000D03*
X24750000Y14598000D03*
Y14852000D03*
Y15106000D03*
X24496000Y14598000D03*
Y14852000D03*
Y15106000D03*
X24750000Y15360000D03*
Y15614000D03*
Y15868000D03*
X24496000Y15360000D03*
Y15614000D03*
Y15868000D03*
X24750000Y16122000D03*
Y16376000D03*
Y16630000D03*
X24496000Y16122000D03*
Y16376000D03*
Y16630000D03*
X24750000Y16884000D03*
X24496000D03*
X24750000Y17392000D03*
Y17138000D03*
X24496000D03*
Y17392000D03*
Y18154000D03*
X24750000D03*
X24496000Y17900000D03*
X24750000D03*
X24496000Y17646000D03*
X24750000D03*
Y18662000D03*
X24496000Y18408000D03*
X24750000D03*
G54D23*
G01X18654000Y17392000D02*
X19162000D01*
G01X18654000Y16884000D02*
X19162000D01*
G54D14*
X18400000Y18662000D03*
X19758000Y12243000D03*
X19162000Y15360000D03*
Y17646000D03*
X20774000Y12497000D03*
X21320000Y17560000D03*
X22044000Y12497000D03*
X23314000D03*
X23988000Y14090000D03*
Y16274000D03*
X24496000Y18662000D03*
G54D15*
X19867030Y14300000D03*
Y14090000D03*
Y14510000D03*
Y15140000D03*
Y14930000D03*
Y14720000D03*
Y15350000D03*
Y16760000D03*
X19877030Y17420000D03*
Y17210000D03*
G54D16*
X19753460Y14300000D03*
Y14090000D03*
Y14510000D03*
Y15140000D03*
Y14930000D03*
Y14720000D03*
Y15350000D03*
Y16760000D03*
X19763460Y17420000D03*
Y17210000D03*
G54D17*
X19560000Y16970000D03*
X19890000Y16050000D03*
X20140000Y15820000D03*
X20390000Y16510000D03*
X20910000Y14440000D03*
X20640000Y14720000D03*
X21280000Y15140000D03*
X21150000Y16280000D03*
X21660000Y14300000D03*
X21910000Y14093600D03*
X21560000Y14930000D03*
X21410000Y15350000D03*
X22750000Y15130000D03*
X22710000Y14540000D03*
X22900000Y16760000D03*
X22570000Y17090000D03*
X22420000Y17320000D03*
X22180000Y17210000D03*
X22750000Y17630000D03*
X23172970Y14555000D03*
X23020000Y15820000D03*
X23172970Y15480000D03*
X23020000Y16740000D03*
X23450000Y17200000D03*
G54D18*
X22520000Y17520000D03*
G54D19*
X24640000Y12118880D03*
Y12261120D03*
M02*
