G04 ================== begin FILE IDENTIFICATION RECORD ==================*
G04 Layout Name:  X-NUCLEO-IHM09M1_SHIELD MC Connector.brd*
G04 Film Name:    X-NUCLEO-IHM09M1-solder-mask-bottom*
G04 File Format:  Gerber RS274X*
G04 File Origin:  Cadence Allegro 16.6-S023*
G04 Origin Date:  Thu Apr 02 11:20:12 2015*
G04 *
G04 Layer:  PACKAGE GEOMETRY/SOLDERMASK_BOTTOM*
G04 Layer:  PIN/SOLDERMASK_BOTTOM*
G04 *
G04 Offset:    (0.0000 0.0000)*
G04 Mirror:    No*
G04 Mode:      Positive*
G04 Rotation:  0*
G04 FullContactRelief:  No*
G04 UndefLineWidth:     0.0000*
G04 ================== end FILE IDENTIFICATION RECORD ====================*
%FSLAX35Y35*MOMM*%
%IR0*IPPOS*OFA0.00000B0.00000*MIA0B0*SFA1.00000B1.00000*%
%ADD11C,1.905*%
%ADD13C,2.159*%
%ADD12R,1.905X1.905*%
%ADD10C,1.778*%
%ADD14C,.1801*%
G75*
%LPD*%
G75*
G54D10*
X18371000Y12102000D03*
X18879000D03*
X18625000Y13118000D03*
G54D11*
X18654000Y14090000D03*
X18400000D03*
X18654000Y14344000D03*
X18400000D03*
X18654000Y14598000D03*
Y14852000D03*
Y15106000D03*
X18400000Y14598000D03*
Y14852000D03*
Y15106000D03*
X18654000Y15360000D03*
Y15614000D03*
Y15868000D03*
X18400000Y15360000D03*
Y15614000D03*
Y15868000D03*
X18654000Y16122000D03*
Y16376000D03*
Y16630000D03*
X18400000Y16122000D03*
Y16376000D03*
Y16630000D03*
X18654000Y16884000D03*
X18400000D03*
X18654000Y17392000D03*
Y17138000D03*
X18400000D03*
Y17392000D03*
Y18154000D03*
X18654000D03*
X18400000Y17900000D03*
X18654000D03*
X18400000Y17646000D03*
X18654000D03*
Y18662000D03*
X18400000Y18408000D03*
X18654000D03*
X19758000Y12497000D03*
X19162000Y14090000D03*
Y14344000D03*
Y14598000D03*
Y14852000D03*
Y15106000D03*
Y15868000D03*
Y16122000D03*
Y16376000D03*
Y16630000D03*
Y16884000D03*
Y17138000D03*
Y17392000D03*
X20012000Y12243000D03*
X20266000D03*
X20520000D03*
X20012000Y12497000D03*
X20266000D03*
X20520000D03*
X20774000Y12243000D03*
X21028000D03*
X21282000D03*
X21028000Y12497000D03*
X21282000D03*
X21536000Y12243000D03*
X21790000D03*
X22044000D03*
X21536000Y12497000D03*
X21790000D03*
X21828000Y17560000D03*
X21574000D03*
X22806000Y12243000D03*
X22552000D03*
X22298000D03*
X22806000Y12497000D03*
X22552000D03*
X22298000D03*
X23568000Y12243000D03*
X23314000D03*
X23060000D03*
X23568000Y12497000D03*
X23060000D03*
X23822000Y12243000D03*
Y12497000D03*
X23988000Y14344000D03*
Y15106000D03*
Y14852000D03*
Y14598000D03*
Y15868000D03*
Y15614000D03*
Y15360000D03*
Y16782000D03*
Y16528000D03*
Y17544000D03*
Y17290000D03*
Y17036000D03*
Y18306000D03*
Y18052000D03*
Y17798000D03*
Y18560000D03*
X24750000Y14090000D03*
X24496000D03*
X24750000Y14344000D03*
X24496000D03*
X24750000Y14598000D03*
Y14852000D03*
Y15106000D03*
X24496000Y14598000D03*
Y14852000D03*
Y15106000D03*
X24750000Y15360000D03*
Y15614000D03*
Y15868000D03*
X24496000Y15360000D03*
Y15614000D03*
Y15868000D03*
X24750000Y16122000D03*
Y16376000D03*
Y16630000D03*
X24496000Y16122000D03*
Y16376000D03*
Y16630000D03*
X24750000Y16884000D03*
X24496000D03*
X24750000Y17392000D03*
Y17138000D03*
X24496000D03*
Y17392000D03*
Y18154000D03*
X24750000D03*
X24496000Y17900000D03*
X24750000D03*
X24496000Y17646000D03*
X24750000D03*
Y18662000D03*
X24496000Y18408000D03*
X24750000D03*
G54D12*
X18400000Y18662000D03*
X19758000Y12243000D03*
X19162000Y15360000D03*
Y17646000D03*
X20774000Y12497000D03*
X21320000Y17560000D03*
X22044000Y12497000D03*
X23314000D03*
X23988000Y14090000D03*
Y16274000D03*
X24496000Y18662000D03*
G54D13*
X22520000Y17520000D03*
G54D14*
G01X18840980Y18647350D02*
X18834630Y18657000D01*
X18830400Y18668260D01*
Y18681130D01*
X18836750Y18695610D01*
X18847330Y18706870D01*
X18860030Y18714910D01*
X18881200Y18721350D01*
X18900250Y18722960D01*
X18919300Y18719740D01*
X18932000Y18714910D01*
X18944700Y18705260D01*
X18953170Y18694000D01*
X18957400Y18682740D01*
Y18671480D01*
X18953170Y18660220D01*
X18946820Y18650570D01*
X18938350Y18642520D01*
G01X18957400Y18590200D02*
X18830400D01*
X18957400Y18516200D01*
X18830400D01*
G01X18957400Y18426880D02*
X18929890Y18423660D01*
X18906600Y18418830D01*
X18885430Y18412400D01*
X18862150Y18404360D01*
X18830400Y18391490D01*
Y18455830D01*
G01X24214980Y16177350D02*
X24208630Y16187000D01*
X24204400Y16198260D01*
Y16211130D01*
X24210750Y16225610D01*
X24221330Y16236870D01*
X24234030Y16244910D01*
X24255200Y16251350D01*
X24274250Y16252960D01*
X24293300Y16249740D01*
X24306000Y16244910D01*
X24318700Y16235260D01*
X24327170Y16224000D01*
X24331400Y16212740D01*
Y16201480D01*
X24327170Y16190220D01*
X24320820Y16180570D01*
X24312350Y16172520D01*
G01X24331400Y16120200D02*
X24204400D01*
X24331400Y16046200D01*
X24204400D01*
G01X24331400Y15953660D02*
X24204400D01*
X24229800Y15972960D01*
G01X24331400D02*
Y15934360D01*
G01X24204400Y15824120D02*
X24208630Y15836990D01*
X24219220Y15846640D01*
X24231910Y15853080D01*
X24248850Y15857900D01*
X24267900Y15859510D01*
X24286950Y15857900D01*
X24303890Y15853080D01*
X24316590Y15846640D01*
X24327170Y15836990D01*
X24331400Y15824120D01*
X24327170Y15811250D01*
X24316590Y15801600D01*
X24303890Y15795160D01*
X24286950Y15790340D01*
X24267900Y15788730D01*
X24248850Y15790340D01*
X24231910Y15795160D01*
X24219220Y15801600D01*
X24208630Y15811250D01*
X24204400Y15824120D01*
M02*
