G04 ================== begin FILE IDENTIFICATION RECORD ==================*
G04 Layout Name:  X-NUCLEO-IHM09M1_SHIELD MC Connector.brd*
G04 Film Name:    X-NUCLEO-IHM09M1-drill-chart*
G04 File Format:  Gerber RS274X*
G04 File Origin:  Cadence Allegro 16.6-S023*
G04 Origin Date:  Thu Apr 02 11:20:12 2015*
G04 *
G04 Layer:  MANUFACTURING/NCLEGEND-1-2*
G04 Layer:  BOARD GEOMETRY/OUTLINE*
G04 *
G04 Offset:    (0.0000 0.0000)*
G04 Mirror:    No*
G04 Mode:      Positive*
G04 Rotation:  0*
G04 FullContactRelief:  No*
G04 UndefLineWidth:     0.0201*
G04 ================== end FILE IDENTIFICATION RECORD ====================*
%FSLAX35Y35*MOMM*%
%IR0*IPPOS*OFA0.00000B0.00000*MIA0B0*SFA1.00000B1.00000*%
%AMMACRO10*
1,1,.0201,.762,0.0*
20,1,.0201,.762,0.0,-.762,0.0,0.0*
1,1,.0201,-.762,0.0*
1,1,.0201,0.0,.762*
20,1,.0201,0.0,.762,0.0,-.762,0.0*
1,1,.0201,0.0,-.762*
%
%ADD10MACRO10*%
%AMMACRO12*
1,1,.0201,.635,0.0*
20,1,.0201,.635,0.0,.625353,-.110267,0.0*
1,1,.0201,.625353,-.110267*
20,1,.0201,.625353,-.110267,.596705,-.217183,0.0*
1,1,.0201,.596705,-.217183*
20,1,.0201,.596705,-.217183,.549926,-.3175,0.0*
1,1,.0201,.549926,-.3175*
20,1,.0201,.549926,-.3175,.486438,-.40817,0.0*
1,1,.0201,.486438,-.40817*
20,1,.0201,.486438,-.40817,.40817,-.486438,0.0*
1,1,.0201,.40817,-.486438*
20,1,.0201,.40817,-.486438,.3175,-.549926,0.0*
1,1,.0201,.3175,-.549926*
20,1,.0201,.3175,-.549926,.217183,-.596705,0.0*
1,1,.0201,.217183,-.596705*
20,1,.0201,.217183,-.596705,.110267,-.625353,0.0*
1,1,.0201,.110267,-.625353*
20,1,.0201,.110267,-.625353,0.0,-.635,0.0*
1,1,.0201,0.0,-.635*
20,1,.0201,0.0,-.635,-.110267,-.625353,0.0*
1,1,.0201,-.110267,-.625353*
20,1,.0201,-.110267,-.625353,-.217183,-.596705,0.0*
1,1,.0201,-.217183,-.596705*
20,1,.0201,-.217183,-.596705,-.3175,-.549926,0.0*
1,1,.0201,-.3175,-.549926*
20,1,.0201,-.3175,-.549926,-.40817,-.486438,0.0*
1,1,.0201,-.40817,-.486438*
20,1,.0201,-.40817,-.486438,-.486438,-.40817,0.0*
1,1,.0201,-.486438,-.40817*
20,1,.0201,-.486438,-.40817,-.549926,-.3175,0.0*
1,1,.0201,-.549926,-.3175*
20,1,.0201,-.549926,-.3175,-.596705,-.217183,0.0*
1,1,.0201,-.596705,-.217183*
20,1,.0201,-.596705,-.217183,-.625353,-.110267,0.0*
1,1,.0201,-.625353,-.110267*
20,1,.0201,-.625353,-.110267,-.635,0.0,0.0*
1,1,.0201,-.635,0.0*
20,1,.0201,-.635,0.0,-.625353,.110267,0.0*
1,1,.0201,-.625353,.110267*
20,1,.0201,-.625353,.110267,-.596705,.217183,0.0*
1,1,.0201,-.596705,.217183*
20,1,.0201,-.596705,.217183,-.549926,.3175,0.0*
1,1,.0201,-.549926,.3175*
20,1,.0201,-.549926,.3175,-.486438,.40817,0.0*
1,1,.0201,-.486438,.40817*
20,1,.0201,-.486438,.40817,-.40817,.486438,0.0*
1,1,.0201,-.40817,.486438*
20,1,.0201,-.40817,.486438,-.3175,.549926,0.0*
1,1,.0201,-.3175,.549926*
20,1,.0201,-.3175,.549926,-.217183,.596705,0.0*
1,1,.0201,-.217183,.596705*
20,1,.0201,-.217183,.596705,-.110267,.625353,0.0*
1,1,.0201,-.110267,.625353*
20,1,.0201,-.110267,.625353,0.0,.635,0.0*
1,1,.0201,0.0,.635*
20,1,.0201,0.0,.635,.110267,.625353,0.0*
1,1,.0201,.110267,.625353*
20,1,.0201,.110267,.625353,.217183,.596705,0.0*
1,1,.0201,.217183,.596705*
20,1,.0201,.217183,.596705,.3175,.549926,0.0*
1,1,.0201,.3175,.549926*
20,1,.0201,.3175,.549926,.40817,.486438,0.0*
1,1,.0201,.40817,.486438*
20,1,.0201,.40817,.486438,.486438,.40817,0.0*
1,1,.0201,.486438,.40817*
20,1,.0201,.486438,.40817,.549926,.3175,0.0*
1,1,.0201,.549926,.3175*
20,1,.0201,.549926,.3175,.596705,.217183,0.0*
1,1,.0201,.596705,.217183*
20,1,.0201,.596705,.217183,.625353,.110267,0.0*
1,1,.0201,.625353,.110267*
20,1,.0201,.625353,.110267,.635,0.0,0.0*
1,1,.0201,.635,0.0*
1,1,.0201,.3175,0.0*
20,1,.0201,.3175,0.0,-.3175,0.0,0.0*
1,1,.0201,-.3175,0.0*
1,1,.0201,0.0,.3175*
20,1,.0201,0.0,.3175,0.0,-.3175,0.0*
1,1,.0201,0.0,-.3175*
%
%ADD12MACRO12*%
%AMMACRO13*
1,1,.0201,.762,0.0*
20,1,.0201,.762,0.0,.750424,-.13232,0.0*
1,1,.0201,.750424,-.13232*
20,1,.0201,.750424,-.13232,.716046,-.260619,0.0*
1,1,.0201,.716046,-.260619*
20,1,.0201,.716046,-.260619,.659911,-.381,0.0*
1,1,.0201,.659911,-.381*
20,1,.0201,.659911,-.381,.583726,-.489804,0.0*
1,1,.0201,.583726,-.489804*
20,1,.0201,.583726,-.489804,.489804,-.583726,0.0*
1,1,.0201,.489804,-.583726*
20,1,.0201,.489804,-.583726,.381,-.659911,0.0*
1,1,.0201,.381,-.659911*
20,1,.0201,.381,-.659911,.260619,-.716046,0.0*
1,1,.0201,.260619,-.716046*
20,1,.0201,.260619,-.716046,.13232,-.750424,0.0*
1,1,.0201,.13232,-.750424*
20,1,.0201,.13232,-.750424,0.0,-.762,0.0*
1,1,.0201,0.0,-.762*
20,1,.0201,0.0,-.762,-.13232,-.750424,0.0*
1,1,.0201,-.13232,-.750424*
20,1,.0201,-.13232,-.750424,-.260619,-.716046,0.0*
1,1,.0201,-.260619,-.716046*
20,1,.0201,-.260619,-.716046,-.381,-.659911,0.0*
1,1,.0201,-.381,-.659911*
20,1,.0201,-.381,-.659911,-.489804,-.583726,0.0*
1,1,.0201,-.489804,-.583726*
20,1,.0201,-.489804,-.583726,-.583726,-.489804,0.0*
1,1,.0201,-.583726,-.489804*
20,1,.0201,-.583726,-.489804,-.659911,-.381,0.0*
1,1,.0201,-.659911,-.381*
20,1,.0201,-.659911,-.381,-.716046,-.260619,0.0*
1,1,.0201,-.716046,-.260619*
20,1,.0201,-.716046,-.260619,-.750424,-.13232,0.0*
1,1,.0201,-.750424,-.13232*
20,1,.0201,-.750424,-.13232,-.762,0.0,0.0*
1,1,.0201,-.762,0.0*
20,1,.0201,-.762,0.0,-.750424,.13232,0.0*
1,1,.0201,-.750424,.13232*
20,1,.0201,-.750424,.13232,-.716046,.260619,0.0*
1,1,.0201,-.716046,.260619*
20,1,.0201,-.716046,.260619,-.659911,.381,0.0*
1,1,.0201,-.659911,.381*
20,1,.0201,-.659911,.381,-.583726,.489804,0.0*
1,1,.0201,-.583726,.489804*
20,1,.0201,-.583726,.489804,-.489804,.583726,0.0*
1,1,.0201,-.489804,.583726*
20,1,.0201,-.489804,.583726,-.381,.659911,0.0*
1,1,.0201,-.381,.659911*
20,1,.0201,-.381,.659911,-.260619,.716046,0.0*
1,1,.0201,-.260619,.716046*
20,1,.0201,-.260619,.716046,-.13232,.750424,0.0*
1,1,.0201,-.13232,.750424*
20,1,.0201,-.13232,.750424,0.0,.762,0.0*
1,1,.0201,0.0,.762*
20,1,.0201,0.0,.762,.13232,.750424,0.0*
1,1,.0201,.13232,.750424*
20,1,.0201,.13232,.750424,.260619,.716046,0.0*
1,1,.0201,.260619,.716046*
20,1,.0201,.260619,.716046,.381,.659911,0.0*
1,1,.0201,.381,.659911*
20,1,.0201,.381,.659911,.489804,.583726,0.0*
1,1,.0201,.489804,.583726*
20,1,.0201,.489804,.583726,.583726,.489804,0.0*
1,1,.0201,.583726,.489804*
20,1,.0201,.583726,.489804,.659911,.381,0.0*
1,1,.0201,.659911,.381*
20,1,.0201,.659911,.381,.716046,.260619,0.0*
1,1,.0201,.716046,.260619*
20,1,.0201,.716046,.260619,.750424,.13232,0.0*
1,1,.0201,.750424,.13232*
20,1,.0201,.750424,.13232,.762,0.0,0.0*
1,1,.0201,.762,0.0*
1,1,.0201,-.3175,-.381*
20,1,.0201,-.3175,-.381,0.0,.381,0.0*
1,1,.0201,0.0,.381*
20,1,.0201,0.0,.381,.3175,-.381,0.0*
1,1,.0201,.3175,-.381*
1,1,.0201,.2032,-.1143*
20,1,.0201,.2032,-.1143,-.2032,-.1143,0.0*
1,1,.0201,-.2032,-.1143*
%
%ADD13MACRO13*%
%AMMACRO11*
1,1,.0201,.635,0.0*
20,1,.0201,.635,0.0,.625353,-.110267,0.0*
1,1,.0201,.625353,-.110267*
20,1,.0201,.625353,-.110267,.596705,-.217183,0.0*
1,1,.0201,.596705,-.217183*
20,1,.0201,.596705,-.217183,.549926,-.3175,0.0*
1,1,.0201,.549926,-.3175*
20,1,.0201,.549926,-.3175,.486438,-.40817,0.0*
1,1,.0201,.486438,-.40817*
20,1,.0201,.486438,-.40817,.40817,-.486438,0.0*
1,1,.0201,.40817,-.486438*
20,1,.0201,.40817,-.486438,.3175,-.549926,0.0*
1,1,.0201,.3175,-.549926*
20,1,.0201,.3175,-.549926,.217183,-.596705,0.0*
1,1,.0201,.217183,-.596705*
20,1,.0201,.217183,-.596705,.110267,-.625353,0.0*
1,1,.0201,.110267,-.625353*
20,1,.0201,.110267,-.625353,0.0,-.635,0.0*
1,1,.0201,0.0,-.635*
20,1,.0201,0.0,-.635,-.110267,-.625353,0.0*
1,1,.0201,-.110267,-.625353*
20,1,.0201,-.110267,-.625353,-.217183,-.596705,0.0*
1,1,.0201,-.217183,-.596705*
20,1,.0201,-.217183,-.596705,-.3175,-.549926,0.0*
1,1,.0201,-.3175,-.549926*
20,1,.0201,-.3175,-.549926,-.40817,-.486438,0.0*
1,1,.0201,-.40817,-.486438*
20,1,.0201,-.40817,-.486438,-.486438,-.40817,0.0*
1,1,.0201,-.486438,-.40817*
20,1,.0201,-.486438,-.40817,-.549926,-.3175,0.0*
1,1,.0201,-.549926,-.3175*
20,1,.0201,-.549926,-.3175,-.596705,-.217183,0.0*
1,1,.0201,-.596705,-.217183*
20,1,.0201,-.596705,-.217183,-.625353,-.110267,0.0*
1,1,.0201,-.625353,-.110267*
20,1,.0201,-.625353,-.110267,-.635,0.0,0.0*
1,1,.0201,-.635,0.0*
20,1,.0201,-.635,0.0,-.625353,.110267,0.0*
1,1,.0201,-.625353,.110267*
20,1,.0201,-.625353,.110267,-.596705,.217183,0.0*
1,1,.0201,-.596705,.217183*
20,1,.0201,-.596705,.217183,-.549926,.3175,0.0*
1,1,.0201,-.549926,.3175*
20,1,.0201,-.549926,.3175,-.486438,.40817,0.0*
1,1,.0201,-.486438,.40817*
20,1,.0201,-.486438,.40817,-.40817,.486438,0.0*
1,1,.0201,-.40817,.486438*
20,1,.0201,-.40817,.486438,-.3175,.549926,0.0*
1,1,.0201,-.3175,.549926*
20,1,.0201,-.3175,.549926,-.217183,.596705,0.0*
1,1,.0201,-.217183,.596705*
20,1,.0201,-.217183,.596705,-.110267,.625353,0.0*
1,1,.0201,-.110267,.625353*
20,1,.0201,-.110267,.625353,0.0,.635,0.0*
1,1,.0201,0.0,.635*
20,1,.0201,0.0,.635,.110267,.625353,0.0*
1,1,.0201,.110267,.625353*
20,1,.0201,.110267,.625353,.217183,.596705,0.0*
1,1,.0201,.217183,.596705*
20,1,.0201,.217183,.596705,.3175,.549926,0.0*
1,1,.0201,.3175,.549926*
20,1,.0201,.3175,.549926,.40817,.486438,0.0*
1,1,.0201,.40817,.486438*
20,1,.0201,.40817,.486438,.486438,.40817,0.0*
1,1,.0201,.486438,.40817*
20,1,.0201,.486438,.40817,.549926,.3175,0.0*
1,1,.0201,.549926,.3175*
20,1,.0201,.549926,.3175,.596705,.217183,0.0*
1,1,.0201,.596705,.217183*
20,1,.0201,.596705,.217183,.625353,.110267,0.0*
1,1,.0201,.625353,.110267*
20,1,.0201,.625353,.110267,.635,0.0,0.0*
1,1,.0201,.635,0.0*
1,1,.0201,.1905,-.3175*
20,1,.0201,.1905,-.3175,.1905,.1058,0.0*
1,1,.0201,.1905,.1058*
1,1,.0201,.1905,.0318*
20,1,.0201,.1905,.0318,.1482,.0741,0.0*
1,1,.0201,.1482,.0741*
20,1,.0201,.1482,.0741,.0847,.0952,0.0*
1,1,.0201,.0847,.0952*
20,1,.0201,.0847,.0952,.0106,.1058,0.0*
1,1,.0201,.0106,.1058*
20,1,.0201,.0106,.1058,-.0635,.0847,0.0*
1,1,.0201,-.0635,.0847*
20,1,.0201,-.0635,.0847,-.127,.0423,0.0*
1,1,.0201,-.127,.0423*
20,1,.0201,-.127,.0423,-.1693,-.0212,0.0*
1,1,.0201,-.1693,-.0212*
20,1,.0201,-.1693,-.0212,-.1905,-.1058,0.0*
1,1,.0201,-.1905,-.1058*
20,1,.0201,-.1905,-.1058,-.1693,-.1905,0.0*
1,1,.0201,-.1693,-.1905*
20,1,.0201,-.1693,-.1905,-.127,-.254,0.0*
1,1,.0201,-.127,-.254*
20,1,.0201,-.127,-.254,-.0635,-.2963,0.0*
1,1,.0201,-.0635,-.2963*
20,1,.0201,-.0635,-.2963,.0106,-.3175,0.0*
1,1,.0201,.0106,-.3175*
20,1,.0201,.0106,-.3175,.0847,-.3069,0.0*
1,1,.0201,.0847,-.3069*
20,1,.0201,.0847,-.3069,.1482,-.2752,0.0*
1,1,.0201,.1482,-.2752*
20,1,.0201,.1482,-.2752,.1905,-.2329,0.0*
1,1,.0201,.1905,-.2329*
%
%ADD11MACRO11*%
%ADD14C,.0201*%
G75*
%LPD*%
G75*
G54D10*
X18371000Y12102000D03*
X18879000D03*
X18625000Y13118000D03*
X27011730Y13771910D03*
G54D11*
X18654000Y14090000D03*
X18400000D03*
X18654000Y14344000D03*
X18400000D03*
X18654000Y14598000D03*
Y14852000D03*
Y15106000D03*
X18400000Y14598000D03*
Y14852000D03*
Y15106000D03*
X18654000Y15360000D03*
Y15614000D03*
Y15868000D03*
X18400000Y15360000D03*
Y15614000D03*
Y15868000D03*
X18654000Y16122000D03*
Y16376000D03*
Y16630000D03*
X18400000Y16122000D03*
Y16376000D03*
Y16630000D03*
X18654000Y16884000D03*
X18400000D03*
X18654000Y17392000D03*
Y17138000D03*
X18400000D03*
Y17392000D03*
Y18154000D03*
X18654000D03*
X18400000Y17900000D03*
X18654000D03*
X18400000Y17646000D03*
X18654000D03*
X18400000Y18662000D03*
X18654000D03*
X18400000Y18408000D03*
X18654000D03*
X19758000Y12243000D03*
Y12497000D03*
X19162000Y14090000D03*
Y14344000D03*
Y14598000D03*
Y14852000D03*
Y15106000D03*
Y15868000D03*
Y15360000D03*
Y16122000D03*
Y16376000D03*
Y16630000D03*
Y16884000D03*
Y17138000D03*
Y17392000D03*
Y17646000D03*
X20012000Y12243000D03*
X20266000D03*
X20520000D03*
X20012000Y12497000D03*
X20266000D03*
X20520000D03*
X20774000Y12243000D03*
X21028000D03*
X21282000D03*
X20774000Y12497000D03*
X21028000D03*
X21282000D03*
X21320000Y17560000D03*
X21536000Y12243000D03*
X21790000D03*
X22044000D03*
X21536000Y12497000D03*
X21790000D03*
X22044000D03*
X21828000Y17560000D03*
X21574000D03*
X22806000Y12243000D03*
X22552000D03*
X22298000D03*
X22806000Y12497000D03*
X22552000D03*
X22298000D03*
X23568000Y12243000D03*
X23314000D03*
X23060000D03*
X23568000Y12497000D03*
X23314000D03*
X23060000D03*
X23822000Y12243000D03*
Y12497000D03*
X23988000Y14090000D03*
Y14344000D03*
Y15106000D03*
Y14852000D03*
Y14598000D03*
Y15868000D03*
Y15614000D03*
Y15360000D03*
Y16782000D03*
Y16274000D03*
Y16528000D03*
Y17544000D03*
Y17290000D03*
Y17036000D03*
Y18306000D03*
Y18052000D03*
Y17798000D03*
Y18560000D03*
X24750000Y14090000D03*
X24496000D03*
X24750000Y14344000D03*
X24496000D03*
X24750000Y14598000D03*
Y14852000D03*
Y15106000D03*
X24496000Y14598000D03*
Y14852000D03*
Y15106000D03*
X24750000Y15360000D03*
Y15614000D03*
Y15868000D03*
X24496000Y15360000D03*
Y15614000D03*
Y15868000D03*
X24750000Y16122000D03*
Y16376000D03*
Y16630000D03*
X24496000Y16122000D03*
Y16376000D03*
Y16630000D03*
X24750000Y16884000D03*
X24496000D03*
X24750000Y17392000D03*
Y17138000D03*
X24496000D03*
Y17392000D03*
Y18154000D03*
X24750000D03*
X24496000Y17900000D03*
X24750000D03*
X24496000Y17646000D03*
X24750000D03*
X24496000Y18662000D03*
X24750000D03*
X24496000Y18408000D03*
X24750000D03*
X27011730Y13058170D03*
G54D12*
X19560000Y16970000D03*
X19890000Y16050000D03*
X20140000Y15820000D03*
X20390000Y16510000D03*
X20910000Y14440000D03*
X20640000Y14720000D03*
X21280000Y15140000D03*
X21150000Y16280000D03*
X21660000Y14300000D03*
X21910000Y14093600D03*
X21560000Y14930000D03*
X21410000Y15350000D03*
X22750000Y15130000D03*
X22710000Y14540000D03*
X22900000Y16760000D03*
X22570000Y17090000D03*
X22420000Y17320000D03*
X22180000Y17210000D03*
X22750000Y17630000D03*
X23172970Y14555000D03*
X23020000Y15820000D03*
X23172970Y15480000D03*
X23020000Y16740000D03*
X23450000Y17200000D03*
X27011730Y14485650D03*
G54D13*
X22520000Y17520000D03*
X27011730Y12344430D03*
G54D14*
G01X25075000Y11850000D02*
Y18850000D01*
X23588000D01*
Y17814000D01*
X19562000D01*
Y18850000D01*
X18075000D01*
Y11850000D01*
X25075000D01*
G01X25870000Y11987560D02*
Y16920000D01*
X38153440D01*
Y11987560D01*
X25870000D01*
G01Y12701300D02*
X38153440D01*
G01X25870000Y13415040D02*
X38153440D01*
G01X25870000Y14128780D02*
X38153440D01*
G01X25870000Y14842520D02*
X38153440D01*
G01X25870000Y15556260D02*
X38153440D01*
G01X25870000Y16270000D02*
X38153440D01*
G01X26149520Y15080010D02*
Y15397510D01*
X26299140D01*
G01X26244010Y15244060D02*
X26149520D01*
G01X26492050Y15397510D02*
X26586530D01*
G01X26539290D02*
Y15080010D01*
G01X26492050D02*
X26586530D01*
G01X26877870Y15238760D02*
X26956620D01*
Y15143510D01*
X26932990Y15111750D01*
X26905430Y15090590D01*
X26866060Y15080010D01*
X26826690Y15090590D01*
X26799130Y15111750D01*
X26775510Y15143510D01*
X26759760Y15180550D01*
X26751880Y15222880D01*
Y15259930D01*
X26759760Y15291670D01*
X26775510Y15328720D01*
X26799130Y15360470D01*
X26822750Y15381630D01*
X26854250Y15397510D01*
X26881810D01*
X26913300Y15386930D01*
X26936930Y15365760D01*
G01X27082600Y15397510D02*
Y15169970D01*
X27098340Y15122330D01*
X27129840Y15090590D01*
X27169210Y15080010D01*
X27208580Y15090590D01*
X27240080Y15122330D01*
X27255820Y15169970D01*
Y15397510D01*
G01X27405430Y15080010D02*
Y15397510D01*
X27503850D01*
X27535350Y15381630D01*
X27555040Y15360470D01*
X27562910Y15318130D01*
X27555040Y15275800D01*
X27531410Y15249350D01*
X27503850Y15233460D01*
X27405430D01*
G01X27503850D02*
X27562910Y15080010D01*
G01X27877870D02*
X27720390D01*
Y15397510D01*
X27877870D01*
G01X27814880Y15244060D02*
X27720390D01*
G01X28153460Y15556260D02*
Y11987560D01*
G01X27661330Y15793750D02*
X27759760Y16111250D01*
X27858190Y15793750D01*
G01X27822750Y15904870D02*
X27696760D01*
G01X27995980Y16111250D02*
Y15793750D01*
X28153460D01*
G01X28310940Y16111250D02*
Y15793750D01*
X28468420D01*
G01X28932990Y16111250D02*
Y15883710D01*
X28948730Y15836070D01*
X28980230Y15804330D01*
X29019600Y15793750D01*
X29058970Y15804330D01*
X29090470Y15836070D01*
X29106210Y15883710D01*
Y16111250D01*
G01X29244010Y15793750D02*
Y16111250D01*
X29425110Y15793750D01*
Y16111250D01*
G01X29602280D02*
X29696760D01*
G01X29649520D02*
Y15793750D01*
G01X29602280D02*
X29696760D01*
G01X29964480Y16111250D02*
Y15793750D01*
G01X29873930Y16111250D02*
X30055030D01*
G01X30196760Y15836070D02*
X30228260Y15809620D01*
X30263690Y15793750D01*
X30295190D01*
X30326680Y15809620D01*
X30350310Y15836070D01*
X30362120Y15873130D01*
X30354250Y15910160D01*
X30334560Y15941910D01*
X30299120Y15963090D01*
X30251880Y15973670D01*
X30224320Y15994830D01*
X30212510Y16031870D01*
X30220390Y16068920D01*
X30240070Y16095370D01*
X30267630Y16111250D01*
X30295190D01*
X30322750Y16100670D01*
X30346370Y16074210D01*
G01X30810930Y15793750D02*
X30909360Y16111250D01*
X31007790Y15793750D01*
G01X30972350Y15904870D02*
X30846360D01*
G01X31145580Y15793750D02*
Y16111250D01*
X31244000D01*
X31275500Y16095370D01*
X31295190Y16074210D01*
X31303060Y16031870D01*
X31295190Y15989540D01*
X31271560Y15963090D01*
X31244000Y15947200D01*
X31145580D01*
G01X31244000D02*
X31303060Y15793750D01*
G01X31618020D02*
X31460540D01*
Y16111250D01*
X31618020D01*
G01X31555030Y15957800D02*
X31460540D01*
G01X32121960Y16111250D02*
X32216440D01*
G01X32169200D02*
Y15793750D01*
G01X32121960D02*
X32216440D01*
G01X32393610D02*
Y16111250D01*
X32574710Y15793750D01*
Y16111250D01*
G01X33011710Y15793750D02*
Y16111250D01*
X33114080Y15846670D01*
X33216450Y16111250D01*
Y15793750D01*
G01X33381800Y16111250D02*
X33476280D01*
G01X33429040D02*
Y15793750D01*
G01X33381800D02*
X33476280D01*
G01X33665260Y16111250D02*
Y15793750D01*
X33822740D01*
G01X33980220Y16111250D02*
Y15793750D01*
X34137700D01*
G01X34326680Y16111250D02*
X34421160D01*
G01X34373920D02*
Y15793750D01*
G01X34326680D02*
X34421160D01*
G01X34586510D02*
Y16111250D01*
X34688880Y15846670D01*
X34791250Y16111250D01*
Y15793750D01*
G01X35082580D02*
X34925100D01*
Y16111250D01*
X35082580D01*
G01X35019590Y15957800D02*
X34925100D01*
G01X35318800Y16111250D02*
Y15793750D01*
G01X35228250Y16111250D02*
X35409350D01*
G01X35712500Y15793750D02*
X35555020D01*
Y16111250D01*
X35712500D01*
G01X35649510Y15957800D02*
X35555020D01*
G01X35869980Y15793750D02*
Y16111250D01*
X35968400D01*
X35999900Y16095370D01*
X36019590Y16074210D01*
X36027460Y16031870D01*
X36019590Y15989540D01*
X35995960Y15963090D01*
X35968400Y15947200D01*
X35869980D01*
G01X35968400D02*
X36027460Y15793750D01*
G01X36181000Y15836070D02*
X36212500Y15809620D01*
X36247930Y15793750D01*
X36279430D01*
X36310920Y15809620D01*
X36334550Y15836070D01*
X36346360Y15873130D01*
X36338490Y15910160D01*
X36318800Y15941910D01*
X36283360Y15963090D01*
X36236120Y15973670D01*
X36208560Y15994830D01*
X36196750Y16031870D01*
X36204630Y16068920D01*
X36224310Y16095370D01*
X36251870Y16111250D01*
X36279430D01*
X36306990Y16100670D01*
X36330610Y16074210D01*
G01X27988110Y16443750D02*
Y16761250D01*
X28066840D01*
X28098340Y16745370D01*
X28121960Y16724210D01*
X28141650Y16692460D01*
X28157400Y16655410D01*
X28161330Y16602500D01*
X28157400Y16549580D01*
X28141650Y16512540D01*
X28121960Y16480780D01*
X28098340Y16459620D01*
X28066840Y16443750D01*
X27988110D01*
G01X28310940D02*
Y16761250D01*
X28409360D01*
X28440860Y16745370D01*
X28460550Y16724210D01*
X28468420Y16681870D01*
X28460550Y16639540D01*
X28436920Y16613090D01*
X28409360Y16597200D01*
X28310940D01*
G01X28409360D02*
X28468420Y16443750D01*
G01X28657400Y16761250D02*
X28751880D01*
G01X28704640D02*
Y16443750D01*
G01X28657400D02*
X28751880D01*
G01X28940860Y16761250D02*
Y16443750D01*
X29098340D01*
G01X29255820Y16761250D02*
Y16443750D01*
X29413300D01*
G01X30051090Y16734790D02*
X30027470Y16750670D01*
X29999920Y16761250D01*
X29968420D01*
X29932980Y16745370D01*
X29905430Y16718920D01*
X29885740Y16687160D01*
X29869990Y16634250D01*
X29866050Y16586620D01*
X29873930Y16539000D01*
X29885740Y16507250D01*
X29909360Y16475490D01*
X29936920Y16454330D01*
X29964480Y16443750D01*
X29992040D01*
X30019600Y16454330D01*
X30043220Y16470200D01*
X30062910Y16491360D01*
G01X30196760Y16443750D02*
Y16761250D01*
G01X30362120D02*
Y16443750D01*
G01Y16602500D02*
X30196760D01*
G01X30495970Y16443750D02*
X30594400Y16761250D01*
X30692830Y16443750D01*
G01X30657390Y16554870D02*
X30531400D01*
G01X30830620Y16443750D02*
Y16761250D01*
X30929040D01*
X30960540Y16745370D01*
X30980230Y16724210D01*
X30988100Y16681870D01*
X30980230Y16639540D01*
X30956600Y16613090D01*
X30929040Y16597200D01*
X30830620D01*
G01X30929040D02*
X30988100Y16443750D01*
G01X31224320Y16761250D02*
Y16443750D01*
G01X31133770Y16761250D02*
X31314870D01*
G01X31539280Y16433170D02*
X31531400Y16438460D01*
Y16449040D01*
X31539280Y16454330D01*
X31547160Y16449040D01*
Y16438460D01*
X31539280Y16433170D01*
G01Y16576030D02*
X31531400Y16581330D01*
Y16591910D01*
X31539280Y16597200D01*
X31547160Y16591910D01*
Y16581330D01*
X31539280Y16576030D01*
G01X32169200Y16761250D02*
Y16443750D01*
G01X32078650Y16761250D02*
X32259750D01*
G01X32484160Y16443750D02*
X32452660Y16449040D01*
X32425110Y16470200D01*
X32401480Y16501960D01*
X32385730Y16539000D01*
X32377860Y16581330D01*
Y16623670D01*
X32385730Y16666000D01*
X32401480Y16703040D01*
X32425110Y16734790D01*
X32452660Y16755960D01*
X32484160Y16761250D01*
X32515650Y16755960D01*
X32543210Y16734790D01*
X32566840Y16703040D01*
X32582590Y16666000D01*
X32590460Y16623670D01*
Y16581330D01*
X32582590Y16539000D01*
X32566840Y16501960D01*
X32543210Y16470200D01*
X32515650Y16449040D01*
X32484160Y16443750D01*
G01X32720380D02*
Y16761250D01*
X32814870D01*
X32846360Y16745370D01*
X32869990Y16708330D01*
X32877860Y16666000D01*
X32869990Y16623670D01*
X32850300Y16591910D01*
X32814870Y16576030D01*
X32720380D01*
G01X33429040Y16761250D02*
Y16443750D01*
G01X33373920Y16655410D02*
X33484160D01*
G01X33744000Y16443750D02*
X33720380Y16449040D01*
X33696760Y16470200D01*
X33681000Y16507250D01*
X33673130Y16549580D01*
X33681000Y16591910D01*
X33696760Y16628960D01*
X33720380Y16650120D01*
X33744000Y16655410D01*
X33767620Y16650120D01*
X33791240Y16628960D01*
X33806990Y16591910D01*
X33810930Y16549580D01*
X33806990Y16507250D01*
X33791240Y16470200D01*
X33767620Y16449040D01*
X33744000Y16443750D01*
G01X34405410Y16613090D02*
X34421160Y16628960D01*
X34432970Y16655410D01*
X34440850Y16692460D01*
X34432970Y16724210D01*
X34417230Y16745370D01*
X34389670Y16761250D01*
X34283370D01*
Y16443750D01*
X34413290D01*
X34440850Y16464910D01*
X34456600Y16496670D01*
X34464470Y16533710D01*
X34456600Y16570740D01*
X34432970Y16602500D01*
X34405410Y16613090D01*
X34283370D01*
G01X34688880Y16443750D02*
X34657380Y16449040D01*
X34629830Y16470200D01*
X34606200Y16501960D01*
X34590450Y16539000D01*
X34582580Y16581330D01*
Y16623670D01*
X34590450Y16666000D01*
X34606200Y16703040D01*
X34629830Y16734790D01*
X34657380Y16755960D01*
X34688880Y16761250D01*
X34720370Y16755960D01*
X34747930Y16734790D01*
X34771560Y16703040D01*
X34787310Y16666000D01*
X34795180Y16623670D01*
Y16581330D01*
X34787310Y16539000D01*
X34771560Y16501960D01*
X34747930Y16470200D01*
X34720370Y16449040D01*
X34688880Y16443750D01*
G01X35003840Y16761250D02*
Y16443750D01*
G01X34913290Y16761250D02*
X35094390D01*
G01X35318800D02*
Y16443750D01*
G01X35228250Y16761250D02*
X35409350D01*
G01X35633760Y16443750D02*
X35602260Y16449040D01*
X35574710Y16470200D01*
X35551080Y16501960D01*
X35535330Y16539000D01*
X35527460Y16581330D01*
Y16623670D01*
X35535330Y16666000D01*
X35551080Y16703040D01*
X35574710Y16734790D01*
X35602260Y16755960D01*
X35633760Y16761250D01*
X35665250Y16755960D01*
X35692810Y16734790D01*
X35716440Y16703040D01*
X35732190Y16666000D01*
X35740060Y16623670D01*
Y16581330D01*
X35732190Y16539000D01*
X35716440Y16501960D01*
X35692810Y16470200D01*
X35665250Y16449040D01*
X35633760Y16443750D01*
G01X35846350D02*
Y16761250D01*
X35948720Y16496670D01*
X36051090Y16761250D01*
Y16443750D01*
G01X30240070Y12185680D02*
Y12503180D01*
X30192830Y12439680D01*
G01Y12185680D02*
X30287310D01*
G01X30555030Y12175100D02*
X30547150Y12180390D01*
Y12190970D01*
X30555030Y12196260D01*
X30562910Y12190970D01*
Y12180390D01*
X30555030Y12175100D01*
G01X30869990Y12185680D02*
Y12503180D01*
X30822750Y12439680D01*
G01Y12185680D02*
X30917230D01*
G01X30240070Y12899420D02*
Y13216920D01*
X30192830Y13153420D01*
G01Y12899420D02*
X30287310D01*
G01X30555030Y12888840D02*
X30547150Y12894130D01*
Y12904710D01*
X30555030Y12910000D01*
X30562910Y12904710D01*
Y12894130D01*
X30555030Y12888840D01*
G01X30869990Y13216920D02*
X30838490Y13206340D01*
X30814870Y13179880D01*
X30799120Y13148130D01*
X30787310Y13105790D01*
X30783380Y13058170D01*
X30787310Y13010540D01*
X30799120Y12968210D01*
X30814870Y12936450D01*
X30838490Y12910000D01*
X30869990Y12899420D01*
X30901480Y12910000D01*
X30925110Y12936450D01*
X30940860Y12968210D01*
X30952670Y13010540D01*
X30956600Y13058170D01*
X30952670Y13105790D01*
X30940860Y13148130D01*
X30925110Y13179880D01*
X30901480Y13206340D01*
X30869990Y13216920D01*
G01X30240070Y13930660D02*
X30208570Y13920080D01*
X30184950Y13893620D01*
X30169200Y13861870D01*
X30157390Y13819530D01*
X30153460Y13771910D01*
X30157390Y13724280D01*
X30169200Y13681950D01*
X30184950Y13650190D01*
X30208570Y13623740D01*
X30240070Y13613160D01*
X30271560Y13623740D01*
X30295190Y13650190D01*
X30310940Y13681950D01*
X30322750Y13724280D01*
X30326680Y13771910D01*
X30322750Y13819530D01*
X30310940Y13861870D01*
X30295190Y13893620D01*
X30271560Y13920080D01*
X30240070Y13930660D01*
G01X30555030Y13602580D02*
X30547150Y13607870D01*
Y13618450D01*
X30555030Y13623740D01*
X30562910Y13618450D01*
Y13607870D01*
X30555030Y13602580D01*
G01X30869990Y13613160D02*
X30897550Y13618450D01*
X30929040Y13634320D01*
X30948730Y13660770D01*
X30956600Y13697830D01*
X30948730Y13734860D01*
X30925110Y13766610D01*
X30889670Y13782500D01*
X30850310D01*
X30826680Y13793080D01*
X30806990Y13819530D01*
X30799120Y13856570D01*
X30810940Y13893620D01*
X30838490Y13920080D01*
X30869990Y13930660D01*
X30901480Y13920080D01*
X30929040Y13893620D01*
X30940860Y13856570D01*
X30932980Y13819530D01*
X30913300Y13793080D01*
X30889670Y13782500D01*
X30850310D01*
X30814870Y13766610D01*
X30791250Y13734860D01*
X30783380Y13697830D01*
X30791250Y13660770D01*
X30810940Y13634320D01*
X30842430Y13618450D01*
X30869990Y13613160D01*
G01X30240070Y14644400D02*
X30208570Y14633820D01*
X30184950Y14607360D01*
X30169200Y14575610D01*
X30157390Y14533270D01*
X30153460Y14485650D01*
X30157390Y14438020D01*
X30169200Y14395690D01*
X30184950Y14363930D01*
X30208570Y14337480D01*
X30240070Y14326900D01*
X30271560Y14337480D01*
X30295190Y14363930D01*
X30310940Y14395690D01*
X30322750Y14438020D01*
X30326680Y14485650D01*
X30322750Y14533270D01*
X30310940Y14575610D01*
X30295190Y14607360D01*
X30271560Y14633820D01*
X30240070Y14644400D01*
G01X30555030Y14316320D02*
X30547150Y14321610D01*
Y14332190D01*
X30555030Y14337480D01*
X30562910Y14332190D01*
Y14321610D01*
X30555030Y14316320D01*
G01X30783380Y14390400D02*
X30806990Y14353350D01*
X30838490Y14332190D01*
X30873930Y14326900D01*
X30905430Y14332190D01*
X30936920Y14358640D01*
X30956600Y14390400D01*
X30960540Y14422150D01*
X30952670Y14459180D01*
X30925110Y14485650D01*
X30897550Y14496240D01*
X30862110D01*
G01X30897550D02*
X30921170Y14512110D01*
X30940860Y14538560D01*
X30948730Y14570310D01*
X30940860Y14602070D01*
X30921170Y14628520D01*
X30885740Y14644400D01*
X30850310Y14639110D01*
X30814870Y14617940D01*
G01X29999910Y15122330D02*
X30031410Y15095880D01*
X30066840Y15080010D01*
X30098340D01*
X30129830Y15095880D01*
X30153460Y15122330D01*
X30165270Y15159390D01*
X30157400Y15196420D01*
X30137710Y15228170D01*
X30102270Y15249350D01*
X30055030Y15259930D01*
X30027470Y15281090D01*
X30015660Y15318130D01*
X30023540Y15355180D01*
X30043220Y15381630D01*
X30070780Y15397510D01*
X30098340D01*
X30125900Y15386930D01*
X30149520Y15360470D01*
G01X30350310Y15397510D02*
X30444790D01*
G01X30397550D02*
Y15080010D01*
G01X30350310D02*
X30444790D01*
G01X30637700Y15397510D02*
X30787320D01*
X30637700Y15080010D01*
X30787320D01*
G01X31106210D02*
X30948730D01*
Y15397510D01*
X31106210D01*
G01X31043220Y15244060D02*
X30948730D01*
G01X32956600Y15556260D02*
Y11987560D01*
G01X33704630Y12185680D02*
Y12503180D01*
X33799120D01*
X33830610Y12487300D01*
X33854240Y12450260D01*
X33862110Y12407930D01*
X33854240Y12365600D01*
X33834550Y12333840D01*
X33799120Y12317960D01*
X33704630D01*
G01X34019590Y12503180D02*
Y12185680D01*
X34177070D01*
G01X34314860D02*
X34413290Y12503180D01*
X34511720Y12185680D01*
G01X34476280Y12296800D02*
X34350290D01*
G01X34728250Y12503180D02*
Y12185680D01*
G01X34637700Y12503180D02*
X34818800D01*
G01X35121950Y12185680D02*
X34964470D01*
Y12503180D01*
X35121950D01*
G01X35058960Y12349730D02*
X34964470D01*
G01X35271560Y12185680D02*
Y12503180D01*
X35350290D01*
X35381790Y12487300D01*
X35405410Y12466140D01*
X35425100Y12434390D01*
X35440850Y12397340D01*
X35444780Y12344430D01*
X35440850Y12291510D01*
X35425100Y12254470D01*
X35405410Y12222710D01*
X35381790Y12201550D01*
X35350290Y12185680D01*
X35271560D01*
G01X33704630Y12899420D02*
Y13216920D01*
X33799120D01*
X33830610Y13201040D01*
X33854240Y13164000D01*
X33862110Y13121670D01*
X33854240Y13079340D01*
X33834550Y13047580D01*
X33799120Y13031700D01*
X33704630D01*
G01X34019590Y13216920D02*
Y12899420D01*
X34177070D01*
G01X34314860D02*
X34413290Y13216920D01*
X34511720Y12899420D01*
G01X34476280Y13010540D02*
X34350290D01*
G01X34728250Y13216920D02*
Y12899420D01*
G01X34637700Y13216920D02*
X34818800D01*
G01X35121950Y12899420D02*
X34964470D01*
Y13216920D01*
X35121950D01*
G01X35058960Y13063470D02*
X34964470D01*
G01X35271560Y12899420D02*
Y13216920D01*
X35350290D01*
X35381790Y13201040D01*
X35405410Y13179880D01*
X35425100Y13148130D01*
X35440850Y13111080D01*
X35444780Y13058170D01*
X35440850Y13005250D01*
X35425100Y12968210D01*
X35405410Y12936450D01*
X35381790Y12915290D01*
X35350290Y12899420D01*
X35271560D01*
G01X33704630Y13613160D02*
Y13930660D01*
X33799120D01*
X33830610Y13914780D01*
X33854240Y13877740D01*
X33862110Y13835410D01*
X33854240Y13793080D01*
X33834550Y13761320D01*
X33799120Y13745440D01*
X33704630D01*
G01X34019590Y13930660D02*
Y13613160D01*
X34177070D01*
G01X34314860D02*
X34413290Y13930660D01*
X34511720Y13613160D01*
G01X34476280Y13724280D02*
X34350290D01*
G01X34728250Y13930660D02*
Y13613160D01*
G01X34637700Y13930660D02*
X34818800D01*
G01X35121950Y13613160D02*
X34964470D01*
Y13930660D01*
X35121950D01*
G01X35058960Y13777210D02*
X34964470D01*
G01X35271560Y13613160D02*
Y13930660D01*
X35350290D01*
X35381790Y13914780D01*
X35405410Y13893620D01*
X35425100Y13861870D01*
X35440850Y13824820D01*
X35444780Y13771910D01*
X35440850Y13718990D01*
X35425100Y13681950D01*
X35405410Y13650190D01*
X35381790Y13629030D01*
X35350290Y13613160D01*
X35271560D01*
G01X33704630Y14326900D02*
Y14644400D01*
X33799120D01*
X33830610Y14628520D01*
X33854240Y14591480D01*
X33862110Y14549150D01*
X33854240Y14506820D01*
X33834550Y14475060D01*
X33799120Y14459180D01*
X33704630D01*
G01X34019590Y14644400D02*
Y14326900D01*
X34177070D01*
G01X34314860D02*
X34413290Y14644400D01*
X34511720Y14326900D01*
G01X34476280Y14438020D02*
X34350290D01*
G01X34728250Y14644400D02*
Y14326900D01*
G01X34637700Y14644400D02*
X34818800D01*
G01X35121950Y14326900D02*
X34964470D01*
Y14644400D01*
X35121950D01*
G01X35058960Y14490950D02*
X34964470D01*
G01X35271560Y14326900D02*
Y14644400D01*
X35350290D01*
X35381790Y14628520D01*
X35405410Y14607360D01*
X35425100Y14575610D01*
X35440850Y14538560D01*
X35444780Y14485650D01*
X35440850Y14432730D01*
X35425100Y14395690D01*
X35405410Y14363930D01*
X35381790Y14342770D01*
X35350290Y14326900D01*
X35271560D01*
G01X33704630Y15080010D02*
Y15397510D01*
X33799120D01*
X33830610Y15381630D01*
X33854240Y15344590D01*
X33862110Y15302260D01*
X33854240Y15259930D01*
X33834550Y15228170D01*
X33799120Y15212290D01*
X33704630D01*
G01X34019590Y15397510D02*
Y15080010D01*
X34177070D01*
G01X34314860D02*
X34413290Y15397510D01*
X34511720Y15080010D01*
G01X34476280Y15191130D02*
X34350290D01*
G01X34728250Y15397510D02*
Y15080010D01*
G01X34637700Y15397510D02*
X34818800D01*
G01X35121950Y15080010D02*
X34964470D01*
Y15397510D01*
X35121950D01*
G01X35058960Y15244060D02*
X34964470D01*
G01X35271560Y15080010D02*
Y15397510D01*
X35350290D01*
X35381790Y15381630D01*
X35405410Y15360470D01*
X35425100Y15328720D01*
X35440850Y15291670D01*
X35444780Y15238760D01*
X35440850Y15185840D01*
X35425100Y15148800D01*
X35405410Y15117040D01*
X35381790Y15095880D01*
X35350290Y15080010D01*
X35271560D01*
G01X36184940Y15556260D02*
Y11987560D01*
G01X37169190Y12185680D02*
Y12503180D01*
X37121950Y12439680D01*
G01Y12185680D02*
X37216430D01*
G01X36854230Y12899420D02*
Y13216920D01*
X36806990Y13153420D01*
G01Y12899420D02*
X36901470D01*
G01X37216430D02*
Y13216920D01*
X37070760Y12989380D01*
X37267620D01*
G01X37397540Y12947030D02*
X37421150Y12920580D01*
X37448710Y12904710D01*
X37484150Y12899420D01*
X37519590Y12910000D01*
X37547140Y12931160D01*
X37566830Y12968210D01*
X37570760Y13010540D01*
X37562890Y13052870D01*
X37543200Y13079340D01*
X37515640Y13100500D01*
X37488090Y13105790D01*
X37460530Y13100500D01*
X37425100Y13079340D01*
X37436910Y13216920D01*
X37543200D01*
G01X37082580Y13676660D02*
X37106190Y13639610D01*
X37137690Y13618450D01*
X37173130Y13613160D01*
X37204630Y13618450D01*
X37236120Y13644900D01*
X37255800Y13676660D01*
X37259740Y13708410D01*
X37251870Y13745440D01*
X37224310Y13771910D01*
X37196750Y13782500D01*
X37161310D01*
G01X37196750D02*
X37220370Y13798370D01*
X37240060Y13824820D01*
X37247930Y13856570D01*
X37240060Y13888330D01*
X37220370Y13914780D01*
X37184940Y13930660D01*
X37149510Y13925370D01*
X37114070Y13904200D01*
G01X36936900Y14591480D02*
X36960530Y14623230D01*
X36988090Y14639110D01*
X37019590Y14644400D01*
X37058950Y14633820D01*
X37086520Y14607360D01*
X37094390Y14575610D01*
X37090450Y14543850D01*
X37074700Y14517400D01*
X36995960Y14464480D01*
X36960530Y14427440D01*
X36936900Y14374510D01*
X36929030Y14326900D01*
X37094390D01*
G01X37373910D02*
Y14644400D01*
X37228240Y14416860D01*
X37425100D01*
G01X36854230Y15080010D02*
X36822730Y15085300D01*
X36795180Y15106460D01*
X36771550Y15138220D01*
X36755800Y15175260D01*
X36747930Y15217590D01*
Y15259930D01*
X36755800Y15302260D01*
X36771550Y15339300D01*
X36795180Y15371050D01*
X36822730Y15392220D01*
X36854230Y15397510D01*
X36885720Y15392220D01*
X36913280Y15371050D01*
X36936910Y15339300D01*
X36952660Y15302260D01*
X36960530Y15259930D01*
Y15217590D01*
X36952660Y15175260D01*
X36936910Y15138220D01*
X36913280Y15106460D01*
X36885720Y15085300D01*
X36854230Y15080010D01*
G01X36885720Y15164680D02*
X36932970Y15080010D01*
G01X37169190Y15397510D02*
Y15080010D01*
G01X37078640Y15397510D02*
X37259740D01*
G01X37484150Y15080010D02*
Y15222880D01*
X37405410Y15397510D01*
G01X37562890D02*
X37484150Y15222880D01*
M02*
