M48
METRIC
T01C.3048
T02C.8128
T03C.9906
T04C1.1176
;LEADER: 12 
;HEADER: 
;CODE  : ASCII 
;FILE  : X-NUCLEO-IHM09M1-1-2.drl for  ... layers TOP and BOTTOM
;T01 Holesize 1. = 0.304800 Tolerance = +0.000000/-0.000000 PLATED MM Quantity = 24
;T02 Holesize 2. = 0.812800 Tolerance = +0.000000/-0.000000 PLATED MM Quantity = 3
;T03 Holesize 3. = 0.990600 Tolerance = +0.000000/-0.000000 PLATED MM Quantity = 145
;T04 Holesize 4. = 1.117600 Tolerance = +0.000000/-0.000000 PLATED MM Quantity = 1
%
G90
T01
X1956000Y1697000
X2218000Y1721000
X2242000Y1732000
X2271000Y1454000
X2128000Y1514000
X2191000Y1409360
X2166000Y1430000
X2141000Y1535000
X2317297Y1548000
X2317297Y1455500
X2290000Y1676000
X2345000Y1720000
X2115000Y1628000
X2064000Y1472000
X2302000Y1582000
X2302000Y1674000
X2014000Y1582000
X2091000Y1444000
X2039000Y1651000
X1989000Y1605000
X2156000Y1493000
X2275000Y1763000
X2275000Y1513000
X2257000Y1709000
T02
X1887900Y1210200
X1862500Y1311800
X1837100Y1210200
T03
X2449600Y1866200
X2475000Y1866200
X2449600Y1840800
X2475000Y1840800
X2449600Y1815400
X2475000Y1815400
X2449600Y1790000
X2475000Y1790000
X2449600Y1764600
X2475000Y1764600
X2449600Y1739200
X2475000Y1739200
X2449600Y1713800
X2475000Y1713800
X2449600Y1688400
X2475000Y1688400
X2449600Y1663000
X2475000Y1663000
X2449600Y1637600
X2475000Y1637600
X2449600Y1612200
X2475000Y1612200
X2449600Y1586800
X2475000Y1586800
X2449600Y1561400
X2475000Y1561400
X2449600Y1536000
X2475000Y1536000
X2449600Y1510600
X2475000Y1510600
X2449600Y1485200
X2475000Y1485200
X2449600Y1459800
X2475000Y1459800
X2449600Y1434400
X2475000Y1434400
X2449600Y1409000
X2475000Y1409000
X2398800Y1627400
R09Y0025400
X1840000Y1866200
X1865400Y1866200
X1840000Y1840800
X1865400Y1840800
X1840000Y1815400
X1865400Y1815400
X1840000Y1790000
X1865400Y1790000
X1840000Y1764600
X1865400Y1764600
X1840000Y1739200
X1865400Y1739200
X1840000Y1713800
X1865400Y1713800
X1840000Y1688400
X1865400Y1688400
X1840000Y1663000
X1865400Y1663000
X1840000Y1637600
X1865400Y1637600
X1840000Y1612200
X1865400Y1612200
X1840000Y1586800
X1865400Y1586800
X1840000Y1561400
X1865400Y1561400
X1840000Y1536000
X1865400Y1536000
X1840000Y1510600
X1865400Y1510600
X1840000Y1485200
X1865400Y1485200
X1840000Y1459800
X1865400Y1459800
X1840000Y1434400
X1865400Y1434400
X1840000Y1409000
X1865400Y1409000
X1916200Y1536000
R05Y-0025400
X2398800Y1409000
R07Y0025400
X1975800Y1224300
X1975800Y1249700
X2001200Y1224300
X2001200Y1249700
X2026600Y1224300
X2026600Y1249700
X2052000Y1224300
X2052000Y1249700
X2077400Y1224300
X2077400Y1249700
X2102800Y1224300
X2102800Y1249700
X2128200Y1224300
X2128200Y1249700
X2153600Y1224300
X2153600Y1249700
X2179000Y1224300
X2179000Y1249700
X2204400Y1224300
X2204400Y1249700
X2229800Y1224300
X2229800Y1249700
X2255200Y1224300
X2255200Y1249700
X2280600Y1224300
X2280600Y1249700
X2306000Y1224300
X2306000Y1249700
X2331400Y1224300
X2331400Y1249700
X2356800Y1224300
X2356800Y1249700
X2382200Y1224300
X2382200Y1249700
X1916200Y1764600
R07Y-0025400
X2132000Y1756000
R02X0025400
T04
X2252000Y1752000
M30
