G04 ================== begin FILE IDENTIFICATION RECORD ==================*
G04 Layout Name:  X-NUCLEO-IHM09M1_SHIELD MC Connector.brd*
G04 Film Name:    X-NUCLEO-IHM09M1-BOTTOM*
G04 File Format:  Gerber RS274X*
G04 File Origin:  Cadence Allegro 16.6-S023*
G04 Origin Date:  Thu Apr 02 11:20:13 2015*
G04 *
G04 Layer:  VIA CLASS/BOTTOM*
G04 Layer:  PIN/BOTTOM*
G04 Layer:  ETCH/BOTTOM*
G04 *
G04 Offset:    (0.0000 0.0000)*
G04 Mirror:    No*
G04 Mode:      Positive*
G04 Rotation:  0*
G04 FullContactRelief:  No*
G04 UndefLineWidth:     0.0000*
G04 ================== end FILE IDENTIFICATION RECORD ====================*
%FSLAX35Y35*MOMM*%
%IR0*IPPOS*OFA0.00000B0.00000*MIA0B0*SFA1.00000B1.00000*%
%ADD13C,.7112*%
%ADD14C,2.032*%
%ADD10C,1.651*%
%ADD11C,1.778*%
%ADD12R,1.778X1.778*%
%ADD15C,.4*%
%ADD16C,.25*%
%ADD17C,.8*%
%ADD18C,2.1452*%
%ADD21C,2.2722*%
%ADD19C,2.1912*%
%ADD20C,2.3182*%
%ADD23C,2.5262*%
%ADD22R,2.3182X2.3182*%
G75*
%LPD*%
G75*
G36*
G01X18125000Y11900000D02*
Y18800000D01*
X19512000D01*
Y17764000D01*
X23638000D01*
Y18800000D01*
X25025000D01*
Y11900000D01*
X18125000D01*
G37*
%LPC*%
G75*
G36*
G01X24394030Y15415120D02*
G03X24374680Y15447580I-19351J10462D01*
G01X24109320D01*
G03X24089970Y15415120I1J-21998D01*
G02X23886030I-101970J-55120D01*
G03X23866680Y15447580I-19351J10462D01*
G01X23775820D01*
X23409980Y15813420D01*
Y17154510D01*
G02X23490020I40020J45490D01*
G01Y15846580D01*
X23808980Y15527620D01*
X23866040D01*
G03X23885500Y15559890I2J22001D01*
G02X24090500I102500J54110D01*
G03X24109960Y15527620I19458J-10269D01*
G01X24374040D01*
G03X24393500Y15559890I2J22001D01*
G02X24583780Y15538300I102504J54110D01*
G01X24581110Y15535210D01*
Y15520120D01*
X24598870D01*
X24601510Y15521740D01*
G02X24650700Y15515900I20889J-34138D01*
G01X24690690Y15475910D01*
X24750000D01*
G02X24634090Y15360000I0J-115910D01*
G01Y15419310D01*
X24598320Y15455080D01*
X24580060D01*
Y15439910D01*
X24582820Y15436790D01*
G02X24394030Y15415120I-86824J-76790D01*
G37*
G36*
G01X22790020Y17584510D02*
Y15175490D01*
G02X22709980I-40020J-45490D01*
G01Y17584510D01*
G02X22790020I40020J45490D01*
G37*
G36*
G01X21279980Y17381830D02*
X21204090Y17460160D01*
Y17675910D01*
X21435910D01*
Y17460160D01*
X21360020Y17381830D01*
Y15736580D01*
X21600020Y15496580D01*
Y14975490D01*
G02X21519980I-40020J-45490D01*
G01Y15463420D01*
X21279980Y15703420D01*
Y17381830D01*
G37*
G36*
G01X23508690Y12358910D02*
X23568000D01*
G02X23452090Y12243000I0J-115910D01*
G01Y12302310D01*
X23401580Y12352820D01*
Y12370000D01*
G02Y12370070I40020J35D01*
G01Y12381090D01*
X23198090D01*
Y12612910D01*
X23401580D01*
Y14011820D01*
X22859980Y14553420D01*
Y16714510D01*
G02X22950760Y16793090I40023J45490D01*
G03X22982720Y16787760I18428J12016D01*
G02X23060020Y16694510I37280J-47760D01*
G01Y15865490D01*
G02X22977460Y15776850I-40030J-45485D01*
G03X22940020Y15761180I-15441J-15668D01*
G01Y14586580D01*
X23481620Y14044980D01*
Y12611610D01*
G02X23480090Y12600640I-40021J-10D01*
G03X23497370Y12588900I10579J-3017D01*
G02X23623120Y12598970I70637J-91899D01*
G03X23655580Y12618320I10462J19351D01*
G01Y14015790D01*
X23177000Y14494380D01*
X23172490Y14494410D01*
G02X23233560Y14555480I480J60590D01*
G01X23233590Y14550970D01*
X23702420Y14082140D01*
G03X23739980Y14097700I15559J15556D01*
G01Y14163420D01*
X23132950Y14770450D01*
Y15434510D01*
G02X23212990I40020J45490D01*
G01Y14803610D01*
X23820020Y14196580D01*
Y12766580D01*
X23862020Y12724580D01*
Y12620900D01*
X23903420Y12579500D01*
X23903440Y12579480D01*
G02X23753150Y12403750I-81433J-82488D01*
G01X23750240Y12405900D01*
X23735620D01*
Y12385980D01*
X23762690Y12358910D01*
X23822000D01*
G02X23706090Y12243000I0J-115910D01*
G01Y12302310D01*
X23655580Y12352820D01*
Y12375680D01*
G03X23623120Y12395030I-21998J-1D01*
G02X23492300Y12409220I-55119J101968D01*
G01X23489210Y12411890D01*
X23474120D01*
Y12393480D01*
X23508690Y12358910D01*
G37*
G36*
G01X18950020Y12185420D02*
G02X18829980Y12199980I-71021J-83421D01*
G01Y16623140D01*
X18807470Y16645650D01*
G03X18769910Y16630080I-15560J-15553D01*
G02X18681700Y16742550I-115909J-81D01*
G01X18687720Y16741070D01*
X18699890Y16753230D01*
X18681800Y16771320D01*
X18676060Y16770210D01*
G02Y16997790I-22060J113790D01*
G01X18681800Y16996680D01*
X18699890Y17014770D01*
X18687720Y17026930D01*
X18681700Y17025450D01*
G02Y17250550I-27700J112550D01*
G01X18687720Y17249070D01*
X18699890Y17261230D01*
X18681800Y17279320D01*
X18676060Y17278210D01*
G02X18767790Y17369940I-22060J113790D01*
G01X18766680Y17364200D01*
X18880020Y17250860D01*
Y17025140D01*
X18766680Y16911800D01*
X18767790Y16906060D01*
G02Y16861940I-113790J-22060D01*
G01X18766680Y16856200D01*
X18950020Y16672860D01*
Y12185420D01*
G37*
G36*
G01X19873910Y12127090D02*
X19642090D01*
Y12151490D01*
X19579490Y12214670D01*
G02X19571950Y12229580I37511J28331D01*
G01X19571150Y12232250D01*
X19517980Y12285420D01*
Y16926350D01*
G02X19598020Y16922820I42023J43650D01*
G01Y12318580D01*
X19612230Y12304370D01*
X19642090Y12334510D01*
Y12358910D01*
X19845580D01*
Y12378300D01*
G03X19812940Y12397560I-22000J3D01*
G02X19816630Y12594310I-54942J99440D01*
G03X19849980Y12613160I11350J18847D01*
G01Y16004510D01*
G02X19930020I40020J45490D01*
G01Y12618620D01*
G03X19961750Y12598890I22001J2D01*
G02X20067280Y12596260I50258J-101890D01*
G03X20099980Y12615480I10702J19219D01*
G01Y15774510D01*
G02X20180020I40020J45490D01*
G01Y12616570D01*
G03X20212400Y12597170I22000J-3D01*
G02X20317930Y12598050I53604J-100170D01*
G03X20349980Y12617620I10051J19568D01*
G01Y16464510D01*
G02X20430020I40020J45490D01*
G01Y12614340D01*
G03X20463050Y12595300I22001J-3D01*
G02X20583770Y12591020I56951J-98302D01*
G03X20600740Y12602260I6177J9105D01*
G02X20599980Y12610000I39258J7762D01*
G01Y14674510D01*
G02X20680020I40020J45490D01*
G01Y12610610D01*
X20867880D01*
Y14396440D01*
G02X20947920Y14392740I42119J43559D01*
G01Y12619540D01*
G03X20979340Y12599660I22000J2D01*
G02X21078250Y12598890I48659J-102661D01*
G03X21109980Y12618620I9729J19732D01*
G01Y16234510D01*
G02X21190020I40020J45490D01*
G01Y12622050D01*
G03X21227580Y12606490I22002J-4D01*
G01X21239980Y12618900D01*
Y15094510D01*
G02X21320020I40020J45490D01*
G01Y12637180D01*
X21322020Y12635180D01*
Y12620900D01*
X21332420Y12610490D01*
G03X21369980Y12626050I15558J15556D01*
G01Y15304510D01*
G02X21450020I40020J45490D01*
G01Y12619170D01*
G03X21482230Y12599680I22001J-1D01*
G02X21588090Y12600540I53768J-102682D01*
G03X21619980Y12620200I9889J19654D01*
G01Y14254510D01*
G02X21700020I40020J45490D01*
G01Y12616990D01*
G03X21732860Y12597850I21999J2D01*
G02X21853410Y12594030I57140J-100849D01*
G03X21870330Y12604690I6019J9205D01*
G02X21869980Y12610000I39672J5281D01*
G01Y14048110D01*
G02X21950020I40020J45490D01*
G01Y12612910D01*
X22139980D01*
Y17164510D01*
G02X22220020I40020J45490D01*
G01Y12623040D01*
G03X22250950Y12602930I22000J-4D01*
G02X22348410Y12601370I47047J-105931D01*
G03X22379980Y12621180I9569J19811D01*
G01Y17274510D01*
G02X22460020I40020J45490D01*
G01Y12615840D01*
G03X22493180Y12596880I21999J-3D01*
G02X22606110Y12599500I58813J-99880D01*
G03X22638380Y12618960I10269J19458D01*
G01Y14205020D01*
X22529980Y14313420D01*
Y17044510D01*
G02X22610020I40020J45490D01*
G01Y14346580D01*
X22718420Y14238180D01*
Y12626450D01*
G03X22755980Y12610890I22002J-4D01*
G01X22759980Y12614900D01*
Y14353420D01*
X22669980Y14443420D01*
Y14494510D01*
G02X22753180Y14497500I40019J45491D01*
G01X22750020Y14494290D01*
Y14476580D01*
X22840020Y14386580D01*
Y12641180D01*
X22846020Y12635180D01*
Y12620900D01*
X22887420Y12579500D01*
X22887440Y12579480D01*
G02X22734610Y12405690I-81445J-82471D01*
G01X22731620Y12408020D01*
X22716830D01*
Y12388770D01*
X22746690Y12358910D01*
X22806000D01*
G02X22690090Y12243000I0J-115910D01*
G01Y12302310D01*
X22636790Y12355610D01*
Y12374210D01*
G03X22604770Y12393800I-22000J4D01*
G02X22482060Y12404570I-52770J103200D01*
G01X22479110Y12406800D01*
X22464420D01*
Y12387180D01*
X22492690Y12358910D01*
X22552000D01*
G02X22436090Y12243000I0J-115910D01*
G01Y12302310D01*
X22384380Y12354020D01*
Y12375040D01*
G03X22352110Y12394500I-22001J2D01*
G02X22227610Y12404910I-54115J102501D01*
G03X22210300Y12393360I-6676J-8742D01*
G02X22211120Y12389440I-38712J-10144D01*
G01X22211680Y12385910D01*
X22238690Y12358910D01*
X22298000D01*
G02X22182090Y12243000I0J-115910D01*
G01Y12302310D01*
X22131580Y12352820D01*
Y12381090D01*
X21989060D01*
G03X21981280Y12362310I0J-11001D01*
G01X21984690Y12358910D01*
X22044000D01*
G02X21928090Y12243000I0J-115910D01*
G01Y12302310D01*
X21888100Y12342300D01*
G02X21882260Y12391490I28298J28301D01*
G01X21883880Y12394130D01*
Y12411890D01*
X21868790D01*
X21865700Y12409220D01*
G02X21719950Y12404650I-75699J87779D01*
G03X21702330Y12395140I-6648J-8762D01*
G02X21702420Y12392400I-39932J-2683D01*
G01Y12387180D01*
X21730690Y12358910D01*
X21790000D01*
G02X21674090Y12243000I0J-115910D01*
G01Y12302310D01*
X21622380Y12354020D01*
Y12392400D01*
G02X21622430Y12394400I40025J0D01*
G03X21604900Y12403790I-10986J549D01*
G02X21467150Y12403750I-68902J93209D01*
G01X21464240Y12405900D01*
X21449620D01*
Y12385980D01*
X21476690Y12358910D01*
X21536000D01*
G02X21420090Y12243000I0J-115910D01*
G01Y12302310D01*
X21369580Y12352820D01*
Y12375680D01*
G03X21337120Y12395030I-21998J-1D01*
G02X21212060Y12404570I-55115J101969D01*
G01X21209110Y12406800D01*
X21194420D01*
Y12387180D01*
X21222690Y12358910D01*
X21282000D01*
G02X21166090Y12243000I0J-115910D01*
G01Y12302310D01*
X21114380Y12354020D01*
Y12377650D01*
G03X21081940Y12397010I-21999J-4D01*
G02X20952440Y12412160I-53939J99990D01*
G01X20949310Y12414950D01*
X20934120D01*
Y12399830D01*
X20935740Y12397190D01*
G02X20939270Y12389820I-34142J-20883D01*
G01X20940100Y12387500D01*
X20968690Y12358910D01*
X21028000D01*
G02X20912090Y12243000I0J-115910D01*
G01Y12302310D01*
X20861580Y12352820D01*
Y12383390D01*
X20716760D01*
G03X20708980Y12364610I0J-11001D01*
G01X20714690Y12358910D01*
X20774000D01*
G02X20658090Y12243000I0J-115910D01*
G01Y12302310D01*
X20606380Y12354020D01*
Y12376400D01*
G02X20612260Y12397290I40022J7D01*
G01X20613880Y12399930D01*
Y12414950D01*
X20598690D01*
X20595560Y12412160D01*
G02X20445000Y12411670I-75557J84841D01*
G03X20427960Y12398360I-7266J-8260D01*
G02X20430980Y12390650I-35555J-18373D01*
G01X20431750Y12387850D01*
X20460690Y12358910D01*
X20520000D01*
G02X20404090Y12243000I0J-115910D01*
G01Y12302310D01*
X20352380Y12354020D01*
Y12380000D01*
G02X20356150Y12396960I40034J0D01*
G03X20339110Y12410040I-9965J4658D01*
G02X20196660Y12407010I-73107J86961D01*
G03X20179090Y12396510I-6716J-8712D01*
G02X20179620Y12390420I-39490J-6505D01*
G01X20179660Y12385930D01*
X20206690Y12358910D01*
X20266000D01*
G02X20150090Y12243000I0J-115910D01*
G01Y12302310D01*
X20099580Y12352820D01*
Y12390000D01*
G02X20100260Y12397360I40021J14D01*
G03X20082610Y12408000I-10812J2024D01*
G02X19943270Y12406530I-70617J88999D01*
G01X19940320Y12408780D01*
X19925620D01*
Y12385980D01*
X19952690Y12358910D01*
X20012000D01*
G02X19896090Y12243000I0J-115910D01*
G01Y12302310D01*
X19892690Y12305720D01*
G03X19873910Y12297940I-7779J-7780D01*
G01Y12127090D01*
G37*
G54D18*
X18371000Y12102000D03*
G54D21*
X18654000Y16122000D03*
Y16376000D03*
X19162000Y16122000D03*
Y16376000D03*
X21828000Y17560000D03*
G54D19*
X18625000Y13118000D03*
G54D20*
X18654000Y14090000D03*
X18400000D03*
X18654000Y14344000D03*
X18400000D03*
X18654000Y14598000D03*
Y14852000D03*
Y15106000D03*
X18400000Y14598000D03*
Y14852000D03*
Y15106000D03*
X18654000Y15360000D03*
Y15614000D03*
Y15868000D03*
X18400000Y15360000D03*
Y15614000D03*
Y15868000D03*
Y16122000D03*
Y16376000D03*
Y16630000D03*
Y16884000D03*
Y17138000D03*
Y17392000D03*
Y18154000D03*
X18654000D03*
X18400000Y17900000D03*
X18654000D03*
X18400000Y17646000D03*
X18654000D03*
Y18662000D03*
X18400000Y18408000D03*
X18654000D03*
X19162000Y14090000D03*
Y14344000D03*
Y14598000D03*
Y14852000D03*
Y15106000D03*
Y15868000D03*
Y16630000D03*
Y16884000D03*
Y17138000D03*
Y17392000D03*
X21574000Y17560000D03*
X23314000Y12243000D03*
X23060000D03*
Y12497000D03*
X23988000Y14344000D03*
Y15106000D03*
Y14852000D03*
Y14598000D03*
Y15868000D03*
Y16782000D03*
Y16528000D03*
Y17544000D03*
Y17290000D03*
Y17036000D03*
Y18306000D03*
Y18052000D03*
Y17798000D03*
Y18560000D03*
X24750000Y14090000D03*
X24496000D03*
X24750000Y14344000D03*
X24496000D03*
X24750000Y14598000D03*
Y14852000D03*
Y15106000D03*
X24496000Y14598000D03*
Y14852000D03*
Y15106000D03*
X24750000Y15614000D03*
Y15868000D03*
X24496000D03*
X24750000Y16122000D03*
Y16376000D03*
Y16630000D03*
X24496000Y16122000D03*
Y16376000D03*
Y16630000D03*
X24750000Y16884000D03*
X24496000D03*
X24750000Y17392000D03*
Y17138000D03*
X24496000D03*
Y17392000D03*
Y18154000D03*
X24750000D03*
X24496000Y17900000D03*
X24750000D03*
X24496000Y17646000D03*
X24750000D03*
Y18662000D03*
X24496000Y18408000D03*
X24750000D03*
G54D23*
X22520000Y17520000D03*
G54D22*
X18400000Y18662000D03*
X19162000Y15360000D03*
Y17646000D03*
X23988000Y14090000D03*
Y16274000D03*
X24496000Y18662000D03*
%LPD*%
G75*
G36*
G01X19600220Y12232120D02*
X19669100Y12162610D01*
X19763000Y12243000D01*
X19669100Y12323390D01*
X19600220Y12253880D01*
G03Y12232120I16780J-10880D01*
G37*
G36*
G01X19923100Y12311900D02*
Y12243000D01*
X20015540Y12239460D01*
X20012000Y12331900D01*
X19943100D01*
G03X19923100Y12311900I0J-20000D01*
G37*
G36*
G01X20431100D02*
Y12243000D01*
X20523540Y12239460D01*
X20520000Y12331900D01*
X20451100D01*
G03X20431100Y12311900I0J-20000D01*
G37*
G36*
G01X20177100D02*
Y12243000D01*
X20269540Y12239460D01*
X20266000Y12331900D01*
X20197100D01*
G03X20177100Y12311900I0J-20000D01*
G37*
G36*
G01X20939100D02*
Y12243000D01*
X21031540Y12239460D01*
X21028000Y12331900D01*
X20959100D01*
G03X20939100Y12311900I0J-20000D01*
G37*
G36*
G01X20685100D02*
Y12243000D01*
X20777540Y12239460D01*
X20774000Y12331900D01*
X20705100D01*
G03X20685100Y12311900I0J-20000D01*
G37*
G36*
G01X21193100D02*
Y12243000D01*
X21285540Y12239460D01*
X21282000Y12331900D01*
X21213100D01*
G03X21193100Y12311900I0J-20000D01*
G37*
G36*
G01X21267860Y12608580D02*
X21219140Y12559860D01*
X21282000Y12492000D01*
X21344860Y12559860D01*
X21296140Y12608580D01*
G03X21267860I-14140J-14140D01*
G37*
G36*
G01X21331620Y17391330D02*
X21408900Y17471100D01*
X21320000Y17565000D01*
X21231100Y17471100D01*
X21308380Y17391330D01*
G03X21331620I11620J16270D01*
G37*
G36*
G01X21447100Y12311900D02*
Y12243000D01*
X21539540Y12239460D01*
X21536000Y12331900D01*
X21467100D01*
G03X21447100Y12311900I0J-20000D01*
G37*
G36*
G01X21701100D02*
Y12243000D01*
X21793540Y12239460D01*
X21790000Y12331900D01*
X21721100D01*
G03X21701100Y12311900I0J-20000D01*
G37*
G36*
G01X21955100D02*
Y12243000D01*
X22047540Y12239460D01*
X22044000Y12331900D01*
X21975100D01*
G03X21955100Y12311900I0J-20000D01*
G37*
G36*
G01X22717100D02*
Y12243000D01*
X22809540Y12239460D01*
X22806000Y12331900D01*
X22737100D01*
G03X22717100Y12311900I0J-20000D01*
G37*
G36*
G01X22791860Y12608580D02*
X22743140Y12559860D01*
X22806000Y12492000D01*
X22868860Y12559860D01*
X22820140Y12608580D01*
G03X22791860I-14140J-14140D01*
G37*
G36*
G01X22463100Y12311900D02*
Y12243000D01*
X22555540Y12239460D01*
X22552000Y12331900D01*
X22483100D01*
G03X22463100Y12311900I0J-20000D01*
G37*
G36*
G01X22209100D02*
Y12243000D01*
X22301540Y12239460D01*
X22298000Y12331900D01*
X22229100D01*
G03X22209100Y12311900I0J-20000D01*
G37*
G36*
G01X23479100D02*
Y12243000D01*
X23571540Y12239460D01*
X23568000Y12331900D01*
X23499100D01*
G03X23479100Y12311900I0J-20000D01*
G37*
G36*
G01X23733100D02*
Y12243000D01*
X23825540Y12239460D01*
X23822000Y12331900D01*
X23753100D01*
G03X23733100Y12311900I0J-20000D01*
G37*
G36*
G01X23807860Y12608580D02*
X23759140Y12559860D01*
X23822000Y12492000D01*
X23884860Y12559860D01*
X23836140Y12608580D01*
G03X23807860I-14140J-14140D01*
G37*
G36*
G01X24661100Y15428900D02*
Y15360000D01*
X24753540Y15356460D01*
X24750000Y15448900D01*
X24681100D01*
G03X24661100Y15428900I0J-20000D01*
G37*
G54D10*
X18371000Y12102000D03*
X18879000D03*
X18625000Y13118000D03*
G54D11*
X18654000Y14090000D03*
X18400000D03*
X18654000Y14344000D03*
X18400000D03*
X18654000Y14598000D03*
Y14852000D03*
Y15106000D03*
X18400000Y14598000D03*
Y14852000D03*
Y15106000D03*
X18654000Y15360000D03*
Y15614000D03*
Y15868000D03*
X18400000Y15360000D03*
Y15614000D03*
Y15868000D03*
X18654000Y16122000D03*
Y16376000D03*
Y16630000D03*
X18400000Y16122000D03*
Y16376000D03*
Y16630000D03*
X18654000Y16884000D03*
X18400000D03*
X18654000Y17392000D03*
Y17138000D03*
X18400000D03*
Y17392000D03*
Y18154000D03*
X18654000D03*
X18400000Y17900000D03*
X18654000D03*
X18400000Y17646000D03*
X18654000D03*
Y18662000D03*
X18400000Y18408000D03*
X18654000D03*
X19758000Y12497000D03*
X19162000Y14090000D03*
Y14344000D03*
Y14598000D03*
Y14852000D03*
Y15106000D03*
Y15868000D03*
Y16122000D03*
Y16376000D03*
Y16630000D03*
Y16884000D03*
Y17138000D03*
Y17392000D03*
X20012000Y12243000D03*
X20266000D03*
X20520000D03*
X20012000Y12497000D03*
X20266000D03*
X20520000D03*
X20774000Y12243000D03*
X21028000D03*
X21282000D03*
X21028000Y12497000D03*
X21282000D03*
X21536000Y12243000D03*
X21790000D03*
X22044000D03*
X21536000Y12497000D03*
X21790000D03*
X21828000Y17560000D03*
X21574000D03*
X22806000Y12243000D03*
X22552000D03*
X22298000D03*
X22806000Y12497000D03*
X22552000D03*
X22298000D03*
X23568000Y12243000D03*
X23314000D03*
X23060000D03*
X23568000Y12497000D03*
X23060000D03*
X23822000Y12243000D03*
Y12497000D03*
X23988000Y14344000D03*
Y15106000D03*
Y14852000D03*
Y14598000D03*
Y15868000D03*
Y15614000D03*
Y15360000D03*
Y16782000D03*
Y16528000D03*
Y17544000D03*
Y17290000D03*
Y17036000D03*
Y18306000D03*
Y18052000D03*
Y17798000D03*
Y18560000D03*
X24750000Y14090000D03*
X24496000D03*
X24750000Y14344000D03*
X24496000D03*
X24750000Y14598000D03*
Y14852000D03*
Y15106000D03*
X24496000Y14598000D03*
Y14852000D03*
Y15106000D03*
X24750000Y15360000D03*
Y15614000D03*
Y15868000D03*
X24496000Y15360000D03*
Y15614000D03*
Y15868000D03*
X24750000Y16122000D03*
Y16376000D03*
Y16630000D03*
X24496000Y16122000D03*
Y16376000D03*
Y16630000D03*
X24750000Y16884000D03*
X24496000D03*
X24750000Y17392000D03*
Y17138000D03*
X24496000D03*
Y17392000D03*
Y18154000D03*
X24750000D03*
X24496000Y17900000D03*
X24750000D03*
X24496000Y17646000D03*
X24750000D03*
Y18662000D03*
X24496000Y18408000D03*
X24750000D03*
G54D12*
X18400000Y18662000D03*
X19758000Y12243000D03*
X19162000Y15360000D03*
Y17646000D03*
X20774000Y12497000D03*
X21320000Y17560000D03*
X22044000Y12497000D03*
X23314000D03*
X23988000Y14090000D03*
Y16274000D03*
X24496000Y18662000D03*
G54D13*
X19560000Y16970000D03*
X19890000Y16050000D03*
X20140000Y15820000D03*
X20390000Y16510000D03*
X20910000Y14440000D03*
X20640000Y14720000D03*
X21280000Y15140000D03*
X21150000Y16280000D03*
X21660000Y14300000D03*
X21910000Y14093600D03*
X21560000Y14930000D03*
X21410000Y15350000D03*
X22750000Y15130000D03*
X22710000Y14540000D03*
X22900000Y16760000D03*
X22570000Y17090000D03*
X22420000Y17320000D03*
X22180000Y17210000D03*
X22750000Y17630000D03*
X23172970Y14555000D03*
X23020000Y15820000D03*
X23172970Y15480000D03*
X23020000Y16740000D03*
X23450000Y17200000D03*
G54D14*
X22520000Y17520000D03*
G54D15*
G01X18252740Y12102000D02*
X18371000D01*
G01X18890000Y12113000D02*
X18879000Y12102000D01*
G01X18371000Y11983740D02*
Y12102000D01*
G01D02*
Y12220260D01*
G01Y12102000D02*
X18489260D01*
G01X19037390Y16376000D02*
X19162000D01*
G01X19037390Y16122000D02*
X19162000D01*
G01X18654000Y16251390D02*
Y16376000D01*
G01D02*
X18778610D01*
G01X18654000Y16122000D02*
Y16246610D01*
G01Y16122000D02*
X18778610D01*
G01X19758000Y12497000D02*
Y12621610D01*
G01X19633390Y12497000D02*
X19758000D01*
G01X19560000Y16970000D02*
X19558000Y16968000D01*
Y12302000D01*
X19617000Y12243000D01*
X19758000D01*
G01X19162000Y16251390D02*
Y16376000D01*
G01D02*
X19286610D01*
G01X19162000Y16122000D02*
Y16246610D01*
G01Y16122000D02*
X19286610D01*
G01X19890000Y16050000D02*
Y12560000D01*
G01X19885600Y12415600D02*
Y12369400D01*
X20012000Y12243000D01*
G01X20390000Y16510000D02*
Y12570000D01*
G01X20392400Y12380000D02*
Y12370600D01*
X20520000Y12243000D01*
G01X20140000Y15820000D02*
Y12550000D01*
G01X20139600Y12390000D02*
Y12369400D01*
X20266000Y12243000D01*
G01X20907900Y14437900D02*
Y12570000D01*
G01X20901600Y12376300D02*
Y12369400D01*
X21028000Y12243000D01*
G01X20774000D02*
X20646400Y12370600D01*
Y12376400D01*
G01X20640000Y12610000D02*
Y14720000D01*
G01X21150000Y16280000D02*
Y12570000D01*
G01X21154400Y12415600D02*
Y12370600D01*
X21282000Y12243000D01*
G01X21280000Y15140000D02*
Y12620600D01*
X21282000Y12618600D01*
Y12497000D01*
G01X20910000Y14440000D02*
X20907900Y14437900D01*
G01D02*
Y14440000D01*
G01X21560000Y14930000D02*
Y15480000D01*
X21320000Y15720000D01*
Y17560000D01*
G01X21410000Y15350000D02*
Y12560000D01*
G01X21409600Y12400400D02*
Y12369400D01*
X21536000Y12243000D01*
G01X21660000Y14300000D02*
Y12590000D01*
G01X21662400Y12392400D02*
Y12370600D01*
X21790000Y12243000D01*
G01X21910000Y14093600D02*
Y12610000D01*
G01X21916400Y12370600D02*
X22044000Y12243000D01*
G01X21828000Y17435390D02*
Y17560000D01*
G01D02*
Y17684610D01*
G01Y17560000D02*
X21952610D01*
G01X22570000Y17090000D02*
Y14330000D01*
X22678400Y14221600D01*
Y12568410D01*
G01X22676810Y12436810D02*
Y12372190D01*
X22806000Y12243000D01*
G01X22710000Y14540000D02*
Y14460000D01*
X22800000Y14370000D01*
Y12624600D01*
X22806000Y12618600D01*
Y12497000D01*
G01X22420000Y17320000D02*
Y12564380D01*
G01X22424400Y12404400D02*
Y12370600D01*
X22552000Y12243000D01*
G01X22180000Y17210000D02*
Y12570010D01*
G01X22171600Y12383160D02*
Y12369400D01*
X22298000Y12243000D01*
G01X22750000Y17630000D02*
Y15130000D01*
G01X22520000Y17382690D02*
Y17520000D01*
G01D02*
Y17657310D01*
G01X22382690Y17520000D02*
X22520000D01*
G01D02*
X22657310D01*
G01X22900000Y16760000D02*
Y14570000D01*
X23441600Y14028400D01*
Y12611610D01*
G01Y12370000D02*
Y12369400D01*
X23568000Y12243000D01*
G01X23822000D02*
X23695600Y12369400D01*
Y12415600D01*
G01Y12585600D02*
Y14032370D01*
X23172970Y14555000D01*
G01X23822000Y12497000D02*
Y12708000D01*
X23780000Y12750000D01*
Y14180000D01*
X23172970Y14787030D01*
Y15480000D01*
G01X23020000Y15820000D02*
Y16740000D01*
G01X24750000Y15360000D02*
X24622400Y15487600D01*
G01X24420000D02*
X24060000D01*
G01X23907600D02*
X23792400D01*
X23450000Y15830000D01*
Y17200000D01*
G54D16*
G01X19890000Y12560000D02*
X19885600Y12555600D01*
Y12415600D01*
G01X20390000Y12570000D02*
X20392400Y12567600D01*
Y12380000D01*
G01X20140000Y12550000D02*
X20139600Y12549600D01*
Y12390000D01*
G01X20907900Y12570000D02*
X20901600Y12563700D01*
Y12376300D01*
G01X20646400Y12376400D02*
Y12603600D01*
X20640000Y12610000D01*
G01X21150000Y12570000D02*
X21154400Y12565600D01*
Y12415600D01*
G01X21410000Y12560000D02*
X21409600Y12559600D01*
Y12400400D01*
G01X21660000Y12590000D02*
X21662400Y12587600D01*
Y12392400D01*
G01X21910000Y12610000D02*
X21916400Y12603600D01*
Y12370600D01*
G01X22678400Y12568410D02*
Y12438400D01*
X22676810Y12436810D01*
G01X22420000Y12564380D02*
X22424400Y12559980D01*
Y12404400D01*
G01X22180000Y12570010D02*
X22171600Y12561610D01*
Y12383160D01*
G01X23441600Y12611610D02*
Y12370000D01*
G01X23695600Y12415600D02*
Y12585600D01*
G01X24622400Y15487600D02*
X24420000D01*
G01X24060000D02*
X23907600D01*
G54D17*
G01X18654000Y16884000D02*
X18890000Y16648000D01*
Y12113000D01*
G01X18654000Y17392000D02*
X18820000Y17226000D01*
Y17050000D01*
X18654000Y16884000D01*
M02*
