*
G04 Mass Parameters ***
*
G04 Image ***
*
%IN\\CTNCLU03.CTN.ST.COM\MLDCLAB\USERS\DANIELE SFILIO\MY DOCUMENTS\DESIGN\VSS\MC\3PH\0038.11\HARDWARE\STM32 EVAL BOARD_REV2.DRD*%
%ICAS*%
%MOIN*%
%IPPOS*%
%ASAXBY*%
G74*%FSLAN2X34Y34*%
*
G04 Aperture Definitions ***
*
%ADD10C,0.1340*%
%ADD11R,0.0550X0.0370*%
%ADD12R,0.0320X0.0380*%
%ADD13R,0.0380X0.0320*%
%ADD14R,0.0984X0.0354*%
%ADD15R,0.0512X0.1575*%
%ADD16R,0.0480X0.0860*%
%ADD17R,0.0860X0.0480*%
%ADD18C,0.0750*%
%ADD19R,0.0750X0.0750*%
%ADD20O,0.1130X0.0280*%
%ADD21R,0.1130X0.0280*%
%ADD22C,0.1181*%
%ADD23C,0.0600*%
%ADD24R,0.0600X0.0600*%
%ADD25O,0.1900X0.1500*%
%ADD26O,0.1500X0.1900*%
%ADD27C,0.1100*%
%ADD28R,0.0886X0.0197*%
%ADD29R,0.1575X0.0787*%
%ADD30R,0.1378X0.0787*%
%ADD31R,0.0760X0.0480*%
%ADD32R,0.0480X0.0760*%
%ADD33C,0.0730*%
%ADD34R,0.0730X0.0730*%
%ADD35O,0.1000X0.0250*%
%ADD36R,0.1000X0.0250*%
%ADD37C,0.1600*%
%ADD38R,0.0500X0.0340*%
%ADD39R,0.0400X0.0340*%
%ADD40R,0.0440X0.0940*%
%ADD41C,0.0650*%
%ADD42C,0.0354*%
%ADD43C,0.0315*%
%ADD44C,0.0020*%
%ADD45O,0.0512X0.0197*%
%ADD46R,0.0512X0.0197*%
%ADD47O,0.0250X0.0940*%
%ADD48R,0.0250X0.0940*%
%ADD49O,0.0900X0.0160*%
%ADD50R,0.0900X0.0160*%
%ADD51R,0.0945X0.0236*%
%ADD52R,0.0394X0.0236*%
%ADD53C,0.0800*%
%ADD54R,0.1457X0.0512*%
%ADD55O,0.0700X0.0110*%
%ADD56R,0.0700X0.0110*%
%ADD57O,0.0110X0.0700*%
%ADD58R,0.0110X0.0700*%
%ADD59R,0.0197X0.0512*%
%ADD60R,0.0748X0.0512*%
%ADD61R,0.1000X0.0900*%
%ADD62C,0.0240*%
%ADD63C,0.0080*%
%ADD64C,0.0120*%
%ADD65C,0.0010*%
%ADD66C,0.0060*%
%ADD67C,0.0240*%
%ADD68C,0.0240*%
%ADD69C,0.0200*%
%ADD70C,0.0300*%
%ADD71C,0.0150*%
%ADD72C,0.0250*%
%ADD73C,0.0100*%
%ADD74C,0.0400*%
%ADD75C,0.0240*%
%ADD76C,0.0700*%
%ADD77C,0.1340*%
%ADD78C,0.0750*%
%ADD79R,0.0750X0.0750*%
%ADD80C,0.1181*%
%ADD81C,0.0600*%
%ADD82R,0.0600X0.0600*%
%ADD83O,0.1900X0.1500*%
%ADD84O,0.1500X0.1900*%
%ADD85C,0.1100*%
%ADD86C,0.0730*%
%ADD87R,0.0730X0.0730*%
%ADD88C,0.1600*%
%ADD89C,0.0650*%
%ADD90C,0.0354*%
%ADD91C,0.0315*%
%ADD92C,0.0800*%
%ADD93C,0.0240*%
%ADD94C,0.0500*%
%ADD95C,0.1180*%
%ADD96C,0.0350*%
%ADD97C,0.0310*%
%ADD98C,0.1339*%
%ADD99R,0.0560X0.0380*%
%ADD100R,0.0320X0.0380*%
%ADD101R,0.0380X0.0320*%
%ADD102R,0.0990X0.0360*%
%ADD103R,0.0520X0.1580*%
%ADD104R,0.0490X0.0870*%
%ADD105R,0.0870X0.0490*%
%ADD106C,0.0760*%
%ADD107R,0.0760X0.0760*%
%ADD108O,0.1140X0.0290*%
%ADD109R,0.1140X0.0290*%
%ADD110C,0.0910*%
%ADD111C,0.0610*%
%ADD112R,0.0610X0.0610*%
%ADD113O,0.1910X0.1510*%
%ADD114O,0.1510X0.1910*%
%ADD115C,0.1110*%
%ADD116R,0.0925X0.0216*%
%ADD117R,0.1614X0.0827*%
%ADD118R,0.1417X0.0827*%
%ADD119R,0.0760X0.0480*%
%ADD120R,0.0480X0.0760*%
%ADD121R,0.0740X0.0740*%
%ADD122O,0.1000X0.0250*%
%ADD123R,0.1000X0.0250*%
%ADD124C,0.1500*%
%ADD125R,0.0500X0.0340*%
%ADD126R,0.0400X0.0340*%
%ADD127R,0.0500X0.1000*%
%ADD128C,0.0660*%
%ADD129C,0.0039*%
%ADD130O,0.0520X0.0210*%
%ADD131R,0.0520X0.0210*%
%ADD132O,0.0250X0.0940*%
%ADD133R,0.0250X0.0940*%
%ADD134O,0.0900X0.0160*%
%ADD135R,0.0900X0.0160*%
%ADD136R,0.0950X0.0250*%
%ADD137R,0.0400X0.0250*%
%ADD138C,0.0810*%
%ADD139R,0.1470X0.0520*%
%ADD140O,0.0700X0.0110*%
%ADD141R,0.0700X0.0110*%
%ADD142O,0.0110X0.0700*%
%ADD143R,0.0110X0.0700*%
%ADD144R,0.0197X0.0512*%
%ADD145R,0.0760X0.0520*%
%ADD146R,0.1010X0.0910*%
%ADD147C,0.0250*%
%ADD148C,0.0250*%
%ADD149C,0.0250*%
%ADD150R,0.0550X0.0370*%
%ADD151R,0.0984X0.0354*%
%ADD152R,0.0480X0.0860*%
%ADD153R,0.0860X0.0480*%
%ADD154O,0.1130X0.0280*%
%ADD155R,0.1130X0.0280*%
%ADD156C,0.0700*%
%ADD157R,0.0450X0.0950*%
%ADD158C,0.0500*%
%ADD159O,0.0512X0.0197*%
%ADD160R,0.0512X0.0197*%
%ADD161R,0.1457X0.0512*%
%ADD162R,0.1000X0.0900*%
%ADD163C,0.0039*%
%ADD164C,0.0050*%
%ADD165C,0.0049*%
%ADD166C,0.0015*%
%ADD167C,0.0160*%
%ADD168C,0.0210*%
%ADD169C,0.0197*%
%ADD170C,0.0130*%
%ADD171C,0.0070*%
%ADD172C,0.0580*%
%ADD173R,0.0580X0.0580*%
%ADD174R,0.0700X0.0700*%
%ADD175C,0.1200*%
%ADD176C,0.0630*%
%ADD177R,0.0630X0.0630*%
%ADD178R,0.0520X0.0520*%
%ADD179R,0.0440X0.0940*%
%ADD180R,0.0866X0.0236*%
%ADD181R,0.0370X0.0236*%
%ADD182R,0.1496X0.0551*%
%ADD183R,0.0197X0.0394*%
%ADD184C,0.0520*%
%ADD185R,0.0748X0.0512*%
%ADD186C,0.0030*%
*
G04 Plot Data ***
*
G54D73*
G01X-0006156Y-0106958D02*
X-0006656D01*
X-0006740Y-0106791D01*
Y-0106624D01*
X-0006656Y-0106458D01*
X-0006156D01*
X-0006073Y-0106624D01*
Y-0106791D01*
X-0006406Y-0107458D01*
X-0007106Y-0106958D02*
X-0007023Y-0106791D01*
Y-0106624D01*
X-0007106Y-0106458D01*
X-0007606D01*
X-0007690Y-0106624D01*
Y-0106791D01*
X-0007606Y-0106958D01*
X-0007106D01*
X-0007023Y-0107124D01*
Y-0107291D01*
X-0007106Y-0107458D01*
X-0007606D01*
X-0007690Y-0107291D01*
Y-0107124D01*
X-0007606Y-0106958D01*
X-0008056D02*
X-0007973Y-0106791D01*
Y-0106624D01*
X-0008056Y-0106458D01*
X-0008556D01*
X-0008640Y-0106624D01*
Y-0106791D01*
X-0008556Y-0106958D01*
X-0008056D01*
X-0007973Y-0107124D01*
Y-0107291D01*
X-0008056Y-0107458D01*
X-0008556D01*
X-0008640Y-0107291D01*
Y-0107124D01*
X-0008556Y-0106958D01*
X-0018469Y-0107458D02*
X-0019052D01*
Y-0106458D01*
X-0019335Y-0107124D02*
X-0020002D01*
X-0019335Y-0107458D02*
Y-0106958D01*
X-0019585Y-0106458D01*
X-0019752D01*
X-0020002Y-0106958D01*
Y-0107458D01*
X-0020619D02*
Y-0106458D01*
X-0020285D02*
X-0020952D01*
X-0021819Y-0107458D02*
X-0021902Y-0107291D01*
Y-0106624D01*
X-0021819Y-0106458D01*
X-0021319D01*
X-0021235Y-0106624D01*
Y-0107291D01*
X-0021319Y-0107458D01*
X-0021819D01*
X-0022519D02*
Y-0106458D01*
X-0022185D02*
X-0022852D01*
X-0006517Y-0105486D02*
X-0006406Y-0105597D01*
X-0006184D01*
X-0006073Y-0105486D01*
Y-0105374D01*
X-0006295Y-0105152D01*
X-0006073Y-0104930D01*
X-0006517D01*
X-0006773Y-0105597D02*
X-0006995D01*
X-0006884D02*
Y-0104930D01*
X-0006995Y-0105041D01*
X-0019912Y-0105597D02*
Y-0105263D01*
X-0019690Y-0105597D02*
Y-0105263D01*
X-0019745Y-0105152D01*
X-0019856D01*
X-0019912Y-0105263D01*
X-0019967Y-0105152D01*
X-0020079D01*
X-0020134Y-0105263D01*
Y-0105597D01*
X-0020612D02*
Y-0105263D01*
X-0020390Y-0105597D02*
Y-0105263D01*
X-0020445Y-0105152D01*
X-0020556D01*
X-0020612Y-0105263D01*
X-0020667Y-0105152D01*
X-0020779D01*
X-0020834Y-0105263D01*
Y-0105597D01*
X-0022317D02*
X-0022429Y-0105486D01*
X-0022484Y-0105374D01*
Y-0105152D01*
X-0022429Y-0105041D01*
X-0022317Y-0104930D01*
X-0022206D01*
X-0022095Y-0105041D01*
X-0022040Y-0105152D01*
Y-0105374D01*
X-0022095Y-0105486D01*
X-0022206Y-0105597D01*
X-0022317D01*
X-0023017D02*
X-0023129Y-0105486D01*
X-0023184Y-0105374D01*
Y-0105152D01*
X-0023129Y-0105041D01*
X-0023017Y-0104930D01*
X-0022906D01*
X-0022795Y-0105041D01*
X-0022740Y-0105152D01*
Y-0105374D01*
X-0022795Y-0105486D01*
X-0022906Y-0105597D01*
X-0023017D01*
X-0023717D02*
X-0023829Y-0105486D01*
X-0023884Y-0105374D01*
Y-0105152D01*
X-0023829Y-0105041D01*
X-0023717Y-0104930D01*
X-0023606D01*
X-0023495Y-0105041D01*
X-0023440Y-0105152D01*
Y-0105374D01*
X-0023495Y-0105486D01*
X-0023606Y-0105597D01*
X-0023717D01*
X-0024251D02*
X-0024140D01*
Y-0105486D01*
X-0024251D01*
Y-0105597D01*
X-0025062Y-0105486D02*
X-0024951Y-0105597D01*
X-0024729D01*
X-0024617Y-0105486D01*
Y-0105374D01*
X-0024840Y-0105152D01*
X-0024617Y-0104930D01*
X-0025062D01*
X-0006073Y-0104097D02*
X-0006517D01*
X-0006073Y-0103652D01*
Y-0103541D01*
X-0006129Y-0103430D01*
X-0006462D01*
X-0006517Y-0103541D01*
X-0019912Y-0104097D02*
Y-0103763D01*
X-0019690Y-0104097D02*
Y-0103763D01*
X-0019745Y-0103652D01*
X-0019856D01*
X-0019912Y-0103763D01*
X-0019967Y-0103652D01*
X-0020079D01*
X-0020134Y-0103763D01*
Y-0104097D01*
X-0020612D02*
Y-0103763D01*
X-0020390Y-0104097D02*
Y-0103763D01*
X-0020445Y-0103652D01*
X-0020556D01*
X-0020612Y-0103763D01*
X-0020667Y-0103652D01*
X-0020779D01*
X-0020834Y-0103763D01*
Y-0104097D01*
X-0022317D02*
X-0022429Y-0103986D01*
X-0022484Y-0103874D01*
Y-0103652D01*
X-0022429Y-0103541D01*
X-0022317Y-0103430D01*
X-0022206D01*
X-0022095Y-0103541D01*
X-0022040Y-0103652D01*
Y-0103874D01*
X-0022095Y-0103986D01*
X-0022206Y-0104097D01*
X-0022317D01*
X-0023017D02*
X-0023129Y-0103986D01*
X-0023184Y-0103874D01*
Y-0103652D01*
X-0023129Y-0103541D01*
X-0023017Y-0103430D01*
X-0022906D01*
X-0022795Y-0103541D01*
X-0022740Y-0103652D01*
Y-0103874D01*
X-0022795Y-0103986D01*
X-0022906Y-0104097D01*
X-0023017D01*
X-0023884Y-0103986D02*
X-0023773Y-0104097D01*
X-0023551D01*
X-0023440Y-0103986D01*
Y-0103874D01*
X-0023662Y-0103652D01*
X-0023440Y-0103430D01*
X-0023884D01*
X-0024251Y-0104097D02*
X-0024140D01*
Y-0103986D01*
X-0024251D01*
Y-0104097D01*
X-0024617D02*
X-0025062D01*
X-0024617Y-0103652D01*
Y-0103541D01*
X-0024673Y-0103430D01*
X-0025006D01*
X-0025062Y-0103541D01*
X-0006073Y-0102597D02*
X-0006517D01*
X-0006073Y-0102152D01*
Y-0102041D01*
X-0006129Y-0101930D01*
X-0006462D01*
X-0006517Y-0102041D01*
X-0019912Y-0102597D02*
Y-0102263D01*
X-0019690Y-0102597D02*
Y-0102263D01*
X-0019745Y-0102152D01*
X-0019856D01*
X-0019912Y-0102263D01*
X-0019967Y-0102152D01*
X-0020079D01*
X-0020134Y-0102263D01*
Y-0102597D01*
X-0020612D02*
Y-0102263D01*
X-0020390Y-0102597D02*
Y-0102263D01*
X-0020445Y-0102152D01*
X-0020556D01*
X-0020612Y-0102263D01*
X-0020667Y-0102152D01*
X-0020779D01*
X-0020834Y-0102263D01*
Y-0102597D01*
X-0022317D02*
X-0022429Y-0102486D01*
X-0022484Y-0102374D01*
Y-0102152D01*
X-0022429Y-0102041D01*
X-0022317Y-0101930D01*
X-0022206D01*
X-0022095Y-0102041D01*
X-0022040Y-0102152D01*
Y-0102374D01*
X-0022095Y-0102486D01*
X-0022206Y-0102597D01*
X-0022317D01*
X-0023017D02*
X-0023129Y-0102486D01*
X-0023184Y-0102374D01*
Y-0102152D01*
X-0023129Y-0102041D01*
X-0023017Y-0101930D01*
X-0022906D01*
X-0022795Y-0102041D01*
X-0022740Y-0102152D01*
Y-0102374D01*
X-0022795Y-0102486D01*
X-0022906Y-0102597D01*
X-0023017D01*
X-0023717D02*
X-0023829Y-0102486D01*
X-0023884Y-0102374D01*
Y-0102152D01*
X-0023829Y-0102041D01*
X-0023717Y-0101930D01*
X-0023606D01*
X-0023495Y-0102041D01*
X-0023440Y-0102152D01*
Y-0102374D01*
X-0023495Y-0102486D01*
X-0023606Y-0102597D01*
X-0023717D01*
X-0024251D02*
X-0024140D01*
Y-0102486D01*
X-0024251D01*
Y-0102597D01*
X-0024617D02*
X-0025062D01*
X-0024617Y-0102152D01*
Y-0102041D01*
X-0024673Y-0101930D01*
X-0025006D01*
X-0025062Y-0102041D01*
X-0006073Y-0101097D02*
X-0006517D01*
X-0006073Y-0100652D01*
Y-0100541D01*
X-0006129Y-0100430D01*
X-0006462D01*
X-0006517Y-0100541D01*
X-0019912Y-0101097D02*
Y-0100763D01*
X-0019690Y-0101097D02*
Y-0100763D01*
X-0019745Y-0100652D01*
X-0019856D01*
X-0019912Y-0100763D01*
X-0019967Y-0100652D01*
X-0020079D01*
X-0020134Y-0100763D01*
Y-0101097D01*
X-0020612D02*
Y-0100763D01*
X-0020390Y-0101097D02*
Y-0100763D01*
X-0020445Y-0100652D01*
X-0020556D01*
X-0020612Y-0100763D01*
X-0020667Y-0100652D01*
X-0020779D01*
X-0020834Y-0100763D01*
Y-0101097D01*
X-0022095Y-0100763D02*
X-0022429D01*
X-0022484Y-0100652D01*
Y-0100541D01*
X-0022429Y-0100430D01*
X-0022095D01*
X-0022040Y-0100541D01*
Y-0100652D01*
X-0022262Y-0101097D01*
X-0022795Y-0100763D02*
X-0023129D01*
X-0023184Y-0100652D01*
Y-0100541D01*
X-0023129Y-0100430D01*
X-0022795D01*
X-0022740Y-0100541D01*
Y-0100652D01*
X-0022962Y-0101097D01*
X-0023440Y-0100874D02*
X-0023884D01*
X-0023662Y-0100430D01*
X-0023551D01*
Y-0101097D01*
X-0024251D02*
X-0024140D01*
Y-0100986D01*
X-0024251D01*
Y-0101097D01*
X-0024617D02*
X-0024840D01*
X-0024729D02*
Y-0100430D01*
X-0024840Y-0100541D01*
X-0006462Y-0099263D02*
X-0006129D01*
X-0006073Y-0099374D01*
Y-0099486D01*
X-0006129Y-0099597D01*
X-0006462D01*
X-0006517Y-0099486D01*
Y-0099374D01*
X-0006295Y-0098930D01*
X-0019912Y-0099597D02*
Y-0099263D01*
X-0019690Y-0099597D02*
Y-0099263D01*
X-0019745Y-0099152D01*
X-0019856D01*
X-0019912Y-0099263D01*
X-0019967Y-0099152D01*
X-0020079D01*
X-0020134Y-0099263D01*
Y-0099597D01*
X-0020612D02*
Y-0099263D01*
X-0020390Y-0099597D02*
Y-0099263D01*
X-0020445Y-0099152D01*
X-0020556D01*
X-0020612Y-0099263D01*
X-0020667Y-0099152D01*
X-0020779D01*
X-0020834Y-0099263D01*
Y-0099597D01*
X-0022317D02*
X-0022429Y-0099486D01*
X-0022484Y-0099374D01*
Y-0099152D01*
X-0022429Y-0099041D01*
X-0022317Y-0098930D01*
X-0022206D01*
X-0022095Y-0099041D01*
X-0022040Y-0099152D01*
Y-0099374D01*
X-0022095Y-0099486D01*
X-0022206Y-0099597D01*
X-0022317D01*
X-0023017D02*
X-0023129Y-0099486D01*
X-0023184Y-0099374D01*
Y-0099152D01*
X-0023129Y-0099041D01*
X-0023017Y-0098930D01*
X-0022906D01*
X-0022795Y-0099041D01*
X-0022740Y-0099152D01*
Y-0099374D01*
X-0022795Y-0099486D01*
X-0022906Y-0099597D01*
X-0023017D01*
X-0023440D02*
X-0023884D01*
X-0023440Y-0099152D01*
Y-0099041D01*
X-0023495Y-0098930D01*
X-0023829D01*
X-0023884Y-0099041D01*
X-0024251Y-0099597D02*
X-0024140D01*
Y-0099486D01*
X-0024251D01*
Y-0099597D01*
X-0024617D02*
X-0024840D01*
X-0024729D02*
Y-0098930D01*
X-0024840Y-0099041D01*
X-0006073Y-0097874D02*
X-0006517D01*
X-0006295Y-0097430D01*
X-0006184D01*
Y-0098097D01*
X-0019912D02*
Y-0097763D01*
X-0019690Y-0098097D02*
Y-0097763D01*
X-0019745Y-0097652D01*
X-0019856D01*
X-0019912Y-0097763D01*
X-0019967Y-0097652D01*
X-0020079D01*
X-0020134Y-0097763D01*
Y-0098097D01*
X-0020612D02*
Y-0097763D01*
X-0020390Y-0098097D02*
Y-0097763D01*
X-0020445Y-0097652D01*
X-0020556D01*
X-0020612Y-0097763D01*
X-0020667Y-0097652D01*
X-0020779D01*
X-0020834Y-0097763D01*
Y-0098097D01*
X-0022317D02*
X-0022429Y-0097986D01*
X-0022484Y-0097874D01*
Y-0097652D01*
X-0022429Y-0097541D01*
X-0022317Y-0097430D01*
X-0022206D01*
X-0022095Y-0097541D01*
X-0022040Y-0097652D01*
Y-0097874D01*
X-0022095Y-0097986D01*
X-0022206Y-0098097D01*
X-0022317D01*
X-0023017D02*
X-0023129Y-0097986D01*
X-0023184Y-0097874D01*
Y-0097652D01*
X-0023129Y-0097541D01*
X-0023017Y-0097430D01*
X-0022906D01*
X-0022795Y-0097541D01*
X-0022740Y-0097652D01*
Y-0097874D01*
X-0022795Y-0097986D01*
X-0022906Y-0098097D01*
X-0023017D01*
X-0023717D02*
X-0023829Y-0097986D01*
X-0023884Y-0097874D01*
Y-0097652D01*
X-0023829Y-0097541D01*
X-0023717Y-0097430D01*
X-0023606D01*
X-0023495Y-0097541D01*
X-0023440Y-0097652D01*
Y-0097874D01*
X-0023495Y-0097986D01*
X-0023606Y-0098097D01*
X-0023717D01*
X-0024251D02*
X-0024140D01*
Y-0097986D01*
X-0024251D01*
Y-0098097D01*
X-0024617D02*
X-0024840D01*
X-0024729D02*
Y-0097430D01*
X-0024840Y-0097541D01*
X-0006073Y-0096597D02*
X-0006517D01*
X-0006073Y-0096152D01*
Y-0096041D01*
X-0006129Y-0095930D01*
X-0006462D01*
X-0006517Y-0096041D01*
X-0006773Y-0096597D02*
X-0006995D01*
X-0006884D02*
Y-0095930D01*
X-0006995Y-0096041D01*
X-0019912Y-0096597D02*
Y-0096263D01*
X-0019690Y-0096597D02*
Y-0096263D01*
X-0019745Y-0096152D01*
X-0019856D01*
X-0019912Y-0096263D01*
X-0019967Y-0096152D01*
X-0020079D01*
X-0020134Y-0096263D01*
Y-0096597D01*
X-0020612D02*
Y-0096263D01*
X-0020390Y-0096597D02*
Y-0096263D01*
X-0020445Y-0096152D01*
X-0020556D01*
X-0020612Y-0096263D01*
X-0020667Y-0096152D01*
X-0020779D01*
X-0020834Y-0096263D01*
Y-0096597D01*
X-0022317D02*
X-0022429Y-0096486D01*
X-0022484Y-0096374D01*
Y-0096152D01*
X-0022429Y-0096041D01*
X-0022317Y-0095930D01*
X-0022206D01*
X-0022095Y-0096041D01*
X-0022040Y-0096152D01*
Y-0096374D01*
X-0022095Y-0096486D01*
X-0022206Y-0096597D01*
X-0022317D01*
X-0023017D02*
X-0023129Y-0096486D01*
X-0023184Y-0096374D01*
Y-0096152D01*
X-0023129Y-0096041D01*
X-0023017Y-0095930D01*
X-0022906D01*
X-0022795Y-0096041D01*
X-0022740Y-0096152D01*
Y-0096374D01*
X-0022795Y-0096486D01*
X-0022906Y-0096597D01*
X-0023017D01*
X-0023717D02*
X-0023829Y-0096486D01*
X-0023884Y-0096374D01*
Y-0096152D01*
X-0023829Y-0096041D01*
X-0023717Y-0095930D01*
X-0023606D01*
X-0023495Y-0096041D01*
X-0023440Y-0096152D01*
Y-0096374D01*
X-0023495Y-0096486D01*
X-0023606Y-0096597D01*
X-0023717D01*
X-0024251D02*
X-0024140D01*
Y-0096486D01*
X-0024251D01*
Y-0096597D01*
X-0024617D02*
X-0024840D01*
X-0024729D02*
Y-0095930D01*
X-0024840Y-0096041D01*
X-0006129Y-0094763D02*
X-0006073Y-0094652D01*
Y-0094541D01*
X-0006129Y-0094430D01*
X-0006462D01*
X-0006517Y-0094541D01*
Y-0094652D01*
X-0006462Y-0094763D01*
X-0006129D01*
X-0006073Y-0094874D01*
Y-0094986D01*
X-0006129Y-0095097D01*
X-0006462D01*
X-0006517Y-0094986D01*
Y-0094874D01*
X-0006462Y-0094763D01*
X-0006773Y-0095097D02*
X-0007217D01*
X-0006773Y-0094652D01*
Y-0094541D01*
X-0006829Y-0094430D01*
X-0007162D01*
X-0007217Y-0094541D01*
X-0007917Y-0094986D02*
X-0007806Y-0095097D01*
X-0007584D01*
X-0007473Y-0094986D01*
Y-0094874D01*
X-0007695Y-0094652D01*
X-0007473Y-0094430D01*
X-0007917D01*
X-0019912Y-0095097D02*
Y-0094763D01*
X-0019690Y-0095097D02*
Y-0094763D01*
X-0019745Y-0094652D01*
X-0019856D01*
X-0019912Y-0094763D01*
X-0019967Y-0094652D01*
X-0020079D01*
X-0020134Y-0094763D01*
Y-0095097D01*
X-0020612D02*
Y-0094763D01*
X-0020390Y-0095097D02*
Y-0094763D01*
X-0020445Y-0094652D01*
X-0020556D01*
X-0020612Y-0094763D01*
X-0020667Y-0094652D01*
X-0020779D01*
X-0020834Y-0094763D01*
Y-0095097D01*
X-0022317D02*
X-0022429Y-0094986D01*
X-0022484Y-0094874D01*
Y-0094652D01*
X-0022429Y-0094541D01*
X-0022317Y-0094430D01*
X-0022206D01*
X-0022095Y-0094541D01*
X-0022040Y-0094652D01*
Y-0094874D01*
X-0022095Y-0094986D01*
X-0022206Y-0095097D01*
X-0022317D01*
X-0023017D02*
X-0023129Y-0094986D01*
X-0023184Y-0094874D01*
Y-0094652D01*
X-0023129Y-0094541D01*
X-0023017Y-0094430D01*
X-0022906D01*
X-0022795Y-0094541D01*
X-0022740Y-0094652D01*
Y-0094874D01*
X-0022795Y-0094986D01*
X-0022906Y-0095097D01*
X-0023017D01*
X-0023717D02*
X-0023829Y-0094986D01*
X-0023884Y-0094874D01*
Y-0094652D01*
X-0023829Y-0094541D01*
X-0023717Y-0094430D01*
X-0023606D01*
X-0023495Y-0094541D01*
X-0023440Y-0094652D01*
Y-0094874D01*
X-0023495Y-0094986D01*
X-0023606Y-0095097D01*
X-0023717D01*
X-0024251D02*
X-0024140D01*
Y-0094986D01*
X-0024251D01*
Y-0095097D01*
X-0024617D02*
X-0024840D01*
X-0024729D02*
Y-0094430D01*
X-0024840Y-0094541D01*
X-0006073Y-0093597D02*
X-0006295D01*
X-0006184D02*
Y-0092930D01*
X-0006295Y-0093041D01*
X-0019912Y-0093597D02*
Y-0093263D01*
X-0019690Y-0093597D02*
Y-0093263D01*
X-0019745Y-0093152D01*
X-0019856D01*
X-0019912Y-0093263D01*
X-0019967Y-0093152D01*
X-0020079D01*
X-0020134Y-0093263D01*
Y-0093597D01*
X-0020612D02*
Y-0093263D01*
X-0020390Y-0093597D02*
Y-0093263D01*
X-0020445Y-0093152D01*
X-0020556D01*
X-0020612Y-0093263D01*
X-0020667Y-0093152D01*
X-0020779D01*
X-0020834Y-0093263D01*
Y-0093597D01*
X-0022317D02*
X-0022429Y-0093486D01*
X-0022484Y-0093374D01*
Y-0093152D01*
X-0022429Y-0093041D01*
X-0022317Y-0092930D01*
X-0022206D01*
X-0022095Y-0093041D01*
X-0022040Y-0093152D01*
Y-0093374D01*
X-0022095Y-0093486D01*
X-0022206Y-0093597D01*
X-0022317D01*
X-0023017D02*
X-0023129Y-0093486D01*
X-0023184Y-0093374D01*
Y-0093152D01*
X-0023129Y-0093041D01*
X-0023017Y-0092930D01*
X-0022906D01*
X-0022795Y-0093041D01*
X-0022740Y-0093152D01*
Y-0093374D01*
X-0022795Y-0093486D01*
X-0022906Y-0093597D01*
X-0023017D01*
X-0023495Y-0093263D02*
X-0023829D01*
X-0023884Y-0093152D01*
Y-0093041D01*
X-0023829Y-0092930D01*
X-0023495D01*
X-0023440Y-0093041D01*
Y-0093152D01*
X-0023662Y-0093597D01*
X-0024251D02*
X-0024140D01*
Y-0093486D01*
X-0024251D01*
Y-0093597D01*
X-0024895D02*
X-0025006Y-0093486D01*
X-0025062Y-0093374D01*
Y-0093152D01*
X-0025006Y-0093041D01*
X-0024895Y-0092930D01*
X-0024784D01*
X-0024673Y-0093041D01*
X-0024617Y-0093152D01*
Y-0093374D01*
X-0024673Y-0093486D01*
X-0024784Y-0093597D01*
X-0024895D01*
X-0006073Y-0091874D02*
X-0006517D01*
X-0006295Y-0091430D01*
X-0006184D01*
Y-0092097D01*
X-0006773D02*
X-0006995D01*
X-0006884D02*
Y-0091430D01*
X-0006995Y-0091541D01*
X-0019912Y-0092097D02*
Y-0091763D01*
X-0019690Y-0092097D02*
Y-0091763D01*
X-0019745Y-0091652D01*
X-0019856D01*
X-0019912Y-0091763D01*
X-0019967Y-0091652D01*
X-0020079D01*
X-0020134Y-0091763D01*
Y-0092097D01*
X-0020612D02*
Y-0091763D01*
X-0020390Y-0092097D02*
Y-0091763D01*
X-0020445Y-0091652D01*
X-0020556D01*
X-0020612Y-0091763D01*
X-0020667Y-0091652D01*
X-0020779D01*
X-0020834Y-0091763D01*
Y-0092097D01*
X-0022317D02*
X-0022429Y-0091986D01*
X-0022484Y-0091874D01*
Y-0091652D01*
X-0022429Y-0091541D01*
X-0022317Y-0091430D01*
X-0022206D01*
X-0022095Y-0091541D01*
X-0022040Y-0091652D01*
Y-0091874D01*
X-0022095Y-0091986D01*
X-0022206Y-0092097D01*
X-0022317D01*
X-0023017D02*
X-0023129Y-0091986D01*
X-0023184Y-0091874D01*
Y-0091652D01*
X-0023129Y-0091541D01*
X-0023017Y-0091430D01*
X-0022906D01*
X-0022795Y-0091541D01*
X-0022740Y-0091652D01*
Y-0091874D01*
X-0022795Y-0091986D01*
X-0022906Y-0092097D01*
X-0023017D01*
X-0023495Y-0091763D02*
X-0023440Y-0091652D01*
Y-0091541D01*
X-0023495Y-0091430D01*
X-0023829D01*
X-0023884Y-0091541D01*
Y-0091652D01*
X-0023829Y-0091763D01*
X-0023495D01*
X-0023440Y-0091874D01*
Y-0091986D01*
X-0023495Y-0092097D01*
X-0023829D01*
X-0023884Y-0091986D01*
Y-0091874D01*
X-0023829Y-0091763D01*
X-0024251Y-0092097D02*
X-0024140D01*
Y-0091986D01*
X-0024251D01*
Y-0092097D01*
X-0024895D02*
X-0025006Y-0091986D01*
X-0025062Y-0091874D01*
Y-0091652D01*
X-0025006Y-0091541D01*
X-0024895Y-0091430D01*
X-0024784D01*
X-0024673Y-0091541D01*
X-0024617Y-0091652D01*
Y-0091874D01*
X-0024673Y-0091986D01*
X-0024784Y-0092097D01*
X-0024895D01*
X-0006517Y-0090486D02*
X-0006406Y-0090597D01*
X-0006184D01*
X-0006073Y-0090486D01*
Y-0090374D01*
X-0006295Y-0090152D01*
X-0006073Y-0089930D01*
X-0006517D01*
X-0019912Y-0090597D02*
Y-0090263D01*
X-0019690Y-0090597D02*
Y-0090263D01*
X-0019745Y-0090152D01*
X-0019856D01*
X-0019912Y-0090263D01*
X-0019967Y-0090152D01*
X-0020079D01*
X-0020134Y-0090263D01*
Y-0090597D01*
X-0020612D02*
Y-0090263D01*
X-0020390Y-0090597D02*
Y-0090263D01*
X-0020445Y-0090152D01*
X-0020556D01*
X-0020612Y-0090263D01*
X-0020667Y-0090152D01*
X-0020779D01*
X-0020834Y-0090263D01*
Y-0090597D01*
X-0022317D02*
X-0022429Y-0090486D01*
X-0022484Y-0090374D01*
Y-0090152D01*
X-0022429Y-0090041D01*
X-0022317Y-0089930D01*
X-0022206D01*
X-0022095Y-0090041D01*
X-0022040Y-0090152D01*
Y-0090374D01*
X-0022095Y-0090486D01*
X-0022206Y-0090597D01*
X-0022317D01*
X-0023017D02*
X-0023129Y-0090486D01*
X-0023184Y-0090374D01*
Y-0090152D01*
X-0023129Y-0090041D01*
X-0023017Y-0089930D01*
X-0022906D01*
X-0022795Y-0090041D01*
X-0022740Y-0090152D01*
Y-0090374D01*
X-0022795Y-0090486D01*
X-0022906Y-0090597D01*
X-0023017D01*
X-0023495Y-0090263D02*
X-0023440Y-0090152D01*
Y-0090041D01*
X-0023495Y-0089930D01*
X-0023829D01*
X-0023884Y-0090041D01*
Y-0090152D01*
X-0023829Y-0090263D01*
X-0023495D01*
X-0023440Y-0090374D01*
Y-0090486D01*
X-0023495Y-0090597D01*
X-0023829D01*
X-0023884Y-0090486D01*
Y-0090374D01*
X-0023829Y-0090263D01*
X-0024251Y-0090597D02*
X-0024140D01*
Y-0090486D01*
X-0024251D01*
Y-0090597D01*
X-0024895D02*
X-0025006Y-0090486D01*
X-0025062Y-0090374D01*
Y-0090152D01*
X-0025006Y-0090041D01*
X-0024895Y-0089930D01*
X-0024784D01*
X-0024673Y-0090041D01*
X-0024617Y-0090152D01*
Y-0090374D01*
X-0024673Y-0090486D01*
X-0024784Y-0090597D01*
X-0024895D01*
X-0006073Y-0089097D02*
X-0006517D01*
X-0006073Y-0088652D01*
Y-0088541D01*
X-0006129Y-0088430D01*
X-0006462D01*
X-0006517Y-0088541D01*
X-0007051Y-0089097D02*
X-0007162Y-0088986D01*
X-0007217Y-0088874D01*
Y-0088652D01*
X-0007162Y-0088541D01*
X-0007051Y-0088430D01*
X-0006940D01*
X-0006829Y-0088541D01*
X-0006773Y-0088652D01*
Y-0088874D01*
X-0006829Y-0088986D01*
X-0006940Y-0089097D01*
X-0007051D01*
X-0007917Y-0088986D02*
X-0007862Y-0089097D01*
X-0007529D01*
X-0007473Y-0088986D01*
Y-0088763D01*
X-0007584Y-0088652D01*
X-0007917D01*
Y-0088430D01*
X-0007473D01*
X-0019912Y-0089097D02*
Y-0088763D01*
X-0019690Y-0089097D02*
Y-0088763D01*
X-0019745Y-0088652D01*
X-0019856D01*
X-0019912Y-0088763D01*
X-0019967Y-0088652D01*
X-0020079D01*
X-0020134Y-0088763D01*
Y-0089097D01*
X-0020612D02*
Y-0088763D01*
X-0020390Y-0089097D02*
Y-0088763D01*
X-0020445Y-0088652D01*
X-0020556D01*
X-0020612Y-0088763D01*
X-0020667Y-0088652D01*
X-0020779D01*
X-0020834Y-0088763D01*
Y-0089097D01*
X-0022317D02*
X-0022429Y-0088986D01*
X-0022484Y-0088874D01*
Y-0088652D01*
X-0022429Y-0088541D01*
X-0022317Y-0088430D01*
X-0022206D01*
X-0022095Y-0088541D01*
X-0022040Y-0088652D01*
Y-0088874D01*
X-0022095Y-0088986D01*
X-0022206Y-0089097D01*
X-0022317D01*
X-0023017D02*
X-0023129Y-0088986D01*
X-0023184Y-0088874D01*
Y-0088652D01*
X-0023129Y-0088541D01*
X-0023017Y-0088430D01*
X-0022906D01*
X-0022795Y-0088541D01*
X-0022740Y-0088652D01*
Y-0088874D01*
X-0022795Y-0088986D01*
X-0022906Y-0089097D01*
X-0023017D01*
X-0023884Y-0088986D02*
X-0023773Y-0089097D01*
X-0023551D01*
X-0023440Y-0088986D01*
Y-0088874D01*
X-0023662Y-0088652D01*
X-0023440Y-0088430D01*
X-0023884D01*
X-0024251Y-0089097D02*
X-0024140D01*
Y-0088986D01*
X-0024251D01*
Y-0089097D01*
X-0024895D02*
X-0025006Y-0088986D01*
X-0025062Y-0088874D01*
Y-0088652D01*
X-0025006Y-0088541D01*
X-0024895Y-0088430D01*
X-0024784D01*
X-0024673Y-0088541D01*
X-0024617Y-0088652D01*
Y-0088874D01*
X-0024673Y-0088986D01*
X-0024784Y-0089097D01*
X-0024895D01*
X0002331Y-0086958D02*
X0001831D01*
X0002498Y-0087458D02*
X0001831D01*
Y-0086458D01*
X0002498D01*
X0001214Y-0087458D02*
Y-0086458D01*
X0001548D02*
X0000881D01*
X0000014Y-0087458D02*
X-0000069Y-0087291D01*
Y-0086624D01*
X0000014Y-0086458D01*
X0000514D01*
X0000598Y-0086624D01*
Y-0087291D01*
X0000514Y-0087458D01*
X0000014D01*
X-0000352Y-0086458D02*
Y-0087458D01*
X-0000519Y-0087291D01*
X-0000852Y-0086624D01*
X-0001019Y-0086458D01*
Y-0087458D01*
X-0006856D02*
Y-0086958D01*
X-0006523Y-0086458D02*
X-0006773Y-0086958D01*
X-0006940D01*
X-0007190Y-0086458D01*
X-0007806Y-0087458D02*
Y-0086458D01*
X-0007473D02*
X-0008140D01*
X-0008756Y-0087124D02*
X-0008423Y-0087458D01*
X-0009090Y-0087291D02*
X-0009006Y-0087458D01*
X-0008673D01*
X-0008590Y-0087291D01*
X-0008423Y-0087124D01*
Y-0086624D01*
X-0008506Y-0086458D01*
X-0009006D01*
X-0009090Y-0086624D01*
Y-0087291D01*
X-0013373Y-0087458D02*
X-0013956D01*
Y-0086458D01*
X-0014823Y-0087458D02*
X-0014906Y-0087291D01*
Y-0086624D01*
X-0014823Y-0086458D01*
X-0014323D01*
X-0014240Y-0086624D01*
Y-0087291D01*
X-0014323Y-0087458D01*
X-0014823D01*
X-0015523D02*
Y-0086458D01*
X-0015190D02*
X-0015856D01*
X-0021194Y-0087458D02*
Y-0086458D01*
X-0021360Y-0086624D01*
X-0021527Y-0086958D01*
X-0021694Y-0086624D01*
X-0021860Y-0086458D01*
Y-0087458D01*
X-0022144Y-0087124D02*
X-0022810D01*
X-0022144Y-0087458D02*
Y-0086958D01*
X-0022394Y-0086458D01*
X-0022560D01*
X-0022810Y-0086958D01*
Y-0087458D01*
X-0023094D02*
X-0023427D01*
X-0023260D02*
Y-0086458D01*
X-0023094D02*
X-0023427D01*
X-0024460Y-0087458D02*
Y-0086458D01*
X-0024544Y-0087458D02*
X-0024044D01*
X-0023877Y-0087124D01*
Y-0086791D01*
X-0024044Y-0086458D01*
X-0024544D01*
X-0027631Y-0087458D02*
Y-0086458D01*
X-0027798Y-0086624D01*
X-0027965Y-0086958D01*
X-0028131Y-0086624D01*
X-0028298Y-0086458D01*
Y-0087458D01*
X-0028915D02*
Y-0086958D01*
X-0028581Y-0086458D02*
X-0028831Y-0086958D01*
X-0028998D01*
X-0029248Y-0086458D01*
X-0029531Y-0086624D02*
X-0029615Y-0086458D01*
X-0030115D01*
X-0030198Y-0086624D01*
Y-0086791D01*
X-0030115Y-0086958D01*
X-0029615D01*
X-0029531Y-0087124D01*
Y-0087291D01*
X-0029615Y-0087458D01*
X-0030115D01*
X-0030198Y-0087291D01*
X-0007344Y-0085458D02*
Y-0084458D01*
X-0007010D02*
X-0007677D01*
X-0008210Y-0084958D02*
X-0007960Y-0085458D01*
X-0008627Y-0084958D02*
X-0008127D01*
X-0007960Y-0084791D01*
Y-0084624D01*
X-0008127Y-0084458D01*
X-0008627D01*
Y-0085458D01*
X-0008910Y-0085124D02*
X-0009577D01*
X-0008910Y-0085458D02*
Y-0084958D01*
X-0009160Y-0084458D01*
X-0009327D01*
X-0009577Y-0084958D01*
Y-0085458D01*
X-0009860Y-0084958D02*
X-0010527D01*
X-0009860Y-0085458D02*
Y-0084458D01*
X-0010527Y-0085458D02*
Y-0084458D01*
X-0010810Y-0085291D02*
X-0010894Y-0085458D01*
X-0011394D01*
X-0011477Y-0085291D01*
Y-0084624D01*
X-0011394Y-0084458D01*
X-0010894D01*
X-0010810Y-0084624D01*
X-0013085Y-0085458D02*
X-0013669D01*
Y-0084458D01*
X-0013952Y-0085458D02*
X-0014535D01*
Y-0084458D01*
X-0014819Y-0085458D02*
X-0015152D01*
X-0014985D02*
Y-0084458D01*
X-0014819D02*
X-0015152D01*
X-0015852Y-0084958D02*
X-0015602Y-0085458D01*
X-0016269Y-0084958D02*
X-0015769D01*
X-0015602Y-0084791D01*
Y-0084624D01*
X-0015769Y-0084458D01*
X-0016269D01*
Y-0085458D01*
X-0017135D02*
Y-0084458D01*
X-0017219Y-0085458D02*
X-0016719D01*
X-0016552Y-0085124D01*
Y-0084791D01*
X-0016719Y-0084458D01*
X-0017219D01*
X-0027656Y-0047719D02*
X-0028656Y-0048719D01*
X-0027656D02*
X-0028656Y-0047719D01*
X-0031585Y-0041375D02*
X-0032585Y-0042375D01*
X-0031585D02*
X-0032585Y-0041375D01*
X-0012156Y-0055250D02*
X-0013156Y-0056250D01*
X-0012156D02*
X-0013156Y-0055250D01*
X-0010709Y-0014562D02*
X-0011709Y-0015562D01*
X-0010709D02*
X-0011709Y-0014562D01*
X-0003094Y-0014625D02*
X-0004094Y-0015625D01*
X-0003094D02*
X-0004094Y-0014625D01*
X-0016031Y-0040687D02*
X-0017031Y-0041687D01*
X-0016031D02*
X-0017031Y-0040687D01*
X-0000930Y-0032230D02*
X-0001930Y-0033230D01*
X-0000930D02*
X-0001930Y-0032230D01*
X-0010656Y-0018937D02*
X-0011656Y-0019937D01*
X-0010656D02*
X-0011656Y-0018937D01*
X-0026997Y-0063719D02*
X-0027997Y-0064719D01*
X-0026997D02*
X-0027997Y-0063719D01*
X0005480Y-0055255D02*
X0004480Y-0056255D01*
X0005480D02*
X0004480Y-0055255D01*
X0009862Y-0041437D02*
X0008862Y-0042437D01*
X0009862D02*
X0008862Y-0041437D01*
X-0000156Y-0042437D02*
X-0001156Y-0043437D01*
X-0000156D02*
X-0001156Y-0042437D01*
X0005480Y-0055255D02*
X0004480Y-0056255D01*
X0005480D02*
X0004480Y-0055255D01*
X-0001875Y-0024000D02*
X-0002875Y-0025000D01*
X-0001875D02*
X-0002875Y-0024000D01*
X0007344Y-0040197D02*
X0006344Y-0041197D01*
X0007344D02*
X0006344Y-0040197D01*
X-0014812Y-0040125D02*
X-0015812Y-0041125D01*
X-0014812D02*
X-0015812Y-0040125D01*
X-0019375Y-0018500D02*
X-0020375Y-0019500D01*
X-0019375D02*
X-0020375Y-0018500D01*
X-0009346Y-0016997D02*
X-0010346Y-0017997D01*
X-0009346D02*
X-0010346Y-0016997D01*
X-0020937Y-0016156D02*
X-0021937Y-0017156D01*
X-0020937D02*
X-0021937Y-0016156D01*
X0008281Y-0013906D02*
X0007281Y-0014906D01*
X0008281D02*
X0007281Y-0013906D01*
X-0014969Y-0014375D02*
X-0015969Y-0015375D01*
X-0014969D02*
X-0015969Y-0014375D01*
X0009842Y-0042655D02*
X0008842Y-0043655D01*
X0009842D02*
X0008842Y-0042655D01*
X-0016219Y-0039687D02*
X-0017219Y-0040687D01*
X-0016219D02*
X-0017219Y-0039687D01*
X-0011281Y-0000812D02*
X-0012281Y-0001812D01*
X-0011281D02*
X-0012281Y-0000812D01*
X-0006125D02*
X-0007125Y-0001812D01*
X-0006125D02*
X-0007125Y-0000812D01*
X-0025156Y-0009750D02*
X-0026156Y-0010750D01*
X-0025156D02*
X-0026156Y-0009750D01*
X-0022594Y-0010625D02*
X-0023594Y-0011625D01*
X-0022594D02*
X-0023594Y-0010625D01*
X-0022625Y-0015906D02*
X-0023625Y-0016906D01*
X-0022625D02*
X-0023625Y-0015906D01*
X-0004625Y-0011500D02*
X-0005625Y-0012500D01*
X-0004625D02*
X-0005625Y-0011500D01*
X-0029156Y-0042781D02*
X-0030156Y-0043781D01*
X-0029156D02*
X-0030156Y-0042781D01*
X-0021125Y-0045906D02*
X-0022125Y-0046906D01*
X-0021125D02*
X-0022125Y-0045906D01*
X-0015625Y-0041281D02*
X-0016625Y-0042281D01*
X-0015625D02*
X-0016625Y-0041281D01*
X-0005219Y-0009719D02*
X-0006219Y-0010719D01*
X-0005219D02*
X-0006219Y-0009719D01*
X-0022031Y-0017312D02*
X-0023031Y-0018312D01*
X-0022031D02*
X-0023031Y-0017312D01*
X-0022156Y-0011437D02*
X-0023156Y-0012437D01*
X-0022156D02*
X-0023156Y-0011437D01*
X-0025125Y-0011250D02*
X-0026125Y-0012250D01*
X-0025125D02*
X-0026125Y-0011250D01*
X-0019531Y-0034844D02*
X-0020531Y-0035844D01*
X-0019531D02*
X-0020531Y-0034844D01*
X-0010219Y-0018656D02*
X-0011219Y-0019656D01*
X-0010219D02*
X-0011219Y-0018656D01*
X0004250Y-0004750D02*
X0003250Y-0005750D01*
X0004250D02*
X0003250Y-0004750D01*
X-0004594Y-0045625D02*
X-0005594Y-0046625D01*
X-0004594D02*
X-0005594Y-0045625D01*
X-0004594Y-0032812D02*
X-0005594Y-0033812D01*
X-0004594D02*
X-0005594Y-0032812D01*
X-0024625D02*
X-0025625Y-0033812D01*
X-0024625D02*
X-0025625Y-0032812D01*
X-0015062Y-0046125D02*
X-0016062Y-0047125D01*
X-0015062D02*
X-0016062Y-0046125D01*
X-0002969Y-0009250D02*
X-0003969Y-0010250D01*
X-0002969D02*
X-0003969Y-0009250D01*
X-0002969Y-0003000D02*
X-0003969Y-0004000D01*
X-0002969D02*
X-0003969Y-0003000D01*
X-0015375Y-0041562D02*
X-0016375Y-0042562D01*
X-0015375D02*
X-0016375Y-0041562D01*
X0004469Y-0006156D02*
X0003469Y-0007156D01*
X0004469D02*
X0003469Y-0006156D01*
X-0014562Y0000062D02*
X-0015562Y-0000937D01*
X-0014562D02*
X-0015562Y0000062D01*
X-0011125Y0000000D02*
X-0012125Y-0001000D01*
X-0011125D02*
X-0012125Y0000000D01*
X-0014125Y-0006625D02*
X-0015125Y-0007625D01*
X-0014125D02*
X-0015125Y-0006625D01*
X-0019000Y-0009031D02*
X-0020000Y-0010031D01*
X-0019000D02*
X-0020000Y-0009031D01*
X-0009125Y-0011500D02*
X-0010125Y-0012500D01*
X-0009125D02*
X-0010125Y-0011500D01*
X-0009812Y-0010062D02*
X-0010812Y-0011062D01*
X-0009812D02*
X-0010812Y-0010062D01*
X-0007687Y-0065906D02*
X-0008687Y-0066906D01*
X-0007687D02*
X-0008687Y-0065906D01*
Y-0064906D02*
X-0009687Y-0065906D01*
X-0008687D02*
X-0009687Y-0064906D01*
X-0009969Y-0018437D02*
X-0010969Y-0019437D01*
X-0009969D02*
X-0010969Y-0018437D01*
X-0024844Y-0013187D02*
X-0025844Y-0014187D01*
X-0024844D02*
X-0025844Y-0013187D01*
X-0008469Y-0015469D02*
X-0009469Y-0016469D01*
X-0008469D02*
X-0009469Y-0015469D01*
X-0018312Y-0021500D02*
X-0019312Y-0022500D01*
X-0018312D02*
X-0019312Y-0021500D01*
X-0007719Y-0069250D02*
X-0008719Y-0070250D01*
X-0007719D02*
X-0008719Y-0069250D01*
X-0007187Y-0064406D02*
X-0008187Y-0065406D01*
X-0007187D02*
X-0008187Y-0064406D01*
X-0017094Y-0006250D02*
X-0018094Y-0007250D01*
X-0017094D02*
X-0018094Y-0006250D01*
X-0010062Y-0004625D02*
X-0011062Y-0005625D01*
X-0010062D02*
X-0011062Y-0004625D01*
X-0017469Y-0018437D02*
X-0018469Y-0019437D01*
X-0017469D02*
X-0018469Y-0018437D01*
X-0014812Y-0048125D02*
X-0015812Y-0049125D01*
X-0014812D02*
X-0015812Y-0048125D01*
X-0018094Y-0007750D02*
X-0019094Y-0008750D01*
X-0018094D02*
X-0019094Y-0007750D01*
X-0018094Y-0005500D02*
X-0019094Y-0006500D01*
X-0018094D02*
X-0019094Y-0005500D01*
X-0008375Y-0010344D02*
X-0009375Y-0011344D01*
X-0008375D02*
X-0009375Y-0010344D01*
X-0020531Y-0008531D02*
X-0021531Y-0009531D01*
X-0020531D02*
X-0021531Y-0008531D01*
X-0007281Y-0009625D02*
X-0008281Y-0010625D01*
X-0007281D02*
X-0008281Y-0009625D01*
X-0025063Y-0005844D02*
X-0026063Y-0006844D01*
X-0025063D02*
X-0026063Y-0005844D01*
X-0006437Y-0064406D02*
X-0007437Y-0065406D01*
X-0006437D02*
X-0007437Y-0064406D01*
X-0008375Y-0067781D02*
X-0009375Y-0068781D01*
X-0008375D02*
X-0009375Y-0067781D01*
X0005281Y-0012750D02*
X0004281Y-0013750D01*
X0005281D02*
X0004281Y-0012750D01*
X-0014719Y-0014125D02*
X-0015719Y-0015125D01*
X-0014719D02*
X-0015719Y-0014125D01*
X-0008875Y-0013281D02*
X-0009875Y-0014281D01*
X-0008875D02*
X-0009875Y-0013281D01*
X-0011375D02*
X-0012375Y-0014281D01*
X-0011375D02*
X-0012375Y-0013281D01*
X-0011844Y-0010094D02*
X-0012844Y-0011094D01*
X-0011844D02*
X-0012844Y-0010094D01*
X-0012281Y-0007469D02*
X-0013281Y-0008469D01*
X-0012281D02*
X-0013281Y-0007469D01*
X-0019375Y-0018500D02*
X-0020375Y-0019500D01*
X-0019375D02*
X-0020375Y-0018500D01*
X-0022375Y-0017031D02*
X-0023375Y-0018031D01*
X-0022375D02*
X-0023375Y-0017031D01*
X-0022312Y-0010937D02*
X-0023312Y-0011937D01*
X-0022312D02*
X-0023312Y-0010937D01*
X-0023562Y-0018000D02*
X-0024562Y-0019000D01*
X-0023562D02*
X-0024562Y-0018000D01*
X-0023344Y-0003312D02*
X-0024344Y-0004312D01*
X-0023344D02*
X-0024344Y-0003312D01*
X-0012906Y-0014125D02*
X-0013906Y-0015125D01*
X-0012906D02*
X-0013906Y-0014125D01*
X-0002437Y-0013969D02*
X-0003437Y-0014969D01*
X-0002437D02*
X-0003437Y-0013969D01*
X-0002344Y0001750D02*
X-0003344Y0000750D01*
X-0002344D02*
X-0003344Y0001750D01*
X-0001781Y-0002500D02*
X-0002781Y-0003500D01*
X-0001781D02*
X-0002781Y-0002500D01*
X-0004750Y-0011000D02*
X-0005750Y-0012000D01*
X-0004750D02*
X-0005750Y-0011000D01*
X-0008750Y-0005656D02*
X-0009750Y-0006656D01*
X-0008750D02*
X-0009750Y-0005656D01*
X-0027437Y-0013000D02*
X-0028437Y-0014000D01*
X-0027437D02*
X-0028437Y-0013000D01*
X-0024281Y-0003531D02*
X-0025281Y-0004531D01*
X-0024281D02*
X-0025281Y-0003531D01*
X-0008875Y0000000D02*
X-0009875Y-0001000D01*
X-0008875D02*
X-0009875Y0000000D01*
X-0011125D02*
X-0012125Y-0001000D01*
X-0011125D02*
X-0012125Y0000000D01*
X-0030094Y-0008781D02*
X-0031094Y-0009781D01*
X-0030094D02*
X-0031094Y-0008781D01*
X-0024812Y-0008000D02*
X-0025812Y-0009000D01*
X-0024812D02*
X-0025812Y-0008000D01*
X-0024812Y-0000406D02*
X-0025812Y-0001406D01*
X-0024812D02*
X-0025812Y-0000406D01*
X-0015312Y-0000906D02*
X-0016312Y-0001906D01*
X-0015312D02*
X-0016312Y-0000906D01*
X-0018812Y-0019500D02*
X-0019812Y-0020500D01*
X-0018812D02*
X-0019812Y-0019500D01*
X-0008437Y-0016125D02*
X-0009437Y-0017125D01*
X-0008437D02*
X-0009437Y-0016125D01*
X-0024594Y-0013469D02*
X-0025594Y-0014469D01*
X-0024594D02*
X-0025594Y-0013469D01*
X-0002062Y0001469D02*
X-0003062Y0000469D01*
X-0002062D02*
X-0003062Y0001469D01*
X-0002187Y-0014281D02*
X-0003187Y-0015281D01*
X-0002187D02*
X-0003187Y-0014281D01*
X-0013156Y-0014375D02*
X-0014156Y-0015375D01*
X-0013156D02*
X-0014156Y-0014375D01*
X0005903Y-0056253D02*
X0004903Y-0057253D01*
X0005903D02*
X0004903Y-0056253D01*
X-0013937Y-0001312D02*
X-0014937Y-0002312D01*
X-0013937D02*
X-0014937Y-0001312D01*
X-0025156D02*
X-0026156Y-0002312D01*
X-0025156D02*
X-0026156Y-0001312D01*
X-0001781Y0001219D02*
X-0002781Y0000219D01*
X-0001781D02*
X-0002781Y0001219D01*
X-0001937Y-0014531D02*
X-0002937Y-0015531D01*
X-0001937D02*
X-0002937Y-0014531D01*
X-0012656Y-0014594D02*
X-0013656Y-0015594D01*
X-0012656D02*
X-0013656Y-0014594D01*
X-0030094Y-0010781D02*
X-0031094Y-0011781D01*
X-0030094D02*
X-0031094Y-0010781D01*
X-0024562Y-0010000D02*
X-0025562Y-0011000D01*
X-0024562D02*
X-0025562Y-0010000D01*
X-0024562Y-0005000D02*
X-0025562Y-0006000D01*
X-0024562D02*
X-0025562Y-0005000D01*
X-0027406Y-0014000D02*
X-0028406Y-0015000D01*
X-0027406D02*
X-0028406Y-0014000D01*
X-0024031Y-0003344D02*
X-0025031Y-0004344D01*
X-0024031D02*
X-0025031Y-0003344D01*
X-0006375Y-0000312D02*
X-0007375Y-0001312D01*
X-0006375D02*
X-0007375Y-0000312D01*
X-0011406D02*
X-0012406Y-0001312D01*
X-0011406D02*
X-0012406Y-0000312D01*
X-0009312Y-0006906D02*
X-0010312Y-0007906D01*
X-0009312D02*
X-0010312Y-0006906D01*
X-0003625Y-0014875D02*
X-0004625Y-0015875D01*
X-0003625D02*
X-0004625Y-0014875D01*
X-0003594Y-0004500D02*
X-0004594Y-0005500D01*
X-0003594D02*
X-0004594Y-0004500D01*
X-0019062Y-0019000D02*
X-0020062Y-0020000D01*
X-0019062D02*
X-0020062Y-0019000D01*
X-0009562Y-0010594D02*
X-0010562Y-0011594D01*
X-0009562D02*
X-0010562Y-0010594D01*
X-0021844Y-0011750D02*
X-0022844Y-0012750D01*
X-0021844D02*
X-0022844Y-0011750D01*
X-0010469Y-0018437D02*
X-0011469Y-0019437D01*
X-0010469D02*
X-0011469Y-0018437D01*
X-0014219Y-0013156D02*
X-0015219Y-0014156D01*
X-0014219D02*
X-0015219Y-0013156D01*
X-0021750D02*
X-0022750Y-0014156D01*
X-0021750D02*
X-0022750Y-0013156D01*
X-0004062Y-0013000D02*
X-0005062Y-0014000D01*
X-0004062D02*
X-0005062Y-0013000D01*
X-0011166Y-0013031D02*
X-0012166Y-0014031D01*
X-0011166D02*
X-0012166Y-0013031D01*
X-0003562Y-0013656D02*
X-0004562Y-0014656D01*
X-0003562D02*
X-0004562Y-0013656D01*
X-0014219Y-0013750D02*
X-0015219Y-0014750D01*
X-0014219D02*
X-0015219Y-0013750D01*
X-0021562Y-0011469D02*
X-0022562Y-0012469D01*
X-0021562D02*
X-0022562Y-0011469D01*
X-0013969Y-0011656D02*
X-0014969Y-0012656D01*
X-0013969D02*
X-0014969Y-0011656D01*
X-0018969Y-0012906D02*
X-0019969Y-0013906D01*
X-0018969D02*
X-0019969Y-0012906D01*
X-0008937Y-0005406D02*
X-0009937Y-0006406D01*
X-0008937D02*
X-0009937Y-0005406D01*
X-0018812Y-0019500D02*
X-0019812Y-0020500D01*
X-0018812D02*
X-0019812Y-0019500D01*
X-0008594Y-0018841D02*
X-0009594Y-0019841D01*
X-0008594D02*
X-0009594Y-0018841D01*
X-0014906Y-0006375D02*
X-0015906Y-0007375D01*
X-0014906D02*
X-0015906Y-0006375D01*
X-0023844Y-0001000D02*
X-0024844Y-0002000D01*
X-0023844D02*
X-0024844Y-0001000D01*
X-0023844Y-0013469D02*
X-0024844Y-0014469D01*
X-0023844D02*
X-0024844Y-0013469D01*
X-0008469Y-0015781D02*
X-0009469Y-0016781D01*
X-0008469D02*
X-0009469Y-0015781D01*
X-0019594Y-0014406D02*
X-0020594Y-0015406D01*
X-0019594D02*
X-0020594Y-0014406D01*
X-0003000Y-0015562D02*
X-0004000Y-0016562D01*
X-0003000D02*
X-0004000Y-0015562D01*
X-0009344Y-0004906D02*
X-0010344Y-0005906D01*
X-0009344D02*
X-0010344Y-0004906D01*
X-0017719Y-0018156D02*
X-0018719Y-0019156D01*
X-0017719D02*
X-0018719Y-0018156D01*
X-0013750Y-0016750D02*
X-0014750Y-0017750D01*
X-0013750D02*
X-0014750Y-0016750D01*
X-0010969Y-0007156D02*
X-0011969Y-0008156D01*
X-0010969D02*
X-0011969Y-0007156D01*
X-0016687Y-0007000D02*
X-0017687Y-0008000D01*
X-0016687D02*
X-0017687Y-0007000D01*
X-0024281Y-0020000D02*
X-0025281Y-0021000D01*
X-0024281D02*
X-0025281Y-0020000D01*
X-0023594Y0001844D02*
X-0024594Y0000844D01*
X-0023594D02*
X-0024594Y0001844D01*
X-0016250D02*
X-0017250Y0000844D01*
X-0016250D02*
X-0017250Y0001844D01*
X0003781Y-0038437D02*
X0002781Y-0039437D01*
X0003781D02*
X0002781Y-0038437D01*
X-0004250Y-0012750D02*
X-0005250Y-0013750D01*
X-0004250D02*
X-0005250Y-0012750D01*
X-0001000Y0002656D02*
X-0002000Y0001656D01*
X-0001000D02*
X-0002000Y0002656D01*
X-0022875Y-0020500D02*
X-0023875Y-0021500D01*
X-0022875D02*
X-0023875Y-0020500D01*
X-0022844Y0001594D02*
X-0023844Y0000594D01*
X-0022844D02*
X-0023844Y0001594D01*
X-0015250D02*
X-0016250Y0000594D01*
X-0015250D02*
X-0016250Y0001594D01*
X-0028750Y-0021500D02*
X-0029750Y-0022500D01*
X-0028750D02*
X-0029750Y-0021500D01*
X-0010031Y-0000562D02*
X-0011031Y-0001562D01*
X-0010031D02*
X-0011031Y-0000562D01*
X-0019000Y0001312D02*
X-0020000Y0000312D01*
X-0019000D02*
X-0020000Y0001312D01*
X-0002219Y-0024219D02*
X-0003219Y-0025219D01*
X-0002219D02*
X-0003219Y-0024219D01*
X-0019344Y-0015156D02*
X-0020344Y-0016156D01*
X-0019344D02*
X-0020344Y-0015156D01*
X-0017062Y-0026000D02*
X-0018062Y-0027000D01*
X-0017062D02*
X-0018062Y-0026000D01*
X-0003906Y-0020812D02*
X-0004906Y-0021812D01*
X-0003906D02*
X-0004906Y-0020812D01*
X-0013687Y-0000687D02*
X-0014687Y-0001687D01*
X-0013687D02*
X-0014687Y-0000687D01*
X-0003114Y-0016000D02*
X-0004114Y-0017000D01*
X-0003114D02*
X-0004114Y-0016000D01*
X-0008562Y-0007719D02*
X-0009562Y-0008719D01*
X-0008562D02*
X-0009562Y-0007719D01*
X0001500Y-0047125D02*
X0000500Y-0048125D01*
X0001500D02*
X0000500Y-0047125D01*
X-0013687Y-0028969D02*
X-0014687Y-0029969D01*
X-0013687D02*
X-0014687Y-0028969D01*
X-0014969Y-0014375D02*
X-0015969Y-0015375D01*
X-0014969D02*
X-0015969Y-0014375D01*
X-0019781Y-0002312D02*
X-0020781Y-0003312D01*
X-0019781D02*
X-0020781Y-0002312D01*
X-0019781Y-0007250D02*
X-0020781Y-0008250D01*
X-0019781D02*
X-0020781Y-0007250D01*
X-0014750D02*
X-0015750Y-0008250D01*
X-0014750D02*
X-0015750Y-0007250D01*
X-0014000Y-0028094D02*
X-0015000Y-0029094D01*
X-0014000D02*
X-0015000Y-0028094D01*
X-0000719Y0002875D02*
X-0001719Y0001875D01*
X-0000719D02*
X-0001719Y0002875D01*
X-0002094Y-0045125D02*
X-0003094Y-0046125D01*
X-0002094D02*
X-0003094Y-0045125D01*
X-0009812Y-0006406D02*
X-0010812Y-0007406D01*
X-0009812D02*
X-0010812Y-0006406D01*
X-0022875Y-0020500D02*
X-0023875Y-0021500D01*
X-0022875D02*
X-0023875Y-0020500D01*
X-0022875Y-0015656D02*
X-0023875Y-0016656D01*
X-0022875D02*
X-0023875Y-0015656D01*
X-0015562Y-0015375D02*
X-0016562Y-0016375D01*
X-0015562D02*
X-0016562Y-0015375D01*
X-0009531Y-0004656D02*
X-0010531Y-0005656D01*
X-0009531D02*
X-0010531Y-0004656D01*
X-0004156Y-0021250D02*
X-0005156Y-0022250D01*
X-0004156D02*
X-0005156Y-0021250D01*
X-0019500Y-0017594D02*
X-0020500Y-0018594D01*
X-0019500D02*
X-0020500Y-0017594D01*
X-0028094Y-0033062D02*
X-0029094Y-0034062D01*
X-0028094D02*
X-0029094Y-0033062D01*
X-0028812D02*
X-0029812Y-0034062D01*
X-0028812D02*
X-0029812Y-0033062D01*
X-0018562Y-0020000D02*
X-0019562Y-0021000D01*
X-0018562D02*
X-0019562Y-0020000D01*
X-0026997Y-0063719D02*
X-0027997Y-0064719D01*
X-0026997D02*
X-0027997Y-0063719D01*
X-0017219Y-0025500D02*
X-0018219Y-0026500D01*
X-0017219D02*
X-0018219Y-0025500D01*
X-0019562Y-0015406D02*
X-0020562Y-0016406D01*
X-0019562D02*
X-0020562Y-0015406D01*
X-0004500Y-0012500D02*
X-0005500Y-0013500D01*
X-0004500D02*
X-0005500Y-0012500D01*
X-0019500Y-0000187D02*
X-0020500Y-0001187D01*
X-0019500D02*
X-0020500Y-0000187D01*
X-0023969D02*
X-0024969Y-0001187D01*
X-0023969D02*
X-0024969Y-0000187D01*
X-0025156Y-0002000D02*
X-0026156Y-0003000D01*
X-0025156D02*
X-0026156Y-0002000D01*
X-0015625Y-0001281D02*
X-0016625Y-0002281D01*
X-0015625D02*
X-0016625Y-0001281D01*
X-0018594Y-0021750D02*
X-0019594Y-0022750D01*
X-0018594D02*
X-0019594Y-0021750D01*
X-0019344Y-0011750D02*
X-0020344Y-0012750D01*
X-0019344D02*
X-0020344Y-0011750D01*
X-0018062Y-0022000D02*
X-0019062Y-0023000D01*
X-0018062D02*
X-0019062Y-0022000D01*
X-0019094Y-0012000D02*
X-0020094Y-0013000D01*
X-0019094D02*
X-0020094Y-0012000D01*
X-0013406Y-0053408D02*
X-0014406Y-0054408D01*
X-0013406D02*
X-0014406Y-0053408D01*
X-0007937Y-0008500D02*
X-0008937Y-0009500D01*
X-0007937D02*
X-0008937Y-0008500D01*
X-0004437Y-0020094D02*
X-0005437Y-0021094D01*
X-0004437D02*
X-0005437Y-0020094D01*
X-0016812Y-0026500D02*
X-0017812Y-0027500D01*
X-0016812D02*
X-0017812Y-0026500D01*
X-0010906Y-0012750D02*
X-0011906Y-0013750D01*
X-0010906D02*
X-0011906Y-0012750D01*
X-0015562Y-0015875D02*
X-0016562Y-0016875D01*
X-0015562D02*
X-0016562Y-0015875D01*
X-0008125Y-0017531D02*
X-0009125Y-0018531D01*
X-0008125D02*
X-0009125Y-0017531D01*
X-0013594Y-0029500D02*
X-0014594Y-0030500D01*
X-0013594D02*
X-0014594Y-0029500D01*
X-0025344Y-0041937D02*
X-0026344Y-0042937D01*
X-0025344D02*
X-0026344Y-0041937D01*
X-0028500D02*
X-0029500Y-0042937D01*
X-0028500D02*
X-0029500Y-0041937D01*
X-0017844Y-0004906D02*
X-0018844Y-0005906D01*
X-0017844D02*
X-0018844Y-0004906D01*
X-0017844Y-0009031D02*
X-0018844Y-0010031D01*
X-0017844D02*
X-0018844Y-0009031D01*
X-0008625Y-0011125D02*
X-0009625Y-0012125D01*
X-0008625D02*
X-0009625Y-0011125D01*
X-0012500Y-0032500D02*
X-0013500Y-0033500D01*
X-0012500D02*
X-0013500Y-0032500D01*
X-0009125Y-0005156D02*
X-0010125Y-0006156D01*
X-0009125D02*
X-0010125Y-0005156D01*
X-0010000Y-0002312D02*
X-0011000Y-0003312D01*
X-0010000D02*
X-0011000Y-0002312D01*
X-0016750Y-0001125D02*
X-0017750Y-0002125D01*
X-0016750D02*
X-0017750Y-0001125D01*
X-0018031Y-0004406D02*
X-0019031Y-0005406D01*
X-0018031D02*
X-0019031Y-0004406D01*
X-0021094Y-0044156D02*
X-0022094Y-0045156D01*
X-0021094D02*
X-0022094Y-0044156D01*
X-0004937Y-0011719D02*
X-0005937Y-0012719D01*
X-0004937D02*
X-0005937Y-0011719D01*
X-0008344Y-0019031D02*
X-0009344Y-0020031D01*
X-0008344D02*
X-0009344Y-0019031D01*
X-0012750Y-0032000D02*
X-0013750Y-0033000D01*
X-0012750D02*
X-0013750Y-0032000D01*
X-0018790Y-0012236D02*
X-0019790Y-0013236D01*
X-0018790D02*
X-0019790Y-0012236D01*
X-0013375Y-0030000D02*
X-0014375Y-0031000D01*
X-0013375D02*
X-0014375Y-0030000D01*
X-0016875Y-0004656D02*
X-0017875Y-0005656D01*
X-0016875D02*
X-0017875Y-0004656D01*
X-0013844Y-0028500D02*
X-0014844Y-0029500D01*
X-0013844D02*
X-0014844Y-0028500D01*
X-0012969Y-0031500D02*
X-0013969Y-0032500D01*
X-0012969D02*
X-0013969Y-0031500D01*
X-0011625Y-0032500D02*
X-0012625Y-0033500D01*
X-0011625D02*
X-0012625Y-0032500D01*
X-0003469Y-0003500D02*
X-0004469Y-0004500D01*
X-0003469D02*
X-0004469Y-0003500D01*
X-0008281Y-0009156D02*
X-0009281Y-0010156D01*
X-0008281D02*
X-0009281Y-0009156D01*
X-0019562Y-0014906D02*
X-0020562Y-0015906D01*
X-0019562D02*
X-0020562Y-0014906D01*
X-0009062Y-0007219D02*
X-0010062Y-0008219D01*
X-0009062D02*
X-0010062Y-0007219D01*
X-0008812Y-0007469D02*
X-0009812Y-0008469D01*
X-0008812D02*
X-0009812Y-0007469D01*
X-0006094Y-0018187D02*
X-0007094Y-0019187D01*
X-0006094D02*
X-0007094Y-0018187D01*
X-0019406Y-0014156D02*
X-0020406Y-0015156D01*
X-0019406D02*
X-0020406Y-0014156D01*
X-0019375Y-0014656D02*
X-0020375Y-0015656D01*
X-0019375D02*
X-0020375Y-0014656D01*
X-0017594Y-0005156D02*
X-0018594Y-0006156D01*
X-0017594D02*
X-0018594Y-0005156D01*
X-0017594Y-0008781D02*
X-0018594Y-0009781D01*
X-0017594D02*
X-0018594Y-0008781D01*
X-0008375Y-0010844D02*
X-0009375Y-0011844D01*
X-0008375D02*
X-0009375Y-0010844D01*
X-0028706Y-0105124D02*
X-0029206Y-0105624D01*
X-0028706D02*
X-0029206Y-0105124D01*
Y-0103774D02*
Y-0103974D01*
X-0029056Y-0103624D02*
X-0029206Y-0103774D01*
X-0028856Y-0103624D02*
X-0029056D01*
X-0028706Y-0103774D02*
X-0028856Y-0103624D01*
X-0028706Y-0103974D02*
Y-0103774D01*
X-0028856Y-0104124D02*
X-0028706Y-0103974D01*
X-0029056Y-0104124D02*
X-0028856D01*
X-0029206Y-0103974D02*
X-0029056Y-0104124D01*
X-0029006Y-0103774D02*
Y-0103724D01*
X-0029056Y-0103774D02*
X-0029006D01*
X-0029056Y-0103724D02*
Y-0103774D01*
X-0029006Y-0103724D02*
X-0029056D01*
X-0028906D02*
Y-0103774D01*
X-0028856Y-0103724D02*
X-0028906D01*
X-0028856Y-0103774D02*
Y-0103724D01*
X-0028906Y-0103774D02*
X-0028856D01*
X-0029006Y-0104024D02*
X-0029106Y-0103924D01*
X-0028906Y-0104024D02*
X-0029006D01*
X-0028806Y-0103924D02*
X-0028906Y-0104024D01*
X-0028956Y-0102224D02*
X-0029206Y-0102474D01*
X-0028706D02*
X-0028956Y-0102224D01*
X-0029206Y-0102474D02*
X-0028706D01*
X-0029206Y-0100624D02*
Y-0100874D01*
X-0028956Y-0100624D02*
X-0029206D01*
X-0028956Y-0101124D02*
Y-0100624D01*
X-0028706Y-0101124D02*
X-0028956D01*
X-0028706Y-0100874D02*
Y-0101124D01*
X-0029206Y-0100874D02*
X-0028706D01*
X-0029206Y-0099274D02*
Y-0099474D01*
X-0028956Y-0099524D02*
X-0029206Y-0099274D01*
X-0028706D02*
X-0028956Y-0099524D01*
X-0028706Y-0099474D02*
Y-0099274D01*
X-0028956Y-0099224D02*
X-0028706Y-0099474D01*
X-0029206D02*
X-0028956Y-0099224D01*
X-0029206Y-0097624D02*
Y-0098124D01*
X-0028706Y-0097624D02*
X-0029206D01*
X-0028706Y-0098124D02*
Y-0097624D01*
X-0029206Y-0098124D02*
X-0028706D01*
Y-0097624D02*
X-0029206Y-0098124D01*
X-0028706D02*
X-0029206Y-0097624D01*
Y-0096124D02*
Y-0096624D01*
X-0028706Y-0096124D02*
X-0029206D01*
X-0028706Y-0096624D02*
Y-0096124D01*
X-0029206Y-0096624D02*
X-0028706D01*
Y-0096374D02*
X-0029206D01*
X-0028956Y-0096124D02*
Y-0096624D01*
X-0029206Y-0094624D02*
Y-0095124D01*
X-0028706Y-0094624D02*
X-0029206D01*
X-0028706Y-0095124D02*
Y-0094624D01*
X-0029206Y-0095124D02*
X-0028706D01*
Y-0094874D02*
X-0029206D01*
X-0028956Y-0094624D02*
Y-0095124D01*
X-0029206Y-0093274D02*
Y-0093474D01*
X-0029056Y-0093124D02*
X-0029206Y-0093274D01*
X-0028856Y-0093124D02*
X-0029056D01*
X-0028706Y-0093274D02*
X-0028856Y-0093124D01*
X-0028706Y-0093474D02*
Y-0093274D01*
X-0028856Y-0093624D02*
X-0028706Y-0093474D01*
X-0029056Y-0093624D02*
X-0028856D01*
X-0029206Y-0093474D02*
X-0029056Y-0093624D01*
X-0028706Y-0091874D02*
X-0029206D01*
X-0028956Y-0091624D02*
Y-0092124D01*
X-0028456Y-0090374D02*
X-0029456D01*
X-0028956Y-0089874D02*
Y-0090874D01*
X-0028456Y-0088374D02*
X-0029456Y-0089374D01*
X-0028456D02*
X-0029456Y-0088374D01*
X0006519Y-0108174D02*
X-0030831D01*
X0006469Y-0108124D02*
X-0030781D01*
X0006469Y-0106124D02*
X-0030781D01*
X0006469Y-0104624D02*
X-0030781D01*
X0006469Y-0103124D02*
X-0030781D01*
X0006469Y-0101624D02*
X-0030781D01*
X0006469Y-0100124D02*
X-0030781D01*
X0006469Y-0098624D02*
X-0030781D01*
X0006469Y-0097124D02*
X-0030781D01*
X0006469Y-0095624D02*
X-0030781D01*
X0006469Y-0094124D02*
X-0030781D01*
X0006469Y-0092624D02*
X-0030781D01*
X0006469Y-0091124D02*
X-0030781D01*
X0006469Y-0089624D02*
X-0030781D01*
X0006469Y-0088124D02*
X-0030781D01*
X0006469Y-0088074D02*
X-0030781D01*
X0006469Y-0086124D02*
X-0030781D01*
X0006469Y-0086074D02*
X-0030781D01*
X0006469Y-0084124D02*
X-0030781D01*
X0006519Y-0084074D02*
X-0030831D01*
X0006519Y-0108124D02*
Y-0084124D01*
X0006469Y-0108124D02*
Y-0084124D01*
X-0005073Y-0108124D02*
Y-0086124D01*
X-0010623Y-0108124D02*
Y-0086124D01*
X-0018690Y-0106124D02*
Y-0086124D01*
X-0027081Y-0106124D02*
Y-0086124D01*
X-0027131Y-0106124D02*
Y-0086124D01*
X-0030831Y-0108124D02*
Y-0084124D01*
X-0030781Y-0108124D02*
Y-0084124D01*
X-0036250Y0005375D02*
Y-0071562D01*
X0009844D01*
Y0005375D01*
X-0036250D01*
Y-0071562D01*
X0009844D01*
Y0005375D01*
X-0036250D01*
X-0018500Y-0001812D02*
X-0019500Y-0002812D01*
X-0018500D02*
X-0019500Y-0001812D01*
X-0006812Y-0017844D02*
X-0007812Y-0018844D01*
X-0006812D02*
X-0007812Y-0017844D01*
X-0015812Y-0020000D02*
X-0016812Y-0021000D01*
X-0015812D02*
X-0016812Y-0020000D01*
X-0022125Y-0020844D02*
X-0023125Y-0021844D01*
X-0022125D02*
X-0023125Y-0020844D01*
X-0028687Y-0006094D02*
X-0029687Y-0007094D01*
X-0028687D02*
X-0029687Y-0006094D01*
X-0028687Y-0004344D02*
X-0029687Y-0005344D01*
X-0028687D02*
X-0029687Y-0004344D01*
X-0028625Y-0002000D02*
X-0029625Y-0003000D01*
X-0028625D02*
X-0029625Y-0002000D01*
X0001656Y0004719D02*
X0000656Y0003719D01*
X0001656D02*
X0000656Y0004719D01*
X-0002594Y-0011500D02*
X-0003594Y-0012500D01*
X-0002594D02*
X-0003594Y-0011500D01*
X-0002219Y-0015250D02*
X-0003219Y-0016250D01*
X-0002219D02*
X-0003219Y-0015250D01*
X-0033500Y-0039344D02*
X-0034500Y-0040344D01*
X-0033500D02*
X-0034500Y-0039344D01*
X-0026875Y-0048875D02*
X-0027875Y-0049875D01*
X-0026875D02*
X-0027875Y-0048875D01*
X-0022219Y-0042594D02*
X-0023219Y-0043594D01*
X-0022219D02*
X-0023219Y-0042594D01*
X-0020781D02*
X-0021781Y-0043594D01*
X-0020781D02*
X-0021781Y-0042594D01*
X-0018781Y-0047406D02*
X-0019781Y-0048406D01*
X-0018781D02*
X-0019781Y-0047406D01*
X-0020562Y-0043812D02*
X-0021562Y-0044812D01*
X-0020562D02*
X-0021562Y-0043812D01*
X-0019250Y-0043906D02*
X-0020250Y-0044906D01*
X-0019250D02*
X-0020250Y-0043906D01*
X-0024531Y-0041094D02*
X-0025531Y-0042094D01*
X-0024531D02*
X-0025531Y-0041094D01*
X-0023844Y-0042562D02*
X-0024844Y-0043562D01*
X-0023844D02*
X-0024844Y-0042562D01*
X-0019719Y-0052281D02*
X-0020719Y-0053281D01*
X-0019719D02*
X-0020719Y-0052281D01*
X-0018312D02*
X-0019312Y-0053281D01*
X-0018312D02*
X-0019312Y-0052281D01*
X-0030250Y-0038344D02*
X-0031250Y-0039344D01*
X-0030250D02*
X-0031250Y-0038344D01*
X-0013062Y-0031000D02*
X-0014062Y-0032000D01*
X-0013062D02*
X-0014062Y-0031000D01*
X-0001781Y-0008844D02*
X-0002781Y-0009844D01*
X-0001781D02*
X-0002781Y-0008844D01*
X-0018531Y-0059437D02*
X-0019531Y-0060437D01*
X-0018531D02*
X-0019531Y-0059437D01*
X-0019750Y-0060094D02*
X-0020750Y-0061094D01*
X-0019750D02*
X-0020750Y-0060094D01*
X-0018312Y-0055250D02*
X-0019312Y-0056250D01*
X-0018312D02*
X-0019312Y-0055250D01*
X-0018656D02*
X-0019656Y-0056250D01*
X-0018656D02*
X-0019656Y-0055250D01*
X-0028937Y-0052969D02*
X-0029937Y-0053969D01*
X-0028937D02*
X-0029937Y-0052969D01*
X-0029344Y-0052219D02*
X-0030344Y-0053219D01*
X-0029344D02*
X-0030344Y-0052219D01*
X-0018219Y-0058000D02*
X-0019219Y-0059000D01*
X-0018219D02*
X-0019219Y-0058000D01*
X-0018219Y-0057437D02*
X-0019219Y-0058437D01*
X-0018219D02*
X-0019219Y-0057437D01*
X-0017031D02*
X-0018031Y-0058437D01*
X-0017031D02*
X-0018031Y-0057437D01*
X-0017031Y-0058000D02*
X-0018031Y-0059000D01*
X-0017031D02*
X-0018031Y-0058000D01*
X-0024906Y-0042094D02*
X-0025906Y-0043094D01*
X-0024906D02*
X-0025906Y-0042094D01*
X-0022406Y-0048812D02*
X-0023406Y-0049812D01*
X-0022406D02*
X-0023406Y-0048812D01*
X-0020844D02*
X-0021844Y-0049812D01*
X-0020844D02*
X-0021844Y-0048812D01*
X-0025062Y-0047594D02*
X-0026062Y-0048594D01*
X-0025062D02*
X-0026062Y-0047594D01*
X-0028187Y-0048719D02*
X-0029187Y-0049719D01*
X-0028187D02*
X-0029187Y-0048719D01*
X-0029906Y-0046750D02*
X-0030906Y-0047750D01*
X-0029906D02*
X-0030906Y-0046750D01*
X-0019719Y-0051812D02*
X-0020719Y-0052812D01*
X-0019719D02*
X-0020719Y-0051812D01*
X-0018312Y-0051781D02*
X-0019312Y-0052781D01*
X-0018312D02*
X-0019312Y-0051781D01*
X-0010125Y-0034250D02*
X-0011125Y-0035250D01*
X-0010125D02*
X-0011125Y-0034250D01*
X-0028937Y-0052219D02*
X-0029937Y-0053219D01*
X-0028937D02*
X-0029937Y-0052219D01*
X-0012812Y-0054156D02*
X-0013812Y-0055156D01*
X-0012812D02*
X-0013812Y-0054156D01*
X0005724Y-0063318D02*
X0004724Y-0064318D01*
X0005724D02*
X0004724Y-0063318D01*
X-0029750Y-0031906D02*
X-0030750Y-0032906D01*
X-0029750D02*
X-0030750Y-0031906D01*
X0006969Y-0018031D02*
X0005969Y-0019031D01*
X0006969D02*
X0005969Y-0018031D01*
X0005594Y-0009344D02*
X0004594Y-0010344D01*
X0005594D02*
X0004594Y-0009344D01*
X0007125Y-0012281D02*
X0006125Y-0013281D01*
X0007125D02*
X0006125Y-0012281D01*
X-0005125Y0000000D02*
X-0006125Y-0001000D01*
X-0005125D02*
X-0006125Y0000000D01*
X-0030031Y0001219D02*
X-0031031Y0000219D01*
X-0030031D02*
X-0031031Y0001219D01*
X-0006062Y-0058781D02*
X-0007062Y-0059781D01*
X-0006062D02*
X-0007062Y-0058781D01*
X-0006812D02*
X-0007812Y-0059781D01*
X-0006812D02*
X-0007812Y-0058781D01*
X-0007562D02*
X-0008562Y-0059781D01*
X-0007562D02*
X-0008562Y-0058781D01*
X-0008312D02*
X-0009312Y-0059781D01*
X-0008312D02*
X-0009312Y-0058781D01*
X-0009062D02*
X-0010062Y-0059781D01*
X-0009062D02*
X-0010062Y-0058781D01*
X-0009062Y-0061344D02*
X-0010062Y-0062344D01*
X-0009062D02*
X-0010062Y-0061344D01*
X-0008312Y-0061375D02*
X-0009312Y-0062375D01*
X-0008312D02*
X-0009312Y-0061375D01*
X-0007562D02*
X-0008562Y-0062375D01*
X-0007562D02*
X-0008562Y-0061375D01*
X-0006812D02*
X-0007812Y-0062375D01*
X-0006812D02*
X-0007812Y-0061375D01*
X-0006062D02*
X-0007062Y-0062375D01*
X-0006062D02*
X-0007062Y-0061375D01*
X0006250Y-0017187D02*
X0005250Y-0018187D01*
X0006250D02*
X0005250Y-0017187D01*
X0005906Y-0007000D02*
X0004906Y-0008000D01*
X0005906D02*
X0004906Y-0007000D01*
X-0012250Y-0019531D02*
X-0013250Y-0020531D01*
X-0012250D02*
X-0013250Y-0019531D01*
X-0010156Y-0022437D02*
X-0011156Y-0023437D01*
X-0010156D02*
X-0011156Y-0022437D01*
X-0009500Y-0020969D02*
X-0010500Y-0021969D01*
X-0009500D02*
X-0010500Y-0020969D01*
X-0012812Y-0019531D02*
X-0013812Y-0020531D01*
X-0012812D02*
X-0013812Y-0019531D01*
X-0015406Y-0007906D02*
X-0016406Y-0008906D01*
X-0015406D02*
X-0016406Y-0007906D01*
X-0007375Y0001344D02*
X-0008375Y0000344D01*
X-0007375D02*
X-0008375Y0001344D01*
X-0009625D02*
X-0010625Y0000344D01*
X-0009625D02*
X-0010625Y0001344D01*
X-0011875D02*
X-0012875Y0000344D01*
X-0011875D02*
X-0012875Y0001344D01*
X-0013375D02*
X-0014375Y0000344D01*
X-0013375D02*
X-0014375Y0001344D01*
X-0017125Y0001312D02*
X-0018125Y0000312D01*
X-0017125D02*
X-0018125Y0001312D01*
X-0018625D02*
X-0019625Y0000312D01*
X-0018625D02*
X-0019625Y0001312D01*
X-0020125Y0000000D02*
X-0021125Y-0001000D01*
X-0020125D02*
X-0021125Y0000000D01*
X-0020875D02*
X-0021875Y-0001000D01*
X-0020875D02*
X-0021875Y0000000D01*
X-0021625D02*
X-0022625Y-0001000D01*
X-0021625D02*
X-0022625Y0000000D01*
X-0035125Y-0034062D02*
X-0036125Y-0035062D01*
X-0035125D02*
X-0036125Y-0034062D01*
X-0033906Y-0031500D02*
X-0034906Y-0032500D01*
X-0033906D02*
X-0034906Y-0031500D01*
X-0028844Y-0032312D02*
X-0029844Y-0033312D01*
X-0028844D02*
X-0029844Y-0032312D01*
X-0031406Y-0017156D02*
X-0032406Y-0018156D01*
X-0031406D02*
X-0032406Y-0017156D01*
X-0030000Y-0014969D02*
X-0031000Y-0015969D01*
X-0030000D02*
X-0031000Y-0014969D01*
X-0030031Y-0013781D02*
X-0031031Y-0014781D01*
X-0030031D02*
X-0031031Y-0013781D01*
X-0030031Y-0012781D02*
X-0031031Y-0013781D01*
X-0030031D02*
X-0031031Y-0012781D01*
X-0031406Y-0011781D02*
X-0032406Y-0012781D01*
X-0031406D02*
X-0032406Y-0011781D01*
X-0031406Y-0009750D02*
X-0032406Y-0010750D01*
X-0031406D02*
X-0032406Y-0009750D01*
X-0031437Y-0007781D02*
X-0032437Y-0008781D01*
X-0031437D02*
X-0032437Y-0007781D01*
X-0031437Y-0005781D02*
X-0032437Y-0006781D01*
X-0031437D02*
X-0032437Y-0005781D01*
X-0031437Y-0002812D02*
X-0032437Y-0003812D01*
X-0031437D02*
X-0032437Y-0002812D01*
X-0031437Y-0001781D02*
X-0032437Y-0002781D01*
X-0031437D02*
X-0032437Y-0001781D01*
X-0030031Y-0000750D02*
X-0031031Y-0001750D01*
X-0030031D02*
X-0031031Y-0000750D01*
X0002344Y-0034250D02*
X0001344Y-0035250D01*
X0002344D02*
X0001344Y-0034250D01*
X-0017469Y-0025000D02*
X-0018469Y-0026000D01*
X-0017469D02*
X-0018469Y-0025000D01*
X-0017625Y-0024500D02*
X-0018625Y-0025500D01*
X-0017625D02*
X-0018625Y-0024500D01*
X-0017719Y-0017031D02*
X-0018719Y-0018031D01*
X-0017719D02*
X-0018719Y-0017031D01*
X-0009687Y-0018656D02*
X-0010687Y-0019656D01*
X-0009687D02*
X-0010687Y-0018656D01*
X-0006031Y-0010000D02*
X-0007031Y-0011000D01*
X-0006031D02*
X-0007031Y-0010000D01*
X-0016250Y-0006500D02*
X-0017250Y-0007500D01*
X-0016250D02*
X-0017250Y-0006500D01*
X-0016437Y-0006750D02*
X-0017437Y-0007750D01*
X-0016437D02*
X-0017437Y-0006750D01*
X-0003219Y-0015250D02*
X-0004219Y-0016250D01*
X-0003219D02*
X-0004219Y-0015250D01*
X-0006687D02*
X-0007687Y-0016250D01*
X-0006687D02*
X-0007687Y-0015250D01*
X-0011437Y-0010094D02*
X-0012437Y-0011094D01*
X-0011437D02*
X-0012437Y-0010094D01*
X-0008500Y-0016687D02*
X-0009500Y-0017687D01*
X-0008500D02*
X-0009500Y-0016687D01*
X-0014000Y-0017000D02*
X-0015000Y-0018000D01*
X-0014000D02*
X-0015000Y-0017000D01*
X-0011156Y-0010250D02*
X-0012156Y-0011250D01*
X-0011156D02*
X-0012156Y-0010250D01*
X-0008094Y-0008219D02*
X-0009094Y-0009219D01*
X-0008094D02*
X-0009094Y-0008219D01*
X-0009562Y-0006656D02*
X-0010562Y-0007656D01*
X-0009562D02*
X-0010562Y-0006656D01*
X-0021500Y-0007000D02*
X-0022500Y-0008000D01*
X-0021500D02*
X-0022500Y-0007000D01*
X-0021250Y-0005062D02*
X-0022250Y-0006062D01*
X-0021250D02*
X-0022250Y-0005062D01*
X-0025188Y-0004312D02*
X-0026188Y-0005312D01*
X-0025188D02*
X-0026188Y-0004312D01*
X-0017156Y-0007000D02*
X-0018156Y-0008000D01*
X-0017156D02*
X-0018156Y-0007000D01*
X-0015562Y-0020469D02*
X-0016562Y-0021469D01*
X-0015562D02*
X-0016562Y-0020469D01*
X-0014875D02*
X-0015875Y-0021469D01*
X-0014875D02*
X-0015875Y-0020469D01*
X-0013219Y-0030500D02*
X-0014219Y-0031500D01*
X-0013219D02*
X-0014219Y-0030500D01*
X-0016219Y-0017656D02*
X-0017219Y-0018656D01*
X-0016219D02*
X-0017219Y-0017656D01*
X-0023156Y-0019000D02*
X-0024156Y-0020000D01*
X-0023156D02*
X-0024156Y-0019000D01*
X-0028562Y-0021000D02*
X-0029562Y-0022000D01*
X-0028562D02*
X-0029562Y-0021000D01*
X-0015219Y-0011406D02*
X-0016219Y-0012406D01*
X-0015219D02*
X-0016219Y-0011406D01*
X-0014969Y-0011156D02*
X-0015969Y-0012156D01*
X-0014969D02*
X-0015969Y-0011156D01*
X-0014719Y-0010906D02*
X-0015719Y-0011906D01*
X-0014719D02*
X-0015719Y-0010906D01*
X-0019750Y-0010312D02*
X-0020750Y-0011312D01*
X-0019750D02*
X-0020750Y-0010312D01*
X-0020031Y-0010062D02*
X-0021031Y-0011062D01*
X-0020031D02*
X-0021031Y-0010062D01*
X-0020281Y-0009781D02*
X-0021281Y-0010781D01*
X-0020281D02*
X-0021281Y-0009781D01*
X-0019594Y-0013906D02*
X-0020594Y-0014906D01*
X-0019594D02*
X-0020594Y-0013906D01*
X-0020781Y-0009281D02*
X-0021781Y-0010281D01*
X-0020781D02*
X-0021781Y-0009281D01*
X-0020531Y-0009531D02*
X-0021531Y-0010531D01*
X-0020531D02*
X-0021531Y-0009531D01*
X-0008312Y-0007969D02*
X-0009312Y-0008969D01*
X-0008312D02*
X-0009312Y-0007969D01*
X-0005750Y-0009750D02*
X-0006750Y-0010750D01*
X-0005750D02*
X-0006750Y-0009750D01*
X-0006000Y-0009500D02*
X-0007000Y-0010500D01*
X-0006000D02*
X-0007000Y-0009500D01*
X-0011531Y-0009781D02*
X-0012531Y-0010781D01*
X-0011531D02*
X-0012531Y-0009781D01*
X-0007562Y-0001062D02*
X-0008562Y-0002062D01*
X-0007562D02*
X-0008562Y-0001062D01*
X-0020156Y-0040719D02*
X-0021156Y-0041719D01*
X-0020156D02*
X-0021156Y-0040719D01*
X0006687Y-0009219D02*
X0005687Y-0010219D01*
X0006687D02*
X0005687Y-0009219D01*
X0006562Y-0001687D02*
X0005562Y-0002687D01*
X0006562D02*
X0005562Y-0001687D01*
X0003625Y-0001344D02*
X0002625Y-0002344D01*
X0003625D02*
X0002625Y-0001344D01*
X0004687Y0000344D02*
X0003687Y-0000656D01*
X0004687D02*
X0003687Y0000344D01*
X0004906Y0003625D02*
X0003906Y0002625D01*
X0004906D02*
X0003906Y0003625D01*
X0008594Y-0004062D02*
X0007594Y-0005062D01*
X0008594D02*
X0007594Y-0004062D01*
X0009719Y0002187D02*
X0008719Y0001187D01*
X0009719D02*
X0008719Y0002187D01*
X0001625Y0002500D02*
X0000625Y0001500D01*
X0001625D02*
X0000625Y0002500D01*
X-0003281Y0002031D02*
X-0004281Y0001031D01*
X-0003281D02*
X-0004281Y0002031D01*
X0001359Y-0035667D02*
X0000359Y-0036667D01*
X0001359D02*
X0000359Y-0035667D01*
X0001437Y-0039156D02*
X0000437Y-0040156D01*
X0001437D02*
X0000437Y-0039156D01*
X0000062Y-0043375D02*
X-0000937Y-0044375D01*
X0000062D02*
X-0000937Y-0043375D01*
X-0000969Y-0036719D02*
X-0001969Y-0037719D01*
X-0000969D02*
X-0001969Y-0036719D01*
X-0001351Y-0032989D02*
X-0002351Y-0033989D01*
X-0001351D02*
X-0002351Y-0032989D01*
X0009125Y-0023875D02*
X0008125Y-0024875D01*
X0009125D02*
X0008125Y-0023875D01*
X-0015156Y-0023750D02*
X-0016156Y-0024750D01*
X-0015156D02*
X-0016156Y-0023750D01*
X-0022125Y-0022875D02*
X-0023125Y-0023875D01*
X-0022125D02*
X-0023125Y-0022875D01*
X-0014312Y-0020000D02*
X-0015312Y-0021000D01*
X-0014312D02*
X-0015312Y-0020000D01*
X-0019312Y-0004187D02*
X-0020312Y-0005187D01*
X-0019312D02*
X-0020312Y-0004187D01*
X-0004906Y-0005469D02*
X-0005906Y-0006469D01*
X-0004906D02*
X-0005906Y-0005469D01*
X-0018594Y-0008219D02*
X-0019594Y-0009219D01*
X-0018594D02*
X-0019594Y-0008219D01*
X-0032531Y-0012219D02*
X-0033531Y-0013219D01*
X-0032531D02*
X-0033531Y-0012219D01*
X-0034531Y-0017187D02*
X-0035531Y-0018187D01*
X-0034531D02*
X-0035531Y-0017187D01*
X-0030250Y-0024719D02*
X-0031250Y-0025719D01*
X-0030250D02*
X-0031250Y-0024719D01*
X-0034656Y-0020312D02*
X-0035656Y-0021312D01*
X-0034656D02*
X-0035656Y-0020312D01*
X-0034656Y-0024406D02*
X-0035656Y-0025406D01*
X-0034656D02*
X-0035656Y-0024406D01*
X-0034875Y-0026312D02*
X-0035875Y-0027312D01*
X-0034875D02*
X-0035875Y-0026312D01*
X-0030937Y-0049406D02*
X-0031937Y-0050406D01*
X-0030937D02*
X-0031937Y-0049406D01*
X-0034960Y-0068132D02*
X-0035960Y-0069132D01*
X-0034960D02*
X-0035960Y-0068132D01*
X-0032101Y-0070610D02*
X-0033101Y-0071610D01*
X-0032101D02*
X-0033101Y-0070610D01*
X-0029062Y-0066031D02*
X-0030062Y-0067031D01*
X-0029062D02*
X-0030062Y-0066031D01*
X-0024821Y-0069637D02*
X-0025821Y-0070637D01*
X-0024821D02*
X-0025821Y-0069637D01*
X-0024311Y-0062767D02*
X-0025311Y-0063767D01*
X-0024311D02*
X-0025311Y-0062767D01*
X-0017625Y-0060094D02*
X-0018625Y-0061094D01*
X-0017625D02*
X-0018625Y-0060094D01*
X-0008812Y-0049469D02*
X-0009812Y-0050469D01*
X-0008812D02*
X-0009812Y-0049469D01*
X-0007675Y-0047327D02*
X-0008675Y-0048327D01*
X-0007675D02*
X-0008675Y-0047327D01*
X-0001219Y-0046500D02*
X-0002219Y-0047500D01*
X-0001219D02*
X-0002219Y-0046500D01*
X-0011051Y-0046906D02*
X-0012051Y-0047906D01*
X-0011051D02*
X-0012051Y-0046906D01*
X-0010031Y-0043750D02*
X-0011031Y-0044750D01*
X-0010031D02*
X-0011031Y-0043750D01*
X-0010437Y-0037875D02*
X-0011437Y-0038875D01*
X-0010437D02*
X-0011437Y-0037875D01*
X-0015687Y-0036656D02*
X-0016687Y-0037656D01*
X-0015687D02*
X-0016687Y-0036656D01*
X-0007625Y-0043375D02*
X-0008625Y-0044375D01*
X-0007625D02*
X-0008625Y-0043375D01*
X-0007561Y-0033307D02*
X-0008561Y-0034307D01*
X-0007561D02*
X-0008561Y-0033307D01*
X-0003557Y-0031701D02*
X-0004557Y-0032701D01*
X-0003557D02*
X-0004557Y-0031701D01*
X-0023250Y-0066227D02*
X-0024250Y-0067227D01*
X-0023250D02*
X-0024250Y-0066227D01*
X-0003622Y-0069486D02*
X-0004622Y-0070486D01*
X-0003622D02*
X-0004622Y-0069486D01*
X-0002352Y-0060957D02*
X-0003352Y-0061957D01*
X-0002352D02*
X-0003352Y-0060957D01*
X-0025719Y-0066031D02*
X-0026719Y-0067031D01*
X-0025719D02*
X-0026719Y-0066031D01*
X-0017507Y-0065697D02*
X-0018507Y-0066697D01*
X-0017507D02*
X-0018507Y-0065697D01*
X-0004189Y-0065347D02*
X-0005189Y-0066347D01*
X-0004189D02*
X-0005189Y-0065347D01*
X-0008462Y-0031067D02*
X-0009462Y-0032067D01*
X-0008462D02*
X-0009462Y-0031067D01*
X-0007519Y-0028392D02*
X-0008519Y-0029392D01*
X-0007519D02*
X-0008519Y-0028392D01*
X-0008659Y-0026091D02*
X-0009659Y-0027091D01*
X-0008659D02*
X-0009659Y-0026091D01*
X0008899Y-0059055D02*
X0007899Y-0060055D01*
X0008899D02*
X0007899Y-0059055D01*
X0002147Y-0059279D02*
X0001147Y-0060279D01*
X0002147D02*
X0001147Y-0059279D01*
X0000167Y-0059495D02*
X-0000832Y-0060495D01*
X0000167D02*
X-0000832Y-0059495D01*
X0007920Y-0061706D02*
X0006920Y-0062706D01*
X0007920D02*
X0006920Y-0061706D01*
X0005689Y-0060159D02*
X0004689Y-0061159D01*
X0005689D02*
X0004689Y-0060159D01*
X0002489Y-0066054D02*
X0001489Y-0067054D01*
X0002489D02*
X0001489Y-0066054D01*
X0002631Y-0062135D02*
X0001631Y-0063135D01*
X0002631D02*
X0001631Y-0062135D01*
X0006187Y-0068926D02*
X0005187Y-0069926D01*
X0006187D02*
X0005187Y-0068926D01*
X0003636Y-0068440D02*
X0002636Y-0069440D01*
X0003636D02*
X0002636Y-0068440D01*
X0005112Y-0062580D02*
X0004112Y-0063580D01*
X0005112D02*
X0004112Y-0062580D01*
X-0009937Y-0054781D02*
X-0010937Y-0055781D01*
X-0009937D02*
X-0010937Y-0054781D01*
X-0013156D02*
X-0014156Y-0055781D01*
X-0013156D02*
X-0014156Y-0054781D01*
X-0011562Y-0050937D02*
X-0012562Y-0051937D01*
X-0011562D02*
X-0012562Y-0050937D01*
X-0017500Y-0069031D02*
X-0018500Y-0070031D01*
X-0017500D02*
X-0018500Y-0069031D01*
X-0009937Y-0056500D02*
X-0010937Y-0057500D01*
X-0009937D02*
X-0010937Y-0056500D01*
X-0011252Y-0069029D02*
X-0012252Y-0070029D01*
X-0011252D02*
X-0012252Y-0069029D01*
X-0013156Y-0057719D02*
X-0014156Y-0058719D01*
X-0013156D02*
X-0014156Y-0057719D01*
X-0010062Y-0059156D02*
X-0011062Y-0060156D01*
X-0010062D02*
X-0011062Y-0059156D01*
X-0011294Y-0066047D02*
X-0012294Y-0067047D01*
X-0011294D02*
X-0012294Y-0066047D01*
X-0010281Y-0062562D02*
X-0011281Y-0063562D01*
X-0010281D02*
X-0011281Y-0062562D01*
X-0026281Y-0062750D02*
X-0027281Y-0063750D01*
X-0026281D02*
X-0027281Y-0062750D01*
X-0027972Y-0058014D02*
X-0028972Y-0059014D01*
X-0027972D02*
X-0028972Y-0058014D01*
X-0026574Y-0053505D02*
X-0027574Y-0054505D01*
X-0026574D02*
X-0027574Y-0053505D01*
X-0003531Y-0049125D02*
X-0004531Y-0050125D01*
X-0003531D02*
X-0004531Y-0049125D01*
X-0004390Y-0046437D02*
X-0005390Y-0047437D01*
X-0004390D02*
X-0005390Y-0046437D01*
X-0002375Y-0055937D02*
X-0003375Y-0056937D01*
X-0002375D02*
X-0003375Y-0055937D01*
X-0000032Y-0055945D02*
X-0001032Y-0056945D01*
X-0000032D02*
X-0001032Y-0055945D01*
X-0000221Y-0048887D02*
X-0001221Y-0049887D01*
X-0000221D02*
X-0001221Y-0048887D01*
X-0003014Y-0035897D02*
X-0004014Y-0036897D01*
X-0003014D02*
X-0004014Y-0035897D01*
X-0006812Y-0037625D02*
X-0007812Y-0038625D01*
X-0006812D02*
X-0007812Y-0037625D01*
X-0005344Y-0035844D02*
X-0006344Y-0036844D01*
X-0005344D02*
X-0006344Y-0035844D01*
X-0003500Y-0038875D02*
X-0004500Y-0039875D01*
X-0003500D02*
X-0004500Y-0038875D01*
X-0004022Y-0043317D02*
X-0005022Y-0044317D01*
X-0004022D02*
X-0005022Y-0043317D01*
X0005844Y-0033812D02*
X0004844Y-0034812D01*
X0005844D02*
X0004844Y-0033812D01*
X-0010844Y-0001094D02*
X-0011844Y-0002094D01*
X-0010844D02*
X-0011844Y-0001094D01*
X-0004375Y-0000031D02*
X-0005375Y-0001031D01*
X-0004375D02*
X-0005375Y-0000031D01*
X-0021812Y0002187D02*
X-0022812Y0001187D01*
X-0021812D02*
X-0022812Y0002187D01*
X-0022187Y-0007250D02*
X-0023187Y-0008250D01*
X-0022187D02*
X-0023187Y-0007250D01*
X-0006906Y-0021094D02*
X-0007906Y-0022094D01*
X-0006906D02*
X-0007906Y-0021094D01*
X0004812Y-0021625D02*
X0003812Y-0022625D01*
X0004812D02*
X0003812Y-0021625D01*
X-0023594Y0004000D02*
X-0024594Y0003000D01*
X-0023594D02*
X-0024594Y0004000D01*
X-0032062Y0002875D02*
X-0033062Y0001875D01*
X-0032062D02*
X-0033062Y0002875D01*
X-0030125Y-0040437D02*
X-0031125Y-0041437D01*
X-0030125D02*
X-0031125Y-0040437D01*
X-0020875Y-0036812D02*
X-0021875Y-0037812D01*
X-0020875D02*
X-0021875Y-0036812D01*
X0005471Y-0047185D02*
X0004471Y-0048185D01*
X0005471D02*
X0004471Y-0047185D01*
X0005469Y-0046187D02*
X0004469Y-0047187D01*
X0005469D02*
X0004469Y-0046187D01*
X0005469Y-0045156D02*
X0004469Y-0046156D01*
X0005469D02*
X0004469Y-0045156D01*
X0005469Y-0044188D02*
X0004469Y-0045188D01*
X0005469D02*
X0004469Y-0044188D01*
X0005469Y-0043187D02*
X0004469Y-0044187D01*
X0005469D02*
X0004469Y-0043187D01*
X0005471Y-0042154D02*
X0004471Y-0043154D01*
X0005471D02*
X0004471Y-0042154D01*
X0005469Y-0041187D02*
X0004469Y-0042187D01*
X0005469D02*
X0004469Y-0041187D01*
X0005469Y-0039281D02*
X0004469Y-0040281D01*
X0005469D02*
X0004469Y-0039281D01*
X0005469Y-0038156D02*
X0004469Y-0039156D01*
X0005469D02*
X0004469Y-0038156D01*
X0008125Y-0056750D02*
X0007125Y-0057750D01*
X0008125D02*
X0007125Y-0056750D01*
X0008156Y-0057250D02*
X0007156Y-0058250D01*
X0008156D02*
X0007156Y-0057250D01*
X0001812Y-0068937D02*
X0000812Y-0069937D01*
X0001812D02*
X0000812Y-0068937D01*
X-0001623Y-0064565D02*
X-0002623Y-0065565D01*
X-0001623D02*
X-0002623Y-0064565D01*
X-0015906Y-0066000D02*
X-0016906Y-0067000D01*
X-0015906D02*
X-0016906Y-0066000D01*
X-0011937Y-0062875D02*
X-0012937Y-0063875D01*
X-0011937D02*
X-0012937Y-0062875D01*
X-0012000Y-0069656D02*
X-0013000Y-0070656D01*
X-0012000D02*
X-0013000Y-0069656D01*
X-0019000Y-0069531D02*
X-0020000Y-0070531D01*
X-0019000D02*
X-0020000Y-0069531D01*
X-0020562Y-0064281D02*
X-0021562Y-0065281D01*
X-0020562D02*
X-0021562Y-0064281D01*
X-0021034Y-0065466D02*
X-0022034Y-0066466D01*
X-0021034D02*
X-0022034Y-0065466D01*
X-0026000Y-0065062D02*
X-0027000Y-0066062D01*
X-0026000D02*
X-0027000Y-0065062D01*
X-0028781D02*
X-0029781Y-0066062D01*
X-0028781D02*
X-0029781Y-0065062D01*
X-0018031Y-0012250D02*
X-0019031Y-0013250D01*
X-0018031D02*
X-0019031Y-0012250D01*
X-0018031Y-0011719D02*
X-0019031Y-0012719D01*
X-0018031D02*
X-0019031Y-0011719D01*
X-0016437Y-0008281D02*
X-0017437Y-0009281D01*
X-0016437D02*
X-0017437Y-0008281D01*
X-0015281Y-0006719D02*
X-0016281Y-0007719D01*
X-0015281D02*
X-0016281Y-0006719D01*
X-0013281Y-0007469D02*
X-0014281Y-0008469D01*
X-0013281D02*
X-0014281Y-0007469D01*
X-0012719D02*
X-0013719Y-0008469D01*
X-0012719D02*
X-0013719Y-0007469D01*
X-0010687D02*
X-0011687Y-0008469D01*
X-0010687D02*
X-0011687Y-0007469D01*
X-0010125D02*
X-0011125Y-0008469D01*
X-0010125D02*
X-0011125Y-0007469D01*
X-0004937Y-0010031D02*
X-0005937Y-0011031D01*
X-0004937D02*
X-0005937Y-0010031D01*
X-0006969Y-0009500D02*
X-0007969Y-0010500D01*
X-0006969D02*
X-0007969Y-0009500D01*
X-0006062Y-0012125D02*
X-0007062Y-0013125D01*
X-0006062D02*
X-0007062Y-0012125D01*
X-0006062Y-0011562D02*
X-0007062Y-0012562D01*
X-0006062D02*
X-0007062Y-0011562D01*
X-0006031Y-0013844D02*
X-0007031Y-0014844D01*
X-0006031D02*
X-0007031Y-0013844D01*
X-0006031Y-0014375D02*
X-0007031Y-0015375D01*
X-0006031D02*
X-0007031Y-0014375D01*
X-0006375Y-0016844D02*
X-0007375Y-0017844D01*
X-0006375D02*
X-0007375Y-0016844D01*
X-0007656Y-0018656D02*
X-0008656Y-0019656D01*
X-0007656D02*
X-0008656Y-0018656D01*
X-0015187Y-0021687D02*
X-0016187Y-0022687D01*
X-0015187D02*
X-0016187Y-0021687D01*
X-0011562Y-0021031D02*
X-0012562Y-0022031D01*
X-0011562D02*
X-0012562Y-0021031D01*
X-0017069Y-0017837D02*
X-0018069Y-0018837D01*
X-0017069D02*
X-0018069Y-0017837D01*
X-0017469Y-0016812D02*
X-0018469Y-0017812D01*
X-0017469D02*
X-0018469Y-0016812D01*
X-0017906Y-0014094D02*
X-0018906Y-0015094D01*
X-0017906D02*
X-0018906Y-0014094D01*
X-0017906Y-0014594D02*
X-0018906Y-0015594D01*
X-0017906D02*
X-0018906Y-0014594D01*
X-0009312Y-0024375D02*
X-0009812D01*
X-0009562Y-0024125D02*
Y-0024625D01*
X-0011312Y-0024375D02*
X-0011812D01*
X-0011562Y-0024125D02*
Y-0024625D01*
X-0018094Y-0044812D02*
X-0018594D01*
X-0018344Y-0044562D02*
Y-0045062D01*
X-0018094Y-0046812D02*
X-0018594D01*
X-0018344Y-0046562D02*
Y-0047062D01*
X-0032538Y-0055219D02*
Y-0055419D01*
X-0032288Y-0055469D02*
X-0032538Y-0055219D01*
X-0032038D02*
X-0032288Y-0055469D01*
X-0032038Y-0055419D02*
Y-0055219D01*
X-0032288Y-0055169D02*
X-0032038Y-0055419D01*
X-0032538D02*
X-0032288Y-0055169D01*
X-0032538Y-0053219D02*
Y-0053419D01*
X-0032288Y-0053469D02*
X-0032538Y-0053219D01*
X-0032038D02*
X-0032288Y-0053469D01*
X-0032038Y-0053419D02*
Y-0053219D01*
X-0032288Y-0053169D02*
X-0032038Y-0053419D01*
X-0032538D02*
X-0032288Y-0053169D01*
X-0033538Y-0054219D02*
Y-0054419D01*
X-0033288Y-0054469D02*
X-0033538Y-0054219D01*
X-0033038D02*
X-0033288Y-0054469D01*
X-0033038Y-0054419D02*
Y-0054219D01*
X-0033288Y-0054169D02*
X-0033038Y-0054419D01*
X-0033538D02*
X-0033288Y-0054169D01*
X-0034538Y-0053219D02*
Y-0053419D01*
X-0034288Y-0053469D02*
X-0034538Y-0053219D01*
X-0034038D02*
X-0034288Y-0053469D01*
X-0034038Y-0053419D02*
Y-0053219D01*
X-0034288Y-0053169D02*
X-0034038Y-0053419D01*
X-0034538D02*
X-0034288Y-0053169D01*
X-0033538Y-0052214D02*
Y-0052414D01*
X-0033288Y-0052464D02*
X-0033538Y-0052214D01*
X-0033038D02*
X-0033288Y-0052464D01*
X-0033038Y-0052414D02*
Y-0052214D01*
X-0033288Y-0052164D02*
X-0033038Y-0052414D01*
X-0033538D02*
X-0033288Y-0052164D01*
X-0034538Y-0055219D02*
Y-0055419D01*
X-0034288Y-0055469D02*
X-0034538Y-0055219D01*
X-0034038D02*
X-0034288Y-0055469D01*
X-0034038Y-0055419D02*
Y-0055219D01*
X-0034288Y-0055169D02*
X-0034038Y-0055419D01*
X-0034538D02*
X-0034288Y-0055169D01*
X-0008324Y-0067717D02*
X-0008824D01*
X-0008574Y-0067467D02*
Y-0067967D01*
X-0007766Y-0068675D02*
Y-0068875D01*
X-0007616Y-0068525D02*
X-0007766Y-0068675D01*
X-0007416Y-0068525D02*
X-0007616D01*
X-0007266Y-0068675D02*
X-0007416Y-0068525D01*
X-0007266Y-0068875D02*
Y-0068675D01*
X-0007416Y-0069025D02*
X-0007266Y-0068875D01*
X-0007616Y-0069025D02*
X-0007416D01*
X-0007766Y-0068875D02*
X-0007616Y-0069025D01*
X-0026969Y-0039469D02*
X-0027469D01*
X-0027219Y-0039219D02*
Y-0039719D01*
X-0026969Y-0040269D02*
X-0027469D01*
X-0027219Y-0040019D02*
Y-0040519D01*
X-0026969Y-0041069D02*
X-0027469D01*
X-0027219Y-0040819D02*
Y-0041319D01*
X-0005247Y-0022847D02*
X-0005747D01*
X-0005497Y-0022597D02*
Y-0023097D01*
X-0005247Y-0022047D02*
X-0005747D01*
X-0005497Y-0021797D02*
Y-0022297D01*
X-0005247Y-0021247D02*
X-0005747D01*
X-0005497Y-0020997D02*
Y-0021497D01*
X-0003156Y-0022844D02*
X-0003656D01*
X-0003406Y-0022594D02*
Y-0023094D01*
X-0003156Y-0022044D02*
X-0003656D01*
X-0003406Y-0021794D02*
Y-0022294D01*
X-0003156Y-0021244D02*
X-0003656D01*
X-0003406Y-0020994D02*
Y-0021494D01*
X0004974Y-0064313D02*
Y-0064813D01*
X0005474Y-0064313D02*
X0004974D01*
X0005474Y-0064813D02*
Y-0064313D01*
X0004974Y-0064813D02*
X0005474D01*
Y-0064563D02*
X0004974D01*
X0005224Y-0064313D02*
Y-0064813D01*
X0004974Y-0065313D02*
Y-0065813D01*
X0005474Y-0065313D02*
X0004974D01*
X0005474Y-0065813D02*
Y-0065313D01*
X0004974Y-0065813D02*
X0005474D01*
Y-0065563D02*
X0004974D01*
X0005224Y-0065313D02*
Y-0065813D01*
X0004974Y-0066313D02*
Y-0066813D01*
X0005474Y-0066313D02*
X0004974D01*
X0005474Y-0066813D02*
Y-0066313D01*
X0004974Y-0066813D02*
X0005474D01*
Y-0066563D02*
X0004974D01*
X0005224Y-0066313D02*
Y-0066813D01*
X0007548Y-0062997D02*
X0007298Y-0063247D01*
X0007798D02*
X0007548Y-0062997D01*
X0007298Y-0063247D02*
X0007798D01*
X0007548Y-0067795D02*
X0007298Y-0068045D01*
X0007798D02*
X0007548Y-0067795D01*
X0007298Y-0068045D02*
X0007798D01*
X-0032072Y-0022411D02*
Y-0022911D01*
X-0031572Y-0022411D02*
X-0032072D01*
X-0031572Y-0022911D02*
Y-0022411D01*
X-0032072Y-0022911D02*
X-0031572D01*
Y-0022661D02*
X-0032072D01*
X-0031822Y-0022411D02*
Y-0022911D01*
X-0032072Y-0023501D02*
Y-0024001D01*
X-0031572Y-0023501D02*
X-0032072D01*
X-0031572Y-0024001D02*
Y-0023501D01*
X-0032072Y-0024001D02*
X-0031572D01*
Y-0023751D02*
X-0032072D01*
X-0031822Y-0023501D02*
Y-0024001D01*
X-0032072Y-0024591D02*
Y-0025091D01*
X-0031572Y-0024591D02*
X-0032072D01*
X-0031572Y-0025091D02*
Y-0024591D01*
X-0032072Y-0025091D02*
X-0031572D01*
Y-0024841D02*
X-0032072D01*
X-0031822Y-0024591D02*
Y-0025091D01*
X-0032072Y-0025681D02*
Y-0026181D01*
X-0031572Y-0025681D02*
X-0032072D01*
X-0031572Y-0026181D02*
Y-0025681D01*
X-0032072Y-0026181D02*
X-0031572D01*
Y-0025931D02*
X-0032072D01*
X-0031822Y-0025681D02*
Y-0026181D01*
X-0032072Y-0026771D02*
Y-0027271D01*
X-0031572Y-0026771D02*
X-0032072D01*
X-0031572Y-0027271D02*
Y-0026771D01*
X-0032072Y-0027271D02*
X-0031572D01*
Y-0027021D02*
X-0032072D01*
X-0031822Y-0026771D02*
Y-0027271D01*
X-0033192Y-0022956D02*
Y-0023456D01*
X-0032692Y-0022956D02*
X-0033192D01*
X-0032692Y-0023456D02*
Y-0022956D01*
X-0033192Y-0023456D02*
X-0032692D01*
Y-0023206D02*
X-0033192D01*
X-0032942Y-0022956D02*
Y-0023456D01*
X-0033192Y-0024046D02*
Y-0024546D01*
X-0032692Y-0024046D02*
X-0033192D01*
X-0032692Y-0024546D02*
Y-0024046D01*
X-0033192Y-0024546D02*
X-0032692D01*
Y-0024296D02*
X-0033192D01*
X-0032942Y-0024046D02*
Y-0024546D01*
X-0033192Y-0025136D02*
Y-0025636D01*
X-0032692Y-0025136D02*
X-0033192D01*
X-0032692Y-0025636D02*
Y-0025136D01*
X-0033192Y-0025636D02*
X-0032692D01*
Y-0025386D02*
X-0033192D01*
X-0032942Y-0025136D02*
Y-0025636D01*
X-0033192Y-0026226D02*
Y-0026726D01*
X-0032692Y-0026226D02*
X-0033192D01*
X-0032692Y-0026726D02*
Y-0026226D01*
X-0033192Y-0026726D02*
X-0032692D01*
Y-0026476D02*
X-0033192D01*
X-0032942Y-0026226D02*
Y-0026726D01*
X-0032132Y-0019671D02*
X-0032632Y-0020171D01*
X-0032132D02*
X-0032632Y-0019671D01*
X-0032132Y-0029511D02*
X-0032632Y-0030011D01*
X-0032132D02*
X-0032632Y-0029511D01*
X0005125Y-0026750D02*
Y-0027250D01*
X0005625Y-0026750D02*
X0005125D01*
X0005625Y-0027250D02*
Y-0026750D01*
X0005125Y-0027250D02*
X0005625D01*
Y-0027000D02*
X0005125D01*
X0005375Y-0026750D02*
Y-0027250D01*
X0005125Y-0025660D02*
Y-0026160D01*
X0005625Y-0025660D02*
X0005125D01*
X0005625Y-0026160D02*
Y-0025660D01*
X0005125Y-0026160D02*
X0005625D01*
Y-0025910D02*
X0005125D01*
X0005375Y-0025660D02*
Y-0026160D01*
X0005125Y-0024570D02*
Y-0025070D01*
X0005625Y-0024570D02*
X0005125D01*
X0005625Y-0025070D02*
Y-0024570D01*
X0005125Y-0025070D02*
X0005625D01*
Y-0024820D02*
X0005125D01*
X0005375Y-0024570D02*
Y-0025070D01*
X0005125Y-0023480D02*
Y-0023980D01*
X0005625Y-0023480D02*
X0005125D01*
X0005625Y-0023980D02*
Y-0023480D01*
X0005125Y-0023980D02*
X0005625D01*
Y-0023730D02*
X0005125D01*
X0005375Y-0023480D02*
Y-0023980D01*
X0005125Y-0022390D02*
Y-0022890D01*
X0005625Y-0022390D02*
X0005125D01*
X0005625Y-0022890D02*
Y-0022390D01*
X0005125Y-0022890D02*
X0005625D01*
Y-0022640D02*
X0005125D01*
X0005375Y-0022390D02*
Y-0022890D01*
X0006245Y-0026205D02*
Y-0026705D01*
X0006745Y-0026205D02*
X0006245D01*
X0006745Y-0026705D02*
Y-0026205D01*
X0006245Y-0026705D02*
X0006745D01*
Y-0026455D02*
X0006245D01*
X0006495Y-0026205D02*
Y-0026705D01*
X0006245Y-0025115D02*
Y-0025615D01*
X0006745Y-0025115D02*
X0006245D01*
X0006745Y-0025615D02*
Y-0025115D01*
X0006245Y-0025615D02*
X0006745D01*
Y-0025365D02*
X0006245D01*
X0006495Y-0025115D02*
Y-0025615D01*
X0006245Y-0024025D02*
Y-0024525D01*
X0006745Y-0024025D02*
X0006245D01*
X0006745Y-0024525D02*
Y-0024025D01*
X0006245Y-0024525D02*
X0006745D01*
Y-0024275D02*
X0006245D01*
X0006495Y-0024025D02*
Y-0024525D01*
X0006245Y-0022935D02*
Y-0023435D01*
X0006745Y-0022935D02*
X0006245D01*
X0006745Y-0023435D02*
Y-0022935D01*
X0006245Y-0023435D02*
X0006745D01*
Y-0023185D02*
X0006245D01*
X0006495Y-0022935D02*
Y-0023435D01*
X0006185Y-0029490D02*
X0005685Y-0029990D01*
X0006185D02*
X0005685Y-0029490D01*
X0006185Y-0019650D02*
X0005685Y-0020150D01*
X0006185D02*
X0005685Y-0019650D01*
X-0009875Y-0036312D02*
Y-0036812D01*
X-0009375Y-0036312D02*
X-0009875D01*
X-0009375Y-0036812D02*
Y-0036312D01*
X-0009875Y-0036812D02*
X-0009375D01*
Y-0036562D02*
X-0009875D01*
X-0009625Y-0036312D02*
Y-0036812D01*
X-0009875Y-0037312D02*
Y-0037812D01*
X-0009375Y-0037312D02*
X-0009875D01*
X-0009375Y-0037812D02*
Y-0037312D01*
X-0009875Y-0037812D02*
X-0009375D01*
Y-0037562D02*
X-0009875D01*
X-0009625Y-0037312D02*
Y-0037812D01*
X-0006719Y-0019562D02*
Y-0020062D01*
X-0006219Y-0019562D02*
X-0006719D01*
X-0006219Y-0020062D02*
Y-0019562D01*
X-0006719Y-0020062D02*
X-0006219D01*
Y-0019812D02*
X-0006719D01*
X-0006469Y-0019562D02*
Y-0020062D01*
X-0005719Y-0019562D02*
Y-0020062D01*
X-0005219Y-0019562D02*
X-0005719D01*
X-0005219Y-0020062D02*
Y-0019562D01*
X-0005719Y-0020062D02*
X-0005219D01*
Y-0019812D02*
X-0005719D01*
X-0005469Y-0019562D02*
Y-0020062D01*
X-0015500Y-0036312D02*
Y-0036812D01*
X-0015000Y-0036312D02*
X-0015500D01*
X-0015000Y-0036812D02*
Y-0036312D01*
X-0015500Y-0036812D02*
X-0015000D01*
Y-0036562D02*
X-0015500D01*
X-0015250Y-0036312D02*
Y-0036812D01*
X-0015500Y-0037312D02*
Y-0037812D01*
X-0015000Y-0037312D02*
X-0015500D01*
X-0015000Y-0037812D02*
Y-0037312D01*
X-0015500Y-0037812D02*
X-0015000D01*
Y-0037562D02*
X-0015500D01*
X-0015250Y-0037312D02*
Y-0037812D01*
X-0011687Y-0036312D02*
Y-0036812D01*
X-0011187Y-0036312D02*
X-0011687D01*
X-0011187Y-0036812D02*
Y-0036312D01*
X-0011687Y-0036812D02*
X-0011187D01*
Y-0036562D02*
X-0011687D01*
X-0011437Y-0036312D02*
Y-0036812D01*
X-0011687Y-0037312D02*
Y-0037812D01*
X-0011187Y-0037312D02*
X-0011687D01*
X-0011187Y-0037812D02*
Y-0037312D01*
X-0011687Y-0037812D02*
X-0011187D01*
Y-0037562D02*
X-0011687D01*
X-0011437Y-0037312D02*
Y-0037812D01*
X-0013625Y-0036312D02*
Y-0036812D01*
X-0013125Y-0036312D02*
X-0013625D01*
X-0013125Y-0036812D02*
Y-0036312D01*
X-0013625Y-0036812D02*
X-0013125D01*
Y-0036562D02*
X-0013625D01*
X-0013375Y-0036312D02*
Y-0036812D01*
X-0013625Y-0037312D02*
Y-0037812D01*
X-0013125Y-0037312D02*
X-0013625D01*
X-0013125Y-0037812D02*
Y-0037312D01*
X-0013625Y-0037812D02*
X-0013125D01*
Y-0037562D02*
X-0013625D01*
X-0013375Y-0037312D02*
Y-0037812D01*
X0008781Y-0017094D02*
Y-0017594D01*
X0009281Y-0017094D02*
X0008781D01*
X0009281Y-0017594D02*
Y-0017094D01*
X0008781Y-0017594D02*
X0009281D01*
Y-0017344D02*
X0008781D01*
X0009031Y-0017094D02*
Y-0017594D01*
X0008781Y-0016094D02*
Y-0016594D01*
X0009281Y-0016094D02*
X0008781D01*
X0009281Y-0016594D02*
Y-0016094D01*
X0008781Y-0016594D02*
X0009281D01*
Y-0016344D02*
X0008781D01*
X0009031Y-0016094D02*
Y-0016594D01*
X-0007687Y-0003062D02*
Y-0003562D01*
X-0007187Y-0003062D02*
X-0007687D01*
X-0007187Y-0003562D02*
Y-0003062D01*
X-0007687Y-0003562D02*
X-0007187D01*
Y-0003312D02*
X-0007687D01*
X-0007437Y-0003062D02*
Y-0003562D01*
X-0007687Y-0002062D02*
Y-0002562D01*
X-0007187Y-0002062D02*
X-0007687D01*
X-0007187Y-0002562D02*
Y-0002062D01*
X-0007687Y-0002562D02*
X-0007187D01*
Y-0002312D02*
X-0007687D01*
X-0007437Y-0002062D02*
Y-0002562D01*
X-0030531Y-0016250D02*
Y-0016750D01*
X-0030031Y-0016250D02*
X-0030531D01*
X-0030031Y-0016750D02*
Y-0016250D01*
X-0030531Y-0016750D02*
X-0030031D01*
Y-0016500D02*
X-0030531D01*
X-0030281Y-0016250D02*
Y-0016750D01*
X-0031531Y-0016250D02*
Y-0016750D01*
X-0031031Y-0016250D02*
X-0031531D01*
X-0031031Y-0016750D02*
Y-0016250D01*
X-0031531Y-0016750D02*
X-0031031D01*
Y-0016500D02*
X-0031531D01*
X-0031281Y-0016250D02*
Y-0016750D01*
X-0026187Y0004062D02*
Y0003562D01*
X-0025687Y0004062D02*
X-0026187D01*
X-0025687Y0003562D02*
Y0004062D01*
X-0026187Y0003562D02*
X-0025687D01*
Y0003812D02*
X-0026187D01*
X-0025937Y0004062D02*
Y0003562D01*
X-0027187Y0004062D02*
Y0003562D01*
X-0026687Y0004062D02*
X-0027187D01*
X-0026687Y0003562D02*
Y0004062D01*
X-0027187Y0003562D02*
X-0026687D01*
Y0003812D02*
X-0027187D01*
X-0026937Y0004062D02*
Y0003562D01*
X-0028187Y0004062D02*
Y0003562D01*
X-0027687Y0004062D02*
X-0028187D01*
X-0027687Y0003562D02*
Y0004062D01*
X-0028187Y0003562D02*
X-0027687D01*
Y0003812D02*
X-0028187D01*
X-0027937Y0004062D02*
Y0003562D01*
X-0027211Y0003118D02*
Y0002618D01*
X-0026711Y0003118D02*
X-0027211D01*
X-0026711Y0002618D02*
Y0003118D01*
X-0027211Y0002618D02*
X-0026711D01*
Y0002868D02*
X-0027211D01*
X-0026961Y0003118D02*
Y0002618D01*
X-0022000Y-0002062D02*
Y-0002562D01*
X-0021500Y-0002062D02*
X-0022000D01*
X-0021500Y-0002562D02*
Y-0002062D01*
X-0022000Y-0002562D02*
X-0021500D01*
Y-0002312D02*
X-0022000D01*
X-0021750Y-0002062D02*
Y-0002562D01*
X-0022000Y-0003062D02*
Y-0003562D01*
X-0021500Y-0003062D02*
X-0022000D01*
X-0021500Y-0003562D02*
Y-0003062D01*
X-0022000Y-0003562D02*
X-0021500D01*
Y-0003312D02*
X-0022000D01*
X-0021750Y-0003062D02*
Y-0003562D01*
X0000062Y-0037906D02*
Y-0038406D01*
X0000562Y-0037906D02*
X0000062D01*
X0000562Y-0038406D02*
Y-0037906D01*
X0000062Y-0038406D02*
X0000562D01*
Y-0038156D02*
X0000062D01*
X0000312Y-0037906D02*
Y-0038406D01*
X-0000937Y-0037906D02*
Y-0038406D01*
X-0000437Y-0037906D02*
X-0000937D01*
X-0000437Y-0038406D02*
Y-0037906D01*
X-0000937Y-0038406D02*
X-0000437D01*
Y-0038156D02*
X-0000937D01*
X-0000687Y-0037906D02*
Y-0038406D01*
X-0015500Y-0027594D02*
Y-0028094D01*
X-0015000Y-0027594D02*
X-0015500D01*
X-0015000Y-0028094D02*
Y-0027594D01*
X-0015500Y-0028094D02*
X-0015000D01*
Y-0027844D02*
X-0015500D01*
X-0015250Y-0027594D02*
Y-0028094D01*
X-0015500Y-0026594D02*
Y-0027094D01*
X-0015000Y-0026594D02*
X-0015500D01*
X-0015000Y-0027094D02*
Y-0026594D01*
X-0015500Y-0027094D02*
X-0015000D01*
Y-0026844D02*
X-0015500D01*
X-0015250Y-0026594D02*
Y-0027094D01*
X-0016625Y-0026594D02*
Y-0027094D01*
X-0016125Y-0026594D02*
X-0016625D01*
X-0016125Y-0027094D02*
Y-0026594D01*
X-0016625Y-0027094D02*
X-0016125D01*
Y-0026844D02*
X-0016625D01*
X-0016375Y-0026594D02*
Y-0027094D01*
X-0016625Y-0027594D02*
Y-0028094D01*
X-0016125Y-0027594D02*
X-0016625D01*
X-0016125Y-0028094D02*
Y-0027594D01*
X-0016625Y-0028094D02*
X-0016125D01*
Y-0027844D02*
X-0016625D01*
X-0016375Y-0027594D02*
Y-0028094D01*
X-0015687Y-0004062D02*
Y-0004562D01*
X-0015187Y-0004062D02*
X-0015687D01*
X-0015187Y-0004562D02*
Y-0004062D01*
X-0015687Y-0004562D02*
X-0015187D01*
Y-0004312D02*
X-0015687D01*
X-0015437Y-0004062D02*
Y-0004562D01*
X-0015687Y-0003062D02*
Y-0003562D01*
X-0015187Y-0003062D02*
X-0015687D01*
X-0015187Y-0003562D02*
Y-0003062D01*
X-0015687Y-0003562D02*
X-0015187D01*
Y-0003312D02*
X-0015687D01*
X-0015437Y-0003062D02*
Y-0003562D01*
X-0015687Y-0002062D02*
Y-0002562D01*
X-0015187Y-0002062D02*
X-0015687D01*
X-0015187Y-0002562D02*
Y-0002062D01*
X-0015687Y-0002562D02*
X-0015187D01*
Y-0002312D02*
X-0015687D01*
X-0015437Y-0002062D02*
Y-0002562D01*
X-0008937Y-0004062D02*
Y-0004562D01*
X-0008437Y-0004062D02*
X-0008937D01*
X-0008437Y-0004562D02*
Y-0004062D01*
X-0008937Y-0004562D02*
X-0008437D01*
Y-0004312D02*
X-0008937D01*
X-0008687Y-0004062D02*
Y-0004562D01*
X-0008937Y-0003062D02*
Y-0003562D01*
X-0008437Y-0003062D02*
X-0008937D01*
X-0008437Y-0003562D02*
Y-0003062D01*
X-0008937Y-0003562D02*
X-0008437D01*
Y-0003312D02*
X-0008937D01*
X-0008687Y-0003062D02*
Y-0003562D01*
X-0008937Y-0002062D02*
Y-0002562D01*
X-0008437Y-0002062D02*
X-0008937D01*
X-0008437Y-0002562D02*
Y-0002062D01*
X-0008937Y-0002562D02*
X-0008437D01*
Y-0002312D02*
X-0008937D01*
X-0008687Y-0002062D02*
Y-0002562D01*
X-0010187Y-0004062D02*
Y-0004562D01*
X-0009687Y-0004062D02*
X-0010187D01*
X-0009687Y-0004562D02*
Y-0004062D01*
X-0010187Y-0004562D02*
X-0009687D01*
Y-0004312D02*
X-0010187D01*
X-0009937Y-0004062D02*
Y-0004562D01*
X-0010187Y-0003062D02*
Y-0003562D01*
X-0009687Y-0003062D02*
X-0010187D01*
X-0009687Y-0003562D02*
Y-0003062D01*
X-0010187Y-0003562D02*
X-0009687D01*
Y-0003312D02*
X-0010187D01*
X-0009937Y-0003062D02*
Y-0003562D01*
X-0010187Y-0002062D02*
Y-0002562D01*
X-0009687Y-0002062D02*
X-0010187D01*
X-0009687Y-0002562D02*
Y-0002062D01*
X-0010187Y-0002562D02*
X-0009687D01*
Y-0002312D02*
X-0010187D01*
X-0009937Y-0002062D02*
Y-0002562D01*
X-0011437Y-0004062D02*
Y-0004562D01*
X-0010937Y-0004062D02*
X-0011437D01*
X-0010937Y-0004562D02*
Y-0004062D01*
X-0011437Y-0004562D02*
X-0010937D01*
Y-0004312D02*
X-0011437D01*
X-0011187Y-0004062D02*
Y-0004562D01*
X-0011437Y-0003062D02*
Y-0003562D01*
X-0010937Y-0003062D02*
X-0011437D01*
X-0010937Y-0003562D02*
Y-0003062D01*
X-0011437Y-0003562D02*
X-0010937D01*
Y-0003312D02*
X-0011437D01*
X-0011187Y-0003062D02*
Y-0003562D01*
X-0011437Y-0002062D02*
Y-0002562D01*
X-0010937Y-0002062D02*
X-0011437D01*
X-0010937Y-0002562D02*
Y-0002062D01*
X-0011437Y-0002562D02*
X-0010937D01*
Y-0002312D02*
X-0011437D01*
X-0011187Y-0002062D02*
Y-0002562D01*
X-0012687Y-0004062D02*
Y-0004562D01*
X-0012187Y-0004062D02*
X-0012687D01*
X-0012187Y-0004562D02*
Y-0004062D01*
X-0012687Y-0004562D02*
X-0012187D01*
Y-0004312D02*
X-0012687D01*
X-0012437Y-0004062D02*
Y-0004562D01*
X-0012687Y-0003062D02*
Y-0003562D01*
X-0012187Y-0003062D02*
X-0012687D01*
X-0012187Y-0003562D02*
Y-0003062D01*
X-0012687Y-0003562D02*
X-0012187D01*
Y-0003312D02*
X-0012687D01*
X-0012437Y-0003062D02*
Y-0003562D01*
X-0012687Y-0002062D02*
Y-0002562D01*
X-0012187Y-0002062D02*
X-0012687D01*
X-0012187Y-0002562D02*
Y-0002062D01*
X-0012687Y-0002562D02*
X-0012187D01*
Y-0002312D02*
X-0012687D01*
X-0012437Y-0002062D02*
Y-0002562D01*
X-0013937Y-0004062D02*
Y-0004562D01*
X-0013437Y-0004062D02*
X-0013937D01*
X-0013437Y-0004562D02*
Y-0004062D01*
X-0013937Y-0004562D02*
X-0013437D01*
Y-0004312D02*
X-0013937D01*
X-0013687Y-0004062D02*
Y-0004562D01*
X-0013937Y-0003062D02*
Y-0003562D01*
X-0013437Y-0003062D02*
X-0013937D01*
X-0013437Y-0003562D02*
Y-0003062D01*
X-0013937Y-0003562D02*
X-0013437D01*
Y-0003312D02*
X-0013937D01*
X-0013687Y-0003062D02*
Y-0003562D01*
X-0013937Y-0002062D02*
Y-0002562D01*
X-0013437Y-0002062D02*
X-0013937D01*
X-0013437Y-0002562D02*
Y-0002062D01*
X-0013937Y-0002562D02*
X-0013437D01*
Y-0002312D02*
X-0013937D01*
X-0013687Y-0002062D02*
Y-0002562D01*
X-0016937Y-0004062D02*
Y-0004562D01*
X-0016437Y-0004062D02*
X-0016937D01*
X-0016437Y-0004562D02*
Y-0004062D01*
X-0016937Y-0004562D02*
X-0016437D01*
Y-0004312D02*
X-0016937D01*
X-0016687Y-0004062D02*
Y-0004562D01*
X-0016937Y-0003062D02*
Y-0003562D01*
X-0016437Y-0003062D02*
X-0016937D01*
X-0016437Y-0003562D02*
Y-0003062D01*
X-0016937Y-0003562D02*
X-0016437D01*
Y-0003312D02*
X-0016937D01*
X-0016687Y-0003062D02*
Y-0003562D01*
X-0016937Y-0002062D02*
Y-0002562D01*
X-0016437Y-0002062D02*
X-0016937D01*
X-0016437Y-0002562D02*
Y-0002062D01*
X-0016937Y-0002562D02*
X-0016437D01*
Y-0002312D02*
X-0016937D01*
X-0016687Y-0002062D02*
Y-0002562D01*
X-0018187Y-0004062D02*
Y-0004562D01*
X-0017687Y-0004062D02*
X-0018187D01*
X-0017687Y-0004562D02*
Y-0004062D01*
X-0018187Y-0004562D02*
X-0017687D01*
Y-0004312D02*
X-0018187D01*
X-0017937Y-0004062D02*
Y-0004562D01*
X-0018187Y-0003062D02*
Y-0003562D01*
X-0017687Y-0003062D02*
X-0018187D01*
X-0017687Y-0003562D02*
Y-0003062D01*
X-0018187Y-0003562D02*
X-0017687D01*
Y-0003312D02*
X-0018187D01*
X-0017937Y-0003062D02*
Y-0003562D01*
X-0018187Y-0002062D02*
Y-0002562D01*
X-0017687Y-0002062D02*
X-0018187D01*
X-0017687Y-0002562D02*
Y-0002062D01*
X-0018187Y-0002562D02*
X-0017687D01*
Y-0002312D02*
X-0018187D01*
X-0017937Y-0002062D02*
Y-0002562D01*
X0008781Y-0014656D02*
Y-0015156D01*
X0009281Y-0014656D02*
X0008781D01*
X0009281Y-0015156D02*
Y-0014656D01*
X0008781Y-0015156D02*
X0009281D01*
Y-0014906D02*
X0008781D01*
X0009031Y-0014656D02*
Y-0015156D01*
X0008781Y-0013656D02*
Y-0014156D01*
X0009281Y-0013656D02*
X0008781D01*
X0009281Y-0014156D02*
Y-0013656D01*
X0008781Y-0014156D02*
X0009281D01*
Y-0013906D02*
X0008781D01*
X0009031Y-0013656D02*
Y-0014156D01*
X0008781Y-0012656D02*
Y-0013156D01*
X0009281Y-0012656D02*
X0008781D01*
X0009281Y-0013156D02*
Y-0012656D01*
X0008781Y-0013156D02*
X0009281D01*
Y-0012906D02*
X0008781D01*
X0009031Y-0012656D02*
Y-0013156D01*
X-0035312Y-0040062D02*
Y-0040562D01*
X-0034812Y-0040062D02*
X-0035312D01*
X-0034812Y-0040562D02*
Y-0040062D01*
X-0035312Y-0040562D02*
X-0034812D01*
Y-0040312D02*
X-0035312D01*
X-0035062Y-0040062D02*
Y-0040562D01*
X-0035312Y-0041062D02*
Y-0041562D01*
X-0034812Y-0041062D02*
X-0035312D01*
X-0034812Y-0041562D02*
Y-0041062D01*
X-0035312Y-0041562D02*
X-0034812D01*
Y-0041312D02*
X-0035312D01*
X-0035062Y-0041062D02*
Y-0041562D01*
X-0035312Y-0042062D02*
Y-0042562D01*
X-0034812Y-0042062D02*
X-0035312D01*
X-0034812Y-0042562D02*
Y-0042062D01*
X-0035312Y-0042562D02*
X-0034812D01*
Y-0042312D02*
X-0035312D01*
X-0035062Y-0042062D02*
Y-0042562D01*
X-0025659Y-0050658D02*
Y-0051158D01*
X-0025159Y-0050658D02*
X-0025659D01*
X-0025159Y-0051158D02*
Y-0050658D01*
X-0025659Y-0051158D02*
X-0025159D01*
Y-0050908D02*
X-0025659D01*
X-0025409Y-0050658D02*
Y-0051158D01*
X-0024909Y-0051908D02*
X-0025909D01*
X-0025409Y-0051408D02*
Y-0052408D01*
X-0024909Y-0052908D02*
X-0025909D01*
X-0025409Y-0052408D02*
Y-0053408D01*
X-0024909Y-0053908D02*
X-0025909D01*
X-0025409Y-0053408D02*
Y-0054408D01*
X0008750Y0001062D02*
Y0000562D01*
X0009250Y0001062D02*
X0008750D01*
X0009250Y0000562D02*
Y0001062D01*
X0008750Y0000562D02*
X0009250D01*
Y0001062D02*
X0008750Y0000562D01*
X0009250D02*
X0008750Y0001062D01*
Y0000062D02*
Y-0000437D01*
X0009250Y0000062D02*
X0008750D01*
X0009250Y-0000437D02*
Y0000062D01*
X0008750Y-0000437D02*
X0009250D01*
Y0000062D02*
X0008750Y-0000437D01*
X0009250D02*
X0008750Y0000062D01*
Y-0000937D02*
Y-0001437D01*
X0009250Y-0000937D02*
X0008750D01*
X0009250Y-0001437D02*
Y-0000937D01*
X0008750Y-0001437D02*
X0009250D01*
Y-0000937D02*
X0008750Y-0001437D01*
X0009250D02*
X0008750Y-0000937D01*
Y-0001937D02*
Y-0002437D01*
X0009250Y-0001937D02*
X0008750D01*
X0009250Y-0002437D02*
Y-0001937D01*
X0008750Y-0002437D02*
X0009250D01*
Y-0001937D02*
X0008750Y-0002437D01*
X0009250D02*
X0008750Y-0001937D01*
X-0033312Y-0063750D02*
Y-0064000D01*
X-0033062Y-0063750D02*
X-0033312D01*
X-0033062Y-0064250D02*
Y-0063750D01*
X-0032812Y-0064250D02*
X-0033062D01*
X-0032812Y-0064000D02*
Y-0064250D01*
X-0033312Y-0064000D02*
X-0032812D01*
X-0033312Y-0065750D02*
Y-0066000D01*
X-0033062Y-0065750D02*
X-0033312D01*
X-0033062Y-0066250D02*
Y-0065750D01*
X-0032812Y-0066250D02*
X-0033062D01*
X-0032812Y-0066000D02*
Y-0066250D01*
X-0033312Y-0066000D02*
X-0032812D01*
X-0030937Y-0058219D02*
X-0031437Y-0058719D01*
X-0030937D02*
X-0031437Y-0058219D01*
X-0033436D02*
X-0033936Y-0058719D01*
X-0033436D02*
X-0033936Y-0058219D01*
X-0032186Y-0060218D02*
X-0032686Y-0060718D01*
X-0032186D02*
X-0032686Y-0060218D01*
X-0031666Y-0047303D02*
Y-0047803D01*
X-0031166Y-0047303D02*
X-0031666D01*
X-0031166Y-0047803D02*
Y-0047303D01*
X-0031666Y-0047803D02*
X-0031166D01*
Y-0047553D02*
X-0031666D01*
X-0031416Y-0047303D02*
Y-0047803D01*
X-0031661Y-0046322D02*
Y-0046822D01*
X-0031161Y-0046322D02*
X-0031661D01*
X-0031161Y-0046822D02*
Y-0046322D01*
X-0031661Y-0046822D02*
X-0031161D01*
Y-0046572D02*
X-0031661D01*
X-0031411Y-0046322D02*
Y-0046822D01*
X-0032448Y-0046321D02*
Y-0046821D01*
X-0031948Y-0046321D02*
X-0032448D01*
X-0031948Y-0046821D02*
Y-0046321D01*
X-0032448Y-0046821D02*
X-0031948D01*
Y-0046571D02*
X-0032448D01*
X-0032198Y-0046321D02*
Y-0046821D01*
X-0032448Y-0047305D02*
Y-0047805D01*
X-0031948Y-0047305D02*
X-0032448D01*
X-0031948Y-0047805D02*
Y-0047305D01*
X-0032448Y-0047805D02*
X-0031948D01*
Y-0047555D02*
X-0032448D01*
X-0032198Y-0047305D02*
Y-0047805D01*
X-0033516Y-0049333D02*
Y-0049533D01*
X-0033366Y-0049183D02*
X-0033516Y-0049333D01*
X-0033166Y-0049183D02*
X-0033366D01*
X-0033016Y-0049333D02*
X-0033166Y-0049183D01*
X-0033016Y-0049533D02*
Y-0049333D01*
X-0033166Y-0049683D02*
X-0033016Y-0049533D01*
X-0033366Y-0049683D02*
X-0033166D01*
X-0033516Y-0049533D02*
X-0033366Y-0049683D01*
X-0033316Y-0049333D02*
Y-0049283D01*
X-0033366Y-0049333D02*
X-0033316D01*
X-0033366Y-0049283D02*
Y-0049333D01*
X-0033316Y-0049283D02*
X-0033366D01*
X-0033216D02*
Y-0049333D01*
X-0033166Y-0049283D02*
X-0033216D01*
X-0033166Y-0049333D02*
Y-0049283D01*
X-0033216Y-0049333D02*
X-0033166D01*
X-0033316Y-0049583D02*
X-0033416Y-0049483D01*
X-0033216Y-0049583D02*
X-0033316D01*
X-0033116Y-0049483D02*
X-0033216Y-0049583D01*
X-0033515Y-0044593D02*
Y-0044793D01*
X-0033365Y-0044443D02*
X-0033515Y-0044593D01*
X-0033165Y-0044443D02*
X-0033365D01*
X-0033015Y-0044593D02*
X-0033165Y-0044443D01*
X-0033015Y-0044793D02*
Y-0044593D01*
X-0033165Y-0044943D02*
X-0033015Y-0044793D01*
X-0033365Y-0044943D02*
X-0033165D01*
X-0033515Y-0044793D02*
X-0033365Y-0044943D01*
X-0033315Y-0044593D02*
Y-0044543D01*
X-0033365Y-0044593D02*
X-0033315D01*
X-0033365Y-0044543D02*
Y-0044593D01*
X-0033315Y-0044543D02*
X-0033365D01*
X-0033215D02*
Y-0044593D01*
X-0033165Y-0044543D02*
X-0033215D01*
X-0033165Y-0044593D02*
Y-0044543D01*
X-0033215Y-0044593D02*
X-0033165D01*
X-0033315Y-0044843D02*
X-0033415Y-0044743D01*
X-0033215Y-0044843D02*
X-0033315D01*
X-0033115Y-0044743D02*
X-0033215Y-0044843D01*
X-0035156Y0000969D02*
Y0000469D01*
X-0034656Y0000969D02*
X-0035156D01*
X-0034656Y0000469D02*
Y0000969D01*
X-0035156Y0000469D02*
X-0034656D01*
Y0000719D02*
X-0035156D01*
X-0034906Y0000969D02*
Y0000469D01*
X-0034156Y0000969D02*
Y0000469D01*
X-0033656Y0000969D02*
X-0034156D01*
X-0033656Y0000469D02*
Y0000969D01*
X-0034156Y0000469D02*
X-0033656D01*
Y0000719D02*
X-0034156D01*
X-0033906Y0000969D02*
Y0000469D01*
X-0035156Y-0000031D02*
Y-0000531D01*
X-0034656Y-0000031D02*
X-0035156D01*
X-0034656Y-0000531D02*
Y-0000031D01*
X-0035156Y-0000531D02*
X-0034656D01*
Y-0000281D02*
X-0035156D01*
X-0034906Y-0000031D02*
Y-0000531D01*
X-0034156Y-0000031D02*
Y-0000531D01*
X-0033656Y-0000031D02*
X-0034156D01*
X-0033656Y-0000531D02*
Y-0000031D01*
X-0034156Y-0000531D02*
X-0033656D01*
Y-0000281D02*
X-0034156D01*
X-0033906Y-0000031D02*
Y-0000531D01*
X-0035156Y-0001031D02*
Y-0001531D01*
X-0034656Y-0001031D02*
X-0035156D01*
X-0034656Y-0001531D02*
Y-0001031D01*
X-0035156Y-0001531D02*
X-0034656D01*
Y-0001281D02*
X-0035156D01*
X-0034906Y-0001031D02*
Y-0001531D01*
X-0034156Y-0001031D02*
Y-0001531D01*
X-0033656Y-0001031D02*
X-0034156D01*
X-0033656Y-0001531D02*
Y-0001031D01*
X-0034156Y-0001531D02*
X-0033656D01*
Y-0001281D02*
X-0034156D01*
X-0033906Y-0001031D02*
Y-0001531D01*
X-0035156Y-0002031D02*
Y-0002531D01*
X-0034656Y-0002031D02*
X-0035156D01*
X-0034656Y-0002531D02*
Y-0002031D01*
X-0035156Y-0002531D02*
X-0034656D01*
Y-0002281D02*
X-0035156D01*
X-0034906Y-0002031D02*
Y-0002531D01*
X-0034156Y-0002031D02*
Y-0002531D01*
X-0033656Y-0002031D02*
X-0034156D01*
X-0033656Y-0002531D02*
Y-0002031D01*
X-0034156Y-0002531D02*
X-0033656D01*
Y-0002281D02*
X-0034156D01*
X-0033906Y-0002031D02*
Y-0002531D01*
X-0035156Y-0003031D02*
Y-0003531D01*
X-0034656Y-0003031D02*
X-0035156D01*
X-0034656Y-0003531D02*
Y-0003031D01*
X-0035156Y-0003531D02*
X-0034656D01*
Y-0003281D02*
X-0035156D01*
X-0034906Y-0003031D02*
Y-0003531D01*
X-0034156Y-0003031D02*
Y-0003531D01*
X-0033656Y-0003031D02*
X-0034156D01*
X-0033656Y-0003531D02*
Y-0003031D01*
X-0034156Y-0003531D02*
X-0033656D01*
Y-0003281D02*
X-0034156D01*
X-0033906Y-0003031D02*
Y-0003531D01*
X-0035156Y-0004031D02*
Y-0004531D01*
X-0034656Y-0004031D02*
X-0035156D01*
X-0034656Y-0004531D02*
Y-0004031D01*
X-0035156Y-0004531D02*
X-0034656D01*
Y-0004281D02*
X-0035156D01*
X-0034906Y-0004031D02*
Y-0004531D01*
X-0034156Y-0004031D02*
Y-0004531D01*
X-0033656Y-0004031D02*
X-0034156D01*
X-0033656Y-0004531D02*
Y-0004031D01*
X-0034156Y-0004531D02*
X-0033656D01*
Y-0004281D02*
X-0034156D01*
X-0033906Y-0004031D02*
Y-0004531D01*
X-0035156Y-0005031D02*
Y-0005531D01*
X-0034656Y-0005031D02*
X-0035156D01*
X-0034656Y-0005531D02*
Y-0005031D01*
X-0035156Y-0005531D02*
X-0034656D01*
Y-0005281D02*
X-0035156D01*
X-0034906Y-0005031D02*
Y-0005531D01*
X-0034156Y-0005031D02*
Y-0005531D01*
X-0033656Y-0005031D02*
X-0034156D01*
X-0033656Y-0005531D02*
Y-0005031D01*
X-0034156Y-0005531D02*
X-0033656D01*
Y-0005281D02*
X-0034156D01*
X-0033906Y-0005031D02*
Y-0005531D01*
X-0035156Y-0006031D02*
Y-0006531D01*
X-0034656Y-0006031D02*
X-0035156D01*
X-0034656Y-0006531D02*
Y-0006031D01*
X-0035156Y-0006531D02*
X-0034656D01*
Y-0006281D02*
X-0035156D01*
X-0034906Y-0006031D02*
Y-0006531D01*
X-0034156Y-0006031D02*
Y-0006531D01*
X-0033656Y-0006031D02*
X-0034156D01*
X-0033656Y-0006531D02*
Y-0006031D01*
X-0034156Y-0006531D02*
X-0033656D01*
Y-0006281D02*
X-0034156D01*
X-0033906Y-0006031D02*
Y-0006531D01*
X-0035156Y-0007031D02*
Y-0007531D01*
X-0034656Y-0007031D02*
X-0035156D01*
X-0034656Y-0007531D02*
Y-0007031D01*
X-0035156Y-0007531D02*
X-0034656D01*
Y-0007281D02*
X-0035156D01*
X-0034906Y-0007031D02*
Y-0007531D01*
X-0034156Y-0007031D02*
Y-0007531D01*
X-0033656Y-0007031D02*
X-0034156D01*
X-0033656Y-0007531D02*
Y-0007031D01*
X-0034156Y-0007531D02*
X-0033656D01*
Y-0007281D02*
X-0034156D01*
X-0033906Y-0007031D02*
Y-0007531D01*
X-0035156Y-0008031D02*
Y-0008531D01*
X-0034656Y-0008031D02*
X-0035156D01*
X-0034656Y-0008531D02*
Y-0008031D01*
X-0035156Y-0008531D02*
X-0034656D01*
Y-0008281D02*
X-0035156D01*
X-0034906Y-0008031D02*
Y-0008531D01*
X-0034156Y-0008031D02*
Y-0008531D01*
X-0033656Y-0008031D02*
X-0034156D01*
X-0033656Y-0008531D02*
Y-0008031D01*
X-0034156Y-0008531D02*
X-0033656D01*
Y-0008281D02*
X-0034156D01*
X-0033906Y-0008031D02*
Y-0008531D01*
X-0035156Y-0009031D02*
Y-0009531D01*
X-0034656Y-0009031D02*
X-0035156D01*
X-0034656Y-0009531D02*
Y-0009031D01*
X-0035156Y-0009531D02*
X-0034656D01*
Y-0009281D02*
X-0035156D01*
X-0034906Y-0009031D02*
Y-0009531D01*
X-0034156Y-0009031D02*
Y-0009531D01*
X-0033656Y-0009031D02*
X-0034156D01*
X-0033656Y-0009531D02*
Y-0009031D01*
X-0034156Y-0009531D02*
X-0033656D01*
Y-0009281D02*
X-0034156D01*
X-0033906Y-0009031D02*
Y-0009531D01*
X-0035156Y-0010031D02*
Y-0010531D01*
X-0034656Y-0010031D02*
X-0035156D01*
X-0034656Y-0010531D02*
Y-0010031D01*
X-0035156Y-0010531D02*
X-0034656D01*
Y-0010281D02*
X-0035156D01*
X-0034906Y-0010031D02*
Y-0010531D01*
X-0034156Y-0010031D02*
Y-0010531D01*
X-0033656Y-0010031D02*
X-0034156D01*
X-0033656Y-0010531D02*
Y-0010031D01*
X-0034156Y-0010531D02*
X-0033656D01*
Y-0010281D02*
X-0034156D01*
X-0033906Y-0010031D02*
Y-0010531D01*
X-0035156Y-0011031D02*
Y-0011531D01*
X-0034656Y-0011031D02*
X-0035156D01*
X-0034656Y-0011531D02*
Y-0011031D01*
X-0035156Y-0011531D02*
X-0034656D01*
Y-0011281D02*
X-0035156D01*
X-0034906Y-0011031D02*
Y-0011531D01*
X-0034156Y-0011031D02*
Y-0011531D01*
X-0033656Y-0011031D02*
X-0034156D01*
X-0033656Y-0011531D02*
Y-0011031D01*
X-0034156Y-0011531D02*
X-0033656D01*
Y-0011281D02*
X-0034156D01*
X-0033906Y-0011031D02*
Y-0011531D01*
X-0035156Y-0012031D02*
Y-0012531D01*
X-0034656Y-0012031D02*
X-0035156D01*
X-0034656Y-0012531D02*
Y-0012031D01*
X-0035156Y-0012531D02*
X-0034656D01*
Y-0012281D02*
X-0035156D01*
X-0034906Y-0012031D02*
Y-0012531D01*
X-0034156Y-0012031D02*
Y-0012531D01*
X-0033656Y-0012031D02*
X-0034156D01*
X-0033656Y-0012531D02*
Y-0012031D01*
X-0034156Y-0012531D02*
X-0033656D01*
Y-0012281D02*
X-0034156D01*
X-0033906Y-0012031D02*
Y-0012531D01*
X-0035156Y-0013031D02*
Y-0013531D01*
X-0034656Y-0013031D02*
X-0035156D01*
X-0034656Y-0013531D02*
Y-0013031D01*
X-0035156Y-0013531D02*
X-0034656D01*
Y-0013281D02*
X-0035156D01*
X-0034906Y-0013031D02*
Y-0013531D01*
X-0034156Y-0013031D02*
Y-0013531D01*
X-0033656Y-0013031D02*
X-0034156D01*
X-0033656Y-0013531D02*
Y-0013031D01*
X-0034156Y-0013531D02*
X-0033656D01*
Y-0013281D02*
X-0034156D01*
X-0033906Y-0013031D02*
Y-0013531D01*
X-0035156Y-0014031D02*
Y-0014531D01*
X-0034656Y-0014031D02*
X-0035156D01*
X-0034656Y-0014531D02*
Y-0014031D01*
X-0035156Y-0014531D02*
X-0034656D01*
Y-0014281D02*
X-0035156D01*
X-0034906Y-0014031D02*
Y-0014531D01*
X-0034156Y-0014031D02*
Y-0014531D01*
X-0033656Y-0014031D02*
X-0034156D01*
X-0033656Y-0014531D02*
Y-0014031D01*
X-0034156Y-0014531D02*
X-0033656D01*
Y-0014281D02*
X-0034156D01*
X-0033906Y-0014031D02*
Y-0014531D01*
X-0035156Y-0015031D02*
Y-0015531D01*
X-0034656Y-0015031D02*
X-0035156D01*
X-0034656Y-0015531D02*
Y-0015031D01*
X-0035156Y-0015531D02*
X-0034656D01*
Y-0015281D02*
X-0035156D01*
X-0034906Y-0015031D02*
Y-0015531D01*
X-0034156Y-0015031D02*
Y-0015531D01*
X-0033656Y-0015031D02*
X-0034156D01*
X-0033656Y-0015531D02*
Y-0015031D01*
X-0034156Y-0015531D02*
X-0033656D01*
Y-0015281D02*
X-0034156D01*
X-0033906Y-0015031D02*
Y-0015531D01*
X-0005500Y0004187D02*
Y0003687D01*
X-0005000Y0004187D02*
X-0005500D01*
X-0005000Y0003687D02*
Y0004187D01*
X-0005500Y0003687D02*
X-0005000D01*
Y0003937D02*
X-0005500D01*
X-0005250Y0004187D02*
Y0003687D01*
X-0005500Y0003187D02*
Y0002687D01*
X-0005000Y0003187D02*
X-0005500D01*
X-0005000Y0002687D02*
Y0003187D01*
X-0005500Y0002687D02*
X-0005000D01*
Y0002937D02*
X-0005500D01*
X-0005250Y0003187D02*
Y0002687D01*
X-0006500Y0004187D02*
Y0003687D01*
X-0006000Y0004187D02*
X-0006500D01*
X-0006000Y0003687D02*
Y0004187D01*
X-0006500Y0003687D02*
X-0006000D01*
Y0003937D02*
X-0006500D01*
X-0006250Y0004187D02*
Y0003687D01*
X-0006500Y0003187D02*
Y0002687D01*
X-0006000Y0003187D02*
X-0006500D01*
X-0006000Y0002687D02*
Y0003187D01*
X-0006500Y0002687D02*
X-0006000D01*
Y0002937D02*
X-0006500D01*
X-0006250Y0003187D02*
Y0002687D01*
X-0007500Y0004187D02*
Y0003687D01*
X-0007000Y0004187D02*
X-0007500D01*
X-0007000Y0003687D02*
Y0004187D01*
X-0007500Y0003687D02*
X-0007000D01*
Y0003937D02*
X-0007500D01*
X-0007250Y0004187D02*
Y0003687D01*
X-0007500Y0003187D02*
Y0002687D01*
X-0007000Y0003187D02*
X-0007500D01*
X-0007000Y0002687D02*
Y0003187D01*
X-0007500Y0002687D02*
X-0007000D01*
Y0002937D02*
X-0007500D01*
X-0007250Y0003187D02*
Y0002687D01*
X-0008500Y0004187D02*
Y0003687D01*
X-0008000Y0004187D02*
X-0008500D01*
X-0008000Y0003687D02*
Y0004187D01*
X-0008500Y0003687D02*
X-0008000D01*
Y0003937D02*
X-0008500D01*
X-0008250Y0004187D02*
Y0003687D01*
X-0008500Y0003187D02*
Y0002687D01*
X-0008000Y0003187D02*
X-0008500D01*
X-0008000Y0002687D02*
Y0003187D01*
X-0008500Y0002687D02*
X-0008000D01*
Y0002937D02*
X-0008500D01*
X-0008250Y0003187D02*
Y0002687D01*
X-0009500Y0004187D02*
Y0003687D01*
X-0009000Y0004187D02*
X-0009500D01*
X-0009000Y0003687D02*
Y0004187D01*
X-0009500Y0003687D02*
X-0009000D01*
Y0003937D02*
X-0009500D01*
X-0009250Y0004187D02*
Y0003687D01*
X-0009500Y0003187D02*
Y0002687D01*
X-0009000Y0003187D02*
X-0009500D01*
X-0009000Y0002687D02*
Y0003187D01*
X-0009500Y0002687D02*
X-0009000D01*
Y0002937D02*
X-0009500D01*
X-0009250Y0003187D02*
Y0002687D01*
X-0010500Y0004187D02*
Y0003687D01*
X-0010000Y0004187D02*
X-0010500D01*
X-0010000Y0003687D02*
Y0004187D01*
X-0010500Y0003687D02*
X-0010000D01*
Y0003937D02*
X-0010500D01*
X-0010250Y0004187D02*
Y0003687D01*
X-0010500Y0003187D02*
Y0002687D01*
X-0010000Y0003187D02*
X-0010500D01*
X-0010000Y0002687D02*
Y0003187D01*
X-0010500Y0002687D02*
X-0010000D01*
Y0002937D02*
X-0010500D01*
X-0010250Y0003187D02*
Y0002687D01*
X-0011500Y0004187D02*
Y0003687D01*
X-0011000Y0004187D02*
X-0011500D01*
X-0011000Y0003687D02*
Y0004187D01*
X-0011500Y0003687D02*
X-0011000D01*
Y0003937D02*
X-0011500D01*
X-0011250Y0004187D02*
Y0003687D01*
X-0011500Y0003187D02*
Y0002687D01*
X-0011000Y0003187D02*
X-0011500D01*
X-0011000Y0002687D02*
Y0003187D01*
X-0011500Y0002687D02*
X-0011000D01*
Y0002937D02*
X-0011500D01*
X-0011250Y0003187D02*
Y0002687D01*
X-0012500Y0004187D02*
Y0003687D01*
X-0012000Y0004187D02*
X-0012500D01*
X-0012000Y0003687D02*
Y0004187D01*
X-0012500Y0003687D02*
X-0012000D01*
Y0003937D02*
X-0012500D01*
X-0012250Y0004187D02*
Y0003687D01*
X-0012500Y0003187D02*
Y0002687D01*
X-0012000Y0003187D02*
X-0012500D01*
X-0012000Y0002687D02*
Y0003187D01*
X-0012500Y0002687D02*
X-0012000D01*
Y0002937D02*
X-0012500D01*
X-0012250Y0003187D02*
Y0002687D01*
X-0013500Y0004187D02*
Y0003687D01*
X-0013000Y0004187D02*
X-0013500D01*
X-0013000Y0003687D02*
Y0004187D01*
X-0013500Y0003687D02*
X-0013000D01*
Y0003937D02*
X-0013500D01*
X-0013250Y0004187D02*
Y0003687D01*
X-0013500Y0003187D02*
Y0002687D01*
X-0013000Y0003187D02*
X-0013500D01*
X-0013000Y0002687D02*
Y0003187D01*
X-0013500Y0002687D02*
X-0013000D01*
Y0002937D02*
X-0013500D01*
X-0013250Y0003187D02*
Y0002687D01*
X-0014500Y0004187D02*
Y0003687D01*
X-0014000Y0004187D02*
X-0014500D01*
X-0014000Y0003687D02*
Y0004187D01*
X-0014500Y0003687D02*
X-0014000D01*
Y0003937D02*
X-0014500D01*
X-0014250Y0004187D02*
Y0003687D01*
X-0014500Y0003187D02*
Y0002687D01*
X-0014000Y0003187D02*
X-0014500D01*
X-0014000Y0002687D02*
Y0003187D01*
X-0014500Y0002687D02*
X-0014000D01*
Y0002937D02*
X-0014500D01*
X-0014250Y0003187D02*
Y0002687D01*
X-0015500Y0004187D02*
Y0003687D01*
X-0015000Y0004187D02*
X-0015500D01*
X-0015000Y0003687D02*
Y0004187D01*
X-0015500Y0003687D02*
X-0015000D01*
Y0003937D02*
X-0015500D01*
X-0015250Y0004187D02*
Y0003687D01*
X-0015500Y0003187D02*
Y0002687D01*
X-0015000Y0003187D02*
X-0015500D01*
X-0015000Y0002687D02*
Y0003187D01*
X-0015500Y0002687D02*
X-0015000D01*
Y0002937D02*
X-0015500D01*
X-0015250Y0003187D02*
Y0002687D01*
X-0016500Y0004187D02*
Y0003687D01*
X-0016000Y0004187D02*
X-0016500D01*
X-0016000Y0003687D02*
Y0004187D01*
X-0016500Y0003687D02*
X-0016000D01*
Y0003937D02*
X-0016500D01*
X-0016250Y0004187D02*
Y0003687D01*
X-0016500Y0003187D02*
Y0002687D01*
X-0016000Y0003187D02*
X-0016500D01*
X-0016000Y0002687D02*
Y0003187D01*
X-0016500Y0002687D02*
X-0016000D01*
Y0002937D02*
X-0016500D01*
X-0016250Y0003187D02*
Y0002687D01*
X-0017500Y0004187D02*
Y0003687D01*
X-0017000Y0004187D02*
X-0017500D01*
X-0017000Y0003687D02*
Y0004187D01*
X-0017500Y0003687D02*
X-0017000D01*
Y0003937D02*
X-0017500D01*
X-0017250Y0004187D02*
Y0003687D01*
X-0017500Y0003187D02*
Y0002687D01*
X-0017000Y0003187D02*
X-0017500D01*
X-0017000Y0002687D02*
Y0003187D01*
X-0017500Y0002687D02*
X-0017000D01*
Y0002937D02*
X-0017500D01*
X-0017250Y0003187D02*
Y0002687D01*
X-0018500Y0004187D02*
Y0003687D01*
X-0018000Y0004187D02*
X-0018500D01*
X-0018000Y0003687D02*
Y0004187D01*
X-0018500Y0003687D02*
X-0018000D01*
Y0003937D02*
X-0018500D01*
X-0018250Y0004187D02*
Y0003687D01*
X-0018500Y0003187D02*
Y0002687D01*
X-0018000Y0003187D02*
X-0018500D01*
X-0018000Y0002687D02*
Y0003187D01*
X-0018500Y0002687D02*
X-0018000D01*
Y0002937D02*
X-0018500D01*
X-0018250Y0003187D02*
Y0002687D01*
X-0019500Y0004187D02*
Y0003687D01*
X-0019000Y0004187D02*
X-0019500D01*
X-0019000Y0003687D02*
Y0004187D01*
X-0019500Y0003687D02*
X-0019000D01*
Y0003937D02*
X-0019500D01*
X-0019250Y0004187D02*
Y0003687D01*
X-0019500Y0003187D02*
Y0002687D01*
X-0019000Y0003187D02*
X-0019500D01*
X-0019000Y0002687D02*
Y0003187D01*
X-0019500Y0002687D02*
X-0019000D01*
Y0002937D02*
X-0019500D01*
X-0019250Y0003187D02*
Y0002687D01*
X-0020500Y0004187D02*
Y0003687D01*
X-0020000Y0004187D02*
X-0020500D01*
X-0020000Y0003687D02*
Y0004187D01*
X-0020500Y0003687D02*
X-0020000D01*
Y0003937D02*
X-0020500D01*
X-0020250Y0004187D02*
Y0003687D01*
X-0020500Y0003187D02*
Y0002687D01*
X-0020000Y0003187D02*
X-0020500D01*
X-0020000Y0002687D02*
Y0003187D01*
X-0020500Y0002687D02*
X-0020000D01*
Y0002937D02*
X-0020500D01*
X-0020250Y0003187D02*
Y0002687D01*
X-0021500Y0004187D02*
Y0003687D01*
X-0021000Y0004187D02*
X-0021500D01*
X-0021000Y0003687D02*
Y0004187D01*
X-0021500Y0003687D02*
X-0021000D01*
Y0003937D02*
X-0021500D01*
X-0021250Y0004187D02*
Y0003687D01*
X-0021500Y0003187D02*
Y0002687D01*
X-0021000Y0003187D02*
X-0021500D01*
X-0021000Y0002687D02*
Y0003187D01*
X-0021500Y0002687D02*
X-0021000D01*
Y0002937D02*
X-0021500D01*
X-0021250Y0003187D02*
Y0002687D01*
X0007344Y-0037937D02*
Y-0038437D01*
X0007844Y-0037937D02*
X0007344D01*
X0007844Y-0038437D02*
Y-0037937D01*
X0007344Y-0038437D02*
X0007844D01*
Y-0038187D02*
X0007344D01*
X0007594Y-0037937D02*
Y-0038437D01*
X0008344Y-0037937D02*
Y-0038437D01*
X0008844Y-0037937D02*
X0008344D01*
X0008844Y-0038437D02*
Y-0037937D01*
X0008344Y-0038437D02*
X0008844D01*
Y-0038187D02*
X0008344D01*
X0008594Y-0037937D02*
Y-0038437D01*
X0007344Y-0038937D02*
Y-0039437D01*
X0007844Y-0038937D02*
X0007344D01*
X0007844Y-0039437D02*
Y-0038937D01*
X0007344Y-0039437D02*
X0007844D01*
Y-0039187D02*
X0007344D01*
X0007594Y-0038937D02*
Y-0039437D01*
X0008344Y-0038937D02*
Y-0039437D01*
X0008844Y-0038937D02*
X0008344D01*
X0008844Y-0039437D02*
Y-0038937D01*
X0008344Y-0039437D02*
X0008844D01*
Y-0039187D02*
X0008344D01*
X0008594Y-0038937D02*
Y-0039437D01*
X0007344Y-0039937D02*
Y-0040437D01*
X0007844Y-0039937D02*
X0007344D01*
X0007844Y-0040437D02*
Y-0039937D01*
X0007344Y-0040437D02*
X0007844D01*
Y-0040187D02*
X0007344D01*
X0007594Y-0039937D02*
Y-0040437D01*
X0008344Y-0039937D02*
Y-0040437D01*
X0008844Y-0039937D02*
X0008344D01*
X0008844Y-0040437D02*
Y-0039937D01*
X0008344Y-0040437D02*
X0008844D01*
Y-0040187D02*
X0008344D01*
X0008594Y-0039937D02*
Y-0040437D01*
X0007344Y-0040937D02*
Y-0041437D01*
X0007844Y-0040937D02*
X0007344D01*
X0007844Y-0041437D02*
Y-0040937D01*
X0007344Y-0041437D02*
X0007844D01*
Y-0041187D02*
X0007344D01*
X0007594Y-0040937D02*
Y-0041437D01*
X0008344Y-0040937D02*
Y-0041437D01*
X0008844Y-0040937D02*
X0008344D01*
X0008844Y-0041437D02*
Y-0040937D01*
X0008344Y-0041437D02*
X0008844D01*
Y-0041187D02*
X0008344D01*
X0008594Y-0040937D02*
Y-0041437D01*
X0007344Y-0041937D02*
Y-0042437D01*
X0007844Y-0041937D02*
X0007344D01*
X0007844Y-0042437D02*
Y-0041937D01*
X0007344Y-0042437D02*
X0007844D01*
Y-0042187D02*
X0007344D01*
X0007594Y-0041937D02*
Y-0042437D01*
X0008344Y-0041937D02*
Y-0042437D01*
X0008844Y-0041937D02*
X0008344D01*
X0008844Y-0042437D02*
Y-0041937D01*
X0008344Y-0042437D02*
X0008844D01*
Y-0042187D02*
X0008344D01*
X0008594Y-0041937D02*
Y-0042437D01*
X0007344Y-0042937D02*
Y-0043437D01*
X0007844Y-0042937D02*
X0007344D01*
X0007844Y-0043437D02*
Y-0042937D01*
X0007344Y-0043437D02*
X0007844D01*
Y-0043187D02*
X0007344D01*
X0007594Y-0042937D02*
Y-0043437D01*
X0008344Y-0042937D02*
Y-0043437D01*
X0008844Y-0042937D02*
X0008344D01*
X0008844Y-0043437D02*
Y-0042937D01*
X0008344Y-0043437D02*
X0008844D01*
Y-0043187D02*
X0008344D01*
X0008594Y-0042937D02*
Y-0043437D01*
X0007344Y-0043937D02*
Y-0044437D01*
X0007844Y-0043937D02*
X0007344D01*
X0007844Y-0044437D02*
Y-0043937D01*
X0007344Y-0044437D02*
X0007844D01*
Y-0044187D02*
X0007344D01*
X0007594Y-0043937D02*
Y-0044437D01*
X0008344Y-0043937D02*
Y-0044437D01*
X0008844Y-0043937D02*
X0008344D01*
X0008844Y-0044437D02*
Y-0043937D01*
X0008344Y-0044437D02*
X0008844D01*
Y-0044187D02*
X0008344D01*
X0008594Y-0043937D02*
Y-0044437D01*
X0007344Y-0044937D02*
Y-0045437D01*
X0007844Y-0044937D02*
X0007344D01*
X0007844Y-0045437D02*
Y-0044937D01*
X0007344Y-0045437D02*
X0007844D01*
Y-0045187D02*
X0007344D01*
X0007594Y-0044937D02*
Y-0045437D01*
X0008344Y-0044937D02*
Y-0045437D01*
X0008844Y-0044937D02*
X0008344D01*
X0008844Y-0045437D02*
Y-0044937D01*
X0008344Y-0045437D02*
X0008844D01*
Y-0045187D02*
X0008344D01*
X0008594Y-0044937D02*
Y-0045437D01*
X0007344Y-0045937D02*
Y-0046437D01*
X0007844Y-0045937D02*
X0007344D01*
X0007844Y-0046437D02*
Y-0045937D01*
X0007344Y-0046437D02*
X0007844D01*
Y-0046187D02*
X0007344D01*
X0007594Y-0045937D02*
Y-0046437D01*
X0008344Y-0045937D02*
Y-0046437D01*
X0008844Y-0045937D02*
X0008344D01*
X0008844Y-0046437D02*
Y-0045937D01*
X0008344Y-0046437D02*
X0008844D01*
Y-0046187D02*
X0008344D01*
X0008594Y-0045937D02*
Y-0046437D01*
X0007344Y-0046937D02*
Y-0047437D01*
X0007844Y-0046937D02*
X0007344D01*
X0007844Y-0047437D02*
Y-0046937D01*
X0007344Y-0047437D02*
X0007844D01*
Y-0047187D02*
X0007344D01*
X0007594Y-0046937D02*
Y-0047437D01*
X0008344Y-0046937D02*
Y-0047437D01*
X0008844Y-0046937D02*
X0008344D01*
X0008844Y-0047437D02*
Y-0046937D01*
X0008344Y-0047437D02*
X0008844D01*
Y-0047187D02*
X0008344D01*
X0008594Y-0046937D02*
Y-0047437D01*
X0002406Y-0045375D02*
Y-0045875D01*
X0002906Y-0045375D02*
X0002406D01*
X0002906Y-0045875D02*
Y-0045375D01*
X0002406Y-0045875D02*
X0002906D01*
Y-0045625D02*
X0002406D01*
X0002656Y-0045375D02*
Y-0045875D01*
X0003406Y-0045375D02*
Y-0045875D01*
X0003906Y-0045375D02*
X0003406D01*
X0003906Y-0045875D02*
Y-0045375D01*
X0003406Y-0045875D02*
X0003906D01*
Y-0045625D02*
X0003406D01*
X0003656Y-0045375D02*
Y-0045875D01*
X0002406Y-0046375D02*
Y-0046875D01*
X0002906Y-0046375D02*
X0002406D01*
X0002906Y-0046875D02*
Y-0046375D01*
X0002406Y-0046875D02*
X0002906D01*
Y-0046625D02*
X0002406D01*
X0002656Y-0046375D02*
Y-0046875D01*
X0003406Y-0046375D02*
Y-0046875D01*
X0003906Y-0046375D02*
X0003406D01*
X0003906Y-0046875D02*
Y-0046375D01*
X0003406Y-0046875D02*
X0003906D01*
Y-0046625D02*
X0003406D01*
X0003656Y-0046375D02*
Y-0046875D01*
X0002406Y-0047375D02*
Y-0047875D01*
X0002906Y-0047375D02*
X0002406D01*
X0002906Y-0047875D02*
Y-0047375D01*
X0002406Y-0047875D02*
X0002906D01*
Y-0047625D02*
X0002406D01*
X0002656Y-0047375D02*
Y-0047875D01*
X0003406Y-0047375D02*
Y-0047875D01*
X0003906Y-0047375D02*
X0003406D01*
X0003906Y-0047875D02*
Y-0047375D01*
X0003406Y-0047875D02*
X0003906D01*
Y-0047625D02*
X0003406D01*
X0003656Y-0047375D02*
Y-0047875D01*
X0002406Y-0048375D02*
Y-0048875D01*
X0002906Y-0048375D02*
X0002406D01*
X0002906Y-0048875D02*
Y-0048375D01*
X0002406Y-0048875D02*
X0002906D01*
Y-0048625D02*
X0002406D01*
X0002656Y-0048375D02*
Y-0048875D01*
X0003406Y-0048375D02*
Y-0048875D01*
X0003906Y-0048375D02*
X0003406D01*
X0003906Y-0048875D02*
Y-0048375D01*
X0003406Y-0048875D02*
X0003906D01*
Y-0048625D02*
X0003406D01*
X0003656Y-0048375D02*
Y-0048875D01*
X0002406Y-0055375D02*
Y-0055875D01*
X0002906Y-0055375D02*
X0002406D01*
X0002906Y-0055875D02*
Y-0055375D01*
X0002406Y-0055875D02*
X0002906D01*
Y-0055625D02*
X0002406D01*
X0002656Y-0055375D02*
Y-0055875D01*
X0003406Y-0055375D02*
Y-0055875D01*
X0003906Y-0055375D02*
X0003406D01*
X0003906Y-0055875D02*
Y-0055375D01*
X0003406Y-0055875D02*
X0003906D01*
Y-0055625D02*
X0003406D01*
X0003656Y-0055375D02*
Y-0055875D01*
X0002406Y-0056375D02*
Y-0056875D01*
X0002906Y-0056375D02*
X0002406D01*
X0002906Y-0056875D02*
Y-0056375D01*
X0002406Y-0056875D02*
X0002906D01*
Y-0056625D02*
X0002406D01*
X0002656Y-0056375D02*
Y-0056875D01*
X0003406Y-0056375D02*
Y-0056875D01*
X0003906Y-0056375D02*
X0003406D01*
X0003906Y-0056875D02*
Y-0056375D01*
X0003406Y-0056875D02*
X0003906D01*
Y-0056625D02*
X0003406D01*
X0003656Y-0056375D02*
Y-0056875D01*
X0002406Y-0057375D02*
Y-0057875D01*
X0002906Y-0057375D02*
X0002406D01*
X0002906Y-0057875D02*
Y-0057375D01*
X0002406Y-0057875D02*
X0002906D01*
Y-0057625D02*
X0002406D01*
X0002656Y-0057375D02*
Y-0057875D01*
X0003406Y-0057375D02*
Y-0057875D01*
X0003906Y-0057375D02*
X0003406D01*
X0003906Y-0057875D02*
Y-0057375D01*
X0003406Y-0057875D02*
X0003906D01*
Y-0057625D02*
X0003406D01*
X0003656Y-0057375D02*
Y-0057875D01*
X0002406Y-0058375D02*
Y-0058875D01*
X0002906Y-0058375D02*
X0002406D01*
X0002906Y-0058875D02*
Y-0058375D01*
X0002406Y-0058875D02*
X0002906D01*
Y-0058625D02*
X0002406D01*
X0002656Y-0058375D02*
Y-0058875D01*
X0003406Y-0058375D02*
Y-0058875D01*
X0003906Y-0058375D02*
X0003406D01*
X0003906Y-0058875D02*
Y-0058375D01*
X0003406Y-0058875D02*
X0003906D01*
Y-0058625D02*
X0003406D01*
X0003656Y-0058375D02*
Y-0058875D01*
X-0027672Y0000250D02*
Y-0000250D01*
X-0027172Y0000250D02*
X-0027672D01*
X-0027172Y-0000250D02*
Y0000250D01*
X-0027672Y-0000250D02*
X-0027172D01*
Y0000000D02*
X-0027672D01*
X-0027422Y0000250D02*
Y-0000250D01*
X-0026672Y0000250D02*
Y-0000250D01*
X-0026172Y0000250D02*
X-0026672D01*
X-0026172Y-0000250D02*
Y0000250D01*
X-0026672Y-0000250D02*
X-0026172D01*
Y0000000D02*
X-0026672D01*
X-0026422Y0000250D02*
Y-0000250D01*
X-0027672Y-0000750D02*
Y-0001250D01*
X-0027172Y-0000750D02*
X-0027672D01*
X-0027172Y-0001250D02*
Y-0000750D01*
X-0027672Y-0001250D02*
X-0027172D01*
Y-0001000D02*
X-0027672D01*
X-0027422Y-0000750D02*
Y-0001250D01*
X-0026672Y-0000750D02*
Y-0001250D01*
X-0026172Y-0000750D02*
X-0026672D01*
X-0026172Y-0001250D02*
Y-0000750D01*
X-0026672Y-0001250D02*
X-0026172D01*
Y-0001000D02*
X-0026672D01*
X-0026422Y-0000750D02*
Y-0001250D01*
X-0027672Y-0001750D02*
Y-0002250D01*
X-0027172Y-0001750D02*
X-0027672D01*
X-0027172Y-0002250D02*
Y-0001750D01*
X-0027672Y-0002250D02*
X-0027172D01*
Y-0002000D02*
X-0027672D01*
X-0027422Y-0001750D02*
Y-0002250D01*
X-0026672Y-0001750D02*
Y-0002250D01*
X-0026172Y-0001750D02*
X-0026672D01*
X-0026172Y-0002250D02*
Y-0001750D01*
X-0026672Y-0002250D02*
X-0026172D01*
Y-0002000D02*
X-0026672D01*
X-0026422Y-0001750D02*
Y-0002250D01*
X-0027672Y-0002750D02*
Y-0003250D01*
X-0027172Y-0002750D02*
X-0027672D01*
X-0027172Y-0003250D02*
Y-0002750D01*
X-0027672Y-0003250D02*
X-0027172D01*
Y-0003000D02*
X-0027672D01*
X-0027422Y-0002750D02*
Y-0003250D01*
X-0026672Y-0002750D02*
Y-0003250D01*
X-0026172Y-0002750D02*
X-0026672D01*
X-0026172Y-0003250D02*
Y-0002750D01*
X-0026672Y-0003250D02*
X-0026172D01*
Y-0003000D02*
X-0026672D01*
X-0026422Y-0002750D02*
Y-0003250D01*
X-0027672Y-0003750D02*
Y-0004250D01*
X-0027172Y-0003750D02*
X-0027672D01*
X-0027172Y-0004250D02*
Y-0003750D01*
X-0027672Y-0004250D02*
X-0027172D01*
Y-0004000D02*
X-0027672D01*
X-0027422Y-0003750D02*
Y-0004250D01*
X-0026672Y-0003750D02*
Y-0004250D01*
X-0026172Y-0003750D02*
X-0026672D01*
X-0026172Y-0004250D02*
Y-0003750D01*
X-0026672Y-0004250D02*
X-0026172D01*
Y-0004000D02*
X-0026672D01*
X-0026422Y-0003750D02*
Y-0004250D01*
X-0027672Y-0004750D02*
Y-0005250D01*
X-0027172Y-0004750D02*
X-0027672D01*
X-0027172Y-0005250D02*
Y-0004750D01*
X-0027672Y-0005250D02*
X-0027172D01*
Y-0005000D02*
X-0027672D01*
X-0027422Y-0004750D02*
Y-0005250D01*
X-0026672Y-0004750D02*
Y-0005250D01*
X-0026172Y-0004750D02*
X-0026672D01*
X-0026172Y-0005250D02*
Y-0004750D01*
X-0026672Y-0005250D02*
X-0026172D01*
Y-0005000D02*
X-0026672D01*
X-0026422Y-0004750D02*
Y-0005250D01*
X-0027672Y-0005750D02*
Y-0006250D01*
X-0027172Y-0005750D02*
X-0027672D01*
X-0027172Y-0006250D02*
Y-0005750D01*
X-0027672Y-0006250D02*
X-0027172D01*
Y-0006000D02*
X-0027672D01*
X-0027422Y-0005750D02*
Y-0006250D01*
X-0026672Y-0005750D02*
Y-0006250D01*
X-0026172Y-0005750D02*
X-0026672D01*
X-0026172Y-0006250D02*
Y-0005750D01*
X-0026672Y-0006250D02*
X-0026172D01*
Y-0006000D02*
X-0026672D01*
X-0026422Y-0005750D02*
Y-0006250D01*
X-0027672Y-0006750D02*
Y-0007250D01*
X-0027172Y-0006750D02*
X-0027672D01*
X-0027172Y-0007250D02*
Y-0006750D01*
X-0027672Y-0007250D02*
X-0027172D01*
Y-0007000D02*
X-0027672D01*
X-0027422Y-0006750D02*
Y-0007250D01*
X-0026672Y-0006750D02*
Y-0007250D01*
X-0026172Y-0006750D02*
X-0026672D01*
X-0026172Y-0007250D02*
Y-0006750D01*
X-0026672Y-0007250D02*
X-0026172D01*
Y-0007000D02*
X-0026672D01*
X-0026422Y-0006750D02*
Y-0007250D01*
X-0027672Y-0007750D02*
Y-0008250D01*
X-0027172Y-0007750D02*
X-0027672D01*
X-0027172Y-0008250D02*
Y-0007750D01*
X-0027672Y-0008250D02*
X-0027172D01*
Y-0008000D02*
X-0027672D01*
X-0027422Y-0007750D02*
Y-0008250D01*
X-0026672Y-0007750D02*
Y-0008250D01*
X-0026172Y-0007750D02*
X-0026672D01*
X-0026172Y-0008250D02*
Y-0007750D01*
X-0026672Y-0008250D02*
X-0026172D01*
Y-0008000D02*
X-0026672D01*
X-0026422Y-0007750D02*
Y-0008250D01*
X-0027672Y-0008750D02*
Y-0009250D01*
X-0027172Y-0008750D02*
X-0027672D01*
X-0027172Y-0009250D02*
Y-0008750D01*
X-0027672Y-0009250D02*
X-0027172D01*
Y-0009000D02*
X-0027672D01*
X-0027422Y-0008750D02*
Y-0009250D01*
X-0026672Y-0008750D02*
Y-0009250D01*
X-0026172Y-0008750D02*
X-0026672D01*
X-0026172Y-0009250D02*
Y-0008750D01*
X-0026672Y-0009250D02*
X-0026172D01*
Y-0009000D02*
X-0026672D01*
X-0026422Y-0008750D02*
Y-0009250D01*
X-0027672Y-0009750D02*
Y-0010250D01*
X-0027172Y-0009750D02*
X-0027672D01*
X-0027172Y-0010250D02*
Y-0009750D01*
X-0027672Y-0010250D02*
X-0027172D01*
Y-0010000D02*
X-0027672D01*
X-0027422Y-0009750D02*
Y-0010250D01*
X-0026672Y-0009750D02*
Y-0010250D01*
X-0026172Y-0009750D02*
X-0026672D01*
X-0026172Y-0010250D02*
Y-0009750D01*
X-0026672Y-0010250D02*
X-0026172D01*
Y-0010000D02*
X-0026672D01*
X-0026422Y-0009750D02*
Y-0010250D01*
X-0027672Y-0010750D02*
Y-0011250D01*
X-0027172Y-0010750D02*
X-0027672D01*
X-0027172Y-0011250D02*
Y-0010750D01*
X-0027672Y-0011250D02*
X-0027172D01*
Y-0011000D02*
X-0027672D01*
X-0027422Y-0010750D02*
Y-0011250D01*
X-0026672Y-0010750D02*
Y-0011250D01*
X-0026172Y-0010750D02*
X-0026672D01*
X-0026172Y-0011250D02*
Y-0010750D01*
X-0026672Y-0011250D02*
X-0026172D01*
Y-0011000D02*
X-0026672D01*
X-0026422Y-0010750D02*
Y-0011250D01*
X-0027672Y-0011750D02*
Y-0012250D01*
X-0027172Y-0011750D02*
X-0027672D01*
X-0027172Y-0012250D02*
Y-0011750D01*
X-0027672Y-0012250D02*
X-0027172D01*
Y-0012000D02*
X-0027672D01*
X-0027422Y-0011750D02*
Y-0012250D01*
X-0026672Y-0011750D02*
Y-0012250D01*
X-0026172Y-0011750D02*
X-0026672D01*
X-0026172Y-0012250D02*
Y-0011750D01*
X-0026672Y-0012250D02*
X-0026172D01*
Y-0012000D02*
X-0026672D01*
X-0026422Y-0011750D02*
Y-0012250D01*
X-0027672Y-0012750D02*
Y-0013250D01*
X-0027172Y-0012750D02*
X-0027672D01*
X-0027172Y-0013250D02*
Y-0012750D01*
X-0027672Y-0013250D02*
X-0027172D01*
Y-0013000D02*
X-0027672D01*
X-0027422Y-0012750D02*
Y-0013250D01*
X-0026672Y-0012750D02*
Y-0013250D01*
X-0026172Y-0012750D02*
X-0026672D01*
X-0026172Y-0013250D02*
Y-0012750D01*
X-0026672Y-0013250D02*
X-0026172D01*
Y-0013000D02*
X-0026672D01*
X-0026422Y-0012750D02*
Y-0013250D01*
X-0027672Y-0013750D02*
Y-0014250D01*
X-0027172Y-0013750D02*
X-0027672D01*
X-0027172Y-0014250D02*
Y-0013750D01*
X-0027672Y-0014250D02*
X-0027172D01*
Y-0014000D02*
X-0027672D01*
X-0027422Y-0013750D02*
Y-0014250D01*
X-0026672Y-0013750D02*
Y-0014250D01*
X-0026172Y-0013750D02*
X-0026672D01*
X-0026172Y-0014250D02*
Y-0013750D01*
X-0026672Y-0014250D02*
X-0026172D01*
Y-0014000D02*
X-0026672D01*
X-0026422Y-0013750D02*
Y-0014250D01*
X-0027672Y-0014750D02*
Y-0015250D01*
X-0027172Y-0014750D02*
X-0027672D01*
X-0027172Y-0015250D02*
Y-0014750D01*
X-0027672Y-0015250D02*
X-0027172D01*
Y-0015000D02*
X-0027672D01*
X-0027422Y-0014750D02*
Y-0015250D01*
X-0026672Y-0014750D02*
Y-0015250D01*
X-0026172Y-0014750D02*
X-0026672D01*
X-0026172Y-0015250D02*
Y-0014750D01*
X-0026672Y-0015250D02*
X-0026172D01*
Y-0015000D02*
X-0026672D01*
X-0026422Y-0014750D02*
Y-0015250D01*
X-0027672Y-0015750D02*
Y-0016250D01*
X-0027172Y-0015750D02*
X-0027672D01*
X-0027172Y-0016250D02*
Y-0015750D01*
X-0027672Y-0016250D02*
X-0027172D01*
Y-0016000D02*
X-0027672D01*
X-0027422Y-0015750D02*
Y-0016250D01*
X-0026672Y-0015750D02*
Y-0016250D01*
X-0026172Y-0015750D02*
X-0026672D01*
X-0026172Y-0016250D02*
Y-0015750D01*
X-0026672Y-0016250D02*
X-0026172D01*
Y-0016000D02*
X-0026672D01*
X-0026422Y-0015750D02*
Y-0016250D01*
X-0027672Y-0016750D02*
Y-0017250D01*
X-0027172Y-0016750D02*
X-0027672D01*
X-0027172Y-0017250D02*
Y-0016750D01*
X-0027672Y-0017250D02*
X-0027172D01*
Y-0017000D02*
X-0027672D01*
X-0027422Y-0016750D02*
Y-0017250D01*
X-0026672Y-0016750D02*
Y-0017250D01*
X-0026172Y-0016750D02*
X-0026672D01*
X-0026172Y-0017250D02*
Y-0016750D01*
X-0026672Y-0017250D02*
X-0026172D01*
Y-0017000D02*
X-0026672D01*
X-0026422Y-0016750D02*
Y-0017250D01*
X-0027672Y-0017750D02*
Y-0018250D01*
X-0027172Y-0017750D02*
X-0027672D01*
X-0027172Y-0018250D02*
Y-0017750D01*
X-0027672Y-0018250D02*
X-0027172D01*
Y-0018000D02*
X-0027672D01*
X-0027422Y-0017750D02*
Y-0018250D01*
X-0026672Y-0017750D02*
Y-0018250D01*
X-0026172Y-0017750D02*
X-0026672D01*
X-0026172Y-0018250D02*
Y-0017750D01*
X-0026672Y-0018250D02*
X-0026172D01*
Y-0018000D02*
X-0026672D01*
X-0026422Y-0017750D02*
Y-0018250D01*
X-0027672Y-0018750D02*
Y-0019250D01*
X-0027172Y-0018750D02*
X-0027672D01*
X-0027172Y-0019250D02*
Y-0018750D01*
X-0027672Y-0019250D02*
X-0027172D01*
Y-0019000D02*
X-0027672D01*
X-0027422Y-0018750D02*
Y-0019250D01*
X-0026672Y-0018750D02*
Y-0019250D01*
X-0026172Y-0018750D02*
X-0026672D01*
X-0026172Y-0019250D02*
Y-0018750D01*
X-0026672Y-0019250D02*
X-0026172D01*
Y-0019000D02*
X-0026672D01*
X-0026422Y-0018750D02*
Y-0019250D01*
X-0027672Y-0019750D02*
Y-0020250D01*
X-0027172Y-0019750D02*
X-0027672D01*
X-0027172Y-0020250D02*
Y-0019750D01*
X-0027672Y-0020250D02*
X-0027172D01*
Y-0020000D02*
X-0027672D01*
X-0027422Y-0019750D02*
Y-0020250D01*
X-0026672Y-0019750D02*
Y-0020250D01*
X-0026172Y-0019750D02*
X-0026672D01*
X-0026172Y-0020250D02*
Y-0019750D01*
X-0026672Y-0020250D02*
X-0026172D01*
Y-0020000D02*
X-0026672D01*
X-0026422Y-0019750D02*
Y-0020250D01*
X-0027672Y-0020750D02*
Y-0021250D01*
X-0027172Y-0020750D02*
X-0027672D01*
X-0027172Y-0021250D02*
Y-0020750D01*
X-0027672Y-0021250D02*
X-0027172D01*
Y-0021000D02*
X-0027672D01*
X-0027422Y-0020750D02*
Y-0021250D01*
X-0026672Y-0020750D02*
Y-0021250D01*
X-0026172Y-0020750D02*
X-0026672D01*
X-0026172Y-0021250D02*
Y-0020750D01*
X-0026672Y-0021250D02*
X-0026172D01*
Y-0021000D02*
X-0026672D01*
X-0026422Y-0020750D02*
Y-0021250D01*
X-0027672Y-0021750D02*
Y-0022250D01*
X-0027172Y-0021750D02*
X-0027672D01*
X-0027172Y-0022250D02*
Y-0021750D01*
X-0027672Y-0022250D02*
X-0027172D01*
Y-0022000D02*
X-0027672D01*
X-0027422Y-0021750D02*
Y-0022250D01*
X-0026672Y-0021750D02*
Y-0022250D01*
X-0026172Y-0021750D02*
X-0026672D01*
X-0026172Y-0022250D02*
Y-0021750D01*
X-0026672Y-0022250D02*
X-0026172D01*
Y-0022000D02*
X-0026672D01*
X-0026422Y-0021750D02*
Y-0022250D01*
X-0027672Y-0022750D02*
Y-0023250D01*
X-0027172Y-0022750D02*
X-0027672D01*
X-0027172Y-0023250D02*
Y-0022750D01*
X-0027672Y-0023250D02*
X-0027172D01*
Y-0023000D02*
X-0027672D01*
X-0027422Y-0022750D02*
Y-0023250D01*
X-0026672Y-0022750D02*
Y-0023250D01*
X-0026172Y-0022750D02*
X-0026672D01*
X-0026172Y-0023250D02*
Y-0022750D01*
X-0026672Y-0023250D02*
X-0026172D01*
Y-0023000D02*
X-0026672D01*
X-0026422Y-0022750D02*
Y-0023250D01*
X-0027672Y-0023750D02*
Y-0024250D01*
X-0027172Y-0023750D02*
X-0027672D01*
X-0027172Y-0024250D02*
Y-0023750D01*
X-0027672Y-0024250D02*
X-0027172D01*
Y-0024000D02*
X-0027672D01*
X-0027422Y-0023750D02*
Y-0024250D01*
X-0026672Y-0023750D02*
Y-0024250D01*
X-0026172Y-0023750D02*
X-0026672D01*
X-0026172Y-0024250D02*
Y-0023750D01*
X-0026672Y-0024250D02*
X-0026172D01*
Y-0024000D02*
X-0026672D01*
X-0026422Y-0023750D02*
Y-0024250D01*
X-0027672Y-0024750D02*
Y-0025250D01*
X-0027172Y-0024750D02*
X-0027672D01*
X-0027172Y-0025250D02*
Y-0024750D01*
X-0027672Y-0025250D02*
X-0027172D01*
Y-0025000D02*
X-0027672D01*
X-0027422Y-0024750D02*
Y-0025250D01*
X-0026672Y-0024750D02*
Y-0025250D01*
X-0026172Y-0024750D02*
X-0026672D01*
X-0026172Y-0025250D02*
Y-0024750D01*
X-0026672Y-0025250D02*
X-0026172D01*
Y-0025000D02*
X-0026672D01*
X-0026422Y-0024750D02*
Y-0025250D01*
X-0027672Y-0025750D02*
Y-0026250D01*
X-0027172Y-0025750D02*
X-0027672D01*
X-0027172Y-0026250D02*
Y-0025750D01*
X-0027672Y-0026250D02*
X-0027172D01*
Y-0026000D02*
X-0027672D01*
X-0027422Y-0025750D02*
Y-0026250D01*
X-0026672Y-0025750D02*
Y-0026250D01*
X-0026172Y-0025750D02*
X-0026672D01*
X-0026172Y-0026250D02*
Y-0025750D01*
X-0026672Y-0026250D02*
X-0026172D01*
Y-0026000D02*
X-0026672D01*
X-0026422Y-0025750D02*
Y-0026250D01*
X-0027672Y-0026750D02*
Y-0027250D01*
X-0027172Y-0026750D02*
X-0027672D01*
X-0027172Y-0027250D02*
Y-0026750D01*
X-0027672Y-0027250D02*
X-0027172D01*
Y-0027000D02*
X-0027672D01*
X-0027422Y-0026750D02*
Y-0027250D01*
X-0026672Y-0026750D02*
Y-0027250D01*
X-0026172Y-0026750D02*
X-0026672D01*
X-0026172Y-0027250D02*
Y-0026750D01*
X-0026672Y-0027250D02*
X-0026172D01*
Y-0027000D02*
X-0026672D01*
X-0026422Y-0026750D02*
Y-0027250D01*
X-0027672Y-0027750D02*
Y-0028250D01*
X-0027172Y-0027750D02*
X-0027672D01*
X-0027172Y-0028250D02*
Y-0027750D01*
X-0027672Y-0028250D02*
X-0027172D01*
Y-0028000D02*
X-0027672D01*
X-0027422Y-0027750D02*
Y-0028250D01*
X-0026672Y-0027750D02*
Y-0028250D01*
X-0026172Y-0027750D02*
X-0026672D01*
X-0026172Y-0028250D02*
Y-0027750D01*
X-0026672Y-0028250D02*
X-0026172D01*
Y-0028000D02*
X-0026672D01*
X-0026422Y-0027750D02*
Y-0028250D01*
X-0027672Y-0028750D02*
Y-0029250D01*
X-0027172Y-0028750D02*
X-0027672D01*
X-0027172Y-0029250D02*
Y-0028750D01*
X-0027672Y-0029250D02*
X-0027172D01*
Y-0029000D02*
X-0027672D01*
X-0027422Y-0028750D02*
Y-0029250D01*
X-0026672Y-0028750D02*
Y-0029250D01*
X-0026172Y-0028750D02*
X-0026672D01*
X-0026172Y-0029250D02*
Y-0028750D01*
X-0026672Y-0029250D02*
X-0026172D01*
Y-0029000D02*
X-0026672D01*
X-0026422Y-0028750D02*
Y-0029250D01*
X-0027672Y-0029750D02*
Y-0030250D01*
X-0027172Y-0029750D02*
X-0027672D01*
X-0027172Y-0030250D02*
Y-0029750D01*
X-0027672Y-0030250D02*
X-0027172D01*
Y-0030000D02*
X-0027672D01*
X-0027422Y-0029750D02*
Y-0030250D01*
X-0026672Y-0029750D02*
Y-0030250D01*
X-0026172Y-0029750D02*
X-0026672D01*
X-0026172Y-0030250D02*
Y-0029750D01*
X-0026672Y-0030250D02*
X-0026172D01*
Y-0030000D02*
X-0026672D01*
X-0026422Y-0029750D02*
Y-0030250D01*
X-0027672Y-0030750D02*
Y-0031250D01*
X-0027172Y-0030750D02*
X-0027672D01*
X-0027172Y-0031250D02*
Y-0030750D01*
X-0027672Y-0031250D02*
X-0027172D01*
Y-0031000D02*
X-0027672D01*
X-0027422Y-0030750D02*
Y-0031250D01*
X-0026672Y-0030750D02*
Y-0031250D01*
X-0026172Y-0030750D02*
X-0026672D01*
X-0026172Y-0031250D02*
Y-0030750D01*
X-0026672Y-0031250D02*
X-0026172D01*
Y-0031000D02*
X-0026672D01*
X-0026422Y-0030750D02*
Y-0031250D01*
X-0027672Y-0031750D02*
Y-0032250D01*
X-0027172Y-0031750D02*
X-0027672D01*
X-0027172Y-0032250D02*
Y-0031750D01*
X-0027672Y-0032250D02*
X-0027172D01*
Y-0032000D02*
X-0027672D01*
X-0027422Y-0031750D02*
Y-0032250D01*
X-0026672Y-0031750D02*
Y-0032250D01*
X-0026172Y-0031750D02*
X-0026672D01*
X-0026172Y-0032250D02*
Y-0031750D01*
X-0026672Y-0032250D02*
X-0026172D01*
Y-0032000D02*
X-0026672D01*
X-0026422Y-0031750D02*
Y-0032250D01*
X-0027672Y-0032750D02*
Y-0033250D01*
X-0027172Y-0032750D02*
X-0027672D01*
X-0027172Y-0033250D02*
Y-0032750D01*
X-0027672Y-0033250D02*
X-0027172D01*
Y-0033000D02*
X-0027672D01*
X-0027422Y-0032750D02*
Y-0033250D01*
X-0026672Y-0032750D02*
Y-0033250D01*
X-0026172Y-0032750D02*
X-0026672D01*
X-0026172Y-0033250D02*
Y-0032750D01*
X-0026672Y-0033250D02*
X-0026172D01*
Y-0033000D02*
X-0026672D01*
X-0026422Y-0032750D02*
Y-0033250D01*
X-0027672Y-0033750D02*
Y-0034250D01*
X-0027172Y-0033750D02*
X-0027672D01*
X-0027172Y-0034250D02*
Y-0033750D01*
X-0027672Y-0034250D02*
X-0027172D01*
Y-0034000D02*
X-0027672D01*
X-0027422Y-0033750D02*
Y-0034250D01*
X-0026672Y-0033750D02*
Y-0034250D01*
X-0026172Y-0033750D02*
X-0026672D01*
X-0026172Y-0034250D02*
Y-0033750D01*
X-0026672Y-0034250D02*
X-0026172D01*
Y-0034000D02*
X-0026672D01*
X-0026422Y-0033750D02*
Y-0034250D01*
X-0000687Y0000250D02*
Y-0000250D01*
X-0000187Y0000250D02*
X-0000687D01*
X-0000187Y-0000250D02*
Y0000250D01*
X-0000687Y-0000250D02*
X-0000187D01*
Y0000000D02*
X-0000687D01*
X-0000437Y0000250D02*
Y-0000250D01*
X0000312Y0000250D02*
Y-0000250D01*
X0000812Y0000250D02*
X0000312D01*
X0000812Y-0000250D02*
Y0000250D01*
X0000312Y-0000250D02*
X0000812D01*
Y0000000D02*
X0000312D01*
X0000562Y0000250D02*
Y-0000250D01*
X-0000687Y-0000750D02*
Y-0001250D01*
X-0000187Y-0000750D02*
X-0000687D01*
X-0000187Y-0001250D02*
Y-0000750D01*
X-0000687Y-0001250D02*
X-0000187D01*
Y-0001000D02*
X-0000687D01*
X-0000437Y-0000750D02*
Y-0001250D01*
X0000312Y-0000750D02*
Y-0001250D01*
X0000812Y-0000750D02*
X0000312D01*
X0000812Y-0001250D02*
Y-0000750D01*
X0000312Y-0001250D02*
X0000812D01*
Y-0001000D02*
X0000312D01*
X0000562Y-0000750D02*
Y-0001250D01*
X-0000687Y-0001750D02*
Y-0002250D01*
X-0000187Y-0001750D02*
X-0000687D01*
X-0000187Y-0002250D02*
Y-0001750D01*
X-0000687Y-0002250D02*
X-0000187D01*
Y-0002000D02*
X-0000687D01*
X-0000437Y-0001750D02*
Y-0002250D01*
X0000312Y-0001750D02*
Y-0002250D01*
X0000812Y-0001750D02*
X0000312D01*
X0000812Y-0002250D02*
Y-0001750D01*
X0000312Y-0002250D02*
X0000812D01*
Y-0002000D02*
X0000312D01*
X0000562Y-0001750D02*
Y-0002250D01*
X-0000687Y-0002750D02*
Y-0003250D01*
X-0000187Y-0002750D02*
X-0000687D01*
X-0000187Y-0003250D02*
Y-0002750D01*
X-0000687Y-0003250D02*
X-0000187D01*
Y-0003000D02*
X-0000687D01*
X-0000437Y-0002750D02*
Y-0003250D01*
X0000312Y-0002750D02*
Y-0003250D01*
X0000812Y-0002750D02*
X0000312D01*
X0000812Y-0003250D02*
Y-0002750D01*
X0000312Y-0003250D02*
X0000812D01*
Y-0003000D02*
X0000312D01*
X0000562Y-0002750D02*
Y-0003250D01*
X-0000687Y-0003750D02*
Y-0004250D01*
X-0000187Y-0003750D02*
X-0000687D01*
X-0000187Y-0004250D02*
Y-0003750D01*
X-0000687Y-0004250D02*
X-0000187D01*
Y-0004000D02*
X-0000687D01*
X-0000437Y-0003750D02*
Y-0004250D01*
X0000312Y-0003750D02*
Y-0004250D01*
X0000812Y-0003750D02*
X0000312D01*
X0000812Y-0004250D02*
Y-0003750D01*
X0000312Y-0004250D02*
X0000812D01*
Y-0004000D02*
X0000312D01*
X0000562Y-0003750D02*
Y-0004250D01*
X-0000687Y-0004750D02*
Y-0005250D01*
X-0000187Y-0004750D02*
X-0000687D01*
X-0000187Y-0005250D02*
Y-0004750D01*
X-0000687Y-0005250D02*
X-0000187D01*
Y-0005000D02*
X-0000687D01*
X-0000437Y-0004750D02*
Y-0005250D01*
X0000312Y-0004750D02*
Y-0005250D01*
X0000812Y-0004750D02*
X0000312D01*
X0000812Y-0005250D02*
Y-0004750D01*
X0000312Y-0005250D02*
X0000812D01*
Y-0005000D02*
X0000312D01*
X0000562Y-0004750D02*
Y-0005250D01*
X-0000687Y-0005750D02*
Y-0006250D01*
X-0000187Y-0005750D02*
X-0000687D01*
X-0000187Y-0006250D02*
Y-0005750D01*
X-0000687Y-0006250D02*
X-0000187D01*
Y-0006000D02*
X-0000687D01*
X-0000437Y-0005750D02*
Y-0006250D01*
X0000312Y-0005750D02*
Y-0006250D01*
X0000812Y-0005750D02*
X0000312D01*
X0000812Y-0006250D02*
Y-0005750D01*
X0000312Y-0006250D02*
X0000812D01*
Y-0006000D02*
X0000312D01*
X0000562Y-0005750D02*
Y-0006250D01*
X-0000687Y-0006750D02*
Y-0007250D01*
X-0000187Y-0006750D02*
X-0000687D01*
X-0000187Y-0007250D02*
Y-0006750D01*
X-0000687Y-0007250D02*
X-0000187D01*
Y-0007000D02*
X-0000687D01*
X-0000437Y-0006750D02*
Y-0007250D01*
X0000312Y-0006750D02*
Y-0007250D01*
X0000812Y-0006750D02*
X0000312D01*
X0000812Y-0007250D02*
Y-0006750D01*
X0000312Y-0007250D02*
X0000812D01*
Y-0007000D02*
X0000312D01*
X0000562Y-0006750D02*
Y-0007250D01*
X-0000687Y-0007750D02*
Y-0008250D01*
X-0000187Y-0007750D02*
X-0000687D01*
X-0000187Y-0008250D02*
Y-0007750D01*
X-0000687Y-0008250D02*
X-0000187D01*
Y-0008000D02*
X-0000687D01*
X-0000437Y-0007750D02*
Y-0008250D01*
X0000312Y-0007750D02*
Y-0008250D01*
X0000812Y-0007750D02*
X0000312D01*
X0000812Y-0008250D02*
Y-0007750D01*
X0000312Y-0008250D02*
X0000812D01*
Y-0008000D02*
X0000312D01*
X0000562Y-0007750D02*
Y-0008250D01*
X-0000687Y-0008750D02*
Y-0009250D01*
X-0000187Y-0008750D02*
X-0000687D01*
X-0000187Y-0009250D02*
Y-0008750D01*
X-0000687Y-0009250D02*
X-0000187D01*
Y-0009000D02*
X-0000687D01*
X-0000437Y-0008750D02*
Y-0009250D01*
X0000312Y-0008750D02*
Y-0009250D01*
X0000812Y-0008750D02*
X0000312D01*
X0000812Y-0009250D02*
Y-0008750D01*
X0000312Y-0009250D02*
X0000812D01*
Y-0009000D02*
X0000312D01*
X0000562Y-0008750D02*
Y-0009250D01*
X-0000687Y-0009750D02*
Y-0010250D01*
X-0000187Y-0009750D02*
X-0000687D01*
X-0000187Y-0010250D02*
Y-0009750D01*
X-0000687Y-0010250D02*
X-0000187D01*
Y-0010000D02*
X-0000687D01*
X-0000437Y-0009750D02*
Y-0010250D01*
X0000312Y-0009750D02*
Y-0010250D01*
X0000812Y-0009750D02*
X0000312D01*
X0000812Y-0010250D02*
Y-0009750D01*
X0000312Y-0010250D02*
X0000812D01*
Y-0010000D02*
X0000312D01*
X0000562Y-0009750D02*
Y-0010250D01*
X-0000687Y-0010750D02*
Y-0011250D01*
X-0000187Y-0010750D02*
X-0000687D01*
X-0000187Y-0011250D02*
Y-0010750D01*
X-0000687Y-0011250D02*
X-0000187D01*
Y-0011000D02*
X-0000687D01*
X-0000437Y-0010750D02*
Y-0011250D01*
X0000312Y-0010750D02*
Y-0011250D01*
X0000812Y-0010750D02*
X0000312D01*
X0000812Y-0011250D02*
Y-0010750D01*
X0000312Y-0011250D02*
X0000812D01*
Y-0011000D02*
X0000312D01*
X0000562Y-0010750D02*
Y-0011250D01*
X-0000687Y-0011750D02*
Y-0012250D01*
X-0000187Y-0011750D02*
X-0000687D01*
X-0000187Y-0012250D02*
Y-0011750D01*
X-0000687Y-0012250D02*
X-0000187D01*
Y-0012000D02*
X-0000687D01*
X-0000437Y-0011750D02*
Y-0012250D01*
X0000312Y-0011750D02*
Y-0012250D01*
X0000812Y-0011750D02*
X0000312D01*
X0000812Y-0012250D02*
Y-0011750D01*
X0000312Y-0012250D02*
X0000812D01*
Y-0012000D02*
X0000312D01*
X0000562Y-0011750D02*
Y-0012250D01*
X-0000687Y-0012750D02*
Y-0013250D01*
X-0000187Y-0012750D02*
X-0000687D01*
X-0000187Y-0013250D02*
Y-0012750D01*
X-0000687Y-0013250D02*
X-0000187D01*
Y-0013000D02*
X-0000687D01*
X-0000437Y-0012750D02*
Y-0013250D01*
X0000312Y-0012750D02*
Y-0013250D01*
X0000812Y-0012750D02*
X0000312D01*
X0000812Y-0013250D02*
Y-0012750D01*
X0000312Y-0013250D02*
X0000812D01*
Y-0013000D02*
X0000312D01*
X0000562Y-0012750D02*
Y-0013250D01*
X-0000687Y-0013750D02*
Y-0014250D01*
X-0000187Y-0013750D02*
X-0000687D01*
X-0000187Y-0014250D02*
Y-0013750D01*
X-0000687Y-0014250D02*
X-0000187D01*
Y-0014000D02*
X-0000687D01*
X-0000437Y-0013750D02*
Y-0014250D01*
X0000312Y-0013750D02*
Y-0014250D01*
X0000812Y-0013750D02*
X0000312D01*
X0000812Y-0014250D02*
Y-0013750D01*
X0000312Y-0014250D02*
X0000812D01*
Y-0014000D02*
X0000312D01*
X0000562Y-0013750D02*
Y-0014250D01*
X-0000687Y-0014750D02*
Y-0015250D01*
X-0000187Y-0014750D02*
X-0000687D01*
X-0000187Y-0015250D02*
Y-0014750D01*
X-0000687Y-0015250D02*
X-0000187D01*
Y-0015000D02*
X-0000687D01*
X-0000437Y-0014750D02*
Y-0015250D01*
X0000312Y-0014750D02*
Y-0015250D01*
X0000812Y-0014750D02*
X0000312D01*
X0000812Y-0015250D02*
Y-0014750D01*
X0000312Y-0015250D02*
X0000812D01*
Y-0015000D02*
X0000312D01*
X0000562Y-0014750D02*
Y-0015250D01*
X-0000687Y-0015750D02*
Y-0016250D01*
X-0000187Y-0015750D02*
X-0000687D01*
X-0000187Y-0016250D02*
Y-0015750D01*
X-0000687Y-0016250D02*
X-0000187D01*
Y-0016000D02*
X-0000687D01*
X-0000437Y-0015750D02*
Y-0016250D01*
X0000312Y-0015750D02*
Y-0016250D01*
X0000812Y-0015750D02*
X0000312D01*
X0000812Y-0016250D02*
Y-0015750D01*
X0000312Y-0016250D02*
X0000812D01*
Y-0016000D02*
X0000312D01*
X0000562Y-0015750D02*
Y-0016250D01*
X-0000687Y-0016750D02*
Y-0017250D01*
X-0000187Y-0016750D02*
X-0000687D01*
X-0000187Y-0017250D02*
Y-0016750D01*
X-0000687Y-0017250D02*
X-0000187D01*
Y-0017000D02*
X-0000687D01*
X-0000437Y-0016750D02*
Y-0017250D01*
X0000312Y-0016750D02*
Y-0017250D01*
X0000812Y-0016750D02*
X0000312D01*
X0000812Y-0017250D02*
Y-0016750D01*
X0000312Y-0017250D02*
X0000812D01*
Y-0017000D02*
X0000312D01*
X0000562Y-0016750D02*
Y-0017250D01*
X-0000687Y-0017750D02*
Y-0018250D01*
X-0000187Y-0017750D02*
X-0000687D01*
X-0000187Y-0018250D02*
Y-0017750D01*
X-0000687Y-0018250D02*
X-0000187D01*
Y-0018000D02*
X-0000687D01*
X-0000437Y-0017750D02*
Y-0018250D01*
X0000312Y-0017750D02*
Y-0018250D01*
X0000812Y-0017750D02*
X0000312D01*
X0000812Y-0018250D02*
Y-0017750D01*
X0000312Y-0018250D02*
X0000812D01*
Y-0018000D02*
X0000312D01*
X0000562Y-0017750D02*
Y-0018250D01*
X-0000687Y-0018750D02*
Y-0019250D01*
X-0000187Y-0018750D02*
X-0000687D01*
X-0000187Y-0019250D02*
Y-0018750D01*
X-0000687Y-0019250D02*
X-0000187D01*
Y-0019000D02*
X-0000687D01*
X-0000437Y-0018750D02*
Y-0019250D01*
X0000312Y-0018750D02*
Y-0019250D01*
X0000812Y-0018750D02*
X0000312D01*
X0000812Y-0019250D02*
Y-0018750D01*
X0000312Y-0019250D02*
X0000812D01*
Y-0019000D02*
X0000312D01*
X0000562Y-0018750D02*
Y-0019250D01*
X-0000687Y-0019750D02*
Y-0020250D01*
X-0000187Y-0019750D02*
X-0000687D01*
X-0000187Y-0020250D02*
Y-0019750D01*
X-0000687Y-0020250D02*
X-0000187D01*
Y-0020000D02*
X-0000687D01*
X-0000437Y-0019750D02*
Y-0020250D01*
X0000312Y-0019750D02*
Y-0020250D01*
X0000812Y-0019750D02*
X0000312D01*
X0000812Y-0020250D02*
Y-0019750D01*
X0000312Y-0020250D02*
X0000812D01*
Y-0020000D02*
X0000312D01*
X0000562Y-0019750D02*
Y-0020250D01*
X-0000687Y-0020750D02*
Y-0021250D01*
X-0000187Y-0020750D02*
X-0000687D01*
X-0000187Y-0021250D02*
Y-0020750D01*
X-0000687Y-0021250D02*
X-0000187D01*
Y-0021000D02*
X-0000687D01*
X-0000437Y-0020750D02*
Y-0021250D01*
X0000312Y-0020750D02*
Y-0021250D01*
X0000812Y-0020750D02*
X0000312D01*
X0000812Y-0021250D02*
Y-0020750D01*
X0000312Y-0021250D02*
X0000812D01*
Y-0021000D02*
X0000312D01*
X0000562Y-0020750D02*
Y-0021250D01*
X-0000687Y-0021750D02*
Y-0022250D01*
X-0000187Y-0021750D02*
X-0000687D01*
X-0000187Y-0022250D02*
Y-0021750D01*
X-0000687Y-0022250D02*
X-0000187D01*
Y-0022000D02*
X-0000687D01*
X-0000437Y-0021750D02*
Y-0022250D01*
X0000312Y-0021750D02*
Y-0022250D01*
X0000812Y-0021750D02*
X0000312D01*
X0000812Y-0022250D02*
Y-0021750D01*
X0000312Y-0022250D02*
X0000812D01*
Y-0022000D02*
X0000312D01*
X0000562Y-0021750D02*
Y-0022250D01*
X-0000687Y-0022750D02*
Y-0023250D01*
X-0000187Y-0022750D02*
X-0000687D01*
X-0000187Y-0023250D02*
Y-0022750D01*
X-0000687Y-0023250D02*
X-0000187D01*
Y-0023000D02*
X-0000687D01*
X-0000437Y-0022750D02*
Y-0023250D01*
X0000312Y-0022750D02*
Y-0023250D01*
X0000812Y-0022750D02*
X0000312D01*
X0000812Y-0023250D02*
Y-0022750D01*
X0000312Y-0023250D02*
X0000812D01*
Y-0023000D02*
X0000312D01*
X0000562Y-0022750D02*
Y-0023250D01*
X-0000687Y-0023750D02*
Y-0024250D01*
X-0000187Y-0023750D02*
X-0000687D01*
X-0000187Y-0024250D02*
Y-0023750D01*
X-0000687Y-0024250D02*
X-0000187D01*
Y-0024000D02*
X-0000687D01*
X-0000437Y-0023750D02*
Y-0024250D01*
X0000312Y-0023750D02*
Y-0024250D01*
X0000812Y-0023750D02*
X0000312D01*
X0000812Y-0024250D02*
Y-0023750D01*
X0000312Y-0024250D02*
X0000812D01*
Y-0024000D02*
X0000312D01*
X0000562Y-0023750D02*
Y-0024250D01*
X-0000687Y-0024750D02*
Y-0025250D01*
X-0000187Y-0024750D02*
X-0000687D01*
X-0000187Y-0025250D02*
Y-0024750D01*
X-0000687Y-0025250D02*
X-0000187D01*
Y-0025000D02*
X-0000687D01*
X-0000437Y-0024750D02*
Y-0025250D01*
X0000312Y-0024750D02*
Y-0025250D01*
X0000812Y-0024750D02*
X0000312D01*
X0000812Y-0025250D02*
Y-0024750D01*
X0000312Y-0025250D02*
X0000812D01*
Y-0025000D02*
X0000312D01*
X0000562Y-0024750D02*
Y-0025250D01*
X-0000687Y-0025750D02*
Y-0026250D01*
X-0000187Y-0025750D02*
X-0000687D01*
X-0000187Y-0026250D02*
Y-0025750D01*
X-0000687Y-0026250D02*
X-0000187D01*
Y-0026000D02*
X-0000687D01*
X-0000437Y-0025750D02*
Y-0026250D01*
X0000312Y-0025750D02*
Y-0026250D01*
X0000812Y-0025750D02*
X0000312D01*
X0000812Y-0026250D02*
Y-0025750D01*
X0000312Y-0026250D02*
X0000812D01*
Y-0026000D02*
X0000312D01*
X0000562Y-0025750D02*
Y-0026250D01*
X-0000687Y-0026750D02*
Y-0027250D01*
X-0000187Y-0026750D02*
X-0000687D01*
X-0000187Y-0027250D02*
Y-0026750D01*
X-0000687Y-0027250D02*
X-0000187D01*
Y-0027000D02*
X-0000687D01*
X-0000437Y-0026750D02*
Y-0027250D01*
X0000312Y-0026750D02*
Y-0027250D01*
X0000812Y-0026750D02*
X0000312D01*
X0000812Y-0027250D02*
Y-0026750D01*
X0000312Y-0027250D02*
X0000812D01*
Y-0027000D02*
X0000312D01*
X0000562Y-0026750D02*
Y-0027250D01*
X-0000687Y-0027750D02*
Y-0028250D01*
X-0000187Y-0027750D02*
X-0000687D01*
X-0000187Y-0028250D02*
Y-0027750D01*
X-0000687Y-0028250D02*
X-0000187D01*
Y-0028000D02*
X-0000687D01*
X-0000437Y-0027750D02*
Y-0028250D01*
X0000312Y-0027750D02*
Y-0028250D01*
X0000812Y-0027750D02*
X0000312D01*
X0000812Y-0028250D02*
Y-0027750D01*
X0000312Y-0028250D02*
X0000812D01*
Y-0028000D02*
X0000312D01*
X0000562Y-0027750D02*
Y-0028250D01*
X-0000687Y-0028750D02*
Y-0029250D01*
X-0000187Y-0028750D02*
X-0000687D01*
X-0000187Y-0029250D02*
Y-0028750D01*
X-0000687Y-0029250D02*
X-0000187D01*
Y-0029000D02*
X-0000687D01*
X-0000437Y-0028750D02*
Y-0029250D01*
X0000312Y-0028750D02*
Y-0029250D01*
X0000812Y-0028750D02*
X0000312D01*
X0000812Y-0029250D02*
Y-0028750D01*
X0000312Y-0029250D02*
X0000812D01*
Y-0029000D02*
X0000312D01*
X0000562Y-0028750D02*
Y-0029250D01*
X-0000687Y-0029750D02*
Y-0030250D01*
X-0000187Y-0029750D02*
X-0000687D01*
X-0000187Y-0030250D02*
Y-0029750D01*
X-0000687Y-0030250D02*
X-0000187D01*
Y-0030000D02*
X-0000687D01*
X-0000437Y-0029750D02*
Y-0030250D01*
X0000312Y-0029750D02*
Y-0030250D01*
X0000812Y-0029750D02*
X0000312D01*
X0000812Y-0030250D02*
Y-0029750D01*
X0000312Y-0030250D02*
X0000812D01*
Y-0030000D02*
X0000312D01*
X0000562Y-0029750D02*
Y-0030250D01*
X-0000687Y-0030750D02*
Y-0031250D01*
X-0000187Y-0030750D02*
X-0000687D01*
X-0000187Y-0031250D02*
Y-0030750D01*
X-0000687Y-0031250D02*
X-0000187D01*
Y-0031000D02*
X-0000687D01*
X-0000437Y-0030750D02*
Y-0031250D01*
X0000312Y-0030750D02*
Y-0031250D01*
X0000812Y-0030750D02*
X0000312D01*
X0000812Y-0031250D02*
Y-0030750D01*
X0000312Y-0031250D02*
X0000812D01*
Y-0031000D02*
X0000312D01*
X0000562Y-0030750D02*
Y-0031250D01*
X-0000687Y-0031750D02*
Y-0032250D01*
X-0000187Y-0031750D02*
X-0000687D01*
X-0000187Y-0032250D02*
Y-0031750D01*
X-0000687Y-0032250D02*
X-0000187D01*
Y-0032000D02*
X-0000687D01*
X-0000437Y-0031750D02*
Y-0032250D01*
X0000312Y-0031750D02*
Y-0032250D01*
X0000812Y-0031750D02*
X0000312D01*
X0000812Y-0032250D02*
Y-0031750D01*
X0000312Y-0032250D02*
X0000812D01*
Y-0032000D02*
X0000312D01*
X0000562Y-0031750D02*
Y-0032250D01*
X-0000687Y-0032750D02*
Y-0033250D01*
X-0000187Y-0032750D02*
X-0000687D01*
X-0000187Y-0033250D02*
Y-0032750D01*
X-0000687Y-0033250D02*
X-0000187D01*
Y-0033000D02*
X-0000687D01*
X-0000437Y-0032750D02*
Y-0033250D01*
X0000312Y-0032750D02*
Y-0033250D01*
X0000812Y-0032750D02*
X0000312D01*
X0000812Y-0033250D02*
Y-0032750D01*
X0000312Y-0033250D02*
X0000812D01*
Y-0033000D02*
X0000312D01*
X0000562Y-0032750D02*
Y-0033250D01*
X-0000687Y-0033750D02*
Y-0034250D01*
X-0000187Y-0033750D02*
X-0000687D01*
X-0000187Y-0034250D02*
Y-0033750D01*
X-0000687Y-0034250D02*
X-0000187D01*
Y-0034000D02*
X-0000687D01*
X-0000437Y-0033750D02*
Y-0034250D01*
X0000312Y-0033750D02*
Y-0034250D01*
X0000812Y-0033750D02*
X0000312D01*
X0000812Y-0034250D02*
Y-0033750D01*
X0000312Y-0034250D02*
X0000812D01*
Y-0034000D02*
X0000312D01*
X0000562Y-0033750D02*
Y-0034250D01*
X-0027375Y-0045875D02*
X-0027875Y-0046375D01*
X-0027375D02*
X-0027875Y-0045875D01*
X-0027375Y-0060062D02*
X-0027875Y-0060562D01*
X-0027375D02*
X-0027875Y-0060062D01*
X-0030687Y0003937D02*
X-0031187Y0003437D01*
X-0030687D02*
X-0031187Y0003937D01*
X0007437Y0003875D02*
X0006937Y0003375D01*
X0007437D02*
X0006937Y0003875D01*
X0008500Y-0069750D02*
X0008000Y-0070250D01*
X0008500D02*
X0008000Y-0069750D01*
X-0034312Y-0069687D02*
X-0034812Y-0070187D01*
X-0034312D02*
X-0034812Y-0069687D01*
M02*
