*
G04 Mass Parameters ***
*
G04 Image ***
*
%IN\\CTNCLU03.CTN.ST.COM\MLDCLAB\USERS\DANIELE SFILIO\MY DOCUMENTS\DESIGN\VSS\MC\3PH\0038.11\HARDWARE\STM32 EVAL BOARD_REV2.SMB*%
%ICAS*%
%MOIN*%
%IPPOS*%
%ASAXBY*%
G74*%FSLAN2X34Y34*%
*
G04 Aperture Definitions ***
*
%ADD10C,0.1340*%
%ADD11R,0.0550X0.0370*%
%ADD12R,0.0320X0.0380*%
%ADD13R,0.0380X0.0320*%
%ADD14R,0.0984X0.0354*%
%ADD15R,0.0512X0.1575*%
%ADD16R,0.0480X0.0860*%
%ADD17R,0.0860X0.0480*%
%ADD18C,0.0750*%
%ADD19R,0.0750X0.0750*%
%ADD20O,0.1130X0.0280*%
%ADD21R,0.1130X0.0280*%
%ADD22C,0.1181*%
%ADD23C,0.0600*%
%ADD24R,0.0600X0.0600*%
%ADD25O,0.1900X0.1500*%
%ADD26O,0.1500X0.1900*%
%ADD27C,0.1100*%
%ADD28R,0.0886X0.0197*%
%ADD29R,0.1575X0.0787*%
%ADD30R,0.1378X0.0787*%
%ADD31R,0.0760X0.0480*%
%ADD32R,0.0480X0.0760*%
%ADD33C,0.0730*%
%ADD34R,0.0730X0.0730*%
%ADD35O,0.1000X0.0250*%
%ADD36R,0.1000X0.0250*%
%ADD37C,0.1600*%
%ADD38R,0.0500X0.0340*%
%ADD39R,0.0400X0.0340*%
%ADD40R,0.0440X0.0940*%
%ADD41C,0.0650*%
%ADD42C,0.0354*%
%ADD43C,0.0315*%
%ADD44C,0.0020*%
%ADD45O,0.0512X0.0197*%
%ADD46R,0.0512X0.0197*%
%ADD47O,0.0250X0.0940*%
%ADD48R,0.0250X0.0940*%
%ADD49O,0.0900X0.0160*%
%ADD50R,0.0900X0.0160*%
%ADD51R,0.0945X0.0236*%
%ADD52R,0.0394X0.0236*%
%ADD53C,0.0800*%
%ADD54R,0.1457X0.0512*%
%ADD55O,0.0700X0.0110*%
%ADD56R,0.0700X0.0110*%
%ADD57O,0.0110X0.0700*%
%ADD58R,0.0110X0.0700*%
%ADD59R,0.0197X0.0512*%
%ADD60R,0.0748X0.0512*%
%ADD61R,0.1000X0.0900*%
%ADD62C,0.0240*%
%ADD63C,0.0080*%
%ADD64C,0.0120*%
%ADD65C,0.0010*%
%ADD66C,0.0060*%
%ADD67C,0.0240*%
%ADD68C,0.0240*%
%ADD69C,0.0200*%
%ADD70C,0.0300*%
%ADD71C,0.0150*%
%ADD72C,0.0250*%
%ADD73C,0.0100*%
%ADD74C,0.0400*%
%ADD75C,0.0240*%
%ADD76C,0.0700*%
%ADD77C,0.1340*%
%ADD78C,0.0750*%
%ADD79R,0.0750X0.0750*%
%ADD80C,0.1181*%
%ADD81C,0.0600*%
%ADD82R,0.0600X0.0600*%
%ADD83O,0.1900X0.1500*%
%ADD84O,0.1500X0.1900*%
%ADD85C,0.1100*%
%ADD86C,0.0730*%
%ADD87R,0.0730X0.0730*%
%ADD88C,0.1600*%
%ADD89C,0.0650*%
%ADD90C,0.0354*%
%ADD91C,0.0315*%
%ADD92C,0.0800*%
%ADD93C,0.0240*%
%ADD94C,0.0500*%
%ADD95C,0.1180*%
%ADD96C,0.0350*%
%ADD97C,0.0310*%
%ADD98C,0.1339*%
%ADD99R,0.0560X0.0380*%
%ADD100R,0.0320X0.0380*%
%ADD101R,0.0380X0.0320*%
%ADD102R,0.0990X0.0360*%
%ADD103R,0.0520X0.1580*%
%ADD104R,0.0490X0.0870*%
%ADD105R,0.0870X0.0490*%
%ADD106C,0.0760*%
%ADD107R,0.0760X0.0760*%
%ADD108O,0.1140X0.0290*%
%ADD109R,0.1140X0.0290*%
%ADD110C,0.0910*%
%ADD111C,0.0610*%
%ADD112R,0.0610X0.0610*%
%ADD113O,0.1910X0.1510*%
%ADD114O,0.1510X0.1910*%
%ADD115C,0.1110*%
%ADD116R,0.0925X0.0216*%
%ADD117R,0.1614X0.0827*%
%ADD118R,0.1417X0.0827*%
%ADD119R,0.0760X0.0480*%
%ADD120R,0.0480X0.0760*%
%ADD121R,0.0740X0.0740*%
%ADD122O,0.1000X0.0250*%
%ADD123R,0.1000X0.0250*%
%ADD124C,0.1500*%
%ADD125R,0.0500X0.0340*%
%ADD126R,0.0400X0.0340*%
%ADD127R,0.0500X0.1000*%
%ADD128C,0.0660*%
%ADD129C,0.0039*%
%ADD130O,0.0520X0.0210*%
%ADD131R,0.0520X0.0210*%
%ADD132O,0.0250X0.0940*%
%ADD133R,0.0250X0.0940*%
%ADD134O,0.0900X0.0160*%
%ADD135R,0.0900X0.0160*%
%ADD136R,0.0950X0.0250*%
%ADD137R,0.0400X0.0250*%
%ADD138C,0.0810*%
%ADD139R,0.1470X0.0520*%
%ADD140O,0.0700X0.0110*%
%ADD141R,0.0700X0.0110*%
%ADD142O,0.0110X0.0700*%
%ADD143R,0.0110X0.0700*%
%ADD144R,0.0197X0.0512*%
%ADD145R,0.0760X0.0520*%
%ADD146R,0.1010X0.0910*%
%ADD147C,0.0250*%
%ADD148C,0.0250*%
%ADD149C,0.0250*%
*
G04 Plot Data ***
*
G54D44*
G01X-0007701Y-0067398D02*
X-0007727D01*
X-0007989Y-0067135D02*
X-0007714Y-0067411D01*
X-0007431Y-0066576D02*
X-0007989Y-0067135D01*
X-0007431Y-0066576D02*
X-0007155Y-0066852D01*
X-0007714Y-0067411D01*
X-0007163Y-0066844D02*
Y-0066860D01*
X-0007180Y-0066827D02*
Y-0066877D01*
X-0007198Y-0066809D02*
Y-0066895D01*
X-0007216Y-0066791D02*
Y-0066913D01*
X-0007234Y-0066773D02*
Y-0066931D01*
X-0007251Y-0066756D02*
Y-0066948D01*
X-0007269Y-0066738D02*
Y-0066966D01*
X-0007287Y-0066720D02*
Y-0066984D01*
X-0007304Y-0066703D02*
Y-0067001D01*
X-0007322Y-0066685D02*
Y-0067019D01*
X-0007340Y-0066667D02*
Y-0067037D01*
X-0007357Y-0066650D02*
Y-0067054D01*
X-0007375Y-0066632D02*
Y-0067072D01*
X-0007393Y-0066614D02*
Y-0067090D01*
X-0007410Y-0066597D02*
Y-0067107D01*
X-0007428Y-0066579D02*
Y-0067125D01*
X-0007446Y-0066591D02*
Y-0067143D01*
X-0007463Y-0066609D02*
Y-0067160D01*
X-0007481Y-0066627D02*
Y-0067178D01*
X-0007499Y-0066644D02*
Y-0067196D01*
X-0007517Y-0066662D02*
Y-0067214D01*
X-0007534Y-0066680D02*
Y-0067231D01*
X-0007552Y-0066698D02*
Y-0067249D01*
X-0007570Y-0066715D02*
Y-0067267D01*
X-0007587Y-0066733D02*
Y-0067284D01*
X-0007605Y-0066751D02*
Y-0067302D01*
X-0007623Y-0066768D02*
Y-0067320D01*
X-0007640Y-0066786D02*
Y-0067337D01*
X-0007658Y-0066804D02*
Y-0067355D01*
X-0007676Y-0066821D02*
Y-0067373D01*
X-0007693Y-0066839D02*
Y-0067390D01*
X-0007711Y-0066857D02*
Y-0067408D01*
X-0007729Y-0066874D02*
Y-0067396D01*
X-0007746Y-0066892D02*
Y-0067378D01*
X-0007764Y-0066910D02*
Y-0067360D01*
X-0007782Y-0066927D02*
Y-0067342D01*
X-0007800Y-0066945D02*
Y-0067325D01*
X-0007817Y-0066963D02*
Y-0067307D01*
X-0007835Y-0066981D02*
Y-0067289D01*
X-0007853Y-0066998D02*
Y-0067272D01*
X-0007870Y-0067016D02*
Y-0067254D01*
X-0007888Y-0067034D02*
Y-0067236D01*
X-0007906Y-0067051D02*
Y-0067219D01*
X-0007923Y-0067069D02*
Y-0067201D01*
X-0007941Y-0067087D02*
Y-0067183D01*
X-0007959Y-0067104D02*
Y-0067166D01*
X-0007976Y-0067122D02*
Y-0067148D01*
X-0007423Y-0066584D02*
X-0007438D01*
X-0007405Y-0066602D02*
X-0007456D01*
X-0007388Y-0066619D02*
X-0007474D01*
X-0007370Y-0066637D02*
X-0007491D01*
X-0007352Y-0066655D02*
X-0007509D01*
X-0007334Y-0066673D02*
X-0007527D01*
X-0007317Y-0066690D02*
X-0007545D01*
X-0007299Y-0066708D02*
X-0007562D01*
X-0007281Y-0066726D02*
X-0007580D01*
X-0007264Y-0066743D02*
X-0007598D01*
X-0007246Y-0066761D02*
X-0007615D01*
X-0007228Y-0066779D02*
X-0007633D01*
X-0007211Y-0066796D02*
X-0007651D01*
X-0007193Y-0066814D02*
X-0007668D01*
X-0007175Y-0066832D02*
X-0007686D01*
X-0007158Y-0066849D02*
X-0007704D01*
X-0007170Y-0066867D02*
X-0007721D01*
X-0007188Y-0066885D02*
X-0007739D01*
X-0007205Y-0066902D02*
X-0007757D01*
X-0007223Y-0066920D02*
X-0007774D01*
X-0007241Y-0066938D02*
X-0007792D01*
X-0007259Y-0066956D02*
X-0007810D01*
X-0007276Y-0066973D02*
X-0007828D01*
X-0007294Y-0066991D02*
X-0007845D01*
X-0007312Y-0067009D02*
X-0007863D01*
X-0007329Y-0067026D02*
X-0007881D01*
X-0007347Y-0067044D02*
X-0007898D01*
X-0007365Y-0067062D02*
X-0007916D01*
X-0007382Y-0067079D02*
X-0007934D01*
X-0007400Y-0067097D02*
X-0007951D01*
X-0007418Y-0067115D02*
X-0007969D01*
X-0007435Y-0067132D02*
X-0007987D01*
X-0007453Y-0067150D02*
X-0007974D01*
X-0007471Y-0067168D02*
X-0007957D01*
X-0007488Y-0067185D02*
X-0007939D01*
X-0007506Y-0067203D02*
X-0007921D01*
X-0007524Y-0067221D02*
X-0007903D01*
X-0007542Y-0067239D02*
X-0007886D01*
X-0007559Y-0067256D02*
X-0007868D01*
X-0007577Y-0067274D02*
X-0007850D01*
X-0007595Y-0067292D02*
X-0007833D01*
X-0007612Y-0067309D02*
X-0007815D01*
X-0007630Y-0067327D02*
X-0007797D01*
X-0007648Y-0067345D02*
X-0007780D01*
X-0007665Y-0067362D02*
X-0007762D01*
X-0007683Y-0067380D02*
X-0007744D01*
X-0007311Y-0067788D02*
X-0007337D01*
X-0007600Y-0067525D02*
X-0007324Y-0067801D01*
X-0007041Y-0066966D02*
X-0007600Y-0067525D01*
X-0007041Y-0066966D02*
X-0006765Y-0067242D01*
X-0007324Y-0067801D01*
X-0006773Y-0067234D02*
Y-0067250D01*
X-0006791Y-0067216D02*
Y-0067267D01*
X-0006808Y-0067199D02*
Y-0067285D01*
X-0006826Y-0067181D02*
Y-0067303D01*
X-0006844Y-0067163D02*
Y-0067321D01*
X-0006862Y-0067146D02*
Y-0067338D01*
X-0006879Y-0067128D02*
Y-0067356D01*
X-0006897Y-0067110D02*
Y-0067374D01*
X-0006915Y-0067093D02*
Y-0067391D01*
X-0006932Y-0067075D02*
Y-0067409D01*
X-0006950Y-0067057D02*
Y-0067427D01*
X-0006968Y-0067039D02*
Y-0067444D01*
X-0006985Y-0067022D02*
Y-0067462D01*
X-0007003Y-0067004D02*
Y-0067480D01*
X-0007021Y-0066986D02*
Y-0067497D01*
X-0007038Y-0066969D02*
Y-0067515D01*
X-0007056Y-0066981D02*
Y-0067533D01*
X-0007074Y-0066999D02*
Y-0067550D01*
X-0007091Y-0067016D02*
Y-0067568D01*
X-0007109Y-0067034D02*
Y-0067586D01*
X-0007127Y-0067052D02*
Y-0067604D01*
X-0007145Y-0067070D02*
Y-0067621D01*
X-0007162Y-0067087D02*
Y-0067639D01*
X-0007180Y-0067105D02*
Y-0067657D01*
X-0007198Y-0067123D02*
Y-0067674D01*
X-0007215Y-0067140D02*
Y-0067692D01*
X-0007233Y-0067158D02*
Y-0067710D01*
X-0007251Y-0067176D02*
Y-0067727D01*
X-0007268Y-0067193D02*
Y-0067745D01*
X-0007286Y-0067211D02*
Y-0067763D01*
X-0007304Y-0067229D02*
Y-0067780D01*
X-0007321Y-0067246D02*
Y-0067798D01*
X-0007339Y-0067264D02*
Y-0067786D01*
X-0007357Y-0067282D02*
Y-0067768D01*
X-0007374Y-0067299D02*
Y-0067750D01*
X-0007392Y-0067317D02*
Y-0067732D01*
X-0007410Y-0067335D02*
Y-0067715D01*
X-0007428Y-0067353D02*
Y-0067697D01*
X-0007445Y-0067370D02*
Y-0067679D01*
X-0007463Y-0067388D02*
Y-0067662D01*
X-0007481Y-0067406D02*
Y-0067644D01*
X-0007498Y-0067423D02*
Y-0067626D01*
X-0007516Y-0067441D02*
Y-0067608D01*
X-0007534Y-0067459D02*
Y-0067591D01*
X-0007551Y-0067476D02*
Y-0067573D01*
X-0007569Y-0067494D02*
Y-0067555D01*
X-0007587Y-0067512D02*
Y-0067538D01*
X-0007033Y-0066974D02*
X-0007049D01*
X-0007015Y-0066992D02*
X-0007067D01*
X-0006998Y-0067009D02*
X-0007084D01*
X-0006980Y-0067027D02*
X-0007102D01*
X-0006962Y-0067045D02*
X-0007120D01*
X-0006945Y-0067063D02*
X-0007138D01*
X-0006927Y-0067080D02*
X-0007155D01*
X-0006909Y-0067098D02*
X-0007173D01*
X-0006892Y-0067116D02*
X-0007191D01*
X-0006874Y-0067133D02*
X-0007208D01*
X-0006856Y-0067151D02*
X-0007226D01*
X-0006839Y-0067169D02*
X-0007244D01*
X-0006821Y-0067186D02*
X-0007261D01*
X-0006803Y-0067204D02*
X-0007279D01*
X-0006786Y-0067222D02*
X-0007297D01*
X-0006768Y-0067239D02*
X-0007314D01*
X-0006780Y-0067257D02*
X-0007332D01*
X-0006798Y-0067275D02*
X-0007350D01*
X-0006816Y-0067292D02*
X-0007367D01*
X-0006833Y-0067310D02*
X-0007385D01*
X-0006851Y-0067328D02*
X-0007403D01*
X-0006869Y-0067346D02*
X-0007421D01*
X-0006887Y-0067363D02*
X-0007438D01*
X-0006904Y-0067381D02*
X-0007456D01*
X-0006922Y-0067399D02*
X-0007474D01*
X-0006940Y-0067416D02*
X-0007491D01*
X-0006957Y-0067434D02*
X-0007509D01*
X-0006975Y-0067452D02*
X-0007527D01*
X-0006993Y-0067469D02*
X-0007544D01*
X-0007010Y-0067487D02*
X-0007562D01*
X-0007028Y-0067505D02*
X-0007580D01*
X-0007046Y-0067522D02*
X-0007597D01*
X-0007063Y-0067540D02*
X-0007584D01*
X-0007081Y-0067558D02*
X-0007567D01*
X-0007099Y-0067575D02*
X-0007549D01*
X-0007116Y-0067593D02*
X-0007531D01*
X-0007134Y-0067611D02*
X-0007514D01*
X-0007152Y-0067629D02*
X-0007496D01*
X-0007170Y-0067646D02*
X-0007478D01*
X-0007187Y-0067664D02*
X-0007461D01*
X-0007205Y-0067682D02*
X-0007443D01*
X-0007223Y-0067699D02*
X-0007425D01*
X-0007240Y-0067717D02*
X-0007408D01*
X-0007258Y-0067735D02*
X-0007390D01*
X-0007276Y-0067752D02*
X-0007372D01*
X-0007293Y-0067770D02*
X-0007355D01*
X-0006921Y-0068177D02*
X-0006947D01*
X-0007210Y-0067914D02*
X-0006934Y-0068190D01*
X-0006651Y-0067356D02*
X-0007210Y-0067914D01*
X-0006651Y-0067356D02*
X-0006376Y-0067632D01*
X-0006934Y-0068190D01*
X-0006383Y-0067624D02*
Y-0067639D01*
X-0006401Y-0067606D02*
Y-0067657D01*
X-0006419Y-0067588D02*
Y-0067675D01*
X-0006436Y-0067571D02*
Y-0067693D01*
X-0006454Y-0067553D02*
Y-0067710D01*
X-0006472Y-0067535D02*
Y-0067728D01*
X-0006490Y-0067518D02*
Y-0067746D01*
X-0006507Y-0067500D02*
Y-0067763D01*
X-0006525Y-0067482D02*
Y-0067781D01*
X-0006543Y-0067464D02*
Y-0067799D01*
X-0006560Y-0067447D02*
Y-0067816D01*
X-0006578Y-0067429D02*
Y-0067834D01*
X-0006596Y-0067411D02*
Y-0067852D01*
X-0006613Y-0067394D02*
Y-0067869D01*
X-0006631Y-0067376D02*
Y-0067887D01*
X-0006649Y-0067358D02*
Y-0067905D01*
X-0006666Y-0067371D02*
Y-0067923D01*
X-0006684Y-0067388D02*
Y-0067940D01*
X-0006702Y-0067406D02*
Y-0067958D01*
X-0006719Y-0067424D02*
Y-0067976D01*
X-0006737Y-0067442D02*
Y-0067993D01*
X-0006755Y-0067459D02*
Y-0068011D01*
X-0006773Y-0067477D02*
Y-0068029D01*
X-0006790Y-0067495D02*
Y-0068046D01*
X-0006808Y-0067512D02*
Y-0068064D01*
X-0006826Y-0067530D02*
Y-0068082D01*
X-0006843Y-0067548D02*
Y-0068100D01*
X-0006861Y-0067565D02*
Y-0068117D01*
X-0006879Y-0067583D02*
Y-0068135D01*
X-0006896Y-0067601D02*
Y-0068153D01*
X-0006914Y-0067618D02*
Y-0068170D01*
X-0006932Y-0067636D02*
Y-0068188D01*
X-0006949Y-0067654D02*
Y-0068175D01*
X-0006967Y-0067671D02*
Y-0068157D01*
X-0006985Y-0067689D02*
Y-0068140D01*
X-0007002Y-0067707D02*
Y-0068122D01*
X-0007020Y-0067725D02*
Y-0068104D01*
X-0007038Y-0067742D02*
Y-0068086D01*
X-0007056Y-0067760D02*
Y-0068069D01*
X-0007073Y-0067778D02*
Y-0068051D01*
X-0007091Y-0067795D02*
Y-0068033D01*
X-0007109Y-0067813D02*
Y-0068016D01*
X-0007126Y-0067831D02*
Y-0067998D01*
X-0007144Y-0067848D02*
Y-0067980D01*
X-0007162Y-0067866D02*
Y-0067963D01*
X-0007179Y-0067884D02*
Y-0067945D01*
X-0007197Y-0067901D02*
Y-0067927D01*
X-0006643Y-0067364D02*
X-0006659D01*
X-0006626Y-0067381D02*
X-0006677D01*
X-0006608Y-0067399D02*
X-0006695D01*
X-0006590Y-0067417D02*
X-0006712D01*
X-0006573Y-0067435D02*
X-0006730D01*
X-0006555Y-0067452D02*
X-0006748D01*
X-0006537Y-0067470D02*
X-0006766D01*
X-0006520Y-0067488D02*
X-0006783D01*
X-0006502Y-0067505D02*
X-0006801D01*
X-0006484Y-0067523D02*
X-0006819D01*
X-0006467Y-0067541D02*
X-0006836D01*
X-0006449Y-0067558D02*
X-0006854D01*
X-0006431Y-0067576D02*
X-0006872D01*
X-0006414Y-0067594D02*
X-0006889D01*
X-0006396Y-0067611D02*
X-0006907D01*
X-0006378Y-0067629D02*
X-0006925D01*
X-0006391Y-0067647D02*
X-0006942D01*
X-0006408Y-0067664D02*
X-0006960D01*
X-0006426Y-0067682D02*
X-0006978D01*
X-0006444Y-0067700D02*
X-0006995D01*
X-0006461Y-0067718D02*
X-0007013D01*
X-0006479Y-0067735D02*
X-0007031D01*
X-0006497Y-0067753D02*
X-0007049D01*
X-0006514Y-0067771D02*
X-0007066D01*
X-0006532Y-0067788D02*
X-0007084D01*
X-0006550Y-0067806D02*
X-0007102D01*
X-0006568Y-0067824D02*
X-0007119D01*
X-0006585Y-0067841D02*
X-0007137D01*
X-0006603Y-0067859D02*
X-0007155D01*
X-0006621Y-0067877D02*
X-0007172D01*
X-0006638Y-0067894D02*
X-0007190D01*
X-0006656Y-0067912D02*
X-0007208D01*
X-0006674Y-0067930D02*
X-0007195D01*
X-0006691Y-0067947D02*
X-0007177D01*
X-0006709Y-0067965D02*
X-0007159D01*
X-0006727Y-0067983D02*
X-0007141D01*
X-0006744Y-0068001D02*
X-0007124D01*
X-0006762Y-0068018D02*
X-0007106D01*
X-0006780Y-0068036D02*
X-0007088D01*
X-0006797Y-0068054D02*
X-0007071D01*
X-0006815Y-0068071D02*
X-0007053D01*
X-0006833Y-0068089D02*
X-0007035D01*
X-0006850Y-0068107D02*
X-0007018D01*
X-0006868Y-0068124D02*
X-0007000D01*
X-0006886Y-0068142D02*
X-0006982D01*
X-0006903Y-0068160D02*
X-0006965D01*
X-0009427Y-0069124D02*
X-0009453D01*
X-0009715Y-0068861D02*
X-0009440Y-0069137D01*
X-0009157Y-0068302D02*
X-0009715Y-0068861D01*
X-0009157Y-0068302D02*
X-0008881Y-0068578D01*
X-0009440Y-0069137D01*
X-0008889Y-0068570D02*
Y-0068586D01*
X-0008906Y-0068553D02*
Y-0068603D01*
X-0008924Y-0068535D02*
Y-0068621D01*
X-0008942Y-0068517D02*
Y-0068639D01*
X-0008960Y-0068499D02*
Y-0068657D01*
X-0008977Y-0068482D02*
Y-0068674D01*
X-0008995Y-0068464D02*
Y-0068692D01*
X-0009013Y-0068446D02*
Y-0068710D01*
X-0009030Y-0068429D02*
Y-0068727D01*
X-0009048Y-0068411D02*
Y-0068745D01*
X-0009066Y-0068393D02*
Y-0068763D01*
X-0009083Y-0068376D02*
Y-0068780D01*
X-0009101Y-0068358D02*
Y-0068798D01*
X-0009119Y-0068340D02*
Y-0068816D01*
X-0009136Y-0068323D02*
Y-0068833D01*
X-0009154Y-0068305D02*
Y-0068851D01*
X-0009172Y-0068317D02*
Y-0068869D01*
X-0009189Y-0068335D02*
Y-0068886D01*
X-0009207Y-0068353D02*
Y-0068904D01*
X-0009225Y-0068370D02*
Y-0068922D01*
X-0009243Y-0068388D02*
Y-0068940D01*
X-0009260Y-0068406D02*
Y-0068957D01*
X-0009278Y-0068424D02*
Y-0068975D01*
X-0009296Y-0068441D02*
Y-0068993D01*
X-0009313Y-0068459D02*
Y-0069010D01*
X-0009331Y-0068477D02*
Y-0069028D01*
X-0009349Y-0068494D02*
Y-0069046D01*
X-0009366Y-0068512D02*
Y-0069063D01*
X-0009384Y-0068530D02*
Y-0069081D01*
X-0009402Y-0068547D02*
Y-0069099D01*
X-0009419Y-0068565D02*
Y-0069116D01*
X-0009437Y-0068583D02*
Y-0069134D01*
X-0009455Y-0068600D02*
Y-0069122D01*
X-0009472Y-0068618D02*
Y-0069104D01*
X-0009490Y-0068636D02*
Y-0069086D01*
X-0009508Y-0068653D02*
Y-0069068D01*
X-0009526Y-0068671D02*
Y-0069051D01*
X-0009543Y-0068689D02*
Y-0069033D01*
X-0009561Y-0068707D02*
Y-0069015D01*
X-0009579Y-0068724D02*
Y-0068998D01*
X-0009596Y-0068742D02*
Y-0068980D01*
X-0009614Y-0068760D02*
Y-0068962D01*
X-0009632Y-0068777D02*
Y-0068945D01*
X-0009649Y-0068795D02*
Y-0068927D01*
X-0009667Y-0068813D02*
Y-0068909D01*
X-0009685Y-0068830D02*
Y-0068892D01*
X-0009702Y-0068848D02*
Y-0068874D01*
X-0009149Y-0068310D02*
X-0009164D01*
X-0009131Y-0068328D02*
X-0009182D01*
X-0009114Y-0068345D02*
X-0009200D01*
X-0009096Y-0068363D02*
X-0009217D01*
X-0009078Y-0068381D02*
X-0009235D01*
X-0009060Y-0068399D02*
X-0009253D01*
X-0009043Y-0068416D02*
X-0009271D01*
X-0009025Y-0068434D02*
X-0009288D01*
X-0009007Y-0068452D02*
X-0009306D01*
X-0008990Y-0068469D02*
X-0009324D01*
X-0008972Y-0068487D02*
X-0009341D01*
X-0008954Y-0068505D02*
X-0009359D01*
X-0008937Y-0068522D02*
X-0009377D01*
X-0008919Y-0068540D02*
X-0009394D01*
X-0008901Y-0068558D02*
X-0009412D01*
X-0008884Y-0068575D02*
X-0009430D01*
X-0008896Y-0068593D02*
X-0009447D01*
X-0008914Y-0068611D02*
X-0009465D01*
X-0008931Y-0068628D02*
X-0009483D01*
X-0008949Y-0068646D02*
X-0009500D01*
X-0008967Y-0068664D02*
X-0009518D01*
X-0008985Y-0068682D02*
X-0009536D01*
X-0009002Y-0068699D02*
X-0009554D01*
X-0009020Y-0068717D02*
X-0009571D01*
X-0009038Y-0068735D02*
X-0009589D01*
X-0009055Y-0068752D02*
X-0009607D01*
X-0009073Y-0068770D02*
X-0009624D01*
X-0009091Y-0068788D02*
X-0009642D01*
X-0009108Y-0068805D02*
X-0009660D01*
X-0009126Y-0068823D02*
X-0009677D01*
X-0009144Y-0068841D02*
X-0009695D01*
X-0009161Y-0068858D02*
X-0009713D01*
X-0009179Y-0068876D02*
X-0009700D01*
X-0009197Y-0068894D02*
X-0009683D01*
X-0009214Y-0068911D02*
X-0009665D01*
X-0009232Y-0068929D02*
X-0009647D01*
X-0009250Y-0068947D02*
X-0009629D01*
X-0009268Y-0068965D02*
X-0009612D01*
X-0009285Y-0068982D02*
X-0009594D01*
X-0009303Y-0069000D02*
X-0009576D01*
X-0009321Y-0069018D02*
X-0009559D01*
X-0009338Y-0069035D02*
X-0009541D01*
X-0009356Y-0069053D02*
X-0009523D01*
X-0009374Y-0069071D02*
X-0009506D01*
X-0009391Y-0069088D02*
X-0009488D01*
X-0009409Y-0069106D02*
X-0009470D01*
X-0009037Y-0069513D02*
X-0009063D01*
X-0009326Y-0069251D02*
X-0009050Y-0069526D01*
X-0008767Y-0068692D02*
X-0009326Y-0069251D01*
X-0008767Y-0068692D02*
X-0008491Y-0068968D01*
X-0009050Y-0069526D01*
X-0008499Y-0068960D02*
Y-0068975D01*
X-0008517Y-0068942D02*
Y-0068993D01*
X-0008534Y-0068925D02*
Y-0069011D01*
X-0008552Y-0068907D02*
Y-0069029D01*
X-0008570Y-0068889D02*
Y-0069046D01*
X-0008588Y-0068871D02*
Y-0069064D01*
X-0008605Y-0068854D02*
Y-0069082D01*
X-0008623Y-0068836D02*
Y-0069099D01*
X-0008641Y-0068818D02*
Y-0069117D01*
X-0008658Y-0068801D02*
Y-0069135D01*
X-0008676Y-0068783D02*
Y-0069152D01*
X-0008694Y-0068765D02*
Y-0069170D01*
X-0008711Y-0068748D02*
Y-0069188D01*
X-0008729Y-0068730D02*
Y-0069205D01*
X-0008747Y-0068712D02*
Y-0069223D01*
X-0008764Y-0068695D02*
Y-0069241D01*
X-0008782Y-0068707D02*
Y-0069259D01*
X-0008800Y-0068725D02*
Y-0069276D01*
X-0008817Y-0068742D02*
Y-0069294D01*
X-0008835Y-0068760D02*
Y-0069312D01*
X-0008853Y-0068778D02*
Y-0069329D01*
X-0008871Y-0068796D02*
Y-0069347D01*
X-0008888Y-0068813D02*
Y-0069365D01*
X-0008906Y-0068831D02*
Y-0069382D01*
X-0008924Y-0068849D02*
Y-0069400D01*
X-0008941Y-0068866D02*
Y-0069418D01*
X-0008959Y-0068884D02*
Y-0069436D01*
X-0008977Y-0068902D02*
Y-0069453D01*
X-0008994Y-0068919D02*
Y-0069471D01*
X-0009012Y-0068937D02*
Y-0069489D01*
X-0009030Y-0068955D02*
Y-0069506D01*
X-0009047Y-0068972D02*
Y-0069524D01*
X-0009065Y-0068990D02*
Y-0069511D01*
X-0009083Y-0069008D02*
Y-0069493D01*
X-0009100Y-0069025D02*
Y-0069476D01*
X-0009118Y-0069043D02*
Y-0069458D01*
X-0009136Y-0069061D02*
Y-0069440D01*
X-0009154Y-0069079D02*
Y-0069423D01*
X-0009171Y-0069096D02*
Y-0069405D01*
X-0009189Y-0069114D02*
Y-0069387D01*
X-0009207Y-0069132D02*
Y-0069370D01*
X-0009224Y-0069149D02*
Y-0069352D01*
X-0009242Y-0069167D02*
Y-0069334D01*
X-0009260Y-0069185D02*
Y-0069317D01*
X-0009277Y-0069202D02*
Y-0069299D01*
X-0009295Y-0069220D02*
Y-0069281D01*
X-0009313Y-0069238D02*
Y-0069264D01*
X-0008759Y-0068700D02*
X-0008775D01*
X-0008742Y-0068717D02*
X-0008792D01*
X-0008724Y-0068735D02*
X-0008810D01*
X-0008706Y-0068753D02*
X-0008828D01*
X-0008688Y-0068771D02*
X-0008846D01*
X-0008671Y-0068788D02*
X-0008863D01*
X-0008653Y-0068806D02*
X-0008881D01*
X-0008635Y-0068824D02*
X-0008899D01*
X-0008618Y-0068841D02*
X-0008916D01*
X-0008600Y-0068859D02*
X-0008934D01*
X-0008582Y-0068877D02*
X-0008952D01*
X-0008565Y-0068894D02*
X-0008969D01*
X-0008547Y-0068912D02*
X-0008987D01*
X-0008529Y-0068930D02*
X-0009005D01*
X-0008512Y-0068947D02*
X-0009022D01*
X-0008494Y-0068965D02*
X-0009040D01*
X-0008506Y-0068983D02*
X-0009058D01*
X-0008524Y-0069000D02*
X-0009075D01*
X-0008542Y-0069018D02*
X-0009093D01*
X-0008559Y-0069036D02*
X-0009111D01*
X-0008577Y-0069054D02*
X-0009129D01*
X-0008595Y-0069071D02*
X-0009146D01*
X-0008612Y-0069089D02*
X-0009164D01*
X-0008630Y-0069107D02*
X-0009182D01*
X-0008648Y-0069124D02*
X-0009199D01*
X-0008666Y-0069142D02*
X-0009217D01*
X-0008683Y-0069160D02*
X-0009235D01*
X-0008701Y-0069177D02*
X-0009252D01*
X-0008719Y-0069195D02*
X-0009270D01*
X-0008736Y-0069213D02*
X-0009288D01*
X-0008754Y-0069230D02*
X-0009305D01*
X-0008772Y-0069248D02*
X-0009323D01*
X-0008789Y-0069266D02*
X-0009311D01*
X-0008807Y-0069283D02*
X-0009293D01*
X-0008825Y-0069301D02*
X-0009275D01*
X-0008842Y-0069319D02*
X-0009257D01*
X-0008860Y-0069337D02*
X-0009240D01*
X-0008878Y-0069354D02*
X-0009222D01*
X-0008895Y-0069372D02*
X-0009204D01*
X-0008913Y-0069390D02*
X-0009187D01*
X-0008931Y-0069407D02*
X-0009169D01*
X-0008948Y-0069425D02*
X-0009151D01*
X-0008966Y-0069443D02*
X-0009133D01*
X-0008984Y-0069460D02*
X-0009116D01*
X-0009001Y-0069478D02*
X-0009098D01*
X-0009019Y-0069496D02*
X-0009080D01*
X-0008647Y-0069903D02*
X-0008673D01*
X-0008936Y-0069640D02*
X-0008660Y-0069916D01*
X-0008377Y-0069082D02*
X-0008936Y-0069640D01*
X-0008377Y-0069082D02*
X-0008101Y-0069358D01*
X-0008660Y-0069916D01*
X-0008109Y-0069350D02*
Y-0069366D01*
X-0008127Y-0069332D02*
Y-0069383D01*
X-0008145Y-0069314D02*
Y-0069401D01*
X-0008162Y-0069296D02*
Y-0069419D01*
X-0008180Y-0069279D02*
Y-0069437D01*
X-0008198Y-0069261D02*
Y-0069454D01*
X-0008216Y-0069243D02*
Y-0069472D01*
X-0008233Y-0069226D02*
Y-0069490D01*
X-0008251Y-0069208D02*
Y-0069507D01*
X-0008269Y-0069190D02*
Y-0069525D01*
X-0008286Y-0069173D02*
Y-0069543D01*
X-0008304Y-0069155D02*
Y-0069560D01*
X-0008322Y-0069137D02*
Y-0069578D01*
X-0008339Y-0069120D02*
Y-0069596D01*
X-0008357Y-0069102D02*
Y-0069613D01*
X-0008375Y-0069084D02*
Y-0069631D01*
X-0008392Y-0069097D02*
Y-0069649D01*
X-0008410Y-0069114D02*
Y-0069666D01*
X-0008428Y-0069132D02*
Y-0069684D01*
X-0008445Y-0069150D02*
Y-0069702D01*
X-0008463Y-0069168D02*
Y-0069720D01*
X-0008481Y-0069185D02*
Y-0069737D01*
X-0008499Y-0069203D02*
Y-0069755D01*
X-0008516Y-0069221D02*
Y-0069773D01*
X-0008534Y-0069238D02*
Y-0069790D01*
X-0008552Y-0069256D02*
Y-0069808D01*
X-0008569Y-0069274D02*
Y-0069826D01*
X-0008587Y-0069291D02*
Y-0069843D01*
X-0008605Y-0069309D02*
Y-0069861D01*
X-0008622Y-0069327D02*
Y-0069879D01*
X-0008640Y-0069344D02*
Y-0069896D01*
X-0008658Y-0069362D02*
Y-0069914D01*
X-0008675Y-0069380D02*
Y-0069901D01*
X-0008693Y-0069397D02*
Y-0069883D01*
X-0008711Y-0069415D02*
Y-0069866D01*
X-0008728Y-0069433D02*
Y-0069848D01*
X-0008746Y-0069451D02*
Y-0069830D01*
X-0008764Y-0069468D02*
Y-0069812D01*
X-0008782Y-0069486D02*
Y-0069795D01*
X-0008799Y-0069504D02*
Y-0069777D01*
X-0008817Y-0069521D02*
Y-0069759D01*
X-0008835Y-0069539D02*
Y-0069742D01*
X-0008852Y-0069557D02*
Y-0069724D01*
X-0008870Y-0069574D02*
Y-0069706D01*
X-0008888Y-0069592D02*
Y-0069689D01*
X-0008905Y-0069610D02*
Y-0069671D01*
X-0008923Y-0069627D02*
Y-0069653D01*
X-0008369Y-0069090D02*
X-0008385D01*
X-0008352Y-0069107D02*
X-0008403D01*
X-0008334Y-0069125D02*
X-0008421D01*
X-0008316Y-0069143D02*
X-0008438D01*
X-0008298Y-0069161D02*
X-0008456D01*
X-0008281Y-0069178D02*
X-0008474D01*
X-0008263Y-0069196D02*
X-0008492D01*
X-0008245Y-0069214D02*
X-0008509D01*
X-0008228Y-0069231D02*
X-0008527D01*
X-0008210Y-0069249D02*
X-0008545D01*
X-0008192Y-0069267D02*
X-0008562D01*
X-0008175Y-0069284D02*
X-0008580D01*
X-0008157Y-0069302D02*
X-0008598D01*
X-0008139Y-0069320D02*
X-0008615D01*
X-0008122Y-0069337D02*
X-0008633D01*
X-0008104Y-0069355D02*
X-0008651D01*
X-0008116Y-0069373D02*
X-0008668D01*
X-0008134Y-0069390D02*
X-0008686D01*
X-0008152Y-0069408D02*
X-0008704D01*
X-0008169Y-0069426D02*
X-0008721D01*
X-0008187Y-0069444D02*
X-0008739D01*
X-0008205Y-0069461D02*
X-0008757D01*
X-0008223Y-0069479D02*
X-0008775D01*
X-0008240Y-0069497D02*
X-0008792D01*
X-0008258Y-0069514D02*
X-0008810D01*
X-0008276Y-0069532D02*
X-0008828D01*
X-0008293Y-0069550D02*
X-0008845D01*
X-0008311Y-0069567D02*
X-0008863D01*
X-0008329Y-0069585D02*
X-0008881D01*
X-0008346Y-0069603D02*
X-0008898D01*
X-0008364Y-0069620D02*
X-0008916D01*
X-0008382Y-0069638D02*
X-0008934D01*
X-0008399Y-0069656D02*
X-0008921D01*
X-0008417Y-0069673D02*
X-0008903D01*
X-0008435Y-0069691D02*
X-0008885D01*
X-0008452Y-0069709D02*
X-0008867D01*
X-0008470Y-0069727D02*
X-0008850D01*
X-0008488Y-0069744D02*
X-0008832D01*
X-0008506Y-0069762D02*
X-0008814D01*
X-0008523Y-0069780D02*
X-0008797D01*
X-0008541Y-0069797D02*
X-0008779D01*
X-0008559Y-0069815D02*
X-0008761D01*
X-0008576Y-0069833D02*
X-0008744D01*
X-0008594Y-0069850D02*
X-0008726D01*
X-0008612Y-0069868D02*
X-0008708D01*
X-0008629Y-0069886D02*
X-0008691D01*
G54D80*
X0007548Y-0063147D03*
Y-0067945D03*
G54D86*
X-0025409Y-0051908D03*
Y-0052908D03*
Y-0053908D03*
G54D98*
X-0027625Y-0046125D03*
Y-0060312D03*
X-0030937Y0003687D03*
X0007187Y0003625D03*
X0008250Y-0070000D03*
X-0034562Y-0069937D03*
G54D106*
X0005224Y-0065563D03*
Y-0066563D03*
X-0031822Y-0023751D03*
Y-0024841D03*
Y-0025931D03*
Y-0027021D03*
X-0032942Y-0023206D03*
Y-0024296D03*
Y-0025386D03*
Y-0026476D03*
X0005375Y-0025910D03*
Y-0024820D03*
Y-0023730D03*
Y-0022640D03*
X0006495Y-0026455D03*
Y-0025365D03*
Y-0024275D03*
Y-0023185D03*
X-0009625Y-0037562D03*
X-0005469Y-0019812D03*
X-0015250Y-0037562D03*
X-0011437D03*
X-0013375D03*
X0009031Y-0016344D03*
X-0007437Y-0002312D03*
X-0031281Y-0016500D03*
X-0026937Y0003812D03*
X-0027937D03*
X-0026961Y0002868D03*
X-0021750Y-0003312D03*
X-0000687Y-0038156D03*
X-0015250Y-0026844D03*
X-0016375Y-0027844D03*
X-0015437Y-0003312D03*
Y-0002312D03*
X-0008687Y-0003312D03*
Y-0002312D03*
X-0009937Y-0003312D03*
Y-0002312D03*
X-0011187Y-0003312D03*
Y-0002312D03*
X-0012437Y-0003312D03*
Y-0002312D03*
X-0013687Y-0003312D03*
Y-0002312D03*
X-0016687Y-0003312D03*
Y-0002312D03*
X-0017937Y-0003312D03*
Y-0002312D03*
X0009031Y-0013906D03*
Y-0012906D03*
X-0035062Y-0041312D03*
Y-0042312D03*
X0009000Y-0000187D03*
Y-0001187D03*
Y-0002187D03*
X-0033906Y0000719D03*
X-0034906Y-0000281D03*
X-0033906D03*
X-0034906Y-0001281D03*
X-0033906D03*
X-0034906Y-0002281D03*
X-0033906D03*
X-0034906Y-0003281D03*
Y-0004281D03*
X-0033906D03*
X-0034906Y-0005281D03*
X-0033906D03*
X-0034906Y-0006281D03*
X-0033906D03*
X-0034906Y-0007281D03*
X-0033906D03*
X-0034906Y-0008281D03*
Y-0009281D03*
X-0033906D03*
X-0034906Y-0010281D03*
X-0033906D03*
X-0034906Y-0011281D03*
X-0033906D03*
X-0034906Y-0012281D03*
X-0033906D03*
X-0034906Y-0013281D03*
Y-0014281D03*
X-0033906D03*
X-0034906Y-0015281D03*
X-0033906D03*
X-0005250Y0002937D03*
X-0006250Y0003937D03*
Y0002937D03*
X-0007250Y0003937D03*
Y0002937D03*
X-0008250Y0003937D03*
Y0002937D03*
X-0009250Y0003937D03*
X-0010250D03*
Y0002937D03*
X-0011250Y0003937D03*
Y0002937D03*
X-0012250Y0003937D03*
Y0002937D03*
X-0013250Y0003937D03*
Y0002937D03*
X-0014250Y0003937D03*
X-0015250D03*
Y0002937D03*
X-0016250Y0003937D03*
Y0002937D03*
X-0017250Y0003937D03*
Y0002937D03*
X-0018250Y0003937D03*
Y0002937D03*
X-0019250Y0003937D03*
X-0020250D03*
Y0002937D03*
X-0021250Y0003937D03*
Y0002937D03*
X0008594Y-0038187D03*
X0007594Y-0039187D03*
X0008594D03*
X0007594Y-0040187D03*
X0008594D03*
X0007594Y-0041187D03*
X0008594D03*
X0007594Y-0042187D03*
Y-0043187D03*
X0008594D03*
X0007594Y-0044187D03*
X0008594D03*
X0007594Y-0045187D03*
X0008594D03*
X0007594Y-0046187D03*
X0008594D03*
X0007594Y-0047187D03*
X0008594D03*
X0003656Y-0045625D03*
X0002656Y-0046625D03*
X0003656D03*
X0002656Y-0047625D03*
X0003656D03*
X0002656Y-0048625D03*
X0003656D03*
Y-0055625D03*
X0002656Y-0056625D03*
X0003656D03*
X0002656Y-0057625D03*
X0003656D03*
X0002656Y-0058625D03*
X0003656D03*
X-0026422Y0000000D03*
X-0027422Y-0001000D03*
X-0026422D03*
X-0027422Y-0002000D03*
X-0026422D03*
X-0027422Y-0003000D03*
X-0026422D03*
X-0027422Y-0004000D03*
Y-0005000D03*
X-0026422D03*
X-0027422Y-0006000D03*
X-0026422D03*
X-0027422Y-0007000D03*
X-0026422D03*
X-0027422Y-0008000D03*
X-0026422D03*
X-0027422Y-0009000D03*
Y-0010000D03*
X-0026422D03*
X-0027422Y-0011000D03*
X-0026422D03*
X-0027422Y-0012000D03*
X-0026422D03*
X-0027422Y-0013000D03*
X-0026422D03*
X-0027422Y-0014000D03*
Y-0015000D03*
X-0026422D03*
X-0027422Y-0016000D03*
X-0026422D03*
X-0027422Y-0017000D03*
X-0026422D03*
X-0027422Y-0018000D03*
X-0026422D03*
X-0027422Y-0019000D03*
Y-0020000D03*
X-0026422D03*
X-0027422Y-0021000D03*
X-0026422D03*
X-0027422Y-0022000D03*
X-0026422D03*
X-0027422Y-0023000D03*
X-0026422D03*
X-0027422Y-0024000D03*
Y-0025000D03*
X-0026422D03*
X-0027422Y-0026000D03*
X-0026422D03*
X-0027422Y-0027000D03*
X-0026422D03*
X-0027422Y-0028000D03*
X-0026422D03*
X-0027422Y-0029000D03*
Y-0030000D03*
X-0026422D03*
X-0027422Y-0031000D03*
X-0026422D03*
X-0027422Y-0032000D03*
X-0026422D03*
X-0027422Y-0033000D03*
X-0026422D03*
X-0027422Y-0034000D03*
X-0026422D03*
X0000562Y0000000D03*
X-0000437Y-0001000D03*
X0000562D03*
X-0000437Y-0002000D03*
X0000562D03*
X-0000437Y-0003000D03*
X0000562D03*
X-0000437Y-0004000D03*
Y-0005000D03*
X0000562D03*
X-0000437Y-0006000D03*
X0000562D03*
X-0000437Y-0007000D03*
X0000562D03*
X-0000437Y-0008000D03*
X0000562D03*
X-0000437Y-0009000D03*
Y-0010000D03*
X0000562D03*
X-0000437Y-0011000D03*
X0000562D03*
X-0000437Y-0012000D03*
X0000562D03*
X-0000437Y-0013000D03*
X0000562D03*
X-0000437Y-0014000D03*
Y-0015000D03*
X0000562D03*
X-0000437Y-0016000D03*
X0000562D03*
X-0000437Y-0017000D03*
X0000562D03*
X-0000437Y-0018000D03*
X0000562D03*
X-0000437Y-0019000D03*
Y-0020000D03*
X0000562D03*
X-0000437Y-0021000D03*
X0000562D03*
X-0000437Y-0022000D03*
X0000562D03*
X-0000437Y-0023000D03*
X0000562D03*
X-0000437Y-0024000D03*
Y-0025000D03*
X0000562D03*
X-0000437Y-0026000D03*
X0000562D03*
X-0000437Y-0027000D03*
X0000562D03*
X-0000437Y-0028000D03*
X0000562D03*
X-0000437Y-0029000D03*
Y-0030000D03*
X0000562D03*
X-0000437Y-0031000D03*
X0000562D03*
X-0000437Y-0032000D03*
X0000562D03*
X-0000437Y-0033000D03*
X0000562D03*
X-0000437Y-0034000D03*
X0000562D03*
G54D107*
X0005224Y-0064563D03*
X-0031822Y-0022661D03*
X0005375Y-0027000D03*
X-0009625Y-0036562D03*
X-0006469Y-0019812D03*
X-0015250Y-0036562D03*
X-0011437D03*
X-0013375D03*
X0009031Y-0017344D03*
X-0007437Y-0003312D03*
X-0030281Y-0016500D03*
X-0025937Y0003812D03*
X-0021750Y-0002312D03*
X0000312Y-0038156D03*
X-0015250Y-0027844D03*
X-0016375Y-0026844D03*
X-0015437Y-0004312D03*
X-0008687D03*
X-0009937D03*
X-0011187D03*
X-0012437D03*
X-0013687D03*
X-0016687D03*
X-0017937D03*
X0009031Y-0014906D03*
X-0035062Y-0040312D03*
X0009000Y0000812D03*
X-0034906Y0000719D03*
X-0033906Y-0003281D03*
Y-0008281D03*
Y-0013281D03*
X-0005250Y0003937D03*
X-0009250Y0002937D03*
X-0014250D03*
X-0019250D03*
X0007594Y-0038187D03*
X0008594Y-0042187D03*
X0002656Y-0045625D03*
Y-0055625D03*
X-0027422Y0000000D03*
X-0026422Y-0004000D03*
Y-0009000D03*
Y-0014000D03*
Y-0019000D03*
Y-0024000D03*
Y-0029000D03*
X-0000437Y0000000D03*
X0000562Y-0004000D03*
Y-0009000D03*
Y-0014000D03*
Y-0019000D03*
Y-0024000D03*
Y-0029000D03*
G54D110*
X-0033266Y-0049433D03*
X-0033265Y-0044693D03*
G54D111*
X-0031411Y-0046572D03*
X-0032198Y-0046571D03*
Y-0047555D03*
G54D112*
X-0031416Y-0047553D03*
G54D113*
X-0032436Y-0060468D03*
G54D114*
X-0031187Y-0058469D03*
X-0033686D03*
G54D115*
X-0033062Y-0064000D03*
Y-0066000D03*
G54D121*
X-0025409Y-0050908D03*
G54D124*
X-0032382Y-0019921D03*
Y-0029761D03*
X0005935Y-0029740D03*
Y-0019900D03*
G54D128*
X-0009562Y-0024375D03*
X-0011562D03*
X-0018344Y-0044812D03*
Y-0046812D03*
X-0027219Y-0039469D03*
Y-0040269D03*
Y-0041069D03*
X-0005497Y-0022847D03*
Y-0022047D03*
Y-0021247D03*
X-0003406Y-0022844D03*
Y-0022044D03*
Y-0021244D03*
G54D129*
X-0008574Y-0067717D03*
X-0007516Y-0068775D03*
G54D138*
X-0032288Y-0055319D03*
Y-0053319D03*
X-0033288Y-0054319D03*
X-0034288Y-0053319D03*
X-0033288Y-0052314D03*
X-0034288Y-0055319D03*
G54D147*
X-0019000Y-0002312D03*
X-0007312Y-0018344D03*
X-0016312Y-0020500D03*
X-0022625Y-0021344D03*
X-0029187Y-0006594D03*
Y-0004844D03*
X-0029125Y-0002500D03*
X0001156Y0004219D03*
X-0003094Y-0012000D03*
X-0002719Y-0015750D03*
X-0034000Y-0039844D03*
X-0027375Y-0049375D03*
X-0022719Y-0043094D03*
X-0021281D03*
X-0019281Y-0047906D03*
X-0021062Y-0044312D03*
X-0019750Y-0044406D03*
X-0025031Y-0041594D03*
X-0024344Y-0043062D03*
X-0020219Y-0052781D03*
X-0018812D03*
X-0030750Y-0038844D03*
X-0013562Y-0031500D03*
X-0002281Y-0009344D03*
X-0019031Y-0059937D03*
X-0020250Y-0060594D03*
X-0018812Y-0055750D03*
X-0019156D03*
X-0029437Y-0053469D03*
X-0029844Y-0052719D03*
X-0018719Y-0058500D03*
Y-0057937D03*
X-0017531D03*
Y-0058500D03*
X-0025406Y-0042594D03*
X-0022906Y-0049312D03*
X-0021344D03*
X-0025562Y-0048094D03*
X-0028687Y-0049219D03*
X-0030406Y-0047250D03*
X-0020219Y-0052312D03*
X-0018812Y-0052281D03*
X-0010625Y-0034750D03*
X-0029437Y-0052719D03*
X-0013312Y-0054656D03*
X0005224Y-0063818D03*
X-0030250Y-0032406D03*
X0006469Y-0018531D03*
X0005094Y-0009844D03*
X0006625Y-0012781D03*
X-0005625Y-0000500D03*
X-0030531Y0000719D03*
X-0006562Y-0059281D03*
X-0007312D03*
X-0008062D03*
X-0008812D03*
X-0009562D03*
Y-0061844D03*
X-0008812Y-0061875D03*
X-0008062D03*
X-0007312D03*
X-0006562D03*
X0005750Y-0017687D03*
X0005406Y-0007500D03*
X-0012750Y-0020031D03*
X-0010656Y-0022937D03*
X-0010000Y-0021469D03*
X-0013312Y-0020031D03*
X-0015906Y-0008406D03*
X-0007875Y0000844D03*
X-0010125D03*
X-0012375D03*
X-0013875D03*
X-0017625Y0000812D03*
X-0019125D03*
X-0020625Y-0000500D03*
X-0021375D03*
X-0022125D03*
X-0035625Y-0034562D03*
X-0034406Y-0032000D03*
X-0029344Y-0032812D03*
X-0031906Y-0017656D03*
X-0030500Y-0015469D03*
X-0030531Y-0014281D03*
Y-0013281D03*
X-0031906Y-0012281D03*
Y-0010250D03*
X-0031937Y-0008281D03*
Y-0006281D03*
Y-0003312D03*
Y-0002281D03*
X-0030531Y-0001250D03*
X0001844Y-0034750D03*
X-0017969Y-0025500D03*
X-0018125Y-0025000D03*
X-0018219Y-0017531D03*
X-0010187Y-0019156D03*
X-0006531Y-0010500D03*
X-0016750Y-0007000D03*
X-0016937Y-0007250D03*
X-0003719Y-0015750D03*
X-0007187D03*
X-0011937Y-0010594D03*
X-0009000Y-0017187D03*
X-0014500Y-0017500D03*
X-0011656Y-0010750D03*
X-0008594Y-0008719D03*
X-0010062Y-0007156D03*
X-0022000Y-0007500D03*
X-0021750Y-0005562D03*
X-0025688Y-0004812D03*
X-0017656Y-0007500D03*
X-0016062Y-0020969D03*
X-0015375D03*
X-0013719Y-0031000D03*
X-0016719Y-0018156D03*
X-0023656Y-0019500D03*
X-0029062Y-0021500D03*
X-0015719Y-0011906D03*
X-0015469Y-0011656D03*
X-0015219Y-0011406D03*
X-0020250Y-0010812D03*
X-0020531Y-0010562D03*
X-0020781Y-0010281D03*
X-0020094Y-0014406D03*
X-0021281Y-0009781D03*
X-0021031Y-0010031D03*
X-0008812Y-0008469D03*
X-0006250Y-0010250D03*
X-0006500Y-0010000D03*
X-0012031Y-0010281D03*
X-0008062Y-0001562D03*
X-0020656Y-0041219D03*
X0006187Y-0009719D03*
X0006062Y-0002187D03*
X0003125Y-0001844D03*
X0004187Y-0000156D03*
X0004406Y0003125D03*
X0008094Y-0004562D03*
X0009219Y0001687D03*
X0001125Y0002000D03*
X-0003781Y0001531D03*
X0000859Y-0036167D03*
X0000937Y-0039656D03*
X-0000437Y-0043875D03*
X-0001469Y-0037219D03*
X-0001851Y-0033489D03*
X0008625Y-0024375D03*
X-0015656Y-0024250D03*
X-0022625Y-0023375D03*
X-0014812Y-0020500D03*
X-0019812Y-0004687D03*
X-0005406Y-0005969D03*
X-0019094Y-0008719D03*
X-0033031Y-0012719D03*
X-0035031Y-0017687D03*
X-0030750Y-0025219D03*
X-0035156Y-0020812D03*
Y-0024906D03*
X-0035375Y-0026812D03*
X-0031437Y-0049906D03*
X-0035460Y-0068632D03*
X-0032601Y-0071110D03*
X-0029562Y-0066531D03*
X-0025321Y-0070137D03*
X-0024811Y-0063267D03*
X-0018125Y-0060594D03*
X-0009312Y-0049969D03*
X-0008175Y-0047827D03*
X-0001719Y-0047000D03*
X-0011551Y-0047406D03*
X-0010531Y-0044250D03*
X-0010937Y-0038375D03*
X-0016187Y-0037156D03*
X-0008125Y-0043875D03*
X-0008061Y-0033807D03*
X-0004057Y-0032201D03*
X-0023750Y-0066727D03*
X-0004122Y-0069986D03*
X-0002852Y-0061457D03*
X-0026219Y-0066531D03*
X-0018007Y-0066197D03*
X-0004689Y-0065847D03*
X-0008962Y-0031567D03*
X-0008019Y-0028892D03*
X-0009159Y-0026591D03*
X0008399Y-0059555D03*
X0001647Y-0059779D03*
X-0000332Y-0059995D03*
X0007420Y-0062206D03*
X0005189Y-0060659D03*
X0001989Y-0066554D03*
X0002131Y-0062635D03*
X0005687Y-0069426D03*
X0003136Y-0068940D03*
X0004612Y-0063080D03*
X-0010437Y-0055281D03*
X-0013656D03*
X-0012062Y-0051437D03*
X-0018000Y-0069531D03*
X-0010437Y-0057000D03*
X-0011752Y-0069529D03*
X-0013656Y-0058219D03*
X-0010562Y-0059656D03*
X-0011794Y-0066547D03*
X-0010781Y-0063062D03*
X-0026781Y-0063250D03*
X-0028472Y-0058514D03*
X-0027074Y-0054005D03*
X-0004031Y-0049625D03*
X-0004890Y-0046937D03*
X-0002875Y-0056437D03*
X-0000532Y-0056445D03*
X-0000721Y-0049387D03*
X-0003514Y-0036397D03*
X-0007312Y-0038125D03*
X-0005844Y-0036344D03*
X-0004000Y-0039375D03*
X-0004522Y-0043817D03*
X0005344Y-0034312D03*
X-0011344Y-0001594D03*
X-0004875Y-0000531D03*
X-0022312Y0001687D03*
X-0022687Y-0007750D03*
X-0007406Y-0021594D03*
X0004312Y-0022125D03*
X-0024094Y0003500D03*
X-0032562Y0002375D03*
X-0030625Y-0040937D03*
X-0021375Y-0037312D03*
X0004971Y-0047685D03*
X0004969Y-0046687D03*
Y-0045656D03*
Y-0044688D03*
Y-0043687D03*
X0004971Y-0042654D03*
X0004969Y-0041687D03*
Y-0039781D03*
Y-0038656D03*
X0007625Y-0057250D03*
X0007656Y-0057750D03*
X0001312Y-0069437D03*
X-0002123Y-0065065D03*
X-0016406Y-0066500D03*
X-0012437Y-0063375D03*
X-0012500Y-0070156D03*
X-0019500Y-0070031D03*
X-0021062Y-0064781D03*
X-0021534Y-0065966D03*
X-0026500Y-0065562D03*
X-0029281D03*
X-0018531Y-0012750D03*
Y-0012219D03*
X-0016937Y-0008781D03*
X-0015781Y-0007219D03*
X-0013781Y-0007969D03*
X-0013219D03*
X-0011187D03*
X-0010625D03*
X-0005437Y-0010531D03*
X-0007469Y-0010000D03*
X-0006562Y-0012625D03*
Y-0012062D03*
X-0006531Y-0014344D03*
Y-0014875D03*
X-0006875Y-0017344D03*
X-0008156Y-0019156D03*
X-0015687Y-0022187D03*
X-0012062Y-0021531D03*
X-0017569Y-0018337D03*
X-0017969Y-0017312D03*
X-0018406Y-0014594D03*
Y-0015094D03*
G54D148*
X-0004750Y-0013250D03*
X-0001500Y0002156D03*
X-0023344Y0001094D03*
X-0015750D03*
X-0029250Y-0022000D03*
X-0010531Y-0001062D03*
X-0019500Y0000812D03*
X-0002719Y-0024719D03*
X-0019844Y-0015656D03*
X-0017562Y-0026500D03*
X-0004406Y-0021312D03*
X-0014187Y-0001187D03*
X-0003614Y-0016500D03*
X-0009062Y-0008219D03*
X0001000Y-0047625D03*
X-0014187Y-0029469D03*
X-0020281Y-0002812D03*
Y-0007750D03*
X-0015250D03*
X-0014500Y-0028594D03*
X-0001219Y0002375D03*
X-0002594Y-0045625D03*
X-0010312Y-0006906D03*
X-0023375Y-0021000D03*
Y-0016156D03*
X-0016062Y-0015875D03*
X-0010031Y-0005156D03*
X-0004656Y-0021750D03*
X-0020000Y-0018094D03*
X-0028594Y-0033562D03*
X-0029312D03*
X-0019062Y-0020500D03*
X-0017719Y-0026000D03*
X-0020062Y-0015906D03*
X-0005000Y-0013000D03*
X-0020000Y-0000687D03*
X-0024469D03*
X-0025656Y-0002500D03*
X-0016125Y-0001781D03*
X-0019094Y-0022250D03*
X-0019844Y-0012250D03*
X-0018562Y-0022500D03*
X-0019594Y-0012500D03*
X-0013906Y-0053908D03*
X-0008437Y-0009000D03*
X-0004937Y-0020594D03*
X-0017312Y-0027000D03*
X-0011406Y-0013250D03*
X-0016062Y-0016375D03*
X-0008625Y-0018031D03*
X-0014094Y-0030000D03*
X-0025844Y-0042437D03*
X-0029000D03*
X-0018344Y-0005406D03*
Y-0009531D03*
X-0009125Y-0011625D03*
X-0013000Y-0033000D03*
X-0009625Y-0005656D03*
X-0010500Y-0002812D03*
X-0017250Y-0001625D03*
X-0018531Y-0004906D03*
X-0021594Y-0044656D03*
X-0005437Y-0012219D03*
X-0008844Y-0019531D03*
X-0013250Y-0032500D03*
X-0019290Y-0012736D03*
X-0013875Y-0030500D03*
X-0017375Y-0005156D03*
X-0014344Y-0029000D03*
X-0013469Y-0032000D03*
X-0012125Y-0033000D03*
X-0003969Y-0004000D03*
X-0008781Y-0009656D03*
X-0020062Y-0015406D03*
X-0009562Y-0007719D03*
X-0009312Y-0007969D03*
X-0006594Y-0018687D03*
X-0019906Y-0014656D03*
X-0019875Y-0015156D03*
X-0018094Y-0005656D03*
Y-0009281D03*
X-0008875Y-0011344D03*
G54D149*
X-0028156Y-0048219D03*
X-0032085Y-0041875D03*
X-0012656Y-0055750D03*
X-0011209Y-0015062D03*
X-0003594Y-0015125D03*
X-0016531Y-0041187D03*
X-0001430Y-0032730D03*
X-0011156Y-0019437D03*
X-0027497Y-0064219D03*
X0009362Y-0041937D03*
X-0000656Y-0042937D03*
X0004980Y-0055755D03*
X-0002375Y-0024500D03*
X0006844Y-0040697D03*
X-0015312Y-0040625D03*
X-0009846Y-0017497D03*
X-0021437Y-0016656D03*
X0007781Y-0014406D03*
X-0015469Y-0014875D03*
X0009342Y-0043155D03*
X-0016719Y-0040187D03*
X-0011781Y-0001312D03*
X-0006625D03*
X-0025656Y-0010250D03*
X-0023094Y-0011125D03*
X-0023125Y-0016406D03*
X-0005125Y-0012000D03*
X-0029656Y-0043281D03*
X-0021625Y-0046406D03*
X-0016125Y-0041781D03*
X-0005719Y-0010219D03*
X-0022531Y-0017812D03*
X-0022656Y-0011937D03*
X-0025625Y-0011750D03*
X-0020031Y-0035344D03*
X-0010719Y-0019156D03*
X0003750Y-0005250D03*
X-0005094Y-0046125D03*
Y-0033312D03*
X-0025125D03*
X-0015562Y-0046625D03*
X-0003469Y-0009750D03*
Y-0003500D03*
X-0015875Y-0042062D03*
X0003969Y-0006656D03*
X-0015062Y-0000437D03*
X-0014625Y-0007125D03*
X-0019500Y-0009531D03*
X-0009625Y-0012000D03*
X-0010312Y-0010562D03*
X-0008187Y-0066406D03*
X-0009187Y-0065406D03*
X-0010469Y-0018937D03*
X-0025344Y-0013687D03*
X-0008969Y-0015969D03*
X-0018812Y-0022000D03*
X-0008219Y-0069750D03*
X-0007687Y-0064906D03*
X-0017594Y-0006750D03*
X-0010562Y-0005125D03*
X-0017969Y-0018937D03*
X-0015312Y-0048625D03*
X-0018594Y-0008250D03*
Y-0006000D03*
X-0008875Y-0010844D03*
X-0021031Y-0009031D03*
X-0007781Y-0010125D03*
X-0025563Y-0006344D03*
X-0006937Y-0064906D03*
X-0008875Y-0068281D03*
X0004781Y-0013250D03*
X-0015219Y-0014625D03*
X-0009375Y-0013781D03*
X-0011875D03*
X-0012344Y-0010594D03*
X-0012781Y-0007969D03*
X-0019875Y-0019000D03*
X-0022875Y-0017531D03*
X-0022812Y-0011437D03*
X-0024062Y-0018500D03*
X-0023844Y-0003812D03*
X-0013406Y-0014625D03*
X-0002937Y-0014469D03*
X-0002844Y0001250D03*
X-0002281Y-0003000D03*
X-0005250Y-0011500D03*
X-0009250Y-0006156D03*
X-0027937Y-0013500D03*
X-0024781Y-0004031D03*
X-0009375Y-0000500D03*
X-0011625D03*
X-0030594Y-0009281D03*
X-0025312Y-0008500D03*
Y-0000906D03*
X-0015812Y-0001406D03*
X-0008937Y-0016625D03*
X-0025094Y-0013969D03*
X-0002562Y0000969D03*
X-0002687Y-0014781D03*
X-0013656Y-0014875D03*
X0005403Y-0056753D03*
X-0014437Y-0001812D03*
X-0025656D03*
X-0002281Y0000719D03*
X-0002437Y-0015031D03*
X-0013156Y-0015094D03*
X-0030594Y-0011281D03*
X-0025062Y-0010500D03*
Y-0005500D03*
X-0027906Y-0014500D03*
X-0024531Y-0003844D03*
X-0006875Y-0000812D03*
X-0011906D03*
X-0009812Y-0007406D03*
X-0004125Y-0015375D03*
X-0004094Y-0005000D03*
X-0019562Y-0019500D03*
X-0010062Y-0011094D03*
X-0022344Y-0012250D03*
X-0010969Y-0018937D03*
X-0014719Y-0013656D03*
X-0022250D03*
X-0004562Y-0013500D03*
X-0011666Y-0013531D03*
X-0004062Y-0014156D03*
X-0014719Y-0014250D03*
X-0022062Y-0011969D03*
X-0014469Y-0012156D03*
X-0019469Y-0013406D03*
X-0009437Y-0005906D03*
X-0019312Y-0020000D03*
X-0009094Y-0019341D03*
X-0015406Y-0006875D03*
X-0024344Y-0001500D03*
Y-0013969D03*
X-0008969Y-0016281D03*
X-0020094Y-0014906D03*
X-0003500Y-0016062D03*
X-0009844Y-0005406D03*
X-0018219Y-0018656D03*
X-0014250Y-0017250D03*
X-0011469Y-0007656D03*
X-0017187Y-0007500D03*
X-0024781Y-0020500D03*
X-0024094Y0001344D03*
X-0016750D03*
X0003281Y-0038937D03*
M02*
