%
T1C0.0118F200S100
X-035625Y-034562
X-035460Y-068632
X-035375Y-026812
X-035156Y-024906
X-035156Y-020812
X-035031Y-017687
X-034406Y-032000
X-034000Y-039844
X-033031Y-012719
X-032601Y-071110
X-032562Y002375
X-032085Y-041875
X-031937Y-008281
X-031937Y-006281
X-031937Y-003312
X-031937Y-002281
X-031906Y-017656
X-031906Y-012281
X-031906Y-010250
X-031437Y-049906
X-030750Y-038844
X-030750Y-025219
X-030625Y-040937
X-030594Y-011281
X-030594Y-009281
X-030531Y-014281
X-030531Y-013281
X-030500Y-015469
X-030531Y-001250
X-030531Y000719
X-030406Y-047250
X-030250Y-032406
X-029844Y-052719
X-029656Y-043281
X-029562Y-066531
X-029437Y-053469
X-029437Y-052719
X-029344Y-032812
X-029312Y-033562
X-029281Y-065562
X-029250Y-022000
X-029187Y-006594
X-029187Y-004844
X-029125Y-002500
X-029062Y-021500
X-029000Y-042437
X-028687Y-049219
X-028594Y-033562
X-028472Y-058514
X-028156Y-048219
X-027937Y-013500
X-027906Y-014500
X-027497Y-064219
X-027375Y-049375
X-027074Y-054005
X-026781Y-063250
X-026500Y-065562
X-026219Y-066531
X-025844Y-042437
X-025688Y-004812
X-025656Y-010250
X-025625Y-011750
X-025656Y-002500
X-025656Y-001812
X-025563Y-006344
X-025562Y-048094
X-025406Y-042594
X-025344Y-013687
X-025321Y-070137
X-025312Y-008500
X-025312Y-000906
X-025125Y-033312
X-025094Y-013969
X-025062Y-010500
X-025062Y-005500
X-025031Y-041594
X-024811Y-063267
X-024781Y-020500
X-024781Y-004031
X-024531Y-003844
X-024469Y-000687
X-024344Y-013969
X-024344Y-001500
X-024344Y-043062
X-024094Y001344
X-024094Y003500
X-024062Y-018500
X-023844Y-003812
X-023750Y-066727
X-023656Y-019500
X-023375Y-021000
X-023375Y-016156
X-023344Y001094
X-023125Y-016406
X-023094Y-011125
X-022906Y-049312
X-022875Y-017531
X-022812Y-011437
X-022719Y-043094
X-022687Y-007750
X-022656Y-011937
X-022625Y-023375
X-022625Y-021344
X-022531Y-017812
X-022344Y-012250
X-022312Y001687
X-022250Y-013656
X-022125Y-000500
X-022062Y-011969
X-022000Y-007500
X-021750Y-005562
X-021625Y-046406
X-021594Y-044656
X-021534Y-065966
X-021437Y-016656
X-021375Y-037312
X-021344Y-049312
X-021375Y-000500
X-021281Y-009781
X-021281Y-043094
X-021062Y-064781
X-021062Y-044312
X-021031Y-010031
X-021031Y-009031
X-020781Y-010281
X-020656Y-041219
X-020625Y-000500
X-020531Y-010562
X-020281Y-007750
X-020281Y-002812
X-020250Y-060594
X-020250Y-010812
X-020219Y-052781
X-020219Y-052312
X-020094Y-014906
X-020094Y-014406
X-020062Y-015906
X-020062Y-015406
X-020031Y-035344
X-020000Y-018094
X-019906Y-014656
X-020000Y-000687
X-019875Y-019000
X-019844Y-015656
X-019875Y-015156
X-019844Y-012250
X-019812Y-004687
X-019750Y-044406
X-019594Y-012500
X-019562Y-019500
X-019500Y-070031
X-019469Y-013406
X-019500Y-009531
X-019500Y000812
X-019312Y-020000
X-019290Y-012736
X-019281Y-047906
X-019156Y-055750
X-019125Y000812
X-019094Y-022250
X-019094Y-008719
X-019062Y-020500
X-019031Y-059937
X-019000Y-002312
X-018812Y-055750
X-018812Y-052781
X-018812Y-052281
X-018812Y-022000
X-018719Y-058500
X-018719Y-057937
X-018594Y-008250
X-018594Y-006000
X-018562Y-022500
X-018531Y-012750
X-018531Y-012219
X-018531Y-004906
X-018406Y-015094
X-018406Y-014594
X-018344Y-009531
X-018344Y-005406
X-018219Y-018656
X-018219Y-017531
X-018125Y-060594
X-018125Y-025000
X-018094Y-009281
X-018094Y-005656
X-018007Y-066197
X-018000Y-069531
X-017969Y-025500
X-017969Y-018937
X-017969Y-017312
X-017719Y-026000
X-017656Y-007500
X-017625Y000812
X-017594Y-006750
X-017569Y-018337
X-017562Y-026500
X-017531Y-058500
X-017531Y-057937
X-017375Y-005156
X-017312Y-027000
X-017250Y-001625
X-017187Y-007500
X-016937Y-008781
X-016937Y-007250
X-016750Y-007000
X-016750Y001344
X-016719Y-040187
X-016719Y-018156
X-016531Y-041187
X-016406Y-066500
X-016312Y-020500
X-016187Y-037156
X-016125Y-041781
X-016062Y-020969
X-016062Y-016375
X-016062Y-015875
X-016125Y-001781
X-015906Y-008406
X-015875Y-042062
X-015812Y-001406
X-015781Y-007219
X-015750Y001094
X-015719Y-011906
X-015687Y-022187
X-015656Y-024250
X-015562Y-046625
X-015469Y-014875
X-015469Y-011656
X-015406Y-006875
X-015375Y-020969
X-015312Y-048625
X-015312Y-040625
X-015250Y-007750
X-015219Y-014625
X-015219Y-011406
X-015062Y-000437
X-014812Y-020500
X-014719Y-014250
X-014719Y-013656
X-014625Y-007125
X-014500Y-028594
X-014500Y-017500
X-014469Y-012156
X-014437Y-001812
X-014344Y-029000
X-014250Y-017250
X-014187Y-029469
X-014094Y-030000
X-014187Y-001187
X-013906Y-053908
X-013875Y-030500
X-013875Y000844
X-013781Y-007969
X-013719Y-031000
X-013656Y-058219
X-013656Y-055281
X-013562Y-031500
X-013656Y-014875
X-013469Y-032000
X-013406Y-014625
X-013312Y-054656
X-013250Y-032500
X-013312Y-020031
X-013219Y-007969
X-013156Y-015094
X-013000Y-033000
X-012781Y-007969
X-012750Y-020031
X-012656Y-055750
X-012500Y-070156
X-012437Y-063375
X-012375Y000844
X-012344Y-010594
X-012125Y-033000
X-012062Y-051437
X-012062Y-021531
X-012031Y-010281
X-011937Y-010594
X-011906Y-000812
X-011875Y-013781
X-011794Y-066547
X-011781Y-001312
X-011752Y-069529
X-011666Y-013531
X-011656Y-010750
X-011625Y-000500
X-011551Y-047406
X-011469Y-007656
X-011406Y-013250
X-011344Y-001594
X-011209Y-015062
X-011187Y-007969
X-011156Y-019437
X-010969Y-018937
X-010937Y-038375
X-010781Y-063062
X-010719Y-019156
X-010656Y-022937
X-010625Y-034750
X-010562Y-059656
X-010625Y-007969
X-010562Y-005125
X-010531Y-044250
X-010500Y-002812
X-010531Y-001062
X-010469Y-018937
X-010437Y-057000
X-010437Y-055281
X-010312Y-010562
X-010312Y-006906
X-010187Y-019156
X-010125Y000844
X-010062Y-011094
X-010062Y-007156
X-010031Y-005156
X-010000Y-021469
X-009846Y-017497
X-009844Y-005406
X-009812Y-007406
X-009625Y-012000
X-009625Y-005656
X-009562Y-061844
X-009562Y-059281
X-009562Y-007719
X-009437Y-005906
X-009375Y-013781
X-009375Y-000500
X-009312Y-049969
X-009312Y-007969
X-009250Y-006156
X-009187Y-065406
X-009159Y-026591
X-009125Y-011625
X-009094Y-019341
X-009062Y-008219
X-009000Y-017187
X-008969Y-016281
X-008969Y-015969
X-008962Y-031567
X-008937Y-016625
X-008875Y-068281
X-008844Y-019531
X-008875Y-011344
X-008875Y-010844
X-008812Y-061875
X-008812Y-059281
X-008781Y-009656
X-008812Y-008469
X-008625Y-018031
X-008594Y-008719
X-008437Y-009000
X-008219Y-069750
X-008187Y-066406
X-008175Y-047827
X-008156Y-019156
X-008125Y-043875
X-008062Y-061875
X-008062Y-059281
X-008061Y-033807
X-008062Y-001562
X-008019Y-028892
X-007875Y000844
X-007781Y-010125
X-007687Y-064906
X-007469Y-010000
X-007406Y-021594
X-007312Y-061875
X-007312Y-059281
X-007312Y-038125
X-007312Y-018344
X-007187Y-015750
X-006937Y-064906
X-006875Y-017344
X-006875Y-000812
X-006625Y-001312
X-006594Y-018687
X-006562Y-061875
X-006562Y-059281
X-006531Y-014875
X-006562Y-012625
X-006562Y-012062
X-006531Y-010500
X-006531Y-014344
X-006500Y-010000
X-006250Y-010250
X-005844Y-036344
X-005719Y-010219
X-005625Y-000500
X-005437Y-012219
X-005437Y-010531
X-005406Y-005969
X-005250Y-011500
X-005125Y-012000
X-005094Y-046125
X-005094Y-033312
X-005000Y-013000
X-004937Y-020594
X-004890Y-046937
X-004875Y-000531
X-004750Y-013250
X-004689Y-065847
X-004656Y-021750
X-004562Y-013500
X-004522Y-043817
X-004406Y-021312
X-004125Y-015375
X-004122Y-069986
X-004094Y-005000
X-004062Y-014156
X-004057Y-032201
X-004031Y-049625
X-004000Y-039375
X-003969Y-004000
X-003781Y001531
X-003719Y-015750
X-003614Y-016500
X-003594Y-015125
X-003514Y-036397
X-003500Y-016062
X-003469Y-009750
X-003469Y-003500
X-003094Y-012000
X-002937Y-014469
X-002875Y-056437
X-002852Y-061457
X-002844Y001250
X-002719Y-024719
X-002719Y-015750
X-002687Y-014781
X-002594Y-045625
X-002562Y000969
X-002437Y-015031
X-002375Y-024500
X-002281Y-009344
X-002281Y-003000
X-002281Y000719
X-002123Y-065065
X-001851Y-033489
X-001719Y-047000
X-001500Y002156
X-001469Y-037219
X-001430Y-032730
X-001219Y002375
X-000721Y-049387
X-000656Y-042937
X-000532Y-056445
X-000437Y-043875
X-000332Y-059995
X000859Y-036167
X000937Y-039656
X001000Y-047625
X001125Y002000
X001156Y004219
X001312Y-069437
X001647Y-059779
X001844Y-034750
X001989Y-066554
X002131Y-062635
X003125Y-001844
X003136Y-068940
X003281Y-038937
X003750Y-005250
X003969Y-006656
X004187Y-000156
X004312Y-022125
X004406Y003125
X004612Y-063080
X004781Y-013250
X004969Y-046687
X004971Y-047685
X004969Y-045656
X004969Y-044688
X004969Y-043687
X004971Y-042654
X004969Y-041687
X004969Y-039781
X004969Y-038656
X004980Y-055755
X005094Y-009844
X005189Y-060659
X005224Y-063818
X005344Y-034312
X005403Y-056753
X005406Y-007500
X005687Y-069426
X005750Y-017687
X006062Y-002187
X006187Y-009719
X006469Y-018531
X006625Y-012781
X006844Y-040697
X007420Y-062206
X007625Y-057250
X007656Y-057750
X007781Y-014406
X008094Y-004562
X008399Y-059555
X008625Y-024375
X009219Y001687
X009342Y-043155
X009362Y-041937
T4C0.0394F200S100
X-035062Y-042312
X-035062Y-041312
X-035062Y-040312
X-034906Y-015281
X-034906Y-014281
X-034906Y-013281
X-034906Y-012281
X-034906Y-011281
X-034906Y-010281
X-034906Y-009281
X-034906Y-008281
X-034906Y-007281
X-034906Y-006281
X-034906Y-005281
X-034906Y-004281
X-034906Y-003281
X-034906Y-002281
X-034906Y-001281
X-034906Y-000281
X-034906Y000719
X-033906Y-015281
X-033906Y-014281
X-033906Y-013281
X-033906Y-012281
X-033906Y-011281
X-033906Y-010281
X-033906Y-009281
X-033906Y-008281
X-033906Y-007281
X-033906Y-006281
X-033906Y-005281
X-033906Y-004281
X-033906Y-003281
X-033906Y-002281
X-033906Y-001281
X-033906Y-000281
X-033906Y000719
X-032942Y-026476
X-032942Y-025386
X-032942Y-024296
X-032942Y-023206
X-032198Y-047555
X-032198Y-046571
X-031822Y-027021
X-031822Y-025931
X-031822Y-024841
X-031822Y-023751
X-031822Y-022661
X-031416Y-047553
X-031411Y-046572
X-031281Y-016500
X-030281Y-016500
X-027937Y003812
X-027422Y-034000
X-027422Y-033000
X-027422Y-032000
X-027422Y-031000
X-027422Y-030000
X-027422Y-029000
X-027422Y-028000
X-027422Y-027000
X-027422Y-026000
X-027422Y-025000
X-027422Y-024000
X-027422Y-023000
X-027422Y-022000
X-027422Y-021000
X-027422Y-020000
X-027422Y-019000
X-027422Y-018000
X-027422Y-017000
X-027422Y-016000
X-027422Y-015000
X-027422Y-014000
X-027422Y-013000
X-027422Y-012000
X-027422Y-011000
X-027422Y-010000
X-027422Y-009000
X-027422Y-008000
X-027422Y-007000
X-027422Y-006000
X-027422Y-005000
X-027422Y-004000
X-027422Y-003000
X-027422Y-002000
X-027422Y-001000
X-027422Y000000
X-026961Y002868
X-026937Y003812
X-026422Y-034000
X-026422Y-033000
X-026422Y-032000
X-026422Y-031000
X-026422Y-030000
X-026422Y-029000
X-026422Y-028000
X-026422Y-027000
X-026422Y-026000
X-026422Y-025000
X-026422Y-024000
X-026422Y-023000
X-026422Y-022000
X-026422Y-021000
X-026422Y-020000
X-026422Y-019000
X-026422Y-018000
X-026422Y-017000
X-026422Y-016000
X-026422Y-015000
X-026422Y-014000
X-026422Y-013000
X-026422Y-012000
X-026422Y-011000
X-026422Y-010000
X-026422Y-009000
X-026422Y-008000
X-026422Y-007000
X-026422Y-006000
X-026422Y-005000
X-026422Y-004000
X-026422Y-003000
X-026422Y-002000
X-026422Y-001000
X-026422Y000000
X-025937Y003812
X-025409Y-050908
X-021750Y-003312
X-021750Y-002312
X-021250Y002937
X-021250Y003937
X-020250Y002937
X-020250Y003937
X-019250Y002937
X-019250Y003937
X-018250Y002937
X-018250Y003937
X-017937Y-004312
X-017937Y-003312
X-017937Y-002312
X-017250Y002937
X-017250Y003937
X-016687Y-004312
X-016687Y-003312
X-016687Y-002312
X-016375Y-027844
X-016375Y-026844
X-016250Y002937
X-016250Y003937
X-015437Y-004312
X-015437Y-003312
X-015437Y-002312
X-015250Y-037562
X-015250Y-036562
X-015250Y-027844
X-015250Y-026844
X-015250Y002937
X-015250Y003937
X-014250Y002937
X-014250Y003937
X-013687Y-004312
X-013687Y-003312
X-013687Y-002312
X-013375Y-037562
X-013375Y-036562
X-013250Y002937
X-013250Y003937
X-012437Y-004312
X-012437Y-003312
X-012437Y-002312
X-012250Y002937
X-012250Y003937
X-011437Y-037562
X-011437Y-036562
X-011250Y002937
X-011250Y003937
X-011187Y-004312
X-011187Y-003312
X-011187Y-002312
X-010250Y002937
X-010250Y003937
X-009937Y-004312
X-009937Y-003312
X-009937Y-002312
X-009625Y-037562
X-009625Y-036562
X-009250Y002937
X-009250Y003937
X-008687Y-004312
X-008687Y-003312
X-008687Y-002312
X-008250Y002937
X-008250Y003937
X-007437Y-003312
X-007437Y-002312
X-007250Y002937
X-007250Y003937
X-006469Y-019812
X-006250Y002937
X-006250Y003937
X-005469Y-019812
X-005250Y002937
X-005250Y003937
X-000687Y-038156
X-000437Y-034000
X-000437Y-033000
X-000437Y-032000
X-000437Y-031000
X-000437Y-030000
X-000437Y-029000
X-000437Y-028000
X-000437Y-027000
X-000437Y-026000
X-000437Y-025000
X-000437Y-024000
X-000437Y-023000
X-000437Y-022000
X-000437Y-021000
X-000437Y-020000
X-000437Y-019000
X-000437Y-018000
X-000437Y-017000
X-000437Y-016000
X-000437Y-015000
X-000437Y-014000
X-000437Y-013000
X-000437Y-012000
X-000437Y-011000
X-000437Y-010000
X-000437Y-009000
X-000437Y-008000
X-000437Y-007000
X-000437Y-006000
X-000437Y-005000
X-000437Y-004000
X-000437Y-003000
X-000437Y-002000
X-000437Y-001000
X-000437Y000000
X000312Y-038156
X000562Y-034000
X000562Y-033000
X000562Y-032000
X000562Y-031000
X000562Y-030000
X000562Y-029000
X000562Y-028000
X000562Y-027000
X000562Y-026000
X000562Y-025000
X000562Y-024000
X000562Y-023000
X000562Y-022000
X000562Y-021000
X000562Y-020000
X000562Y-019000
X000562Y-018000
X000562Y-017000
X000562Y-016000
X000562Y-015000
X000562Y-014000
X000562Y-013000
X000562Y-012000
X000562Y-011000
X000562Y-010000
X000562Y-009000
X000562Y-008000
X000562Y-007000
X000562Y-006000
X000562Y-005000
X000562Y-004000
X000562Y-003000
X000562Y-002000
X000562Y-001000
X000562Y000000
X002656Y-058625
X002656Y-057625
X002656Y-056625
X002656Y-055625
X003656Y-058625
X003656Y-057625
X003656Y-056625
X003656Y-055625
X003656Y-048625
X002656Y-048625
X002656Y-047625
X002656Y-046625
X002656Y-045625
X003656Y-047625
X003656Y-046625
X003656Y-045625
X005224Y-066563
X005224Y-065563
X005224Y-064563
X005375Y-027000
X005375Y-025910
X005375Y-024820
X005375Y-023730
X005375Y-022640
X006495Y-026455
X006495Y-025365
X006495Y-024275
X006495Y-023185
X007594Y-047187
X007594Y-046187
X007594Y-045187
X007594Y-044187
X007594Y-043187
X007594Y-042187
X007594Y-041187
X007594Y-040187
X007594Y-039187
X007594Y-038187
X008594Y-047187
X008594Y-046187
X008594Y-045187
X008594Y-044187
X008594Y-043187
X008594Y-042187
X008594Y-041187
X008594Y-040187
X008594Y-039187
X008594Y-038187
X009000Y-002187
X009000Y-001187
X009000Y-000187
X009000Y000812
X009031Y-017344
X009031Y-016344
X009031Y-014906
X009031Y-013906
X009031Y-012906
T9C0.1181F200S100
X-034562Y-069937
X-033686Y-058469
X-032436Y-060468
X-032382Y-029761
X-032382Y-019921
X-031187Y-058469
X-030937Y003687
X-027625Y-060312
X-027625Y-046125
X005935Y-029740
X005935Y-019900
X007187Y003625
X008250Y-070000
T2C0.0315F200S100
X-027219Y-041069
X-027219Y-040269
X-027219Y-039469
X-025409Y-053908
X-025409Y-052908
X-025409Y-051908
X-018344Y-046812
X-018344Y-044812
X-011562Y-024375
X-009562Y-024375
X-008574Y-067717
X-005497Y-022847
X-005497Y-022047
X-005497Y-021247
X-003406Y-022844
X-003406Y-022044
X-003406Y-021244
T3C0.0354F200S100
X-007516Y-068775
T7C0.0787F200S100
X007548Y-067945
X007548Y-063147
T5C0.0472F200S100
X-034288Y-055319
X-033288Y-054319
X-034288Y-053319
X-033288Y-052314
X-032288Y-055319
X-032288Y-053319
T6C0.0590F200S100
X-033062Y-066000
X-033062Y-064000
T8C0.0905F200S100
X-033266Y-049433
X-033265Y-044693
M30
