G04 ================== begin FILE IDENTIFICATION RECORD ==================*
G04 Layout Name:  STEVAL-IPM05F.brd*
G04 Film Name:    STEVAL-IPM05F -TOP*
G04 File Format:  Gerber RS274X*
G04 File Origin:  Cadence Allegro 16.6-S018*
G04 Origin Date:  Wed Sep 07 16:08:04 2016*
G04 *
G04 Layer:  ETCH/TOP*
G04 Layer:  PIN/TOP*
G04 Layer:  VIA CLASS/TOP*
G04 *
G04 Offset:    (0.0000 0.0000)*
G04 Mirror:    No*
G04 Mode:      Positive*
G04 Rotation:  0*
G04 FullContactRelief:  No*
G04 UndefLineWidth:     0.0000*
G04 ================== end FILE IDENTIFICATION RECORD ====================*
%FSLAX35Y35*MOMM*%
%IR0*IPPOS*OFA0.00000B0.00000*MIA0B0*SFA1.00000B1.00000*%
%ADD17O,.635X1.7018*%
%ADD19R,.635X1.7018*%
%ADD18R,.6096X1.0668*%
%ADD27R,1.0668X.6096*%
%ADD26O,1.4224X2.032*%
%ADD25C,3.*%
%ADD12C,2.032*%
%ADD33R,2.032X3.048*%
%ADD16C,1.524*%
%ADD30C,1.651*%
%ADD10C,3.0226*%
%ADD31C,2.921*%
%ADD20R,5.08X3.5052*%
%ADD15C,1.1176*%
%ADD13R,1.524X1.524*%
%ADD29R,1.651X1.651*%
%ADD11C,1.397*%
%ADD32R,2.921X2.921*%
%ADD28C,2.794*%
%ADD22C,1.778*%
%ADD34R,2.794X2.794*%
%ADD14R,1.1938X1.1938*%
%ADD21R,1.778X1.778*%
%ADD24R,.7874X.9144*%
%ADD23R,.9144X.7874*%
%ADD35C,.3*%
%ADD36C,.4*%
%ADD37C,.5*%
%ADD38C,.6*%
%ADD39C,.7*%
%ADD40C,.8*%
%ADD41C,.254*%
%ADD42C,.3048*%
%ADD43C,1.*%
%ADD44C,1.2*%
%ADD45C,1.4*%
%ADD46C,1.5*%
G75*
%LPD*%
G75*
G36*
G01X-1640000Y-5930000D02*
X-3900000D01*
X-4070000Y-5760000D01*
Y-4615000D01*
X-3225000Y-3770000D01*
Y-1710000D01*
X-3040000Y-1525000D01*
Y-855000D01*
X-3110000Y-785000D01*
X-3290000D01*
X-3350000Y-845000D01*
Y-1465000D01*
X-3860000Y-1975000D01*
X-5885000D01*
X-6085000Y-2175000D01*
Y-6210000D01*
Y-6700000D01*
X-5835000Y-6950000D01*
X-5510000D01*
X-5130000Y-7330000D01*
X-4955000D01*
X-1825000D01*
X-1625000Y-7130000D01*
Y-6925000D01*
X-1505000Y-6805000D01*
X2440000D01*
X2515000Y-6880000D01*
Y-7540000D01*
X2580000Y-7605000D01*
X3050000D01*
X3120000Y-7535000D01*
Y-7110000D01*
X3230000Y-7000000D01*
X3580000D01*
X3730000Y-6850000D01*
Y-2365000D01*
X3560000Y-2195000D01*
X2955000D01*
X2770000Y-2380000D01*
X2570000D01*
X2510000Y-2440000D01*
Y-2765000D01*
X2725000D01*
X2885000Y-2925000D01*
Y-4475000D01*
X2455000Y-4905000D01*
X1970000D01*
X1875000Y-5000000D01*
Y-5500000D01*
X1340000Y-6035000D01*
X-1535000D01*
X-1640000Y-5930000D01*
G37*
G36*
G01X-3635000Y-5140000D02*
Y-5710000D01*
X-3105000D01*
Y-5035000D01*
X-2820000Y-4750000D01*
Y-4485000D01*
X-3110000D01*
Y-4615000D01*
X-3635000Y-5140000D01*
G37*
G36*
G01X-2710000Y-3460000D02*
X-2770000Y-3520000D01*
Y-4780000D01*
X-2905000Y-4915000D01*
Y-5710000D01*
X-2380000D01*
Y-4910000D01*
X-2490000Y-4800000D01*
Y-3205000D01*
X-2510000Y-3185000D01*
X-2685000D01*
X-2710000Y-3210000D01*
Y-3460000D01*
G37*
G36*
G01X-3110000Y-3500000D02*
Y-4435000D01*
X-2820000D01*
Y-3500000D01*
X-2750000Y-3430000D01*
Y-3210000D01*
X-2770000Y-3190000D01*
X-2950000D01*
X-2970000Y-3210000D01*
Y-3360000D01*
X-3110000Y-3500000D01*
G37*
G36*
G01X-2175000Y-4485000D02*
Y-4610000D01*
X-1650000Y-5135000D01*
Y-5710000D01*
X-2180000D01*
Y-5025000D01*
X-2445000Y-4760000D01*
Y-4485000D01*
X-2175000D01*
G37*
G36*
G01X-2170000Y-3420000D02*
Y-4435000D01*
X-2440000D01*
Y-3210000D01*
X-2420000Y-3190000D01*
X-2260000D01*
X-2240000Y-3210000D01*
Y-3280000D01*
Y-3350000D01*
X-2170000Y-3420000D01*
G37*
G36*
G01X-670000Y-5710000D02*
Y-5110000D01*
X-1660000Y-4120000D01*
Y-3450000D01*
X-1730000Y-3380000D01*
Y-3240000D01*
X-1790000Y-3180000D01*
X-1880000D01*
X-1950000Y-3250000D01*
Y-4300000D01*
X-1340000Y-4910000D01*
Y-5725000D01*
X-1290000Y-5775000D01*
X-735000D01*
X-670000Y-5710000D01*
G37*
G36*
G01X-1440000Y-3220000D02*
Y-3380000D01*
X-1460000Y-3400000D01*
Y-4020000D01*
X-370000Y-5110000D01*
Y-5700000D01*
X-280000Y-5790000D01*
X225000D01*
X300000Y-5715000D01*
Y-5290000D01*
X-1170000Y-3820000D01*
Y-3420000D01*
X-1210000Y-3380000D01*
Y-3230000D01*
X-1250000Y-3190000D01*
X-1410000D01*
X-1440000Y-3220000D01*
G37*
G36*
G01X600000Y-5290000D02*
Y-5670000D01*
X675000Y-5745000D01*
X1210000D01*
X1290000Y-5665000D01*
Y-5220000D01*
X460000Y-4390000D01*
X170000D01*
X-680000Y-3540000D01*
Y-3420000D01*
X-720000Y-3380000D01*
Y-3210000D01*
X-740000Y-3190000D01*
X-900000D01*
X-920000Y-3210000D01*
Y-3390000D01*
X-960000Y-3430000D01*
Y-3730000D01*
X600000Y-5290000D01*
G37*
G36*
G01X2215000Y-4365000D02*
X2265000Y-4315000D01*
Y-2160000D01*
X2015000D01*
X1395000Y-2780000D01*
Y-3380000D01*
X1090000Y-3685000D01*
Y-4240000D01*
X1215000Y-4365000D01*
X2215000D01*
G37*
G36*
G01X-2663100Y-3296700D02*
Y-3796700D01*
X-2543100D01*
Y-3296700D01*
X-2663100D01*
G37*
G54D10*
X-5775000Y-7430000D03*
X-5715000Y3910000D03*
X3520000Y-7425000D03*
X3500000Y3955000D03*
G54D11*
X-5910000Y-6288000D03*
Y-5410000D03*
X-5925000Y-5065000D03*
Y-4760000D03*
Y-4462000D03*
X-5656000Y-6542000D03*
Y-6034000D03*
X-5650000Y-5225000D03*
X-5625000Y-4900000D03*
X-5575000Y-4483000D03*
X-5403000Y-6700000D03*
X-5402000Y-6288000D03*
X-5422000Y-5755000D03*
X-5530000Y-5483000D03*
X-5390000Y-5080000D03*
X-5115000Y-7083000D03*
Y-6575000D03*
X-5105000Y-6035000D03*
X-5196000Y-5504000D03*
X-5236000Y-4497000D03*
X-4840000Y-6858000D03*
Y-6350000D03*
X-5026000Y-5737000D03*
X-4982000Y-5330000D03*
X-4895000Y-4700000D03*
X-4595000Y-7153000D03*
Y-6645000D03*
X-4597000Y-6035000D03*
X-4700000Y-5735000D03*
X-4772000Y-5483000D03*
X-4792000Y-4443000D03*
X-4415000Y-6868000D03*
X-4530000Y-6365000D03*
X-4430000Y-5735000D03*
X-4161000Y-7122000D03*
Y-6614000D03*
X-4250000Y-6365000D03*
X-4280000Y-5965000D03*
X-3907000Y-6868000D03*
X-3987000Y-6360000D03*
X-4000000Y-6050000D03*
X-3653000Y-7122000D03*
Y-6614000D03*
X-3730000Y-6365000D03*
X-3770000Y-6060000D03*
X-3399000Y-6868000D03*
X-3145000Y-7122000D03*
X-3150000Y-6605000D03*
X-3185000Y-6375000D03*
X-2891000Y-6868000D03*
X-2955000Y-6370000D03*
X-3010000Y-6045000D03*
X-2960000Y-3490000D03*
X-2637000Y-7122000D03*
Y-6614000D03*
X-2615000Y-3515000D03*
X-2383000Y-6868000D03*
X-2479000Y-6375000D03*
X-2129000Y-7122000D03*
Y-6614000D03*
X-2221000Y-6380000D03*
X-2275000Y-6045000D03*
X-2310000Y-3510000D03*
X-1875000Y-6868000D03*
X-1830000Y-3830000D03*
Y-3570000D03*
X-1730000Y-6375000D03*
X-1640000Y-4370000D03*
X-1470000Y-4540000D03*
X-1190000Y-5490000D03*
Y-5080000D03*
X-1090000Y-4920000D03*
X-1290000Y-4720000D03*
X-1330000Y-3830000D03*
Y-3570000D03*
X-1000000Y-5680000D03*
X-1020000Y-5295000D03*
X-830000Y-5500000D03*
X-820000Y-5100000D03*
X-610000Y-4640000D03*
X-810000Y-4440000D03*
X-670000Y-3800000D03*
X-830000Y-3580000D03*
X-420000Y-4830000D03*
X-220000Y-5500000D03*
X-230000Y-5030000D03*
X-30000Y-5690000D03*
X140000Y-5510000D03*
X-35000Y-5305000D03*
X100000Y-4580000D03*
X-80000Y-4400000D03*
X290000Y-4770000D03*
X480000Y-4970000D03*
X640000Y-4780000D03*
X450000Y-4580000D03*
X750000Y-5460000D03*
X820000Y-4980000D03*
X940000Y-5650000D03*
X1110000Y-5470000D03*
X910000Y-5265000D03*
G54D20*
X-3367200Y-5945760D03*
Y-5534240D03*
X-2642400Y-5945760D03*
Y-5534240D03*
X-1914000Y-5945760D03*
Y-5534240D03*
G54D21*
X-3063100Y3493000D03*
X-2047100Y3747000D03*
X-991100Y2690000D03*
X-777100Y3747000D03*
X-501100Y2690000D03*
X-11100D03*
X478900D03*
X492900Y3747000D03*
X3050000Y-755000D03*
X3475000D03*
X3570000Y1593000D03*
G54D30*
X1280000Y2507000D03*
G54D12*
X-5860000Y-5810000D03*
X-5095000Y-5070000D03*
X-4830000Y295000D03*
X-4200000Y250000D03*
X-3396100Y420000D03*
X-2963900Y-3720000D03*
X-2854600Y-3293500D03*
X-2945000Y640000D03*
X-2628900Y-4685000D03*
X-2600600Y-3743500D03*
Y-3293500D03*
X-2680000Y155000D03*
X-2310000Y-3815000D03*
X-2346600Y-3293500D03*
X-2320000Y330000D03*
X-2525000Y720000D03*
X-2143400Y610000D03*
X-1791100Y-4200000D03*
X-1838600Y-3293500D03*
X-1970000Y330000D03*
X-1610000D03*
X-1787800Y730000D03*
X-1330600Y-3293500D03*
X-1080000Y330000D03*
X-1026100Y-4200000D03*
X-822600Y-3293500D03*
X-870000Y730000D03*
X-720000Y330000D03*
X-314600Y-3293500D03*
X-320000Y430000D03*
X-266100Y-4200000D03*
X-10000Y130000D03*
X350000Y430000D03*
X447400Y-3293500D03*
X701400D03*
X1105000Y1610000D03*
G54D40*
G01X-5350100Y2755000D02*
Y2495000D01*
G01X-4140100Y1765000D02*
Y1640100D01*
X-4100000Y1600000D01*
X-3865000D01*
X-3809900Y1544900D01*
Y1430000D01*
G01X-3465000Y-1385000D02*
X-3704300D01*
X-3705800Y-1383500D01*
G01X-2110000Y-669900D02*
X-2209900Y-570000D01*
X-2275000D01*
X-2321200Y-523800D01*
Y-373500D01*
G01X-1432200D02*
X-1428520Y-369820D01*
Y493520D01*
X-1485100Y550100D01*
Y610000D01*
G01X-1447000Y1020000D02*
X-1428530Y1001530D01*
Y806470D01*
X-1485100Y749900D01*
Y610000D01*
G01X-1447000Y1020000D02*
Y1293000D01*
X-1300000Y1440000D01*
G01X-1254400Y-373500D02*
X-1260000Y-367900D01*
Y504900D01*
X-1154900Y610000D01*
G01D02*
Y819900D01*
X-1193000Y858000D01*
Y1020000D01*
G01X1365000Y-1219580D02*
Y-2185000D01*
X985000Y-2565000D01*
Y-2865000D01*
X701400Y-3148600D01*
Y-3293500D01*
G01X1849900Y-1335000D02*
X1595100D01*
X1595000Y-1335100D01*
G01Y-1004900D02*
X1770000D01*
X1849900Y-1084800D01*
Y-1085000D01*
G01X1705000Y1710000D02*
Y-230000D01*
X2370000Y-895000D01*
Y-1225000D01*
X2605100Y-1460100D01*
X2770000D01*
G01X1849900Y-1585000D02*
Y-1335000D01*
G01X2180100Y-1585000D02*
Y-1919800D01*
X2180000Y-1919900D01*
G01X2180200Y-1584900D02*
X2180100Y-1585000D01*
G01Y-1085000D02*
Y-1335000D01*
G01X2104900Y310100D02*
Y60100D01*
G01X2435100Y-189900D02*
X2679700D01*
X2679900Y-190100D01*
G01X2435100Y60100D02*
Y-189900D01*
G01X2436000Y574900D02*
Y311000D01*
X2435100Y310100D01*
G01X2435300Y845000D02*
X2679900D01*
G01X2435100Y1090000D02*
Y845200D01*
X2435300Y845000D01*
G01X2435100Y1335000D02*
Y1599100D01*
X2441000Y1605000D01*
G01X2435300Y1869900D02*
X2679700D01*
X2679900Y1870100D01*
G01X2435100Y2119900D02*
Y1870100D01*
X2435300Y1869900D01*
G01X2435100Y2369900D02*
Y2639200D01*
X2436000Y2640100D01*
G01X2770000Y-1460100D02*
X2814900D01*
X3012000Y-1263000D01*
X3050000D01*
G01X2770000Y-890100D02*
Y-1129900D01*
G01Y-559900D02*
X2824900D01*
X3020000Y-755000D01*
X3050000D01*
G01X2716000Y79900D02*
X2679900Y43800D01*
Y-190100D01*
G01X2716000Y1115000D02*
X2679900Y1078900D01*
Y845000D01*
G01Y1870100D02*
Y2099000D01*
X2716000Y2135100D01*
G01X2690000Y2640100D02*
X2716000Y2614100D01*
Y2135100D01*
G01X3050000Y-1263000D02*
X3475000D01*
G01X3050000Y-755000D02*
X3475000D01*
G01X3010100Y-190100D02*
Y39800D01*
X2970000Y79900D01*
G01Y1115000D02*
X3010100Y1074900D01*
Y845000D01*
G01Y1870100D02*
Y2095000D01*
X2970000Y2135100D01*
G01X3745100Y285000D02*
Y-879900D01*
X3616000Y-1009000D01*
X3475000D01*
G01X3414900Y285000D02*
Y419900D01*
X3570000Y575000D01*
Y577000D01*
G01X3745100Y285000D02*
X3785000Y324900D01*
Y735000D01*
X3689000Y831000D01*
X3570000D01*
G54D22*
X-3063100Y3747000D03*
X-2809100Y3493000D03*
Y3747000D03*
X-2555100Y3493000D03*
Y3747000D03*
X-2301100Y3493000D03*
Y3747000D03*
X-2047100Y3493000D03*
X-1793100D03*
Y3747000D03*
X-1539100Y3493000D03*
Y3747000D03*
X-1285100Y3493000D03*
Y3747000D03*
X-991100Y2182000D03*
Y2436000D03*
X-1031100Y3493000D03*
Y3747000D03*
X-777100Y3493000D03*
X-501100Y2182000D03*
Y2436000D03*
X-523100Y3493000D03*
Y3747000D03*
X-269100Y3493000D03*
Y3747000D03*
X-11100Y2182000D03*
Y2436000D03*
X-15100Y3493000D03*
Y3747000D03*
X238900Y3493000D03*
Y3747000D03*
X478900Y2182000D03*
Y2436000D03*
X492900Y3493000D03*
X746900D03*
Y3747000D03*
X1000900Y3493000D03*
Y3747000D03*
X2436000Y574900D03*
X2441000Y1605000D03*
X2436000Y2640100D03*
X2716000Y79900D03*
X2690000Y574900D03*
X2716000Y1115000D03*
X2695000Y1605000D03*
X2716000Y2135100D03*
X2690000Y2640100D03*
X3050000Y-1263000D03*
Y-1009000D03*
X2970000Y79900D03*
Y1115000D03*
Y2135100D03*
X3475000Y-1263000D03*
Y-1009000D03*
X3570000Y577000D03*
Y831000D03*
Y1085000D03*
Y1339000D03*
G54D13*
X-5735100Y650000D03*
Y900000D03*
Y1150000D03*
X-5745100Y1405000D03*
X-5290000Y-295100D03*
Y35100D03*
X-5404900Y650000D03*
Y900000D03*
Y1150000D03*
X-5414900Y1405000D03*
X-5350100Y1725000D03*
Y1980000D03*
Y2235000D03*
Y2495000D03*
Y2755000D03*
X-5160100Y650000D03*
X-4796100Y-1816800D03*
X-4935100Y-1178500D03*
X-4841100Y-873900D03*
Y-543700D03*
X-5035000Y-295100D03*
Y35100D03*
X-4829900Y650000D03*
X-5019900Y1725000D03*
Y1980000D03*
Y2235000D03*
Y2495000D03*
Y2755000D03*
X-4721200Y-1433500D03*
X-4604900Y-1178500D03*
X-4604000Y-48800D03*
X-4391000Y-1433500D03*
X-4366000Y-1128500D03*
X-4530000Y3224900D03*
Y3555100D03*
X-4086100Y-1816800D03*
X-4273800Y-48800D03*
X-4140100Y1430000D03*
Y1765000D03*
X-4141200Y2021200D03*
Y2281200D03*
X-4143800Y2540000D03*
X-4285000Y3224900D03*
Y3555100D03*
X-4036000Y-1383500D03*
X-4035800Y-1128500D03*
X-4032000Y-48800D03*
X-3809900Y1430000D03*
Y1765000D03*
X-3811000Y2021200D03*
Y2281200D03*
X-3813600Y2540000D03*
X-4040000Y3224900D03*
Y3555100D03*
X-3705800Y-1383500D03*
X-3571100Y-863900D03*
Y-533700D03*
X-3701800Y-48800D03*
X-3795000Y3224900D03*
Y3555100D03*
X-3396100Y-275200D03*
Y55000D03*
X-3171100Y-613000D03*
X-3161100Y-275200D03*
Y55000D03*
X-3215100Y1030000D03*
X-3215000Y1279900D03*
Y1610100D03*
X-2884900Y1030000D03*
X-2885000Y1279900D03*
Y1610100D03*
X-2806200Y-1227400D03*
X-2695100Y-955000D03*
X-2696400Y-710000D03*
X-2640100Y1030000D03*
X-2640000Y1279900D03*
Y1610100D03*
X-2476000Y-1227400D03*
X-2364900Y-955000D03*
X-2366200Y-710000D03*
X-2110000Y-1000100D03*
Y-669900D03*
X-2065100Y1030000D03*
X-2309900D03*
X-2065000Y1279900D03*
X-2310000D03*
X-2065000Y1610100D03*
X-2310000D03*
X-1865000Y-1001200D03*
Y-671000D03*
X-1734900Y1030000D03*
X-1735000Y1279900D03*
Y1610100D03*
X-1485100Y610000D03*
X-1154900D03*
X-1193000Y1020000D03*
X-905100Y1030000D03*
X-905000Y1279900D03*
Y1610100D03*
X-665000Y1279900D03*
Y1610100D03*
X-365400Y-1155100D03*
Y-824900D03*
X-330100Y1030000D03*
X-574900D03*
X-330000Y1279900D03*
Y1610100D03*
X-9800Y-1155100D03*
Y-824900D03*
X100Y1030000D03*
X0Y1279900D03*
Y1610100D03*
X345800Y-1155100D03*
Y-824900D03*
X249900Y1030000D03*
X250000Y1279900D03*
Y1610100D03*
X447400Y-2875100D03*
Y-2544900D03*
X580100Y1030000D03*
X580000Y1279900D03*
Y1610100D03*
X835000Y1279900D03*
Y1610100D03*
X1595000Y-1335100D03*
Y-1004900D03*
X1849900Y-1585000D03*
Y-1335000D03*
Y-1085000D03*
X1720000Y2109900D03*
Y2440100D03*
X2104900Y-189900D03*
Y60100D03*
Y310100D03*
X2105100Y845000D03*
X2104900Y1090000D03*
Y1335000D03*
X2105100Y1869900D03*
X2104900Y2119900D03*
Y2369900D03*
X2180000Y-2250100D03*
Y-1919900D03*
X2180100Y-1585000D03*
Y-1335000D03*
Y-1085000D03*
X2435100Y-189900D03*
Y60100D03*
Y310100D03*
X2435300Y845000D03*
X2435100Y1090000D03*
Y1335000D03*
X2435300Y1869900D03*
X2435100Y2119900D03*
Y2369900D03*
X2770000Y-1460100D03*
Y-1129900D03*
Y-890100D03*
Y-559900D03*
X2679900Y-190100D03*
Y845000D03*
Y1870100D03*
X3010100Y-190100D03*
Y845000D03*
Y1870100D03*
X3414900Y285000D03*
X3745100D03*
G54D31*
X2070000Y-5175000D03*
G54D41*
G01X-1410000Y3335000D02*
Y3590000D01*
G54D23*
X-2960000Y-4545000D03*
Y-4385000D03*
X-2300000Y-4545000D03*
Y-4385000D03*
G54D14*
X-5525310Y-4080000D03*
X-5314690D03*
X-5525310Y-3510000D03*
X-5314690D03*
X-5525310Y-2960000D03*
X-5314690D03*
X-4980310Y-4080000D03*
Y-3510000D03*
Y-2960000D03*
X-4769690Y-4080000D03*
Y-3510000D03*
Y-2960000D03*
X-4435310Y-3510000D03*
Y-2960000D03*
X-4224690Y-3510000D03*
Y-2960000D03*
X-3890310Y-3510000D03*
Y-2960000D03*
X-3679690Y-3510000D03*
Y-2960000D03*
G54D32*
X2070000Y-4175000D03*
G54D42*
G01X1450000Y2990000D02*
Y3365000D01*
X1068000Y3747000D01*
X1000900D01*
G54D24*
X-2865000Y-4385000D03*
X-2705000D03*
X-2555000D03*
X-2395000D03*
G54D15*
X-5540000Y1980000D03*
Y2235000D03*
X-5545000Y2495000D03*
X-5290000Y-490000D03*
X-5155000Y365000D03*
X-5220000Y900000D03*
Y1150000D03*
X-4935100Y-1385100D03*
X-4829900Y1269900D03*
X-5050000Y1280000D03*
X-5019900Y2935000D03*
X-4335000Y2021200D03*
Y2281200D03*
X-3945000Y750000D03*
X-3720000Y-5825000D03*
X-3725000Y-5665000D03*
X-3780000Y-4570000D03*
X-3465000Y-1385000D03*
X-3285000Y2270000D03*
X-3170000Y2415000D03*
X-3090000Y2580000D03*
Y2812500D03*
X-3220000Y2925000D03*
X-3147500Y3137500D03*
X-2990000Y-5835000D03*
X-2985000Y-5665000D03*
X-2990000Y-5305000D03*
X-2965000Y2690000D03*
X-2705000Y3060000D03*
X-2345100Y-2464900D03*
X-2260000Y-5830000D03*
Y-5650000D03*
Y-5495000D03*
X-2135000Y1800000D03*
X-2305000Y2025000D03*
X-1865000Y-1190000D03*
X-1890000Y1775000D03*
X-1755000Y1920000D03*
X-1540000Y2150000D03*
X-1110000Y1610100D03*
X655000Y-2544900D03*
X1000000Y3140000D03*
X1145000Y2000000D03*
X1450000Y2990000D03*
X1705000Y1710000D03*
X2102500Y-392500D03*
X2104900Y500000D03*
Y1520000D03*
X1925000Y2369900D03*
X2180000Y-905000D03*
X2530000Y-370000D03*
G54D33*
X2156700Y-2600000D03*
X2613900D03*
G54D43*
G01X-5404900Y650000D02*
X-5160100D01*
G01X-5545000Y2495000D02*
X-5350100D01*
G01X-4140100Y1765000D02*
X-4315000D01*
X-4495000Y1945000D01*
Y2675000D01*
X-4900000Y3080000D01*
X-5190000D01*
X-5350100Y2919900D01*
Y2755000D01*
G01X-5155000Y365000D02*
X-5065000Y455000D01*
X-4955000D01*
X-4829900Y580100D01*
Y650000D01*
G01X-5050000Y1280000D02*
Y830000D01*
X-5160100Y719900D01*
Y650000D01*
G01X-5019900Y2755000D02*
X-4955000D01*
X-4645000Y2445000D01*
Y1875000D01*
X-4200000Y1430000D01*
X-4140100D01*
G01X-5019900Y2755000D02*
Y2935000D01*
G01X-4829900Y650000D02*
Y1269900D01*
G01X-3809900Y1430000D02*
Y885100D01*
X-3945000Y750000D01*
G01X-3385000Y-2095000D02*
X-3015100Y-2464900D01*
X-2345100D01*
G01X-3571100Y-863900D02*
X-3174200D01*
G01X238900Y3747000D02*
Y3841100D01*
X55000Y4025000D01*
X-3170000D01*
X-3380000Y3815000D01*
Y3370000D01*
X-3147500Y3137500D01*
G01X-3161100Y-275200D02*
Y-328900D01*
X-3011100Y-478900D01*
Y-781110D01*
X-3096990Y-867000D01*
G01X-3174200Y-863900D02*
X-3171100Y-867000D01*
G01X-3096990D02*
X-3171100D01*
G01X-3215100Y1030000D02*
Y1279800D01*
X-3215000Y1279900D01*
G01X-3147500Y3137500D02*
X-3065000Y3055000D01*
G01X-2696400Y-710000D02*
X-2695100Y-711300D01*
Y-955000D01*
G01D02*
Y-969900D01*
X-2476000Y-1189000D01*
Y-1227400D01*
G01X-2676800Y-373500D02*
Y-576800D01*
X-2696400Y-596400D01*
Y-710000D01*
G01X-2476000Y-1227400D02*
X-2202400D01*
X-2110000Y-1135000D01*
Y-1000100D01*
G01X-2366200Y-710000D02*
Y-953700D01*
X-2364900Y-955000D01*
G01X-2499000Y-373500D02*
Y-577200D01*
X-2366200Y-710000D01*
G01X-2110000Y-669900D02*
X-1866100D01*
X-1865000Y-671000D01*
G01X-2321200Y-373500D02*
X-2320000Y-372300D01*
Y330000D01*
G01X-1865000Y-1001200D02*
Y-1190000D01*
G01X-1965600Y-373500D02*
X-1970000Y-369100D01*
Y330000D01*
G01X-1610000D02*
Y-373500D01*
G01X-1076600D02*
X-1080000Y-370100D01*
Y330000D01*
G01X-721000Y-373500D02*
X-720000Y-372500D01*
Y330000D01*
G01X1145000Y2000000D02*
X810000Y2335000D01*
Y2875000D01*
X420000Y3265000D01*
X140000D01*
X-15100Y3420100D01*
Y3493000D01*
G01X447400Y-3293500D02*
Y-2875100D01*
G01Y-2544900D02*
X655000D01*
G01X835000Y1279900D02*
X580000D01*
G01X835000Y1610100D02*
Y1825900D01*
X478900Y2182000D01*
G01X1105000Y1610000D02*
X835100D01*
X835000Y1610100D01*
G01X1280000Y2253000D02*
X1423100Y2109900D01*
X1720000D01*
G01X2201000Y3720000D02*
Y3428000D01*
X1280000Y2507000D01*
G01X1720000Y2440100D02*
X1854800D01*
X1925000Y2369900D01*
G01X2709000Y3720000D02*
Y3499000D01*
X1720000Y2510000D01*
Y2440100D01*
G01X2104900Y-189900D02*
Y-390100D01*
X2102500Y-392500D01*
G01X1890000Y845000D02*
Y-45000D01*
X2034900Y-189900D01*
X2104900D01*
G01X2105100Y845000D02*
X1890000D01*
G01X2105100Y1869900D02*
X1890000Y1654800D01*
Y845000D01*
G01X2104900Y2369900D02*
X1925000D01*
G01X2180000Y-905000D02*
Y-1084900D01*
X2180100Y-1085000D01*
G01X2104900Y500000D02*
Y310100D01*
G01Y1335000D02*
Y1090000D01*
G01Y1520000D02*
Y1335000D01*
G01Y2369900D02*
Y2119900D01*
G01X2530000Y-370000D02*
Y-720000D01*
X2700100Y-890100D01*
X2770000D01*
G01X3414900Y285000D02*
Y-185100D01*
X3230000Y-370000D01*
X2530000D01*
G54D34*
X2752900Y-7198000D03*
G54D16*
X-4796100Y-2070800D03*
X-4086100D03*
X-3171100Y-867000D03*
X-1447000Y1020000D03*
G54D25*
X-2826600Y-1833500D03*
X673400D03*
G54D44*
G01X-365400Y-373500D02*
Y384600D01*
X-320000Y430000D01*
G54D35*
G01X-3399800Y-275200D02*
X-3620200D01*
X-3708890Y-363890D01*
X-3780100D01*
G01X-3396100Y55000D02*
X-3161100D01*
G01X-3396100Y420000D02*
Y55000D01*
G54D26*
X-2854600Y-373500D03*
X-2676800D03*
X-2499000D03*
X-2143400D03*
X-2321200D03*
X-1965600D03*
X-1610000D03*
X-1787800D03*
X-1432200D03*
X-1254400D03*
X-898800D03*
X-1076600D03*
X-721000D03*
X-365400D03*
X-9800D03*
X345800D03*
X701400D03*
G54D17*
X-4542100Y-893710D03*
X-4415100D03*
Y-363890D03*
X-4542100D03*
X-4288100Y-893710D03*
X-4161100D03*
Y-363890D03*
X-4288100D03*
X-4034100Y-893710D03*
X-3907100D03*
Y-363890D03*
X-4034100D03*
X-3780100Y-893710D03*
G54D45*
G01X-10000Y130000D02*
Y-373300D01*
X-9800Y-373500D01*
G01X345800D02*
X350000Y-369300D01*
Y430000D01*
G54D36*
G01X-4604900Y-1014900D02*
X-4607500Y-1017500D01*
X-5272500D01*
X-6060000Y-230000D01*
Y1095000D01*
X-5750000Y1405000D01*
X-5745100D01*
G01X-4841100Y-873900D02*
X-4965000Y-750000D01*
X-5360000D01*
X-5625000Y-485000D01*
Y55000D01*
X-5955000Y385000D01*
Y965000D01*
X-5820000Y1100000D01*
X-5785100D01*
X-5735100Y1150000D01*
G01X-4841100Y-543700D02*
X-4843700D01*
X-4985000Y-685000D01*
X-5330000D01*
X-5555000Y-460000D01*
Y85000D01*
X-5890000Y420000D01*
Y905000D01*
X-5845000Y950000D01*
X-5785100D01*
X-5735100Y900000D01*
G01Y650000D02*
Y900000D01*
G01Y1150000D02*
X-5607600Y1277500D01*
X-5542500D01*
X-5415000Y1405000D01*
X-5414900D01*
G01X-5404900Y900000D02*
X-5220000D01*
G01X-5404900Y1150000D02*
X-5220000D01*
G01X-5350100Y1980000D02*
X-5540000D01*
G01X-5350100Y2235000D02*
X-5540000D01*
G01X-5035000Y35100D02*
X-5290000D01*
G01X-5019900Y1980000D02*
X-5149900Y1850000D01*
X-5225100D01*
X-5350100Y1725000D01*
G01X-4935100Y-1178500D02*
Y-1385100D01*
G01D02*
X-4886700Y-1433500D01*
X-4721200D01*
G01X-4835000Y-295100D02*
X-5035000D01*
G01Y35100D02*
X-4830000Y240100D01*
Y295000D01*
G01X-4835000Y-295100D02*
Y5000D01*
X-4645000Y195000D01*
Y1350100D01*
X-5019900Y1725000D01*
G01X-4604000Y-48800D02*
Y-44000D01*
X-4470000Y90000D01*
Y1400000D01*
X-4875000Y1805000D01*
Y2005000D01*
X-4905000Y2035000D01*
X-4964900D01*
X-5019900Y1980000D01*
G01Y2235000D02*
X-4969900Y2185000D01*
X-4905000D01*
X-4805000Y2085000D01*
Y1830000D01*
X-4405000Y1430000D01*
Y80000D01*
X-4276200Y-48800D01*
X-4273800D01*
G01X-5019900Y2495000D02*
Y2235000D01*
G01X-4841100Y-873900D02*
X-4707200Y-740000D01*
X-4450000D01*
X-4415100Y-774900D01*
Y-893710D01*
G01X-4288100D02*
Y-766900D01*
X-4380000Y-675000D01*
X-4710000D01*
X-4841100Y-543900D01*
Y-543700D01*
G01X-4542100Y-363890D02*
X-4766210D01*
X-4835000Y-295100D01*
G01X-4604900Y-1178500D02*
Y-1014900D01*
G01D02*
X-4542100Y-952100D01*
Y-893710D01*
G01X-4415100Y-363890D02*
Y-237700D01*
X-4604000Y-48800D01*
G01X-4530000Y3224900D02*
Y3200000D01*
X-4250000Y2920000D01*
X-3870000D01*
X-3405000Y2455000D01*
Y935000D01*
X-3335000Y865000D01*
X-2900000D01*
X-2755000Y720000D01*
X-2525000D01*
G01X-4273800Y-48800D02*
Y-188800D01*
X-4288100Y-203100D01*
Y-363890D01*
G01X-4141200Y2021200D02*
X-4335000D01*
G01X-4141200Y2281200D02*
X-4335000D01*
G01X-4143800Y2540000D02*
X-4013800Y2410000D01*
X-3939800D01*
X-3811000Y2281200D01*
G01X-3285000Y2270000D02*
Y2465000D01*
X-3815000Y2995000D01*
X-4065000D01*
X-4285000Y3215000D01*
Y3224900D01*
G01X-4032000Y-48800D02*
X-4034100Y-50900D01*
Y-363890D01*
G01X-3701800Y-48800D02*
X-3907100Y-254100D01*
Y-363890D01*
G01X-3811000Y2021200D02*
X-3752200Y2080000D01*
X-3680000D01*
X-3635000Y2035000D01*
Y785000D01*
X-3905000Y515000D01*
Y80000D01*
X-4032000Y-47000D01*
Y-48800D01*
G01X-3170000Y2415000D02*
Y2465000D01*
X-3780000Y3075000D01*
X-3915000D01*
X-4040000Y3200000D01*
Y3224900D01*
G01X-3720000Y-5825000D02*
X-3474240D01*
X-3367200Y-5932040D01*
G01X-3584240Y-5665000D02*
X-3725000D01*
G01X-3780000Y-4570000D02*
Y-5435000D01*
X-3675000Y-5540000D01*
X-3372960D01*
G01X-3701800Y-48800D02*
Y-48200D01*
X-3830000Y80000D01*
Y485000D01*
X-3565000Y750000D01*
Y2095000D01*
X-3690000Y2220000D01*
X-3749800D01*
X-3811000Y2281200D01*
G01Y2021200D02*
Y1766100D01*
X-3809900Y1765000D01*
G01X-3813600Y2540000D02*
X-3790000D01*
X-3490000Y2240000D01*
Y565000D01*
X-3560000Y495000D01*
Y-115000D01*
X-3399800Y-275200D01*
G01X-3090000Y2580000D02*
X-3680000Y3170000D01*
X-3740100D01*
X-3795000Y3224900D01*
G01X-3372960Y-5540000D02*
X-3367200Y-5534240D01*
G01X-3396100Y-275200D02*
X-3399800D01*
G01X-3215000Y1610100D02*
X-2885000D01*
G01X-11100Y2182000D02*
X-248100Y1945000D01*
X-1155000D01*
X-1450000Y2240000D01*
X-1497530D01*
X-1529490Y2271960D01*
X-3283040D01*
X-3285000Y2270000D01*
G01X-501100Y2182000D02*
X-653100Y2030000D01*
X-1125000D01*
X-1510000Y2415000D01*
X-3170000D01*
G01X-3220000Y2925000D02*
X-1245000D01*
X-1205000Y2965000D01*
X-286100D01*
X-11100Y2690000D01*
G01X-2990000Y-5835000D02*
X-2845000D01*
X-2695000Y-5985000D01*
G01X-2985000Y-5665000D02*
X-2773160D01*
G01X-2656640Y-5520000D02*
X-2945000D01*
X-2990000Y-5475000D01*
Y-5305000D01*
G01X-2995000Y-5300000D02*
X-2990000Y-5305000D01*
G01X-2885000Y1279900D02*
Y1030100D01*
X-2884900Y1030000D01*
G01X-1970000Y330000D02*
Y675000D01*
X-2075000Y780000D01*
X-2215000D01*
X-2320000Y885000D01*
X-2739900D01*
X-2884900Y1030000D01*
G01X-1540000Y2150000D02*
X-2370000D01*
X-2885000Y1635000D01*
Y1610100D01*
G01X-991100Y2182000D02*
X-1389100Y2580000D01*
X-3090000D01*
G01X-2965000Y2690000D02*
X-991100D01*
G01X-3090000Y2812500D02*
X-1217500D01*
X-1160000Y2870000D01*
X-681100D01*
X-501100Y2690000D01*
G01X-2656640Y-5520000D02*
X-2642400Y-5534240D01*
G01X-2640000Y1610100D02*
X-2310000D01*
G01X-2705000Y3060000D02*
X108900D01*
X478900Y2690000D01*
G01X-2705000Y3060000D02*
X-2730000Y3035000D01*
X-2837660D01*
G01X-2525000Y720000D02*
X-2499000Y694000D01*
Y-373500D01*
G01X-2260000Y-5830000D02*
X-2050000D01*
X-1940000Y-5940000D01*
G01X-2260000Y-5495000D02*
X-1953240D01*
G01X-2260000Y-5650000D02*
X-2029760D01*
G01X-1787800Y730000D02*
X-1927800Y870000D01*
X-2149900D01*
X-2309900Y1030000D01*
G01X-2310000Y1279900D02*
Y1030100D01*
X-2309900Y1030000D01*
G01X-1755000Y1920000D02*
X-2195000D01*
X-2310000Y1805000D01*
Y1610100D01*
G01X-2305000Y2025000D02*
X-1675000D01*
X-1500000Y1850000D01*
X10000D01*
X249900Y1610100D01*
X250000D01*
G01X-2135000Y1800000D02*
Y1790000D01*
X-2120000Y1775000D01*
Y1635000D01*
X-2095100Y1610100D01*
X-2065000D01*
G01X-2029760Y-5650000D02*
X-1914000Y-5534240D01*
G01X-1953240Y-5495000D02*
X-1914000Y-5534240D01*
G01X-2065000Y1610100D02*
X-1735000D01*
G01X-1787800Y730000D02*
Y-373500D01*
G01X-1735000Y1279900D02*
Y1030100D01*
X-1734900Y1030000D01*
G01D02*
X-1615000Y910100D01*
Y335000D01*
X-1610000Y330000D01*
G01X-1890000Y1775000D02*
X-494900D01*
X-330000Y1610100D01*
G01X1590790Y-1000690D02*
Y-870790D01*
X1280000Y-560000D01*
Y1685000D01*
X680000Y2285000D01*
Y2815000D01*
X355000Y3140000D01*
X-1215000D01*
X-1410000Y3335000D01*
G01Y3590000D02*
X-1539100Y3719100D01*
Y3747000D01*
G01X-898800Y-373500D02*
X-895000Y-369700D01*
Y495000D01*
X-870000Y520000D01*
Y730000D01*
G01X-1080000Y330000D02*
X-1020000Y390000D01*
Y915100D01*
X-905100Y1030000D01*
G01X-905000Y1279900D02*
Y1030100D01*
X-905100Y1030000D01*
G01X-665000Y1610100D02*
X-905000D01*
G01X-1110000D02*
X-905000D01*
G01X249900Y1030000D02*
Y929900D01*
X75000Y755000D01*
X-550000D01*
X-720000Y585000D01*
Y330000D01*
G01X-330100Y1030000D02*
Y919900D01*
X-415000Y835000D01*
X-765000D01*
X-870000Y730000D01*
G01X-665000Y1279900D02*
X-574900Y1189800D01*
Y1030000D01*
G01X-330000Y1279900D02*
Y1030100D01*
X-330100Y1030000D01*
G01X0Y1610100D02*
X-330000D01*
G01X0Y1279900D02*
Y1030100D01*
X100Y1030000D01*
G01X250000Y1279900D02*
Y1030100D01*
X249900Y1030000D01*
G01X580000Y1610100D02*
X250000D01*
G01X1105000Y1610000D02*
Y-1270000D01*
X1210000Y-1375000D01*
Y-2190000D01*
X855000Y-2545000D01*
Y-2660100D01*
X735050Y-2780050D01*
G01X1000000Y3140000D02*
X1000900Y3140900D01*
Y3493000D01*
G01X1365000Y-1004900D02*
Y-985000D01*
X1400000Y-950000D01*
X1540100D01*
X1590790Y-1000690D01*
G01D02*
X1595000Y-1004900D01*
G54D27*
X-3052340Y3035000D03*
X-2837660D03*
G54D18*
X-4385000Y3772660D03*
Y3987340D03*
X-4040000Y3772660D03*
Y3987340D03*
X-3795000Y3772660D03*
Y3987340D03*
X1365000Y-1219580D03*
Y-1004900D03*
G54D46*
G01X-5290000Y-295100D02*
Y-490000D01*
G54D37*
G01X-4391000Y-1433500D02*
Y-1153500D01*
X-4366000Y-1128500D01*
G01D02*
X-4312500Y-1075000D01*
X-4245000D01*
X-4161100Y-991100D01*
Y-893710D01*
G01X-4385000Y3987340D02*
X-4457660D01*
X-4530000Y3915000D01*
Y3555100D01*
G01X-4285000D02*
Y3672660D01*
X-4385000Y3772660D01*
G01X-4040990Y4045000D02*
X-4327340D01*
X-4385000Y3987340D01*
G01X-3571100Y-863900D02*
Y-833900D01*
X-3670000Y-735000D01*
X-4120000D01*
X-4161100Y-776100D01*
Y-893710D01*
G01Y-363890D02*
Y-483890D01*
X-4089990Y-555000D01*
X-3730000D01*
X-3708700Y-533700D01*
X-3571100D01*
G01X-4086100Y-1816800D02*
X-3870000Y-1600700D01*
Y-1025000D01*
X-3907100Y-987900D01*
Y-893710D01*
G01D02*
X-3780100D01*
G01X-4040000Y3555100D02*
Y3772660D01*
G01X-4040990Y4045000D02*
Y3988330D01*
X-4040000Y3987340D01*
G01X-3795000D02*
Y4015000D01*
X-3825000Y4045000D01*
X-4040990D01*
G01X-3795000Y3555100D02*
Y3772660D01*
G01X-3065000Y3055000D02*
Y3035000D01*
X-3052340D01*
G01X-1838600Y-3293500D02*
Y-3078600D01*
X-1330000Y-2570000D01*
Y-2119700D01*
X-365400Y-1155100D01*
G01X-1330600Y-3293500D02*
Y-3135600D01*
X-1025000Y-2830000D01*
Y-2365000D01*
X-9800Y-1349800D01*
Y-1155100D01*
G01X-822600Y-3293500D02*
Y-3127600D01*
X-700000Y-3005000D01*
Y-2500000D01*
X345800Y-1454200D01*
Y-1155100D01*
G01X-365400Y-824900D02*
Y-373500D01*
G01X-9800D02*
Y-824900D01*
G01X345800D02*
Y-373500D01*
G54D28*
X-788100Y-7198000D03*
X-26100D03*
X735900D03*
X1990900D03*
X2201000Y3720000D03*
X2709000D03*
G54D19*
X-3780100Y-363890D03*
G54D38*
G01X-2854600Y-373500D02*
Y-1179000D01*
X-2806200Y-1227400D01*
G01X-2143400Y-373500D02*
Y610000D01*
G54D29*
X1280000Y2253000D03*
G54D39*
G01X-4796100Y-1816800D02*
X-4491800D01*
X-4058500Y-1383500D01*
X-4036000D01*
G01X-4035800Y-1128500D02*
Y-1383300D01*
X-4036000Y-1383500D01*
G01X-4034100Y-893710D02*
Y-1126800D01*
X-4035800Y-1128500D01*
G01X-3171100Y-613000D02*
X-3327000D01*
X-3406300Y-533700D01*
X-3571100D01*
G01X-3215000Y1279900D02*
Y1310000D01*
X-3085000Y1440000D01*
X-2765000D01*
X-2640000Y1315000D01*
G01X-2640100Y1030000D02*
Y1279800D01*
X-2640000Y1279900D01*
G01Y1315000D02*
Y1279900D01*
G01Y1315000D02*
Y1320000D01*
X-2520000Y1440000D01*
X-2200000D01*
X-2065000Y1305000D01*
G01Y1279900D02*
Y1030100D01*
X-2065100Y1030000D01*
G01X-2065000Y1279900D02*
Y1305000D01*
G01D02*
Y1315000D01*
X-1940000Y1440000D01*
X-1300000D01*
G01D02*
X-790000D01*
X-665000Y1315000D01*
G01D02*
Y1279900D01*
G01X0D02*
X-160100Y1440000D01*
X-540000D01*
X-665000Y1315000D01*
G01X580000Y1279900D02*
Y1315000D01*
X455000Y1440000D01*
X130000D01*
X0Y1310000D01*
Y1279900D01*
G01X735050Y-2780050D02*
X640000Y-2875100D01*
X447400D01*
G01X580000Y1279900D02*
Y1030100D01*
X580100Y1030000D01*
M02*
