G04 ================== begin FILE IDENTIFICATION RECORD ==================*
G04 Layout Name:  STEVAL-IPM05F.brd*
G04 Film Name:    STEVAL-IPM05F -solder-mask-top*
G04 File Format:  Gerber RS274X*
G04 File Origin:  Cadence Allegro 16.6-S018*
G04 Origin Date:  Wed Sep 07 16:08:04 2016*
G04 *
G04 Layer:  PIN/SOLDERMASK_TOP*
G04 Layer:  PACKAGE GEOMETRY/SOLDERMASK_TOP*
G04 Layer:  BOARD GEOMETRY/SOLDERMASK_TOP*
G04 *
G04 Offset:    (0.0000 0.0000)*
G04 Mirror:    No*
G04 Mode:      Positive*
G04 Rotation:  0*
G04 FullContactRelief:  No*
G04 UndefLineWidth:     0.0000*
G04 ================== end FILE IDENTIFICATION RECORD ====================*
%FSLAX35Y35*MOMM*%
%IR0*IPPOS*OFA0.00000B0.00000*MIA0B0*SFA1.00000B1.00000*%
%ADD15O,.7112X1.778*%
%ADD17R,.7112X1.778*%
%ADD16R,.7366X1.1938*%
%ADD24R,1.1938X.7366*%
%ADD14C,1.6002*%
%ADD23O,1.524X2.1336*%
%ADD25C,2.921*%
%ADD28C,3.048*%
%ADD20C,1.905*%
%ADD10C,3.175*%
%ADD13R,1.27X1.27*%
%ADD11C,2.159*%
%ADD30R,2.159X3.175*%
%ADD12R,1.651X1.651*%
%ADD31R,2.921X2.921*%
%ADD29R,3.048X3.048*%
%ADD19R,1.905X1.905*%
%ADD27C,1.778*%
%ADD26R,1.778X1.778*%
%ADD18R,5.1816X3.6068*%
%ADD22R,.8636X.9906*%
%ADD21R,.9906X.8636*%
%ADD32C,.8*%
%ADD33C,1.*%
G75*
%LPD*%
G75*
G36*
G01X-2820000Y-4485000D02*
X-3110000D01*
Y-4790000D01*
X-2860000D01*
X-2820000Y-4750000D01*
Y-4485000D01*
G37*
G36*
G01Y-4435000D02*
X-3110000D01*
Y-4135000D01*
X-2820000D01*
Y-4435000D01*
G37*
G36*
G01X-2490000Y-4135000D02*
Y-4435000D01*
X-2770000D01*
Y-4135000D01*
X-2490000D01*
G37*
G36*
G01X-2175000Y-4760000D02*
Y-4485000D01*
X-2445000D01*
Y-4760000D01*
X-2415000Y-4790000D01*
X-2175000D01*
Y-4760000D01*
G37*
G36*
G01X-2440000Y-4435000D02*
X-2170000D01*
Y-4135000D01*
X-2440000D01*
Y-4435000D01*
G37*
G54D10*
X-5775000Y-7430000D03*
X-5715000Y3910000D03*
X3520000Y-7425000D03*
X3500000Y3955000D03*
G54D11*
X-5860000Y-5810000D03*
X-5095000Y-5070000D03*
X-4830000Y295000D03*
X-4200000Y250000D03*
X-3396100Y420000D03*
X-2963900Y-3720000D03*
X-2854600Y-3293500D03*
X-2945000Y640000D03*
X-2628900Y-4685000D03*
X-2600600Y-3743500D03*
Y-3293500D03*
X-2680000Y155000D03*
X-2310000Y-3815000D03*
X-2346600Y-3293500D03*
X-2320000Y330000D03*
X-2525000Y720000D03*
X-2143400Y610000D03*
X-1791100Y-4200000D03*
X-1838600Y-3293500D03*
X-1970000Y330000D03*
X-1610000D03*
X-1787800Y730000D03*
X-1330600Y-3293500D03*
X-1080000Y330000D03*
X-1026100Y-4200000D03*
X-822600Y-3293500D03*
X-870000Y730000D03*
X-720000Y330000D03*
X-314600Y-3293500D03*
X-320000Y430000D03*
X-266100Y-4200000D03*
X-10000Y130000D03*
X350000Y430000D03*
X447400Y-3293500D03*
X701400D03*
X1105000Y1610000D03*
G54D20*
X-3063100Y3747000D03*
X-2809100Y3493000D03*
Y3747000D03*
X-2555100Y3493000D03*
Y3747000D03*
X-2301100Y3493000D03*
Y3747000D03*
X-2047100Y3493000D03*
X-1793100D03*
Y3747000D03*
X-1539100Y3493000D03*
Y3747000D03*
X-1285100Y3493000D03*
Y3747000D03*
X-991100Y2182000D03*
Y2436000D03*
X-1031100Y3493000D03*
Y3747000D03*
X-777100Y3493000D03*
X-501100Y2182000D03*
Y2436000D03*
X-523100Y3493000D03*
Y3747000D03*
X-269100Y3493000D03*
Y3747000D03*
X-11100Y2182000D03*
Y2436000D03*
X-15100Y3493000D03*
Y3747000D03*
X238900Y3493000D03*
Y3747000D03*
X478900Y2182000D03*
Y2436000D03*
X492900Y3493000D03*
X746900D03*
Y3747000D03*
X1000900Y3493000D03*
Y3747000D03*
X2436000Y574900D03*
X2441000Y1605000D03*
X2436000Y2640100D03*
X2716000Y79900D03*
X2690000Y574900D03*
X2716000Y1115000D03*
X2695000Y1605000D03*
X2716000Y2135100D03*
X2690000Y2640100D03*
X3050000Y-1263000D03*
Y-1009000D03*
X2970000Y79900D03*
Y1115000D03*
Y2135100D03*
X3475000Y-1263000D03*
Y-1009000D03*
X3570000Y577000D03*
Y831000D03*
Y1085000D03*
Y1339000D03*
G54D21*
X-2960000Y-4545000D03*
Y-4385000D03*
X-2300000Y-4545000D03*
Y-4385000D03*
G54D12*
X-5735100Y650000D03*
Y900000D03*
Y1150000D03*
X-5745100Y1405000D03*
X-5290000Y-295100D03*
Y35100D03*
X-5404900Y650000D03*
Y900000D03*
Y1150000D03*
X-5414900Y1405000D03*
X-5350100Y1725000D03*
Y1980000D03*
Y2235000D03*
Y2495000D03*
Y2755000D03*
X-5160100Y650000D03*
X-4796100Y-1816800D03*
X-4935100Y-1178500D03*
X-4841100Y-873900D03*
Y-543700D03*
X-5035000Y-295100D03*
Y35100D03*
X-4829900Y650000D03*
X-5019900Y1725000D03*
Y1980000D03*
Y2235000D03*
Y2495000D03*
Y2755000D03*
X-4721200Y-1433500D03*
X-4604900Y-1178500D03*
X-4604000Y-48800D03*
X-4391000Y-1433500D03*
X-4366000Y-1128500D03*
X-4530000Y3224900D03*
Y3555100D03*
X-4086100Y-1816800D03*
X-4273800Y-48800D03*
X-4140100Y1430000D03*
Y1765000D03*
X-4141200Y2021200D03*
Y2281200D03*
X-4143800Y2540000D03*
X-4285000Y3224900D03*
Y3555100D03*
X-4036000Y-1383500D03*
X-4035800Y-1128500D03*
X-4032000Y-48800D03*
X-3809900Y1430000D03*
Y1765000D03*
X-3811000Y2021200D03*
Y2281200D03*
X-3813600Y2540000D03*
X-4040000Y3224900D03*
Y3555100D03*
X-3705800Y-1383500D03*
X-3571100Y-863900D03*
Y-533700D03*
X-3701800Y-48800D03*
X-3795000Y3224900D03*
Y3555100D03*
X-3396100Y-275200D03*
Y55000D03*
X-3171100Y-613000D03*
X-3161100Y-275200D03*
Y55000D03*
X-3215100Y1030000D03*
X-3215000Y1279900D03*
Y1610100D03*
X-2884900Y1030000D03*
X-2885000Y1279900D03*
Y1610100D03*
X-2806200Y-1227400D03*
X-2695100Y-955000D03*
X-2696400Y-710000D03*
X-2640100Y1030000D03*
X-2640000Y1279900D03*
Y1610100D03*
X-2476000Y-1227400D03*
X-2364900Y-955000D03*
X-2366200Y-710000D03*
X-2110000Y-1000100D03*
Y-669900D03*
X-2065100Y1030000D03*
X-2309900D03*
X-2065000Y1279900D03*
X-2310000D03*
X-2065000Y1610100D03*
X-2310000D03*
X-1865000Y-1001200D03*
Y-671000D03*
X-1734900Y1030000D03*
X-1735000Y1279900D03*
Y1610100D03*
X-1485100Y610000D03*
X-1154900D03*
X-1193000Y1020000D03*
X-905100Y1030000D03*
X-905000Y1279900D03*
Y1610100D03*
X-665000Y1279900D03*
Y1610100D03*
X-365400Y-1155100D03*
Y-824900D03*
X-330100Y1030000D03*
X-574900D03*
X-330000Y1279900D03*
Y1610100D03*
X-9800Y-1155100D03*
Y-824900D03*
X100Y1030000D03*
X0Y1279900D03*
Y1610100D03*
X345800Y-1155100D03*
Y-824900D03*
X249900Y1030000D03*
X250000Y1279900D03*
Y1610100D03*
X447400Y-2875100D03*
Y-2544900D03*
X580100Y1030000D03*
X580000Y1279900D03*
Y1610100D03*
X835000Y1279900D03*
Y1610100D03*
X1595000Y-1335100D03*
Y-1004900D03*
X1849900Y-1585000D03*
Y-1335000D03*
Y-1085000D03*
X1720000Y2109900D03*
Y2440100D03*
X2104900Y-189900D03*
Y60100D03*
Y310100D03*
X2105100Y845000D03*
X2104900Y1090000D03*
Y1335000D03*
X2105100Y1869900D03*
X2104900Y2119900D03*
Y2369900D03*
X2180000Y-2250100D03*
Y-1919900D03*
X2180100Y-1585000D03*
Y-1335000D03*
Y-1085000D03*
X2435100Y-189900D03*
Y60100D03*
Y310100D03*
X2435300Y845000D03*
X2435100Y1090000D03*
Y1335000D03*
X2435300Y1869900D03*
X2435100Y2119900D03*
Y2369900D03*
X2770000Y-1460100D03*
Y-1129900D03*
Y-890100D03*
Y-559900D03*
X2679900Y-190100D03*
Y845000D03*
Y1870100D03*
X3010100Y-190100D03*
Y845000D03*
Y1870100D03*
X3414900Y285000D03*
X3745100D03*
G54D30*
X2156700Y-2600000D03*
X2613900D03*
G54D22*
X-2865000Y-4385000D03*
X-2705000D03*
X-2555000D03*
X-2395000D03*
G54D31*
X2752900Y-7198000D03*
G54D13*
X-5525310Y-4080000D03*
X-5314690D03*
X-5525310Y-3510000D03*
X-5314690D03*
X-5525310Y-2960000D03*
X-5314690D03*
X-4980310Y-4080000D03*
Y-3510000D03*
Y-2960000D03*
X-4769690Y-4080000D03*
Y-3510000D03*
Y-2960000D03*
X-4435310Y-3510000D03*
Y-2960000D03*
X-4224690Y-3510000D03*
Y-2960000D03*
X-3890310Y-3510000D03*
Y-2960000D03*
X-3679690Y-3510000D03*
Y-2960000D03*
G54D32*
G01X-3510000Y-5105000D02*
Y-5235000D01*
G01X-3195000Y-4790000D02*
X-3510000Y-5105000D01*
G01X-3180000Y-5025000D02*
Y-5225000D01*
G01X-3340000Y-5105000D02*
Y-5235000D01*
G01X-2855000Y-5055000D02*
X-2777500Y-4977500D01*
G01X-3040000Y-3530000D02*
Y-3910000D01*
G01X-2910000Y-3520000D02*
Y-3910000D01*
G01X-2715000Y-5075000D02*
Y-5215000D01*
G01X-2855000Y-5205000D02*
Y-5055000D01*
G01X-2680000Y-3490000D02*
Y-3920000D01*
G01X-2570000Y-5080000D02*
Y-5210000D01*
G01X-2430000Y-5205000D02*
Y-5035000D01*
G01D02*
X-2487500Y-4977500D01*
G01X-2370000Y-3600000D02*
Y-3925000D01*
G01X-2550000Y-3490000D02*
Y-3925000D01*
G01X-2240000Y-3600000D02*
Y-3920000D01*
G01X-2105000Y-5025000D02*
Y-5225000D01*
G01X-1945000Y-5105000D02*
Y-5235000D01*
G01X-2090000Y-4790000D02*
X-1775000Y-5105000D01*
G01D02*
Y-5235000D01*
G54D23*
X-2854600Y-373500D03*
X-2676800D03*
X-2499000D03*
X-2143400D03*
X-2321200D03*
X-1965600D03*
X-1610000D03*
X-1787800D03*
X-1432200D03*
X-1254400D03*
X-898800D03*
X-1076600D03*
X-721000D03*
X-365400D03*
X-9800D03*
X345800D03*
X701400D03*
G54D14*
X-4796100Y-2070800D03*
X-4086100D03*
X-3171100Y-867000D03*
X-1447000Y1020000D03*
G54D33*
G01X-1935000Y-7005000D02*
X-4455000D01*
G01X-1735000Y-6745000D02*
X-4445000D01*
G01X-1735000Y-6505000D02*
X-4445000D01*
G01X-1725000Y-6215000D02*
X-4435000D01*
G01X-2175000Y-7265000D02*
X-3585000D01*
G01X-1880000Y-4130000D02*
Y-4240000D01*
X-1240000Y-4880000D01*
Y-5665000D01*
G01X-1740000Y-4140000D02*
Y-4170000D01*
X-780000Y-5130000D01*
Y-5670000D01*
G01X-1225000Y-4115000D02*
X-280000Y-5060000D01*
Y-5645000D01*
G01X-1020000Y-5660000D02*
Y-5160000D01*
G01X-997500Y-4112500D02*
X220000Y-5330000D01*
Y-5695000D01*
G01X-452500Y-4127500D02*
X700000Y-5280000D01*
Y-5630000D01*
G01X-253480Y-4103500D02*
X920000Y-5270000D01*
Y-5625000D01*
G01X-30000Y-5380000D02*
Y-5655000D01*
G01X390000Y-4500000D02*
X1180000Y-5290000D01*
Y-5635000D01*
G54D24*
X-3052340Y3035000D03*
X-2837660D03*
G54D15*
X-4542100Y-893710D03*
X-4415100D03*
Y-363890D03*
X-4542100D03*
X-4288100Y-893710D03*
X-4161100D03*
Y-363890D03*
X-4288100D03*
X-4034100Y-893710D03*
X-3907100D03*
Y-363890D03*
X-4034100D03*
X-3780100Y-893710D03*
G54D25*
X-788100Y-7198000D03*
X-26100D03*
X735900D03*
X1990900D03*
X2201000Y3720000D03*
X2709000D03*
G54D16*
X-4385000Y3772660D03*
Y3987340D03*
X-4040000Y3772660D03*
Y3987340D03*
X-3795000Y3772660D03*
Y3987340D03*
X1365000Y-1219580D03*
Y-1004900D03*
G54D26*
X1280000Y2253000D03*
G54D17*
X-3780100Y-363890D03*
G54D18*
X-3367200Y-5945760D03*
Y-5534240D03*
X-2642400Y-5945760D03*
Y-5534240D03*
X-1914000Y-5945760D03*
Y-5534240D03*
G54D27*
X1280000Y2507000D03*
G54D19*
X-3063100Y3493000D03*
X-2047100Y3747000D03*
X-991100Y2690000D03*
X-777100Y3747000D03*
X-501100Y2690000D03*
X-11100D03*
X478900D03*
X492900Y3747000D03*
X3050000Y-755000D03*
X3475000D03*
X3570000Y1593000D03*
G54D28*
X2070000Y-5175000D03*
G54D29*
Y-4175000D03*
M02*
