*
%LPD*%
%LNart002*%
%FSLAX25Y25*%
%MOIN*%
%AD*%
%ADD11C,0.07087*%
%ADD12C,0.07874*%
%ADD13C,0.17874*%
%ADD14C,0.17717*%
%ADD15C,0.1*%
%ADD17C,0.10236*%
%ADD18R,0.07874X0.12992*%
%ADD23C,0.09843*%
%ADD25C,0.14173*%
%ADD28C,0.08*%
%ADD33C,0.19685*%
%ADD36R,0.11X0.08*%
%ADD37O,0.11X0.08*%
%ADD38C,0.06299*%
%ADD39R,0.08X0.11*%
%ADD40O,0.08X0.11*%
%ADD42C,0.1378*%
%ADD44C,0.2*%
%ADD47O,0.09843X0.07087*%
%ADD50O,0.15748X0.11811*%
%ADD51C,0.01*%
%ADD52C,0.00984*%
%ADD53C,0.01969*%
%ADD54C,0.03937*%
%ADD55C,0.0315*%
%ADD56C,0.04724*%
%ADD57C,0.00787*%
%ADD58C,0.01181*%
%ADD59C,0.00394*%
%ADD60C,0.05512*%
%ADD124C,0.23622*%
%ADD165R,0.05906X0.11417*%
%ADD166R,0.24803X0.25591*%
G54D11*
%SRX1Y1I0.0J0.0*%
G1X380443Y41869D3*
G1X360758Y41869D3*
G54D12*
G1X385411Y105359D3*
G1X444466Y105359D3*
G1X374680Y219668D3*
G1X433735Y219668D3*
G1X363690Y78570D3*
G1X363690Y108098D3*
G1X307422Y27796D3*
G1X317422Y27796D3*
G1X225483Y95366D3*
G1X225483Y115051D3*
G1X352903Y216862D2*
G1X338565Y220397D1*
G1X347903Y216862D1*
G1X338565Y213326D1*
G1X352903Y216862D1*
G1X346187Y217511D2*
G1X350268Y217511D1*
G1X338565Y213326D3*
G1X338565Y220397D3*
G1X346439Y215268D2*
G1X346439Y216307D1*
G1X346439Y217416D2*
G1X346439Y218456D1*
G1X317155Y286862D2*
G1X331494Y283326D1*
G1X322155Y286862D1*
G1X331494Y290397D1*
G1X317155Y286862D1*
G1X323303Y288378D2*
G1X326159Y288378D1*
G1X317155Y286862D3*
G1X325029Y284920D2*
G1X325029Y285774D1*
G1X325029Y287950D2*
G1X325029Y288803D1*
G1X352903Y246862D2*
G1X338565Y250397D1*
G1X347903Y246862D1*
G1X338565Y243326D1*
G1X352903Y246862D1*
G1X342236Y249007D2*
G1X344201Y249007D1*
G1X338565Y243326D3*
G1X338565Y250397D3*
G1X346439Y245268D2*
G1X346439Y246307D1*
G1X346439Y247416D2*
G1X346439Y248456D1*
G1X352903Y246862D2*
G1X338565Y250397D1*
G1X347903Y246862D1*
G1X338565Y243326D1*
G1X352903Y246862D1*
G1X342236Y249007D2*
G1X344201Y249007D1*
G1X338565Y243326D3*
G1X338565Y250397D3*
G1X346439Y245268D2*
G1X346439Y246307D1*
G1X346439Y247416D2*
G1X346439Y248456D1*
G1X360758Y41869D2*
G1X363690Y44802D1*
G1X363690Y78570D1*
G1X404227Y43723D2*
G1X399115Y41560D1*
G1X404227Y39396D1*
G1X406516Y41560D2*
G1X380752Y41560D1*
G1X380443Y41869D1*
G1X439861Y43848D2*
G1X437697Y48961D1*
G1X435533Y43848D1*
G1X437697Y41560D2*
G1X437697Y70646D1*
G1X435127Y73216D1*
G1X434514Y73216D1*
G1X394514Y78216D2*
G1X394160Y78570D1*
G1X363690Y78570D1*
G1X434514Y73216D2*
G1X444466Y83168D1*
G1X444466Y105359D1*
G1X225483Y115051D2*
G1X237845Y127413D1*
G1X237845Y172461D1*
G1X385411Y105359D2*
G1X382672Y108098D1*
G1X363690Y108098D1*
G1X261182Y168905D2*
G1X292830Y168905D1*
G1X292830Y237117D1*
G1X270074Y259873D1*
G1X258857Y260073D1*
G1X261182Y168905D2*
G1X260545Y172444D1*
G1X424208Y185839D2*
G1X435481Y197113D1*
G1X435481Y217921D1*
G1X433735Y219668D1*
G1X335029Y216862D2*
G1X371873Y216862D1*
G1X374680Y219668D1*
G1X387437Y206911D2*
G1X374680Y219668D1*
G1X433735Y219668D2*
G1X433469Y219668D1*
G1X406276Y246862D1*
G1X384316Y246862D1*
G1X261275Y257085D2*
G1X261275Y273163D1*
G1X274974Y286862D1*
G1X335029Y286862D1*
G1X261275Y257085D2*
G1X261275Y257654D1*
G1X258857Y260073D1*
G1X261275Y257085D2*
G1X261275Y257654D1*
G1X258857Y260073D1*
G1X257853Y260073D1*
G1X335029Y246862D2*
G1X384316Y246862D1*
G1X384209Y270303D1*
G1X384316Y246862D2*
G1X335029Y246862D1*
G54D13*
G1X335029Y286862D3*
G1X335029Y246862D3*
G1X335029Y216862D3*
G1X335029Y186862D3*
G54D14*
G1X121894Y290519D3*
G1X90398Y290519D3*
G1X58902Y290519D3*
G54D15*
G1X383741Y294370D3*
G1X423741Y289370D3*
G1X424945Y265713D3*
G1X384945Y270713D3*
G1X434514Y73216D3*
G1X394514Y78216D3*
G54D17*
G1X272594Y120694D3*
G1X272594Y98647D3*
G54D18*
G1X140752Y136964D3*
G1X119098Y136964D3*
G1X119098Y156110D3*
G1X140752Y156110D3*
G1X106640Y156110D3*
G1X84987Y156110D3*
G54D23*
G1X183249Y281119D3*
G1X183249Y222064D3*
G54D25*
G1X437697Y41560D3*
G1X406516Y41560D3*
G54D28*
G1X310567Y85814D3*
G1X310567Y97814D3*
G1X257853Y260073D2*
G54D33*
G1X204583Y260073D1*
G1X182742Y281913D1*
G54D36*
G1X36653Y44907D3*
G1X36686Y95279D3*
G54D37*
G1X36653Y54907D3*
G1X36653Y64907D3*
G1X36653Y74907D3*
G1X36686Y105279D3*
G1X36686Y115279D3*
G1X36686Y125279D3*
G54D38*
G1X271632Y23913D3*
G1X271632Y33913D3*
G1X240036Y33829D3*
G1X240036Y23829D3*
G54D39*
G1X206796Y25179D3*
G54D40*
G1X196796Y25179D3*
G1X186796Y25179D3*
G1X176796Y25179D3*
G1X166796Y25179D3*
G1X156796Y25179D3*
G1X146796Y25179D3*
G1X136796Y25179D3*
G54D42*
G1X382542Y145037D3*
G1X433723Y145037D3*
G1X433723Y182439D3*
G1X382542Y182439D3*
G54D44*
G1X259199Y260449D3*
G1X259199Y220449D3*
G54D47*
G1X223524Y56198D3*
G1X223524Y69977D3*
G54D50*
G1X335545Y276454D3*
G1X335545Y246927D3*
G1X335545Y217399D3*
G1X335545Y187872D3*
G1X218110Y65941D2*
G54D51*
G1X219641Y67472D1*
G1X218110Y74014D2*
G1X219641Y72483D1*
G1X228939Y74014D2*
G1X227408Y72483D1*
G1X228939Y65941D2*
G1X227408Y67472D1*
G1X212327Y18148D2*
G1X209624Y20851D1*
G1X201265Y18148D2*
G1X203967Y20851D1*
G1X201265Y32211D2*
G1X203967Y29508D1*
G1X212327Y32211D2*
G1X209624Y29508D1*
G1X29621Y39375D2*
G1X32324Y42078D1*
G1X29621Y50438D2*
G1X32324Y47735D1*
G1X43684Y50438D2*
G1X40981Y47735D1*
G1X43684Y39375D2*
G1X40981Y42078D1*
G1X30827Y110919D2*
G1X32358Y112450D1*
G1X30827Y119638D2*
G1X32358Y118107D1*
G1X42546Y119638D2*
G1X41015Y118107D1*
G1X42546Y110919D2*
G1X41015Y112450D1*
G1X278394Y172598D2*
G54D52*
G1X274964Y174053D1*
G1X276678Y172524D1*
G1X275101Y170854D1*
G1X278394Y172598D1*
G1X275476Y171252D2*
G1X275852Y171252D1*
G1X276406Y172236D2*
G1X277711Y172236D1*
G1X275898Y173220D2*
G1X276927Y173220D1*
G1X274964Y174053D3*
G1X275948Y171303D2*
G1X275948Y171751D1*
G1X275948Y173175D2*
G1X275948Y173635D1*
G1X276933Y171824D2*
G1X276933Y173218D1*
G1X277917Y172345D2*
G1X277917Y172800D1*
G1X274908Y172448D2*
G1X278338Y170993D1*
G1X276624Y172522D1*
G1X278201Y174192D1*
G1X274908Y172448D1*
G1X277729Y171252D2*
G1X278049Y171252D1*
G1X275409Y172236D2*
G1X276945Y172236D1*
G1X276366Y173220D2*
G1X277284Y173220D1*
G1X274908Y172448D3*
G1X275893Y172031D2*
G1X275893Y172969D1*
G1X276877Y171613D2*
G1X276877Y172296D1*
G1X276877Y172789D2*
G1X276877Y173490D1*
G1X277861Y171196D2*
G1X277861Y171419D1*
G1X277861Y173831D2*
G1X277861Y174011D1*
G1X99676Y38792D2*
G1X100727Y36231D1*
G1X98416Y37157D1*
G1X99486Y37877D2*
G1X100727Y36231D1*
G1X99109Y37448D1*
G1X102239Y34719D2*
G1X98338Y38619D1*
G1X98210Y38619D1*
G1X155682Y42275D2*
G1X154444Y39220D1*
G1X157499Y40458D1*
G1X155898Y41454D2*
G1X154444Y39220D1*
G1X156229Y41005D1*
G1X154444Y39220D2*
G1X156679Y40674D1*
G1X102239Y34719D2*
G1X125573Y34719D1*
G1X128776Y37922D1*
G1X153146Y37922D1*
G1X157552Y42327D1*
G1X121464Y40682D2*
G1X124573Y40249D1*
G1X122665Y38764D1*
G1X122507Y40009D2*
G1X124573Y40249D1*
G1X122714Y39474D1*
G1X188471Y65110D2*
G1X187457Y62713D1*
G1X186443Y65110D1*
G1X187742Y64734D2*
G1X187457Y62713D1*
G1X187172Y64734D1*
G1X121260Y39219D2*
G1X121260Y40249D1*
G1X149156Y40249D1*
G1X155062Y46155D1*
G1X179249Y46155D1*
G1X187457Y54363D1*
G1X187457Y66183D1*
G1X36653Y44907D2*
G1X35980Y44907D1*
G1X47605Y86811D2*
G1X50002Y85797D1*
G1X47605Y84782D1*
G1X47981Y86082D2*
G1X50002Y85797D1*
G1X47981Y85511D1*
G1X67165Y58802D2*
G1X64481Y61486D1*
G1X64481Y81721D1*
G1X60406Y85797D1*
G1X46532Y85797D1*
G1X112085Y65219D2*
G1X110954Y62372D1*
G1X114627Y63897D1*
G1X112372Y64561D2*
G1X110954Y62372D1*
G1X112743Y64163D1*
G1X110954Y62372D2*
G1X113249Y63875D1*
G1X67165Y58802D2*
G1X107383Y58802D1*
G1X113750Y65168D1*
G1X113911Y65624D1*
G1X109874Y42244D2*
G1X112287Y42979D1*
G1X111551Y40567D1*
G1X110762Y41915D2*
G1X112287Y42979D1*
G1X111222Y41455D1*
G1X150112Y71603D2*
G1X149192Y69947D1*
G1X148272Y71603D1*
G1X149443Y71303D2*
G1X149192Y69947D1*
G1X148941Y71303D1*
G1X109690Y40383D2*
G1X112287Y42979D1*
G1X146626Y42979D1*
G1X150138Y46491D1*
G1X150138Y68519D1*
G1X148951Y69706D1*
G1X149192Y69947D1*
G1X149192Y72758D1*
G1X158911Y43612D2*
G1X161946Y42327D1*
G1X158911Y41043D1*
G1X159339Y42879D2*
G1X161946Y42327D1*
G1X159422Y42327D1*
G1X161946Y42327D2*
G1X159339Y41776D1*
G1X197960Y58283D2*
G1X195563Y57268D1*
G1X197960Y56254D1*
G1X197584Y57554D2*
G1X195563Y57268D1*
G1X197584Y56983D1*
G1X157552Y42327D2*
G1X179704Y42327D1*
G1X194645Y57268D1*
G1X199033Y57268D1*
G1X237465Y61018D2*
G1X236451Y63415D1*
G1X235437Y61018D1*
G1X236736Y61394D2*
G1X236451Y63415D1*
G1X236166Y61394D1*
G1X228640Y176067D2*
G1X227625Y173671D1*
G1X226611Y176067D1*
G1X227910Y175692D2*
G1X227625Y173671D1*
G1X227340Y175692D1*
G1X236451Y59945D2*
G1X236451Y84897D1*
G1X234805Y86543D1*
G1X223501Y86543D1*
G1X218709Y91335D1*
G1X218709Y118217D1*
G1X227625Y127133D1*
G1X227625Y177140D1*
G1X47032Y79716D2*
G1X47112Y79796D1*
G1X48067Y79796D1*
G1X56875Y78732D2*
G1X56653Y78954D1*
G1X56483Y78954D1*
G1X69109Y66403D2*
G1X69132Y66426D1*
G1X126849Y90608D2*
G1X125808Y92993D1*
G1X124821Y90585D1*
G1X126116Y90975D2*
G1X125808Y92993D1*
G1X125546Y90969D1*
G1X132478Y103939D2*
G1X131500Y101527D1*
G1X133912Y102504D1*
G1X132728Y103158D2*
G1X131500Y101527D1*
G1X133131Y102754D1*
G1X125848Y89524D2*
G1X125775Y95802D1*
G1X133953Y103980D1*
G1X181607Y99187D2*
G1X178639Y98161D1*
G1X180799Y97074D1*
G1X180713Y98326D2*
G1X178639Y98161D1*
G1X180613Y97760D1*
G1X163644Y100028D2*
G1X166040Y99014D1*
G1X163644Y97999D1*
G1X164019Y99299D2*
G1X166040Y99014D1*
G1X164019Y98729D1*
G1X182089Y97792D2*
G1X181719Y98161D1*
G1X177503Y98161D1*
G1X176650Y99014D1*
G1X162571Y99014D1*
G1X159460Y121333D2*
G1X156380Y120724D1*
G1X158370Y119350D1*
G1X158456Y120602D2*
G1X156380Y120724D1*
G1X158280Y120056D1*
G1X159746Y119884D2*
G1X158907Y120724D1*
G1X127693Y120724D1*
G1X119454Y128963D1*
G1X119246Y128963D1*
G1X59575Y122971D2*
G1X59776Y122971D1*
G1X59828Y123023D1*
G1X174567Y123382D2*
G1X171819Y124900D1*
G1X172457Y122567D1*
G1X173329Y123470D2*
G1X171819Y124900D1*
G1X172842Y123165D1*
G1X137307Y161514D2*
G1X133228Y156110D1*
G1X137307Y150707D1*
G1X137307Y160532D2*
G1X133228Y156110D1*
G1X137307Y159549D1*
G1X137307Y158567D2*
G1X133228Y156110D1*
G1X137307Y157584D1*
G1X137307Y156602D2*
G1X133228Y156110D1*
G1X137307Y155619D1*
G1X137307Y154637D2*
G1X133228Y156110D1*
G1X137307Y153654D1*
G1X137307Y152672D2*
G1X133228Y156110D1*
G1X137307Y151689D1*
G1X173854Y122090D2*
G1X173854Y122864D1*
G1X171379Y125340D1*
G1X130843Y125340D1*
G1X129028Y127155D1*
G1X128927Y127155D1*
G1X128799Y127283D1*
G1X128799Y151682D1*
G1X133228Y156110D1*
G1X140752Y156110D1*
G1X166732Y122258D2*
G1X164320Y123235D1*
G1X165298Y120823D1*
G1X165951Y122008D2*
G1X164320Y123235D1*
G1X165548Y121604D1*
G1X166774Y120782D2*
G1X164212Y123344D1*
G1X128654Y123344D1*
G1X126446Y125552D1*
G1X126446Y164296D1*
G1X124475Y166266D1*
G1X183539Y124044D2*
G1X181128Y125021D1*
G1X182105Y122609D1*
G1X182758Y123794D2*
G1X181128Y125021D1*
G1X182355Y123390D1*
G1X137307Y131560D2*
G1X133494Y136964D1*
G1X137307Y142368D1*
G1X137307Y132543D2*
G1X133494Y136964D1*
G1X137307Y133525D1*
G1X137307Y134508D2*
G1X133494Y136964D1*
G1X137307Y135490D1*
G1X137307Y136473D2*
G1X133494Y136964D1*
G1X137307Y137455D1*
G1X137307Y138438D2*
G1X133494Y136964D1*
G1X137307Y139420D1*
G1X137307Y140403D2*
G1X133494Y136964D1*
G1X137307Y141385D1*
G1X183581Y122568D2*
G1X178736Y127413D1*
G1X134351Y127413D1*
G1X133173Y128591D1*
G1X133173Y128594D1*
G1X131500Y130267D1*
G1X131500Y134970D1*
G1X133494Y136964D1*
G1X140752Y136964D1*
G1X88432Y150707D2*
G1X93835Y156110D1*
G1X88432Y161514D1*
G1X88432Y151689D2*
G1X93835Y156110D1*
G1X88432Y152672D1*
G1X88432Y153654D2*
G1X93835Y156110D1*
G1X88432Y154637D1*
G1X88432Y155619D2*
G1X93835Y156110D1*
G1X88432Y156602D1*
G1X88432Y157584D2*
G1X93835Y156110D1*
G1X88432Y158567D1*
G1X88432Y159549D2*
G1X93835Y156110D1*
G1X88432Y160532D1*
G1X84987Y156110D2*
G1X96676Y156110D1*
G1X98797Y158232D1*
G1X98797Y165271D1*
G1X99792Y166266D1*
G1X124475Y166266D1*
G1X41131Y178878D2*
G1X43345Y180221D1*
G1X45560Y178878D1*
G1X42017Y178878D2*
G1X43345Y180221D1*
G1X42903Y178878D1*
G1X43788Y178878D2*
G1X43345Y180221D1*
G1X44674Y178878D1*
G1X44360Y179148D2*
G1X43345Y176751D1*
G1X42331Y179148D1*
G1X43631Y178772D2*
G1X43345Y176751D1*
G1X43060Y178772D1*
G1X43345Y173662D2*
G1X43345Y180221D1*
G1X89677Y168967D2*
G1X91434Y173662D1*
G1X89677Y178357D1*
G1X89677Y169906D2*
G1X91434Y173662D1*
G1X89677Y170845D1*
G1X89677Y171784D2*
G1X91434Y173662D1*
G1X89677Y172723D1*
G1X89677Y173662D2*
G1X91434Y173662D1*
G1X89677Y174601D1*
G1X89677Y175540D2*
G1X91434Y173662D1*
G1X89677Y176479D1*
G1X89677Y177418D2*
G1X91434Y173662D1*
G1X91704Y175114D1*
G1X92886Y173932D2*
G1X91434Y173662D1*
G1X91966Y174510D1*
G1X92281Y174194D2*
G1X91434Y173662D1*
G1X87217Y173662D1*
G1X91434Y173662D2*
G1X93156Y175384D1*
G1X112003Y176214D2*
G1X109057Y175128D1*
G1X111238Y174085D1*
G1X111127Y175335D2*
G1X109057Y175128D1*
G1X111038Y174767D1*
G1X112513Y174828D2*
G1X112214Y175128D1*
G1X106793Y175128D1*
G1X105327Y173662D2*
G1X106793Y175128D1*
G1X130564Y169690D2*
G1X130564Y173662D1*
G1X133025Y168967D2*
G1X135783Y173662D1*
G1X133025Y178357D1*
G1X133025Y169906D2*
G1X135783Y173662D1*
G1X133025Y170845D1*
G1X133025Y171784D2*
G1X135783Y173662D1*
G1X133025Y172723D1*
G1X133025Y173662D2*
G1X135783Y173662D1*
G1X133025Y174601D1*
G1X133025Y175540D2*
G1X135783Y173662D1*
G1X133025Y176479D1*
G1X135783Y173662D2*
G1X133025Y177418D1*
G1X135109Y174937D2*
G1X133054Y173662D1*
G1X136101Y172904D1*
G1X134984Y174237D2*
G1X133054Y173662D1*
G1X135134Y173682D1*
G1X130564Y173662D2*
G1X135783Y173662D1*
G1X136457Y174336D1*
G1X71477Y186513D2*
G1X72454Y184101D1*
G1X70042Y185078D1*
G1X71227Y185731D2*
G1X72454Y184101D1*
G1X70824Y185328D1*
G1X160452Y178641D2*
G1X157697Y181396D1*
G1X75087Y181396D1*
G1X75087Y181468D1*
G1X70001Y186554D1*
G1X161680Y179632D2*
G1X160452Y178641D1*
G1X162430Y177390D1*
G1X161559Y178946D2*
G1X160452Y178641D1*
G1X161648Y178399D1*
G1X160452Y178641D2*
G1X163099Y178641D1*
G1X163429Y178971D1*
G1X273433Y172385D2*
G1X279869Y172661D1*
G1X116378Y189133D2*
G1X117355Y186721D1*
G1X114943Y187698D1*
G1X116128Y188351D2*
G1X117355Y186721D1*
G1X115724Y187948D1*
G1X114902Y189174D2*
G1X120114Y183962D1*
G1X164076Y183962D1*
G1X164165Y184050D1*
G1X166964Y184375D2*
G1X165818Y183415D1*
G1X166898Y182488D1*
G1X166696Y183662D2*
G1X165818Y183415D1*
G1X166685Y183169D1*
G1X168544Y183375D2*
G1X168504Y183415D1*
G1X165818Y183415D1*
G1X165183Y184050D1*
G1X164165Y184050D1*
G1X301550Y33042D2*
G54D53*
G1X304474Y27630D1*
G1X303752Y31075D1*
G1X307256Y30744D1*
G1X301550Y33042D1*
G1X303985Y28535D2*
G1X304284Y28535D1*
G1X302921Y30504D2*
G1X303872Y30504D1*
G1X301858Y32472D2*
G1X302965Y32472D1*
G1X301550Y33042D3*
G1X303518Y29398D2*
G1X303518Y32249D1*
G1X305487Y30911D2*
G1X305487Y31456D1*
G1X286728Y38241D2*
G1X282469Y39493D1*
G1X284956Y38241D1*
G1X282469Y36988D1*
G1X286728Y38241D1*
G1X284684Y38378D2*
G1X286262Y38378D1*
G1X282469Y36988D3*
G1X282469Y39493D3*
G1X284437Y37567D2*
G1X284437Y37979D1*
G1X284437Y38502D2*
G1X284437Y38914D1*
G1X286406Y38146D2*
G1X286406Y38335D1*
G1X215060Y69977D2*
G1X220337Y68168D1*
G1X217619Y69977D1*
G1X220337Y71787D1*
G1X215060Y69977D1*
G1X215362Y69874D2*
G1X217775Y69874D1*
G1X215060Y69977D3*
G1X217028Y69302D2*
G1X217028Y70652D1*
G1X218997Y68627D2*
G1X218997Y69060D1*
G1X218997Y70895D2*
G1X218997Y71327D1*
G1X37760Y226398D2*
G1X34519Y227094D1*
G1X36775Y226398D1*
G1X34519Y225702D1*
G1X37760Y226398D1*
G1X34519Y225702D3*
G1X34519Y227094D3*
G1X36487Y226124D2*
G1X36487Y226309D1*
G1X36487Y226487D2*
G1X36487Y226671D1*
G1X84264Y227444D2*
G1X81255Y228140D1*
G1X83511Y227444D1*
G1X81255Y226748D1*
G1X84264Y227444D1*
G1X83221Y227354D2*
G1X83876Y227354D1*
G1X81255Y226748D3*
G1X81255Y228140D3*
G1X83223Y227203D2*
G1X83223Y227355D1*
G1X83223Y227532D2*
G1X83223Y227684D1*
G1X127189Y226283D2*
G1X123948Y226979D1*
G1X126205Y226283D1*
G1X123948Y225587D1*
G1X127189Y226283D1*
G1X123948Y225587D3*
G1X123948Y226979D3*
G1X125916Y226010D2*
G1X125916Y226195D1*
G1X125916Y226372D2*
G1X125916Y226557D1*
G1X176290Y274159D2*
G1X183249Y277182D1*
G1X179074Y276943D1*
G1X179312Y281119D1*
G1X176290Y274159D1*
G1X176480Y274598D2*
G1X177300Y274598D1*
G1X177335Y276567D2*
G1X181832Y276567D1*
G1X178190Y278535D2*
G1X179165Y278535D1*
G1X179045Y280504D2*
G1X179277Y280504D1*
G1X176290Y274159D3*
G1X178258Y275014D2*
G1X178258Y278692D1*
G1X180227Y275869D2*
G1X180227Y277009D1*
G1X182195Y276724D2*
G1X182195Y277122D1*
G1X55072Y19673D2*
G1X53550Y20205D1*
G1X54433Y18307D1*
G1X55325Y18722D2*
G1X55033Y18722D1*
G1X52715Y21040D1*
G1X52715Y39805D1*
G1X47613Y44907D1*
G1X35980Y44907D1*
G1X240036Y33829D2*
G1X240036Y38190D1*
G1X236069Y42158D1*
G1X212072Y42158D1*
G1X206079Y48151D1*
G1X206079Y72685D1*
G1X307422Y27796D2*
G1X295730Y38241D1*
G1X281216Y38241D1*
G1X35980Y44907D2*
G1X27894Y44907D1*
G1X25753Y47048D1*
G1X25753Y114147D1*
G1X27516Y115910D1*
G1X37088Y115910D1*
G1X173472Y52849D2*
G1X175080Y53501D1*
G1X174428Y51893D1*
G1X173444Y51865D2*
G1X179903Y58324D1*
G1X179903Y60495D1*
G1X194670Y47236D2*
G1X194321Y47585D1*
G1X194318Y47585D1*
G1X172672Y68050D2*
G1X171995Y69648D1*
G1X171319Y68050D1*
G1X181886Y93001D2*
G1X180289Y92324D1*
G1X181886Y91648D1*
G1X171995Y67335D2*
G1X171995Y84528D1*
G1X179792Y92324D1*
G1X182602Y92324D1*
G1X203754Y60495D2*
G1X207669Y64410D1*
G1X206079Y66638D2*
G1X209418Y69977D1*
G1X223524Y69977D1*
G1X206079Y66638D2*
G1X206079Y72685D1*
G1X181886Y93001D2*
G1X180289Y92324D1*
G1X181886Y91648D1*
G1X151877Y94730D2*
G1X152529Y93122D1*
G1X150921Y93773D1*
G1X182602Y92324D2*
G1X153326Y92324D1*
G1X150893Y94757D1*
G1X310567Y98640D2*
G1X310567Y99526D1*
G1X36686Y115279D2*
G1X37088Y115680D1*
G1X37088Y115910D1*
G1X146781Y101395D2*
G1X148389Y102047D1*
G1X147738Y100439D1*
G1X146754Y100411D2*
G1X149299Y102956D1*
G1X191112Y102956D1*
G1X146699Y108853D2*
G1X148297Y108176D1*
G1X146699Y107500D1*
G1X194117Y108853D2*
G1X192519Y108176D1*
G1X194117Y107500D1*
G1X145984Y108176D2*
G1X194832Y108176D1*
G1X146305Y116527D2*
G1X144885Y117029D1*
G1X145386Y115609D1*
G1X68785Y123887D2*
G1X71022Y122940D1*
G1X68785Y121993D1*
G1X71022Y122940D2*
G1X69162Y122940D1*
G1X146369Y115545D2*
G1X144885Y117029D1*
G1X124804Y117029D1*
G1X119161Y122940D1*
G1X67784Y122940D1*
G1X200842Y109086D2*
G1X200167Y110669D1*
G1X199493Y109086D1*
G1X147353Y115518D2*
G1X148004Y113910D1*
G1X146396Y114561D1*
G1X200167Y108369D2*
G1X200167Y110669D1*
G1X200020Y111416D1*
G1X200020Y111623D1*
G1X197991Y113652D1*
G1X148262Y113652D1*
G1X146369Y115545D1*
G1X197861Y101449D2*
G1X192619Y101449D1*
G1X191112Y102956D1*
G1X197274Y102195D2*
G1X195844Y101449D1*
G1X197832Y100794D1*
G1X197861Y101449D2*
G1X198140Y101728D1*
G1X315675Y132891D2*
G1X314110Y133280D1*
G1X315165Y131471D1*
G1X316015Y131967D2*
G1X315422Y131967D1*
G1X313580Y133810D1*
G1X43267Y211063D2*
G1X60634Y211160D1*
G1X63818Y211063D1*
G1X45135Y211063D2*
G1X60634Y211160D1*
G1X47003Y211063D1*
G1X48872Y211063D2*
G1X60634Y211160D1*
G1X50740Y211063D1*
G1X52608Y211063D2*
G1X60634Y211160D1*
G1X54476Y211063D1*
G1X56345Y211063D2*
G1X60634Y211160D1*
G1X58213Y211063D1*
G1X60081Y211063D2*
G1X60634Y211160D1*
G1X61950Y211063D1*
G1X52401Y199252D2*
G1X60634Y211160D1*
G1X48529Y211160D1*
G1X84854Y211063D2*
G1X87217Y215148D1*
G1X105405Y211063D1*
G1X86723Y211063D2*
G1X87217Y215148D1*
G1X88591Y211063D1*
G1X90459Y211063D2*
G1X87217Y215148D1*
G1X92327Y211063D1*
G1X94196Y211063D2*
G1X87217Y215148D1*
G1X96064Y211063D1*
G1X97932Y211063D2*
G1X87217Y215148D1*
G1X99801Y211063D1*
G1X101669Y211063D2*
G1X87217Y215148D1*
G1X103537Y211063D1*
G1X85445Y221559D2*
G1X87217Y217307D1*
G1X88988Y221559D1*
G1X87217Y217307D2*
G1X87217Y221559D1*
G1X96272Y199252D2*
G1X91301Y211063D1*
G1X87217Y215148D1*
G1X87217Y226283D1*
G1X139619Y199252D2*
G1X136415Y211063D1*
G1X41574Y221559D2*
G1X43345Y217307D1*
G1X45117Y221559D1*
G1X43345Y217307D2*
G1X43345Y221559D1*
G1X48529Y211160D2*
G1X43345Y211160D1*
G1X43345Y226283D1*
G1X128793Y221559D2*
G1X130564Y217307D1*
G1X132336Y221559D1*
G1X130564Y217307D2*
G1X130564Y221559D1*
G1X136415Y211063D2*
G1X130564Y211063D1*
G1X130564Y226283D1*
G1X41281Y222146D2*
G1X37029Y226398D1*
G1X41281Y230650D1*
G1X41281Y223847D2*
G1X37029Y226398D1*
G1X41281Y225547D1*
G1X41281Y227248D2*
G1X37029Y226398D1*
G1X41281Y228949D1*
G1X43345Y226283D2*
G1X43345Y226398D1*
G1X33823Y226398D1*
G1X84464Y222504D2*
G1X80559Y227444D1*
G1X84464Y231008D1*
G1X84464Y224205D2*
G1X80559Y227444D1*
G1X84464Y225905D1*
G1X84464Y227606D2*
G1X80559Y227444D1*
G1X84464Y229307D1*
G1X87217Y226283D2*
G1X87217Y227444D1*
G1X80559Y227444D1*
G1X128596Y222031D2*
G1X124344Y226283D1*
G1X128596Y230535D1*
G1X128596Y223732D2*
G1X124344Y226283D1*
G1X128596Y225433D1*
G1X128596Y227134D2*
G1X124344Y226283D1*
G1X128596Y228835D1*
G1X130564Y226283D2*
G1X123252Y226283D1*
G1X63818Y241244D2*
G1X74448Y251874D1*
G1X63818Y262504D1*
G1X63818Y243177D2*
G1X74448Y251874D1*
G1X63818Y245109D1*
G1X63818Y247042D2*
G1X74448Y251874D1*
G1X63818Y248975D1*
G1X63818Y250908D2*
G1X74448Y251874D1*
G1X63818Y252840D1*
G1X63818Y254773D2*
G1X74448Y251874D1*
G1X63818Y256706D1*
G1X63818Y258638D2*
G1X74448Y251874D1*
G1X63818Y260571D1*
G1X84854Y241244D2*
G1X74224Y251874D1*
G1X84854Y262504D1*
G1X84854Y243177D2*
G1X74224Y251874D1*
G1X84854Y245109D1*
G1X84854Y247042D2*
G1X74224Y251874D1*
G1X84854Y248975D1*
G1X84854Y250908D2*
G1X74224Y251874D1*
G1X84854Y252840D1*
G1X84854Y254773D2*
G1X74224Y251874D1*
G1X84854Y256706D1*
G1X84854Y258638D2*
G1X74224Y251874D1*
G1X84854Y260571D1*
G1X52401Y251874D2*
G1X96272Y251874D1*
G1X107689Y241244D2*
G1X118319Y251874D1*
G1X107689Y262504D1*
G1X107689Y243177D2*
G1X118319Y251874D1*
G1X107689Y245109D1*
G1X107689Y247042D2*
G1X118319Y251874D1*
G1X107689Y248975D1*
G1X107689Y250908D2*
G1X118319Y251874D1*
G1X107689Y252840D1*
G1X107689Y254773D2*
G1X118319Y251874D1*
G1X107689Y256706D1*
G1X107689Y258638D2*
G1X118319Y251874D1*
G1X107689Y260571D1*
G1X128202Y241244D2*
G1X117572Y251874D1*
G1X128202Y262504D1*
G1X128202Y243177D2*
G1X117572Y251874D1*
G1X128202Y245109D1*
G1X128202Y247042D2*
G1X117572Y251874D1*
G1X128202Y248975D1*
G1X128202Y250908D2*
G1X117572Y251874D1*
G1X128202Y252840D1*
G1X128202Y254773D2*
G1X117572Y251874D1*
G1X128202Y256706D1*
G1X128202Y258638D2*
G1X117572Y251874D1*
G1X128202Y260571D1*
G1X96272Y251874D2*
G1X139619Y251874D1*
G1X151037Y242425D2*
G1X160727Y261391D1*
G1X151037Y263685D1*
G1X151037Y244358D2*
G1X160727Y261391D1*
G1X151037Y246291D1*
G1X151037Y248223D2*
G1X160727Y261391D1*
G1X151037Y250156D1*
G1X151037Y252089D2*
G1X160727Y261391D1*
G1X151037Y254021D1*
G1X151037Y255954D2*
G1X160727Y261391D1*
G1X151037Y257887D1*
G1X151037Y259820D2*
G1X160727Y261391D1*
G1X151037Y261752D1*
G1X139619Y251874D2*
G1X165815Y263685D1*
G1X183249Y281119D1*
G1X267304Y249894D2*
G1X267304Y250622D1*
G1X257853Y260073D1*
G1X267304Y249894D2*
G1X259199Y257999D1*
G1X259199Y260449D1*
G1X102983Y158301D2*
G1X102983Y130186D1*
G1X104206Y128963D1*
G1X121243Y128963D1*
G1X122987Y130706D1*
G1X122987Y162685D1*
G1X122616Y163055D1*
G1X103091Y163055D1*
G1X102992Y162957D1*
G1X102992Y158301D1*
G1X102983Y158301D1*
G1X127885Y174251D2*
G1X127885Y167409D1*
G1X136391Y158903D1*
G1X136391Y148768D1*
G1X136810Y148350D1*
G1X145089Y148350D1*
G1X145801Y149063D1*
G1X145801Y163291D1*
G1X132671Y176421D1*
G1X127931Y176421D1*
G1X127887Y176376D1*
G1X127887Y174251D1*
G1X127885Y174251D1*
G1X81754Y158934D2*
G1X81754Y176535D1*
G1X82106Y176886D1*
G1X90439Y176886D1*
G1X90859Y176466D1*
G1X90859Y149477D1*
G1X90044Y148662D1*
G1X82176Y148662D1*
G1X81740Y149098D1*
G1X81740Y158934D1*
G1X81754Y158934D1*
G1X47097Y178270D2*
G1X47097Y164544D1*
G1X66242Y145399D1*
G1X99790Y145399D1*
G1X102605Y148215D1*
G1X107450Y148215D1*
G1X109351Y146313D1*
G1X108992Y145954D1*
G1X108992Y130564D1*
G1X107227Y128799D1*
G1X59753Y128799D1*
G1X35627Y152924D1*
G1X35627Y177146D1*
G1X36752Y178270D1*
G1X47097Y178270D1*
G1X135890Y141714D2*
G1X135890Y131541D1*
G1X136928Y130502D1*
G1X190935Y130502D1*
G1X205337Y114681D1*
G1X212941Y114502D1*
G1X214552Y116113D1*
G1X214552Y141151D1*
G1X209202Y146501D1*
G1X150026Y146501D1*
G1X147394Y143868D1*
G1X137173Y143868D1*
G1X135877Y142572D1*
G1X135877Y141714D1*
G1X135890Y141714D1*
G1X102992Y162623D2*
G1X122987Y162623D1*
G1X102992Y160851D2*
G1X122987Y160851D1*
G1X102992Y159080D2*
G1X122987Y159080D1*
G1X102983Y157308D2*
G1X122987Y157308D1*
G1X102983Y155536D2*
G1X122987Y155536D1*
G1X102983Y153765D2*
G1X122987Y153765D1*
G1X102983Y151993D2*
G1X122987Y151993D1*
G1X102983Y150221D2*
G1X122987Y150221D1*
G1X102983Y148450D2*
G1X122987Y148450D1*
G1X102983Y146678D2*
G1X122987Y146678D1*
G1X102983Y144906D2*
G1X122987Y144906D1*
G1X102983Y143135D2*
G1X122987Y143135D1*
G1X102983Y141363D2*
G1X122987Y141363D1*
G1X102983Y139591D2*
G1X122987Y139591D1*
G1X102983Y137820D2*
G1X122987Y137820D1*
G1X102983Y136048D2*
G1X122987Y136048D1*
G1X102983Y134276D2*
G1X122987Y134276D1*
G1X102983Y132505D2*
G1X122987Y132505D1*
G1X102983Y130733D2*
G1X122987Y130733D1*
G1X132773Y162522D2*
G1X145801Y162522D1*
G1X134544Y160750D2*
G1X145801Y160750D1*
G1X136316Y158978D2*
G1X145801Y158978D1*
G1X136391Y157207D2*
G1X145801Y157207D1*
G1X136391Y155435D2*
G1X145801Y155435D1*
G1X136391Y153663D2*
G1X145801Y153663D1*
G1X136391Y151892D2*
G1X145801Y151892D1*
G1X136391Y150120D2*
G1X145801Y150120D1*
G1X131001Y164293D2*
G1X144799Y164293D1*
G1X129229Y166065D2*
G1X143027Y166065D1*
G1X127885Y167836D2*
G1X141256Y167836D1*
G1X127885Y169608D2*
G1X139484Y169608D1*
G1X127885Y171380D2*
G1X137712Y171380D1*
G1X127885Y173151D2*
G1X135941Y173151D1*
G1X127887Y174923D2*
G1X134169Y174923D1*
G1X81754Y175235D2*
G1X90859Y175235D1*
G1X81754Y173463D2*
G1X90859Y173463D1*
G1X81754Y171692D2*
G1X90859Y171692D1*
G1X81754Y169920D2*
G1X90859Y169920D1*
G1X81754Y168148D2*
G1X90859Y168148D1*
G1X81754Y166377D2*
G1X90859Y166377D1*
G1X81754Y164605D2*
G1X90859Y164605D1*
G1X81754Y162833D2*
G1X90859Y162833D1*
G1X81754Y161062D2*
G1X90859Y161062D1*
G1X81754Y159290D2*
G1X90859Y159290D1*
G1X81740Y157519D2*
G1X90859Y157519D1*
G1X81740Y155747D2*
G1X90859Y155747D1*
G1X81740Y153975D2*
G1X90859Y153975D1*
G1X81740Y152204D2*
G1X90859Y152204D1*
G1X81740Y150432D2*
G1X90859Y150432D1*
G1X100905Y146514D2*
G1X109151Y146514D1*
G1X43810Y144742D2*
G1X108992Y144742D1*
G1X45581Y142971D2*
G1X108992Y142971D1*
G1X47353Y141199D2*
G1X108992Y141199D1*
G1X49124Y139427D2*
G1X108992Y139427D1*
G1X50896Y137656D2*
G1X108992Y137656D1*
G1X52668Y135884D2*
G1X108992Y135884D1*
G1X54439Y134112D2*
G1X108992Y134112D1*
G1X56211Y132341D2*
G1X108992Y132341D1*
G1X57983Y130569D2*
G1X108992Y130569D1*
G1X42038Y146514D2*
G1X65127Y146514D1*
G1X40266Y148286D2*
G1X63355Y148286D1*
G1X38495Y150057D2*
G1X61584Y150057D1*
G1X36723Y151829D2*
G1X59812Y151829D1*
G1X35627Y153601D2*
G1X58041Y153601D1*
G1X35627Y155372D2*
G1X56269Y155372D1*
G1X35627Y157144D2*
G1X54497Y157144D1*
G1X35627Y158916D2*
G1X52726Y158916D1*
G1X35627Y160687D2*
G1X50954Y160687D1*
G1X35627Y162459D2*
G1X49182Y162459D1*
G1X35627Y164231D2*
G1X47411Y164231D1*
G1X35627Y176632D2*
G1X47097Y176632D1*
G1X35627Y174861D2*
G1X47097Y174861D1*
G1X35627Y173089D2*
G1X47097Y173089D1*
G1X35627Y171317D2*
G1X47097Y171317D1*
G1X35627Y169546D2*
G1X47097Y169546D1*
G1X35627Y167774D2*
G1X47097Y167774D1*
G1X35627Y166002D2*
G1X47097Y166002D1*
G1X135890Y141076D2*
G1X214552Y141076D1*
G1X135890Y139304D2*
G1X214552Y139304D1*
G1X135890Y137532D2*
G1X214552Y137532D1*
G1X135890Y135761D2*
G1X214552Y135761D1*
G1X135890Y133989D2*
G1X214552Y133989D1*
G1X135890Y132217D2*
G1X214552Y132217D1*
G1X190987Y130446D2*
G1X214552Y130446D1*
G1X192599Y128674D2*
G1X214552Y128674D1*
G1X194212Y126903D2*
G1X214552Y126903D1*
G1X195824Y125131D2*
G1X214552Y125131D1*
G1X197437Y123359D2*
G1X214552Y123359D1*
G1X199050Y121588D2*
G1X214552Y121588D1*
G1X200662Y119816D2*
G1X214552Y119816D1*
G1X202275Y118044D2*
G1X214552Y118044D1*
G1X203888Y116273D2*
G1X214552Y116273D1*
G1X136152Y142847D2*
G1X212855Y142847D1*
G1X148145Y144619D2*
G1X211083Y144619D1*
G1X149916Y146391D2*
G1X209312Y146391D1*
G1X241693Y29518D2*
G1X241693Y38065D1*
G75*
G3X241549Y38413I-492J0D1*
G74*
G1X236772Y43190D1*
G75*
G3X236424Y43335I-349J-348D1*
G74*
G1X234411Y43335D1*
G1X230326Y47420D1*
G1X230326Y52439D1*
G75*
G3X229443Y52737I-492J0D1*
G1X224902Y50489D2*
G3X229443Y52737I1J5709D1*
G74*
G1X224902Y50489D2*
G1X222146Y50489D1*
G1X222146Y61906D2*
G75*
G3X222146Y50489I0J-5708D1*
G74*
G1X222146Y61906D2*
G1X224902Y61906D1*
G1X229443Y59658D2*
G75*
G3X224902Y61906I-4540J-3460D1*
G1X229443Y59658D2*
G3X230326Y59956I391J298D1*
G74*
G1X230326Y66219D1*
G75*
G3X229443Y66517I-492J0D1*
G1X224902Y64269D2*
G3X229443Y66517I1J5708D1*
G74*
G1X224902Y64269D2*
G1X222146Y64269D1*
G1X222146Y75686D2*
G75*
G3X222146Y64269I0J-5708D1*
G74*
G1X222146Y75686D2*
G1X224902Y75686D1*
G1X229443Y73438D2*
G75*
G3X224902Y75686I-4540J-3461D1*
G1X229443Y73438D2*
G3X230326Y73736I391J298D1*
G74*
G1X230326Y83393D1*
G75*
G3X229834Y83885I-492J0D1*
G74*
G1X223501Y83885D1*
G1X221621Y84664D2*
G75*
G3X223501Y83885I1880J1879D1*
G74*
G1X221621Y84664D2*
G1X221192Y85093D1*
G75*
G3X220785Y85234I-348J-348D1*
G1X215981Y92658D2*
G3X220785Y85234I4216J-2538D1*
G1X215981Y92658D2*
G3X216051Y92912I-422J253D1*
G74*
G1X216051Y102871D1*
G75*
G3X215559Y103363I-492J0D1*
G74*
G1X202623Y103363D1*
G75*
G3X202146Y102750I0J-492D1*
G1X196847Y97802D2*
G3X202146Y102750I1293J3926D1*
G74*
G1X196847Y97802D2*
G1X195414Y98274D1*
G75*
G3X195260Y98299I-155J-467D1*
G74*
G1X192619Y98299D1*
G1X190392Y99222D2*
G75*
G3X192619Y98299I2228J2227D1*
G74*
G1X190392Y99222D2*
G1X189951Y99662D1*
G75*
G3X189603Y99807I-349J-348D1*
G74*
G1X186457Y99807D1*
G75*
G3X185993Y99152I1J-492D1*
G1X179124Y94912D2*
G3X185993Y99152I2965J2880D1*
G1X179124Y94912D2*
G3X178992Y95008I-351J-344D1*
G74*
G1X178112Y95451D1*
G75*
G3X177891Y95504I-222J-439D1*
G74*
G1X177503Y95504D1*
G1X175685Y96223D2*
G75*
G3X177503Y95504I1818J1938D1*
G1X175685Y96223D2*
G3X175348Y96356I-336J-359D1*
G74*
G1X166679Y96356D1*
G75*
G3X166488Y96317I1J-492D1*
G74*
G1X165114Y95736D1*
G75*
G3X165015Y95680I191J-454D1*
G1X158446Y99282D2*
G3X165015Y95680I4125J-268D1*
G1X158446Y99282D2*
G3X157955Y99807I-491J32D1*
G74*
G1X151248Y99807D1*
G75*
G3X150770Y99431I1J-493D1*
G1X143253Y102609D2*
G3X150770Y99431I3501J-2198D1*
G1X143253Y102609D2*
G3X142836Y103363I-417J262D1*
G74*
G1X140743Y103363D1*
G1X138829Y105278D1*
G75*
G3X137999Y104829I-348J-348D1*
G1X134583Y99895D2*
G3X137999Y104829I-630J4085D1*
G1X134583Y99895D2*
G3X134473Y99864I78J-486D1*
G74*
G1X133091Y99304D1*
G75*
G3X132927Y99196I183J-457D1*
G74*
G1X128592Y94861D1*
G75*
G3X128448Y94507I348J-348D1*
G74*
G1X128458Y93662D1*
G75*
G3X128499Y93471I492J6D1*
G74*
G1X129096Y92104D1*
G75*
G3X129153Y92006I451J197D1*
G1X122486Y91929D2*
G3X129153Y92007I3362J-2405D1*
G1X122486Y91929D2*
G3X122541Y92029I-402J286D1*
G74*
G1X123106Y93409D1*
G75*
G3X123143Y93601I-455J187D1*
G74*
G1X123118Y95772D1*
G1X123896Y97681D2*
G75*
G3X123118Y95772I1879J-1879D1*
G74*
G1X123896Y97681D2*
G1X129169Y102954D1*
G75*
G3X129277Y103117I-348J348D1*
G74*
G1X129837Y104500D1*
G75*
G3X129868Y104610I-455J188D1*
G1X134802Y108026D2*
G3X129868Y104610I-849J-4046D1*
G1X134802Y108026D2*
G3X135251Y108856I101J482D1*
G74*
G1X130371Y113735D1*
G75*
G3X130023Y113880I-349J-348D1*
G74*
G1X124804Y113880D1*
G1X122526Y114854D2*
G75*
G3X124804Y113880I2277J2175D1*
G74*
G1X122526Y114854D2*
G1X120925Y116531D1*
G75*
G3X120569Y116684I-357J-339D1*
G74*
G1X58154Y116684D1*
G1X46009Y128829D1*
G75*
G3X45661Y128973I-348J-348D1*
G74*
G1X44023Y128973D1*
G75*
G3X43592Y128244I0J-492D1*
G1X42257Y120648D2*
G3X43592Y128244I-4071J4631D1*
G1X42257Y120648D2*
G3X42257Y119909I325J-369D1*
G1X42257Y110648D2*
G3X42257Y119909I-4071J4631D1*
G1X42257Y110648D2*
G3X42257Y109909I325J-369D1*
G1X43256Y101770D2*
G3X42257Y109909I-5070J3509D1*
G1X43256Y101770D2*
G3X43388Y101080I405J-280D1*
G1X44352Y99279D2*
G3X43388Y101080I-2166J-1D1*
G74*
G1X44352Y99279D2*
G1X44352Y94872D1*
G75*
G3X45238Y94577I492J0D1*
G1X51571Y89282D2*
G3X45238Y94577I-3024J2818D1*
G1X51571Y89282D2*
G3X51931Y88454I360J-336D1*
G74*
G1X60406Y88454D1*
G1X62285Y87676D2*
G75*
G3X60406Y88454I-1879J-1879D1*
G74*
G1X62285Y87676D2*
G1X66360Y83600D1*
G1X67138Y81721D2*
G75*
G3X66360Y83600I-2657J0D1*
G74*
G1X67138Y81721D2*
G1X67138Y62790D1*
G75*
G3X67282Y62442I492J0D1*
G74*
G1X68122Y61603D1*
G75*
G3X68470Y61459I348J348D1*
G74*
G1X70707Y61459D1*
G75*
G3X71185Y62069I0J492D1*
G1X79978Y62069D2*
G3X71184Y62069I-4397J1080D1*
G1X79978Y62069D2*
G3X80456Y61459I478J-118D1*
G74*
G1X106079Y61459D1*
G75*
G3X106427Y61603I0J492D1*
G74*
G1X108615Y63792D1*
G75*
G3X108724Y63958I-348J348D1*
G74*
G1X109349Y65530D1*
G75*
G3X109384Y65703I-457J182D1*
G1X115646Y61442D2*
G3X109384Y65703I-1735J4182D1*
G74*
G1X115646Y61442D2*
G1X112550Y60157D1*
G75*
G3X112391Y60051I188J-455D1*
G74*
G1X109262Y56922D1*
G1X108722Y56506D2*
G75*
G3X109262Y56922I-1339J2296D1*
G1X108722Y56506D2*
G3X109073Y55599I247J-426D1*
G1X114038Y53269D2*
G3X109073Y55599I-4013J-2096D1*
G1X114038Y53269D2*
G3X114734Y53078I436J227D1*
G1X120682Y46433D2*
G3X114734Y53078I-3558J2800D1*
G1X120682Y46433D2*
G3X121069Y45637I387J-304D1*
G74*
G1X145322Y45637D1*
G75*
G3X145670Y45781I0J492D1*
G74*
G1X147336Y47447D1*
G75*
G3X147480Y47795I-348J348D1*
G74*
G1X147480Y67215D1*
G75*
G3X147336Y67563I-492J0D1*
G74*
G1X147072Y67827D1*
G1X146296Y69582D2*
G75*
G3X147072Y67827I2655J125D1*
G1X146296Y69582D2*
G3X146235Y69797I-491J-23D1*
G74*
G1X146166Y69922D1*
G75*
G3X146103Y70010I-429J-241D1*
G1X152517Y70301D2*
G3X146103Y70010I-3325J2457D1*
G1X152517Y70301D2*
G3X152479Y69776I396J-293D1*
G1X152795Y68519D2*
G3X152479Y69776I-2657J0D1*
G74*
G1X152795Y68519D2*
G1X152795Y48758D1*
G75*
G3X153565Y48351I493J0D1*
G1X155062Y48813D2*
G3X153565Y48351I0J-2658D1*
G74*
G1X155062Y48813D2*
G1X177945Y48813D1*
G75*
G3X178293Y48957I0J492D1*
G74*
G1X184655Y55319D1*
G75*
G3X184799Y55667I-348J348D1*
G74*
G1X184799Y62074D1*
G75*
G3X184761Y62266I-492J2D1*
G74*
G1X184179Y63640D1*
G75*
G3X184123Y63739I-453J-191D1*
G1X190791Y63739D2*
G3X184123Y63739I-3334J2444D1*
G1X190791Y63739D2*
G3X190735Y63640I397J-290D1*
G74*
G1X190153Y62266D1*
G75*
G3X190114Y62074I454J-192D1*
G74*
G1X190114Y57684D1*
G75*
G3X190955Y57337I492J0D1*
G74*
G1X192766Y59148D1*
G1X194645Y59926D2*
G75*
G3X192766Y59148I0J-2658D1*
G74*
G1X194645Y59926D2*
G1X194924Y59926D1*
G75*
G3X195116Y59965I0J492D1*
G74*
G1X196490Y60546D1*
G75*
G3X196589Y60603I-194J452D1*
G1X196589Y53934D2*
G3X196589Y60602I2444J3334D1*
G1X196589Y53934D2*
G3X196490Y53991I-293J-395D1*
G74*
G1X195836Y54267D1*
G75*
G3X195297Y54162I-191J-453D1*
G74*
G1X194086Y52951D1*
G75*
G3X194422Y52111I348J-348D1*
G1X189792Y47481D2*
G3X194422Y52111I4526J104D1*
G1X189792Y47481D2*
G3X188952Y47817I-492J-12D1*
G74*
G1X181583Y40448D1*
G1X179704Y39670D2*
G75*
G3X181583Y40448I0J2657D1*
G74*
G1X179704Y39670D2*
G1X162586Y39670D1*
G75*
G3X162394Y39631I0J-492D1*
G74*
G1X160403Y38789D1*
G75*
G3X160297Y38727I194J-453D1*
G1X158157Y37840D2*
G3X160297Y38727I-606J4487D1*
G1X158157Y37840D2*
G3X158038Y37809I64J-488D1*
G74*
G1X156035Y36997D1*
G75*
G3X155872Y36889I185J-456D1*
G74*
G1X155026Y36043D1*
G1X153146Y35264D2*
G75*
G3X155026Y36043I0J2658D1*
G74*
G1X153146Y35264D2*
G1X130081Y35264D1*
G75*
G3X129733Y35120I0J-492D1*
G74*
G1X127452Y32839D1*
G1X125573Y32061D2*
G75*
G3X127452Y32839I0J2658D1*
G74*
G1X125573Y32061D2*
G1X102239Y32061D1*
G1X100360Y32839D2*
G75*
G3X102239Y32061I1879J1880D1*
G74*
G1X100360Y32839D2*
G1X99304Y33895D1*
G75*
G3X99139Y34004I-348J-348D1*
G74*
G1X97982Y34468D1*
G75*
G3X97842Y34502I-185J-456D1*
G1X102229Y39586D2*
G3X97842Y34502I-4019J-967D1*
G1X102229Y39586D2*
G3X102252Y39514I480J114D1*
G74*
G1X102945Y37824D1*
G75*
G3X103053Y37663I455J189D1*
G74*
G1X103196Y37520D1*
G75*
G3X103544Y37376I348J348D1*
G74*
G1X105345Y37376D1*
G75*
G3X105771Y38115I0J492D1*
G1X109436Y44903D2*
G3X105771Y38115I254J-4520D1*
G1X109436Y44903D2*
G3X109552Y44924I-29J491D1*
G74*
G1X109553Y44924D2*
G1X111511Y45521D1*
G1X112287Y45637D2*
G75*
G3X111511Y45521I1J-2658D1*
G74*
G1X112287Y45637D2*
G1X113179Y45637D1*
G75*
G3X113566Y46433I0J492D1*
G1X113111Y47137D2*
G3X113566Y46433I4014J2095D1*
G1X113111Y47137D2*
G3X112415Y47328I-437J-227D1*
G1X108035Y55240D2*
G3X112415Y47328I1989J-4067D1*
G1X108035Y55240D2*
G3X107751Y56170I-216J442D1*
G1X107383Y56144D2*
G3X107751Y56170I-3J2658D1*
G74*
G1X107383Y56144D2*
G1X67165Y56144D1*
G1X65286Y56922D2*
G75*
G3X67165Y56144I1879J1880D1*
G74*
G1X65286Y56922D2*
G1X62602Y59607D1*
G1X61823Y61486D2*
G75*
G3X62602Y59607I2658J1D1*
G74*
G1X61823Y61486D2*
G1X61823Y77655D1*
G75*
G3X60856Y77782I-492J0D1*
G1X52445Y76906D2*
G3X60856Y77782I4038J2048D1*
G1X52445Y76906D2*
G3X51620Y76989I-439J-222D1*
G1X45038Y76431D2*
G3X51620Y76989I3029J3365D1*
G1X45038Y76431D2*
G3X44224Y75980I-329J-366D1*
G1X42223Y70276D2*
G3X44224Y75980I-4070J4631D1*
G1X42223Y70276D2*
G3X42223Y69537I325J-369D1*
G1X42223Y60276D2*
G3X42223Y69537I-4070J4631D1*
G1X42223Y60276D2*
G3X42223Y59537I325J-369D1*
G1X43222Y51398D2*
G3X42223Y59537I-5069J3509D1*
G1X43222Y51398D2*
G3X43354Y50708I405J-280D1*
G1X44318Y48907D2*
G3X43354Y50708I-2165J0D1*
G74*
G1X44318Y48907D2*
G1X44318Y40907D1*
G1X42153Y38741D2*
G75*
G3X44318Y40907I-1J2166D1*
G74*
G1X42153Y38741D2*
G1X31153Y38741D1*
G1X28987Y40907D2*
G75*
G3X31153Y38741I2166J0D1*
G74*
G1X28987Y40907D2*
G1X28987Y48907D1*
G1X29951Y50708D2*
G75*
G3X28987Y48907I1202J-1802D1*
G1X29951Y50708D2*
G3X30083Y51398I-273J410D1*
G1X31082Y59537D2*
G3X30083Y51398I4071J-4631D1*
G1X31082Y59537D2*
G3X31082Y60276I-325J369D1*
G1X31082Y69537D2*
G3X31082Y60276I4071J-4631D1*
G1X31082Y69537D2*
G3X31082Y70276I-325J369D1*
G1X35153Y81072D2*
G3X31082Y70276I0J-6165D1*
G74*
G1X35153Y81072D2*
G1X38153Y81072D1*
G1X42700Y79070D2*
G75*
G3X38153Y81072I-4547J-4163D1*
G1X42700Y79070D2*
G3X43554Y79441I363J332D1*
G1X44082Y81945D2*
G3X43554Y79441I3985J-2148D1*
G1X44082Y81945D2*
G3X43956Y82564I-433J234D1*
G1X43341Y88424D2*
G3X43956Y82564I3191J-2627D1*
G1X43341Y88424D2*
G3X42817Y89207I-380J313D1*
G1X42186Y89113D2*
G3X42817Y89207I0J2166D1*
G74*
G1X42186Y89113D2*
G1X31186Y89113D1*
G1X29021Y91279D2*
G75*
G3X31186Y89113I2166J0D1*
G74*
G1X29021Y91279D2*
G1X29021Y99279D1*
G1X29985Y101080D2*
G75*
G3X29021Y99279I1201J-1801D1*
G1X29985Y101080D2*
G3X30117Y101770I-273J410D1*
G1X31116Y109909D2*
G3X30117Y101770I4070J-4630D1*
G1X31116Y109909D2*
G3X31116Y110648I-325J369D1*
G1X31116Y119909D2*
G3X31116Y110648I4070J-4631D1*
G1X31116Y119909D2*
G3X31116Y120648I-325J369D1*
G1X29781Y128244D2*
G3X31116Y120648I5405J-2965D1*
G1X29781Y128244D2*
G3X29350Y128973I-431J237D1*
G74*
G1X27343Y128973D1*
G75*
G3X26850Y128481I0J-493D1*
G74*
G1X26850Y31856D1*
G75*
G3X27728Y31550I492J0D1*
G1X45299Y16532D2*
G3X27729Y31550I-8515J7825D1*
G1X45299Y16532D2*
G3X45662Y15707I363J-333D1*
G74*
G1X237618Y15707D1*
G75*
G3X237966Y15851I0J492D1*
G74*
G1X239816Y17701D1*
G75*
G3X239516Y18539I-348J348D1*
G1X241102Y29036D2*
G3X239516Y18539I-1066J-5207D1*
G1X241102Y29036D2*
G3X241693Y29518I99J482D1*
G74*
G1X212961Y30679D2*
G1X212961Y19679D1*
G1X210796Y17514D2*
G75*
G3X212961Y19679I0J2165D1*
G74*
G1X210796Y17514D2*
G1X202796Y17514D1*
G1X200994Y18478D2*
G75*
G3X202796Y17514I1801J1201D1*
G1X200994Y18478D2*
G3X200305Y18610I-409J-273D1*
G1X192165Y19609D2*
G3X200305Y18610I4631J4070D1*
G1X192165Y19609D2*
G3X191426Y19609I-369J-325D1*
G1X182165Y19609D2*
G3X191426Y19609I4631J4070D1*
G1X182165Y19609D2*
G3X181426Y19609I-369J-325D1*
G1X172165Y19609D2*
G3X181426Y19609I4631J4070D1*
G1X172165Y19609D2*
G3X171426Y19609I-369J-325D1*
G1X162165Y19609D2*
G3X171426Y19609I4631J4070D1*
G1X162165Y19609D2*
G3X161426Y19609I-369J-325D1*
G1X152165Y19609D2*
G3X161426Y19609I4631J4070D1*
G1X152165Y19609D2*
G3X151426Y19609I-369J-325D1*
G1X142165Y19609D2*
G3X151426Y19609I4631J4070D1*
G1X142165Y19609D2*
G3X141426Y19609I-369J-325D1*
G1X130630Y23679D2*
G3X141426Y19609I6165J0D1*
G74*
G1X130630Y23679D2*
G1X130630Y26679D1*
G1X141426Y30750D2*
G75*
G3X130630Y26679I-4630J-4071D1*
G1X141426Y30750D2*
G3X142165Y30750I370J325D1*
G1X151426Y30750D2*
G3X142165Y30750I-4630J-4071D1*
G1X151426Y30750D2*
G3X152165Y30750I370J325D1*
G1X161426Y30750D2*
G3X152165Y30750I-4630J-4071D1*
G1X161426Y30750D2*
G3X162165Y30750I370J325D1*
G1X171426Y30750D2*
G3X162165Y30750I-4630J-4071D1*
G1X171426Y30750D2*
G3X172165Y30750I370J325D1*
G1X181426Y30750D2*
G3X172165Y30750I-4630J-4071D1*
G1X181426Y30750D2*
G3X182165Y30750I370J325D1*
G1X191426Y30750D2*
G3X182165Y30750I-4630J-4071D1*
G1X191426Y30750D2*
G3X192165Y30750I370J325D1*
G1X200305Y31749D2*
G3X192165Y30750I-3509J-5070D1*
G1X200305Y31749D2*
G3X200994Y31881I280J405D1*
G1X202796Y32845D2*
G3X200994Y31881I0J-2166D1*
G74*
G1X202796Y32845D2*
G1X210796Y32845D1*
G1X212961Y30679D2*
G75*
G3X210796Y32845I-2166J0D1*
G74*
G1X155970Y36965D2*
G1X241693Y36965D1*
G1X129826Y35194D2*
G1X241693Y35194D1*
G1X128034Y33422D2*
G1X241693Y33422D1*
G1X212731Y31650D2*
G1X241693Y31650D1*
G1X212961Y29879D2*
G1X241693Y29879D1*
G1X160311Y38737D2*
G1X241225Y38737D1*
G1X46080Y17477D2*
G1X239592Y17477D1*
G1X181643Y40509D2*
G1X239454Y40509D1*
G1X183415Y42280D2*
G1X237682Y42280D1*
G1X212918Y19249D2*
G1X237339Y19249D1*
G1X212961Y28107D2*
G1X236883Y28107D1*
G1X212961Y21020D2*
G1X235524Y21020D1*
G1X212961Y26335D2*
G1X235350Y26335D1*
G1X212961Y22792D2*
G1X234823Y22792D1*
G1X212961Y24564D2*
G1X234772Y24564D1*
G1X197150Y44052D2*
G1X233694Y44052D1*
G1X198489Y45824D2*
G1X231922Y45824D1*
G1X66795Y83028D2*
G1X230326Y83028D1*
G1X67138Y81257D2*
G1X230326Y81257D1*
G1X67138Y79485D2*
G1X230326Y79485D1*
G1X67138Y77713D2*
G1X230326Y77713D1*
G1X151828Y75942D2*
G1X230326Y75942D1*
G1X228777Y74170D2*
G1X230326Y74170D1*
G1X228192Y65312D2*
G1X230326Y65312D1*
G1X190692Y63540D2*
G1X230326Y63540D1*
G1X226150Y61768D2*
G1X230326Y61768D1*
G1X229163Y59997D2*
G1X230326Y59997D1*
G1X227547Y51139D2*
G1X230326Y51139D1*
G1X198480Y49367D2*
G1X230326Y49367D1*
G1X198846Y47595D2*
G1X230326Y47595D1*
G1X229692Y52910D2*
G1X229976Y52910D1*
G1X65160Y84800D2*
G1X221485Y84800D1*
G1X190114Y61768D2*
G1X220899Y61768D1*
G1X197124Y51139D2*
G1X219502Y51139D1*
G1X191498Y65312D2*
G1X218857Y65312D1*
G1X153077Y74170D2*
G1X218272Y74170D1*
G1X202139Y59997D2*
G1X217885Y59997D1*
G1X194049Y52910D2*
G1X217479Y52910D1*
G1X191492Y67083D2*
G1X217226Y67083D1*
G1X153310Y72398D2*
G1X216977Y72398D1*
G1X203054Y58225D2*
G1X216810Y58225D1*
G1X128741Y86572D2*
G1X216787Y86572D1*
G1X202257Y54682D2*
G1X216643Y54682D1*
G1X190611Y68855D2*
G1X216549Y68855D1*
G1X152734Y70627D2*
G1X216475Y70627D1*
G1X203086Y56453D2*
G1X216443Y56453D1*
G1X202199Y102516D2*
G1X216051Y102516D1*
G1X202156Y100745D2*
G1X216051Y100745D1*
G1X201222Y98973D2*
G1X216051Y98973D1*
G1X186181Y97201D2*
G1X216051Y97201D1*
G1X185482Y95430D2*
G1X216051Y95430D1*
G1X182149Y93658D2*
G1X216051Y93658D1*
G1X129809Y88343D2*
G1X215608Y88343D1*
G1X129240Y91887D2*
G1X215604Y91887D1*
G1X129939Y90115D2*
G1X215276Y90115D1*
G1X190114Y59997D2*
G1X195191Y59997D1*
G1X190443Y31650D2*
G1X193149Y31650D1*
G1X191083Y19249D2*
G1X192508Y19249D1*
G1X190114Y58225D2*
G1X191843Y58225D1*
G1X185186Y44052D2*
G1X191487Y44052D1*
G1X186051Y98973D2*
G1X190672Y98973D1*
G1X186958Y45824D2*
G1X190147Y45824D1*
G1X188730Y47595D2*
G1X189776Y47595D1*
G1X152795Y61768D2*
G1X184799Y61768D1*
G1X152795Y59997D2*
G1X184799Y59997D1*
G1X152795Y58225D2*
G1X184799Y58225D1*
G1X152795Y56453D2*
G1X184799Y56453D1*
G1X152774Y68855D2*
G1X184303Y68855D1*
G1X152795Y63540D2*
G1X184221Y63540D1*
G1X152795Y54682D2*
G1X184018Y54682D1*
G1X152795Y67083D2*
G1X183422Y67083D1*
G1X152795Y65312D2*
G1X183416Y65312D1*
G1X180443Y31650D2*
G1X183149Y31650D1*
G1X181083Y19249D2*
G1X182508Y19249D1*
G1X152795Y52910D2*
G1X182246Y52910D1*
G1X128458Y93658D2*
G1X182029Y93658D1*
G1X152795Y51139D2*
G1X180474Y51139D1*
G1X152795Y49367D2*
G1X178703Y49367D1*
G1X164631Y95430D2*
G1X178155Y95430D1*
G1X170443Y31650D2*
G1X173149Y31650D1*
G1X171083Y19249D2*
G1X172508Y19249D1*
G1X160443Y31650D2*
G1X163149Y31650D1*
G1X161083Y19249D2*
G1X162508Y19249D1*
G1X129161Y95430D2*
G1X160511Y95430D1*
G1X149359Y97201D2*
G1X158855Y97201D1*
G1X150629Y98973D2*
G1X158437Y98973D1*
G1X150443Y31650D2*
G1X153149Y31650D1*
G1X151083Y19249D2*
G1X152508Y19249D1*
G1X118196Y67083D2*
G1X147480Y67083D1*
G1X118427Y65312D2*
G1X147480Y65312D1*
G1X117930Y63540D2*
G1X147480Y63540D1*
G1X116284Y61768D2*
G1X147480Y61768D1*
G1X112337Y59997D2*
G1X147480Y59997D1*
G1X110565Y58225D2*
G1X147480Y58225D1*
G1X108648Y56453D2*
G1X147480Y56453D1*
G1X112886Y54682D2*
G1X147480Y54682D1*
G1X119766Y52910D2*
G1X147480Y52910D1*
G1X121231Y51139D2*
G1X147480Y51139D1*
G1X121650Y49367D2*
G1X147480Y49367D1*
G1X121345Y47595D2*
G1X147438Y47595D1*
G1X67138Y75942D2*
G1X146556Y75942D1*
G1X117082Y68855D2*
G1X146433Y68855D1*
G1X120683Y45824D2*
G1X145712Y45824D1*
G1X67138Y70627D2*
G1X145650Y70627D1*
G1X67138Y74170D2*
G1X145307Y74170D1*
G1X67138Y72398D2*
G1X145074Y72398D1*
G1X130933Y97201D2*
G1X144149Y97201D1*
G1X137820Y102516D2*
G1X143196Y102516D1*
G1X140443Y31650D2*
G1X143149Y31650D1*
G1X132705Y98973D2*
G1X142878Y98973D1*
G1X136527Y100745D2*
G1X142633Y100745D1*
G1X141083Y19249D2*
G1X142508Y19249D1*
G1X138076Y104288D2*
G1X139819Y104288D1*
G1X42581Y109603D2*
G1X134504Y109603D1*
G1X45759Y31650D2*
G1X133149Y31650D1*
G1X42958Y111375D2*
G1X132732Y111375D1*
G1X47159Y19249D2*
G1X132508Y19249D1*
G1X43798Y107831D2*
G1X132451Y107831D1*
G1X46945Y29879D2*
G1X131525Y29879D1*
G1X47857Y21020D2*
G1X131233Y21020D1*
G1X43971Y113146D2*
G1X130960Y113146D1*
G1X47724Y28107D2*
G1X130798Y28107D1*
G1X48242Y22792D2*
G1X130695Y22792D1*
G1X48178Y26335D2*
G1X130630Y26335D1*
G1X48347Y24564D2*
G1X130630Y24564D1*
G1X44302Y106060D2*
G1X130381Y106060D1*
G1X44272Y104288D2*
G1X129752Y104288D1*
G1X43698Y102516D2*
G1X128731Y102516D1*
G1X43780Y100745D2*
G1X126960Y100745D1*
G1X44352Y98973D2*
G1X125188Y98973D1*
G1X44352Y97201D2*
G1X123516Y97201D1*
G1X52376Y93658D2*
G1X123142Y93658D1*
G1X50997Y95430D2*
G1X123122Y95430D1*
G1X63389Y86572D2*
G1X122954Y86572D1*
G1X44341Y114918D2*
G1X122465Y114918D1*
G1X52676Y91887D2*
G1X122456Y91887D1*
G1X61165Y88343D2*
G1X121886Y88343D1*
G1X52173Y90115D2*
G1X121756Y90115D1*
G1X44318Y45824D2*
G1X113565Y45824D1*
G1X67138Y68855D2*
G1X110739Y68855D1*
G1X77823Y67083D2*
G1X109625Y67083D1*
G1X79559Y65312D2*
G1X109262Y65312D1*
G1X80092Y63540D2*
G1X108364Y63540D1*
G1X44318Y47595D2*
G1X107250Y47595D1*
G1X44314Y54682D2*
G1X107163Y54682D1*
G1X44318Y44052D2*
G1X107037Y44052D1*
G1X79999Y61768D2*
G1X106592Y61768D1*
G1X44268Y49367D2*
G1X105873Y49367D1*
G1X43986Y52910D2*
G1X105843Y52910D1*
G1X100129Y42280D2*
G1X105579Y42280D1*
G1X43135Y51139D2*
G1X105497Y51139D1*
G1X102571Y38737D2*
G1X105472Y38737D1*
G1X101887Y40509D2*
G1X105164Y40509D1*
G1X43965Y33422D2*
G1X99777Y33422D1*
G1X44318Y42280D2*
G1X96290Y42280D1*
G1X40823Y35194D2*
G1X95896Y35194D1*
G1X44281Y40509D2*
G1X94533Y40509D1*
G1X26850Y36965D2*
G1X94421Y36965D1*
G1X26850Y38737D2*
G1X94078Y38737D1*
G1X67138Y67083D2*
G1X73340Y67083D1*
G1X67138Y65312D2*
G1X71603Y65312D1*
G1X67956Y61768D2*
G1X71164Y61768D1*
G1X67138Y63540D2*
G1X71071Y63540D1*
G1X44121Y56453D2*
G1X65921Y56453D1*
G1X43349Y58225D2*
G1X63983Y58225D1*
G1X42064Y59997D2*
G1X62280Y59997D1*
G1X59863Y75942D2*
G1X61823Y75942D1*
G1X44274Y74170D2*
G1X61823Y74170D1*
G1X43785Y72398D2*
G1X61823Y72398D1*
G1X42590Y70627D2*
G1X61823Y70627D1*
G1X42888Y68855D2*
G1X61823Y68855D1*
G1X43921Y67083D2*
G1X61823Y67083D1*
G1X44305Y65312D2*
G1X61823Y65312D1*
G1X44165Y63540D2*
G1X61823Y63540D1*
G1X43459Y61768D2*
G1X61823Y61768D1*
G1X60837Y77713D2*
G1X61820Y77713D1*
G1X44188Y116690D2*
G1X58149Y116690D1*
G1X43467Y118461D2*
G1X56377Y118461D1*
G1X42092Y120233D2*
G1X54605Y120233D1*
G1X50443Y75942D2*
G1X53103Y75942D1*
G1X43411Y122005D2*
G1X52834Y122005D1*
G1X44166Y123776D2*
G1X51062Y123776D1*
G1X44346Y125548D2*
G1X49290Y125548D1*
G1X44004Y127320D2*
G1X47519Y127320D1*
G1X44352Y95430D2*
G1X46097Y95430D1*
G1X44230Y75942D2*
G1X45691Y75942D1*
G1X26850Y81257D2*
G1X43782Y81257D1*
G1X42282Y79485D2*
G1X43550Y79485D1*
G1X26850Y83028D2*
G1X43462Y83028D1*
G1X26850Y88343D2*
G1X43276Y88343D1*
G1X26850Y84800D2*
G1X42520Y84800D1*
G1X26850Y86572D2*
G1X42472Y86572D1*
G1X26850Y35194D2*
G1X32744Y35194D1*
G1X26850Y120233D2*
G1X31281Y120233D1*
G1X26850Y59997D2*
G1X31241Y59997D1*
G1X26850Y79485D2*
G1X31023Y79485D1*
G1X26850Y109603D2*
G1X30792Y109603D1*
G1X26850Y70627D2*
G1X30715Y70627D1*
G1X26850Y68855D2*
G1X30417Y68855D1*
G1X26850Y111375D2*
G1X30415Y111375D1*
G1X26850Y51139D2*
G1X30170Y51139D1*
G1X26850Y122005D2*
G1X29962Y122005D1*
G1X26850Y58225D2*
G1X29956Y58225D1*
G1X26850Y118461D2*
G1X29906Y118461D1*
G1X26850Y61768D2*
G1X29846Y61768D1*
G1X26850Y102516D2*
G1X29674Y102516D1*
G1X26850Y77713D2*
G1X29663Y77713D1*
G1X26850Y33422D2*
G1X29602Y33422D1*
G1X26850Y100745D2*
G1X29593Y100745D1*
G1X26850Y107831D2*
G1X29574Y107831D1*
G1X26850Y72398D2*
G1X29520Y72398D1*
G1X26850Y113146D2*
G1X29401Y113146D1*
G1X26850Y67083D2*
G1X29384Y67083D1*
G1X26850Y127320D2*
G1X29369Y127320D1*
G1X26850Y90115D2*
G1X29360Y90115D1*
G1X26850Y52910D2*
G1X29319Y52910D1*
G1X26850Y123776D2*
G1X29207Y123776D1*
G1X26850Y116690D2*
G1X29185Y116690D1*
G1X26850Y56453D2*
G1X29184Y56453D1*
G1X26850Y63540D2*
G1X29140Y63540D1*
G1X26850Y104288D2*
G1X29101Y104288D1*
G1X26850Y75942D2*
G1X29075Y75942D1*
G1X26850Y106060D2*
G1X29071Y106060D1*
G1X26850Y49367D2*
G1X29037Y49367D1*
G1X26850Y114918D2*
G1X29032Y114918D1*
G1X26850Y74170D2*
G1X29031Y74170D1*
G1X26850Y125548D2*
G1X29027Y125548D1*
G1X26850Y40509D2*
G1X29024Y40509D1*
G1X26850Y98973D2*
G1X29021Y98973D1*
G1X26850Y97201D2*
G1X29021Y97201D1*
G1X26850Y95430D2*
G1X29021Y95430D1*
G1X26850Y93658D2*
G1X29021Y93658D1*
G1X26850Y91887D2*
G1X29021Y91887D1*
G1X26850Y65312D2*
G1X29000Y65312D1*
G1X26850Y54682D2*
G1X28991Y54682D1*
G1X26850Y47595D2*
G1X28987Y47595D1*
G1X26850Y45824D2*
G1X28987Y45824D1*
G1X26850Y44052D2*
G1X28987Y44052D1*
G1X26850Y42280D2*
G1X28987Y42280D1*
G1X26896Y31650D2*
G1X27809Y31650D1*
G1X205171Y28711D2*
G54D54*
G1X208755Y31889D1*
G1X208827Y28711D1*
G1X220738Y70140D2*
G1X220081Y66534D1*
G1X225110Y68615D1*
G1X220081Y66534D2*
G1X222924Y69377D1*
G1X206796Y25179D2*
G1X208755Y27138D1*
G1X208755Y55207D1*
G1X223524Y69977D1*
G1X272633Y72538D2*
G1X230254Y114917D1*
G1X225483Y115051D1*
G1X246907Y86415D2*
G1X246907Y86998D1*
G1X310567Y99526D2*
G1X310567Y105598D1*
G1X295269Y120896D1*
G1X272531Y120896D1*
G1X310567Y99526D2*
G1X310567Y105598D1*
G1X295269Y120896D1*
G1X310567Y97814D2*
G1X310567Y98640D1*
G1X272531Y120896D2*
G1X272531Y120694D1*
G1X272531Y120896D1*
G1X295269Y120896D1*
G1X47298Y18791D3*
G1X62129Y18345D3*
G1X71148Y18197D3*
G1X55325Y18722D3*
G1X79976Y18414D3*
G1X88003Y18345D3*
G1X96688Y18145D3*
G1X114535Y18214D3*
G1X105707Y17998D3*
G1X98210Y38619D3*
G1X121260Y39219D3*
G1X77146Y41532D3*
G1X173444Y51865D3*
G1X166596Y51865D3*
G1X199033Y57268D3*
G1X236451Y59945D3*
G1X68670Y71700D3*
G1X69132Y66426D3*
G1X149192Y72758D3*
G1X171995Y67335D3*
G1X187457Y66183D3*
G1X272633Y72538D3*
G1X48547Y92100D3*
G1X46532Y85797D3*
G1X94244Y91484D3*
G1X86299Y99345D3*
G1X94369Y83622D3*
G1X86424Y91484D3*
G1X86413Y83637D3*
G1X94286Y99345D3*
G1X102147Y91484D3*
G1X102273Y99596D3*
G1X102064Y83664D3*
G1X125848Y89524D3*
G1X150893Y94757D3*
G1X162571Y99014D3*
G1X182602Y92324D3*
G1X182089Y97792D3*
G1X133953Y103980D3*
G1X146754Y100411D3*
G1X145984Y108176D3*
G1X146369Y115545D3*
G1X159746Y119884D3*
G1X198140Y101728D3*
G1X194832Y108176D3*
G1X200167Y108369D3*
G1X173854Y122090D3*
G1X166774Y120782D3*
G1X183581Y122568D3*
G1X188154Y136910D3*
G1X194744Y136596D3*
G1X201648Y136491D3*
G1X208866Y137119D3*
G1X197908Y129466D3*
G1X204498Y129152D3*
G1X211402Y129047D3*
G1X218620Y129675D3*
G1X316015Y131967D3*
G1X188325Y154535D3*
G1X188410Y145294D3*
G1X194915Y154221D3*
G1X201819Y154116D3*
G1X209037Y154744D3*
G1X195001Y144981D3*
G1X201905Y144876D3*
G1X209123Y145504D3*
G1X216243Y159130D3*
G1X43345Y180221D3*
G1X68051Y173662D3*
G1X93156Y175384D3*
G1X112513Y174828D3*
G1X136457Y174336D3*
G1X156825Y173662D3*
G1X187640Y173101D3*
G1X194231Y172788D3*
G1X187983Y163604D3*
G1X194573Y163290D3*
G1X201135Y172683D3*
G1X208353Y173311D3*
G1X201477Y163186D3*
G1X208695Y163813D3*
G1X227625Y177140D3*
G1X237679Y167101D3*
G1X237845Y172461D3*
G1X37507Y196540D3*
G1X70001Y186554D3*
G1X83543Y196827D3*
G1X114902Y189174D3*
G1X126857Y196245D3*
G1X194145Y181600D3*
G1X194016Y198886D3*
G1X187555Y181914D3*
G1X208267Y182123D3*
G1X200967Y198779D3*
G1X201049Y181496D3*
G1X221459Y199121D3*
G1X221210Y193016D3*
G1X214917Y192580D3*
G1X214793Y199869D3*
G1X39678Y220167D3*
G1X193315Y212482D3*
G1X186411Y212586D3*
G1X179820Y212900D3*
G1X179982Y206372D3*
G1X186573Y206058D3*
G1X193477Y205953D3*
G1X200695Y206581D3*
G1X200533Y213109D3*
G1X221833Y205725D3*
G1X214606Y206972D3*
G1X33576Y220370D3*
G1X33752Y232938D3*
G1X33823Y226398D3*
G1X39126Y232938D3*
G1X56153Y226283D3*
G1X85776Y221615D3*
G1X80115Y221671D3*
G1X80559Y227444D3*
G1X100000Y226283D3*
G1X129873Y220747D3*
G1X123158Y220668D3*
G1X123252Y226283D3*
G1X143562Y226283D3*
G1X222742Y235747D3*
G1X311963Y133810D2*
G54D55*
G1X318332Y133810D1*
G1X321415Y130727D1*
G1X321415Y98135D1*
G1X318657Y95377D1*
G1X303255Y95377D1*
G1X280510Y117085D1*
G1X264156Y117085D1*
G1X260069Y121172D1*
G1X260069Y132512D1*
G1X261875Y134319D1*
G1X311963Y134319D1*
G1X311963Y133810D1*
G1X260069Y129391D2*
G1X321415Y129391D1*
G1X260069Y126557D2*
G1X321415Y126557D1*
G1X260069Y123722D2*
G1X321415Y123722D1*
G1X260353Y120887D2*
G1X321415Y120887D1*
G1X263188Y118053D2*
G1X321415Y118053D1*
G1X282466Y115218D2*
G1X321415Y115218D1*
G1X285436Y112383D2*
G1X321415Y112383D1*
G1X288406Y109549D2*
G1X321415Y109549D1*
G1X291376Y106714D2*
G1X321415Y106714D1*
G1X294346Y103879D2*
G1X321415Y103879D1*
G1X297316Y101045D2*
G1X321415Y101045D1*
G1X300286Y98210D2*
G1X321415Y98210D1*
G1X260069Y132226D2*
G1X319916Y132226D1*
G54D56*
G1X110024Y51173D3*
G1X109690Y40383D3*
G1X117124Y49233D3*
G1X157552Y42327D3*
G1X194318Y47585D3*
G1X48067Y79796D3*
G1X56483Y78954D3*
G1X75581Y63149D3*
G1X113911Y65624D3*
G1X180245Y60731D3*
G1X59575Y122971D3*
G1X67784Y122940D3*
G1X163429Y178971D3*
G1X164298Y189543D3*
G1X168544Y183375D3*
G1X258488Y175761D2*
G54D57*
G1X296725Y175761D1*
G1X300857Y171629D1*
G1X300857Y156817D1*
G1X298730Y154691D1*
G1X259513Y154691D1*
G1X256867Y157337D1*
G1X256867Y175026D1*
G1X257672Y175831D1*
G1X258488Y175831D1*
G1X258488Y175761D1*
G1X355375Y37418D2*
G1X355375Y81631D1*
G1X358365Y84620D1*
G1X398536Y84620D1*
G1X402564Y80592D1*
G1X402564Y72920D1*
G1X400666Y71021D1*
G1X368827Y71021D1*
G1X367168Y69362D1*
G1X367168Y39178D1*
G1X363733Y35743D1*
G1X355624Y35743D1*
G1X355376Y35991D1*
G1X355376Y37418D1*
G1X355375Y37418D1*
G1X377175Y46253D2*
G1X377175Y36583D1*
G1X379220Y34538D1*
G1X409699Y34538D1*
G1X414525Y39364D1*
G1X414525Y44896D1*
G1X411279Y48142D1*
G1X378535Y48142D1*
G1X377154Y46762D1*
G1X377154Y46253D1*
G1X377175Y46253D1*
G1X431054Y35539D2*
G1X431054Y66159D1*
G1X429808Y67406D1*
G1X429808Y111863D1*
G1X424291Y117380D1*
G1X416824Y124848D1*
G1X416824Y150665D1*
G1X418151Y151993D1*
G1X451584Y151993D1*
G1X456806Y146770D1*
G1X456806Y36451D1*
G1X453895Y33540D1*
G1X431745Y33540D1*
G1X431056Y34229D1*
G1X431056Y35539D1*
G1X431054Y35539D1*
G1X386650Y100776D2*
G1X362797Y100776D1*
G1X358976Y104596D1*
G1X358976Y146652D1*
G1X360991Y151716D1*
G1X392905Y151716D1*
G1X394518Y150103D1*
G1X394518Y106403D1*
G1X388939Y100824D1*
G1X386650Y100824D1*
G1X386650Y100776D1*
G1X330200Y208137D2*
G1X372462Y208137D1*
G1X374909Y205690D1*
G1X374909Y178012D1*
G1X376746Y176175D1*
G1X393621Y176175D1*
G1X396674Y179228D1*
G1X396674Y210029D1*
G1X381187Y225515D1*
G1X381303Y225400D1*
G1X330366Y225400D1*
G1X326005Y221038D1*
G1X326005Y208175D1*
G1X330200Y208175D1*
G1X330200Y208137D1*
G1X325440Y257543D2*
G1X325440Y241982D1*
G1X328848Y238574D1*
G1X394584Y238574D1*
G1X416658Y216500D1*
G1X416658Y178908D1*
G1X420893Y174673D1*
G1X438895Y174673D1*
G1X445220Y180997D1*
G1X445220Y216269D1*
G1X403946Y257543D1*
G1X325440Y257543D1*
G1X419053Y295195D2*
G1X419053Y263794D1*
G1X422626Y260220D1*
G1X453631Y260220D1*
G1X455926Y262515D1*
G1X455926Y281524D1*
G1X442256Y295195D1*
G1X419053Y295195D1*
G1X338246Y295400D2*
G1X271474Y295400D1*
G1X254713Y278639D1*
G1X246414Y270341D1*
G1X246414Y254206D1*
G1X250727Y249894D1*
G1X267335Y249894D1*
G1X295108Y270869D1*
G1X342508Y270869D1*
G1X344493Y272854D1*
G1X344493Y293839D1*
G1X342819Y295513D1*
G1X338246Y295513D1*
G1X338246Y295400D1*
G1X256867Y170988D2*
G1X300857Y170988D1*
G1X256867Y170280D2*
G1X300857Y170280D1*
G1X256867Y169571D2*
G1X300857Y169571D1*
G1X256867Y168862D2*
G1X300857Y168862D1*
G1X256867Y168154D2*
G1X300857Y168154D1*
G1X256867Y167445D2*
G1X300857Y167445D1*
G1X256867Y166736D2*
G1X300857Y166736D1*
G1X256867Y166028D2*
G1X300857Y166028D1*
G1X256867Y165319D2*
G1X300857Y165319D1*
G1X256867Y164610D2*
G1X300857Y164610D1*
G1X256867Y163902D2*
G1X300857Y163902D1*
G1X256867Y163193D2*
G1X300857Y163193D1*
G1X256867Y162484D2*
G1X300857Y162484D1*
G1X256867Y161776D2*
G1X300857Y161776D1*
G1X256867Y161067D2*
G1X300857Y161067D1*
G1X256867Y160359D2*
G1X300857Y160359D1*
G1X256867Y159650D2*
G1X300857Y159650D1*
G1X256867Y158941D2*
G1X300857Y158941D1*
G1X256867Y158233D2*
G1X300857Y158233D1*
G1X256867Y157524D2*
G1X300857Y157524D1*
G1X257389Y156815D2*
G1X300855Y156815D1*
G1X256867Y171697D2*
G1X300789Y171697D1*
G1X258097Y156107D2*
G1X300146Y156107D1*
G1X256867Y172406D2*
G1X300080Y172406D1*
G1X258806Y155398D2*
G1X299438Y155398D1*
G1X256867Y173114D2*
G1X299371Y173114D1*
G1X256867Y173823D2*
G1X298663Y173823D1*
G1X256867Y174532D2*
G1X297954Y174532D1*
G1X257082Y175240D2*
G1X297245Y175240D1*
G1X355375Y80387D2*
G1X402564Y80387D1*
G1X355375Y79678D2*
G1X402564Y79678D1*
G1X355375Y78970D2*
G1X402564Y78970D1*
G1X355375Y78261D2*
G1X402564Y78261D1*
G1X355375Y77552D2*
G1X402564Y77552D1*
G1X355375Y76844D2*
G1X402564Y76844D1*
G1X355375Y76135D2*
G1X402564Y76135D1*
G1X355375Y75426D2*
G1X402564Y75426D1*
G1X355375Y74718D2*
G1X402564Y74718D1*
G1X355375Y74009D2*
G1X402564Y74009D1*
G1X355375Y73300D2*
G1X402564Y73300D1*
G1X355375Y72592D2*
G1X402236Y72592D1*
G1X355375Y81096D2*
G1X402061Y81096D1*
G1X355375Y71883D2*
G1X401527Y71883D1*
G1X355549Y81804D2*
G1X401352Y81804D1*
G1X355375Y71174D2*
G1X400819Y71174D1*
G1X356257Y82513D2*
G1X400644Y82513D1*
G1X356966Y83222D2*
G1X399935Y83222D1*
G1X357675Y83930D2*
G1X399226Y83930D1*
G1X355375Y70466D2*
G1X368271Y70466D1*
G1X355375Y69757D2*
G1X367562Y69757D1*
G1X355375Y69048D2*
G1X367168Y69048D1*
G1X355375Y68340D2*
G1X367168Y68340D1*
G1X355375Y67631D2*
G1X367168Y67631D1*
G1X355375Y66922D2*
G1X367168Y66922D1*
G1X355375Y66214D2*
G1X367168Y66214D1*
G1X355375Y65505D2*
G1X367168Y65505D1*
G1X355375Y64796D2*
G1X367168Y64796D1*
G1X355375Y64088D2*
G1X367168Y64088D1*
G1X355375Y63379D2*
G1X367168Y63379D1*
G1X355375Y62670D2*
G1X367168Y62670D1*
G1X355375Y61962D2*
G1X367168Y61962D1*
G1X355375Y61253D2*
G1X367168Y61253D1*
G1X355375Y60544D2*
G1X367168Y60544D1*
G1X355375Y59836D2*
G1X367168Y59836D1*
G1X355375Y59127D2*
G1X367168Y59127D1*
G1X355375Y58418D2*
G1X367168Y58418D1*
G1X355375Y57710D2*
G1X367168Y57710D1*
G1X355375Y57001D2*
G1X367168Y57001D1*
G1X355375Y56292D2*
G1X367168Y56292D1*
G1X355375Y55584D2*
G1X367168Y55584D1*
G1X355375Y54875D2*
G1X367168Y54875D1*
G1X355375Y54166D2*
G1X367168Y54166D1*
G1X355375Y53458D2*
G1X367168Y53458D1*
G1X355375Y52749D2*
G1X367168Y52749D1*
G1X355375Y52040D2*
G1X367168Y52040D1*
G1X355375Y51332D2*
G1X367168Y51332D1*
G1X355375Y50623D2*
G1X367168Y50623D1*
G1X355375Y49915D2*
G1X367168Y49915D1*
G1X355375Y49206D2*
G1X367168Y49206D1*
G1X355375Y48497D2*
G1X367168Y48497D1*
G1X355375Y47789D2*
G1X367168Y47789D1*
G1X355375Y47080D2*
G1X367168Y47080D1*
G1X355375Y46371D2*
G1X367168Y46371D1*
G1X355375Y45663D2*
G1X367168Y45663D1*
G1X355375Y44954D2*
G1X367168Y44954D1*
G1X355375Y44245D2*
G1X367168Y44245D1*
G1X355375Y43537D2*
G1X367168Y43537D1*
G1X355375Y42828D2*
G1X367168Y42828D1*
G1X355375Y42119D2*
G1X367168Y42119D1*
G1X355375Y41411D2*
G1X367168Y41411D1*
G1X355375Y40702D2*
G1X367168Y40702D1*
G1X355375Y39993D2*
G1X367168Y39993D1*
G1X355375Y39285D2*
G1X367168Y39285D1*
G1X355375Y38576D2*
G1X366566Y38576D1*
G1X355375Y37867D2*
G1X365857Y37867D1*
G1X355376Y37159D2*
G1X365149Y37159D1*
G1X355376Y36450D2*
G1X364440Y36450D1*
G1X377175Y44458D2*
G1X414525Y44458D1*
G1X377175Y43749D2*
G1X414525Y43749D1*
G1X377175Y43041D2*
G1X414525Y43041D1*
G1X377175Y42332D2*
G1X414525Y42332D1*
G1X377175Y41623D2*
G1X414525Y41623D1*
G1X377175Y40915D2*
G1X414525Y40915D1*
G1X377175Y40206D2*
G1X414525Y40206D1*
G1X377175Y39497D2*
G1X414525Y39497D1*
G1X377175Y45167D2*
G1X414254Y45167D1*
G1X377175Y38789D2*
G1X413949Y38789D1*
G1X377175Y45875D2*
G1X413545Y45875D1*
G1X377175Y38080D2*
G1X413241Y38080D1*
G1X377154Y46584D2*
G1X412837Y46584D1*
G1X377175Y37371D2*
G1X412532Y37371D1*
G1X377686Y47293D2*
G1X412128Y47293D1*
G1X377175Y36663D2*
G1X411823Y36663D1*
G1X378394Y48001D2*
G1X411419Y48001D1*
G1X377804Y35954D2*
G1X411115Y35954D1*
G1X378512Y35245D2*
G1X410406Y35245D1*
G1X416824Y146216D2*
G1X456806Y146216D1*
G1X416824Y145507D2*
G1X456806Y145507D1*
G1X416824Y144798D2*
G1X456806Y144798D1*
G1X416824Y144090D2*
G1X456806Y144090D1*
G1X416824Y143381D2*
G1X456806Y143381D1*
G1X416824Y142672D2*
G1X456806Y142672D1*
G1X416824Y141964D2*
G1X456806Y141964D1*
G1X416824Y141255D2*
G1X456806Y141255D1*
G1X416824Y140546D2*
G1X456806Y140546D1*
G1X416824Y139838D2*
G1X456806Y139838D1*
G1X416824Y139129D2*
G1X456806Y139129D1*
G1X416824Y138421D2*
G1X456806Y138421D1*
G1X416824Y137712D2*
G1X456806Y137712D1*
G1X416824Y137003D2*
G1X456806Y137003D1*
G1X416824Y136295D2*
G1X456806Y136295D1*
G1X416824Y135586D2*
G1X456806Y135586D1*
G1X416824Y134877D2*
G1X456806Y134877D1*
G1X416824Y134169D2*
G1X456806Y134169D1*
G1X416824Y133460D2*
G1X456806Y133460D1*
G1X416824Y132751D2*
G1X456806Y132751D1*
G1X416824Y132043D2*
G1X456806Y132043D1*
G1X416824Y131334D2*
G1X456806Y131334D1*
G1X416824Y130625D2*
G1X456806Y130625D1*
G1X416824Y129917D2*
G1X456806Y129917D1*
G1X416824Y129208D2*
G1X456806Y129208D1*
G1X416824Y128499D2*
G1X456806Y128499D1*
G1X416824Y127791D2*
G1X456806Y127791D1*
G1X416824Y127082D2*
G1X456806Y127082D1*
G1X416824Y126373D2*
G1X456806Y126373D1*
G1X416824Y125665D2*
G1X456806Y125665D1*
G1X416824Y124956D2*
G1X456806Y124956D1*
G1X417424Y124247D2*
G1X456806Y124247D1*
G1X418132Y123539D2*
G1X456806Y123539D1*
G1X418841Y122830D2*
G1X456806Y122830D1*
G1X419550Y122121D2*
G1X456806Y122121D1*
G1X420258Y121413D2*
G1X456806Y121413D1*
G1X420967Y120704D2*
G1X456806Y120704D1*
G1X421676Y119995D2*
G1X456806Y119995D1*
G1X422384Y119287D2*
G1X456806Y119287D1*
G1X423093Y118578D2*
G1X456806Y118578D1*
G1X423802Y117869D2*
G1X456806Y117869D1*
G1X424510Y117161D2*
G1X456806Y117161D1*
G1X425219Y116452D2*
G1X456806Y116452D1*
G1X425928Y115743D2*
G1X456806Y115743D1*
G1X426636Y115035D2*
G1X456806Y115035D1*
G1X427345Y114326D2*
G1X456806Y114326D1*
G1X428054Y113617D2*
G1X456806Y113617D1*
G1X428762Y112909D2*
G1X456806Y112909D1*
G1X429471Y112200D2*
G1X456806Y112200D1*
G1X429808Y111491D2*
G1X456806Y111491D1*
G1X429808Y110783D2*
G1X456806Y110783D1*
G1X429808Y110074D2*
G1X456806Y110074D1*
G1X429808Y109365D2*
G1X456806Y109365D1*
G1X429808Y108657D2*
G1X456806Y108657D1*
G1X429808Y107948D2*
G1X456806Y107948D1*
G1X429808Y107239D2*
G1X456806Y107239D1*
G1X429808Y106531D2*
G1X456806Y106531D1*
G1X429808Y105822D2*
G1X456806Y105822D1*
G1X429808Y105113D2*
G1X456806Y105113D1*
G1X429808Y104405D2*
G1X456806Y104405D1*
G1X429808Y103696D2*
G1X456806Y103696D1*
G1X429808Y102987D2*
G1X456806Y102987D1*
G1X429808Y102279D2*
G1X456806Y102279D1*
G1X429808Y101570D2*
G1X456806Y101570D1*
G1X429808Y100861D2*
G1X456806Y100861D1*
G1X429808Y100153D2*
G1X456806Y100153D1*
G1X429808Y99444D2*
G1X456806Y99444D1*
G1X429808Y98735D2*
G1X456806Y98735D1*
G1X429808Y98027D2*
G1X456806Y98027D1*
G1X429808Y97318D2*
G1X456806Y97318D1*
G1X429808Y96609D2*
G1X456806Y96609D1*
G1X429808Y95901D2*
G1X456806Y95901D1*
G1X429808Y95192D2*
G1X456806Y95192D1*
G1X429808Y94483D2*
G1X456806Y94483D1*
G1X429808Y93775D2*
G1X456806Y93775D1*
G1X429808Y93066D2*
G1X456806Y93066D1*
G1X429808Y92358D2*
G1X456806Y92358D1*
G1X429808Y91649D2*
G1X456806Y91649D1*
G1X429808Y90940D2*
G1X456806Y90940D1*
G1X429808Y90232D2*
G1X456806Y90232D1*
G1X429808Y89523D2*
G1X456806Y89523D1*
G1X429808Y88814D2*
G1X456806Y88814D1*
G1X429808Y88106D2*
G1X456806Y88106D1*
G1X429808Y87397D2*
G1X456806Y87397D1*
G1X429808Y86688D2*
G1X456806Y86688D1*
G1X429808Y85980D2*
G1X456806Y85980D1*
G1X429808Y85271D2*
G1X456806Y85271D1*
G1X429808Y84562D2*
G1X456806Y84562D1*
G1X429808Y83854D2*
G1X456806Y83854D1*
G1X429808Y83145D2*
G1X456806Y83145D1*
G1X429808Y82436D2*
G1X456806Y82436D1*
G1X429808Y81728D2*
G1X456806Y81728D1*
G1X429808Y81019D2*
G1X456806Y81019D1*
G1X429808Y80310D2*
G1X456806Y80310D1*
G1X429808Y79602D2*
G1X456806Y79602D1*
G1X429808Y78893D2*
G1X456806Y78893D1*
G1X429808Y78184D2*
G1X456806Y78184D1*
G1X429808Y77476D2*
G1X456806Y77476D1*
G1X429808Y76767D2*
G1X456806Y76767D1*
G1X429808Y76058D2*
G1X456806Y76058D1*
G1X429808Y75350D2*
G1X456806Y75350D1*
G1X429808Y74641D2*
G1X456806Y74641D1*
G1X429808Y73932D2*
G1X456806Y73932D1*
G1X429808Y73224D2*
G1X456806Y73224D1*
G1X429808Y72515D2*
G1X456806Y72515D1*
G1X429808Y71806D2*
G1X456806Y71806D1*
G1X429808Y71098D2*
G1X456806Y71098D1*
G1X429808Y70389D2*
G1X456806Y70389D1*
G1X429808Y69680D2*
G1X456806Y69680D1*
G1X429808Y68972D2*
G1X456806Y68972D1*
G1X429808Y68263D2*
G1X456806Y68263D1*
G1X429808Y67554D2*
G1X456806Y67554D1*
G1X430368Y66846D2*
G1X456806Y66846D1*
G1X431054Y66137D2*
G1X456806Y66137D1*
G1X431054Y65428D2*
G1X456806Y65428D1*
G1X431054Y64720D2*
G1X456806Y64720D1*
G1X431054Y64011D2*
G1X456806Y64011D1*
G1X431054Y63302D2*
G1X456806Y63302D1*
G1X431054Y62594D2*
G1X456806Y62594D1*
G1X431054Y61885D2*
G1X456806Y61885D1*
G1X431054Y61176D2*
G1X456806Y61176D1*
G1X431054Y60468D2*
G1X456806Y60468D1*
G1X431054Y59759D2*
G1X456806Y59759D1*
G1X431054Y59050D2*
G1X456806Y59050D1*
G1X431054Y58342D2*
G1X456806Y58342D1*
G1X431054Y57633D2*
G1X456806Y57633D1*
G1X431054Y56924D2*
G1X456806Y56924D1*
G1X431054Y56216D2*
G1X456806Y56216D1*
G1X431054Y55507D2*
G1X456806Y55507D1*
G1X431054Y54798D2*
G1X456806Y54798D1*
G1X431054Y54090D2*
G1X456806Y54090D1*
G1X431054Y53381D2*
G1X456806Y53381D1*
G1X431054Y52672D2*
G1X456806Y52672D1*
G1X431054Y51964D2*
G1X456806Y51964D1*
G1X431054Y51255D2*
G1X456806Y51255D1*
G1X431054Y50546D2*
G1X456806Y50546D1*
G1X431054Y49838D2*
G1X456806Y49838D1*
G1X431054Y49129D2*
G1X456806Y49129D1*
G1X431054Y48421D2*
G1X456806Y48421D1*
G1X431054Y47712D2*
G1X456806Y47712D1*
G1X431054Y47003D2*
G1X456806Y47003D1*
G1X431054Y46295D2*
G1X456806Y46295D1*
G1X431054Y45586D2*
G1X456806Y45586D1*
G1X431054Y44877D2*
G1X456806Y44877D1*
G1X431054Y44169D2*
G1X456806Y44169D1*
G1X431054Y43460D2*
G1X456806Y43460D1*
G1X431054Y42751D2*
G1X456806Y42751D1*
G1X431054Y42043D2*
G1X456806Y42043D1*
G1X431054Y41334D2*
G1X456806Y41334D1*
G1X431054Y40625D2*
G1X456806Y40625D1*
G1X431054Y39917D2*
G1X456806Y39917D1*
G1X431054Y39208D2*
G1X456806Y39208D1*
G1X431054Y38499D2*
G1X456806Y38499D1*
G1X431054Y37791D2*
G1X456806Y37791D1*
G1X431054Y37082D2*
G1X456806Y37082D1*
G1X431054Y36373D2*
G1X456728Y36373D1*
G1X416824Y146924D2*
G1X456652Y146924D1*
G1X431054Y35665D2*
G1X456019Y35665D1*
G1X416824Y147633D2*
G1X455943Y147633D1*
G1X431056Y34956D2*
G1X455311Y34956D1*
G1X416824Y148342D2*
G1X455235Y148342D1*
G1X431056Y34247D2*
G1X454602Y34247D1*
G1X416824Y149050D2*
G1X454526Y149050D1*
G1X416824Y149759D2*
G1X453817Y149759D1*
G1X416824Y150468D2*
G1X453109Y150468D1*
G1X417335Y151176D2*
G1X452400Y151176D1*
G1X418043Y151885D2*
G1X451691Y151885D1*
G1X360178Y149672D2*
G1X394518Y149672D1*
G1X359896Y148964D2*
G1X394518Y148964D1*
G1X359614Y148255D2*
G1X394518Y148255D1*
G1X359332Y147546D2*
G1X394518Y147546D1*
G1X359050Y146838D2*
G1X394518Y146838D1*
G1X358976Y146129D2*
G1X394518Y146129D1*
G1X358976Y145420D2*
G1X394518Y145420D1*
G1X358976Y144712D2*
G1X394518Y144712D1*
G1X358976Y144003D2*
G1X394518Y144003D1*
G1X358976Y143294D2*
G1X394518Y143294D1*
G1X358976Y142586D2*
G1X394518Y142586D1*
G1X358976Y141877D2*
G1X394518Y141877D1*
G1X358976Y141168D2*
G1X394518Y141168D1*
G1X358976Y140460D2*
G1X394518Y140460D1*
G1X358976Y139751D2*
G1X394518Y139751D1*
G1X358976Y139042D2*
G1X394518Y139042D1*
G1X358976Y138334D2*
G1X394518Y138334D1*
G1X358976Y137625D2*
G1X394518Y137625D1*
G1X358976Y136916D2*
G1X394518Y136916D1*
G1X358976Y136208D2*
G1X394518Y136208D1*
G1X358976Y135499D2*
G1X394518Y135499D1*
G1X358976Y134790D2*
G1X394518Y134790D1*
G1X358976Y134082D2*
G1X394518Y134082D1*
G1X358976Y133373D2*
G1X394518Y133373D1*
G1X358976Y132664D2*
G1X394518Y132664D1*
G1X358976Y131956D2*
G1X394518Y131956D1*
G1X358976Y131247D2*
G1X394518Y131247D1*
G1X358976Y130538D2*
G1X394518Y130538D1*
G1X358976Y129830D2*
G1X394518Y129830D1*
G1X358976Y129121D2*
G1X394518Y129121D1*
G1X358976Y128412D2*
G1X394518Y128412D1*
G1X358976Y127704D2*
G1X394518Y127704D1*
G1X358976Y126995D2*
G1X394518Y126995D1*
G1X358976Y126286D2*
G1X394518Y126286D1*
G1X358976Y125578D2*
G1X394518Y125578D1*
G1X358976Y124869D2*
G1X394518Y124869D1*
G1X358976Y124160D2*
G1X394518Y124160D1*
G1X358976Y123452D2*
G1X394518Y123452D1*
G1X358976Y122743D2*
G1X394518Y122743D1*
G1X358976Y122035D2*
G1X394518Y122035D1*
G1X358976Y121326D2*
G1X394518Y121326D1*
G1X358976Y120617D2*
G1X394518Y120617D1*
G1X358976Y119909D2*
G1X394518Y119909D1*
G1X358976Y119200D2*
G1X394518Y119200D1*
G1X358976Y118491D2*
G1X394518Y118491D1*
G1X358976Y117783D2*
G1X394518Y117783D1*
G1X358976Y117074D2*
G1X394518Y117074D1*
G1X358976Y116365D2*
G1X394518Y116365D1*
G1X358976Y115657D2*
G1X394518Y115657D1*
G1X358976Y114948D2*
G1X394518Y114948D1*
G1X358976Y114239D2*
G1X394518Y114239D1*
G1X358976Y113531D2*
G1X394518Y113531D1*
G1X358976Y112822D2*
G1X394518Y112822D1*
G1X358976Y112113D2*
G1X394518Y112113D1*
G1X358976Y111405D2*
G1X394518Y111405D1*
G1X358976Y110696D2*
G1X394518Y110696D1*
G1X358976Y109987D2*
G1X394518Y109987D1*
G1X358976Y109279D2*
G1X394518Y109279D1*
G1X358976Y108570D2*
G1X394518Y108570D1*
G1X358976Y107861D2*
G1X394518Y107861D1*
G1X358976Y107153D2*
G1X394518Y107153D1*
G1X358976Y106444D2*
G1X394518Y106444D1*
G1X360460Y150381D2*
G1X394240Y150381D1*
G1X358976Y105735D2*
G1X393851Y105735D1*
G1X360742Y151090D2*
G1X393532Y151090D1*
G1X358976Y105027D2*
G1X393142Y105027D1*
G1X359255Y104318D2*
G1X392433Y104318D1*
G1X359963Y103609D2*
G1X391725Y103609D1*
G1X360672Y102901D2*
G1X391016Y102901D1*
G1X361381Y102192D2*
G1X390307Y102192D1*
G1X362089Y101483D2*
G1X389599Y101483D1*
G1X326005Y209481D2*
G1X396674Y209481D1*
G1X326005Y208773D2*
G1X396674Y208773D1*
G1X372535Y208064D2*
G1X396674Y208064D1*
G1X373244Y207355D2*
G1X396674Y207355D1*
G1X373953Y206647D2*
G1X396674Y206647D1*
G1X374661Y205938D2*
G1X396674Y205938D1*
G1X374909Y205229D2*
G1X396674Y205229D1*
G1X374909Y204521D2*
G1X396674Y204521D1*
G1X374909Y203812D2*
G1X396674Y203812D1*
G1X374909Y203103D2*
G1X396674Y203103D1*
G1X374909Y202395D2*
G1X396674Y202395D1*
G1X374909Y201686D2*
G1X396674Y201686D1*
G1X374909Y200977D2*
G1X396674Y200977D1*
G1X374909Y200269D2*
G1X396674Y200269D1*
G1X374909Y199560D2*
G1X396674Y199560D1*
G1X374909Y198851D2*
G1X396674Y198851D1*
G1X374909Y198143D2*
G1X396674Y198143D1*
G1X374909Y197434D2*
G1X396674Y197434D1*
G1X374909Y196725D2*
G1X396674Y196725D1*
G1X374909Y196017D2*
G1X396674Y196017D1*
G1X374909Y195308D2*
G1X396674Y195308D1*
G1X374909Y194599D2*
G1X396674Y194599D1*
G1X374909Y193891D2*
G1X396674Y193891D1*
G1X374909Y193182D2*
G1X396674Y193182D1*
G1X374909Y192473D2*
G1X396674Y192473D1*
G1X374909Y191765D2*
G1X396674Y191765D1*
G1X374909Y191056D2*
G1X396674Y191056D1*
G1X374909Y190347D2*
G1X396674Y190347D1*
G1X374909Y189639D2*
G1X396674Y189639D1*
G1X374909Y188930D2*
G1X396674Y188930D1*
G1X374909Y188221D2*
G1X396674Y188221D1*
G1X374909Y187513D2*
G1X396674Y187513D1*
G1X374909Y186804D2*
G1X396674Y186804D1*
G1X374909Y186095D2*
G1X396674Y186095D1*
G1X374909Y185387D2*
G1X396674Y185387D1*
G1X374909Y184678D2*
G1X396674Y184678D1*
G1X374909Y183969D2*
G1X396674Y183969D1*
G1X374909Y183261D2*
G1X396674Y183261D1*
G1X374909Y182552D2*
G1X396674Y182552D1*
G1X374909Y181843D2*
G1X396674Y181843D1*
G1X374909Y181135D2*
G1X396674Y181135D1*
G1X374909Y180426D2*
G1X396674Y180426D1*
G1X374909Y179717D2*
G1X396674Y179717D1*
G1X326005Y210190D2*
G1X396512Y210190D1*
G1X374909Y179009D2*
G1X396454Y179009D1*
G1X326005Y210899D2*
G1X395804Y210899D1*
G1X374909Y178300D2*
G1X395746Y178300D1*
G1X326005Y211607D2*
G1X395095Y211607D1*
G1X375330Y177591D2*
G1X395037Y177591D1*
G1X326005Y212316D2*
G1X394386Y212316D1*
G1X376039Y176883D2*
G1X394328Y176883D1*
G1X326005Y213025D2*
G1X393678Y213025D1*
G1X326005Y213733D2*
G1X392969Y213733D1*
G1X326005Y214442D2*
G1X392260Y214442D1*
G1X326005Y215151D2*
G1X391552Y215151D1*
G1X326005Y215859D2*
G1X390843Y215859D1*
G1X326005Y216568D2*
G1X390134Y216568D1*
G1X326005Y217277D2*
G1X389426Y217277D1*
G1X326005Y217985D2*
G1X388717Y217985D1*
G1X326005Y218694D2*
G1X388008Y218694D1*
G1X326005Y219403D2*
G1X387300Y219403D1*
G1X326005Y220111D2*
G1X386591Y220111D1*
G1X326005Y220820D2*
G1X385882Y220820D1*
G1X326495Y221528D2*
G1X385174Y221528D1*
G1X327204Y222237D2*
G1X384465Y222237D1*
G1X327913Y222946D2*
G1X383756Y222946D1*
G1X328621Y223654D2*
G1X383048Y223654D1*
G1X329330Y224363D2*
G1X382339Y224363D1*
G1X330039Y225072D2*
G1X381630Y225072D1*
G1X416658Y215774D2*
G1X445220Y215774D1*
G1X416658Y215065D2*
G1X445220Y215065D1*
G1X416658Y214356D2*
G1X445220Y214356D1*
G1X416658Y213648D2*
G1X445220Y213648D1*
G1X416658Y212939D2*
G1X445220Y212939D1*
G1X416658Y212230D2*
G1X445220Y212230D1*
G1X416658Y211522D2*
G1X445220Y211522D1*
G1X416658Y210813D2*
G1X445220Y210813D1*
G1X416658Y210104D2*
G1X445220Y210104D1*
G1X416658Y209396D2*
G1X445220Y209396D1*
G1X416658Y208687D2*
G1X445220Y208687D1*
G1X416658Y207979D2*
G1X445220Y207979D1*
G1X416658Y207270D2*
G1X445220Y207270D1*
G1X416658Y206561D2*
G1X445220Y206561D1*
G1X416658Y205853D2*
G1X445220Y205853D1*
G1X416658Y205144D2*
G1X445220Y205144D1*
G1X416658Y204435D2*
G1X445220Y204435D1*
G1X416658Y203727D2*
G1X445220Y203727D1*
G1X416658Y203018D2*
G1X445220Y203018D1*
G1X416658Y202309D2*
G1X445220Y202309D1*
G1X416658Y201601D2*
G1X445220Y201601D1*
G1X416658Y200892D2*
G1X445220Y200892D1*
G1X416658Y200183D2*
G1X445220Y200183D1*
G1X416658Y199475D2*
G1X445220Y199475D1*
G1X416658Y198766D2*
G1X445220Y198766D1*
G1X416658Y198057D2*
G1X445220Y198057D1*
G1X416658Y197349D2*
G1X445220Y197349D1*
G1X416658Y196640D2*
G1X445220Y196640D1*
G1X416658Y195931D2*
G1X445220Y195931D1*
G1X416658Y195223D2*
G1X445220Y195223D1*
G1X416658Y194514D2*
G1X445220Y194514D1*
G1X416658Y193805D2*
G1X445220Y193805D1*
G1X416658Y193097D2*
G1X445220Y193097D1*
G1X416658Y192388D2*
G1X445220Y192388D1*
G1X416658Y191679D2*
G1X445220Y191679D1*
G1X416658Y190971D2*
G1X445220Y190971D1*
G1X416658Y190262D2*
G1X445220Y190262D1*
G1X416658Y189553D2*
G1X445220Y189553D1*
G1X416658Y188845D2*
G1X445220Y188845D1*
G1X416658Y188136D2*
G1X445220Y188136D1*
G1X416658Y187427D2*
G1X445220Y187427D1*
G1X416658Y186719D2*
G1X445220Y186719D1*
G1X416658Y186010D2*
G1X445220Y186010D1*
G1X416658Y185301D2*
G1X445220Y185301D1*
G1X416658Y184593D2*
G1X445220Y184593D1*
G1X416658Y183884D2*
G1X445220Y183884D1*
G1X416658Y183175D2*
G1X445220Y183175D1*
G1X416658Y182467D2*
G1X445220Y182467D1*
G1X416658Y181758D2*
G1X445220Y181758D1*
G1X416658Y181049D2*
G1X445220Y181049D1*
G1X416658Y216482D2*
G1X445006Y216482D1*
G1X416658Y180341D2*
G1X444563Y180341D1*
G1X415967Y217191D2*
G1X444298Y217191D1*
G1X416658Y179632D2*
G1X443855Y179632D1*
G1X415258Y217900D2*
G1X443589Y217900D1*
G1X416658Y178923D2*
G1X443146Y178923D1*
G1X414550Y218608D2*
G1X442880Y218608D1*
G1X417351Y178215D2*
G1X442437Y178215D1*
G1X413841Y219317D2*
G1X442172Y219317D1*
G1X418060Y177506D2*
G1X441729Y177506D1*
G1X413132Y220026D2*
G1X441463Y220026D1*
G1X418769Y176797D2*
G1X441020Y176797D1*
G1X412424Y220734D2*
G1X440754Y220734D1*
G1X419477Y176089D2*
G1X440311Y176089D1*
G1X411715Y221443D2*
G1X440046Y221443D1*
G1X420186Y175380D2*
G1X439603Y175380D1*
G1X411006Y222152D2*
G1X439337Y222152D1*
G1X410298Y222860D2*
G1X438628Y222860D1*
G1X409589Y223569D2*
G1X437920Y223569D1*
G1X408880Y224278D2*
G1X437211Y224278D1*
G1X408172Y224986D2*
G1X436502Y224986D1*
G1X407463Y225695D2*
G1X435794Y225695D1*
G1X406754Y226404D2*
G1X435085Y226404D1*
G1X406046Y227112D2*
G1X434376Y227112D1*
G1X405337Y227821D2*
G1X433668Y227821D1*
G1X404628Y228530D2*
G1X432959Y228530D1*
G1X403920Y229238D2*
G1X432250Y229238D1*
G1X403211Y229947D2*
G1X431542Y229947D1*
G1X402502Y230656D2*
G1X430833Y230656D1*
G1X401794Y231364D2*
G1X430124Y231364D1*
G1X401085Y232073D2*
G1X429416Y232073D1*
G1X400376Y232782D2*
G1X428707Y232782D1*
G1X399668Y233490D2*
G1X427999Y233490D1*
G1X398959Y234199D2*
G1X427290Y234199D1*
G1X398250Y234908D2*
G1X426581Y234908D1*
G1X397542Y235616D2*
G1X425873Y235616D1*
G1X396833Y236325D2*
G1X425164Y236325D1*
G1X396124Y237034D2*
G1X424455Y237034D1*
G1X395416Y237742D2*
G1X423747Y237742D1*
G1X394707Y238451D2*
G1X423038Y238451D1*
G1X328263Y239160D2*
G1X422329Y239160D1*
G1X327554Y239868D2*
G1X421621Y239868D1*
G1X326845Y240577D2*
G1X420912Y240577D1*
G1X326137Y241286D2*
G1X420203Y241286D1*
G1X325440Y241994D2*
G1X419495Y241994D1*
G1X325440Y242703D2*
G1X418786Y242703D1*
G1X325440Y243412D2*
G1X418077Y243412D1*
G1X325440Y244120D2*
G1X417369Y244120D1*
G1X325440Y244829D2*
G1X416660Y244829D1*
G1X325440Y245538D2*
G1X415951Y245538D1*
G1X325440Y246246D2*
G1X415243Y246246D1*
G1X325440Y246955D2*
G1X414534Y246955D1*
G1X325440Y247664D2*
G1X413825Y247664D1*
G1X325440Y248372D2*
G1X413117Y248372D1*
G1X325440Y249081D2*
G1X412408Y249081D1*
G1X325440Y249790D2*
G1X411699Y249790D1*
G1X325440Y250498D2*
G1X410991Y250498D1*
G1X325440Y251207D2*
G1X410282Y251207D1*
G1X325440Y251916D2*
G1X409573Y251916D1*
G1X325440Y252624D2*
G1X408865Y252624D1*
G1X325440Y253333D2*
G1X408156Y253333D1*
G1X325440Y254041D2*
G1X407447Y254041D1*
G1X325440Y254750D2*
G1X406739Y254750D1*
G1X325440Y255459D2*
G1X406030Y255459D1*
G1X325440Y256167D2*
G1X405321Y256167D1*
G1X325440Y256876D2*
G1X404613Y256876D1*
G1X419053Y281479D2*
G1X455926Y281479D1*
G1X419053Y280770D2*
G1X455926Y280770D1*
G1X419053Y280061D2*
G1X455926Y280061D1*
G1X419053Y279353D2*
G1X455926Y279353D1*
G1X419053Y278644D2*
G1X455926Y278644D1*
G1X419053Y277935D2*
G1X455926Y277935D1*
G1X419053Y277227D2*
G1X455926Y277227D1*
G1X419053Y276518D2*
G1X455926Y276518D1*
G1X419053Y275809D2*
G1X455926Y275809D1*
G1X419053Y275101D2*
G1X455926Y275101D1*
G1X419053Y274392D2*
G1X455926Y274392D1*
G1X419053Y273683D2*
G1X455926Y273683D1*
G1X419053Y272975D2*
G1X455926Y272975D1*
G1X419053Y272266D2*
G1X455926Y272266D1*
G1X419053Y271557D2*
G1X455926Y271557D1*
G1X419053Y270849D2*
G1X455926Y270849D1*
G1X419053Y270140D2*
G1X455926Y270140D1*
G1X419053Y269431D2*
G1X455926Y269431D1*
G1X419053Y268723D2*
G1X455926Y268723D1*
G1X419053Y268014D2*
G1X455926Y268014D1*
G1X419053Y267305D2*
G1X455926Y267305D1*
G1X419053Y266597D2*
G1X455926Y266597D1*
G1X419053Y265888D2*
G1X455926Y265888D1*
G1X419053Y265179D2*
G1X455926Y265179D1*
G1X419053Y264471D2*
G1X455926Y264471D1*
G1X419084Y263762D2*
G1X455926Y263762D1*
G1X419793Y263053D2*
G1X455926Y263053D1*
G1X420502Y262345D2*
G1X455756Y262345D1*
G1X419053Y282187D2*
G1X455263Y282187D1*
G1X421210Y261636D2*
G1X455047Y261636D1*
G1X419053Y282896D2*
G1X454554Y282896D1*
G1X421919Y260927D2*
G1X454339Y260927D1*
G1X419053Y283605D2*
G1X453846Y283605D1*
G1X419053Y284313D2*
G1X453137Y284313D1*
G1X419053Y285022D2*
G1X452428Y285022D1*
G1X419053Y285731D2*
G1X451720Y285731D1*
G1X419053Y286439D2*
G1X451011Y286439D1*
G1X419053Y287148D2*
G1X450302Y287148D1*
G1X419053Y287857D2*
G1X449594Y287857D1*
G1X419053Y288565D2*
G1X448885Y288565D1*
G1X419053Y289274D2*
G1X448176Y289274D1*
G1X419053Y289983D2*
G1X447468Y289983D1*
G1X419053Y290691D2*
G1X446759Y290691D1*
G1X419053Y291400D2*
G1X446050Y291400D1*
G1X419053Y292109D2*
G1X445342Y292109D1*
G1X419053Y292817D2*
G1X444633Y292817D1*
G1X419053Y293526D2*
G1X443924Y293526D1*
G1X419053Y294235D2*
G1X443216Y294235D1*
G1X419053Y294943D2*
G1X442507Y294943D1*
G1X269903Y293829D2*
G1X344493Y293829D1*
G1X269194Y293121D2*
G1X344493Y293121D1*
G1X268486Y292412D2*
G1X344493Y292412D1*
G1X267777Y291703D2*
G1X344493Y291703D1*
G1X267068Y290995D2*
G1X344493Y290995D1*
G1X266360Y290286D2*
G1X344493Y290286D1*
G1X265651Y289577D2*
G1X344493Y289577D1*
G1X264942Y288869D2*
G1X344493Y288869D1*
G1X264234Y288160D2*
G1X344493Y288160D1*
G1X263525Y287451D2*
G1X344493Y287451D1*
G1X262816Y286743D2*
G1X344493Y286743D1*
G1X262108Y286034D2*
G1X344493Y286034D1*
G1X261399Y285326D2*
G1X344493Y285326D1*
G1X260690Y284617D2*
G1X344493Y284617D1*
G1X259982Y283908D2*
G1X344493Y283908D1*
G1X259273Y283200D2*
G1X344493Y283200D1*
G1X258564Y282491D2*
G1X344493Y282491D1*
G1X257856Y281782D2*
G1X344493Y281782D1*
G1X257147Y281074D2*
G1X344493Y281074D1*
G1X256438Y280365D2*
G1X344493Y280365D1*
G1X255730Y279656D2*
G1X344493Y279656D1*
G1X255021Y278948D2*
G1X344493Y278948D1*
G1X254312Y278239D2*
G1X344493Y278239D1*
G1X253604Y277530D2*
G1X344493Y277530D1*
G1X252895Y276822D2*
G1X344493Y276822D1*
G1X252186Y276113D2*
G1X344493Y276113D1*
G1X251478Y275404D2*
G1X344493Y275404D1*
G1X250769Y274696D2*
G1X344493Y274696D1*
G1X250061Y273987D2*
G1X344493Y273987D1*
G1X249352Y273278D2*
G1X344493Y273278D1*
G1X248643Y272570D2*
G1X344209Y272570D1*
G1X270612Y294538D2*
G1X343794Y294538D1*
G1X247935Y271861D2*
G1X343500Y271861D1*
G1X271320Y295247D2*
G1X343085Y295247D1*
G1X247226Y271152D2*
G1X342791Y271152D1*
G1X246517Y270444D2*
G1X294544Y270444D1*
G1X246414Y269735D2*
G1X293606Y269735D1*
G1X246414Y269026D2*
G1X292667Y269026D1*
G1X246414Y268318D2*
G1X291729Y268318D1*
G1X246414Y267609D2*
G1X290791Y267609D1*
G1X246414Y266900D2*
G1X289852Y266900D1*
G1X246414Y266192D2*
G1X288914Y266192D1*
G1X246414Y265483D2*
G1X287976Y265483D1*
G1X246414Y264774D2*
G1X287038Y264774D1*
G1X246414Y264066D2*
G1X286099Y264066D1*
G1X246414Y263357D2*
G1X285161Y263357D1*
G1X246414Y262648D2*
G1X284223Y262648D1*
G1X246414Y261940D2*
G1X283284Y261940D1*
G1X246414Y261231D2*
G1X282346Y261231D1*
G1X246414Y260522D2*
G1X281408Y260522D1*
G1X246414Y259814D2*
G1X280470Y259814D1*
G1X246414Y259105D2*
G1X279531Y259105D1*
G1X246414Y258396D2*
G1X278593Y258396D1*
G1X246414Y257688D2*
G1X277655Y257688D1*
G1X246414Y256979D2*
G1X276716Y256979D1*
G1X246414Y256270D2*
G1X275778Y256270D1*
G1X246414Y255562D2*
G1X274840Y255562D1*
G1X246414Y254853D2*
G1X273902Y254853D1*
G1X246476Y254144D2*
G1X272963Y254144D1*
G1X247185Y253436D2*
G1X272025Y253436D1*
G1X247893Y252727D2*
G1X271087Y252727D1*
G1X248602Y252018D2*
G1X270148Y252018D1*
G1X249310Y251310D2*
G1X269210Y251310D1*
G1X250019Y250601D2*
G1X268272Y250601D1*
G1X462656Y12673D2*
G75*
G3X464625Y14642I0J1969D1*
G74*
G1X464625Y306994D1*
G75*
G3X462656Y308963I-1969J0D1*
G74*
G1X24718Y308963D1*
G75*
G3X22749Y306994I0J-1969D1*
G74*
G1X22749Y14642D1*
G75*
G3X24718Y12673I1969J0D1*
G74*
G1X462656Y12673D1*
G1X64114Y173662D2*
G54D58*
G1X67077Y172687D1*
G1X65492Y173662D1*
G1X67077Y174636D1*
G1X64114Y173662D1*
G1X64858Y173417D2*
G1X65890Y173417D1*
G1X66961Y174598D2*
G1X67015Y174598D1*
G1X64114Y173662D3*
G1X65295Y173273D2*
G1X65295Y174050D1*
G1X66476Y172885D2*
G1X66476Y173057D1*
G1X66476Y174267D2*
G1X66476Y174439D1*
G1X152888Y173662D2*
G1X155851Y172687D1*
G1X154266Y173662D1*
G1X155851Y174636D1*
G1X152888Y173662D1*
G1X153632Y173417D2*
G1X154664Y173417D1*
G1X155735Y174598D2*
G1X155789Y174598D1*
G1X152888Y173662D3*
G1X154069Y173273D2*
G1X154069Y174050D1*
G1X155250Y172885D2*
G1X155250Y173057D1*
G1X155250Y174267D2*
G1X155250Y174439D1*
G1X227625Y181077D2*
G1X226651Y178115D1*
G1X227625Y179699D1*
G1X228600Y178115D1*
G1X227625Y181077D1*
G1X226660Y178141D2*
G1X226667Y178141D1*
G1X228583Y178141D2*
G1X228591Y178141D1*
G1X227048Y179322D2*
G1X227394Y179322D1*
G1X227857Y179322D2*
G1X228203Y179322D1*
G1X227437Y180504D2*
G1X227814Y180504D1*
G1X226651Y178115D3*
G1X227832Y179363D2*
G1X227832Y180449D1*
G1X225978Y233504D2*
G1X224098Y235993D1*
G1X224846Y234289D1*
G1X222988Y234391D1*
G1X225978Y233504D1*
G1X225476Y233653D2*
G1X225866Y233653D1*
G1X224606Y234834D2*
G1X224973Y234834D1*
G1X222988Y234391D3*
G1X224169Y234041D2*
G1X224169Y234326D1*
G1X224169Y235830D2*
G1X224169Y235898D1*
G1X225350Y233690D2*
G1X225350Y234335D1*
G1X129641Y199029D2*
G1X126857Y197623D1*
G1X128666Y198055D1*
G1X128235Y196245D1*
G1X129641Y199029D1*
G1X128424Y197039D2*
G1X128636Y197039D1*
G1X128039Y198220D2*
G1X129232Y198220D1*
G1X126857Y197623D3*
G1X128038Y197905D2*
G1X128038Y198220D1*
G1X129219Y198194D2*
G1X129219Y198816D1*
G1X130794Y196245D2*
G1X127831Y197219D1*
G1X129416Y196245D1*
G1X127831Y195271D1*
G1X130794Y196245D1*
G1X128786Y195858D2*
G1X129616Y195858D1*
G1X128125Y197039D2*
G1X128380Y197039D1*
G1X127831Y195271D3*
G1X127831Y197219D3*
G1X129012Y195659D2*
G1X129012Y195997D1*
G1X129012Y196493D2*
G1X129012Y196831D1*
G1X130193Y196048D2*
G1X130193Y196443D1*
G1X35744Y220298D2*
G1X38672Y219226D1*
G1X37121Y220252D1*
G1X38737Y221174D1*
G1X35744Y220298D1*
G1X37979Y219480D2*
G1X38289Y219480D1*
G1X36984Y220661D2*
G1X37838Y220661D1*
G1X35744Y220298D3*
G1X36925Y219866D2*
G1X36925Y220644D1*
G1X38106Y219433D2*
G1X38106Y219601D1*
G1X38106Y220814D2*
G1X38106Y220989D1*
G1X37511Y220239D2*
G1X34582Y221312D1*
G1X36134Y220285D1*
G1X34517Y219364D1*
G1X37511Y220239D1*
G1X34721Y219480D2*
G1X34914Y219480D1*
G1X35566Y220661D2*
G1X36359Y220661D1*
G1X34517Y219364D3*
G1X35699Y219709D2*
G1X35699Y220037D1*
G1X35699Y220573D2*
G1X35699Y220903D1*
G1X36880Y220055D2*
G1X36880Y220471D1*
G1X33737Y224304D2*
G1X32642Y221384D1*
G1X33681Y222927D1*
G1X34589Y221304D1*
G1X33737Y224304D1*
G1X32814Y221842D2*
G1X32951Y221842D1*
G1X34288Y221842D2*
G1X34436Y221842D1*
G1X33257Y223023D2*
G1X34101Y223023D1*
G1X33700Y224204D2*
G1X33765Y224204D1*
G1X32642Y221384D3*
G1X33823Y222672D2*
G1X33823Y224000D1*
G1X33662Y222464D2*
G1X34756Y225384D1*
G1X33718Y223841D1*
G1X32809Y225464D1*
G1X33662Y222464D1*
G1X33503Y223023D2*
G1X33871Y223023D1*
G1X33167Y224204D2*
G1X33514Y224204D1*
G1X33962Y224204D2*
G1X34314Y224204D1*
G1X32832Y225385D2*
G1X32853Y225385D1*
G1X32809Y225464D3*
G1X33990Y223341D2*
G1X33990Y224246D1*
G1X37354Y232938D2*
G1X34726Y233913D1*
G1X36311Y232938D1*
G1X34726Y231964D1*
G1X37354Y232938D1*
G1X35553Y232472D2*
G1X36097Y232472D1*
G1X35148Y233653D2*
G1X35426Y233653D1*
G1X34726Y231964D3*
G1X34726Y233913D3*
G1X35907Y232402D2*
G1X35907Y232690D1*
G1X35907Y233186D2*
G1X35907Y233475D1*
G1X37088Y232840D2*
G1X37088Y233037D1*
G1X35524Y232938D2*
G1X38151Y231964D1*
G1X36567Y232938D1*
G1X38151Y233913D1*
G1X35524Y232938D1*
G1X36781Y232472D2*
G1X37325Y232472D1*
G1X37452Y233653D2*
G1X37729Y233653D1*
G1X35524Y232938D3*
G1X36705Y232500D2*
G1X36705Y232853D1*
G1X36705Y233023D2*
G1X36705Y233376D1*
G1X37886Y232062D2*
G1X37886Y232127D1*
G1X37886Y233749D2*
G1X37886Y233814D1*
G1X33780Y230335D2*
G1X32838Y227362D1*
G1X33795Y228957D1*
G1X34786Y227383D1*
G1X33780Y230335D1*
G1X32960Y227748D2*
G1X33069Y227748D1*
G1X34556Y227748D2*
G1X34662Y227748D1*
G1X33334Y228929D2*
G1X33778Y228929D1*
G1X33813Y228929D2*
G1X34259Y228929D1*
G1X33709Y230110D2*
G1X33857Y230110D1*
G1X32838Y227362D3*
G1X34019Y228601D2*
G1X34019Y229634D1*
G1X33794Y229001D2*
G1X34737Y231974D1*
G1X33780Y230379D1*
G1X32788Y231953D1*
G1X33794Y229001D1*
G1X33417Y230110D2*
G1X34146Y230110D1*
G1X33014Y231291D2*
G1X33205Y231291D1*
G1X34327Y231291D2*
G1X34520Y231291D1*
G1X32788Y231953D3*
G1X33969Y229553D2*
G1X33969Y230695D1*
G1X103555Y226283D2*
G1X100975Y227258D1*
G1X102559Y226283D1*
G1X100975Y225309D1*
G1X103555Y226283D1*
G1X101099Y225385D2*
G1X101177Y225385D1*
G1X102099Y226567D2*
G1X102805Y226567D1*
G1X100975Y225309D3*
G1X100975Y227258D3*
G1X102156Y225755D2*
G1X102156Y226035D1*
G1X102156Y226532D2*
G1X102156Y226812D1*
G1X103337Y226201D2*
G1X103337Y226366D1*
G1X146903Y226283D2*
G1X144537Y227258D1*
G1X146121Y226283D1*
G1X144537Y225309D1*
G1X146903Y226283D1*
G1X144661Y225385D2*
G1X144722Y225385D1*
G1X145661Y226567D2*
G1X146215Y226567D1*
G1X144537Y225309D3*
G1X144537Y227258D3*
G1X145718Y225795D2*
G1X145718Y226035D1*
G1X145718Y226532D2*
G1X145718Y226771D1*
G1X146899Y226282D2*
G1X146899Y226285D1*
G1X63818Y169055D2*
G1X68051Y173662D1*
G1X63818Y178268D1*
G1X63818Y170207D2*
G1X68051Y173662D1*
G1X63818Y171359D1*
G1X63818Y172510D2*
G1X68051Y173662D1*
G1X63818Y173662D1*
G1X63818Y174813D2*
G1X68051Y173662D1*
G1X63818Y175965D1*
G1X63818Y177116D2*
G1X68051Y173662D1*
G1X61456Y173662D1*
G1X85673Y173662D2*
G1X87217Y173662D1*
G1X88342Y173662D1*
G1X151037Y169055D2*
G1X155643Y173662D1*
G1X151037Y178268D1*
G1X151037Y170207D2*
G1X155643Y173662D1*
G1X151037Y171359D1*
G1X151037Y172510D2*
G1X155643Y173662D1*
G1X151037Y173662D1*
G1X151037Y174813D2*
G1X155643Y173662D1*
G1X151037Y175965D1*
G1X155643Y173662D2*
G1X151037Y177116D1*
G1X148675Y173662D2*
G1X156825Y173662D1*
G1X227625Y177140D2*
G1X227625Y232363D1*
G1X222742Y235747D1*
G1X96272Y199252D2*
G1X96253Y209550D1*
G1X126857Y196245D2*
G1X135975Y205363D1*
G1X135975Y208326D1*
G1X136415Y211063D1*
G1X155891Y193939D2*
G1X153585Y196245D1*
G1X126857Y196245D1*
G1X47384Y207742D2*
G1X48529Y211160D1*
G1X39678Y220167D2*
G1X33576Y220370D1*
G1X33823Y226398D1*
G1X39126Y232938D2*
G1X33752Y232938D1*
G1X33823Y226398D1*
G1X59093Y221677D2*
G1X56153Y226283D1*
G1X59093Y230890D1*
G1X59093Y222829D2*
G1X56153Y226283D1*
G1X59093Y223980D1*
G1X59093Y225132D2*
G1X56153Y226283D1*
G1X59093Y226283D1*
G1X59093Y227435D2*
G1X56153Y226283D1*
G1X59093Y228587D1*
G1X56153Y226283D2*
G1X59093Y229738D1*
G1X57154Y227230D2*
G1X59391Y226283D1*
G1X57154Y225337D1*
G1X59391Y226283D2*
G1X57531Y226283D1*
G1X61456Y226283D2*
G1X56153Y226283D1*
G1X102965Y221677D2*
G1X100000Y226283D1*
G1X102965Y230890D1*
G1X102965Y222829D2*
G1X100000Y226283D1*
G1X102965Y223980D1*
G1X102965Y225132D2*
G1X100000Y226283D1*
G1X102965Y226283D1*
G1X102965Y227435D2*
G1X100000Y226283D1*
G1X102965Y228587D1*
G1X102965Y229738D2*
G1X100000Y226283D1*
G1X105327Y226283D1*
G1X146312Y221677D2*
G1X143562Y226283D1*
G1X146312Y230890D1*
G1X146312Y222829D2*
G1X143562Y226283D1*
G1X146312Y223980D1*
G1X146312Y225132D2*
G1X143562Y226283D1*
G1X146312Y226283D1*
G1X146312Y227435D2*
G1X143562Y226283D1*
G1X146312Y228587D1*
G1X146312Y229738D2*
G1X143562Y226283D1*
G1X148675Y226283D1*
G1X40197Y271378D2*
G54D59*
G1X155697Y271378D1*
G1X171095Y286776D1*
G1X192770Y286776D1*
G1X194792Y284754D1*
G1X194792Y263201D1*
G1X179468Y239235D1*
G1X38729Y239235D1*
G1X36814Y241149D1*
G1X36814Y269524D1*
G1X38759Y271469D1*
G1X40197Y271469D1*
G1X40197Y271378D1*
G1X76882Y227858D2*
G1X76882Y188300D1*
G1X77475Y186447D1*
G1X109121Y186447D1*
G1X109920Y187245D1*
G1X109920Y213633D1*
G1X107154Y216398D1*
G1X94578Y216398D1*
G1X90719Y220257D1*
G1X90719Y234591D1*
G1X88791Y236520D1*
G1X78092Y236520D1*
G1X76868Y235295D1*
G1X76868Y227858D1*
G1X76882Y227858D1*
G1X30786Y235302D2*
G1X30786Y187548D1*
G1X31124Y186355D1*
G1X65627Y186355D1*
G1X66164Y186892D1*
G1X66164Y213962D1*
G1X63743Y216383D1*
G1X50990Y216383D1*
G1X47123Y220251D1*
G1X47123Y234503D1*
G1X45632Y235994D1*
G1X31246Y235994D1*
G1X30730Y235477D1*
G1X30730Y235302D1*
G1X30786Y235302D1*
G1X120187Y234826D2*
G1X120187Y187701D1*
G1X120448Y186782D1*
G1X155891Y186782D1*
G1X157778Y188668D1*
G1X157778Y215981D1*
G1X155421Y218338D1*
G1X136908Y218338D1*
G1X134421Y220825D1*
G1X134421Y234798D1*
G1X132559Y236660D1*
G1X121450Y236660D1*
G1X120185Y235395D1*
G1X120185Y234826D1*
G1X120187Y234826D1*
G1X196288Y227576D2*
G1X217672Y227576D1*
G1X223726Y221522D1*
G1X223726Y126947D1*
G1X215431Y118652D1*
G1X215431Y90593D1*
G1X231679Y74346D1*
G1X231679Y67162D1*
G1X228927Y64410D1*
G1X207669Y64410D1*
G1X204056Y68023D1*
G1X204056Y131221D1*
G1X178524Y156753D1*
G1X178524Y224677D1*
G1X181269Y227422D1*
G1X196288Y227422D1*
G1X196288Y227576D1*
G1X178677Y163745D2*
G1X178677Y153795D1*
G1X171101Y146220D1*
G1X171101Y141532D1*
G1X173625Y139009D1*
G1X197209Y139009D1*
G1X204115Y145915D1*
G1X204115Y158902D1*
G1X199273Y163745D1*
G1X178677Y163745D1*
G1X168907Y284588D2*
G1X194792Y284588D1*
G1X168553Y284233D2*
G1X194792Y284233D1*
G1X168198Y283879D2*
G1X194792Y283879D1*
G1X167844Y283525D2*
G1X194792Y283525D1*
G1X167490Y283170D2*
G1X194792Y283170D1*
G1X167135Y282816D2*
G1X194792Y282816D1*
G1X166781Y282462D2*
G1X194792Y282462D1*
G1X166427Y282107D2*
G1X194792Y282107D1*
G1X166072Y281753D2*
G1X194792Y281753D1*
G1X165718Y281399D2*
G1X194792Y281399D1*
G1X165364Y281044D2*
G1X194792Y281044D1*
G1X165009Y280690D2*
G1X194792Y280690D1*
G1X164655Y280336D2*
G1X194792Y280336D1*
G1X164301Y279981D2*
G1X194792Y279981D1*
G1X163946Y279627D2*
G1X194792Y279627D1*
G1X163592Y279273D2*
G1X194792Y279273D1*
G1X163238Y278918D2*
G1X194792Y278918D1*
G1X162883Y278564D2*
G1X194792Y278564D1*
G1X162529Y278210D2*
G1X194792Y278210D1*
G1X162175Y277855D2*
G1X194792Y277855D1*
G1X161820Y277501D2*
G1X194792Y277501D1*
G1X161466Y277147D2*
G1X194792Y277147D1*
G1X161112Y276792D2*
G1X194792Y276792D1*
G1X160757Y276438D2*
G1X194792Y276438D1*
G1X160403Y276084D2*
G1X194792Y276084D1*
G1X160049Y275729D2*
G1X194792Y275729D1*
G1X159694Y275375D2*
G1X194792Y275375D1*
G1X159340Y275021D2*
G1X194792Y275021D1*
G1X158986Y274666D2*
G1X194792Y274666D1*
G1X158631Y274312D2*
G1X194792Y274312D1*
G1X158277Y273958D2*
G1X194792Y273958D1*
G1X157923Y273603D2*
G1X194792Y273603D1*
G1X157568Y273249D2*
G1X194792Y273249D1*
G1X157214Y272895D2*
G1X194792Y272895D1*
G1X156860Y272540D2*
G1X194792Y272540D1*
G1X156505Y272186D2*
G1X194792Y272186D1*
G1X156151Y271832D2*
G1X194792Y271832D1*
G1X155797Y271477D2*
G1X194792Y271477D1*
G1X38413Y271123D2*
G1X194792Y271123D1*
G1X38059Y270769D2*
G1X194792Y270769D1*
G1X37705Y270414D2*
G1X194792Y270414D1*
G1X37350Y270060D2*
G1X194792Y270060D1*
G1X36996Y269706D2*
G1X194792Y269706D1*
G1X36814Y269351D2*
G1X194792Y269351D1*
G1X36814Y268997D2*
G1X194792Y268997D1*
G1X36814Y268643D2*
G1X194792Y268643D1*
G1X36814Y268288D2*
G1X194792Y268288D1*
G1X36814Y267934D2*
G1X194792Y267934D1*
G1X36814Y267580D2*
G1X194792Y267580D1*
G1X36814Y267225D2*
G1X194792Y267225D1*
G1X36814Y266871D2*
G1X194792Y266871D1*
G1X36814Y266517D2*
G1X194792Y266517D1*
G1X36814Y266162D2*
G1X194792Y266162D1*
G1X36814Y265808D2*
G1X194792Y265808D1*
G1X36814Y265454D2*
G1X194792Y265454D1*
G1X36814Y265099D2*
G1X194792Y265099D1*
G1X36814Y264745D2*
G1X194792Y264745D1*
G1X36814Y264391D2*
G1X194792Y264391D1*
G1X36814Y264036D2*
G1X194792Y264036D1*
G1X36814Y263682D2*
G1X194792Y263682D1*
G1X36814Y263328D2*
G1X194792Y263328D1*
G1X36814Y262973D2*
G1X194646Y262973D1*
G1X169261Y284942D2*
G1X194604Y284942D1*
G1X36814Y262619D2*
G1X194420Y262619D1*
G1X169615Y285296D2*
G1X194250Y285296D1*
G1X36814Y262265D2*
G1X194193Y262265D1*
G1X36814Y261910D2*
G1X193967Y261910D1*
G1X169970Y285651D2*
G1X193896Y285651D1*
G1X36814Y261556D2*
G1X193740Y261556D1*
G1X170324Y286005D2*
G1X193541Y286005D1*
G1X36814Y261202D2*
G1X193514Y261202D1*
G1X36814Y260847D2*
G1X193287Y260847D1*
G1X170678Y286359D2*
G1X193187Y286359D1*
G1X36814Y260493D2*
G1X193060Y260493D1*
G1X36814Y260139D2*
G1X192834Y260139D1*
G1X171033Y286714D2*
G1X192833Y286714D1*
G1X36814Y259784D2*
G1X192607Y259784D1*
G1X36814Y259430D2*
G1X192381Y259430D1*
G1X36814Y259076D2*
G1X192154Y259076D1*
G1X36814Y258721D2*
G1X191928Y258721D1*
G1X36814Y258367D2*
G1X191701Y258367D1*
G1X36814Y258013D2*
G1X191475Y258013D1*
G1X36814Y257658D2*
G1X191248Y257658D1*
G1X36814Y257304D2*
G1X191021Y257304D1*
G1X36814Y256950D2*
G1X190795Y256950D1*
G1X36814Y256595D2*
G1X190568Y256595D1*
G1X36814Y256241D2*
G1X190342Y256241D1*
G1X36814Y255887D2*
G1X190115Y255887D1*
G1X36814Y255532D2*
G1X189889Y255532D1*
G1X36814Y255178D2*
G1X189662Y255178D1*
G1X36814Y254824D2*
G1X189436Y254824D1*
G1X36814Y254469D2*
G1X189209Y254469D1*
G1X36814Y254115D2*
G1X188983Y254115D1*
G1X36814Y253761D2*
G1X188756Y253761D1*
G1X36814Y253406D2*
G1X188529Y253406D1*
G1X36814Y253052D2*
G1X188303Y253052D1*
G1X36814Y252698D2*
G1X188076Y252698D1*
G1X36814Y252343D2*
G1X187850Y252343D1*
G1X36814Y251989D2*
G1X187623Y251989D1*
G1X36814Y251635D2*
G1X187397Y251635D1*
G1X36814Y251280D2*
G1X187170Y251280D1*
G1X36814Y250926D2*
G1X186944Y250926D1*
G1X36814Y250572D2*
G1X186717Y250572D1*
G1X36814Y250217D2*
G1X186491Y250217D1*
G1X36814Y249863D2*
G1X186264Y249863D1*
G1X36814Y249509D2*
G1X186037Y249509D1*
G1X36814Y249154D2*
G1X185811Y249154D1*
G1X36814Y248800D2*
G1X185584Y248800D1*
G1X36814Y248446D2*
G1X185358Y248446D1*
G1X36814Y248091D2*
G1X185131Y248091D1*
G1X36814Y247737D2*
G1X184905Y247737D1*
G1X36814Y247383D2*
G1X184678Y247383D1*
G1X36814Y247028D2*
G1X184452Y247028D1*
G1X36814Y246674D2*
G1X184225Y246674D1*
G1X36814Y246320D2*
G1X183999Y246320D1*
G1X36814Y245966D2*
G1X183772Y245966D1*
G1X36814Y245611D2*
G1X183545Y245611D1*
G1X36814Y245257D2*
G1X183319Y245257D1*
G1X36814Y244903D2*
G1X183092Y244903D1*
G1X36814Y244548D2*
G1X182866Y244548D1*
G1X36814Y244194D2*
G1X182639Y244194D1*
G1X36814Y243840D2*
G1X182413Y243840D1*
G1X36814Y243485D2*
G1X182186Y243485D1*
G1X36814Y243131D2*
G1X181960Y243131D1*
G1X36814Y242777D2*
G1X181733Y242777D1*
G1X36814Y242422D2*
G1X181506Y242422D1*
G1X36814Y242068D2*
G1X181280Y242068D1*
G1X36814Y241714D2*
G1X181053Y241714D1*
G1X36814Y241359D2*
G1X180827Y241359D1*
G1X36959Y241005D2*
G1X180600Y241005D1*
G1X37313Y240651D2*
G1X180374Y240651D1*
G1X37667Y240296D2*
G1X180147Y240296D1*
G1X38022Y239942D2*
G1X179921Y239942D1*
G1X38376Y239588D2*
G1X179694Y239588D1*
G1X76882Y213374D2*
G1X109920Y213374D1*
G1X76882Y213020D2*
G1X109920Y213020D1*
G1X76882Y212666D2*
G1X109920Y212666D1*
G1X76882Y212311D2*
G1X109920Y212311D1*
G1X76882Y211957D2*
G1X109920Y211957D1*
G1X76882Y211603D2*
G1X109920Y211603D1*
G1X76882Y211248D2*
G1X109920Y211248D1*
G1X76882Y210894D2*
G1X109920Y210894D1*
G1X76882Y210540D2*
G1X109920Y210540D1*
G1X76882Y210186D2*
G1X109920Y210186D1*
G1X76882Y209831D2*
G1X109920Y209831D1*
G1X76882Y209477D2*
G1X109920Y209477D1*
G1X76882Y209123D2*
G1X109920Y209123D1*
G1X76882Y208768D2*
G1X109920Y208768D1*
G1X76882Y208414D2*
G1X109920Y208414D1*
G1X76882Y208060D2*
G1X109920Y208060D1*
G1X76882Y207705D2*
G1X109920Y207705D1*
G1X76882Y207351D2*
G1X109920Y207351D1*
G1X76882Y206997D2*
G1X109920Y206997D1*
G1X76882Y206642D2*
G1X109920Y206642D1*
G1X76882Y206288D2*
G1X109920Y206288D1*
G1X76882Y205934D2*
G1X109920Y205934D1*
G1X76882Y205579D2*
G1X109920Y205579D1*
G1X76882Y205225D2*
G1X109920Y205225D1*
G1X76882Y204871D2*
G1X109920Y204871D1*
G1X76882Y204516D2*
G1X109920Y204516D1*
G1X76882Y204162D2*
G1X109920Y204162D1*
G1X76882Y203808D2*
G1X109920Y203808D1*
G1X76882Y203453D2*
G1X109920Y203453D1*
G1X76882Y203099D2*
G1X109920Y203099D1*
G1X76882Y202745D2*
G1X109920Y202745D1*
G1X76882Y202390D2*
G1X109920Y202390D1*
G1X76882Y202036D2*
G1X109920Y202036D1*
G1X76882Y201682D2*
G1X109920Y201682D1*
G1X76882Y201327D2*
G1X109920Y201327D1*
G1X76882Y200973D2*
G1X109920Y200973D1*
G1X76882Y200619D2*
G1X109920Y200619D1*
G1X76882Y200264D2*
G1X109920Y200264D1*
G1X76882Y199910D2*
G1X109920Y199910D1*
G1X76882Y199556D2*
G1X109920Y199556D1*
G1X76882Y199201D2*
G1X109920Y199201D1*
G1X76882Y198847D2*
G1X109920Y198847D1*
G1X76882Y198493D2*
G1X109920Y198493D1*
G1X76882Y198138D2*
G1X109920Y198138D1*
G1X76882Y197784D2*
G1X109920Y197784D1*
G1X76882Y197430D2*
G1X109920Y197430D1*
G1X76882Y197075D2*
G1X109920Y197075D1*
G1X76882Y196721D2*
G1X109920Y196721D1*
G1X76882Y196367D2*
G1X109920Y196367D1*
G1X76882Y196012D2*
G1X109920Y196012D1*
G1X76882Y195658D2*
G1X109920Y195658D1*
G1X76882Y195304D2*
G1X109920Y195304D1*
G1X76882Y194949D2*
G1X109920Y194949D1*
G1X76882Y194595D2*
G1X109920Y194595D1*
G1X76882Y194241D2*
G1X109920Y194241D1*
G1X76882Y193886D2*
G1X109920Y193886D1*
G1X76882Y193532D2*
G1X109920Y193532D1*
G1X76882Y193178D2*
G1X109920Y193178D1*
G1X76882Y192823D2*
G1X109920Y192823D1*
G1X76882Y192469D2*
G1X109920Y192469D1*
G1X76882Y192115D2*
G1X109920Y192115D1*
G1X76882Y191760D2*
G1X109920Y191760D1*
G1X76882Y191406D2*
G1X109920Y191406D1*
G1X76882Y191052D2*
G1X109920Y191052D1*
G1X76882Y190697D2*
G1X109920Y190697D1*
G1X76882Y190343D2*
G1X109920Y190343D1*
G1X76882Y189989D2*
G1X109920Y189989D1*
G1X76882Y189634D2*
G1X109920Y189634D1*
G1X76882Y189280D2*
G1X109920Y189280D1*
G1X76882Y188926D2*
G1X109920Y188926D1*
G1X76882Y188571D2*
G1X109920Y188571D1*
G1X76908Y188217D2*
G1X109920Y188217D1*
G1X77022Y187863D2*
G1X109920Y187863D1*
G1X77135Y187508D2*
G1X109920Y187508D1*
G1X77249Y187154D2*
G1X109829Y187154D1*
G1X76882Y213729D2*
G1X109824Y213729D1*
G1X77362Y186800D2*
G1X109474Y186800D1*
G1X76882Y214083D2*
G1X109470Y214083D1*
G1X76882Y214437D2*
G1X109115Y214437D1*
G1X76882Y214792D2*
G1X108761Y214792D1*
G1X76882Y215146D2*
G1X108407Y215146D1*
G1X76882Y215500D2*
G1X108052Y215500D1*
G1X76882Y215855D2*
G1X107698Y215855D1*
G1X76882Y216209D2*
G1X107344Y216209D1*
G1X76882Y216563D2*
G1X94413Y216563D1*
G1X76882Y216918D2*
G1X94058Y216918D1*
G1X76882Y217272D2*
G1X93704Y217272D1*
G1X76882Y217626D2*
G1X93350Y217626D1*
G1X76882Y217981D2*
G1X92995Y217981D1*
G1X76882Y218335D2*
G1X92641Y218335D1*
G1X76882Y218689D2*
G1X92287Y218689D1*
G1X76882Y219044D2*
G1X91932Y219044D1*
G1X76882Y219398D2*
G1X91578Y219398D1*
G1X76882Y219752D2*
G1X91224Y219752D1*
G1X76882Y220107D2*
G1X90869Y220107D1*
G1X76868Y234280D2*
G1X90719Y234280D1*
G1X76868Y233926D2*
G1X90719Y233926D1*
G1X76868Y233571D2*
G1X90719Y233571D1*
G1X76868Y233217D2*
G1X90719Y233217D1*
G1X76868Y232863D2*
G1X90719Y232863D1*
G1X76868Y232508D2*
G1X90719Y232508D1*
G1X76868Y232154D2*
G1X90719Y232154D1*
G1X76868Y231800D2*
G1X90719Y231800D1*
G1X76868Y231445D2*
G1X90719Y231445D1*
G1X76868Y231091D2*
G1X90719Y231091D1*
G1X76868Y230737D2*
G1X90719Y230737D1*
G1X76868Y230382D2*
G1X90719Y230382D1*
G1X76868Y230028D2*
G1X90719Y230028D1*
G1X76868Y229674D2*
G1X90719Y229674D1*
G1X76868Y229319D2*
G1X90719Y229319D1*
G1X76868Y228965D2*
G1X90719Y228965D1*
G1X76868Y228611D2*
G1X90719Y228611D1*
G1X76868Y228256D2*
G1X90719Y228256D1*
G1X76868Y227902D2*
G1X90719Y227902D1*
G1X76882Y227548D2*
G1X90719Y227548D1*
G1X76882Y227193D2*
G1X90719Y227193D1*
G1X76882Y226839D2*
G1X90719Y226839D1*
G1X76882Y226485D2*
G1X90719Y226485D1*
G1X76882Y226130D2*
G1X90719Y226130D1*
G1X76882Y225776D2*
G1X90719Y225776D1*
G1X76882Y225422D2*
G1X90719Y225422D1*
G1X76882Y225067D2*
G1X90719Y225067D1*
G1X76882Y224713D2*
G1X90719Y224713D1*
G1X76882Y224359D2*
G1X90719Y224359D1*
G1X76882Y224004D2*
G1X90719Y224004D1*
G1X76882Y223650D2*
G1X90719Y223650D1*
G1X76882Y223296D2*
G1X90719Y223296D1*
G1X76882Y222941D2*
G1X90719Y222941D1*
G1X76882Y222587D2*
G1X90719Y222587D1*
G1X76882Y222233D2*
G1X90719Y222233D1*
G1X76882Y221878D2*
G1X90719Y221878D1*
G1X76882Y221524D2*
G1X90719Y221524D1*
G1X76882Y221170D2*
G1X90719Y221170D1*
G1X76882Y220815D2*
G1X90719Y220815D1*
G1X76882Y220461D2*
G1X90719Y220461D1*
G1X76868Y234634D2*
G1X90676Y234634D1*
G1X76868Y234989D2*
G1X90321Y234989D1*
G1X76916Y235343D2*
G1X89967Y235343D1*
G1X77270Y235697D2*
G1X89613Y235697D1*
G1X77625Y236052D2*
G1X89258Y236052D1*
G1X77979Y236406D2*
G1X88904Y236406D1*
G1X30786Y213637D2*
G1X66164Y213637D1*
G1X30786Y213283D2*
G1X66164Y213283D1*
G1X30786Y212928D2*
G1X66164Y212928D1*
G1X30786Y212574D2*
G1X66164Y212574D1*
G1X30786Y212220D2*
G1X66164Y212220D1*
G1X30786Y211865D2*
G1X66164Y211865D1*
G1X30786Y211511D2*
G1X66164Y211511D1*
G1X30786Y211157D2*
G1X66164Y211157D1*
G1X30786Y210802D2*
G1X66164Y210802D1*
G1X30786Y210448D2*
G1X66164Y210448D1*
G1X30786Y210094D2*
G1X66164Y210094D1*
G1X30786Y209739D2*
G1X66164Y209739D1*
G1X30786Y209385D2*
G1X66164Y209385D1*
G1X30786Y209031D2*
G1X66164Y209031D1*
G1X30786Y208676D2*
G1X66164Y208676D1*
G1X30786Y208322D2*
G1X66164Y208322D1*
G1X30786Y207968D2*
G1X66164Y207968D1*
G1X30786Y207614D2*
G1X66164Y207614D1*
G1X30786Y207259D2*
G1X66164Y207259D1*
G1X30786Y206905D2*
G1X66164Y206905D1*
G1X30786Y206551D2*
G1X66164Y206551D1*
G1X30786Y206196D2*
G1X66164Y206196D1*
G1X30786Y205842D2*
G1X66164Y205842D1*
G1X30786Y205488D2*
G1X66164Y205488D1*
G1X30786Y205133D2*
G1X66164Y205133D1*
G1X30786Y204779D2*
G1X66164Y204779D1*
G1X30786Y204425D2*
G1X66164Y204425D1*
G1X30786Y204070D2*
G1X66164Y204070D1*
G1X30786Y203716D2*
G1X66164Y203716D1*
G1X30786Y203362D2*
G1X66164Y203362D1*
G1X30786Y203007D2*
G1X66164Y203007D1*
G1X30786Y202653D2*
G1X66164Y202653D1*
G1X30786Y202299D2*
G1X66164Y202299D1*
G1X30786Y201944D2*
G1X66164Y201944D1*
G1X30786Y201590D2*
G1X66164Y201590D1*
G1X30786Y201236D2*
G1X66164Y201236D1*
G1X30786Y200881D2*
G1X66164Y200881D1*
G1X30786Y200527D2*
G1X66164Y200527D1*
G1X30786Y200173D2*
G1X66164Y200173D1*
G1X30786Y199818D2*
G1X66164Y199818D1*
G1X30786Y199464D2*
G1X66164Y199464D1*
G1X30786Y199110D2*
G1X66164Y199110D1*
G1X30786Y198755D2*
G1X66164Y198755D1*
G1X30786Y198401D2*
G1X66164Y198401D1*
G1X30786Y198047D2*
G1X66164Y198047D1*
G1X30786Y197692D2*
G1X66164Y197692D1*
G1X30786Y197338D2*
G1X66164Y197338D1*
G1X30786Y196984D2*
G1X66164Y196984D1*
G1X30786Y196629D2*
G1X66164Y196629D1*
G1X30786Y196275D2*
G1X66164Y196275D1*
G1X30786Y195921D2*
G1X66164Y195921D1*
G1X30786Y195566D2*
G1X66164Y195566D1*
G1X30786Y195212D2*
G1X66164Y195212D1*
G1X30786Y194858D2*
G1X66164Y194858D1*
G1X30786Y194503D2*
G1X66164Y194503D1*
G1X30786Y194149D2*
G1X66164Y194149D1*
G1X30786Y193795D2*
G1X66164Y193795D1*
G1X30786Y193440D2*
G1X66164Y193440D1*
G1X30786Y193086D2*
G1X66164Y193086D1*
G1X30786Y192732D2*
G1X66164Y192732D1*
G1X30786Y192377D2*
G1X66164Y192377D1*
G1X30786Y192023D2*
G1X66164Y192023D1*
G1X30786Y191669D2*
G1X66164Y191669D1*
G1X30786Y191314D2*
G1X66164Y191314D1*
G1X30786Y190960D2*
G1X66164Y190960D1*
G1X30786Y190606D2*
G1X66164Y190606D1*
G1X30786Y190251D2*
G1X66164Y190251D1*
G1X30786Y189897D2*
G1X66164Y189897D1*
G1X30786Y189543D2*
G1X66164Y189543D1*
G1X30786Y189188D2*
G1X66164Y189188D1*
G1X30786Y188834D2*
G1X66164Y188834D1*
G1X30786Y188480D2*
G1X66164Y188480D1*
G1X30786Y188125D2*
G1X66164Y188125D1*
G1X30786Y187771D2*
G1X66164Y187771D1*
G1X30823Y187417D2*
G1X66164Y187417D1*
G1X30924Y187062D2*
G1X66164Y187062D1*
G1X30786Y213991D2*
G1X66135Y213991D1*
G1X31024Y186708D2*
G1X65980Y186708D1*
G1X30786Y214346D2*
G1X65781Y214346D1*
G1X30786Y214700D2*
G1X65426Y214700D1*
G1X30786Y215054D2*
G1X65072Y215054D1*
G1X30786Y215409D2*
G1X64718Y215409D1*
G1X30786Y215763D2*
G1X64363Y215763D1*
G1X30786Y216117D2*
G1X64009Y216117D1*
G1X30786Y216472D2*
G1X50901Y216472D1*
G1X30786Y216826D2*
G1X50547Y216826D1*
G1X30786Y217180D2*
G1X50193Y217180D1*
G1X30786Y217535D2*
G1X49838Y217535D1*
G1X30786Y217889D2*
G1X49484Y217889D1*
G1X30786Y218243D2*
G1X49130Y218243D1*
G1X30786Y218598D2*
G1X48775Y218598D1*
G1X30786Y218952D2*
G1X48421Y218952D1*
G1X30786Y219306D2*
G1X48067Y219306D1*
G1X30786Y219661D2*
G1X47712Y219661D1*
G1X30786Y220015D2*
G1X47358Y220015D1*
G1X30786Y234188D2*
G1X47123Y234188D1*
G1X30786Y233834D2*
G1X47123Y233834D1*
G1X30786Y233480D2*
G1X47123Y233480D1*
G1X30786Y233125D2*
G1X47123Y233125D1*
G1X30786Y232771D2*
G1X47123Y232771D1*
G1X30786Y232417D2*
G1X47123Y232417D1*
G1X30786Y232062D2*
G1X47123Y232062D1*
G1X30786Y231708D2*
G1X47123Y231708D1*
G1X30786Y231354D2*
G1X47123Y231354D1*
G1X30786Y230999D2*
G1X47123Y230999D1*
G1X30786Y230645D2*
G1X47123Y230645D1*
G1X30786Y230291D2*
G1X47123Y230291D1*
G1X30786Y229936D2*
G1X47123Y229936D1*
G1X30786Y229582D2*
G1X47123Y229582D1*
G1X30786Y229228D2*
G1X47123Y229228D1*
G1X30786Y228873D2*
G1X47123Y228873D1*
G1X30786Y228519D2*
G1X47123Y228519D1*
G1X30786Y228165D2*
G1X47123Y228165D1*
G1X30786Y227810D2*
G1X47123Y227810D1*
G1X30786Y227456D2*
G1X47123Y227456D1*
G1X30786Y227102D2*
G1X47123Y227102D1*
G1X30786Y226747D2*
G1X47123Y226747D1*
G1X30786Y226393D2*
G1X47123Y226393D1*
G1X30786Y226039D2*
G1X47123Y226039D1*
G1X30786Y225684D2*
G1X47123Y225684D1*
G1X30786Y225330D2*
G1X47123Y225330D1*
G1X30786Y224976D2*
G1X47123Y224976D1*
G1X30786Y224621D2*
G1X47123Y224621D1*
G1X30786Y224267D2*
G1X47123Y224267D1*
G1X30786Y223913D2*
G1X47123Y223913D1*
G1X30786Y223558D2*
G1X47123Y223558D1*
G1X30786Y223204D2*
G1X47123Y223204D1*
G1X30786Y222850D2*
G1X47123Y222850D1*
G1X30786Y222495D2*
G1X47123Y222495D1*
G1X30786Y222141D2*
G1X47123Y222141D1*
G1X30786Y221787D2*
G1X47123Y221787D1*
G1X30786Y221432D2*
G1X47123Y221432D1*
G1X30786Y221078D2*
G1X47123Y221078D1*
G1X30786Y220724D2*
G1X47123Y220724D1*
G1X30786Y220369D2*
G1X47123Y220369D1*
G1X30786Y234543D2*
G1X47083Y234543D1*
G1X30786Y234897D2*
G1X46729Y234897D1*
G1X30786Y235251D2*
G1X46374Y235251D1*
G1X30858Y235606D2*
G1X46020Y235606D1*
G1X31213Y235960D2*
G1X45666Y235960D1*
G1X120187Y215836D2*
G1X157778Y215836D1*
G1X120187Y215481D2*
G1X157778Y215481D1*
G1X120187Y215127D2*
G1X157778Y215127D1*
G1X120187Y214773D2*
G1X157778Y214773D1*
G1X120187Y214418D2*
G1X157778Y214418D1*
G1X120187Y214064D2*
G1X157778Y214064D1*
G1X120187Y213710D2*
G1X157778Y213710D1*
G1X120187Y213355D2*
G1X157778Y213355D1*
G1X120187Y213001D2*
G1X157778Y213001D1*
G1X120187Y212647D2*
G1X157778Y212647D1*
G1X120187Y212292D2*
G1X157778Y212292D1*
G1X120187Y211938D2*
G1X157778Y211938D1*
G1X120187Y211584D2*
G1X157778Y211584D1*
G1X120187Y211229D2*
G1X157778Y211229D1*
G1X120187Y210875D2*
G1X157778Y210875D1*
G1X120187Y210521D2*
G1X157778Y210521D1*
G1X120187Y210166D2*
G1X157778Y210166D1*
G1X120187Y209812D2*
G1X157778Y209812D1*
G1X120187Y209458D2*
G1X157778Y209458D1*
G1X120187Y209103D2*
G1X157778Y209103D1*
G1X120187Y208749D2*
G1X157778Y208749D1*
G1X120187Y208395D2*
G1X157778Y208395D1*
G1X120187Y208040D2*
G1X157778Y208040D1*
G1X120187Y207686D2*
G1X157778Y207686D1*
G1X120187Y207332D2*
G1X157778Y207332D1*
G1X120187Y206977D2*
G1X157778Y206977D1*
G1X120187Y206623D2*
G1X157778Y206623D1*
G1X120187Y206269D2*
G1X157778Y206269D1*
G1X120187Y205914D2*
G1X157778Y205914D1*
G1X120187Y205560D2*
G1X157778Y205560D1*
G1X120187Y205206D2*
G1X157778Y205206D1*
G1X120187Y204851D2*
G1X157778Y204851D1*
G1X120187Y204497D2*
G1X157778Y204497D1*
G1X120187Y204143D2*
G1X157778Y204143D1*
G1X120187Y203788D2*
G1X157778Y203788D1*
G1X120187Y203434D2*
G1X157778Y203434D1*
G1X120187Y203080D2*
G1X157778Y203080D1*
G1X120187Y202725D2*
G1X157778Y202725D1*
G1X120187Y202371D2*
G1X157778Y202371D1*
G1X120187Y202017D2*
G1X157778Y202017D1*
G1X120187Y201662D2*
G1X157778Y201662D1*
G1X120187Y201308D2*
G1X157778Y201308D1*
G1X120187Y200954D2*
G1X157778Y200954D1*
G1X120187Y200599D2*
G1X157778Y200599D1*
G1X120187Y200245D2*
G1X157778Y200245D1*
G1X120187Y199891D2*
G1X157778Y199891D1*
G1X120187Y199536D2*
G1X157778Y199536D1*
G1X120187Y199182D2*
G1X157778Y199182D1*
G1X120187Y198828D2*
G1X157778Y198828D1*
G1X120187Y198473D2*
G1X157778Y198473D1*
G1X120187Y198119D2*
G1X157778Y198119D1*
G1X120187Y197765D2*
G1X157778Y197765D1*
G1X120187Y197410D2*
G1X157778Y197410D1*
G1X120187Y197056D2*
G1X157778Y197056D1*
G1X120187Y196702D2*
G1X157778Y196702D1*
G1X120187Y196347D2*
G1X157778Y196347D1*
G1X120187Y195993D2*
G1X157778Y195993D1*
G1X120187Y195639D2*
G1X157778Y195639D1*
G1X120187Y195284D2*
G1X157778Y195284D1*
G1X120187Y194930D2*
G1X157778Y194930D1*
G1X120187Y194576D2*
G1X157778Y194576D1*
G1X120187Y194221D2*
G1X157778Y194221D1*
G1X120187Y193867D2*
G1X157778Y193867D1*
G1X120187Y193513D2*
G1X157778Y193513D1*
G1X120187Y193158D2*
G1X157778Y193158D1*
G1X120187Y192804D2*
G1X157778Y192804D1*
G1X120187Y192450D2*
G1X157778Y192450D1*
G1X120187Y192095D2*
G1X157778Y192095D1*
G1X120187Y191741D2*
G1X157778Y191741D1*
G1X120187Y191387D2*
G1X157778Y191387D1*
G1X120187Y191032D2*
G1X157778Y191032D1*
G1X120187Y190678D2*
G1X157778Y190678D1*
G1X120187Y190324D2*
G1X157778Y190324D1*
G1X120187Y189969D2*
G1X157778Y189969D1*
G1X120187Y189615D2*
G1X157778Y189615D1*
G1X120187Y189261D2*
G1X157778Y189261D1*
G1X120187Y188906D2*
G1X157778Y188906D1*
G1X120187Y188552D2*
G1X157662Y188552D1*
G1X120187Y216190D2*
G1X157569Y216190D1*
G1X120187Y188198D2*
G1X157307Y188198D1*
G1X120187Y216544D2*
G1X157215Y216544D1*
G1X120187Y187843D2*
G1X156953Y187843D1*
G1X120187Y216899D2*
G1X156861Y216899D1*
G1X120247Y187489D2*
G1X156599Y187489D1*
G1X120187Y217253D2*
G1X156506Y217253D1*
G1X120347Y187135D2*
G1X156244Y187135D1*
G1X120187Y217607D2*
G1X156152Y217607D1*
G1X120187Y217961D2*
G1X155798Y217961D1*
G1X120187Y218316D2*
G1X155443Y218316D1*
G1X120187Y218670D2*
G1X136576Y218670D1*
G1X120187Y219024D2*
G1X136222Y219024D1*
G1X120187Y219379D2*
G1X135867Y219379D1*
G1X120187Y219733D2*
G1X135513Y219733D1*
G1X120187Y220087D2*
G1X135159Y220087D1*
G1X120187Y220442D2*
G1X134804Y220442D1*
G1X120187Y220796D2*
G1X134450Y220796D1*
G1X120187Y234615D2*
G1X134421Y234615D1*
G1X120187Y234261D2*
G1X134421Y234261D1*
G1X120187Y233906D2*
G1X134421Y233906D1*
G1X120187Y233552D2*
G1X134421Y233552D1*
G1X120187Y233198D2*
G1X134421Y233198D1*
G1X120187Y232843D2*
G1X134421Y232843D1*
G1X120187Y232489D2*
G1X134421Y232489D1*
G1X120187Y232135D2*
G1X134421Y232135D1*
G1X120187Y231780D2*
G1X134421Y231780D1*
G1X120187Y231426D2*
G1X134421Y231426D1*
G1X120187Y231072D2*
G1X134421Y231072D1*
G1X120187Y230717D2*
G1X134421Y230717D1*
G1X120187Y230363D2*
G1X134421Y230363D1*
G1X120187Y230009D2*
G1X134421Y230009D1*
G1X120187Y229654D2*
G1X134421Y229654D1*
G1X120187Y229300D2*
G1X134421Y229300D1*
G1X120187Y228946D2*
G1X134421Y228946D1*
G1X120187Y228591D2*
G1X134421Y228591D1*
G1X120187Y228237D2*
G1X134421Y228237D1*
G1X120187Y227883D2*
G1X134421Y227883D1*
G1X120187Y227528D2*
G1X134421Y227528D1*
G1X120187Y227174D2*
G1X134421Y227174D1*
G1X120187Y226820D2*
G1X134421Y226820D1*
G1X120187Y226465D2*
G1X134421Y226465D1*
G1X120187Y226111D2*
G1X134421Y226111D1*
G1X120187Y225757D2*
G1X134421Y225757D1*
G1X120187Y225402D2*
G1X134421Y225402D1*
G1X120187Y225048D2*
G1X134421Y225048D1*
G1X120187Y224694D2*
G1X134421Y224694D1*
G1X120187Y224339D2*
G1X134421Y224339D1*
G1X120187Y223985D2*
G1X134421Y223985D1*
G1X120187Y223631D2*
G1X134421Y223631D1*
G1X120187Y223276D2*
G1X134421Y223276D1*
G1X120187Y222922D2*
G1X134421Y222922D1*
G1X120187Y222568D2*
G1X134421Y222568D1*
G1X120187Y222213D2*
G1X134421Y222213D1*
G1X120187Y221859D2*
G1X134421Y221859D1*
G1X120187Y221505D2*
G1X134421Y221505D1*
G1X120187Y221150D2*
G1X134421Y221150D1*
G1X120185Y234969D2*
G1X134249Y234969D1*
G1X120185Y235324D2*
G1X133895Y235324D1*
G1X120468Y235678D2*
G1X133541Y235678D1*
G1X120822Y236032D2*
G1X133186Y236032D1*
G1X121177Y236387D2*
G1X132832Y236387D1*
G1X204056Y74330D2*
G1X231679Y74330D1*
G1X204056Y73976D2*
G1X231679Y73976D1*
G1X204056Y73622D2*
G1X231679Y73622D1*
G1X204056Y73267D2*
G1X231679Y73267D1*
G1X204056Y72913D2*
G1X231679Y72913D1*
G1X204056Y72559D2*
G1X231679Y72559D1*
G1X204056Y72204D2*
G1X231679Y72204D1*
G1X204056Y71850D2*
G1X231679Y71850D1*
G1X204056Y71496D2*
G1X231679Y71496D1*
G1X204056Y71141D2*
G1X231679Y71141D1*
G1X204056Y70787D2*
G1X231679Y70787D1*
G1X204056Y70433D2*
G1X231679Y70433D1*
G1X204056Y70078D2*
G1X231679Y70078D1*
G1X204056Y69724D2*
G1X231679Y69724D1*
G1X204056Y69370D2*
G1X231679Y69370D1*
G1X204056Y69015D2*
G1X231679Y69015D1*
G1X204056Y68661D2*
G1X231679Y68661D1*
G1X204056Y68307D2*
G1X231679Y68307D1*
G1X204127Y67952D2*
G1X231679Y67952D1*
G1X204481Y67598D2*
G1X231679Y67598D1*
G1X204835Y67244D2*
G1X231679Y67244D1*
G1X205190Y66889D2*
G1X231406Y66889D1*
G1X204056Y74685D2*
G1X231340Y74685D1*
G1X205544Y66535D2*
G1X231052Y66535D1*
G1X204056Y75039D2*
G1X230986Y75039D1*
G1X205898Y66181D2*
G1X230697Y66181D1*
G1X204056Y75393D2*
G1X230631Y75393D1*
G1X206253Y65826D2*
G1X230343Y65826D1*
G1X204056Y75748D2*
G1X230277Y75748D1*
G1X206607Y65472D2*
G1X229989Y65472D1*
G1X204056Y76102D2*
G1X229923Y76102D1*
G1X206961Y65118D2*
G1X229634Y65118D1*
G1X204056Y76456D2*
G1X229568Y76456D1*
G1X207316Y64763D2*
G1X229280Y64763D1*
G1X204056Y76811D2*
G1X229214Y76811D1*
G1X204056Y77165D2*
G1X228860Y77165D1*
G1X204056Y77519D2*
G1X228505Y77519D1*
G1X204056Y77874D2*
G1X228151Y77874D1*
G1X204056Y78228D2*
G1X227797Y78228D1*
G1X204056Y78582D2*
G1X227442Y78582D1*
G1X204056Y78937D2*
G1X227088Y78937D1*
G1X204056Y79291D2*
G1X226734Y79291D1*
G1X204056Y79645D2*
G1X226379Y79645D1*
G1X204056Y80000D2*
G1X226025Y80000D1*
G1X204056Y80354D2*
G1X225671Y80354D1*
G1X204056Y80708D2*
G1X225316Y80708D1*
G1X204056Y81063D2*
G1X224962Y81063D1*
G1X204056Y81417D2*
G1X224608Y81417D1*
G1X204056Y81771D2*
G1X224253Y81771D1*
G1X204056Y82126D2*
G1X223899Y82126D1*
G1X178524Y221377D2*
G1X223726Y221377D1*
G1X178524Y221023D2*
G1X223726Y221023D1*
G1X178524Y220669D2*
G1X223726Y220669D1*
G1X178524Y220314D2*
G1X223726Y220314D1*
G1X178524Y219960D2*
G1X223726Y219960D1*
G1X178524Y219606D2*
G1X223726Y219606D1*
G1X178524Y219251D2*
G1X223726Y219251D1*
G1X178524Y218897D2*
G1X223726Y218897D1*
G1X178524Y218543D2*
G1X223726Y218543D1*
G1X178524Y218188D2*
G1X223726Y218188D1*
G1X178524Y217834D2*
G1X223726Y217834D1*
G1X178524Y217480D2*
G1X223726Y217480D1*
G1X178524Y217126D2*
G1X223726Y217126D1*
G1X178524Y216771D2*
G1X223726Y216771D1*
G1X178524Y216417D2*
G1X223726Y216417D1*
G1X178524Y216063D2*
G1X223726Y216063D1*
G1X178524Y215708D2*
G1X223726Y215708D1*
G1X178524Y215354D2*
G1X223726Y215354D1*
G1X178524Y215000D2*
G1X223726Y215000D1*
G1X178524Y214645D2*
G1X223726Y214645D1*
G1X178524Y214291D2*
G1X223726Y214291D1*
G1X178524Y213937D2*
G1X223726Y213937D1*
G1X178524Y213582D2*
G1X223726Y213582D1*
G1X178524Y213228D2*
G1X223726Y213228D1*
G1X178524Y212874D2*
G1X223726Y212874D1*
G1X178524Y212519D2*
G1X223726Y212519D1*
G1X178524Y212165D2*
G1X223726Y212165D1*
G1X178524Y211811D2*
G1X223726Y211811D1*
G1X178524Y211456D2*
G1X223726Y211456D1*
G1X178524Y211102D2*
G1X223726Y211102D1*
G1X178524Y210748D2*
G1X223726Y210748D1*
G1X178524Y210393D2*
G1X223726Y210393D1*
G1X178524Y210039D2*
G1X223726Y210039D1*
G1X178524Y209685D2*
G1X223726Y209685D1*
G1X178524Y209330D2*
G1X223726Y209330D1*
G1X178524Y208976D2*
G1X223726Y208976D1*
G1X178524Y208622D2*
G1X223726Y208622D1*
G1X178524Y208267D2*
G1X223726Y208267D1*
G1X178524Y207913D2*
G1X223726Y207913D1*
G1X178524Y207559D2*
G1X223726Y207559D1*
G1X178524Y207204D2*
G1X223726Y207204D1*
G1X178524Y206850D2*
G1X223726Y206850D1*
G1X178524Y206496D2*
G1X223726Y206496D1*
G1X178524Y206141D2*
G1X223726Y206141D1*
G1X178524Y205787D2*
G1X223726Y205787D1*
G1X178524Y205433D2*
G1X223726Y205433D1*
G1X178524Y205078D2*
G1X223726Y205078D1*
G1X178524Y204724D2*
G1X223726Y204724D1*
G1X178524Y204370D2*
G1X223726Y204370D1*
G1X178524Y204015D2*
G1X223726Y204015D1*
G1X178524Y203661D2*
G1X223726Y203661D1*
G1X178524Y203307D2*
G1X223726Y203307D1*
G1X178524Y202952D2*
G1X223726Y202952D1*
G1X178524Y202598D2*
G1X223726Y202598D1*
G1X178524Y202244D2*
G1X223726Y202244D1*
G1X178524Y201889D2*
G1X223726Y201889D1*
G1X178524Y201535D2*
G1X223726Y201535D1*
G1X178524Y201181D2*
G1X223726Y201181D1*
G1X178524Y200826D2*
G1X223726Y200826D1*
G1X178524Y200472D2*
G1X223726Y200472D1*
G1X178524Y200118D2*
G1X223726Y200118D1*
G1X178524Y199763D2*
G1X223726Y199763D1*
G1X178524Y199409D2*
G1X223726Y199409D1*
G1X178524Y199055D2*
G1X223726Y199055D1*
G1X178524Y198700D2*
G1X223726Y198700D1*
G1X178524Y198346D2*
G1X223726Y198346D1*
G1X178524Y197992D2*
G1X223726Y197992D1*
G1X178524Y197637D2*
G1X223726Y197637D1*
G1X178524Y197283D2*
G1X223726Y197283D1*
G1X178524Y196929D2*
G1X223726Y196929D1*
G1X178524Y196574D2*
G1X223726Y196574D1*
G1X178524Y196220D2*
G1X223726Y196220D1*
G1X178524Y195866D2*
G1X223726Y195866D1*
G1X178524Y195511D2*
G1X223726Y195511D1*
G1X178524Y195157D2*
G1X223726Y195157D1*
G1X178524Y194803D2*
G1X223726Y194803D1*
G1X178524Y194448D2*
G1X223726Y194448D1*
G1X178524Y194094D2*
G1X223726Y194094D1*
G1X178524Y193740D2*
G1X223726Y193740D1*
G1X178524Y193385D2*
G1X223726Y193385D1*
G1X178524Y193031D2*
G1X223726Y193031D1*
G1X178524Y192677D2*
G1X223726Y192677D1*
G1X178524Y192322D2*
G1X223726Y192322D1*
G1X178524Y191968D2*
G1X223726Y191968D1*
G1X178524Y191614D2*
G1X223726Y191614D1*
G1X178524Y191259D2*
G1X223726Y191259D1*
G1X178524Y190905D2*
G1X223726Y190905D1*
G1X178524Y190551D2*
G1X223726Y190551D1*
G1X178524Y190196D2*
G1X223726Y190196D1*
G1X178524Y189842D2*
G1X223726Y189842D1*
G1X178524Y189488D2*
G1X223726Y189488D1*
G1X178524Y189133D2*
G1X223726Y189133D1*
G1X178524Y188779D2*
G1X223726Y188779D1*
G1X178524Y188425D2*
G1X223726Y188425D1*
G1X178524Y188070D2*
G1X223726Y188070D1*
G1X178524Y187716D2*
G1X223726Y187716D1*
G1X178524Y187362D2*
G1X223726Y187362D1*
G1X178524Y187007D2*
G1X223726Y187007D1*
G1X178524Y186653D2*
G1X223726Y186653D1*
G1X178524Y186299D2*
G1X223726Y186299D1*
G1X178524Y185944D2*
G1X223726Y185944D1*
G1X178524Y185590D2*
G1X223726Y185590D1*
G1X178524Y185236D2*
G1X223726Y185236D1*
G1X178524Y184881D2*
G1X223726Y184881D1*
G1X178524Y184527D2*
G1X223726Y184527D1*
G1X178524Y184173D2*
G1X223726Y184173D1*
G1X178524Y183818D2*
G1X223726Y183818D1*
G1X178524Y183464D2*
G1X223726Y183464D1*
G1X178524Y183110D2*
G1X223726Y183110D1*
G1X178524Y182755D2*
G1X223726Y182755D1*
G1X178524Y182401D2*
G1X223726Y182401D1*
G1X178524Y182047D2*
G1X223726Y182047D1*
G1X178524Y181692D2*
G1X223726Y181692D1*
G1X178524Y181338D2*
G1X223726Y181338D1*
G1X178524Y180984D2*
G1X223726Y180984D1*
G1X178524Y180629D2*
G1X223726Y180629D1*
G1X178524Y180275D2*
G1X223726Y180275D1*
G1X178524Y179921D2*
G1X223726Y179921D1*
G1X178524Y179566D2*
G1X223726Y179566D1*
G1X178524Y179212D2*
G1X223726Y179212D1*
G1X178524Y178858D2*
G1X223726Y178858D1*
G1X178524Y178503D2*
G1X223726Y178503D1*
G1X178524Y178149D2*
G1X223726Y178149D1*
G1X178524Y177795D2*
G1X223726Y177795D1*
G1X178524Y177440D2*
G1X223726Y177440D1*
G1X178524Y177086D2*
G1X223726Y177086D1*
G1X178524Y176732D2*
G1X223726Y176732D1*
G1X178524Y176377D2*
G1X223726Y176377D1*
G1X178524Y176023D2*
G1X223726Y176023D1*
G1X178524Y175669D2*
G1X223726Y175669D1*
G1X178524Y175314D2*
G1X223726Y175314D1*
G1X178524Y174960D2*
G1X223726Y174960D1*
G1X178524Y174606D2*
G1X223726Y174606D1*
G1X178524Y174251D2*
G1X223726Y174251D1*
G1X178524Y173897D2*
G1X223726Y173897D1*
G1X178524Y173543D2*
G1X223726Y173543D1*
G1X178524Y173188D2*
G1X223726Y173188D1*
G1X178524Y172834D2*
G1X223726Y172834D1*
G1X178524Y172480D2*
G1X223726Y172480D1*
G1X178524Y172126D2*
G1X223726Y172126D1*
G1X178524Y171771D2*
G1X223726Y171771D1*
G1X178524Y171417D2*
G1X223726Y171417D1*
G1X178524Y171063D2*
G1X223726Y171063D1*
G1X178524Y170708D2*
G1X223726Y170708D1*
G1X178524Y170354D2*
G1X223726Y170354D1*
G1X178524Y170000D2*
G1X223726Y170000D1*
G1X178524Y169645D2*
G1X223726Y169645D1*
G1X178524Y169291D2*
G1X223726Y169291D1*
G1X178524Y168937D2*
G1X223726Y168937D1*
G1X178524Y168582D2*
G1X223726Y168582D1*
G1X178524Y168228D2*
G1X223726Y168228D1*
G1X178524Y167874D2*
G1X223726Y167874D1*
G1X178524Y167519D2*
G1X223726Y167519D1*
G1X178524Y167165D2*
G1X223726Y167165D1*
G1X178524Y166811D2*
G1X223726Y166811D1*
G1X178524Y166456D2*
G1X223726Y166456D1*
G1X178524Y166102D2*
G1X223726Y166102D1*
G1X178524Y165748D2*
G1X223726Y165748D1*
G1X178524Y165393D2*
G1X223726Y165393D1*
G1X178524Y165039D2*
G1X223726Y165039D1*
G1X178524Y164685D2*
G1X223726Y164685D1*
G1X178524Y164330D2*
G1X223726Y164330D1*
G1X178524Y163976D2*
G1X223726Y163976D1*
G1X178524Y163622D2*
G1X223726Y163622D1*
G1X178524Y163267D2*
G1X223726Y163267D1*
G1X178524Y162913D2*
G1X223726Y162913D1*
G1X178524Y162559D2*
G1X223726Y162559D1*
G1X178524Y162204D2*
G1X223726Y162204D1*
G1X178524Y161850D2*
G1X223726Y161850D1*
G1X178524Y161496D2*
G1X223726Y161496D1*
G1X178524Y161141D2*
G1X223726Y161141D1*
G1X178524Y160787D2*
G1X223726Y160787D1*
G1X178524Y160433D2*
G1X223726Y160433D1*
G1X178524Y160078D2*
G1X223726Y160078D1*
G1X178524Y159724D2*
G1X223726Y159724D1*
G1X178524Y159370D2*
G1X223726Y159370D1*
G1X178524Y159015D2*
G1X223726Y159015D1*
G1X178524Y158661D2*
G1X223726Y158661D1*
G1X178524Y158307D2*
G1X223726Y158307D1*
G1X178524Y157952D2*
G1X223726Y157952D1*
G1X178524Y157598D2*
G1X223726Y157598D1*
G1X178524Y157244D2*
G1X223726Y157244D1*
G1X178524Y156889D2*
G1X223726Y156889D1*
G1X178742Y156535D2*
G1X223726Y156535D1*
G1X179096Y156181D2*
G1X223726Y156181D1*
G1X179450Y155826D2*
G1X223726Y155826D1*
G1X179805Y155472D2*
G1X223726Y155472D1*
G1X180159Y155118D2*
G1X223726Y155118D1*
G1X180513Y154763D2*
G1X223726Y154763D1*
G1X180868Y154409D2*
G1X223726Y154409D1*
G1X181222Y154055D2*
G1X223726Y154055D1*
G1X181576Y153700D2*
G1X223726Y153700D1*
G1X181931Y153346D2*
G1X223726Y153346D1*
G1X182285Y152992D2*
G1X223726Y152992D1*
G1X182639Y152637D2*
G1X223726Y152637D1*
G1X182994Y152283D2*
G1X223726Y152283D1*
G1X183348Y151929D2*
G1X223726Y151929D1*
G1X183702Y151574D2*
G1X223726Y151574D1*
G1X184057Y151220D2*
G1X223726Y151220D1*
G1X184411Y150866D2*
G1X223726Y150866D1*
G1X184765Y150511D2*
G1X223726Y150511D1*
G1X185120Y150157D2*
G1X223726Y150157D1*
G1X185474Y149803D2*
G1X223726Y149803D1*
G1X185828Y149448D2*
G1X223726Y149448D1*
G1X186183Y149094D2*
G1X223726Y149094D1*
G1X186537Y148740D2*
G1X223726Y148740D1*
G1X186891Y148385D2*
G1X223726Y148385D1*
G1X187246Y148031D2*
G1X223726Y148031D1*
G1X187600Y147677D2*
G1X223726Y147677D1*
G1X187954Y147322D2*
G1X223726Y147322D1*
G1X188309Y146968D2*
G1X223726Y146968D1*
G1X188663Y146614D2*
G1X223726Y146614D1*
G1X189017Y146259D2*
G1X223726Y146259D1*
G1X189371Y145905D2*
G1X223726Y145905D1*
G1X189726Y145551D2*
G1X223726Y145551D1*
G1X190080Y145196D2*
G1X223726Y145196D1*
G1X190434Y144842D2*
G1X223726Y144842D1*
G1X190789Y144488D2*
G1X223726Y144488D1*
G1X191143Y144133D2*
G1X223726Y144133D1*
G1X191497Y143779D2*
G1X223726Y143779D1*
G1X191852Y143425D2*
G1X223726Y143425D1*
G1X192206Y143070D2*
G1X223726Y143070D1*
G1X192560Y142716D2*
G1X223726Y142716D1*
G1X192915Y142362D2*
G1X223726Y142362D1*
G1X193269Y142007D2*
G1X223726Y142007D1*
G1X193623Y141653D2*
G1X223726Y141653D1*
G1X193978Y141299D2*
G1X223726Y141299D1*
G1X194332Y140944D2*
G1X223726Y140944D1*
G1X194686Y140590D2*
G1X223726Y140590D1*
G1X195041Y140236D2*
G1X223726Y140236D1*
G1X195395Y139881D2*
G1X223726Y139881D1*
G1X195749Y139527D2*
G1X223726Y139527D1*
G1X196104Y139173D2*
G1X223726Y139173D1*
G1X196458Y138818D2*
G1X223726Y138818D1*
G1X196812Y138464D2*
G1X223726Y138464D1*
G1X197167Y138110D2*
G1X223726Y138110D1*
G1X197521Y137755D2*
G1X223726Y137755D1*
G1X197875Y137401D2*
G1X223726Y137401D1*
G1X198230Y137047D2*
G1X223726Y137047D1*
G1X198584Y136692D2*
G1X223726Y136692D1*
G1X198938Y136338D2*
G1X223726Y136338D1*
G1X199293Y135984D2*
G1X223726Y135984D1*
G1X199647Y135629D2*
G1X223726Y135629D1*
G1X200001Y135275D2*
G1X223726Y135275D1*
G1X200356Y134921D2*
G1X223726Y134921D1*
G1X200710Y134566D2*
G1X223726Y134566D1*
G1X201064Y134212D2*
G1X223726Y134212D1*
G1X201419Y133858D2*
G1X223726Y133858D1*
G1X201773Y133503D2*
G1X223726Y133503D1*
G1X202127Y133149D2*
G1X223726Y133149D1*
G1X202482Y132795D2*
G1X223726Y132795D1*
G1X202836Y132440D2*
G1X223726Y132440D1*
G1X203190Y132086D2*
G1X223726Y132086D1*
G1X203545Y131732D2*
G1X223726Y131732D1*
G1X203899Y131377D2*
G1X223726Y131377D1*
G1X204056Y131023D2*
G1X223726Y131023D1*
G1X204056Y130669D2*
G1X223726Y130669D1*
G1X204056Y130314D2*
G1X223726Y130314D1*
G1X204056Y129960D2*
G1X223726Y129960D1*
G1X204056Y129606D2*
G1X223726Y129606D1*
G1X204056Y129251D2*
G1X223726Y129251D1*
G1X204056Y128897D2*
G1X223726Y128897D1*
G1X204056Y128543D2*
G1X223726Y128543D1*
G1X204056Y128188D2*
G1X223726Y128188D1*
G1X204056Y127834D2*
G1X223726Y127834D1*
G1X204056Y127480D2*
G1X223726Y127480D1*
G1X204056Y127126D2*
G1X223726Y127126D1*
G1X204056Y126771D2*
G1X223551Y126771D1*
G1X204056Y82480D2*
G1X223545Y82480D1*
G1X178524Y221732D2*
G1X223516Y221732D1*
G1X204056Y126417D2*
G1X223196Y126417D1*
G1X204056Y82834D2*
G1X223190Y82834D1*
G1X178524Y222086D2*
G1X223162Y222086D1*
G1X204056Y126063D2*
G1X222842Y126063D1*
G1X204056Y83188D2*
G1X222836Y83188D1*
G1X178524Y222440D2*
G1X222808Y222440D1*
G1X204056Y125708D2*
G1X222488Y125708D1*
G1X204056Y83543D2*
G1X222482Y83543D1*
G1X178524Y222795D2*
G1X222453Y222795D1*
G1X204056Y125354D2*
G1X222133Y125354D1*
G1X204056Y83897D2*
G1X222127Y83897D1*
G1X178524Y223149D2*
G1X222099Y223149D1*
G1X204056Y125000D2*
G1X221779Y125000D1*
G1X204056Y84251D2*
G1X221773Y84251D1*
G1X178524Y223503D2*
G1X221745Y223503D1*
G1X204056Y124645D2*
G1X221425Y124645D1*
G1X204056Y84606D2*
G1X221419Y84606D1*
G1X178524Y223858D2*
G1X221390Y223858D1*
G1X204056Y124291D2*
G1X221070Y124291D1*
G1X204056Y84960D2*
G1X221064Y84960D1*
G1X178524Y224212D2*
G1X221036Y224212D1*
G1X204056Y123937D2*
G1X220716Y123937D1*
G1X204056Y85314D2*
G1X220710Y85314D1*
G1X178524Y224566D2*
G1X220682Y224566D1*
G1X204056Y123582D2*
G1X220362Y123582D1*
G1X204056Y85669D2*
G1X220356Y85669D1*
G1X178768Y224921D2*
G1X220327Y224921D1*
G1X204056Y123228D2*
G1X220007Y123228D1*
G1X204056Y86023D2*
G1X220001Y86023D1*
G1X179122Y225275D2*
G1X219973Y225275D1*
G1X204056Y122874D2*
G1X219653Y122874D1*
G1X204056Y86377D2*
G1X219647Y86377D1*
G1X179477Y225629D2*
G1X219619Y225629D1*
G1X204056Y122519D2*
G1X219299Y122519D1*
G1X204056Y86732D2*
G1X219293Y86732D1*
G1X179831Y225984D2*
G1X219264Y225984D1*
G1X204056Y122165D2*
G1X218944Y122165D1*
G1X204056Y87086D2*
G1X218938Y87086D1*
G1X180185Y226338D2*
G1X218910Y226338D1*
G1X204056Y121811D2*
G1X218590Y121811D1*
G1X204056Y87440D2*
G1X218584Y87440D1*
G1X180540Y226692D2*
G1X218556Y226692D1*
G1X204056Y121456D2*
G1X218236Y121456D1*
G1X204056Y87795D2*
G1X218230Y87795D1*
G1X180894Y227047D2*
G1X218201Y227047D1*
G1X204056Y121102D2*
G1X217881Y121102D1*
G1X204056Y88149D2*
G1X217875Y88149D1*
G1X181248Y227401D2*
G1X217847Y227401D1*
G1X204056Y120748D2*
G1X217527Y120748D1*
G1X204056Y88503D2*
G1X217521Y88503D1*
G1X204056Y120393D2*
G1X217173Y120393D1*
G1X204056Y88858D2*
G1X217167Y88858D1*
G1X204056Y120039D2*
G1X216818Y120039D1*
G1X204056Y89212D2*
G1X216812Y89212D1*
G1X204056Y119685D2*
G1X216464Y119685D1*
G1X204056Y89566D2*
G1X216458Y89566D1*
G1X204056Y119330D2*
G1X216110Y119330D1*
G1X204056Y89921D2*
G1X216104Y89921D1*
G1X204056Y118976D2*
G1X215755Y118976D1*
G1X204056Y90275D2*
G1X215749Y90275D1*
G1X204056Y118622D2*
G1X215431Y118622D1*
G1X204056Y118267D2*
G1X215431Y118267D1*
G1X204056Y117913D2*
G1X215431Y117913D1*
G1X204056Y117559D2*
G1X215431Y117559D1*
G1X204056Y117204D2*
G1X215431Y117204D1*
G1X204056Y116850D2*
G1X215431Y116850D1*
G1X204056Y116496D2*
G1X215431Y116496D1*
G1X204056Y116141D2*
G1X215431Y116141D1*
G1X204056Y115787D2*
G1X215431Y115787D1*
G1X204056Y115433D2*
G1X215431Y115433D1*
G1X204056Y115078D2*
G1X215431Y115078D1*
G1X204056Y114724D2*
G1X215431Y114724D1*
G1X204056Y114370D2*
G1X215431Y114370D1*
G1X204056Y114015D2*
G1X215431Y114015D1*
G1X204056Y113661D2*
G1X215431Y113661D1*
G1X204056Y113307D2*
G1X215431Y113307D1*
G1X204056Y112952D2*
G1X215431Y112952D1*
G1X204056Y112598D2*
G1X215431Y112598D1*
G1X204056Y112244D2*
G1X215431Y112244D1*
G1X204056Y111889D2*
G1X215431Y111889D1*
G1X204056Y111535D2*
G1X215431Y111535D1*
G1X204056Y111181D2*
G1X215431Y111181D1*
G1X204056Y110826D2*
G1X215431Y110826D1*
G1X204056Y110472D2*
G1X215431Y110472D1*
G1X204056Y110118D2*
G1X215431Y110118D1*
G1X204056Y109763D2*
G1X215431Y109763D1*
G1X204056Y109409D2*
G1X215431Y109409D1*
G1X204056Y109055D2*
G1X215431Y109055D1*
G1X204056Y108700D2*
G1X215431Y108700D1*
G1X204056Y108346D2*
G1X215431Y108346D1*
G1X204056Y107992D2*
G1X215431Y107992D1*
G1X204056Y107637D2*
G1X215431Y107637D1*
G1X204056Y107283D2*
G1X215431Y107283D1*
G1X204056Y106929D2*
G1X215431Y106929D1*
G1X204056Y106574D2*
G1X215431Y106574D1*
G1X204056Y106220D2*
G1X215431Y106220D1*
G1X204056Y105866D2*
G1X215431Y105866D1*
G1X204056Y105511D2*
G1X215431Y105511D1*
G1X204056Y105157D2*
G1X215431Y105157D1*
G1X204056Y104803D2*
G1X215431Y104803D1*
G1X204056Y104448D2*
G1X215431Y104448D1*
G1X204056Y104094D2*
G1X215431Y104094D1*
G1X204056Y103740D2*
G1X215431Y103740D1*
G1X204056Y103385D2*
G1X215431Y103385D1*
G1X204056Y103031D2*
G1X215431Y103031D1*
G1X204056Y102677D2*
G1X215431Y102677D1*
G1X204056Y102322D2*
G1X215431Y102322D1*
G1X204056Y101968D2*
G1X215431Y101968D1*
G1X204056Y101614D2*
G1X215431Y101614D1*
G1X204056Y101259D2*
G1X215431Y101259D1*
G1X204056Y100905D2*
G1X215431Y100905D1*
G1X204056Y100551D2*
G1X215431Y100551D1*
G1X204056Y100196D2*
G1X215431Y100196D1*
G1X204056Y99842D2*
G1X215431Y99842D1*
G1X204056Y99488D2*
G1X215431Y99488D1*
G1X204056Y99133D2*
G1X215431Y99133D1*
G1X204056Y98779D2*
G1X215431Y98779D1*
G1X204056Y98425D2*
G1X215431Y98425D1*
G1X204056Y98070D2*
G1X215431Y98070D1*
G1X204056Y97716D2*
G1X215431Y97716D1*
G1X204056Y97362D2*
G1X215431Y97362D1*
G1X204056Y97007D2*
G1X215431Y97007D1*
G1X204056Y96653D2*
G1X215431Y96653D1*
G1X204056Y96299D2*
G1X215431Y96299D1*
G1X204056Y95944D2*
G1X215431Y95944D1*
G1X204056Y95590D2*
G1X215431Y95590D1*
G1X204056Y95236D2*
G1X215431Y95236D1*
G1X204056Y94881D2*
G1X215431Y94881D1*
G1X204056Y94527D2*
G1X215431Y94527D1*
G1X204056Y94173D2*
G1X215431Y94173D1*
G1X204056Y93818D2*
G1X215431Y93818D1*
G1X204056Y93464D2*
G1X215431Y93464D1*
G1X204056Y93110D2*
G1X215431Y93110D1*
G1X204056Y92755D2*
G1X215431Y92755D1*
G1X204056Y92401D2*
G1X215431Y92401D1*
G1X204056Y92047D2*
G1X215431Y92047D1*
G1X204056Y91692D2*
G1X215431Y91692D1*
G1X204056Y91338D2*
G1X215431Y91338D1*
G1X204056Y90984D2*
G1X215431Y90984D1*
G1X204056Y90629D2*
G1X215431Y90629D1*
G1X178677Y158850D2*
G1X204115Y158850D1*
G1X178677Y158495D2*
G1X204115Y158495D1*
G1X178677Y158141D2*
G1X204115Y158141D1*
G1X178677Y157787D2*
G1X204115Y157787D1*
G1X178677Y157432D2*
G1X204115Y157432D1*
G1X178677Y157078D2*
G1X204115Y157078D1*
G1X178677Y156724D2*
G1X204115Y156724D1*
G1X178677Y156369D2*
G1X204115Y156369D1*
G1X178677Y156015D2*
G1X204115Y156015D1*
G1X178677Y155661D2*
G1X204115Y155661D1*
G1X178677Y155306D2*
G1X204115Y155306D1*
G1X178677Y154952D2*
G1X204115Y154952D1*
G1X178677Y154598D2*
G1X204115Y154598D1*
G1X178677Y154243D2*
G1X204115Y154243D1*
G1X178677Y153889D2*
G1X204115Y153889D1*
G1X178416Y153535D2*
G1X204115Y153535D1*
G1X178062Y153181D2*
G1X204115Y153181D1*
G1X177707Y152826D2*
G1X204115Y152826D1*
G1X177353Y152472D2*
G1X204115Y152472D1*
G1X176999Y152118D2*
G1X204115Y152118D1*
G1X176644Y151763D2*
G1X204115Y151763D1*
G1X176290Y151409D2*
G1X204115Y151409D1*
G1X175936Y151055D2*
G1X204115Y151055D1*
G1X175581Y150700D2*
G1X204115Y150700D1*
G1X175227Y150346D2*
G1X204115Y150346D1*
G1X174873Y149992D2*
G1X204115Y149992D1*
G1X174518Y149637D2*
G1X204115Y149637D1*
G1X174164Y149283D2*
G1X204115Y149283D1*
G1X173810Y148929D2*
G1X204115Y148929D1*
G1X173455Y148574D2*
G1X204115Y148574D1*
G1X173101Y148220D2*
G1X204115Y148220D1*
G1X172747Y147866D2*
G1X204115Y147866D1*
G1X172392Y147511D2*
G1X204115Y147511D1*
G1X172038Y147157D2*
G1X204115Y147157D1*
G1X171684Y146803D2*
G1X204115Y146803D1*
G1X171329Y146448D2*
G1X204115Y146448D1*
G1X171101Y146094D2*
G1X204115Y146094D1*
G1X171101Y145740D2*
G1X203940Y145740D1*
G1X178677Y159204D2*
G1X203813Y159204D1*
G1X171101Y145385D2*
G1X203585Y145385D1*
G1X178677Y159558D2*
G1X203459Y159558D1*
G1X171101Y145031D2*
G1X203231Y145031D1*
G1X178677Y159913D2*
G1X203105Y159913D1*
G1X171101Y144677D2*
G1X202877Y144677D1*
G1X178677Y160267D2*
G1X202750Y160267D1*
G1X171101Y144322D2*
G1X202522Y144322D1*
G1X178677Y160621D2*
G1X202396Y160621D1*
G1X171101Y143968D2*
G1X202168Y143968D1*
G1X178677Y160976D2*
G1X202042Y160976D1*
G1X171101Y143614D2*
G1X201814Y143614D1*
G1X178677Y161330D2*
G1X201687Y161330D1*
G1X171101Y143259D2*
G1X201459Y143259D1*
G1X178677Y161684D2*
G1X201333Y161684D1*
G1X171101Y142905D2*
G1X201105Y142905D1*
G1X178677Y162039D2*
G1X200979Y162039D1*
G1X171101Y142551D2*
G1X200751Y142551D1*
G1X178677Y162393D2*
G1X200624Y162393D1*
G1X171101Y142196D2*
G1X200396Y142196D1*
G1X178677Y162747D2*
G1X200270Y162747D1*
G1X171101Y141842D2*
G1X200042Y141842D1*
G1X178677Y163102D2*
G1X199916Y163102D1*
G1X171146Y141488D2*
G1X199688Y141488D1*
G1X178677Y163456D2*
G1X199561Y163456D1*
G1X171500Y141133D2*
G1X199333Y141133D1*
G1X171854Y140779D2*
G1X198979Y140779D1*
G1X172209Y140425D2*
G1X198625Y140425D1*
G1X172563Y140070D2*
G1X198270Y140070D1*
G1X172917Y139716D2*
G1X197916Y139716D1*
G1X173272Y139362D2*
G1X197562Y139362D1*
G54D60*
G1X281216Y38241D3*
G1X246907Y86415D3*
G1X267191Y172173D3*
G1X273433Y172385D3*
G1X260545Y172444D3*
G1X294016Y172601D3*
G1X286397Y172569D3*
G1X279869Y172661D3*
G54D124*
G1X444441Y273071D3*
G54D165*
G1X148675Y226283D3*
G1X130564Y226283D3*
G1X148675Y173662D3*
G1X130564Y173662D3*
G1X61456Y226283D3*
G1X43345Y226283D3*
G1X61456Y173662D3*
G1X43345Y173662D3*
G1X105327Y226283D3*
G1X87217Y226283D3*
G1X105327Y173662D3*
G1X87217Y173662D3*
G54D166*
G1X139619Y251874D3*
G1X139619Y199252D3*
G1X52401Y251874D3*
G1X52401Y199252D3*
G1X96272Y251874D3*
G1X96272Y199252D3*
G1X400016Y83486D2*
G54D12*
G1X399662Y83840D1*
G54D15*
G1X400016Y83486D3*
G1X429611Y69645D2*
G54D12*
G1X429257Y69999D1*
G54D15*
G1X429611Y69645D3*
G1X394398Y77868D3*
G1X435047Y73572D3*
M2*
