*
%LPD*%
%LNart001*%
%FSLAX25Y25*%
%MOIN*%
%AD*%
%ADD11C,0.07087*%
%ADD12C,0.07874*%
%ADD13C,0.17874*%
%ADD14C,0.17717*%
%ADD15C,0.1*%
%ADD16R,0.06X0.06*%
%ADD17C,0.10236*%
%ADD19R,0.09843X0.0315*%
%ADD20O,0.09843X0.0315*%
%ADD22R,0.04724X0.04724*%
%ADD23C,0.09843*%
%ADD25C,0.14173*%
%ADD27R,0.06693X0.06299*%
%ADD28C,0.08*%
%ADD29R,0.09055X0.10236*%
%ADD30O,0.05906X0.09843*%
%ADD31R,0.02953X0.05906*%
%ADD32R,0.06693X0.07874*%
%ADD36R,0.11X0.08*%
%ADD37O,0.11X0.08*%
%ADD38C,0.06299*%
%ADD39R,0.08X0.11*%
%ADD40O,0.08X0.11*%
%ADD42C,0.1378*%
%ADD43C,0.05906*%
%ADD44C,0.2*%
%ADD45R,0.05906X0.05906*%
%ADD47O,0.09843X0.07087*%
%ADD50O,0.15748X0.11811*%
%ADD51C,0.01*%
%ADD52C,0.00984*%
%ADD53C,0.01969*%
%ADD54C,0.03937*%
%ADD55C,0.0315*%
%ADD56C,0.04724*%
%ADD57C,0.00787*%
%ADD58C,0.01181*%
%ADD59C,0.00394*%
%ADD117O,0.09843X0.05906*%
%ADD159R,0.00984X0.04921*%
%ADD160R,0.04921X0.00984*%
%ADD161R,0.23622X0.23622*%
%ADD162R,0.02598X0.00984*%
%ADD163R,0.00984X0.02598*%
%ADD164R,0.21654X0.21654*%
%ADD175R,0.02008X0.04331*%
G54D11*
%SRX1Y1I0.0J0.0*%
G1X380443Y41869D3*
G1X360758Y41869D3*
G54D12*
G1X385411Y105359D3*
G1X444466Y105359D3*
G1X374680Y219668D3*
G1X433735Y219668D3*
G1X363690Y78570D3*
G1X363690Y108098D3*
G1X307422Y27796D3*
G1X317422Y27796D3*
G1X225483Y95366D3*
G1X225483Y115051D3*
G1X321293Y186862D2*
G1X331153Y183704D1*
G1X322155Y186862D1*
G1X331153Y190020D1*
G1X321293Y186862D1*
G1X323935Y186015D2*
G1X324567Y186015D1*
G1X321293Y186862D3*
G1X329167Y184340D2*
G1X329167Y184401D1*
G1X329167Y189322D2*
G1X329167Y189383D1*
G1X237427Y141530D2*
G1X238228Y140730D1*
G1X238228Y135391D1*
G1X251749Y121870D1*
G1X269098Y121870D1*
G1X255998Y219042D2*
G1X277301Y219042D1*
G1X309482Y186862D1*
G1X335029Y186862D1*
G1X257029Y220073D2*
G1X255998Y219042D1*
G1X257029Y220073D1*
G1X258823Y220073D1*
G1X259199Y220449D1*
G1X374680Y221218D2*
G1X374680Y219705D1*
G1X374680Y219668D1*
G1X180354Y222858D2*
G1X254244Y222858D1*
G1X257029Y220073D1*
G54D13*
G1X335029Y286862D3*
G1X335029Y246862D3*
G1X335029Y216862D3*
G1X335029Y186862D3*
G54D14*
G1X444441Y273071D3*
G1X121894Y290519D3*
G1X90398Y290519D3*
G1X58902Y290519D3*
G54D15*
G1X383741Y294370D3*
G1X423741Y289370D3*
G1X424945Y265713D3*
G1X384945Y270713D3*
G1X434514Y73216D3*
G1X394514Y78216D3*
G54D16*
G1X324394Y73597D3*
G1X311394Y73597D3*
G1X150648Y251849D3*
G1X137648Y251849D3*
G1X63042Y250650D3*
G1X50042Y250650D3*
G1X151812Y197950D3*
G1X138812Y197950D3*
G1X62111Y194927D3*
G1X49111Y194927D3*
G1X107430Y251544D3*
G1X94430Y251544D3*
G1X107131Y197837D3*
G1X94131Y197837D3*
G1X166852Y42822D3*
G1X179852Y42822D3*
G54D17*
G1X272594Y120694D3*
G1X272594Y98647D3*
G54D19*
G1X177902Y72727D3*
G54D20*
G1X177902Y77727D3*
G1X177902Y82727D3*
G1X177902Y87727D3*
G1X157902Y87727D3*
G1X157902Y82727D3*
G1X157902Y77727D3*
G1X157902Y72727D3*
G54D22*
G1X304103Y115210D3*
G1X304103Y123084D3*
G1X308141Y140965D3*
G1X316015Y140965D3*
G1X319153Y122850D3*
G1X319153Y114976D3*
G1X312055Y123121D3*
G1X312055Y115247D3*
G1X312171Y107376D3*
G1X320045Y107376D3*
G1X307776Y147950D3*
G1X315650Y147950D3*
G1X281151Y23715D3*
G1X281151Y31589D3*
G1X324165Y148485D3*
G1X324165Y140611D3*
G1X255285Y78191D3*
G1X247411Y78191D3*
G1X290389Y31155D3*
G1X290389Y23281D3*
G1X231705Y32521D3*
G1X231705Y24647D3*
G1X231672Y40073D3*
G1X223798Y40073D3*
G1X223816Y24948D3*
G1X223816Y32822D3*
G1X141990Y56778D3*
G1X141990Y48904D3*
G1X216243Y165244D3*
G1X216243Y173118D3*
G1X151828Y243076D3*
G1X151828Y235202D3*
G1X152478Y189543D3*
G1X152478Y181669D3*
G1X63779Y242669D3*
G1X63779Y234795D3*
G1X63748Y186554D3*
G1X63748Y178680D3*
G1X144753Y235213D3*
G1X136879Y235213D3*
G1X145699Y181384D3*
G1X137825Y181384D3*
G1X56855Y179415D3*
G1X48981Y179415D3*
G1X56881Y234825D3*
G1X49007Y234825D3*
G1X144845Y242503D3*
G1X136971Y242503D3*
G1X56986Y242441D3*
G1X49112Y242441D3*
G1X145745Y189186D3*
G1X137871Y189186D3*
G1X56855Y186243D3*
G1X48981Y186243D3*
G1X108688Y243317D3*
G1X108688Y235443D3*
G1X108134Y189174D3*
G1X108134Y181300D3*
G1X101419Y181730D3*
G1X93545Y181730D3*
G1X101872Y235308D3*
G1X93998Y235308D3*
G1X101581Y242949D3*
G1X93707Y242949D3*
G1X101225Y189004D3*
G1X93351Y189004D3*
G1X159822Y115429D3*
G1X159822Y107555D3*
G1X152945Y107448D3*
G1X152945Y115322D3*
G1X72733Y32948D3*
G1X72733Y25074D3*
G1X81270Y32797D3*
G1X81270Y24923D3*
G1X156244Y56620D3*
G1X156244Y48746D3*
G1X135837Y86800D3*
G1X135837Y94674D3*
G1X143462Y87461D3*
G1X143462Y95335D3*
G1X143105Y71282D3*
G1X143105Y79156D3*
G1X135674Y71282D3*
G1X135674Y79156D3*
G1X95302Y25271D3*
G1X95302Y33145D3*
G1X198955Y86183D3*
G1X198955Y94057D3*
G1X88080Y32948D3*
G1X88080Y25074D3*
G1X191507Y85975D3*
G1X191507Y93849D3*
G1X191628Y69468D3*
G1X191628Y77342D3*
G1X199253Y69129D3*
G1X199253Y77003D3*
G1X69132Y51678D3*
G1X69132Y59552D3*
G1X109690Y25271D3*
G1X109690Y33145D3*
G1X102475Y32948D3*
G1X102475Y25074D3*
G1X124728Y25271D3*
G1X124728Y33145D3*
G1X116893Y32948D3*
G1X116893Y25074D3*
G1X55398Y91187D3*
G1X55398Y99061D3*
G1X51992Y36650D3*
G1X59866Y36650D3*
G1X55428Y106134D3*
G1X55428Y114008D3*
G1X171995Y61277D3*
G1X164121Y61277D3*
G1X133953Y108222D3*
G1X133953Y116096D3*
G1X148910Y56564D3*
G1X148910Y48690D3*
G1X174112Y107700D3*
G1X174112Y115574D3*
G1X181428Y107779D3*
G1X181428Y115653D3*
G1X166865Y107700D3*
G1X166865Y115574D3*
G1X188859Y107561D3*
G1X188859Y115435D3*
G1X141524Y116638D3*
G1X141524Y108764D3*
G1X57019Y63980D3*
G1X57019Y56106D3*
G1X59967Y43966D3*
G1X52093Y43966D3*
G1X62510Y155849D3*
G1X54636Y155849D3*
G1X105841Y156125D3*
G1X97967Y156125D3*
G1X147834Y155775D3*
G1X139960Y155775D3*
G54D23*
G1X183249Y281119D3*
G1X183249Y222064D3*
G54D25*
G1X437697Y41560D3*
G1X406516Y41560D3*
G54D27*
G1X191461Y300519D3*
G1X178075Y300519D3*
G1X218435Y300619D3*
G1X205049Y300619D3*
G54D28*
G1X310567Y85814D3*
G1X310567Y97814D3*
G54D29*
G1X280909Y54641D3*
G1X280909Y73538D3*
G54D30*
G1X324275Y55451D3*
G1X304590Y55451D3*
G54D31*
G1X247839Y54001D3*
G1X253745Y54001D3*
G1X259650Y54001D3*
G54D32*
G1X253745Y65812D3*
G54D36*
G1X36653Y44907D3*
G1X36686Y95279D3*
G54D37*
G1X36653Y54907D3*
G1X36653Y64907D3*
G1X36653Y74907D3*
G1X36686Y105279D3*
G1X36686Y115279D3*
G1X36686Y125279D3*
G54D38*
G1X271632Y23913D3*
G1X271632Y33913D3*
G1X240036Y33829D3*
G1X240036Y23829D3*
G54D39*
G1X206796Y25179D3*
G54D40*
G1X196796Y25179D3*
G1X186796Y25179D3*
G1X176796Y25179D3*
G1X166796Y25179D3*
G1X156796Y25179D3*
G1X146796Y25179D3*
G1X136796Y25179D3*
G54D42*
G1X382542Y145037D3*
G1X433723Y145037D3*
G1X433723Y182439D3*
G1X382542Y182439D3*
G1X237618Y171849D2*
G54D43*
G1X237618Y187410D1*
G1X256101Y205893D1*
G1X256101Y221001D1*
G1X237618Y171849D2*
G1X237618Y162761D1*
G1X237845Y162533D1*
G1X237845Y172461D1*
G1X237427Y161215D2*
G1X237845Y161633D1*
G1X237845Y172461D1*
G54D44*
G1X259199Y260449D3*
G1X259199Y220449D3*
G54D45*
G1X53235Y27981D3*
G1X62435Y27981D3*
G54D47*
G1X223524Y56198D3*
G1X223524Y69977D3*
G54D50*
G1X335545Y276454D3*
G1X335545Y246927D3*
G1X335545Y217399D3*
G1X335545Y187872D3*
G1X50835Y30281D2*
G54D51*
G1X50835Y25781D1*
G1X55735Y25781D1*
G1X55735Y30281D1*
G1X50835Y30281D1*
G1X50835Y25781D2*
G1X50835Y30281D1*
G1X51335Y25781D2*
G1X51335Y30281D1*
G1X51835Y25781D2*
G1X51835Y30281D1*
G1X52335Y25781D2*
G1X52335Y30281D1*
G1X52835Y25781D2*
G1X52835Y30281D1*
G1X53335Y25781D2*
G1X53335Y30281D1*
G1X53835Y25781D2*
G1X53835Y30281D1*
G1X54335Y25781D2*
G1X54335Y30281D1*
G1X54835Y25781D2*
G1X54835Y30281D1*
G1X55335Y25781D2*
G1X55335Y30281D1*
G1X59935Y30281D2*
G1X59935Y25781D1*
G1X64835Y25781D1*
G1X64835Y30281D1*
G1X59935Y30281D1*
G1X60335Y25781D2*
G1X60335Y30281D1*
G1X60835Y25781D2*
G1X60835Y30281D1*
G1X61335Y25781D2*
G1X61335Y30281D1*
G1X61835Y25781D2*
G1X61835Y30281D1*
G1X62335Y25781D2*
G1X62335Y30281D1*
G1X62835Y25781D2*
G1X62835Y30281D1*
G1X63335Y25781D2*
G1X63335Y30281D1*
G1X63835Y25781D2*
G1X63835Y30281D1*
G1X64335Y25781D2*
G1X64335Y30281D1*
G1X212906Y161907D2*
G1X214572Y163574D1*
G1X212906Y168580D2*
G1X214572Y166914D1*
G1X219579Y168580D2*
G1X217913Y166914D1*
G1X219579Y161907D2*
G1X217913Y163574D1*
G1X262358Y98647D2*
G54D52*
G1X269323Y95376D1*
G1X266984Y98647D1*
G1X269323Y101918D1*
G1X262358Y98647D1*
G1X269135Y95464D2*
G1X269260Y95464D1*
G1X267039Y96448D2*
G1X268556Y96448D1*
G1X264943Y97433D2*
G1X267852Y97433D1*
G1X262847Y98417D2*
G1X267148Y98417D1*
G1X263965Y99401D2*
G1X267524Y99401D1*
G1X266060Y100385D2*
G1X268228Y100385D1*
G1X268156Y101370D2*
G1X268931Y101370D1*
G1X262358Y98647D3*
G1X263342Y98184D2*
G1X263342Y99109D1*
G1X264327Y97722D2*
G1X264327Y99571D1*
G1X265311Y97260D2*
G1X265311Y100033D1*
G1X266295Y96798D2*
G1X266295Y100496D1*
G1X267279Y96335D2*
G1X267279Y98234D1*
G1X267279Y99060D2*
G1X267279Y100958D1*
G1X268264Y95873D2*
G1X268264Y96857D1*
G1X268264Y100436D2*
G1X268264Y101420D1*
G1X269248Y95411D2*
G1X269248Y95481D1*
G1X269248Y101812D2*
G1X269248Y101882D1*
G1X48371Y19805D2*
G1X50767Y18791D1*
G1X48371Y17776D1*
G1X48746Y19076D2*
G1X50767Y18791D1*
G1X48746Y18506D1*
G1X54364Y19843D2*
G1X51856Y18791D1*
G1X54168Y17804D1*
G1X53892Y19077D2*
G1X51856Y18791D1*
G1X53864Y18507D1*
G1X47298Y18791D2*
G1X55256Y18791D1*
G1X55325Y18722D1*
G1X63202Y19360D2*
G1X65598Y18345D1*
G1X63202Y17331D1*
G1X63578Y18630D2*
G1X65598Y18345D1*
G1X63578Y18060D1*
G1X70418Y19481D2*
G1X67682Y18345D1*
G1X69916Y17384D1*
G1X69737Y18633D2*
G1X67682Y18345D1*
G1X69678Y18062D1*
G1X62129Y18345D2*
G1X71000Y18345D1*
G1X71148Y18197D1*
G1X72221Y19212D2*
G1X74617Y18197D1*
G1X72221Y17183D1*
G1X72596Y18482D2*
G1X74617Y18197D1*
G1X72596Y17912D1*
G1X71148Y18197D2*
G1X78986Y18197D1*
G1X79202Y18414D1*
G1X79976Y18414D1*
G1X56398Y19736D2*
G1X58794Y18722D1*
G1X56398Y17708D1*
G1X56774Y19007D2*
G1X58794Y18722D1*
G1X56774Y18437D1*
G1X61649Y19742D2*
G1X58680Y18722D1*
G1X60838Y17630D1*
G1X60754Y18882D2*
G1X58680Y18722D1*
G1X60653Y18317D1*
G1X55325Y18722D2*
G1X61752Y18722D1*
G1X62129Y18345D1*
G1X81048Y19428D2*
G1X83445Y18414D1*
G1X81048Y17400D1*
G1X81424Y18699D2*
G1X83445Y18414D1*
G1X81424Y18129D1*
G1X87042Y19466D2*
G1X84534Y18414D1*
G1X86846Y17428D1*
G1X86570Y18700D2*
G1X84534Y18414D1*
G1X86542Y18130D1*
G1X79976Y18414D2*
G1X87934Y18414D1*
G1X88003Y18345D1*
G1X89076Y19360D2*
G1X91472Y18345D1*
G1X89076Y17331D1*
G1X89451Y18630D2*
G1X91472Y18345D1*
G1X89451Y18060D1*
G1X96138Y19515D2*
G1X93225Y18345D1*
G1X95435Y17365D1*
G1X95288Y18611D2*
G1X93225Y18345D1*
G1X95216Y18041D1*
G1X88003Y18345D2*
G1X96489Y18345D1*
G1X96688Y18145D1*
G1X97761Y19160D2*
G1X100158Y18145D1*
G1X97761Y17131D1*
G1X98137Y18431D2*
G1X100158Y18145D1*
G1X98137Y17860D1*
G1X104978Y19281D2*
G1X102241Y18145D1*
G1X104475Y17184D1*
G1X104297Y18433D2*
G1X102241Y18145D1*
G1X104237Y17863D1*
G1X96688Y18145D2*
G1X105560Y18145D1*
G1X105707Y17998D1*
G1X106251Y19370D2*
G1X109170Y18214D1*
G1X106964Y17223D1*
G1X107106Y18470D2*
G1X109170Y18214D1*
G1X107181Y17901D1*
G1X113462Y19228D2*
G1X111066Y18214D1*
G1X113462Y17200D1*
G1X113087Y18499D2*
G1X111066Y18214D1*
G1X113087Y17929D1*
G1X105707Y17998D2*
G1X105924Y18214D1*
G1X114535Y18214D1*
G1X118178Y23715D2*
G1X116893Y20680D1*
G1X115608Y23715D1*
G1X117445Y23288D2*
G1X116893Y20680D1*
G1X116893Y23204D1*
G1X116893Y20680D2*
G1X116341Y23288D1*
G1X102475Y19151D2*
G1X116893Y19151D1*
G1X116893Y25074D1*
G1X103760Y23715D2*
G1X102475Y20680D1*
G1X101191Y23715D1*
G1X103027Y23288D2*
G1X102475Y20680D1*
G1X102475Y23204D1*
G1X102475Y20680D2*
G1X101924Y23288D1*
G1X102475Y19151D2*
G1X102475Y25074D1*
G1X52045Y38520D2*
G1X55100Y39758D1*
G1X53862Y36703D1*
G1X52866Y38304D2*
G1X55100Y39758D1*
G1X53315Y37973D1*
G1X55100Y39758D2*
G1X53646Y37524D1*
G1X58285Y44783D2*
G1X56548Y41205D1*
G1X59456Y42167D1*
G1X58182Y43407D2*
G1X56548Y41205D1*
G1X58440Y42886D1*
G1X56548Y41205D2*
G1X58816Y42492D1*
G1X51992Y36650D2*
G1X59308Y43966D1*
G1X59967Y43966D1*
G1X62785Y30417D2*
G1X65541Y31087D1*
G1X64870Y28331D1*
G1X63688Y30099D2*
G1X65541Y31087D1*
G1X64175Y29721D1*
G1X64553Y29234D2*
G1X65541Y31087D1*
G1X62435Y27981D1*
G1X65541Y31087D2*
G1X65866Y31087D1*
G1X65866Y39441D1*
G1X74157Y47733D1*
G1X83830Y47733D1*
G1X85643Y49546D1*
G1X85643Y68389D1*
G1X74092Y26359D2*
G1X77127Y25074D1*
G1X74092Y23790D1*
G1X74520Y25626D2*
G1X77127Y25074D1*
G1X74603Y25074D1*
G1X77127Y25074D2*
G1X74520Y24523D1*
G1X72733Y25074D2*
G1X77146Y25074D1*
G1X71757Y34544D2*
G1X73022Y37334D1*
G1X74474Y33631D1*
G1X72430Y34794D2*
G1X73022Y37334D1*
G1X72974Y34803D1*
G1X73022Y37334D2*
G1X73532Y34639D1*
G1X72733Y32948D2*
G1X73022Y33237D1*
G1X73022Y42249D1*
G1X75592Y44819D1*
G1X89759Y44819D1*
G1X95486Y50546D1*
G1X95486Y68389D1*
G1X80163Y26430D2*
G1X77146Y25074D1*
G1X79719Y23879D1*
G1X79469Y25426D2*
G1X77146Y25074D1*
G1X79410Y24728D1*
G1X77146Y25074D2*
G1X81119Y25074D1*
G1X81270Y24923D1*
G1X78160Y40459D2*
G1X77146Y38062D1*
G1X76132Y40459D1*
G1X77431Y40083D2*
G1X77146Y38062D1*
G1X76861Y40083D1*
G1X77146Y25074D2*
G1X77146Y41532D1*
G1X89365Y23715D2*
G1X88080Y20680D1*
G1X86795Y23715D1*
G1X88632Y23288D2*
G1X88080Y20680D1*
G1X88080Y23204D1*
G1X88080Y20680D2*
G1X87528Y23288D1*
G1X88080Y25074D2*
G1X88080Y19151D1*
G1X102475Y19151D1*
G1X89949Y32896D2*
G1X91187Y29841D1*
G1X88132Y31079D1*
G1X89733Y32075D2*
G1X91187Y29841D1*
G1X89402Y31626D1*
G1X91187Y29841D2*
G1X88953Y31295D1*
G1X88080Y32948D2*
G1X94897Y26131D1*
G1X94897Y25675D1*
G1X95302Y25271D1*
G1X89288Y34375D2*
G1X88080Y36763D1*
G1X86871Y34375D1*
G1X88413Y34789D2*
G1X88080Y36763D1*
G1X87747Y34789D1*
G1X88080Y32948D2*
G1X88080Y36763D1*
G1X89126Y37809D1*
G1X91845Y37809D1*
G1X100539Y46502D1*
G1X100551Y46502D1*
G1X101392Y47343D1*
G1X82334Y26461D2*
G1X85662Y25074D1*
G1X82799Y23846D1*
G1X83000Y25633D2*
G1X85662Y25074D1*
G1X83134Y25074D1*
G1X85662Y25074D2*
G1X83098Y24528D1*
G1X86721Y26359D2*
G1X83685Y25074D1*
G1X86721Y23790D1*
G1X86293Y25626D2*
G1X83685Y25074D1*
G1X86210Y25074D1*
G1X83685Y25074D2*
G1X86293Y24523D1*
G1X81270Y24923D2*
G1X81422Y25074D1*
G1X88080Y25074D1*
G1X82555Y34156D2*
G1X81270Y37192D1*
G1X79985Y34156D1*
G1X81822Y34584D2*
G1X81270Y37192D1*
G1X81270Y34667D1*
G1X81270Y37192D2*
G1X80718Y34584D1*
G1X81270Y32797D2*
G1X81270Y38285D1*
G1X83222Y40237D1*
G1X91102Y40237D1*
G1X99377Y48512D1*
G1X96392Y34664D2*
G1X95302Y36352D1*
G1X94211Y34664D1*
G1X95595Y34992D2*
G1X95302Y36352D1*
G1X95009Y34992D1*
G1X94915Y36739D2*
G1X95302Y36352D1*
G1X95302Y33145D1*
G1X96775Y38968D2*
G1X95196Y36900D1*
G1X97781Y37206D1*
G1X96810Y38149D2*
G1X95196Y36900D1*
G1X97093Y37654D1*
G1X94915Y36739D2*
G1X98210Y38619D1*
G1X104345Y32896D2*
G1X105583Y29841D1*
G1X102528Y31079D1*
G1X104129Y32075D2*
G1X105583Y29841D1*
G1X103798Y31626D1*
G1X105583Y29841D2*
G1X103349Y31295D1*
G1X102475Y32948D2*
G1X108786Y26638D1*
G1X108786Y26175D1*
G1X109690Y25271D1*
G1X110975Y34504D2*
G1X109690Y37539D1*
G1X108405Y34504D1*
G1X110242Y34932D2*
G1X109690Y37539D1*
G1X109690Y35015D1*
G1X109690Y37539D2*
G1X109138Y34932D1*
G1X110975Y39024D2*
G1X109690Y35988D1*
G1X108405Y39024D1*
G1X110242Y38596D2*
G1X109690Y35988D1*
G1X109690Y38513D1*
G1X109690Y35988D2*
G1X109138Y38596D1*
G1X109690Y33145D2*
G1X109690Y40383D1*
G1X122696Y38876D2*
G1X121983Y35890D1*
G1X120691Y37857D1*
G1X121935Y37906D2*
G1X121983Y35890D1*
G1X121388Y37748D1*
G1X124587Y35009D2*
G1X121983Y35890D1*
G1X122863Y33286D1*
G1X123665Y34684D2*
G1X121983Y35890D1*
G1X123189Y34207D1*
G1X121260Y39219D2*
G1X121983Y39219D1*
G1X121983Y35890D1*
G1X124728Y33145D1*
G1X118751Y33157D2*
G1X120078Y29921D1*
G1X117148Y31096D1*
G1X118600Y32186D2*
G1X120078Y29921D1*
G1X118291Y31707D1*
G1X120078Y29921D2*
G1X117870Y31354D1*
G1X124675Y27140D2*
G1X121620Y28378D1*
G1X122859Y25323D1*
G1X123855Y26924D2*
G1X121620Y28378D1*
G1X123406Y26593D1*
G1X121620Y28378D2*
G1X123074Y26144D1*
G1X116893Y32948D2*
G1X117050Y32948D1*
G1X124728Y25271D1*
G1X180034Y28027D2*
G1X177374Y34419D1*
G1X174417Y28447D1*
G1X179098Y28097D2*
G1X177374Y34419D1*
G1X178162Y28167D1*
G1X177226Y28237D2*
G1X177374Y34419D1*
G1X176290Y28307D1*
G1X177374Y34419D2*
G1X175354Y28377D1*
G1X176796Y25179D2*
G1X177374Y25179D1*
G1X177374Y34419D1*
G1X69839Y51693D2*
G1X82707Y51693D1*
G1X83675Y52661D1*
G1X83675Y68389D1*
G1X70491Y60837D2*
G1X73527Y59552D1*
G1X70491Y58268D1*
G1X70919Y60104D2*
G1X73527Y59552D1*
G1X71002Y59552D1*
G1X73527Y59552D2*
G1X70919Y59001D1*
G1X69132Y59552D2*
G1X78595Y59552D1*
G1X78711Y59437D1*
G1X81637Y62363D1*
G1X81637Y68320D1*
G1X81706Y68389D1*
G1X69132Y51678D2*
G1X69147Y51693D1*
G1X69839Y51693D1*
G1X77355Y42993D2*
G1X80463Y42548D1*
G1X78548Y41071D1*
G1X78396Y42317D2*
G1X80463Y42548D1*
G1X78601Y41780D1*
G1X77146Y41532D2*
G1X78162Y42548D1*
G1X90656Y42548D1*
G1X90656Y42626D1*
G1X97454Y49424D1*
G1X97454Y68389D1*
G1X107564Y49032D2*
G1X105259Y51338D1*
G1X105328Y51407D1*
G1X105328Y73586D1*
G1X103321Y44061D2*
G1X103290Y44092D1*
G1X103360Y44162D1*
G1X103360Y68389D1*
G1X99377Y48512D2*
G1X99353Y48536D1*
G1X99423Y48605D1*
G1X99423Y68389D1*
G1X118103Y34374D2*
G1X116840Y37343D1*
G1X115529Y34228D1*
G1X117390Y34751D2*
G1X116840Y37343D1*
G1X116840Y34818D1*
G1X116840Y37343D2*
G1X116286Y34717D1*
G1X107564Y49032D2*
G1X116840Y39756D1*
G1X116840Y32948D1*
G1X116893Y32948D1*
G1X108189Y50812D2*
G1X107884Y49032D1*
G1X109664Y49338D1*
G1X108520Y50061D2*
G1X107884Y49032D1*
G1X108913Y49669D1*
G1X107564Y49032D2*
G1X107884Y49032D1*
G1X110024Y51173D1*
G1X103759Y34308D2*
G1X102475Y37343D1*
G1X101190Y34306D1*
G1X103027Y34735D2*
G1X102475Y37343D1*
G1X102475Y34819D1*
G1X102475Y37343D2*
G1X101923Y34735D1*
G1X102475Y41326D2*
G1X102475Y32949D1*
G1X102475Y32948D1*
G1X102475Y41326D2*
G1X102475Y43215D1*
G1X103321Y44061D1*
G1X150269Y49975D2*
G1X153305Y48690D1*
G1X150269Y47405D1*
G1X150697Y49242D2*
G1X153305Y48690D1*
G1X150780Y48690D1*
G1X153305Y48690D2*
G1X150697Y48138D1*
G1X154814Y49952D2*
G1X151849Y48690D1*
G1X154970Y47377D1*
G1X154440Y49240D2*
G1X151849Y48690D1*
G1X154375Y48690D1*
G1X151849Y48690D2*
G1X154476Y48136D1*
G1X148910Y48690D2*
G1X156244Y48690D1*
G1X156244Y48746D1*
G1X147985Y58190D2*
G1X149337Y60938D1*
G1X150672Y57192D1*
G1X148666Y58418D2*
G1X149337Y60938D1*
G1X149210Y58410D1*
G1X149337Y60938D2*
G1X149763Y58229D1*
G1X148910Y56564D2*
G1X149337Y56991D1*
G1X149337Y63904D1*
G1X143349Y50189D2*
G1X146385Y48904D1*
G1X143349Y47619D1*
G1X143777Y49456D2*
G1X146385Y48904D1*
G1X143860Y48904D1*
G1X146385Y48904D2*
G1X143777Y48352D1*
G1X148197Y50419D2*
G1X144521Y48904D1*
G1X147332Y47687D1*
G1X147206Y49461D2*
G1X144521Y48904D1*
G1X147052Y48900D1*
G1X144521Y48904D2*
G1X147070Y48356D1*
G1X141990Y48904D2*
G1X148696Y48904D1*
G1X148910Y48690D1*
G1X143860Y56725D2*
G1X145098Y53670D1*
G1X142043Y54909D1*
G1X143644Y55905D2*
G1X145098Y53670D1*
G1X143313Y55456D1*
G1X145098Y53670D2*
G1X142863Y55124D1*
G1X141990Y56778D2*
G1X146139Y52630D1*
G1X152215Y52630D1*
G1X155924Y56338D1*
G1X156206Y56620D1*
G1X156244Y56620D1*
G1X158101Y44115D2*
G1X161903Y42947D1*
G1X159216Y41475D1*
G1X159177Y43252D2*
G1X161903Y42947D1*
G1X159383Y42708D1*
G1X161903Y42947D2*
G1X159415Y42165D1*
G1X165236Y44739D2*
G1X160960Y42947D1*
G1X164879Y41274D1*
G1X164568Y43858D2*
G1X160960Y42947D1*
G1X164379Y43235D1*
G1X164350Y42659D2*
G1X160960Y42947D1*
G1X164465Y42052D1*
G1X157552Y42327D2*
G1X158171Y42947D1*
G1X166728Y42947D1*
G1X166852Y42822D1*
G1X199490Y58672D2*
G1X202475Y57699D1*
G1X200335Y56573D1*
G1X200400Y57827D2*
G1X202475Y57699D1*
G1X200509Y57263D1*
G1X236145Y61390D2*
G1X234805Y61591D1*
G1X235007Y60252D1*
G1X235569Y61129D2*
G1X234805Y61591D1*
G1X235267Y60827D1*
G1X199033Y57268D2*
G1X199463Y57699D1*
G1X210553Y57699D1*
G1X214445Y61591D1*
G1X234805Y61591D1*
G1X236451Y59945D1*
G1X48126Y81665D2*
G1X51143Y82872D1*
G1X49936Y79855D1*
G1X48943Y81448D2*
G1X51143Y82872D1*
G1X49390Y81118D1*
G1X49720Y80672D2*
G1X51143Y82872D1*
G1X48067Y79796D1*
G1X51143Y82872D2*
G1X62541Y82872D1*
G1X63708Y84039D1*
G1X71962Y84039D1*
G1X39728Y72186D2*
G1X46165Y75024D1*
G1X39645Y77863D1*
G1X39714Y73132D2*
G1X46165Y75024D1*
G1X39700Y74078D1*
G1X39686Y75024D2*
G1X46165Y75024D1*
G1X39673Y75970D1*
G1X46165Y75024D2*
G1X39659Y76917D1*
G1X36653Y74907D2*
G1X36770Y75024D1*
G1X62038Y75024D1*
G1X67116Y80102D1*
G1X71962Y80102D1*
G1X39688Y62068D2*
G1X46167Y64907D1*
G1X39688Y67745D1*
G1X39688Y63014D2*
G1X46167Y64907D1*
G1X39688Y63960D1*
G1X39688Y64907D2*
G1X46167Y64907D1*
G1X39688Y65853D1*
G1X46167Y64907D2*
G1X39688Y66799D1*
G1X36653Y64907D2*
G1X49019Y64907D1*
G1X52280Y68167D1*
G1X58886Y68167D1*
G1X68787Y78068D1*
G1X71897Y78068D1*
G1X71962Y78134D1*
G1X57842Y80239D2*
G1X60877Y78954D1*
G1X57842Y77669D1*
G1X58269Y79506D2*
G1X60877Y78954D1*
G1X58353Y78954D1*
G1X60877Y78954D2*
G1X58269Y78402D1*
G1X56483Y78954D2*
G1X62478Y78954D1*
G1X65594Y82071D1*
G1X71962Y82071D1*
G1X70291Y67341D2*
G1X68877Y69887D1*
G1X68173Y67548D1*
G1X69395Y67879D2*
G1X68877Y69887D1*
G1X68822Y67870D1*
G1X68692Y71515D2*
G1X69132Y67642D1*
G1X69132Y66426D1*
G1X71962Y76165D2*
G1X74694Y76165D1*
G1X71962Y78134D2*
G1X75191Y78134D1*
G1X71962Y80102D2*
G1X75191Y80102D1*
G1X67916Y74340D2*
G1X69741Y76165D1*
G1X74694Y76165D1*
G1X67916Y74340D2*
G1X67916Y72290D1*
G1X68692Y71515D1*
G1X68670Y71700D2*
G1X68692Y71515D1*
G1X77228Y64036D2*
G1X78173Y63149D1*
G1X77228Y62263D1*
G1X77437Y63379D2*
G1X78173Y63149D1*
G1X77437Y62919D1*
G1X75581Y63149D2*
G1X78173Y63149D1*
G1X79738Y64715D1*
G1X79738Y68389D1*
G1X79738Y73586D1*
G1X75191Y76165D2*
G1X80006Y76165D1*
G1X83321Y79480D1*
G1X93517Y68389D2*
G1X93517Y73586D1*
G1X91549Y68389D2*
G1X91549Y73586D1*
G1X89580Y68389D2*
G1X89580Y73586D1*
G1X87612Y68389D2*
G1X87612Y73586D1*
G1X85643Y68389D2*
G1X85643Y73586D1*
G1X83675Y68389D2*
G1X83675Y73586D1*
G1X81706Y68389D2*
G1X81706Y73586D1*
G1X74694Y76165D2*
G1X75191Y76165D1*
G1X83605Y75543D2*
G1X84360Y76298D1*
G1X99423Y76298D1*
G1X83605Y75543D2*
G1X83605Y73656D1*
G1X83675Y73586D1*
G1X138695Y29158D2*
G1X136277Y32040D1*
G1X133926Y28697D1*
G1X137742Y29066D2*
G1X136277Y32040D1*
G1X136788Y28974D1*
G1X135834Y28882D2*
G1X136277Y32040D1*
G1X134880Y28789D1*
G1X109265Y68389D2*
G1X110973Y70097D1*
G1X116143Y70097D1*
G1X117871Y68369D1*
G1X117871Y60376D1*
G1X125829Y52418D1*
G1X125829Y42489D1*
G1X136277Y32040D1*
G1X136277Y25882D1*
G1X136796Y25179D1*
G1X109265Y68389D2*
G1X109265Y73586D1*
G1X107297Y68389D2*
G1X107297Y73586D1*
G1X118309Y50680D2*
G1X117124Y52904D1*
G1X115939Y50680D1*
G1X117449Y51075D2*
G1X117124Y52904D1*
G1X116799Y51075D1*
G1X107297Y68389D2*
G1X107297Y62731D1*
G1X117124Y52904D1*
G1X117124Y49233D1*
G1X103360Y68389D2*
G1X103360Y73586D1*
G1X101391Y68389D2*
G1X101391Y47344D1*
G1X101392Y47343D1*
G1X101391Y68389D2*
G1X101391Y73586D1*
G1X99423Y68389D2*
G1X99423Y73586D1*
G1X97454Y68389D2*
G1X97454Y73586D1*
G1X95486Y68389D2*
G1X95486Y73586D1*
G1X99423Y76298D2*
G1X108198Y76298D1*
G1X109552Y77652D1*
G1X109552Y85120D1*
G1X110439Y86008D1*
G1X115901Y86008D1*
G1X99423Y76298D2*
G1X99423Y73586D1*
G1X115195Y64265D2*
G1X113911Y61229D1*
G1X112626Y64265D1*
G1X114462Y63837D2*
G1X113911Y61229D1*
G1X113911Y63754D1*
G1X113911Y61229D2*
G1X113359Y63837D1*
G1X222458Y34107D2*
G1X219422Y32822D1*
G1X222458Y31537D1*
G1X222030Y33374D2*
G1X219422Y32822D1*
G1X221946Y32822D1*
G1X219422Y32822D2*
G1X222030Y32270D1*
G1X113911Y65624D2*
G1X113911Y60959D1*
G1X123250Y51620D1*
G1X123250Y41944D1*
G1X130896Y34298D1*
G1X130896Y19318D1*
G1X132790Y17425D1*
G1X213788Y17425D1*
G1X215437Y19073D1*
G1X215437Y31575D1*
G1X216683Y32822D1*
G1X223816Y32822D1*
G1X169452Y28575D2*
G1X166796Y33172D1*
G1X164139Y28575D1*
G1X168567Y28575D2*
G1X166796Y33172D1*
G1X167681Y28575D1*
G1X166796Y28575D2*
G1X166796Y33172D1*
G1X165910Y28575D1*
G1X166796Y33172D2*
G1X165025Y28575D1*
G1X117041Y80102D2*
G1X122369Y80102D1*
G1X123442Y79029D1*
G1X123442Y63898D1*
G1X132417Y54924D1*
G1X132417Y44442D1*
G1X142260Y34598D1*
G1X165369Y34598D1*
G1X166796Y33172D1*
G1X166796Y25179D1*
G1X159229Y28915D2*
G1X156796Y32184D1*
G1X154363Y28915D1*
G1X158255Y28915D2*
G1X156796Y32184D1*
G1X157282Y28915D1*
G1X156309Y28915D2*
G1X156796Y32184D1*
G1X155336Y28915D1*
G1X117041Y78134D2*
G1X120598Y78134D1*
G1X121305Y77426D1*
G1X121305Y63043D1*
G1X129939Y54410D1*
G1X129939Y43890D1*
G1X141121Y32708D1*
G1X156271Y32708D1*
G1X156796Y32184D1*
G1X156796Y25179D1*
G1X117041Y76165D2*
G1X119625Y73581D1*
G1X119625Y61163D1*
G1X127686Y53102D1*
G1X127686Y43306D1*
G1X141005Y29987D1*
G1X146023Y29987D1*
G1X146796Y29215D1*
G1X146796Y25179D1*
G1X148825Y72758D2*
G1X149192Y72758D1*
G1X154322Y76775D2*
G1X149550Y77727D1*
G1X154322Y78678D1*
G1X149550Y77727D2*
G1X154322Y77727D1*
G1X148825Y72758D2*
G1X148825Y77002D1*
G1X149550Y77727D1*
G1X157902Y77727D1*
G1X137033Y80441D2*
G1X140069Y79156D1*
G1X137033Y77872D1*
G1X137461Y79708D2*
G1X140069Y79156D1*
G1X137544Y79156D1*
G1X140069Y79156D2*
G1X137461Y78605D1*
G1X141746Y80441D2*
G1X138711Y79156D1*
G1X141746Y77872D1*
G1X141318Y79708D2*
G1X138711Y79156D1*
G1X141235Y79156D1*
G1X138711Y79156D2*
G1X141318Y78605D1*
G1X135674Y79156D2*
G1X143105Y79156D1*
G1X137033Y72567D2*
G1X140069Y71282D1*
G1X137033Y69998D1*
G1X137461Y71834D2*
G1X140069Y71282D1*
G1X137544Y71282D1*
G1X140069Y71282D2*
G1X137461Y70731D1*
G1X141746Y72567D2*
G1X138711Y71282D1*
G1X141746Y69998D1*
G1X141318Y71834D2*
G1X138711Y71282D1*
G1X141235Y71282D1*
G1X138711Y71282D2*
G1X141318Y70731D1*
G1X135674Y71282D2*
G1X143105Y71282D1*
G1X143193Y81024D2*
G1X146055Y82106D1*
G1X144973Y79245D1*
G1X143992Y80803D2*
G1X146055Y82106D1*
G1X144428Y80479D1*
G1X144752Y80043D2*
G1X146055Y82106D1*
G1X143105Y79156D1*
G1X146055Y82106D2*
G1X157228Y82106D1*
G1X157848Y82727D1*
G1X157902Y82727D1*
G1X143993Y72929D2*
G1X144580Y72758D1*
G1X144751Y72170D1*
G1X144428Y72605D2*
G1X144580Y72758D1*
G1X143105Y71282D1*
G1X144580Y72758D2*
G1X148825Y72758D1*
G1X187291Y67650D2*
G1X189847Y68698D1*
G1X188919Y66385D1*
G1X188201Y67458D2*
G1X189847Y68698D1*
G1X188630Y67080D1*
G1X187457Y66183D2*
G1X187457Y66308D1*
G1X190674Y69525D1*
G1X191571Y69525D1*
G1X191628Y69468D1*
G1X181480Y76775D2*
G1X186318Y77727D1*
G1X181480Y78679D1*
G1X186318Y77727D2*
G1X181480Y77727D1*
G1X190984Y79097D2*
G1X187250Y77727D1*
G1X190012Y76401D1*
G1X189955Y78178D2*
G1X187250Y77727D1*
G1X189779Y77624D1*
G1X187250Y77727D2*
G1X189776Y77079D1*
G1X177902Y77727D2*
G1X191243Y77727D1*
G1X191628Y77342D1*
G1X182331Y73701D2*
G1X185590Y72727D1*
G1X182331Y71752D1*
G1X182331Y72727D2*
G1X185590Y72727D1*
G1X177902Y72727D1*
G1X185590Y72727D2*
G1X188792Y69525D1*
G1X190674Y69525D1*
G1X192987Y78626D2*
G1X196023Y77342D1*
G1X192987Y76057D1*
G1X193415Y77893D2*
G1X196023Y77342D1*
G1X193498Y77342D1*
G1X196023Y77342D2*
G1X193415Y76790D1*
G1X198590Y78751D2*
G1X194872Y77342D1*
G1X197647Y76045D1*
G1X197572Y77821D2*
G1X194872Y77342D1*
G1X197402Y77265D1*
G1X194872Y77342D2*
G1X197405Y76721D1*
G1X191628Y77342D2*
G1X198914Y77342D1*
G1X199253Y77003D1*
G1X192987Y70752D2*
G1X196023Y69468D1*
G1X192987Y68183D1*
G1X193415Y70019D2*
G1X196023Y69468D1*
G1X193498Y69468D1*
G1X196023Y69468D2*
G1X193415Y68916D1*
G1X198590Y70877D2*
G1X194872Y69468D1*
G1X197647Y68171D1*
G1X197572Y69947D2*
G1X194872Y69468D1*
G1X197402Y69391D1*
G1X194872Y69468D2*
G1X197405Y68847D1*
G1X191628Y69468D2*
G1X198914Y69468D1*
G1X199253Y69129D1*
G1X324394Y73597D2*
G1X324756Y73959D1*
G1X49314Y90839D2*
G1X48547Y89887D1*
G1X47780Y90839D1*
G1X48547Y90624D2*
G1X48547Y89887D1*
G1X48547Y92100D1*
G1X48547Y89887D2*
G1X51343Y87090D1*
G1X60082Y87090D1*
G1X60968Y87976D1*
G1X71962Y87976D1*
G1X47927Y86282D2*
G1X49867Y84840D1*
G1X46768Y84339D1*
G1X47992Y85574D2*
G1X49867Y84840D1*
G1X47797Y85034D1*
G1X46532Y85797D2*
G1X47489Y84840D1*
G1X60946Y84840D1*
G1X62114Y86008D1*
G1X71962Y86008D1*
G1X41694Y98787D2*
G1X46201Y98581D1*
G1X41694Y92472D1*
G1X41694Y97885D2*
G1X46201Y98581D1*
G1X41694Y96983D1*
G1X41694Y96081D2*
G1X46201Y98581D1*
G1X41694Y95178D1*
G1X41694Y94276D2*
G1X46201Y98581D1*
G1X41694Y93374D1*
G1X53762Y99966D2*
G1X51030Y98581D1*
G1X54792Y97292D1*
G1X53541Y99283D2*
G1X51030Y98581D1*
G1X53556Y98739D1*
G1X51030Y98581D2*
G1X53744Y98188D1*
G1X36686Y95279D2*
G1X39989Y98581D1*
G1X55398Y98581D1*
G1X55398Y99061D1*
G1X71962Y86008D2*
G1X75191Y86008D1*
G1X71962Y89945D2*
G1X75191Y89945D1*
G1X71962Y91913D2*
G1X75191Y91913D1*
G1X57177Y91762D2*
G1X59593Y89879D1*
G1X55654Y89335D1*
G1X57263Y91049D2*
G1X59593Y89879D1*
G1X57144Y90518D1*
G1X59593Y89879D2*
G1X56854Y90014D1*
G1X55398Y91187D2*
G1X55398Y89879D1*
G1X71962Y89879D1*
G1X71962Y89945D1*
G1X94502Y90929D2*
G1X103467Y90929D1*
G1X103700Y90696D1*
G1X87371Y100359D2*
G1X89768Y99345D1*
G1X87371Y98331D1*
G1X87747Y99630D2*
G1X89768Y99345D1*
G1X87747Y99060D1*
G1X93213Y100359D2*
G1X90816Y99345D1*
G1X93213Y98331D1*
G1X92837Y99630D2*
G1X90816Y99345D1*
G1X92837Y99060D1*
G1X86299Y99345D2*
G1X94286Y99345D1*
G1X93536Y84841D2*
G1X94502Y87089D1*
G1X95612Y84419D1*
G1X94219Y85091D2*
G1X94502Y87089D1*
G1X94789Y85037D1*
G1X94369Y83622D2*
G1X94502Y83873D1*
G1X94502Y90929D1*
G1X92595Y94048D2*
G1X93351Y94048D1*
G1X94502Y92897D1*
G1X102106Y92959D2*
G1X99694Y93937D1*
G1X100671Y91525D1*
G1X101325Y92709D2*
G1X99694Y93937D1*
G1X100921Y92306D1*
G1X92595Y94048D2*
G1X99583Y94048D1*
G1X102147Y91484D1*
G1X101200Y100610D2*
G1X98803Y99596D1*
G1X101200Y98582D1*
G1X100824Y99881D2*
G1X98803Y99596D1*
G1X100824Y99311D1*
G1X92595Y94048D2*
G1X92595Y97822D1*
G1X94369Y99596D1*
G1X102273Y99596D1*
G1X87751Y92131D2*
G1X89849Y90929D1*
G1X86831Y90064D1*
G1X87900Y91436D2*
G1X89849Y90929D1*
G1X87770Y90876D1*
G1X86424Y91484D2*
G1X86979Y90929D1*
G1X94502Y90929D1*
G1X86897Y85032D2*
G1X89232Y85659D1*
G1X87702Y82918D1*
G1X87493Y84644D2*
G1X89232Y85659D1*
G1X87795Y84156D1*
G1X86413Y83637D2*
G1X87210Y83637D1*
G1X94502Y90929D1*
G1X113813Y95850D2*
G1X117041Y95850D1*
G1X108715Y87788D2*
G1X108904Y87976D1*
G1X111388Y87976D1*
G1X103700Y90696D2*
G1X109223Y90696D1*
G1X109265Y90654D1*
G1X111388Y87976D2*
G1X117041Y87976D1*
G1X109265Y90654D2*
G1X109265Y93201D1*
G1X109945Y93882D1*
G1X117041Y93882D1*
G1X109265Y90654D2*
G1X109265Y88425D1*
G1X109857Y87833D1*
G1X110001Y87976D1*
G1X111388Y87976D1*
G1X101419Y90696D2*
G1X103700Y90696D1*
G1X103078Y84737D2*
G1X102064Y87133D1*
G1X101049Y84737D1*
G1X102349Y85112D2*
G1X102064Y87133D1*
G1X101779Y85112D1*
G1X101402Y91645D2*
G1X102064Y90984D1*
G1X102064Y83664D1*
G1X117041Y99787D2*
G1X121100Y99787D1*
G1X124510Y103197D1*
G1X124510Y117719D1*
G1X137116Y130325D1*
G1X152312Y130325D1*
G1X168641Y146655D1*
G1X168641Y183277D1*
G1X117041Y97819D2*
G1X122089Y97819D1*
G1X122155Y97753D1*
G1X126784Y102382D1*
G1X126784Y117378D1*
G1X138084Y128677D1*
G1X153346Y128677D1*
G1X170688Y146019D1*
G1X170688Y177899D1*
G1X172131Y179342D1*
G1X172131Y179637D1*
G1X172821Y180327D1*
G1X172821Y187167D1*
G1X141001Y110559D2*
G1X138087Y111503D1*
G1X139847Y107936D1*
G1X140363Y110230D2*
G1X138087Y111503D1*
G1X139990Y109834D1*
G1X138087Y111503D2*
G1X139735Y109311D1*
G1X117041Y95850D2*
G1X123681Y95850D1*
G1X123747Y95784D1*
G1X128984Y101022D1*
G1X128984Y110679D1*
G1X130299Y111994D1*
G1X137596Y111994D1*
G1X140826Y108764D1*
G1X141524Y108764D1*
G1X151241Y116093D2*
G1X149602Y112470D1*
G1X152483Y113510D1*
G1X151176Y114715D2*
G1X149602Y112470D1*
G1X151448Y114201D1*
G1X149602Y112470D2*
G1X151834Y113818D1*
G1X117041Y91913D2*
G1X121431Y91913D1*
G1X122826Y93308D1*
G1X127551Y93308D1*
G1X134767Y100523D1*
G1X136119Y100523D1*
G1X140111Y104516D1*
G1X147684Y104516D1*
G1X149291Y106123D1*
G1X149291Y112159D1*
G1X152454Y115322D1*
G1X152945Y115322D1*
G1X117041Y89945D2*
G1X124533Y89945D1*
G1X125775Y88703D1*
G1X125848Y89524D1*
G1X189132Y28540D2*
G1X186327Y33880D1*
G1X183626Y28182D1*
G1X188215Y28481D2*
G1X186327Y33880D1*
G1X187297Y28421D1*
G1X186379Y28361D2*
G1X186327Y33880D1*
G1X185461Y28301D1*
G1X186327Y33880D2*
G1X184544Y28242D1*
G1X117041Y84039D2*
G1X126144Y84039D1*
G1X127160Y83023D1*
G1X127160Y65954D1*
G1X136461Y56653D1*
G1X136461Y46691D1*
G1X145082Y38070D1*
G1X182138Y38070D1*
G1X186327Y33880D1*
G1X186327Y25179D1*
G1X186796Y25179D1*
G1X117041Y82071D2*
G1X124388Y82071D1*
G1X125183Y81276D1*
G1X125183Y65133D1*
G1X134367Y55949D1*
G1X134367Y45477D1*
G1X143530Y36314D1*
G1X175479Y36314D1*
G1X177374Y34419D1*
G1X115901Y86008D2*
G1X117041Y86008D1*
G1X143230Y58178D2*
G1X141959Y61172D1*
G1X140659Y58092D1*
G1X142510Y58574D2*
G1X141959Y61172D1*
G1X141959Y58584D1*
G1X141959Y61172D2*
G1X141406Y58554D1*
G1X115901Y86008D2*
G1X115967Y85942D1*
G1X128065Y85942D1*
G1X129090Y84917D1*
G1X129090Y66338D1*
G1X132258Y63170D1*
G1X140311Y63170D1*
G1X141959Y61522D1*
G1X141959Y56809D1*
G1X141990Y56778D1*
G1X127072Y90348D2*
G1X129270Y88955D1*
G1X126740Y88347D1*
G1X127323Y89567D2*
G1X129270Y88955D1*
G1X127230Y89005D1*
G1X125848Y89524D2*
G1X129945Y88843D1*
G1X130835Y87953D1*
G1X130835Y67919D1*
G1X133398Y65356D1*
G1X147885Y65356D1*
G1X149337Y63904D1*
G1X125775Y88703D2*
G1X125848Y89524D1*
G1X143292Y87630D2*
G1X143462Y87461D1*
G1X154325Y86775D2*
G1X149487Y87727D1*
G1X154325Y88679D1*
G1X149487Y87727D2*
G1X154325Y87727D1*
G1X143292Y87630D2*
G1X143389Y87727D1*
G1X157902Y87727D1*
G1X137045Y88227D2*
G1X140204Y87286D1*
G1X137329Y85673D1*
G1X137551Y87546D2*
G1X140204Y87286D1*
G1X137695Y87007D1*
G1X140204Y87286D2*
G1X137674Y86449D1*
G1X135837Y86800D2*
G1X143292Y87630D1*
G1X167734Y81312D2*
G1X167734Y89386D1*
G1X180771Y102422D1*
G1X186923Y102422D1*
G1X188918Y104417D1*
G1X174189Y76810D2*
G1X171360Y77727D1*
G1X174189Y78643D1*
G1X171360Y77727D2*
G1X174189Y77727D1*
G1X167734Y81312D2*
G1X167775Y81312D1*
G1X171360Y77727D1*
G1X177902Y77727D1*
G1X168150Y106341D2*
G1X166865Y103305D1*
G1X165580Y106341D1*
G1X167417Y105913D2*
G1X166865Y103305D1*
G1X166865Y105829D1*
G1X166865Y103305D2*
G1X166313Y105913D1*
G1X162571Y99014D2*
G1X163663Y99014D1*
G1X163942Y98735D1*
G1X166865Y101659D1*
G1X166865Y107700D1*
G1X180947Y98727D2*
G1X179191Y97792D1*
G1X180947Y96856D1*
G1X180635Y98048D2*
G1X179191Y97792D1*
G1X180635Y97535D1*
G1X170123Y83929D2*
G1X170123Y88724D1*
G1X179191Y97792D1*
G1X182089Y97792D1*
G1X174189Y81831D2*
G1X171303Y82749D1*
G1X174202Y83668D1*
G1X174196Y82749D2*
G1X171303Y82749D1*
G1X170123Y83929D1*
G1X171303Y82749D2*
G1X177880Y82749D1*
G1X177902Y82727D1*
G1X161756Y81866D2*
G1X163558Y82727D1*
G1X161756Y83587D1*
G1X163558Y82727D2*
G1X161756Y82727D1*
G1X179559Y107727D2*
G1X178321Y104672D1*
G1X181376Y105910D1*
G1X179774Y106906D2*
G1X178321Y104672D1*
G1X180106Y106457D1*
G1X178321Y104672D2*
G1X180555Y106126D1*
G1X157902Y82727D2*
G1X163558Y82727D1*
G1X163558Y82958D1*
G1X165198Y84599D1*
G1X165198Y91549D1*
G1X181428Y107779D1*
G1X154452Y88704D2*
G1X161373Y91628D1*
G1X161782Y88041D1*
G1X155368Y88621D2*
G1X161373Y91628D1*
G1X156284Y88538D1*
G1X157201Y88455D2*
G1X161373Y91628D1*
G1X158117Y88373D1*
G1X159033Y88290D2*
G1X161373Y91628D1*
G1X159950Y88207D1*
G1X161373Y91628D2*
G1X160866Y88124D1*
G1X175231Y106201D2*
G1X174112Y104368D1*
G1X172993Y106201D1*
G1X174415Y105854D2*
G1X174112Y104368D1*
G1X173810Y105854D1*
G1X157902Y87727D2*
G1X157902Y88158D1*
G1X174112Y104368D1*
G1X174112Y107700D1*
G1X181831Y88141D2*
G1X178843Y88141D1*
G1X177446Y88141D1*
G1X177488Y88141D1*
G1X177902Y87727D1*
G1X181620Y81811D2*
G1X184407Y82727D1*
G1X181620Y83642D1*
G1X184407Y82727D2*
G1X181620Y82727D1*
G1X190085Y87189D2*
G1X187654Y85975D1*
G1X190085Y84760D1*
G1X189667Y86310D2*
G1X187654Y85975D1*
G1X189667Y85639D1*
G1X177902Y82727D2*
G1X184407Y82727D1*
G1X187654Y85975D1*
G1X191507Y85975D1*
G1X192221Y87703D2*
G1X195896Y86183D1*
G1X193084Y84970D1*
G1X193211Y86743D2*
G1X195896Y86183D1*
G1X193365Y86182D1*
G1X195896Y86183D2*
G1X193346Y85638D1*
G1X197596Y87468D2*
G1X194560Y86183D1*
G1X197596Y84899D1*
G1X197168Y86735D2*
G1X194560Y86183D1*
G1X197085Y86183D1*
G1X194560Y86183D2*
G1X197168Y85632D1*
G1X191507Y85975D2*
G1X191715Y86183D1*
G1X198955Y86183D1*
G1X198955Y94057D2*
G1X199038Y94141D1*
G1X199201Y94141D1*
G1X226528Y96366D2*
G1X226754Y96140D1*
G1X229260Y98647D1*
G1X272594Y98647D1*
G1X225980Y95366D2*
G1X226754Y96140D1*
G1X310567Y97814D2*
G1X311087Y97814D1*
G1X71962Y101756D2*
G1X75191Y101756D1*
G1X54781Y105838D2*
G1X60070Y105838D1*
G1X61456Y104453D1*
G1X61456Y93783D1*
G1X63391Y91847D1*
G1X71897Y91847D1*
G1X71962Y91913D1*
G1X54781Y105838D2*
G1X55077Y106134D1*
G1X55428Y106134D1*
G1X67616Y102611D2*
G1X68537Y101690D1*
G1X71897Y101690D1*
G1X71962Y101756D1*
G1X66208Y121934D2*
G1X67616Y118549D1*
G1X68838Y121395D1*
G1X67056Y121217D2*
G1X67616Y118549D1*
G1X67616Y121564D1*
G1X67616Y118549D2*
G1X68161Y121108D1*
G1X67616Y102611D2*
G1X67616Y122771D1*
G1X67784Y122940D1*
G1X107297Y113468D2*
G1X107297Y124584D1*
G1X130195Y147483D1*
G1X141348Y147483D1*
G1X143977Y150111D1*
G1X143977Y153183D1*
G1X146096Y155084D2*
G1X147565Y151389D1*
G1X148817Y154184D1*
G1X147042Y154081D2*
G1X147565Y151389D1*
G1X147601Y153920D1*
G1X147565Y151389D2*
G1X148145Y153931D1*
G1X109265Y113468D2*
G1X109265Y123466D1*
G1X131331Y145531D1*
G1X144697Y145531D1*
G1X147565Y148400D1*
G1X147565Y155506D1*
G1X147834Y155775D1*
G1X117041Y101756D2*
G1X120116Y101756D1*
G1X122071Y103710D1*
G1X122071Y118265D1*
G1X136312Y132507D1*
G1X151565Y132507D1*
G1X166034Y146976D1*
G1X134968Y105053D2*
G1X133953Y107450D1*
G1X132939Y105053D1*
G1X134239Y105429D2*
G1X133953Y107450D1*
G1X133668Y105429D1*
G1X135221Y106846D2*
G1X133953Y103980D1*
G1X132686Y106846D1*
G1X134495Y106432D2*
G1X133953Y103980D1*
G1X133953Y106351D1*
G1X133412Y106432D2*
G1X133953Y103980D1*
G1X133953Y108222D1*
G1X154814Y115270D2*
G1X156053Y112214D1*
G1X152997Y113453D1*
G1X154599Y114449D2*
G1X156053Y112214D1*
G1X154267Y114000D1*
G1X156053Y112214D2*
G1X153818Y113668D1*
G1X160701Y109206D2*
G1X157191Y111076D1*
G1X158044Y108134D1*
G1X159331Y109360D2*
G1X157191Y111076D1*
G1X158800Y109122D1*
G1X157191Y111076D2*
G1X158393Y108761D1*
G1X152945Y115322D2*
G1X159822Y108445D1*
G1X159822Y107555D1*
G1X166153Y116040D2*
G1X166399Y116040D1*
G1X166865Y115574D1*
G1X160761Y118812D2*
G1X159746Y116415D1*
G1X158732Y118812D1*
G1X160031Y118436D2*
G1X159746Y116415D1*
G1X159461Y118436D1*
G1X161000Y116882D2*
G1X159746Y119824D1*
G1X158421Y116668D1*
G1X160295Y117239D2*
G1X159746Y119824D1*
G1X159746Y117494D1*
G1X159746Y119824D2*
G1X159191Y117190D1*
G1X159746Y119884D2*
G1X159746Y115429D1*
G1X159822Y115429D1*
G1X190022Y106096D2*
G1X188918Y104417D1*
G1X187868Y105975D1*
G1X189207Y105723D2*
G1X188918Y104417D1*
G1X188631Y105705D1*
G1X188859Y107561D2*
G1X188918Y107502D1*
G1X188918Y104417D1*
G1X182787Y116938D2*
G1X185823Y115653D1*
G1X182787Y114368D1*
G1X183215Y116205D2*
G1X185823Y115653D1*
G1X183298Y115653D1*
G1X185823Y115653D2*
G1X183215Y115101D1*
G1X188149Y117165D2*
G1X184470Y115653D1*
G1X187280Y114434D1*
G1X187156Y116207D2*
G1X184470Y115653D1*
G1X187001Y115646D1*
G1X184470Y115653D2*
G1X187019Y115102D1*
G1X181428Y115653D2*
G1X188641Y115653D1*
G1X188859Y115435D1*
G1X182713Y117012D2*
G1X181428Y120048D1*
G1X180143Y117012D1*
G1X181980Y117440D2*
G1X181428Y120048D1*
G1X181428Y117523D1*
G1X181428Y120048D2*
G1X180876Y117440D1*
G1X182109Y122452D2*
G1X181428Y120415D1*
G1X183466Y121096D1*
G1X182367Y121728D2*
G1X181428Y120415D1*
G1X182741Y121353D1*
G1X181428Y115653D2*
G1X181428Y120415D1*
G1X183581Y122568D1*
G1X199587Y101431D2*
G1X198955Y98356D1*
G1X197596Y100356D1*
G1X198849Y100433D2*
G1X198955Y98356D1*
G1X198301Y100261D1*
G1X200239Y95416D2*
G1X198955Y98452D1*
G1X197670Y95416D1*
G1X199507Y95844D2*
G1X198955Y98452D1*
G1X198955Y95927D1*
G1X198955Y98452D2*
G1X198403Y95844D1*
G1X198140Y101728D2*
G1X198955Y100914D1*
G1X198955Y94057D1*
G1X194832Y107832D2*
G1X194832Y108176D1*
G1X225483Y115051D2*
G1X225569Y114965D1*
G1X225569Y114231D1*
G1X311584Y107376D2*
G1X312171Y107376D1*
G1X319153Y107376D2*
G1X320045Y107376D1*
G1X39722Y122440D2*
G1X46201Y125279D1*
G1X39722Y128117D1*
G1X39722Y123386D2*
G1X46201Y125279D1*
G1X39722Y124332D1*
G1X39722Y125279D2*
G1X46201Y125279D1*
G1X39722Y126225D1*
G1X46201Y125279D2*
G1X39722Y127171D1*
G1X55200Y115864D2*
G1X54574Y115788D1*
G1X54355Y115540D1*
G1X54574Y115788D2*
G1X54647Y115707D1*
G1X36686Y125279D2*
G1X50247Y125279D1*
G1X54574Y120951D1*
G1X54574Y115788D1*
G1X55428Y114934D1*
G1X55428Y114008D1*
G1X61444Y122919D2*
G1X62682Y119864D1*
G1X59627Y121102D1*
G1X61228Y122098D2*
G1X62682Y119864D1*
G1X60897Y121649D1*
G1X62682Y119864D2*
G1X60448Y121317D1*
G1X59575Y122971D2*
G1X63813Y118733D1*
G1X63813Y95123D1*
G1X65055Y93882D1*
G1X71962Y93882D1*
G1X81640Y130978D2*
G1X81637Y130975D1*
G1X81706Y130905D1*
G1X81706Y113468D1*
G1X101733Y144476D2*
G1X93448Y136190D1*
G1X93517Y136121D1*
G1X93517Y113468D1*
G1X95416Y135186D2*
G1X105975Y145745D1*
G1X105975Y155791D1*
G1X95416Y135186D2*
G1X95486Y135117D1*
G1X95486Y113468D1*
G1X138565Y157020D2*
G1X135892Y155775D1*
G1X138565Y154530D1*
G1X138122Y156121D2*
G1X135892Y155775D1*
G1X138122Y155429D1*
G1X105259Y125142D2*
G1X135892Y155775D1*
G1X139960Y155775D1*
G1X105259Y125142D2*
G1X105328Y125072D1*
G1X105328Y113468D1*
G1X175233Y121563D2*
G1X174112Y118630D1*
G1X173095Y120824D1*
G1X174343Y120697D2*
G1X174112Y118630D1*
G1X173775Y120616D1*
G1X175397Y116932D2*
G1X174112Y119968D1*
G1X172827Y116932D1*
G1X174664Y117360D2*
G1X174112Y119968D1*
G1X174112Y117444D1*
G1X174112Y119968D2*
G1X173560Y117360D1*
G1X173854Y122090D2*
G1X174112Y121832D1*
G1X174112Y115574D1*
G1X167934Y119869D2*
G1X166865Y117313D1*
G1X165887Y119601D1*
G1X167152Y119355D2*
G1X166865Y117313D1*
G1X166582Y119318D1*
G1X168150Y116932D2*
G1X166865Y119968D1*
G1X165580Y116932D1*
G1X167417Y117360D2*
G1X166865Y119968D1*
G1X166865Y117444D1*
G1X166865Y119968D2*
G1X166313Y117360D1*
G1X166774Y120782D2*
G1X166865Y120690D1*
G1X166865Y115574D1*
G1X189168Y137982D2*
G1X188154Y140379D1*
G1X187139Y137982D1*
G1X188439Y138358D2*
G1X188154Y140379D1*
G1X187869Y138358D1*
G1X187032Y144767D2*
G1X188154Y141834D1*
G1X189170Y144029D1*
G1X187922Y143901D2*
G1X188154Y141834D1*
G1X188490Y143820D1*
G1X188154Y136910D2*
G1X188154Y145038D1*
G1X188410Y145294D1*
G1X189227Y137924D2*
G1X191623Y136910D1*
G1X189227Y135895D1*
G1X189602Y137195D2*
G1X191623Y136910D1*
G1X189602Y136624D1*
G1X194239Y137983D2*
G1X191289Y136910D1*
G1X193466Y135857D1*
G1X193359Y137108D2*
G1X191289Y136910D1*
G1X193269Y136540D1*
G1X188154Y136910D2*
G1X194430Y136910D1*
G1X194744Y136596D1*
G1X195758Y137669D2*
G1X194744Y140065D1*
G1X193730Y137669D1*
G1X195029Y138044D2*
G1X194744Y140065D1*
G1X194459Y138044D1*
G1X193622Y144453D2*
G1X194744Y141521D1*
G1X195761Y143715D1*
G1X194512Y143587D2*
G1X194744Y141521D1*
G1X195081Y143506D1*
G1X194744Y136596D2*
G1X194744Y144724D1*
G1X195001Y144981D1*
G1X202663Y137564D2*
G1X201648Y139961D1*
G1X200634Y137564D1*
G1X201933Y137940D2*
G1X201648Y139961D1*
G1X201363Y137940D1*
G1X200526Y144348D2*
G1X201648Y141416D1*
G1X202665Y143610D1*
G1X201416Y143483D2*
G1X201648Y141416D1*
G1X201985Y143402D1*
G1X201648Y136491D2*
G1X201648Y144619D1*
G1X201905Y144876D1*
G1X210108Y137918D2*
G1X211176Y137119D1*
G1X210108Y136319D1*
G1X210328Y137330D2*
G1X211176Y137119D1*
G1X210328Y136907D1*
G1X218579Y131151D2*
G1X216167Y132128D1*
G1X217144Y129716D1*
G1X217797Y130901D2*
G1X216167Y132128D1*
G1X217394Y130498D1*
G1X208866Y137119D2*
G1X211176Y137119D1*
G1X218620Y129675D1*
G1X209881Y138192D2*
G1X208866Y140588D1*
G1X207852Y138192D1*
G1X209151Y138567D2*
G1X208866Y140588D1*
G1X208581Y138567D1*
G1X207744Y144976D2*
G1X208866Y142044D1*
G1X209883Y144238D1*
G1X208634Y144111D2*
G1X208866Y142044D1*
G1X209203Y144029D1*
G1X208866Y137119D2*
G1X208866Y145247D1*
G1X209123Y145504D1*
G1X198980Y130480D2*
G1X201377Y129466D1*
G1X198980Y128452D1*
G1X199356Y129751D2*
G1X201377Y129466D1*
G1X199356Y129181D1*
G1X203993Y130539D2*
G1X201043Y129466D1*
G1X203220Y128413D1*
G1X203113Y129664D2*
G1X201043Y129466D1*
G1X203023Y129097D1*
G1X197908Y129466D2*
G1X204184Y129466D1*
G1X204498Y129152D1*
G1X205571Y130166D2*
G1X207967Y129152D1*
G1X205571Y128138D1*
G1X205947Y129437D2*
G1X207967Y129152D1*
G1X205947Y128867D1*
G1X210521Y130232D2*
G1X207934Y129152D1*
G1X210209Y128178D1*
G1X209979Y129439D2*
G1X207934Y129152D1*
G1X209937Y128869D1*
G1X204498Y129152D2*
G1X211298Y129152D1*
G1X211402Y129047D1*
G1X211778Y130475D2*
G1X214814Y129675D1*
G1X212742Y128428D1*
G1X212735Y129683D2*
G1X214814Y129675D1*
G1X212876Y129127D1*
G1X217547Y130689D2*
G1X215151Y129675D1*
G1X217547Y128661D1*
G1X217172Y129960D2*
G1X215151Y129675D1*
G1X217172Y129390D1*
G1X211402Y129047D2*
G1X212030Y129675D1*
G1X218620Y129675D1*
G1X200173Y136450D2*
G1X199195Y134038D1*
G1X201607Y135015D1*
G1X200422Y135668D2*
G1X199195Y134038D1*
G1X200826Y135265D1*
G1X201648Y136491D2*
G1X196966Y131809D1*
G1X198697Y130713D1*
G1X196767Y130403D2*
G1X196966Y131809D1*
G1X197659Y130921D1*
G1X197219Y130772D2*
G1X196966Y131809D1*
G1X197908Y130868D1*
G1X197908Y129466D1*
G1X301967Y122451D2*
G1X303470Y122451D1*
G1X304103Y123084D1*
G1X54198Y147501D2*
G1X70783Y130916D1*
G1X78176Y130916D1*
G1X79668Y129424D1*
G1X79668Y114134D1*
G1X79738Y114065D1*
G1X79738Y113468D1*
G1X52873Y155226D2*
G1X54198Y151476D1*
G1X55557Y154221D1*
G1X53779Y154187D2*
G1X54198Y151476D1*
G1X54332Y154004D1*
G1X54198Y151476D2*
G1X54876Y153994D1*
G1X54198Y147501D2*
G1X54198Y155410D1*
G1X54636Y155849D1*
G1X64308Y155334D2*
G1X63212Y151511D1*
G1X61690Y154169D1*
G1X63466Y154242D2*
G1X63212Y151511D1*
G1X62926Y154026D1*
G1X63212Y151511D2*
G1X62383Y153983D1*
G1X62510Y155849D2*
G1X63212Y155147D1*
G1X63212Y146737D1*
G1X74713Y135236D1*
G1X81011Y135236D1*
G1X83675Y132573D1*
G1X83675Y113468D1*
G1X96610Y154839D2*
G1X97919Y151731D1*
G1X99183Y154705D1*
G1X97365Y154355D2*
G1X97919Y151731D1*
G1X97919Y154233D1*
G1X97919Y151731D2*
G1X98469Y154324D1*
G1X91479Y140629D2*
G1X97919Y147069D1*
G1X97919Y156077D1*
G1X97967Y156125D1*
G1X91479Y140629D2*
G1X91549Y140560D1*
G1X91549Y113468D1*
G1X105841Y156125D2*
G1X105975Y155991D1*
G1X105975Y155791D1*
G1X189475Y153609D2*
G1X188410Y151066D1*
G1X187430Y153361D1*
G1X188697Y153106D2*
G1X188410Y151066D1*
G1X188127Y153072D1*
G1X189425Y146367D2*
G1X188410Y148764D1*
G1X187396Y146367D1*
G1X188696Y146743D2*
G1X188410Y148764D1*
G1X188125Y146743D1*
G1X188325Y154535D2*
G1X188410Y154449D1*
G1X188410Y145294D1*
G1X196065Y153295D2*
G1X195001Y150753D1*
G1X194020Y153047D1*
G1X195287Y152792D2*
G1X195001Y150753D1*
G1X194717Y152758D1*
G1X196015Y146053D2*
G1X195001Y148450D1*
G1X193987Y146053D1*
G1X195286Y146429D2*
G1X195001Y148450D1*
G1X194716Y146429D1*
G1X194915Y154221D2*
G1X195001Y154135D1*
G1X195001Y144981D1*
G1X202969Y153190D2*
G1X201905Y150648D1*
G1X200924Y152942D1*
G1X202192Y152688D2*
G1X201905Y150648D1*
G1X201621Y152653D1*
G1X202919Y145949D2*
G1X201905Y148345D1*
G1X200891Y145949D1*
G1X202190Y146325D2*
G1X201905Y148345D1*
G1X201620Y146325D1*
G1X201819Y154116D2*
G1X201905Y154031D1*
G1X201905Y144876D1*
G1X210187Y153818D2*
G1X209123Y151276D1*
G1X208142Y153570D1*
G1X209410Y153315D2*
G1X209123Y151276D1*
G1X208839Y153281D1*
G1X210137Y146576D2*
G1X209123Y148973D1*
G1X208109Y146576D1*
G1X209408Y146952D2*
G1X209123Y148973D1*
G1X208838Y146952D1*
G1X209037Y154744D2*
G1X209123Y154659D1*
G1X209123Y145504D1*
G1X28915Y167656D2*
G1X28915Y205275D1*
G1X34586Y210946D1*
G1X66148Y210946D1*
G1X68077Y212875D1*
G1X68077Y238372D1*
G1X28915Y167656D2*
G1X33884Y162687D1*
G1X48576Y162687D1*
G1X48720Y162543D1*
G1X56039Y162543D1*
G1X58776Y159806D1*
G1X58776Y147169D1*
G1X72764Y133181D1*
G1X79437Y133181D1*
G1X81640Y130978D1*
G1X44418Y181235D2*
G1X46815Y180221D1*
G1X44418Y179207D1*
G1X44794Y180506D2*
G1X46815Y180221D1*
G1X44794Y179936D1*
G1X48509Y181225D2*
G1X44660Y180221D1*
G1X47281Y178635D1*
G1X47397Y180409D2*
G1X44660Y180221D1*
G1X47168Y179874D1*
G1X44660Y180221D2*
G1X47112Y179333D1*
G1X43345Y180221D2*
G1X48175Y180221D1*
G1X48981Y179415D1*
G1X65542Y178153D2*
G1X66477Y175236D1*
G1X62916Y177005D1*
G1X65211Y177516D2*
G1X66477Y175236D1*
G1X64814Y177144D1*
G1X66477Y175236D2*
G1X64290Y176890D1*
G1X68010Y175138D2*
G1X65598Y176115D1*
G1X66575Y173703D1*
G1X67228Y174888D2*
G1X65598Y176115D1*
G1X66825Y174484D1*
G1X63748Y178680D2*
G1X63748Y177965D1*
G1X68051Y173662D1*
G1X94830Y180371D2*
G1X93545Y177335D1*
G1X92261Y180371D1*
G1X94097Y179943D2*
G1X93545Y177335D1*
G1X93545Y179860D1*
G1X93545Y177335D2*
G1X92994Y179943D1*
G1X93156Y175384D2*
G1X93156Y174581D1*
G1X93545Y174925D1*
G1X93545Y181730D1*
G1X112829Y176271D2*
G1X112513Y176395D1*
G1X112198Y176271D1*
G1X112513Y174828D2*
G1X112513Y176395D1*
G1X112776Y176658D1*
G1X123065Y170071D2*
G1X123065Y208639D1*
G1X125941Y211515D1*
G1X155358Y211515D1*
G1X158666Y214823D1*
G1X158666Y240298D1*
G1X123065Y170071D2*
G1X123065Y164410D1*
G1X126233Y161241D1*
G1X142308Y161241D1*
G1X143977Y159572D1*
G1X143977Y153183D1*
G1X136059Y180767D2*
G1X136097Y179657D1*
G1X137208Y179619D1*
G1X136363Y180218D2*
G1X136097Y179657D1*
G1X136658Y179923D1*
G1X136097Y179657D2*
G1X137825Y181384D1*
G1X137472Y175409D2*
G1X136457Y177806D1*
G1X135443Y175409D1*
G1X136742Y175785D2*
G1X136457Y177806D1*
G1X136172Y175785D1*
G1X136097Y179657D2*
G1X136457Y179297D1*
G1X136457Y174336D1*
G1X165290Y178789D2*
G1X166034Y176366D1*
G1X163611Y177109D1*
G1X164962Y177899D2*
G1X166034Y176366D1*
G1X164501Y177438D1*
G1X163429Y178971D2*
G1X166034Y176366D1*
G1X166034Y146976D1*
G1X188655Y172029D2*
G1X187640Y169632D1*
G1X186626Y172029D1*
G1X187925Y171653D2*
G1X187640Y169632D1*
G1X187355Y171653D1*
G1X187852Y165075D2*
G1X187640Y165059D1*
G1X187533Y165011D1*
G1X187640Y173101D2*
G1X187640Y165059D1*
G1X187983Y164716D1*
G1X187983Y163604D1*
G1X195622Y172294D2*
G1X194573Y169335D1*
G1X193502Y171503D1*
G1X194754Y171407D2*
G1X194573Y169335D1*
G1X194188Y171312D1*
G1X195587Y164363D2*
G1X194573Y166760D1*
G1X193559Y164363D1*
G1X194858Y164739D2*
G1X194573Y166760D1*
G1X194288Y164739D1*
G1X194231Y172788D2*
G1X194573Y172445D1*
G1X194573Y163290D1*
G1X189374Y163111D2*
G1X188325Y160152D1*
G1X187254Y162320D1*
G1X188506Y162224D2*
G1X188325Y160152D1*
G1X187939Y162128D1*
G1X189339Y155608D2*
G1X188325Y158004D1*
G1X187311Y155608D1*
G1X188610Y155983D2*
G1X188325Y158004D1*
G1X188040Y155983D1*
G1X187983Y163604D2*
G1X188325Y163262D1*
G1X188325Y154535D1*
G1X195964Y162797D2*
G1X194915Y159838D1*
G1X193845Y162006D1*
G1X195096Y161910D2*
G1X194915Y159838D1*
G1X194530Y161815D1*
G1X195930Y155294D2*
G1X194915Y157691D1*
G1X193901Y155294D1*
G1X195200Y155670D2*
G1X194915Y157691D1*
G1X194630Y155670D1*
G1X194573Y163290D2*
G1X194915Y162948D1*
G1X194915Y154221D1*
G1X202526Y172190D2*
G1X201477Y169230D1*
G1X200407Y171399D1*
G1X201658Y171302D2*
G1X201477Y169230D1*
G1X201092Y171207D1*
G1X202492Y164259D2*
G1X201477Y166655D1*
G1X200463Y164259D1*
G1X201762Y164634D2*
G1X201477Y166655D1*
G1X201192Y164634D1*
G1X201135Y172683D2*
G1X201477Y172341D1*
G1X201477Y163186D1*
G1X209710Y164886D2*
G1X208695Y167283D1*
G1X207681Y164886D1*
G1X208980Y165262D2*
G1X208695Y167283D1*
G1X208410Y165262D1*
G1X208353Y173311D2*
G1X208353Y174128D1*
G1X208695Y174470D1*
G1X208695Y163813D1*
G1X202492Y162113D2*
G1X201477Y159716D1*
G1X200463Y162113D1*
G1X201762Y161737D2*
G1X201477Y159716D1*
G1X201192Y161737D1*
G1X201477Y163186D2*
G1X201477Y155048D1*
G1X201819Y154706D1*
G1X201819Y154116D1*
G1X210087Y163320D2*
G1X209037Y160361D1*
G1X207967Y162529D1*
G1X209218Y162433D2*
G1X209037Y160361D1*
G1X208652Y162338D1*
G1X210052Y155817D2*
G1X209037Y158214D1*
G1X208023Y155817D1*
G1X209323Y156193D2*
G1X209037Y158214D1*
G1X208752Y156193D1*
G1X208695Y163813D2*
G1X209037Y163471D1*
G1X209037Y154744D1*
G1X285189Y173997D2*
G1X282003Y172661D1*
G1X284927Y171413D1*
G1X284643Y173217D2*
G1X282003Y172661D1*
G1X284529Y172661D1*
G1X282003Y172661D2*
G1X284583Y172113D1*
G1X286305Y172661D2*
G1X286397Y172569D1*
G1X65107Y187839D2*
G1X68143Y186554D1*
G1X65107Y185269D1*
G1X65535Y187106D2*
G1X68143Y186554D1*
G1X65618Y186554D1*
G1X68143Y186554D2*
G1X65535Y186002D1*
G1X68928Y187568D2*
G1X66531Y186554D1*
G1X68928Y185540D1*
G1X68552Y186839D2*
G1X66531Y186554D1*
G1X68552Y186269D1*
G1X63748Y186554D2*
G1X70001Y186554D1*
G1X110003Y181248D2*
G1X111241Y178192D1*
G1X108186Y179431D1*
G1X109787Y180427D2*
G1X111241Y178192D1*
G1X109456Y179978D1*
G1X111241Y178192D2*
G1X109007Y179646D1*
G1X108134Y181300D2*
G1X112776Y176658D1*
G1X109492Y190459D2*
G1X112528Y189174D1*
G1X109492Y187889D1*
G1X109920Y189726D2*
G1X112528Y189174D1*
G1X110004Y189174D1*
G1X112528Y189174D2*
G1X109920Y188622D1*
G1X113829Y190188D2*
G1X111432Y189174D1*
G1X113829Y188160D1*
G1X113453Y189459D2*
G1X111432Y189174D1*
G1X113453Y188889D1*
G1X108134Y189174D2*
G1X114902Y189174D1*
G1X153837Y190828D2*
G1X156873Y189543D1*
G1X153837Y188258D1*
G1X154265Y190095D2*
G1X156873Y189543D1*
G1X154348Y189543D1*
G1X156873Y189543D2*
G1X154265Y188991D1*
G1X162939Y190828D2*
G1X159904Y189543D1*
G1X162939Y188258D1*
G1X162511Y190095D2*
G1X159904Y189543D1*
G1X162428Y189543D1*
G1X159904Y189543D2*
G1X162511Y188991D1*
G1X152478Y189543D2*
G1X164298Y189543D1*
G1X165657Y190828D2*
G1X168693Y189543D1*
G1X165657Y188258D1*
G1X166085Y190095D2*
G1X168693Y189543D1*
G1X166168Y189543D1*
G1X168693Y189543D2*
G1X166085Y188991D1*
G1X164298Y189543D2*
G1X170445Y189543D1*
G1X172821Y187167D1*
G1X169981Y182179D2*
G1X168641Y178981D1*
G1X167396Y181899D1*
G1X169197Y181623D2*
G1X168641Y178981D1*
G1X168641Y181507D1*
G1X168641Y178981D2*
G1X168093Y181560D1*
G1X168544Y183375D2*
G1X168641Y183277D1*
G1X195295Y180674D2*
G1X194231Y178132D1*
G1X193250Y180426D1*
G1X194517Y180171D2*
G1X194231Y178132D1*
G1X193947Y180137D1*
G1X195245Y173860D2*
G1X194231Y176257D1*
G1X193216Y173860D1*
G1X194516Y174236D2*
G1X194231Y176257D1*
G1X193946Y174236D1*
G1X194145Y181600D2*
G1X194231Y181515D1*
G1X194231Y172788D1*
G1X195218Y182614D2*
G1X197615Y181600D1*
G1X195218Y180586D1*
G1X195594Y181885D2*
G1X197615Y181600D1*
G1X195594Y181315D1*
G1X200168Y182680D2*
G1X197582Y181600D1*
G1X199856Y180626D1*
G1X199626Y181887D2*
G1X197582Y181600D1*
G1X199584Y181317D1*
G1X194145Y181600D2*
G1X200945Y181600D1*
G1X201049Y181496D1*
G1X188704Y180988D2*
G1X187640Y178446D1*
G1X186660Y180740D1*
G1X187927Y180485D2*
G1X187640Y178446D1*
G1X187357Y180451D1*
G1X188655Y174174D2*
G1X187640Y176571D1*
G1X186626Y174174D1*
G1X187925Y174550D2*
G1X187640Y176571D1*
G1X187355Y174550D1*
G1X187555Y181914D2*
G1X187640Y181828D1*
G1X187640Y173101D1*
G1X209417Y181197D2*
G1X208353Y178655D1*
G1X207372Y180949D1*
G1X208640Y180694D2*
G1X208353Y178655D1*
G1X208069Y180660D1*
G1X209367Y174383D2*
G1X208353Y176780D1*
G1X207339Y174383D1*
G1X208638Y174759D2*
G1X208353Y176780D1*
G1X208068Y174759D1*
G1X208267Y182123D2*
G1X208353Y182038D1*
G1X208353Y173311D1*
G1X202199Y180569D2*
G1X201135Y178027D1*
G1X200154Y180321D1*
G1X201422Y180067D2*
G1X201135Y178027D1*
G1X200851Y180033D1*
G1X202149Y173756D2*
G1X201135Y176152D1*
G1X200121Y173756D1*
G1X201420Y174131D2*
G1X201135Y176152D1*
G1X200850Y174131D1*
G1X201049Y181496D2*
G1X201135Y181410D1*
G1X201135Y172683D1*
G1X79913Y204250D2*
G1X85223Y209560D1*
G1X107701Y209560D1*
G1X113744Y215603D1*
G1X113744Y242812D1*
G1X79913Y204250D2*
G1X79954Y204208D1*
G1X79954Y165994D1*
G1X84521Y161427D1*
G1X100035Y161427D1*
G1X101733Y159729D1*
G1X101733Y144476D1*
G1X180251Y225006D2*
G1X180354Y224257D1*
G1X252845Y224257D1*
G1X257029Y220073D1*
G1X180354Y222858D2*
G1X183465Y222858D1*
G1X186405Y219918D1*
G1X256101Y221001D2*
G1X257029Y220073D1*
G1X65648Y242617D2*
G1X66887Y239562D1*
G1X63832Y240800D1*
G1X65433Y241796D2*
G1X66887Y239562D1*
G1X65101Y241347D1*
G1X66887Y239562D2*
G1X64652Y241015D1*
G1X63779Y242669D2*
G1X68077Y238372D1*
G1X109385Y245053D2*
G1X112922Y243633D1*
G1X110302Y242372D1*
G1X110377Y244120D2*
G1X112922Y243633D1*
G1X110541Y243573D1*
G1X112922Y243633D2*
G1X110537Y243038D1*
G1X108688Y243317D2*
G1X109004Y243633D1*
G1X112922Y243633D1*
G1X113744Y242812D1*
G1X153042Y244499D2*
G1X155767Y243197D1*
G1X153369Y242017D1*
G1X153640Y243539D2*
G1X155767Y243197D1*
G1X153685Y242859D1*
G1X151828Y243076D2*
G1X151949Y243197D1*
G1X155767Y243197D1*
G1X158666Y240298D1*
G1X83281Y103008D2*
G1X104672Y103008D1*
G1X108818Y98777D1*
G1X108818Y87890D1*
G1X107600Y86673D1*
G1X107097Y87175D1*
G1X107097Y80562D1*
G1X106015Y79480D1*
G1X81636Y79480D1*
G1X81635Y79481D1*
G1X80565Y80552D1*
G1X80565Y101293D1*
G1X80662Y101390D1*
G1X82276Y103005D1*
G1X83281Y103005D1*
G1X83281Y103008D1*
G1X80565Y98081D2*
G1X108818Y98081D1*
G1X80565Y97195D2*
G1X108818Y97195D1*
G1X80565Y96310D2*
G1X108818Y96310D1*
G1X80565Y95424D2*
G1X108818Y95424D1*
G1X80565Y94538D2*
G1X108818Y94538D1*
G1X80565Y93652D2*
G1X108818Y93652D1*
G1X80565Y92766D2*
G1X108818Y92766D1*
G1X80565Y91880D2*
G1X108818Y91880D1*
G1X80565Y90995D2*
G1X108818Y90995D1*
G1X80565Y90109D2*
G1X108818Y90109D1*
G1X80565Y89223D2*
G1X108818Y89223D1*
G1X80565Y88337D2*
G1X108818Y88337D1*
G1X80565Y98967D2*
G1X108632Y98967D1*
G1X80565Y87451D2*
G1X108379Y87451D1*
G1X80565Y99853D2*
G1X107763Y99853D1*
G1X80565Y86566D2*
G1X107097Y86566D1*
G1X80565Y85680D2*
G1X107097Y85680D1*
G1X80565Y84794D2*
G1X107097Y84794D1*
G1X80565Y83908D2*
G1X107097Y83908D1*
G1X80565Y83022D2*
G1X107097Y83022D1*
G1X80565Y82136D2*
G1X107097Y82136D1*
G1X80565Y81251D2*
G1X107097Y81251D1*
G1X80752Y80365D2*
G1X106900Y80365D1*
G1X80565Y100739D2*
G1X106895Y100739D1*
G1X80896Y101625D2*
G1X106027Y101625D1*
G1X81782Y102510D2*
G1X105159Y102510D1*
G1X317422Y33514D2*
G54D53*
G1X315714Y30204D1*
G1X317422Y32717D1*
G1X319131Y30204D1*
G1X317422Y33514D1*
G1X315868Y30504D2*
G1X315917Y30504D1*
G1X318927Y30504D2*
G1X318976Y30504D1*
G1X316884Y32472D2*
G1X317255Y32472D1*
G1X317589Y32472D2*
G1X317960Y32472D1*
G1X315714Y30204D3*
G1X317682Y32335D2*
G1X317682Y33010D1*
G1X281216Y34541D2*
G1X282110Y37192D1*
G1X281216Y34894D1*
G1X280322Y37192D1*
G1X281216Y34541D1*
G1X280586Y36409D2*
G1X280626Y36409D1*
G1X281805Y36409D2*
G1X281846Y36409D1*
G1X280322Y37192D3*
G1X310567Y77814D2*
G1X312700Y83682D1*
G1X310567Y80830D1*
G1X308435Y83682D1*
G1X310567Y77814D1*
G1X309876Y79716D2*
G1X311258Y79716D1*
G1X309161Y81685D2*
G1X309928Y81685D1*
G1X311206Y81685D2*
G1X311974Y81685D1*
G1X308445Y83653D2*
G1X308456Y83653D1*
G1X312678Y83653D2*
G1X312689Y83653D1*
G1X308435Y83682D3*
G1X310403Y78265D2*
G1X310403Y81049D1*
G1X312372Y82780D2*
G1X312372Y83243D1*
G1X304910Y91471D2*
G1X307552Y85814D1*
G1X307043Y89339D1*
G1X310567Y88830D1*
G1X304910Y91471D1*
G1X306722Y87590D2*
G1X307295Y87590D1*
G1X305803Y89559D2*
G1X309007Y89559D1*
G1X304910Y91471D3*
G1X306879Y87255D2*
G1X306879Y90552D1*
G1X308847Y89078D2*
G1X308847Y89633D1*
G1X265270Y172422D2*
G1X261524Y173414D1*
G1X263892Y172429D1*
G1X261515Y171465D1*
G1X265270Y172422D1*
G1X263416Y172236D2*
G1X264538Y172236D1*
G1X261515Y171465D3*
G1X263484Y171967D2*
G1X263484Y172263D1*
G1X263484Y172598D2*
G1X263484Y172895D1*
G1X268709Y172407D2*
G1X272455Y171415D1*
G1X270087Y172400D1*
G1X272463Y173364D1*
G1X268709Y172407D1*
G1X269354Y172236D2*
G1X270482Y172236D1*
G1X268709Y172407D3*
G1X270678Y171886D2*
G1X270678Y172155D1*
G1X270678Y172640D2*
G1X270678Y172908D1*
G1X220523Y237966D2*
G1X221760Y235803D1*
G1X220654Y237835D1*
G1X222686Y236729D1*
G1X220523Y237966D1*
G1X220963Y237196D2*
G1X221001Y237196D1*
G1X221828Y237196D2*
G1X221869Y237196D1*
G1X220523Y237966D3*
G1X222492Y236835D2*
G1X222492Y236841D1*
G1X53557Y29923D2*
G1X53235Y30019D1*
G1X52913Y29923D1*
G1X58489Y36612D2*
G1X57577Y34361D1*
G1X59828Y35273D1*
G1X57577Y34361D2*
G1X58892Y35676D1*
G1X53235Y27981D2*
G1X53235Y30019D1*
G1X59866Y36650D1*
G1X199251Y27964D2*
G1X196796Y33759D1*
G1X194340Y27964D1*
G1X197614Y27964D2*
G1X196796Y33759D1*
G1X195977Y27964D1*
G1X222796Y41020D2*
G1X220559Y40073D1*
G1X222796Y39127D1*
G1X220559Y40073D2*
G1X222420Y40073D1*
G1X196796Y25179D2*
G1X196796Y36567D1*
G1X200302Y40073D1*
G1X223798Y40073D1*
G1X225011Y25635D2*
G1X227041Y24647D1*
G1X224284Y23652D1*
G1X227041Y24647D2*
G1X225177Y24733D1*
G1X230703Y25593D2*
G1X228466Y24647D1*
G1X230703Y23700D1*
G1X228466Y24647D2*
G1X230327Y24647D1*
G1X223816Y24948D2*
G1X224118Y24647D1*
G1X231705Y24647D1*
G1X224744Y41075D2*
G1X223798Y43312D1*
G1X222851Y41075D1*
G1X223798Y43312D2*
G1X223798Y41451D1*
G1X223798Y40073D2*
G1X223798Y55732D1*
G1X223978Y55912D1*
G1X232673Y41020D2*
G1X234910Y40073D1*
G1X232673Y39127D1*
G1X234910Y40073D2*
G1X233050Y40073D1*
G1X231672Y40073D2*
G1X243521Y40073D1*
G1X244876Y38719D1*
G1X232995Y25131D2*
G1X234838Y23829D1*
G1X231957Y23292D1*
G1X234838Y23829D2*
G1X233013Y24215D1*
G1X238463Y25316D2*
G1X234948Y23829D1*
G1X238463Y22341D1*
G1X234948Y23829D2*
G1X237871Y23829D1*
G1X231705Y24647D2*
G1X232523Y23829D1*
G1X240036Y23829D1*
G1X232706Y33467D2*
G1X234943Y32521D1*
G1X232706Y31574D1*
G1X234943Y32521D2*
G1X233083Y32521D1*
G1X231705Y32521D2*
G1X238495Y32521D1*
G1X239783Y33809D1*
G1X240036Y33829D1*
G1X241747Y25156D2*
G1X244044Y23829D1*
G1X241747Y22501D1*
G1X242202Y23829D2*
G1X244044Y23829D1*
G1X240036Y23829D1*
G1X244044Y23829D2*
G1X244876Y24661D1*
G1X271632Y34849D2*
G1X275132Y31349D1*
G1X280827Y31265D2*
G1X281151Y31589D1*
G1X290389Y31155D2*
G1X290521Y31287D1*
G1X290521Y34154D1*
G1X294848Y38480D1*
G1X315408Y38480D1*
G1X317422Y36466D1*
G1X317422Y27796D1*
G1X281151Y31589D2*
G1X281216Y31589D1*
G1X281216Y38241D1*
G1X33868Y52451D2*
G1X28073Y54907D1*
G1X33868Y57362D1*
G1X33868Y54088D2*
G1X28073Y54907D1*
G1X33868Y55725D1*
G1X26383Y56292D2*
G1X27768Y54907D1*
G1X36653Y54907D1*
G1X26383Y56292D2*
G1X26383Y103694D1*
G1X28902Y106213D1*
G1X37843Y106213D1*
G1X55925Y56944D2*
G1X54501Y56106D1*
G1X55925Y55268D1*
G1X54501Y56106D2*
G1X55641Y56106D1*
G1X37660Y44907D2*
G1X43301Y44907D1*
G1X54501Y56106D1*
G1X57019Y56106D1*
G1X51895Y45329D2*
G1X48995Y44907D1*
G1X50785Y43532D1*
G1X48995Y44907D2*
G1X50803Y44449D1*
G1X37660Y44907D2*
G1X51152Y44907D1*
G1X52093Y43966D1*
G1X39437Y52451D2*
G1X45232Y54907D1*
G1X39437Y57362D1*
G1X39437Y54088D2*
G1X45232Y54907D1*
G1X39437Y55725D1*
G1X56017Y64927D2*
G1X53780Y63980D1*
G1X56017Y63033D1*
G1X53780Y63980D2*
G1X55641Y63980D1*
G1X36653Y54907D2*
G1X46269Y54907D1*
G1X49558Y58195D1*
G1X49558Y61808D1*
G1X51731Y63980D1*
G1X57019Y63980D1*
G1X36653Y44907D2*
G1X37660Y44907D1*
G1X63202Y51985D2*
G1X69547Y51985D1*
G1X69839Y51693D1*
G1X59658Y45308D2*
G1X62165Y46343D1*
G1X61321Y44225D1*
G1X62165Y46343D2*
G1X60848Y45026D1*
G1X59967Y43966D2*
G1X59967Y44145D1*
G1X63202Y47380D1*
G1X63202Y51985D1*
G1X70079Y60554D2*
G1X69132Y62791D1*
G1X68186Y60554D1*
G1X69132Y62791D2*
G1X69132Y60930D1*
G1X69809Y65711D2*
G1X69132Y64113D1*
G1X68456Y65711D1*
G1X69132Y59552D2*
G1X69132Y66426D1*
G1X163956Y56198D2*
G1X186210Y56198D1*
G1X162846Y60755D2*
G1X163956Y58043D1*
G1X164858Y60112D1*
G1X163956Y58043D2*
G1X163964Y59908D1*
G1X163956Y56198D2*
G1X163956Y61112D1*
G1X164121Y61277D1*
G1X155924Y56338D2*
G1X156064Y56198D1*
G1X163956Y56198D1*
G1X167025Y52751D2*
G1X173015Y52751D1*
G1X167025Y50980D2*
G1X173015Y50980D1*
G1X166596Y51865D2*
G1X173444Y51865D1*
G1X156282Y50123D2*
G1X158534Y51036D1*
G1X157621Y48784D1*
G1X158534Y51036D2*
G1X157218Y49720D1*
G1X165881Y52542D2*
G1X164283Y51865D1*
G1X165881Y51189D1*
G1X156244Y48746D2*
G1X159363Y51865D1*
G1X161863Y51865D1*
G1X166596Y51865D1*
G1X189817Y52760D2*
G1X194318Y52760D1*
G1X219617Y55808D2*
G1X220087Y52760D1*
G1X224770Y53890D1*
G1X221335Y55169D2*
G1X220087Y52760D1*
G1X223052Y54529D1*
G1X194318Y52760D2*
G1X220087Y52760D1*
G1X223524Y56198D1*
G1X186210Y56198D2*
G1X189647Y52760D1*
G1X189817Y52760D1*
G1X186210Y56198D2*
G1X188500Y56198D1*
G1X194989Y62687D1*
G1X201997Y62687D1*
G1X206700Y67390D1*
G1X206700Y91761D1*
G1X195265Y48586D2*
G1X194318Y50823D1*
G1X193372Y48586D1*
G1X194318Y50823D2*
G1X194318Y48963D1*
G1X194318Y47585D2*
G1X194318Y52760D1*
G1X179909Y44837D2*
G1X183202Y46172D1*
G1X181867Y42878D1*
G1X183202Y46172D2*
G1X181278Y44247D1*
G1X179852Y42822D2*
G1X185166Y48135D1*
G1X185192Y48135D1*
G1X189817Y52760D1*
G1X223978Y55912D2*
G1X227010Y54001D1*
G1X247839Y54001D1*
G1X223524Y56198D2*
G1X223978Y55912D1*
G1X324275Y55451D2*
G1X324275Y55774D1*
G1X324394Y55893D1*
G1X324394Y73597D1*
G1X58020Y64927D2*
G1X60257Y63980D1*
G1X58020Y63033D1*
G1X60257Y63980D2*
G1X58396Y63980D1*
G1X57019Y63980D2*
G1X61476Y63980D1*
G1X63202Y62255D1*
G1X63202Y51985D1*
G1X172942Y62278D2*
G1X171995Y64515D1*
G1X171049Y62278D1*
G1X171995Y64515D2*
G1X171995Y62655D1*
G1X172672Y66620D2*
G1X171995Y65022D1*
G1X171319Y66620D1*
G1X171995Y61277D2*
G1X171995Y67335D1*
G1X154918Y72289D2*
G1X158350Y68593D1*
G1X161689Y72333D1*
G1X156611Y72300D2*
G1X158350Y68593D1*
G1X158303Y72311D1*
G1X158350Y68593D2*
G1X159996Y72322D1*
G1X164083Y62654D2*
G1X161832Y63567D1*
G1X162744Y61316D1*
G1X161832Y63567D2*
G1X163147Y62251D1*
G1X157902Y72727D2*
G1X158350Y72279D1*
G1X158350Y67048D1*
G1X164121Y61277D1*
G1X253745Y65309D2*
G1X253745Y65812D1*
G1X324756Y73959D2*
G1X325021Y74224D1*
G1X101402Y91645D2*
G1X101419Y91629D1*
G1X101419Y90696D1*
G1X150178Y95433D2*
G1X148580Y94757D1*
G1X150178Y94081D1*
G1X150893Y94757D2*
G1X143325Y94757D1*
G1X143325Y95198D1*
G1X143462Y95335D1*
G1X150921Y95741D2*
G1X152529Y96393D1*
G1X151877Y94785D1*
G1X150893Y94757D2*
G1X153376Y97240D1*
G1X153376Y108493D1*
G1X135430Y95990D2*
G1X135837Y96222D1*
G1X136244Y95990D1*
G1X146039Y101088D2*
G1X144441Y100411D1*
G1X146039Y99735D1*
G1X135837Y94674D2*
G1X135837Y96222D1*
G1X140366Y100411D1*
G1X146754Y100411D1*
G1X181618Y92297D2*
G1X180966Y90689D1*
G1X182574Y91341D1*
G1X178843Y88141D2*
G1X178843Y88566D1*
G1X182602Y92324D1*
G1X182629Y93308D2*
G1X184237Y93960D1*
G1X183585Y92352D1*
G1X191005Y95132D2*
G1X188276Y94065D1*
G1X190330Y93131D1*
G1X188276Y94065D2*
G1X190140Y94028D1*
G1X182602Y92324D2*
G1X184342Y94065D1*
G1X191291Y94065D1*
G1X191507Y93849D1*
G1X199201Y94141D2*
G1X204320Y94141D1*
G1X206700Y91761D1*
G1X311087Y97814D2*
G1X312171Y98898D1*
G1X312171Y107376D1*
G1X310567Y85814D2*
G1X310567Y74423D1*
G1X311394Y73597D1*
G1X36686Y105279D2*
G1X37621Y106213D1*
G1X37843Y106213D1*
G1X134140Y117461D2*
G1X137043Y117064D1*
G1X135265Y115674D1*
G1X137043Y117064D2*
G1X135239Y116591D1*
G1X133953Y116096D2*
G1X133953Y117064D1*
G1X141097Y117064D1*
G1X153376Y108493D2*
G1X152765Y107881D1*
G1X152945Y107448D1*
G1X141097Y117064D2*
G1X141524Y116638D1*
G1X146314Y116528D2*
G1X144849Y117064D1*
G1X145386Y115600D1*
G1X141097Y117064D2*
G1X144849Y117064D1*
G1X146369Y115545D1*
G1X142525Y109710D2*
G1X144762Y108764D1*
G1X142525Y107817D1*
G1X144762Y108764D2*
G1X142902Y108764D1*
G1X145805Y109144D2*
G1X143746Y108764D1*
G1X145062Y107831D1*
G1X141524Y108764D2*
G1X145396Y108764D1*
G1X145984Y108176D1*
G1X195508Y108892D2*
G1X194832Y110489D1*
G1X194156Y108892D1*
G1X194832Y108176D2*
G1X194832Y112346D1*
G1X196717Y114231D1*
G1X225569Y114231D1*
G1X201151Y108342D2*
G1X201803Y106734D1*
G1X200195Y107385D1*
G1X200167Y108369D2*
G1X212171Y96366D1*
G1X226528Y96366D1*
G1X297282Y117767D2*
G1X297282Y99099D1*
G1X310567Y85814D1*
G1X297282Y117767D2*
G1X301967Y122451D1*
G1X313198Y114478D2*
G1X312171Y112011D1*
G1X311267Y114117D1*
G1X312171Y112011D2*
G1X312171Y113874D1*
G1X313118Y108378D2*
G1X312171Y110615D1*
G1X311224Y108378D1*
G1X312171Y110615D2*
G1X312171Y108754D1*
G1X312055Y115247D2*
G1X312171Y115131D1*
G1X312171Y107376D1*
G1X305104Y116157D2*
G1X307341Y115210D1*
G1X305104Y114264D1*
G1X307341Y115210D2*
G1X305481Y115210D1*
G1X311006Y116141D2*
G1X308817Y115210D1*
G1X311110Y114245D1*
G1X308817Y115210D2*
G1X310678Y115210D1*
G1X304103Y115210D2*
G1X312018Y115210D1*
G1X312055Y115247D1*
G1X319153Y107376D2*
G1X319153Y114976D1*
G1X320045Y107376D2*
G1X325021Y102400D1*
G1X325021Y74224D1*
G1X269098Y121870D2*
G1X270274Y120694D1*
G1X272531Y120694D1*
G1X273321Y121484D1*
G1X273321Y142585D1*
G1X313056Y124068D2*
G1X315293Y123121D1*
G1X313056Y122175D1*
G1X315293Y123121D2*
G1X313433Y123121D1*
G1X318673Y124142D2*
G1X315926Y123121D1*
G1X317965Y122152D1*
G1X315926Y123121D2*
G1X317790Y123053D1*
G1X312055Y123121D2*
G1X319153Y123121D1*
G1X319153Y122850D1*
G1X316691Y132682D2*
G1X316015Y134280D1*
G1X315339Y132682D1*
G1X316961Y139964D2*
G1X316015Y137727D1*
G1X315068Y139964D1*
G1X316015Y137727D2*
G1X316015Y139587D1*
G1X316015Y131967D2*
G1X316015Y140965D1*
G1X313002Y124123D2*
G1X312055Y126360D1*
G1X311108Y124123D1*
G1X312055Y126360D2*
G1X312055Y124499D1*
G1X289069Y142585D2*
G1X289171Y142484D1*
G1X289171Y134196D1*
G1X291863Y131504D1*
G1X308990Y131504D1*
G1X312055Y128439D1*
G1X312055Y123121D1*
G1X307458Y149290D2*
G1X306302Y149425D1*
G1X306436Y148268D1*
G1X285132Y142585D2*
G1X285132Y147748D1*
G1X286808Y149425D1*
G1X306302Y149425D1*
G1X307776Y147950D1*
G1X302924Y123798D2*
G1X300873Y122857D1*
G1X303606Y121799D1*
G1X300873Y122857D2*
G1X302737Y122900D1*
G1X277258Y142585D2*
G1X277258Y137741D1*
G1X292142Y122857D1*
G1X303876Y122857D1*
G1X304103Y123084D1*
G1X309081Y147507D2*
G1X308141Y144732D1*
G1X307113Y146742D1*
G1X308141Y144732D2*
G1X308018Y146593D1*
G1X309087Y141966D2*
G1X308141Y144203D1*
G1X307194Y141966D1*
G1X308141Y144203D2*
G1X308141Y142343D1*
G1X307776Y147950D2*
G1X308141Y147950D1*
G1X308141Y140965D1*
G1X323811Y140965D2*
G1X323811Y140015D1*
G1X315650Y147950D2*
G1X323629Y147950D1*
G1X324165Y148485D1*
G1X316015Y140965D2*
G1X323811Y140965D1*
G1X323811Y140015D1*
G1X316015Y140965D2*
G1X323811Y140965D1*
G1X324165Y140611D1*
G1X273321Y172173D2*
G1X273321Y172273D1*
G1X273433Y172385D1*
G1X273321Y162664D2*
G1X273321Y172173D1*
G1X268193Y173120D2*
G1X270429Y172173D1*
G1X268193Y171227D1*
G1X270429Y172173D2*
G1X268569Y172173D1*
G1X267191Y172173D2*
G1X273321Y172173D1*
G1X274435Y173332D2*
G1X276672Y172385D1*
G1X274435Y171438D1*
G1X276672Y172385D2*
G1X274811Y172385D1*
G1X273433Y172385D2*
G1X280527Y172385D1*
G1X285128Y167784D1*
G1X260545Y172444D2*
G1X273433Y172385D1*
G1X293015Y173547D2*
G1X290778Y172601D1*
G1X293015Y171654D1*
G1X290778Y172601D2*
G1X292638Y172601D1*
G1X286883Y173033D2*
G1X287316Y172601D1*
G1X294016Y172601D1*
G1X277258Y162664D2*
G1X277258Y167784D1*
G1X281149Y167784D1*
G1X280870Y173607D2*
G1X283107Y172661D1*
G1X280870Y171714D1*
G1X283107Y172661D2*
G1X281247Y172661D1*
G1X279869Y172661D2*
G1X286305Y172661D1*
G1X285128Y167784D2*
G1X281149Y167784D1*
G1X281149Y162664D1*
G1X281195Y162664D1*
G1X285128Y167784D2*
G1X289069Y167784D1*
G1X289069Y162664D1*
G1X285128Y167784D2*
G1X285128Y162668D1*
G1X285132Y162664D1*
G1X33823Y230941D2*
G1X33823Y226398D1*
G1X33823Y230941D1*
G1X35252Y275756D1*
G1X47069Y287573D1*
G1X58902Y287573D1*
G1X58902Y290519D1*
G1X80559Y227676D2*
G1X80559Y227444D1*
G1X123252Y226283D2*
G1X123252Y231365D1*
G1X80559Y232917D2*
G1X80404Y282047D1*
G1X88875Y290519D1*
G1X90398Y290519D1*
G1X121894Y290519D2*
G1X123252Y289161D1*
G1X123252Y231365D1*
G1X180354Y285087D2*
G1X180354Y281913D1*
G1X191461Y300519D2*
G1X204949Y300519D1*
G1X205049Y300619D1*
G1X218435Y300619D2*
G1X218435Y240054D1*
G1X222742Y235747D1*
G1X48568Y19720D2*
G1X124860Y19720D1*
G1X125633Y18947D1*
G1X125633Y16870D1*
G1X124708Y15945D1*
G1X46787Y15945D1*
G1X46276Y16455D1*
G1X46276Y19185D1*
G1X46743Y19652D1*
G1X48568Y19652D1*
G1X48568Y19720D1*
G1X46276Y17715D2*
G1X125633Y17715D1*
G1X46578Y19487D2*
G1X125093Y19487D1*
G1X259650Y54001D2*
G54D54*
G1X262992Y54001D1*
G1X280909Y54641D2*
G1X303779Y54641D1*
G1X304590Y55451D1*
G1X171995Y61277D2*
G1X179698Y61277D1*
G1X180245Y60731D1*
G1X225488Y68662D2*
G1X229135Y69977D1*
G1X225488Y71293D1*
G1X223524Y69977D2*
G1X235695Y69977D1*
G1X240364Y65309D1*
G1X253745Y65309D1*
G1X247411Y78191D2*
G1X247411Y71642D1*
G1X253745Y65309D1*
G1X257476Y78489D2*
G1X262992Y72973D1*
G1X262992Y54001D1*
G1X280269Y54001D1*
G1X280909Y54641D1*
G1X272633Y72538D2*
G1X279909Y72538D1*
G1X280909Y73538D1*
G1X225980Y95366D2*
G1X237956Y95366D1*
G1X246907Y86415D1*
G1X225483Y95366D2*
G1X225980Y95366D1*
G1X246907Y86415D2*
G1X248312Y85010D1*
G1X252180Y85010D1*
G1X254968Y82222D1*
G1X254968Y78489D1*
G1X257476Y78489D1*
G1X262992Y72973D1*
G1X262992Y54001D1*
G1X246907Y86415D2*
G1X248312Y85010D1*
G1X252180Y85010D1*
G1X254968Y82222D1*
G1X254968Y78489D1*
G1X254987Y78489D1*
G1X255285Y78191D1*
G1X360945Y282963D2*
G1X360945Y220743D1*
G1X361983Y219705D1*
G1X374680Y219705D1*
G1X360945Y282963D2*
G1X372352Y294370D1*
G1X383741Y294370D1*
G1X178075Y300519D2*
G1X178075Y285746D1*
G1X178734Y285087D1*
G1X180354Y285087D1*
G1X47298Y18791D3*
G1X62129Y18345D3*
G1X71148Y18197D3*
G1X55325Y18722D3*
G1X79976Y18414D3*
G1X88003Y18345D3*
G1X96688Y18145D3*
G1X114535Y18214D3*
G1X105707Y17998D3*
G1X98210Y38619D3*
G1X121260Y39219D3*
G1X77146Y41532D3*
G1X173444Y51865D3*
G1X166596Y51865D3*
G1X199033Y57268D3*
G1X236451Y59945D3*
G1X68670Y71700D3*
G1X69132Y66426D3*
G1X149192Y72758D3*
G1X171995Y67335D3*
G1X187457Y66183D3*
G1X272633Y72538D3*
G1X48547Y92100D3*
G1X46532Y85797D3*
G1X94244Y91484D3*
G1X86299Y99345D3*
G1X94369Y83622D3*
G1X86424Y91484D3*
G1X86413Y83637D3*
G1X94286Y99345D3*
G1X102147Y91484D3*
G1X102273Y99596D3*
G1X102064Y83664D3*
G1X125848Y89524D3*
G1X150893Y94757D3*
G1X162571Y99014D3*
G1X182602Y92324D3*
G1X182089Y97792D3*
G1X133953Y103980D3*
G1X146754Y100411D3*
G1X145984Y108176D3*
G1X146369Y115545D3*
G1X159746Y119884D3*
G1X198140Y101728D3*
G1X194832Y108176D3*
G1X200167Y108369D3*
G1X173854Y122090D3*
G1X166774Y120782D3*
G1X183581Y122568D3*
G1X188154Y136910D3*
G1X194744Y136596D3*
G1X201648Y136491D3*
G1X208866Y137119D3*
G1X197908Y129466D3*
G1X204498Y129152D3*
G1X211402Y129047D3*
G1X218620Y129675D3*
G1X316015Y131967D3*
G1X188325Y154535D3*
G1X188410Y145294D3*
G1X194915Y154221D3*
G1X201819Y154116D3*
G1X209037Y154744D3*
G1X195001Y144981D3*
G1X201905Y144876D3*
G1X209123Y145504D3*
G1X216243Y159130D3*
G1X43345Y180221D3*
G1X68051Y173662D3*
G1X93156Y175384D3*
G1X112513Y174828D3*
G1X136457Y174336D3*
G1X156825Y173662D3*
G1X187640Y173101D3*
G1X194231Y172788D3*
G1X187983Y163604D3*
G1X194573Y163290D3*
G1X201135Y172683D3*
G1X208353Y173311D3*
G1X201477Y163186D3*
G1X208695Y163813D3*
G1X227625Y177140D3*
G1X237679Y167101D3*
G1X237845Y172461D3*
G1X37507Y196540D3*
G1X70001Y186554D3*
G1X83543Y196827D3*
G1X114902Y189174D3*
G1X126857Y196245D3*
G1X194145Y181600D3*
G1X194016Y198886D3*
G1X187555Y181914D3*
G1X208267Y182123D3*
G1X200967Y198779D3*
G1X201049Y181496D3*
G1X221459Y199121D3*
G1X221210Y193016D3*
G1X214917Y192580D3*
G1X214793Y199869D3*
G1X39678Y220167D3*
G1X193315Y212482D3*
G1X186411Y212586D3*
G1X179820Y212900D3*
G1X179982Y206372D3*
G1X186573Y206058D3*
G1X193477Y205953D3*
G1X200695Y206581D3*
G1X200533Y213109D3*
G1X221833Y205725D3*
G1X214606Y206972D3*
G1X33576Y220370D3*
G1X33752Y232938D3*
G1X33823Y226398D3*
G1X39126Y232938D3*
G1X56153Y226283D3*
G1X85776Y221615D3*
G1X80115Y221671D3*
G1X80559Y227444D3*
G1X100000Y226283D3*
G1X129873Y220747D3*
G1X123158Y220668D3*
G1X123252Y226283D3*
G1X143562Y226283D3*
G1X222742Y235747D3*
G1X224655Y92855D2*
G1X277220Y92855D1*
G1X277899Y93533D1*
G1X277899Y100906D1*
G1X275854Y102950D1*
G1X221713Y102950D1*
G1X220056Y101294D1*
G1X220056Y94527D1*
G1X221607Y92976D1*
G1X224655Y92976D1*
G1X224655Y92855D1*
G1X220056Y99940D2*
G1X277899Y99940D1*
G1X220056Y96397D2*
G1X277899Y96397D1*
G1X253745Y54001D2*
G54D55*
G1X253745Y65309D1*
G1X244180Y132039D2*
G1X244180Y125977D1*
G1X254551Y115605D1*
G1X277595Y115605D1*
G1X279266Y117275D1*
G1X279266Y125748D1*
G1X272513Y132500D1*
G1X272975Y132039D1*
G1X244180Y132039D1*
G1X259753Y173033D2*
G1X296012Y173033D1*
G1X297503Y171542D1*
G1X297503Y169024D1*
G1X297027Y168548D1*
G1X259235Y168548D1*
G1X258100Y169683D1*
G1X258927Y169683D1*
G1X258927Y172070D1*
G1X259753Y172070D1*
G1X259753Y173033D1*
G1X246049Y124108D2*
G1X279266Y124108D1*
G1X248883Y121273D2*
G1X279266Y121273D1*
G1X251718Y118438D2*
G1X279266Y118438D1*
G1X244180Y126942D2*
G1X278071Y126942D1*
G1X244180Y129777D2*
G1X275237Y129777D1*
G1X258927Y171381D2*
G1X297503Y171381D1*
G54D56*
G1X281216Y38241D3*
G1X110024Y51173D3*
G1X109690Y40383D3*
G1X117124Y49233D3*
G1X157552Y42327D3*
G1X194318Y47585D3*
G1X48067Y79796D3*
G1X56483Y78954D3*
G1X75581Y63149D3*
G1X113911Y65624D3*
G1X180245Y60731D3*
G1X246907Y86415D3*
G1X59575Y122971D3*
G1X67784Y122940D3*
G1X163429Y178971D3*
G1X267191Y172173D3*
G1X273433Y172385D3*
G1X260545Y172444D3*
G1X294016Y172601D3*
G1X286397Y172569D3*
G1X279869Y172661D3*
G1X164298Y189543D3*
G1X168544Y183375D3*
G1X355244Y37060D2*
G54D57*
G1X355244Y81272D1*
G1X358234Y84262D1*
G1X398405Y84262D1*
G1X402433Y80234D1*
G1X402433Y72562D1*
G1X400535Y70663D1*
G1X368696Y70663D1*
G1X367037Y69004D1*
G1X367037Y38819D1*
G1X363601Y35384D1*
G1X355493Y35384D1*
G1X355244Y35633D1*
G1X355244Y37060D1*
G1X355244Y37060D3*
G1X377144Y46446D2*
G1X377144Y36776D1*
G1X379189Y34731D1*
G1X409668Y34731D1*
G1X414494Y39557D1*
G1X414494Y45089D1*
G1X411248Y48335D1*
G1X378504Y48335D1*
G1X377124Y46955D1*
G1X377124Y46446D1*
G1X377144Y46446D1*
G1X431050Y35184D2*
G1X431050Y65804D1*
G1X429803Y67050D1*
G1X429803Y111508D1*
G1X424286Y117025D1*
G1X416819Y124492D1*
G1X416819Y150250D1*
G1X418146Y151577D1*
G1X451579Y151577D1*
G1X456802Y146355D1*
G1X456802Y36096D1*
G1X453890Y33185D1*
G1X431740Y33185D1*
G1X431051Y33874D1*
G1X431051Y35184D1*
G1X431050Y35184D1*
G1X386608Y100785D2*
G1X362755Y100785D1*
G1X358934Y104605D1*
G1X358934Y150792D1*
G1X360135Y151993D1*
G1X392864Y151993D1*
G1X394477Y150380D1*
G1X394477Y106411D1*
G1X388898Y100832D1*
G1X386608Y100832D1*
G1X386608Y100785D1*
G1X329967Y207752D2*
G1X370939Y207752D1*
G1X373386Y205305D1*
G1X373386Y177597D1*
G1X375223Y175760D1*
G1X393388Y175760D1*
G1X396441Y178813D1*
G1X396441Y209644D1*
G1X380954Y225130D1*
G1X381070Y225015D1*
G1X330133Y225015D1*
G1X325772Y220653D1*
G1X325772Y207790D1*
G1X329967Y207790D1*
G1X329967Y207752D1*
G1X355244Y80028D2*
G1X402433Y80028D1*
G1X355244Y79320D2*
G1X402433Y79320D1*
G1X355244Y78611D2*
G1X402433Y78611D1*
G1X355244Y77902D2*
G1X402433Y77902D1*
G1X355244Y77194D2*
G1X402433Y77194D1*
G1X355244Y76485D2*
G1X402433Y76485D1*
G1X355244Y75776D2*
G1X402433Y75776D1*
G1X355244Y75068D2*
G1X402433Y75068D1*
G1X355244Y74359D2*
G1X402433Y74359D1*
G1X355244Y73651D2*
G1X402433Y73651D1*
G1X355244Y72942D2*
G1X402433Y72942D1*
G1X355244Y72233D2*
G1X402105Y72233D1*
G1X355244Y80737D2*
G1X401930Y80737D1*
G1X355244Y71525D2*
G1X401396Y71525D1*
G1X355417Y81446D2*
G1X401221Y81446D1*
G1X355244Y70816D2*
G1X400688Y70816D1*
G1X356126Y82154D2*
G1X400513Y82154D1*
G1X356835Y82863D2*
G1X399804Y82863D1*
G1X357543Y83572D2*
G1X399095Y83572D1*
G1X355244Y70107D2*
G1X368140Y70107D1*
G1X355244Y69399D2*
G1X367431Y69399D1*
G1X355244Y68690D2*
G1X367037Y68690D1*
G1X355244Y67981D2*
G1X367037Y67981D1*
G1X355244Y67273D2*
G1X367037Y67273D1*
G1X355244Y66564D2*
G1X367037Y66564D1*
G1X355244Y65855D2*
G1X367037Y65855D1*
G1X355244Y65147D2*
G1X367037Y65147D1*
G1X355244Y64438D2*
G1X367037Y64438D1*
G1X355244Y63729D2*
G1X367037Y63729D1*
G1X355244Y63021D2*
G1X367037Y63021D1*
G1X355244Y62312D2*
G1X367037Y62312D1*
G1X355244Y61603D2*
G1X367037Y61603D1*
G1X355244Y60895D2*
G1X367037Y60895D1*
G1X355244Y60186D2*
G1X367037Y60186D1*
G1X355244Y59477D2*
G1X367037Y59477D1*
G1X355244Y58769D2*
G1X367037Y58769D1*
G1X355244Y58060D2*
G1X367037Y58060D1*
G1X355244Y57351D2*
G1X367037Y57351D1*
G1X355244Y56643D2*
G1X367037Y56643D1*
G1X355244Y55934D2*
G1X367037Y55934D1*
G1X355244Y55225D2*
G1X367037Y55225D1*
G1X355244Y54517D2*
G1X367037Y54517D1*
G1X355244Y53808D2*
G1X367037Y53808D1*
G1X355244Y53099D2*
G1X367037Y53099D1*
G1X355244Y52391D2*
G1X367037Y52391D1*
G1X355244Y51682D2*
G1X367037Y51682D1*
G1X355244Y50973D2*
G1X367037Y50973D1*
G1X355244Y50265D2*
G1X367037Y50265D1*
G1X355244Y49556D2*
G1X367037Y49556D1*
G1X355244Y48847D2*
G1X367037Y48847D1*
G1X355244Y48139D2*
G1X367037Y48139D1*
G1X355244Y47430D2*
G1X367037Y47430D1*
G1X355244Y46721D2*
G1X367037Y46721D1*
G1X355244Y46013D2*
G1X367037Y46013D1*
G1X355244Y45304D2*
G1X367037Y45304D1*
G1X355244Y44595D2*
G1X367037Y44595D1*
G1X355244Y43887D2*
G1X367037Y43887D1*
G1X355244Y43178D2*
G1X367037Y43178D1*
G1X355244Y42469D2*
G1X367037Y42469D1*
G1X355244Y41761D2*
G1X367037Y41761D1*
G1X355244Y41052D2*
G1X367037Y41052D1*
G1X355244Y40343D2*
G1X367037Y40343D1*
G1X355244Y39635D2*
G1X367037Y39635D1*
G1X355244Y38926D2*
G1X367037Y38926D1*
G1X355244Y38217D2*
G1X366435Y38217D1*
G1X355244Y37509D2*
G1X365726Y37509D1*
G1X355244Y36800D2*
G1X365017Y36800D1*
G1X355244Y36091D2*
G1X364309Y36091D1*
G1X377144Y44651D2*
G1X414494Y44651D1*
G1X377144Y43942D2*
G1X414494Y43942D1*
G1X377144Y43234D2*
G1X414494Y43234D1*
G1X377144Y42525D2*
G1X414494Y42525D1*
G1X377144Y41816D2*
G1X414494Y41816D1*
G1X377144Y41108D2*
G1X414494Y41108D1*
G1X377144Y40399D2*
G1X414494Y40399D1*
G1X377144Y39690D2*
G1X414494Y39690D1*
G1X377144Y45360D2*
G1X414223Y45360D1*
G1X377144Y38982D2*
G1X413918Y38982D1*
G1X377144Y46068D2*
G1X413515Y46068D1*
G1X377144Y38273D2*
G1X413210Y38273D1*
G1X377124Y46777D2*
G1X412806Y46777D1*
G1X377144Y37564D2*
G1X412501Y37564D1*
G1X377655Y47486D2*
G1X412097Y47486D1*
G1X377144Y36856D2*
G1X411792Y36856D1*
G1X378363Y48194D2*
G1X411389Y48194D1*
G1X377773Y36147D2*
G1X411084Y36147D1*
G1X378482Y35438D2*
G1X410375Y35438D1*
G1X416819Y145861D2*
G1X456802Y145861D1*
G1X416819Y145152D2*
G1X456802Y145152D1*
G1X416819Y144443D2*
G1X456802Y144443D1*
G1X416819Y143735D2*
G1X456802Y143735D1*
G1X416819Y143026D2*
G1X456802Y143026D1*
G1X416819Y142317D2*
G1X456802Y142317D1*
G1X416819Y141609D2*
G1X456802Y141609D1*
G1X416819Y140900D2*
G1X456802Y140900D1*
G1X416819Y140191D2*
G1X456802Y140191D1*
G1X416819Y139483D2*
G1X456802Y139483D1*
G1X416819Y138774D2*
G1X456802Y138774D1*
G1X416819Y138065D2*
G1X456802Y138065D1*
G1X416819Y137357D2*
G1X456802Y137357D1*
G1X416819Y136648D2*
G1X456802Y136648D1*
G1X416819Y135939D2*
G1X456802Y135939D1*
G1X416819Y135231D2*
G1X456802Y135231D1*
G1X416819Y134522D2*
G1X456802Y134522D1*
G1X416819Y133813D2*
G1X456802Y133813D1*
G1X416819Y133105D2*
G1X456802Y133105D1*
G1X416819Y132396D2*
G1X456802Y132396D1*
G1X416819Y131687D2*
G1X456802Y131687D1*
G1X416819Y130979D2*
G1X456802Y130979D1*
G1X416819Y130270D2*
G1X456802Y130270D1*
G1X416819Y129561D2*
G1X456802Y129561D1*
G1X416819Y128853D2*
G1X456802Y128853D1*
G1X416819Y128144D2*
G1X456802Y128144D1*
G1X416819Y127435D2*
G1X456802Y127435D1*
G1X416819Y126727D2*
G1X456802Y126727D1*
G1X416819Y126018D2*
G1X456802Y126018D1*
G1X416819Y125309D2*
G1X456802Y125309D1*
G1X416819Y124601D2*
G1X456802Y124601D1*
G1X417419Y123892D2*
G1X456802Y123892D1*
G1X418128Y123183D2*
G1X456802Y123183D1*
G1X418837Y122475D2*
G1X456802Y122475D1*
G1X419545Y121766D2*
G1X456802Y121766D1*
G1X420254Y121057D2*
G1X456802Y121057D1*
G1X420963Y120349D2*
G1X456802Y120349D1*
G1X421671Y119640D2*
G1X456802Y119640D1*
G1X422380Y118931D2*
G1X456802Y118931D1*
G1X423089Y118223D2*
G1X456802Y118223D1*
G1X423797Y117514D2*
G1X456802Y117514D1*
G1X424506Y116805D2*
G1X456802Y116805D1*
G1X425215Y116097D2*
G1X456802Y116097D1*
G1X425923Y115388D2*
G1X456802Y115388D1*
G1X426632Y114679D2*
G1X456802Y114679D1*
G1X427341Y113971D2*
G1X456802Y113971D1*
G1X428049Y113262D2*
G1X456802Y113262D1*
G1X428758Y112553D2*
G1X456802Y112553D1*
G1X429467Y111845D2*
G1X456802Y111845D1*
G1X429803Y111136D2*
G1X456802Y111136D1*
G1X429803Y110427D2*
G1X456802Y110427D1*
G1X429803Y109719D2*
G1X456802Y109719D1*
G1X429803Y109010D2*
G1X456802Y109010D1*
G1X429803Y108301D2*
G1X456802Y108301D1*
G1X429803Y107593D2*
G1X456802Y107593D1*
G1X429803Y106884D2*
G1X456802Y106884D1*
G1X429803Y106176D2*
G1X456802Y106176D1*
G1X429803Y105467D2*
G1X456802Y105467D1*
G1X429803Y104758D2*
G1X456802Y104758D1*
G1X429803Y104050D2*
G1X456802Y104050D1*
G1X429803Y103341D2*
G1X456802Y103341D1*
G1X429803Y102632D2*
G1X456802Y102632D1*
G1X429803Y101924D2*
G1X456802Y101924D1*
G1X429803Y101215D2*
G1X456802Y101215D1*
G1X429803Y100506D2*
G1X456802Y100506D1*
G1X429803Y99798D2*
G1X456802Y99798D1*
G1X429803Y99089D2*
G1X456802Y99089D1*
G1X429803Y98380D2*
G1X456802Y98380D1*
G1X429803Y97672D2*
G1X456802Y97672D1*
G1X429803Y96963D2*
G1X456802Y96963D1*
G1X429803Y96254D2*
G1X456802Y96254D1*
G1X429803Y95546D2*
G1X456802Y95546D1*
G1X429803Y94837D2*
G1X456802Y94837D1*
G1X429803Y94128D2*
G1X456802Y94128D1*
G1X429803Y93420D2*
G1X456802Y93420D1*
G1X429803Y92711D2*
G1X456802Y92711D1*
G1X429803Y92002D2*
G1X456802Y92002D1*
G1X429803Y91294D2*
G1X456802Y91294D1*
G1X429803Y90585D2*
G1X456802Y90585D1*
G1X429803Y89876D2*
G1X456802Y89876D1*
G1X429803Y89168D2*
G1X456802Y89168D1*
G1X429803Y88459D2*
G1X456802Y88459D1*
G1X429803Y87750D2*
G1X456802Y87750D1*
G1X429803Y87042D2*
G1X456802Y87042D1*
G1X429803Y86333D2*
G1X456802Y86333D1*
G1X429803Y85624D2*
G1X456802Y85624D1*
G1X429803Y84916D2*
G1X456802Y84916D1*
G1X429803Y84207D2*
G1X456802Y84207D1*
G1X429803Y83498D2*
G1X456802Y83498D1*
G1X429803Y82790D2*
G1X456802Y82790D1*
G1X429803Y82081D2*
G1X456802Y82081D1*
G1X429803Y81372D2*
G1X456802Y81372D1*
G1X429803Y80664D2*
G1X456802Y80664D1*
G1X429803Y79955D2*
G1X456802Y79955D1*
G1X429803Y79246D2*
G1X456802Y79246D1*
G1X429803Y78538D2*
G1X456802Y78538D1*
G1X429803Y77829D2*
G1X456802Y77829D1*
G1X429803Y77120D2*
G1X456802Y77120D1*
G1X429803Y76412D2*
G1X456802Y76412D1*
G1X429803Y75703D2*
G1X456802Y75703D1*
G1X429803Y74994D2*
G1X456802Y74994D1*
G1X429803Y74286D2*
G1X456802Y74286D1*
G1X429803Y73577D2*
G1X456802Y73577D1*
G1X429803Y72868D2*
G1X456802Y72868D1*
G1X429803Y72160D2*
G1X456802Y72160D1*
G1X429803Y71451D2*
G1X456802Y71451D1*
G1X429803Y70742D2*
G1X456802Y70742D1*
G1X429803Y70034D2*
G1X456802Y70034D1*
G1X429803Y69325D2*
G1X456802Y69325D1*
G1X429803Y68616D2*
G1X456802Y68616D1*
G1X429803Y67908D2*
G1X456802Y67908D1*
G1X429803Y67199D2*
G1X456802Y67199D1*
G1X430363Y66490D2*
G1X456802Y66490D1*
G1X431050Y65782D2*
G1X456802Y65782D1*
G1X431050Y65073D2*
G1X456802Y65073D1*
G1X431050Y64364D2*
G1X456802Y64364D1*
G1X431050Y63656D2*
G1X456802Y63656D1*
G1X431050Y62947D2*
G1X456802Y62947D1*
G1X431050Y62239D2*
G1X456802Y62239D1*
G1X431050Y61530D2*
G1X456802Y61530D1*
G1X431050Y60821D2*
G1X456802Y60821D1*
G1X431050Y60113D2*
G1X456802Y60113D1*
G1X431050Y59404D2*
G1X456802Y59404D1*
G1X431050Y58695D2*
G1X456802Y58695D1*
G1X431050Y57987D2*
G1X456802Y57987D1*
G1X431050Y57278D2*
G1X456802Y57278D1*
G1X431050Y56569D2*
G1X456802Y56569D1*
G1X431050Y55861D2*
G1X456802Y55861D1*
G1X431050Y55152D2*
G1X456802Y55152D1*
G1X431050Y54443D2*
G1X456802Y54443D1*
G1X431050Y53735D2*
G1X456802Y53735D1*
G1X431050Y53026D2*
G1X456802Y53026D1*
G1X431050Y52317D2*
G1X456802Y52317D1*
G1X431050Y51609D2*
G1X456802Y51609D1*
G1X431050Y50900D2*
G1X456802Y50900D1*
G1X431050Y50191D2*
G1X456802Y50191D1*
G1X431050Y49483D2*
G1X456802Y49483D1*
G1X431050Y48774D2*
G1X456802Y48774D1*
G1X431050Y48065D2*
G1X456802Y48065D1*
G1X431050Y47357D2*
G1X456802Y47357D1*
G1X431050Y46648D2*
G1X456802Y46648D1*
G1X431050Y45939D2*
G1X456802Y45939D1*
G1X431050Y45231D2*
G1X456802Y45231D1*
G1X431050Y44522D2*
G1X456802Y44522D1*
G1X431050Y43813D2*
G1X456802Y43813D1*
G1X431050Y43105D2*
G1X456802Y43105D1*
G1X431050Y42396D2*
G1X456802Y42396D1*
G1X431050Y41687D2*
G1X456802Y41687D1*
G1X431050Y40979D2*
G1X456802Y40979D1*
G1X431050Y40270D2*
G1X456802Y40270D1*
G1X431050Y39561D2*
G1X456802Y39561D1*
G1X431050Y38853D2*
G1X456802Y38853D1*
G1X431050Y38144D2*
G1X456802Y38144D1*
G1X431050Y37435D2*
G1X456802Y37435D1*
G1X431050Y36727D2*
G1X456802Y36727D1*
G1X431050Y36018D2*
G1X456724Y36018D1*
G1X416819Y146569D2*
G1X456587Y146569D1*
G1X431050Y35309D2*
G1X456015Y35309D1*
G1X416819Y147278D2*
G1X455879Y147278D1*
G1X431051Y34601D2*
G1X455306Y34601D1*
G1X416819Y147987D2*
G1X455170Y147987D1*
G1X431051Y33892D2*
G1X454598Y33892D1*
G1X416819Y148695D2*
G1X454461Y148695D1*
G1X416819Y149404D2*
G1X453753Y149404D1*
G1X416819Y150113D2*
G1X453044Y150113D1*
G1X417390Y150821D2*
G1X452335Y150821D1*
G1X418099Y151530D2*
G1X451627Y151530D1*
G1X358934Y149681D2*
G1X394477Y149681D1*
G1X358934Y148972D2*
G1X394477Y148972D1*
G1X358934Y148264D2*
G1X394477Y148264D1*
G1X358934Y147555D2*
G1X394477Y147555D1*
G1X358934Y146846D2*
G1X394477Y146846D1*
G1X358934Y146138D2*
G1X394477Y146138D1*
G1X358934Y145429D2*
G1X394477Y145429D1*
G1X358934Y144720D2*
G1X394477Y144720D1*
G1X358934Y144012D2*
G1X394477Y144012D1*
G1X358934Y143303D2*
G1X394477Y143303D1*
G1X358934Y142594D2*
G1X394477Y142594D1*
G1X358934Y141886D2*
G1X394477Y141886D1*
G1X358934Y141177D2*
G1X394477Y141177D1*
G1X358934Y140468D2*
G1X394477Y140468D1*
G1X358934Y139760D2*
G1X394477Y139760D1*
G1X358934Y139051D2*
G1X394477Y139051D1*
G1X358934Y138342D2*
G1X394477Y138342D1*
G1X358934Y137634D2*
G1X394477Y137634D1*
G1X358934Y136925D2*
G1X394477Y136925D1*
G1X358934Y136216D2*
G1X394477Y136216D1*
G1X358934Y135508D2*
G1X394477Y135508D1*
G1X358934Y134799D2*
G1X394477Y134799D1*
G1X358934Y134090D2*
G1X394477Y134090D1*
G1X358934Y133382D2*
G1X394477Y133382D1*
G1X358934Y132673D2*
G1X394477Y132673D1*
G1X358934Y131964D2*
G1X394477Y131964D1*
G1X358934Y131256D2*
G1X394477Y131256D1*
G1X358934Y130547D2*
G1X394477Y130547D1*
G1X358934Y129838D2*
G1X394477Y129838D1*
G1X358934Y129130D2*
G1X394477Y129130D1*
G1X358934Y128421D2*
G1X394477Y128421D1*
G1X358934Y127712D2*
G1X394477Y127712D1*
G1X358934Y127004D2*
G1X394477Y127004D1*
G1X358934Y126295D2*
G1X394477Y126295D1*
G1X358934Y125586D2*
G1X394477Y125586D1*
G1X358934Y124878D2*
G1X394477Y124878D1*
G1X358934Y124169D2*
G1X394477Y124169D1*
G1X358934Y123460D2*
G1X394477Y123460D1*
G1X358934Y122752D2*
G1X394477Y122752D1*
G1X358934Y122043D2*
G1X394477Y122043D1*
G1X358934Y121334D2*
G1X394477Y121334D1*
G1X358934Y120626D2*
G1X394477Y120626D1*
G1X358934Y119917D2*
G1X394477Y119917D1*
G1X358934Y119208D2*
G1X394477Y119208D1*
G1X358934Y118500D2*
G1X394477Y118500D1*
G1X358934Y117791D2*
G1X394477Y117791D1*
G1X358934Y117082D2*
G1X394477Y117082D1*
G1X358934Y116374D2*
G1X394477Y116374D1*
G1X358934Y115665D2*
G1X394477Y115665D1*
G1X358934Y114956D2*
G1X394477Y114956D1*
G1X358934Y114248D2*
G1X394477Y114248D1*
G1X358934Y113539D2*
G1X394477Y113539D1*
G1X358934Y112830D2*
G1X394477Y112830D1*
G1X358934Y112122D2*
G1X394477Y112122D1*
G1X358934Y111413D2*
G1X394477Y111413D1*
G1X358934Y110704D2*
G1X394477Y110704D1*
G1X358934Y109996D2*
G1X394477Y109996D1*
G1X358934Y109287D2*
G1X394477Y109287D1*
G1X358934Y108578D2*
G1X394477Y108578D1*
G1X358934Y107870D2*
G1X394477Y107870D1*
G1X358934Y107161D2*
G1X394477Y107161D1*
G1X358934Y106452D2*
G1X394477Y106452D1*
G1X358934Y150389D2*
G1X394467Y150389D1*
G1X358934Y105744D2*
G1X393809Y105744D1*
G1X359240Y151098D2*
G1X393758Y151098D1*
G1X358934Y105035D2*
G1X393100Y105035D1*
G1X359949Y151807D2*
G1X393049Y151807D1*
G1X359213Y104326D2*
G1X392392Y104326D1*
G1X359921Y103618D2*
G1X391683Y103618D1*
G1X360630Y102909D2*
G1X390974Y102909D1*
G1X361339Y102201D2*
G1X390266Y102201D1*
G1X362047Y101492D2*
G1X389557Y101492D1*
G1X325772Y209066D2*
G1X396441Y209066D1*
G1X325772Y208357D2*
G1X396441Y208357D1*
G1X371043Y207649D2*
G1X396441Y207649D1*
G1X371752Y206940D2*
G1X396441Y206940D1*
G1X372460Y206231D2*
G1X396441Y206231D1*
G1X373169Y205523D2*
G1X396441Y205523D1*
G1X373386Y204814D2*
G1X396441Y204814D1*
G1X373386Y204105D2*
G1X396441Y204105D1*
G1X373386Y203397D2*
G1X396441Y203397D1*
G1X373386Y202688D2*
G1X396441Y202688D1*
G1X373386Y201979D2*
G1X396441Y201979D1*
G1X373386Y201271D2*
G1X396441Y201271D1*
G1X373386Y200562D2*
G1X396441Y200562D1*
G1X373386Y199853D2*
G1X396441Y199853D1*
G1X373386Y199145D2*
G1X396441Y199145D1*
G1X373386Y198436D2*
G1X396441Y198436D1*
G1X373386Y197727D2*
G1X396441Y197727D1*
G1X373386Y197019D2*
G1X396441Y197019D1*
G1X373386Y196310D2*
G1X396441Y196310D1*
G1X373386Y195601D2*
G1X396441Y195601D1*
G1X373386Y194893D2*
G1X396441Y194893D1*
G1X373386Y194184D2*
G1X396441Y194184D1*
G1X373386Y193475D2*
G1X396441Y193475D1*
G1X373386Y192767D2*
G1X396441Y192767D1*
G1X373386Y192058D2*
G1X396441Y192058D1*
G1X373386Y191349D2*
G1X396441Y191349D1*
G1X373386Y190641D2*
G1X396441Y190641D1*
G1X373386Y189932D2*
G1X396441Y189932D1*
G1X373386Y189223D2*
G1X396441Y189223D1*
G1X373386Y188515D2*
G1X396441Y188515D1*
G1X373386Y187806D2*
G1X396441Y187806D1*
G1X373386Y187097D2*
G1X396441Y187097D1*
G1X373386Y186389D2*
G1X396441Y186389D1*
G1X373386Y185680D2*
G1X396441Y185680D1*
G1X373386Y184971D2*
G1X396441Y184971D1*
G1X373386Y184263D2*
G1X396441Y184263D1*
G1X373386Y183554D2*
G1X396441Y183554D1*
G1X373386Y182845D2*
G1X396441Y182845D1*
G1X373386Y182137D2*
G1X396441Y182137D1*
G1X373386Y181428D2*
G1X396441Y181428D1*
G1X373386Y180719D2*
G1X396441Y180719D1*
G1X373386Y180011D2*
G1X396441Y180011D1*
G1X373386Y179302D2*
G1X396441Y179302D1*
G1X325772Y209775D2*
G1X396310Y209775D1*
G1X373386Y178594D2*
G1X396221Y178594D1*
G1X325772Y210483D2*
G1X395601Y210483D1*
G1X373386Y177885D2*
G1X395513Y177885D1*
G1X325772Y211192D2*
G1X394892Y211192D1*
G1X373807Y177176D2*
G1X394804Y177176D1*
G1X325772Y211901D2*
G1X394184Y211901D1*
G1X374516Y176468D2*
G1X394095Y176468D1*
G1X325772Y212609D2*
G1X393475Y212609D1*
G1X325772Y213318D2*
G1X392766Y213318D1*
G1X325772Y214027D2*
G1X392058Y214027D1*
G1X325772Y214735D2*
G1X391349Y214735D1*
G1X325772Y215444D2*
G1X390640Y215444D1*
G1X325772Y216153D2*
G1X389932Y216153D1*
G1X325772Y216861D2*
G1X389223Y216861D1*
G1X325772Y217570D2*
G1X388514Y217570D1*
G1X325772Y218279D2*
G1X387806Y218279D1*
G1X325772Y218987D2*
G1X387097Y218987D1*
G1X325772Y219696D2*
G1X386388Y219696D1*
G1X325772Y220405D2*
G1X385680Y220405D1*
G1X326232Y221113D2*
G1X384971Y221113D1*
G1X326940Y221822D2*
G1X384262Y221822D1*
G1X327649Y222531D2*
G1X383554Y222531D1*
G1X328358Y223239D2*
G1X382845Y223239D1*
G1X329066Y223948D2*
G1X382136Y223948D1*
G1X329775Y224656D2*
G1X381428Y224656D1*
G1X462656Y12673D2*
G75*
G3X464625Y14642I0J1969D1*
G74*
G1X464625Y306994D1*
G75*
G3X462656Y308963I-1969J0D1*
G74*
G1X24718Y308963D1*
G75*
G3X22749Y306994I0J-1969D1*
G74*
G1X22749Y14642D1*
G75*
G3X24718Y12673I1969J0D1*
G74*
G1X462656Y12673D1*
G1X216243Y163067D2*
G54D58*
G1X215268Y160104D1*
G1X216243Y161689D1*
G1X217217Y160104D1*
G1X216243Y163067D1*
G1X215374Y160425D2*
G1X215465Y160425D1*
G1X217020Y160425D2*
G1X217112Y160425D1*
G1X215762Y161606D2*
G1X216191Y161606D1*
G1X216294Y161606D2*
G1X216723Y161606D1*
G1X216150Y162787D2*
G1X216335Y162787D1*
G1X215268Y160104D3*
G1X216449Y161353D2*
G1X216449Y162438D1*
G1X224841Y174356D2*
G1X227625Y175762D1*
G1X225816Y175331D1*
G1X226247Y177140D1*
G1X224841Y174356D1*
G1X224964Y174598D2*
G1X225320Y174598D1*
G1X225560Y175779D2*
G1X225923Y175779D1*
G1X226156Y176960D2*
G1X226204Y176960D1*
G1X224841Y174356D3*
G1X226023Y174953D2*
G1X226023Y175380D1*
G1X226023Y176198D2*
G1X226023Y176695D1*
G1X227204Y175549D2*
G1X227204Y175662D1*
G1X237679Y170016D2*
G1X236857Y168207D1*
G1X237679Y169660D1*
G1X238501Y168207D1*
G1X237679Y170016D1*
G1X237077Y168692D2*
G1X237131Y168692D1*
G1X238226Y168692D2*
G1X238280Y168692D1*
G1X237614Y169874D2*
G1X237744Y169874D1*
G1X236857Y168207D3*
G1X238038Y169026D2*
G1X238038Y169227D1*
G1X154041Y176446D2*
G1X155447Y173662D1*
G1X155016Y175471D1*
G1X156825Y175040D1*
G1X154041Y176446D1*
G1X154974Y174598D2*
G1X155224Y174598D1*
G1X154378Y175779D2*
G1X155361Y175779D1*
G1X154041Y176446D3*
G1X155222Y174107D2*
G1X155222Y174604D1*
G1X155222Y175422D2*
G1X155222Y175849D1*
G1X156403Y175140D2*
G1X156403Y175253D1*
G1X221459Y203058D2*
G1X220485Y200096D1*
G1X221459Y201680D1*
G1X222434Y200096D1*
G1X221459Y203058D1*
G1X220645Y200582D2*
G1X220784Y200582D1*
G1X222134Y200582D2*
G1X222274Y200582D1*
G1X221033Y201763D2*
G1X221885Y201763D1*
G1X221422Y202944D2*
G1X221497Y202944D1*
G1X220485Y200096D3*
G1X221666Y201344D2*
G1X221666Y202430D1*
G1X221210Y196953D2*
G1X220236Y193990D1*
G1X221210Y195575D1*
G1X222184Y193990D1*
G1X221210Y196953D1*
G1X220461Y194677D2*
G1X220658Y194677D1*
G1X221762Y194677D2*
G1X221959Y194677D1*
G1X220850Y195858D2*
G1X221570Y195858D1*
G1X220236Y193990D3*
G1X221417Y195239D2*
G1X221417Y196324D1*
G1X218845Y192852D2*
G1X215822Y193619D1*
G1X217470Y192757D1*
G1X215957Y191675D1*
G1X218845Y192852D1*
G1X216852Y192315D2*
G1X217526Y192315D1*
G1X216058Y193496D2*
G1X216309Y193496D1*
G1X215822Y193619D3*
G1X217003Y192101D2*
G1X217003Y192423D1*
G1X217003Y193001D2*
G1X217003Y193319D1*
G1X218184Y192583D2*
G1X218184Y193020D1*
G1X217282Y192744D2*
G1X220305Y191976D1*
G1X218657Y192839D1*
G1X220171Y193920D1*
G1X217282Y192744D1*
G1X218973Y192315D2*
G1X219659Y192315D1*
G1X219128Y193496D2*
G1X219576Y193496D1*
G1X217282Y192744D3*
G1X218464Y192444D2*
G1X218464Y193225D1*
G1X219645Y192144D2*
G1X219645Y192322D1*
G1X219645Y193545D2*
G1X219645Y193706D1*
G1X214860Y195933D2*
G1X215784Y198912D1*
G1X214837Y197310D1*
G1X213835Y198878D1*
G1X214860Y195933D1*
G1X214475Y197039D2*
G1X215203Y197039D1*
G1X214064Y198220D2*
G1X214256Y198220D1*
G1X215375Y198220D2*
G1X215569Y198220D1*
G1X213835Y198878D3*
G1X215016Y196437D2*
G1X215016Y197614D1*
G1X214850Y196516D2*
G1X213927Y193537D1*
G1X214874Y195138D1*
G1X215875Y193571D1*
G1X214850Y196516D1*
G1X214280Y194677D2*
G1X214601Y194677D1*
G1X215169Y194677D2*
G1X215490Y194677D1*
G1X214646Y195858D2*
G1X215079Y195858D1*
G1X213927Y193537D3*
G1X215108Y194772D2*
G1X215108Y195776D1*
G1X197237Y212823D2*
G1X194201Y213537D1*
G1X195864Y212703D1*
G1X194370Y211595D1*
G1X197237Y212823D1*
G1X195446Y212393D2*
G1X196234Y212393D1*
G1X194201Y213537D3*
G1X195382Y212029D2*
G1X195382Y212346D1*
G1X195382Y212945D2*
G1X195382Y213259D1*
G1X196563Y212534D2*
G1X196563Y212981D1*
G1X196611Y212768D2*
G1X199647Y212054D1*
G1X197983Y212888D1*
G1X199478Y213996D1*
G1X196611Y212768D1*
G1X198205Y212393D2*
G1X198970Y212393D1*
G1X198494Y213574D2*
G1X198910Y213574D1*
G1X196611Y212768D3*
G1X197792Y212491D2*
G1X197792Y213274D1*
G1X198973Y212213D2*
G1X198973Y212392D1*
G1X198973Y213621D2*
G1X198973Y213780D1*
G1X190347Y212527D2*
G1X187400Y213546D1*
G1X188969Y212548D1*
G1X187370Y211597D1*
G1X190347Y212527D1*
G1X188710Y212393D2*
G1X189920Y212393D1*
G1X187370Y211597D3*
G1X188551Y211966D2*
G1X188551Y212299D1*
G1X188551Y212813D2*
G1X188551Y213148D1*
G1X189732Y212335D2*
G1X189732Y212739D1*
G1X189378Y212541D2*
G1X192326Y211522D1*
G1X190756Y212520D1*
G1X192355Y213471D1*
G1X189378Y212541D1*
G1X189807Y212393D2*
G1X190956Y212393D1*
G1X189378Y212541D3*
G1X190559Y212133D2*
G1X190559Y212910D1*
G1X191741Y211725D2*
G1X191741Y211894D1*
G1X191741Y213105D2*
G1X191741Y213279D1*
G1X179820Y209024D2*
G1X180795Y211926D1*
G1X179820Y210341D1*
G1X178846Y211926D1*
G1X179820Y209024D1*
G1X179482Y210031D2*
G1X180158Y210031D1*
G1X179086Y211212D2*
G1X179285Y211212D1*
G1X180356Y211212D2*
G1X180555Y211212D1*
G1X178846Y211926D3*
G1X180027Y209640D2*
G1X180027Y210677D1*
G1X183753Y212713D2*
G1X180840Y213827D1*
G1X182376Y212778D1*
G1X180747Y211881D1*
G1X183753Y212713D1*
G1X181678Y212393D2*
G1X182599Y212393D1*
G1X181210Y213574D2*
G1X181501Y213574D1*
G1X180747Y211881D3*
G1X181928Y212208D2*
G1X181928Y212531D1*
G1X181928Y213084D2*
G1X181928Y213411D1*
G1X183109Y212535D2*
G1X183109Y212959D1*
G1X182478Y212774D2*
G1X185391Y211659D1*
G1X183854Y212708D1*
G1X185484Y213606D1*
G1X182478Y212774D1*
G1X183472Y212393D2*
G1X184316Y212393D1*
G1X185370Y213574D2*
G1X185426Y213574D1*
G1X182478Y212774D3*
G1X183659Y212322D2*
G1X183659Y213101D1*
G1X184840Y211870D2*
G1X184840Y212035D1*
G1X184840Y213251D2*
G1X184840Y213428D1*
G1X190509Y205998D2*
G1X187562Y207017D1*
G1X189131Y206019D1*
G1X187532Y205069D1*
G1X190509Y205998D1*
G1X187932Y205307D2*
G1X188293Y205307D1*
G1X188395Y206488D2*
G1X189094Y206488D1*
G1X187532Y205069D3*
G1X188713Y205438D2*
G1X188713Y205771D1*
G1X188713Y206285D2*
G1X188713Y206619D1*
G1X189894Y205806D2*
G1X189894Y206211D1*
G1X189540Y206013D2*
G1X192488Y204994D1*
G1X190918Y205992D1*
G1X192517Y206942D1*
G1X189540Y206013D1*
G1X191583Y205307D2*
G1X191996Y205307D1*
G1X191061Y206488D2*
G1X191752Y206488D1*
G1X189540Y206013D3*
G1X190721Y205605D2*
G1X190721Y206382D1*
G1X191902Y205196D2*
G1X191902Y205366D1*
G1X191902Y206577D2*
G1X191902Y206750D1*
G1X193776Y202028D2*
G1X194522Y205056D1*
G1X193672Y203402D1*
G1X192579Y204908D1*
G1X193776Y202028D1*
G1X193395Y202944D2*
G1X194002Y202944D1*
G1X192904Y204126D2*
G1X193147Y204126D1*
G1X194044Y204126D2*
G1X194293Y204126D1*
G1X192579Y204908D3*
G1X193760Y202066D2*
G1X193760Y203575D1*
G1X193717Y202811D2*
G1X192971Y199783D1*
G1X193821Y201437D1*
G1X194914Y199931D1*
G1X193717Y202811D1*
G1X193167Y200582D2*
G1X193382Y200582D1*
G1X194441Y200582D2*
G1X194643Y200582D1*
G1X193458Y201763D2*
G1X194152Y201763D1*
G1X192971Y199783D3*
G1X194152Y200982D2*
G1X194152Y201764D1*
G1X200832Y202646D2*
G1X201703Y205641D1*
G1X200784Y204024D1*
G1X199755Y205573D1*
G1X200832Y202646D1*
G1X200722Y202944D2*
G1X200919Y202944D1*
G1X200288Y204126D2*
G1X200716Y204126D1*
G1X200842Y204126D2*
G1X201262Y204126D1*
G1X199853Y205307D2*
G1X199932Y205307D1*
G1X201513Y205307D2*
G1X201605Y205307D1*
G1X199755Y205573D3*
G1X200936Y203004D2*
G1X200936Y204291D1*
G1X200830Y202714D2*
G1X199959Y199719D1*
G1X200878Y201336D1*
G1X201907Y199787D1*
G1X200830Y202714D1*
G1X200210Y200582D2*
G1X200450Y200582D1*
G1X201379Y200582D2*
G1X201614Y200582D1*
G1X200554Y201763D2*
G1X201179Y201763D1*
G1X199959Y199719D3*
G1X201140Y200941D2*
G1X201140Y201869D1*
G1X200630Y209174D2*
G1X201531Y212159D1*
G1X200596Y210551D1*
G1X199583Y212111D1*
G1X200630Y209174D1*
G1X200325Y210031D2*
G1X200889Y210031D1*
G1X199904Y211212D2*
G1X200167Y211212D1*
G1X200981Y211212D2*
G1X201245Y211212D1*
G1X199583Y212111D3*
G1X200764Y209617D2*
G1X200764Y210840D1*
G1X200597Y210517D2*
G1X199697Y207531D1*
G1X200631Y209139D1*
G1X201645Y207579D1*
G1X200597Y210517D1*
G1X199738Y207669D2*
G1X199777Y207669D1*
G1X201586Y207669D2*
G1X201613Y207669D1*
G1X200094Y208850D2*
G1X200463Y208850D1*
G1X200819Y208850D2*
G1X201192Y208850D1*
G1X200451Y210031D2*
G1X200770Y210031D1*
G1X199697Y207531D3*
G1X200878Y208760D2*
G1X200878Y209730D1*
G1X214606Y203035D2*
G1X215580Y205997D1*
G1X214606Y204412D1*
G1X213632Y205997D1*
G1X214606Y203035D1*
G1X214247Y204126D2*
G1X214965Y204126D1*
G1X213859Y205307D2*
G1X214056Y205307D1*
G1X215156Y205307D2*
G1X215353Y205307D1*
G1X213632Y205997D3*
G1X214813Y203663D2*
G1X214813Y204749D1*
G1X56153Y230220D2*
G1X55179Y227258D1*
G1X56153Y228842D1*
G1X57127Y227258D1*
G1X56153Y230220D1*
G1X55340Y227748D2*
G1X55480Y227748D1*
G1X56826Y227748D2*
G1X56966Y227748D1*
G1X55728Y228929D2*
G1X56578Y228929D1*
G1X56117Y230110D2*
G1X56189Y230110D1*
G1X55179Y227258D3*
G1X56360Y228506D2*
G1X56360Y229592D1*
G1X80559Y231146D2*
G1X79584Y228418D1*
G1X80559Y230003D1*
G1X81533Y228418D1*
G1X80559Y231146D1*
G1X79767Y228929D2*
G1X79898Y228929D1*
G1X81219Y228929D2*
G1X81351Y228929D1*
G1X80189Y230110D2*
G1X80929Y230110D1*
G1X79584Y228418D3*
G1X80765Y229666D2*
G1X80765Y230567D1*
G1X80115Y225460D2*
G1X79140Y222645D1*
G1X80115Y224230D1*
G1X81089Y222645D1*
G1X80115Y225460D1*
G1X79271Y223023D2*
G1X79373Y223023D1*
G1X80857Y223023D2*
G1X80958Y223023D1*
G1X79680Y224204D2*
G1X80099Y224204D1*
G1X80131Y224204D2*
G1X80549Y224204D1*
G1X80089Y225385D2*
G1X80141Y225385D1*
G1X79140Y222645D3*
G1X80321Y223894D2*
G1X80321Y224863D1*
G1X84005Y221633D2*
G1X81099Y222636D1*
G1X82674Y221646D1*
G1X81079Y220687D1*
G1X84005Y221633D1*
G1X82361Y221842D2*
G1X83398Y221842D1*
G1X81079Y220687D3*
G1X82261Y221069D2*
G1X82261Y221397D1*
G1X82261Y221905D2*
G1X82261Y222235D1*
G1X83442Y221451D2*
G1X83442Y221827D1*
G1X81886Y221654D2*
G1X84792Y220651D1*
G1X83217Y221641D1*
G1X84811Y222599D1*
G1X81886Y221654D1*
G1X84763Y220661D2*
G1X84776Y220661D1*
G1X82469Y221842D2*
G1X83552Y221842D1*
G1X81886Y221654D3*
G1X83067Y221246D2*
G1X83067Y222035D1*
G1X84248Y220838D2*
G1X84248Y220993D1*
G1X84248Y222261D2*
G1X84248Y222417D1*
G1X80559Y231146D2*
G1X79584Y228418D1*
G1X80559Y230003D1*
G1X81533Y228418D1*
G1X80559Y231146D1*
G1X79767Y228929D2*
G1X79898Y228929D1*
G1X81219Y228929D2*
G1X81351Y228929D1*
G1X80189Y230110D2*
G1X80929Y230110D1*
G1X79584Y228418D3*
G1X80765Y229666D2*
G1X80765Y230567D1*
G1X100000Y230220D2*
G1X99026Y227258D1*
G1X100000Y228842D1*
G1X100975Y227258D1*
G1X100000Y230220D1*
G1X99187Y227748D2*
G1X99327Y227748D1*
G1X100673Y227748D2*
G1X100813Y227748D1*
G1X99575Y228929D2*
G1X100425Y228929D1*
G1X99964Y230110D2*
G1X100037Y230110D1*
G1X99026Y227258D3*
G1X100207Y228506D2*
G1X100207Y229592D1*
G1X123222Y224512D2*
G1X122200Y221659D1*
G1X123201Y223227D1*
G1X124149Y221626D1*
G1X123222Y224512D1*
G1X122266Y221842D2*
G1X122317Y221842D1*
G1X124021Y221842D2*
G1X124079Y221842D1*
G1X122689Y223023D2*
G1X123071Y223023D1*
G1X123322Y223023D2*
G1X123700Y223023D1*
G1X123112Y224204D2*
G1X123321Y224204D1*
G1X122200Y221659D3*
G1X123381Y222922D2*
G1X123381Y224017D1*
G1X123188Y222440D2*
G1X124210Y225293D1*
G1X123209Y223725D1*
G1X122261Y225325D1*
G1X123188Y222440D1*
G1X123001Y223023D2*
G1X123397Y223023D1*
G1X122621Y224204D2*
G1X122925Y224204D1*
G1X123515Y224204D2*
G1X123820Y224204D1*
G1X122261Y225325D3*
G1X123443Y223151D2*
G1X123443Y224090D1*
G1X127095Y220714D2*
G1X124121Y221654D1*
G1X125717Y220698D1*
G1X124144Y219705D1*
G1X127095Y220714D1*
G1X125658Y220661D2*
G1X126939Y220661D1*
G1X124121Y221654D3*
G1X125302Y220101D2*
G1X125302Y220436D1*
G1X125302Y220947D2*
G1X125302Y221281D1*
G1X126483Y220505D2*
G1X126483Y220907D1*
G1X125936Y220701D2*
G1X128910Y219761D1*
G1X127314Y220717D1*
G1X128887Y221709D1*
G1X125936Y220701D1*
G1X126062Y220661D2*
G1X127407Y220661D1*
G1X125936Y220701D3*
G1X127117Y220327D2*
G1X127117Y221104D1*
G1X128298Y219954D2*
G1X128298Y220127D1*
G1X128298Y221338D2*
G1X128298Y221508D1*
G1X143562Y230220D2*
G1X142588Y227258D1*
G1X143562Y228842D1*
G1X144537Y227258D1*
G1X143562Y230220D1*
G1X142749Y227748D2*
G1X142889Y227748D1*
G1X144236Y227748D2*
G1X144376Y227748D1*
G1X143137Y228929D2*
G1X143987Y228929D1*
G1X143526Y230110D2*
G1X143599Y230110D1*
G1X142588Y227258D3*
G1X143769Y228506D2*
G1X143769Y229592D1*
G1X216243Y159130D2*
G1X216243Y165244D1*
G1X63728Y157137D2*
G1X62510Y160013D1*
G1X61293Y157137D1*
G1X62853Y157587D2*
G1X62510Y160013D1*
G1X62168Y157587D1*
G1X31796Y168448D2*
G1X34821Y165424D1*
G1X58910Y165424D1*
G1X62510Y161823D1*
G1X62510Y155849D1*
G1X36721Y197671D2*
G1X35397Y196751D1*
G1X36214Y196063D1*
G1X35397Y196751D2*
G1X36144Y196740D1*
G1X31796Y168448D2*
G1X31796Y193151D1*
G1X35397Y196751D1*
G1X37295Y196751D1*
G1X37507Y196540D1*
G1X56855Y179415D2*
G1X63013Y179415D1*
G1X63748Y178680D1*
G1X83249Y175230D2*
G1X83249Y196043D1*
G1X83543Y196827D1*
G1X83249Y175230D2*
G1X83249Y166931D1*
G1X86250Y163930D1*
G1X103238Y163930D1*
G1X105975Y161193D1*
G1X105975Y155791D1*
G1X125565Y171762D2*
G1X125565Y194954D1*
G1X126857Y196245D1*
G1X149051Y157062D2*
G1X147834Y159939D1*
G1X146617Y157062D1*
G1X148176Y157513D2*
G1X147834Y159939D1*
G1X147492Y157513D1*
G1X125565Y171762D2*
G1X125565Y166498D1*
G1X128374Y163690D1*
G1X146021Y163690D1*
G1X147834Y161877D1*
G1X147834Y155775D1*
G1X216243Y173118D2*
G1X216357Y173003D1*
G1X223488Y173003D1*
G1X227625Y177140D1*
G1X237618Y171849D2*
G1X237679Y171788D1*
G1X237679Y167101D1*
G1X52970Y189408D2*
G1X52970Y183300D1*
G1X56855Y179415D1*
G1X52970Y189408D2*
G1X58819Y195257D1*
G1X61782Y195257D1*
G1X62111Y194927D1*
G1X48981Y186243D2*
G1X48981Y194797D1*
G1X49111Y194927D1*
G1X56855Y186243D2*
G1X63437Y186243D1*
G1X63748Y186554D1*
G1X93351Y189004D2*
G1X93351Y197056D1*
G1X94131Y197837D1*
G1X107808Y180974D2*
G1X108134Y181300D1*
G1X97248Y185901D2*
G1X97248Y192834D1*
G1X102112Y197698D1*
G1X106992Y197698D1*
G1X107131Y197837D1*
G1X97248Y185901D2*
G1X101419Y181730D1*
G1X101225Y189004D2*
G1X107963Y189004D1*
G1X108134Y189174D1*
G1X101419Y181730D2*
G1X107052Y181730D1*
G1X107808Y180974D1*
G1X141765Y191955D2*
G1X141765Y185318D1*
G1X145699Y181384D1*
G1X141765Y191955D2*
G1X147373Y197563D1*
G1X151425Y197563D1*
G1X151812Y197950D1*
G1X137871Y189186D2*
G1X137871Y197009D1*
G1X138812Y197950D1*
G1X145745Y189186D2*
G1X152121Y189186D1*
G1X152478Y189543D1*
G1X145699Y181384D2*
G1X152478Y181384D1*
G1X152478Y181669D1*
G1X152782Y181365D1*
G1X152782Y177705D1*
G1X156825Y173662D1*
G1X221459Y199121D2*
G1X221459Y205725D1*
G1X221833Y205725D1*
G1X221210Y193016D2*
G1X221210Y199121D1*
G1X221459Y199121D1*
G1X221210Y193016D2*
G1X214917Y192580D1*
G1X214793Y199869D1*
G1X200533Y213109D2*
G1X193315Y212482D1*
G1X186411Y212586D1*
G1X179820Y212900D2*
G1X179820Y207252D1*
G1X179982Y206372D1*
G1X179820Y212900D2*
G1X186411Y212586D1*
G1X186573Y206058D2*
G1X193477Y205953D1*
G1X194016Y198886D1*
G1X200967Y198779D2*
G1X200695Y206581D1*
G1X200533Y213109D1*
G1X214606Y206972D2*
G1X214606Y199869D1*
G1X214793Y199869D1*
G1X33823Y230941D2*
G1X39136Y234825D1*
G1X49007Y234825D1*
G1X53140Y238406D2*
G1X53140Y245355D1*
G1X58768Y250983D1*
G1X62709Y250983D1*
G1X63042Y250650D1*
G1X53140Y238406D2*
G1X56881Y234825D1*
G1X56153Y226283D2*
G1X56153Y234097D1*
G1X56881Y234825D1*
G1X63749Y234825D1*
G1X63779Y234795D1*
G1X80559Y232917D2*
G1X82794Y235308D1*
G1X93998Y235308D1*
G1X80559Y232917D2*
G1X80559Y227444D1*
G1X80115Y221671D2*
G1X80115Y227232D1*
G1X80559Y227676D1*
G1X80115Y221671D2*
G1X85776Y221615D1*
G1X80559Y227444D2*
G1X80559Y232917D1*
G1X100000Y226283D2*
G1X100000Y233436D1*
G1X101872Y235308D1*
G1X108553Y235308D1*
G1X108688Y235443D1*
G1X123252Y231365D2*
G1X127100Y235213D1*
G1X136879Y235213D1*
G1X123252Y226283D2*
G1X123158Y220668D1*
G1X129873Y220747D1*
G1X143562Y226283D2*
G1X143562Y234022D1*
G1X144753Y235213D1*
G1X151817Y235213D1*
G1X151828Y235202D1*
G1X49112Y242441D2*
G1X50042Y242441D1*
G1X50042Y250650D1*
G1X56986Y242441D2*
G1X63551Y242441D1*
G1X63779Y242669D1*
G1X93707Y242949D2*
G1X94430Y242949D1*
G1X94430Y251544D1*
G1X97660Y244993D2*
G1X97660Y246486D1*
G1X102434Y251260D1*
G1X107145Y251260D1*
G1X107430Y251544D1*
G1X97660Y244993D2*
G1X97660Y239519D1*
G1X101872Y235308D1*
G1X101581Y242949D2*
G1X108320Y242949D1*
G1X108688Y243317D1*
G1X140813Y246161D2*
G1X140813Y239154D1*
G1X144753Y235213D1*
G1X140813Y246161D2*
G1X146038Y251386D1*
G1X150186Y251386D1*
G1X150648Y251849D1*
G1X136971Y242503D2*
G1X136971Y251171D1*
G1X137648Y251849D1*
G1X144845Y242503D2*
G1X151254Y242503D1*
G1X151828Y243076D1*
G1X77096Y296003D2*
G54D59*
G1X77096Y220711D1*
G1X78973Y218834D1*
G1X87592Y218834D1*
G1X89517Y220759D1*
G1X89517Y272839D1*
G1X100840Y284162D1*
G1X100840Y300793D1*
G1X99644Y301990D1*
G1X77932Y301990D1*
G1X77138Y301196D1*
G1X77138Y296003D1*
G1X77096Y296003D1*
G1X120767Y225984D2*
G1X120767Y274931D1*
G1X113507Y282191D1*
G1X113507Y297016D1*
G1X118251Y301761D1*
G1X139575Y301761D1*
G1X144231Y297104D1*
G1X144231Y277273D1*
G1X131775Y264817D1*
G1X131775Y219935D1*
G1X129908Y218068D1*
G1X122621Y218068D1*
G1X120776Y219913D1*
G1X120776Y225984D1*
G1X120767Y225984D1*
G1X43789Y224299D2*
G1X43789Y274706D1*
G1X48319Y279237D1*
G1X65160Y279237D1*
G1X69165Y283242D1*
G1X69165Y299394D1*
G1X65667Y302892D1*
G1X51122Y302892D1*
G1X30785Y282555D1*
G1X30785Y219277D1*
G1X32083Y217979D1*
G1X43088Y217979D1*
G1X43864Y218755D1*
G1X43864Y224299D1*
G1X43789Y224299D1*
G1X175361Y231206D2*
G1X265646Y231206D1*
G1X271130Y225722D1*
G1X271130Y210587D1*
G1X265848Y205305D1*
G1X245326Y205305D1*
G1X227878Y187857D1*
G1X186059Y187857D1*
G1X168488Y205428D1*
G1X168488Y229128D1*
G1X170794Y231434D1*
G1X175361Y231434D1*
G1X175361Y231206D1*
G1X77138Y300683D2*
G1X100840Y300683D1*
G1X77138Y300328D2*
G1X100840Y300328D1*
G1X77138Y299974D2*
G1X100840Y299974D1*
G1X77138Y299620D2*
G1X100840Y299620D1*
G1X77138Y299265D2*
G1X100840Y299265D1*
G1X77138Y298911D2*
G1X100840Y298911D1*
G1X77138Y298557D2*
G1X100840Y298557D1*
G1X77138Y298202D2*
G1X100840Y298202D1*
G1X77138Y297848D2*
G1X100840Y297848D1*
G1X77138Y297494D2*
G1X100840Y297494D1*
G1X77138Y297139D2*
G1X100840Y297139D1*
G1X77138Y296785D2*
G1X100840Y296785D1*
G1X77138Y296431D2*
G1X100840Y296431D1*
G1X77138Y296076D2*
G1X100840Y296076D1*
G1X77096Y295722D2*
G1X100840Y295722D1*
G1X77096Y295368D2*
G1X100840Y295368D1*
G1X77096Y295013D2*
G1X100840Y295013D1*
G1X77096Y294659D2*
G1X100840Y294659D1*
G1X77096Y294305D2*
G1X100840Y294305D1*
G1X77096Y293950D2*
G1X100840Y293950D1*
G1X77096Y293596D2*
G1X100840Y293596D1*
G1X77096Y293242D2*
G1X100840Y293242D1*
G1X77096Y292887D2*
G1X100840Y292887D1*
G1X77096Y292533D2*
G1X100840Y292533D1*
G1X77096Y292179D2*
G1X100840Y292179D1*
G1X77096Y291824D2*
G1X100840Y291824D1*
G1X77096Y291470D2*
G1X100840Y291470D1*
G1X77096Y291116D2*
G1X100840Y291116D1*
G1X77096Y290761D2*
G1X100840Y290761D1*
G1X77096Y290407D2*
G1X100840Y290407D1*
G1X77096Y290053D2*
G1X100840Y290053D1*
G1X77096Y289698D2*
G1X100840Y289698D1*
G1X77096Y289344D2*
G1X100840Y289344D1*
G1X77096Y288990D2*
G1X100840Y288990D1*
G1X77096Y288635D2*
G1X100840Y288635D1*
G1X77096Y288281D2*
G1X100840Y288281D1*
G1X77096Y287927D2*
G1X100840Y287927D1*
G1X77096Y287572D2*
G1X100840Y287572D1*
G1X77096Y287218D2*
G1X100840Y287218D1*
G1X77096Y286864D2*
G1X100840Y286864D1*
G1X77096Y286509D2*
G1X100840Y286509D1*
G1X77096Y286155D2*
G1X100840Y286155D1*
G1X77096Y285801D2*
G1X100840Y285801D1*
G1X77096Y285446D2*
G1X100840Y285446D1*
G1X77096Y285092D2*
G1X100840Y285092D1*
G1X77096Y284738D2*
G1X100840Y284738D1*
G1X77096Y284383D2*
G1X100840Y284383D1*
G1X77096Y284029D2*
G1X100707Y284029D1*
G1X77138Y301037D2*
G1X100596Y301037D1*
G1X77096Y283675D2*
G1X100353Y283675D1*
G1X77333Y301391D2*
G1X100242Y301391D1*
G1X77096Y283320D2*
G1X99999Y283320D1*
G1X77687Y301746D2*
G1X99888Y301746D1*
G1X77096Y282966D2*
G1X99644Y282966D1*
G1X77096Y282612D2*
G1X99290Y282612D1*
G1X77096Y282257D2*
G1X98936Y282257D1*
G1X77096Y281903D2*
G1X98581Y281903D1*
G1X77096Y281549D2*
G1X98227Y281549D1*
G1X77096Y281194D2*
G1X97873Y281194D1*
G1X77096Y280840D2*
G1X97518Y280840D1*
G1X77096Y280486D2*
G1X97164Y280486D1*
G1X77096Y280131D2*
G1X96810Y280131D1*
G1X77096Y279777D2*
G1X96455Y279777D1*
G1X77096Y279423D2*
G1X96101Y279423D1*
G1X77096Y279068D2*
G1X95747Y279068D1*
G1X77096Y278714D2*
G1X95392Y278714D1*
G1X77096Y278360D2*
G1X95038Y278360D1*
G1X77096Y278005D2*
G1X94684Y278005D1*
G1X77096Y277651D2*
G1X94329Y277651D1*
G1X77096Y277297D2*
G1X93975Y277297D1*
G1X77096Y276943D2*
G1X93621Y276943D1*
G1X77096Y276588D2*
G1X93266Y276588D1*
G1X77096Y276234D2*
G1X92912Y276234D1*
G1X77096Y275880D2*
G1X92558Y275880D1*
G1X77096Y275525D2*
G1X92203Y275525D1*
G1X77096Y275171D2*
G1X91849Y275171D1*
G1X77096Y274817D2*
G1X91495Y274817D1*
G1X77096Y274462D2*
G1X91140Y274462D1*
G1X77096Y274108D2*
G1X90786Y274108D1*
G1X77096Y273754D2*
G1X90432Y273754D1*
G1X77096Y273399D2*
G1X90077Y273399D1*
G1X77096Y273045D2*
G1X89723Y273045D1*
G1X77096Y272691D2*
G1X89517Y272691D1*
G1X77096Y272336D2*
G1X89517Y272336D1*
G1X77096Y271982D2*
G1X89517Y271982D1*
G1X77096Y271628D2*
G1X89517Y271628D1*
G1X77096Y271273D2*
G1X89517Y271273D1*
G1X77096Y270919D2*
G1X89517Y270919D1*
G1X77096Y270565D2*
G1X89517Y270565D1*
G1X77096Y270210D2*
G1X89517Y270210D1*
G1X77096Y269856D2*
G1X89517Y269856D1*
G1X77096Y269502D2*
G1X89517Y269502D1*
G1X77096Y269147D2*
G1X89517Y269147D1*
G1X77096Y268793D2*
G1X89517Y268793D1*
G1X77096Y268439D2*
G1X89517Y268439D1*
G1X77096Y268084D2*
G1X89517Y268084D1*
G1X77096Y267730D2*
G1X89517Y267730D1*
G1X77096Y267376D2*
G1X89517Y267376D1*
G1X77096Y267021D2*
G1X89517Y267021D1*
G1X77096Y266667D2*
G1X89517Y266667D1*
G1X77096Y266313D2*
G1X89517Y266313D1*
G1X77096Y265958D2*
G1X89517Y265958D1*
G1X77096Y265604D2*
G1X89517Y265604D1*
G1X77096Y265250D2*
G1X89517Y265250D1*
G1X77096Y264895D2*
G1X89517Y264895D1*
G1X77096Y264541D2*
G1X89517Y264541D1*
G1X77096Y264187D2*
G1X89517Y264187D1*
G1X77096Y263832D2*
G1X89517Y263832D1*
G1X77096Y263478D2*
G1X89517Y263478D1*
G1X77096Y263124D2*
G1X89517Y263124D1*
G1X77096Y262769D2*
G1X89517Y262769D1*
G1X77096Y262415D2*
G1X89517Y262415D1*
G1X77096Y262061D2*
G1X89517Y262061D1*
G1X77096Y261706D2*
G1X89517Y261706D1*
G1X77096Y261352D2*
G1X89517Y261352D1*
G1X77096Y260998D2*
G1X89517Y260998D1*
G1X77096Y260643D2*
G1X89517Y260643D1*
G1X77096Y260289D2*
G1X89517Y260289D1*
G1X77096Y259935D2*
G1X89517Y259935D1*
G1X77096Y259580D2*
G1X89517Y259580D1*
G1X77096Y259226D2*
G1X89517Y259226D1*
G1X77096Y258872D2*
G1X89517Y258872D1*
G1X77096Y258517D2*
G1X89517Y258517D1*
G1X77096Y258163D2*
G1X89517Y258163D1*
G1X77096Y257809D2*
G1X89517Y257809D1*
G1X77096Y257454D2*
G1X89517Y257454D1*
G1X77096Y257100D2*
G1X89517Y257100D1*
G1X77096Y256746D2*
G1X89517Y256746D1*
G1X77096Y256391D2*
G1X89517Y256391D1*
G1X77096Y256037D2*
G1X89517Y256037D1*
G1X77096Y255683D2*
G1X89517Y255683D1*
G1X77096Y255328D2*
G1X89517Y255328D1*
G1X77096Y254974D2*
G1X89517Y254974D1*
G1X77096Y254620D2*
G1X89517Y254620D1*
G1X77096Y254265D2*
G1X89517Y254265D1*
G1X77096Y253911D2*
G1X89517Y253911D1*
G1X77096Y253557D2*
G1X89517Y253557D1*
G1X77096Y253202D2*
G1X89517Y253202D1*
G1X77096Y252848D2*
G1X89517Y252848D1*
G1X77096Y252494D2*
G1X89517Y252494D1*
G1X77096Y252139D2*
G1X89517Y252139D1*
G1X77096Y251785D2*
G1X89517Y251785D1*
G1X77096Y251431D2*
G1X89517Y251431D1*
G1X77096Y251076D2*
G1X89517Y251076D1*
G1X77096Y250722D2*
G1X89517Y250722D1*
G1X77096Y250368D2*
G1X89517Y250368D1*
G1X77096Y250013D2*
G1X89517Y250013D1*
G1X77096Y249659D2*
G1X89517Y249659D1*
G1X77096Y249305D2*
G1X89517Y249305D1*
G1X77096Y248950D2*
G1X89517Y248950D1*
G1X77096Y248596D2*
G1X89517Y248596D1*
G1X77096Y248242D2*
G1X89517Y248242D1*
G1X77096Y247887D2*
G1X89517Y247887D1*
G1X77096Y247533D2*
G1X89517Y247533D1*
G1X77096Y247179D2*
G1X89517Y247179D1*
G1X77096Y246824D2*
G1X89517Y246824D1*
G1X77096Y246470D2*
G1X89517Y246470D1*
G1X77096Y246116D2*
G1X89517Y246116D1*
G1X77096Y245761D2*
G1X89517Y245761D1*
G1X77096Y245407D2*
G1X89517Y245407D1*
G1X77096Y245053D2*
G1X89517Y245053D1*
G1X77096Y244698D2*
G1X89517Y244698D1*
G1X77096Y244344D2*
G1X89517Y244344D1*
G1X77096Y243990D2*
G1X89517Y243990D1*
G1X77096Y243635D2*
G1X89517Y243635D1*
G1X77096Y243281D2*
G1X89517Y243281D1*
G1X77096Y242927D2*
G1X89517Y242927D1*
G1X77096Y242572D2*
G1X89517Y242572D1*
G1X77096Y242218D2*
G1X89517Y242218D1*
G1X77096Y241864D2*
G1X89517Y241864D1*
G1X77096Y241509D2*
G1X89517Y241509D1*
G1X77096Y241155D2*
G1X89517Y241155D1*
G1X77096Y240801D2*
G1X89517Y240801D1*
G1X77096Y240446D2*
G1X89517Y240446D1*
G1X77096Y240092D2*
G1X89517Y240092D1*
G1X77096Y239738D2*
G1X89517Y239738D1*
G1X77096Y239383D2*
G1X89517Y239383D1*
G1X77096Y239029D2*
G1X89517Y239029D1*
G1X77096Y238675D2*
G1X89517Y238675D1*
G1X77096Y238320D2*
G1X89517Y238320D1*
G1X77096Y237966D2*
G1X89517Y237966D1*
G1X77096Y237612D2*
G1X89517Y237612D1*
G1X77096Y237257D2*
G1X89517Y237257D1*
G1X77096Y236903D2*
G1X89517Y236903D1*
G1X77096Y236549D2*
G1X89517Y236549D1*
G1X77096Y236194D2*
G1X89517Y236194D1*
G1X77096Y235840D2*
G1X89517Y235840D1*
G1X77096Y235486D2*
G1X89517Y235486D1*
G1X77096Y235131D2*
G1X89517Y235131D1*
G1X77096Y234777D2*
G1X89517Y234777D1*
G1X77096Y234423D2*
G1X89517Y234423D1*
G1X77096Y234068D2*
G1X89517Y234068D1*
G1X77096Y233714D2*
G1X89517Y233714D1*
G1X77096Y233360D2*
G1X89517Y233360D1*
G1X77096Y233005D2*
G1X89517Y233005D1*
G1X77096Y232651D2*
G1X89517Y232651D1*
G1X77096Y232297D2*
G1X89517Y232297D1*
G1X77096Y231943D2*
G1X89517Y231943D1*
G1X77096Y231588D2*
G1X89517Y231588D1*
G1X77096Y231234D2*
G1X89517Y231234D1*
G1X77096Y230880D2*
G1X89517Y230880D1*
G1X77096Y230525D2*
G1X89517Y230525D1*
G1X77096Y230171D2*
G1X89517Y230171D1*
G1X77096Y229817D2*
G1X89517Y229817D1*
G1X77096Y229462D2*
G1X89517Y229462D1*
G1X77096Y229108D2*
G1X89517Y229108D1*
G1X77096Y228754D2*
G1X89517Y228754D1*
G1X77096Y228399D2*
G1X89517Y228399D1*
G1X77096Y228045D2*
G1X89517Y228045D1*
G1X77096Y227691D2*
G1X89517Y227691D1*
G1X77096Y227336D2*
G1X89517Y227336D1*
G1X77096Y226982D2*
G1X89517Y226982D1*
G1X77096Y226628D2*
G1X89517Y226628D1*
G1X77096Y226273D2*
G1X89517Y226273D1*
G1X77096Y225919D2*
G1X89517Y225919D1*
G1X77096Y225565D2*
G1X89517Y225565D1*
G1X77096Y225210D2*
G1X89517Y225210D1*
G1X77096Y224856D2*
G1X89517Y224856D1*
G1X77096Y224502D2*
G1X89517Y224502D1*
G1X77096Y224147D2*
G1X89517Y224147D1*
G1X77096Y223793D2*
G1X89517Y223793D1*
G1X77096Y223439D2*
G1X89517Y223439D1*
G1X77096Y223084D2*
G1X89517Y223084D1*
G1X77096Y222730D2*
G1X89517Y222730D1*
G1X77096Y222376D2*
G1X89517Y222376D1*
G1X77096Y222021D2*
G1X89517Y222021D1*
G1X77096Y221667D2*
G1X89517Y221667D1*
G1X77096Y221313D2*
G1X89517Y221313D1*
G1X77096Y220958D2*
G1X89517Y220958D1*
G1X77203Y220604D2*
G1X89362Y220604D1*
G1X77557Y220250D2*
G1X89008Y220250D1*
G1X77911Y219895D2*
G1X88653Y219895D1*
G1X78266Y219541D2*
G1X88299Y219541D1*
G1X78620Y219187D2*
G1X87945Y219187D1*
G1X113573Y297083D2*
G1X144231Y297083D1*
G1X113507Y296728D2*
G1X144231Y296728D1*
G1X113507Y296374D2*
G1X144231Y296374D1*
G1X113507Y296020D2*
G1X144231Y296020D1*
G1X113507Y295665D2*
G1X144231Y295665D1*
G1X113507Y295311D2*
G1X144231Y295311D1*
G1X113507Y294957D2*
G1X144231Y294957D1*
G1X113507Y294602D2*
G1X144231Y294602D1*
G1X113507Y294248D2*
G1X144231Y294248D1*
G1X113507Y293894D2*
G1X144231Y293894D1*
G1X113507Y293539D2*
G1X144231Y293539D1*
G1X113507Y293185D2*
G1X144231Y293185D1*
G1X113507Y292831D2*
G1X144231Y292831D1*
G1X113507Y292476D2*
G1X144231Y292476D1*
G1X113507Y292122D2*
G1X144231Y292122D1*
G1X113507Y291768D2*
G1X144231Y291768D1*
G1X113507Y291413D2*
G1X144231Y291413D1*
G1X113507Y291059D2*
G1X144231Y291059D1*
G1X113507Y290705D2*
G1X144231Y290705D1*
G1X113507Y290350D2*
G1X144231Y290350D1*
G1X113507Y289996D2*
G1X144231Y289996D1*
G1X113507Y289642D2*
G1X144231Y289642D1*
G1X113507Y289287D2*
G1X144231Y289287D1*
G1X113507Y288933D2*
G1X144231Y288933D1*
G1X113507Y288579D2*
G1X144231Y288579D1*
G1X113507Y288224D2*
G1X144231Y288224D1*
G1X113507Y287870D2*
G1X144231Y287870D1*
G1X113507Y287516D2*
G1X144231Y287516D1*
G1X113507Y287161D2*
G1X144231Y287161D1*
G1X113507Y286807D2*
G1X144231Y286807D1*
G1X113507Y286453D2*
G1X144231Y286453D1*
G1X113507Y286098D2*
G1X144231Y286098D1*
G1X113507Y285744D2*
G1X144231Y285744D1*
G1X113507Y285390D2*
G1X144231Y285390D1*
G1X113507Y285035D2*
G1X144231Y285035D1*
G1X113507Y284681D2*
G1X144231Y284681D1*
G1X113507Y284327D2*
G1X144231Y284327D1*
G1X113507Y283972D2*
G1X144231Y283972D1*
G1X113507Y283618D2*
G1X144231Y283618D1*
G1X113507Y283264D2*
G1X144231Y283264D1*
G1X113507Y282909D2*
G1X144231Y282909D1*
G1X113507Y282555D2*
G1X144231Y282555D1*
G1X113507Y282201D2*
G1X144231Y282201D1*
G1X113852Y281846D2*
G1X144231Y281846D1*
G1X114206Y281492D2*
G1X144231Y281492D1*
G1X114560Y281138D2*
G1X144231Y281138D1*
G1X114915Y280783D2*
G1X144231Y280783D1*
G1X115269Y280429D2*
G1X144231Y280429D1*
G1X115623Y280075D2*
G1X144231Y280075D1*
G1X115978Y279720D2*
G1X144231Y279720D1*
G1X116332Y279366D2*
G1X144231Y279366D1*
G1X116686Y279012D2*
G1X144231Y279012D1*
G1X117041Y278657D2*
G1X144231Y278657D1*
G1X117395Y278303D2*
G1X144231Y278303D1*
G1X117749Y277949D2*
G1X144231Y277949D1*
G1X118104Y277594D2*
G1X144231Y277594D1*
G1X118458Y277240D2*
G1X144198Y277240D1*
G1X113927Y297437D2*
G1X143898Y297437D1*
G1X118812Y276886D2*
G1X143844Y276886D1*
G1X114282Y297791D2*
G1X143544Y297791D1*
G1X119167Y276531D2*
G1X143489Y276531D1*
G1X114636Y298146D2*
G1X143190Y298146D1*
G1X119521Y276177D2*
G1X143135Y276177D1*
G1X114990Y298500D2*
G1X142835Y298500D1*
G1X119875Y275823D2*
G1X142781Y275823D1*
G1X115345Y298854D2*
G1X142481Y298854D1*
G1X120230Y275468D2*
G1X142426Y275468D1*
G1X115699Y299209D2*
G1X142127Y299209D1*
G1X120584Y275114D2*
G1X142072Y275114D1*
G1X116053Y299563D2*
G1X141772Y299563D1*
G1X120767Y274760D2*
G1X141718Y274760D1*
G1X116408Y299917D2*
G1X141418Y299917D1*
G1X120767Y274405D2*
G1X141363Y274405D1*
G1X116762Y300272D2*
G1X141064Y300272D1*
G1X120767Y274051D2*
G1X141009Y274051D1*
G1X117116Y300626D2*
G1X140709Y300626D1*
G1X120767Y273697D2*
G1X140655Y273697D1*
G1X117470Y300980D2*
G1X140355Y300980D1*
G1X120767Y273342D2*
G1X140300Y273342D1*
G1X117825Y301335D2*
G1X140001Y301335D1*
G1X120767Y272988D2*
G1X139946Y272988D1*
G1X118179Y301689D2*
G1X139646Y301689D1*
G1X120767Y272634D2*
G1X139592Y272634D1*
G1X120767Y272279D2*
G1X139237Y272279D1*
G1X120767Y271925D2*
G1X138883Y271925D1*
G1X120767Y271571D2*
G1X138529Y271571D1*
G1X120767Y271216D2*
G1X138174Y271216D1*
G1X120767Y270862D2*
G1X137820Y270862D1*
G1X120767Y270508D2*
G1X137466Y270508D1*
G1X120767Y270153D2*
G1X137111Y270153D1*
G1X120767Y269799D2*
G1X136757Y269799D1*
G1X120767Y269445D2*
G1X136403Y269445D1*
G1X120767Y269091D2*
G1X136048Y269091D1*
G1X120767Y268736D2*
G1X135694Y268736D1*
G1X120767Y268382D2*
G1X135340Y268382D1*
G1X120767Y268028D2*
G1X134985Y268028D1*
G1X120767Y267673D2*
G1X134631Y267673D1*
G1X120767Y267319D2*
G1X134277Y267319D1*
G1X120767Y266965D2*
G1X133922Y266965D1*
G1X120767Y266610D2*
G1X133568Y266610D1*
G1X120767Y266256D2*
G1X133214Y266256D1*
G1X120767Y265902D2*
G1X132859Y265902D1*
G1X120767Y265547D2*
G1X132505Y265547D1*
G1X120767Y265193D2*
G1X132151Y265193D1*
G1X120767Y264839D2*
G1X131796Y264839D1*
G1X120767Y264484D2*
G1X131775Y264484D1*
G1X120767Y264130D2*
G1X131775Y264130D1*
G1X120767Y263776D2*
G1X131775Y263776D1*
G1X120767Y263421D2*
G1X131775Y263421D1*
G1X120767Y263067D2*
G1X131775Y263067D1*
G1X120767Y262713D2*
G1X131775Y262713D1*
G1X120767Y262358D2*
G1X131775Y262358D1*
G1X120767Y262004D2*
G1X131775Y262004D1*
G1X120767Y261650D2*
G1X131775Y261650D1*
G1X120767Y261295D2*
G1X131775Y261295D1*
G1X120767Y260941D2*
G1X131775Y260941D1*
G1X120767Y260587D2*
G1X131775Y260587D1*
G1X120767Y260232D2*
G1X131775Y260232D1*
G1X120767Y259878D2*
G1X131775Y259878D1*
G1X120767Y259524D2*
G1X131775Y259524D1*
G1X120767Y259169D2*
G1X131775Y259169D1*
G1X120767Y258815D2*
G1X131775Y258815D1*
G1X120767Y258461D2*
G1X131775Y258461D1*
G1X120767Y258106D2*
G1X131775Y258106D1*
G1X120767Y257752D2*
G1X131775Y257752D1*
G1X120767Y257398D2*
G1X131775Y257398D1*
G1X120767Y257043D2*
G1X131775Y257043D1*
G1X120767Y256689D2*
G1X131775Y256689D1*
G1X120767Y256335D2*
G1X131775Y256335D1*
G1X120767Y255980D2*
G1X131775Y255980D1*
G1X120767Y255626D2*
G1X131775Y255626D1*
G1X120767Y255272D2*
G1X131775Y255272D1*
G1X120767Y254917D2*
G1X131775Y254917D1*
G1X120767Y254563D2*
G1X131775Y254563D1*
G1X120767Y254209D2*
G1X131775Y254209D1*
G1X120767Y253854D2*
G1X131775Y253854D1*
G1X120767Y253500D2*
G1X131775Y253500D1*
G1X120767Y253146D2*
G1X131775Y253146D1*
G1X120767Y252791D2*
G1X131775Y252791D1*
G1X120767Y252437D2*
G1X131775Y252437D1*
G1X120767Y252083D2*
G1X131775Y252083D1*
G1X120767Y251728D2*
G1X131775Y251728D1*
G1X120767Y251374D2*
G1X131775Y251374D1*
G1X120767Y251020D2*
G1X131775Y251020D1*
G1X120767Y250665D2*
G1X131775Y250665D1*
G1X120767Y250311D2*
G1X131775Y250311D1*
G1X120767Y249957D2*
G1X131775Y249957D1*
G1X120767Y249602D2*
G1X131775Y249602D1*
G1X120767Y249248D2*
G1X131775Y249248D1*
G1X120767Y248894D2*
G1X131775Y248894D1*
G1X120767Y248539D2*
G1X131775Y248539D1*
G1X120767Y248185D2*
G1X131775Y248185D1*
G1X120767Y247831D2*
G1X131775Y247831D1*
G1X120767Y247476D2*
G1X131775Y247476D1*
G1X120767Y247122D2*
G1X131775Y247122D1*
G1X120767Y246768D2*
G1X131775Y246768D1*
G1X120767Y246413D2*
G1X131775Y246413D1*
G1X120767Y246059D2*
G1X131775Y246059D1*
G1X120767Y245705D2*
G1X131775Y245705D1*
G1X120767Y245350D2*
G1X131775Y245350D1*
G1X120767Y244996D2*
G1X131775Y244996D1*
G1X120767Y244642D2*
G1X131775Y244642D1*
G1X120767Y244287D2*
G1X131775Y244287D1*
G1X120767Y243933D2*
G1X131775Y243933D1*
G1X120767Y243579D2*
G1X131775Y243579D1*
G1X120767Y243224D2*
G1X131775Y243224D1*
G1X120767Y242870D2*
G1X131775Y242870D1*
G1X120767Y242516D2*
G1X131775Y242516D1*
G1X120767Y242161D2*
G1X131775Y242161D1*
G1X120767Y241807D2*
G1X131775Y241807D1*
G1X120767Y241453D2*
G1X131775Y241453D1*
G1X120767Y241098D2*
G1X131775Y241098D1*
G1X120767Y240744D2*
G1X131775Y240744D1*
G1X120767Y240390D2*
G1X131775Y240390D1*
G1X120767Y240035D2*
G1X131775Y240035D1*
G1X120767Y239681D2*
G1X131775Y239681D1*
G1X120767Y239327D2*
G1X131775Y239327D1*
G1X120767Y238972D2*
G1X131775Y238972D1*
G1X120767Y238618D2*
G1X131775Y238618D1*
G1X120767Y238264D2*
G1X131775Y238264D1*
G1X120767Y237909D2*
G1X131775Y237909D1*
G1X120767Y237555D2*
G1X131775Y237555D1*
G1X120767Y237201D2*
G1X131775Y237201D1*
G1X120767Y236846D2*
G1X131775Y236846D1*
G1X120767Y236492D2*
G1X131775Y236492D1*
G1X120767Y236138D2*
G1X131775Y236138D1*
G1X120767Y235783D2*
G1X131775Y235783D1*
G1X120767Y235429D2*
G1X131775Y235429D1*
G1X120767Y235075D2*
G1X131775Y235075D1*
G1X120767Y234720D2*
G1X131775Y234720D1*
G1X120767Y234366D2*
G1X131775Y234366D1*
G1X120767Y234012D2*
G1X131775Y234012D1*
G1X120767Y233657D2*
G1X131775Y233657D1*
G1X120767Y233303D2*
G1X131775Y233303D1*
G1X120767Y232949D2*
G1X131775Y232949D1*
G1X120767Y232594D2*
G1X131775Y232594D1*
G1X120767Y232240D2*
G1X131775Y232240D1*
G1X120767Y231886D2*
G1X131775Y231886D1*
G1X120767Y231531D2*
G1X131775Y231531D1*
G1X120767Y231177D2*
G1X131775Y231177D1*
G1X120767Y230823D2*
G1X131775Y230823D1*
G1X120767Y230468D2*
G1X131775Y230468D1*
G1X120767Y230114D2*
G1X131775Y230114D1*
G1X120767Y229760D2*
G1X131775Y229760D1*
G1X120767Y229405D2*
G1X131775Y229405D1*
G1X120767Y229051D2*
G1X131775Y229051D1*
G1X120767Y228697D2*
G1X131775Y228697D1*
G1X120767Y228342D2*
G1X131775Y228342D1*
G1X120767Y227988D2*
G1X131775Y227988D1*
G1X120767Y227634D2*
G1X131775Y227634D1*
G1X120767Y227279D2*
G1X131775Y227279D1*
G1X120767Y226925D2*
G1X131775Y226925D1*
G1X120767Y226571D2*
G1X131775Y226571D1*
G1X120767Y226216D2*
G1X131775Y226216D1*
G1X120776Y225862D2*
G1X131775Y225862D1*
G1X120776Y225508D2*
G1X131775Y225508D1*
G1X120776Y225153D2*
G1X131775Y225153D1*
G1X120776Y224799D2*
G1X131775Y224799D1*
G1X120776Y224445D2*
G1X131775Y224445D1*
G1X120776Y224091D2*
G1X131775Y224091D1*
G1X120776Y223736D2*
G1X131775Y223736D1*
G1X120776Y223382D2*
G1X131775Y223382D1*
G1X120776Y223028D2*
G1X131775Y223028D1*
G1X120776Y222673D2*
G1X131775Y222673D1*
G1X120776Y222319D2*
G1X131775Y222319D1*
G1X120776Y221965D2*
G1X131775Y221965D1*
G1X120776Y221610D2*
G1X131775Y221610D1*
G1X120776Y221256D2*
G1X131775Y221256D1*
G1X120776Y220902D2*
G1X131775Y220902D1*
G1X120776Y220547D2*
G1X131775Y220547D1*
G1X120776Y220193D2*
G1X131775Y220193D1*
G1X120851Y219839D2*
G1X131679Y219839D1*
G1X121205Y219484D2*
G1X131324Y219484D1*
G1X121560Y219130D2*
G1X130970Y219130D1*
G1X121914Y218776D2*
G1X130616Y218776D1*
G1X122268Y218421D2*
G1X130261Y218421D1*
G1X47349Y299119D2*
G1X69165Y299119D1*
G1X46995Y298765D2*
G1X69165Y298765D1*
G1X46640Y298411D2*
G1X69165Y298411D1*
G1X46286Y298056D2*
G1X69165Y298056D1*
G1X45932Y297702D2*
G1X69165Y297702D1*
G1X45577Y297348D2*
G1X69165Y297348D1*
G1X45223Y296993D2*
G1X69165Y296993D1*
G1X44869Y296639D2*
G1X69165Y296639D1*
G1X44514Y296285D2*
G1X69165Y296285D1*
G1X44160Y295930D2*
G1X69165Y295930D1*
G1X43806Y295576D2*
G1X69165Y295576D1*
G1X43451Y295222D2*
G1X69165Y295222D1*
G1X43097Y294867D2*
G1X69165Y294867D1*
G1X42743Y294513D2*
G1X69165Y294513D1*
G1X42388Y294159D2*
G1X69165Y294159D1*
G1X42034Y293804D2*
G1X69165Y293804D1*
G1X41680Y293450D2*
G1X69165Y293450D1*
G1X41325Y293096D2*
G1X69165Y293096D1*
G1X40971Y292741D2*
G1X69165Y292741D1*
G1X40617Y292387D2*
G1X69165Y292387D1*
G1X40262Y292033D2*
G1X69165Y292033D1*
G1X39908Y291678D2*
G1X69165Y291678D1*
G1X39554Y291324D2*
G1X69165Y291324D1*
G1X39199Y290970D2*
G1X69165Y290970D1*
G1X38845Y290616D2*
G1X69165Y290616D1*
G1X38491Y290261D2*
G1X69165Y290261D1*
G1X38136Y289907D2*
G1X69165Y289907D1*
G1X37782Y289553D2*
G1X69165Y289553D1*
G1X37428Y289198D2*
G1X69165Y289198D1*
G1X37073Y288844D2*
G1X69165Y288844D1*
G1X36719Y288490D2*
G1X69165Y288490D1*
G1X36365Y288135D2*
G1X69165Y288135D1*
G1X36010Y287781D2*
G1X69165Y287781D1*
G1X35656Y287427D2*
G1X69165Y287427D1*
G1X35302Y287072D2*
G1X69165Y287072D1*
G1X34947Y286718D2*
G1X69165Y286718D1*
G1X34593Y286364D2*
G1X69165Y286364D1*
G1X34239Y286009D2*
G1X69165Y286009D1*
G1X33884Y285655D2*
G1X69165Y285655D1*
G1X33530Y285301D2*
G1X69165Y285301D1*
G1X33176Y284946D2*
G1X69165Y284946D1*
G1X32821Y284592D2*
G1X69165Y284592D1*
G1X32467Y284238D2*
G1X69165Y284238D1*
G1X32113Y283883D2*
G1X69165Y283883D1*
G1X31758Y283529D2*
G1X69165Y283529D1*
G1X31404Y283175D2*
G1X69098Y283175D1*
G1X47703Y299474D2*
G1X69086Y299474D1*
G1X31050Y282820D2*
G1X68743Y282820D1*
G1X48058Y299828D2*
G1X68731Y299828D1*
G1X30785Y282466D2*
G1X68389Y282466D1*
G1X48412Y300182D2*
G1X68377Y300182D1*
G1X30785Y282112D2*
G1X68035Y282112D1*
G1X48766Y300537D2*
G1X68023Y300537D1*
G1X30785Y281757D2*
G1X67680Y281757D1*
G1X49121Y300891D2*
G1X67668Y300891D1*
G1X30785Y281403D2*
G1X67326Y281403D1*
G1X49475Y301245D2*
G1X67314Y301245D1*
G1X30785Y281049D2*
G1X66972Y281049D1*
G1X49829Y301600D2*
G1X66960Y301600D1*
G1X30785Y280694D2*
G1X66617Y280694D1*
G1X50184Y301954D2*
G1X66605Y301954D1*
G1X30785Y280340D2*
G1X66263Y280340D1*
G1X50538Y302308D2*
G1X66251Y302308D1*
G1X30785Y279986D2*
G1X65909Y279986D1*
G1X50892Y302663D2*
G1X65897Y302663D1*
G1X30785Y279631D2*
G1X65554Y279631D1*
G1X30785Y279277D2*
G1X65200Y279277D1*
G1X30785Y278923D2*
G1X48005Y278923D1*
G1X30785Y278568D2*
G1X47650Y278568D1*
G1X30785Y278214D2*
G1X47296Y278214D1*
G1X30785Y277860D2*
G1X46942Y277860D1*
G1X30785Y277505D2*
G1X46587Y277505D1*
G1X30785Y277151D2*
G1X46233Y277151D1*
G1X30785Y276797D2*
G1X45879Y276797D1*
G1X30785Y276442D2*
G1X45524Y276442D1*
G1X30785Y276088D2*
G1X45170Y276088D1*
G1X30785Y275734D2*
G1X44816Y275734D1*
G1X30785Y275379D2*
G1X44461Y275379D1*
G1X30785Y275025D2*
G1X44107Y275025D1*
G1X30785Y224001D2*
G1X43864Y224001D1*
G1X30785Y223647D2*
G1X43864Y223647D1*
G1X30785Y223293D2*
G1X43864Y223293D1*
G1X30785Y222938D2*
G1X43864Y222938D1*
G1X30785Y222584D2*
G1X43864Y222584D1*
G1X30785Y222230D2*
G1X43864Y222230D1*
G1X30785Y221875D2*
G1X43864Y221875D1*
G1X30785Y221521D2*
G1X43864Y221521D1*
G1X30785Y221167D2*
G1X43864Y221167D1*
G1X30785Y220812D2*
G1X43864Y220812D1*
G1X30785Y220458D2*
G1X43864Y220458D1*
G1X30785Y220104D2*
G1X43864Y220104D1*
G1X30785Y219749D2*
G1X43864Y219749D1*
G1X30785Y219395D2*
G1X43864Y219395D1*
G1X31021Y219041D2*
G1X43864Y219041D1*
G1X31376Y218686D2*
G1X43795Y218686D1*
G1X30785Y274671D2*
G1X43789Y274671D1*
G1X30785Y274316D2*
G1X43789Y274316D1*
G1X30785Y273962D2*
G1X43789Y273962D1*
G1X30785Y273608D2*
G1X43789Y273608D1*
G1X30785Y273253D2*
G1X43789Y273253D1*
G1X30785Y272899D2*
G1X43789Y272899D1*
G1X30785Y272545D2*
G1X43789Y272545D1*
G1X30785Y272190D2*
G1X43789Y272190D1*
G1X30785Y271836D2*
G1X43789Y271836D1*
G1X30785Y271482D2*
G1X43789Y271482D1*
G1X30785Y271127D2*
G1X43789Y271127D1*
G1X30785Y270773D2*
G1X43789Y270773D1*
G1X30785Y270419D2*
G1X43789Y270419D1*
G1X30785Y270064D2*
G1X43789Y270064D1*
G1X30785Y269710D2*
G1X43789Y269710D1*
G1X30785Y269356D2*
G1X43789Y269356D1*
G1X30785Y269001D2*
G1X43789Y269001D1*
G1X30785Y268647D2*
G1X43789Y268647D1*
G1X30785Y268293D2*
G1X43789Y268293D1*
G1X30785Y267938D2*
G1X43789Y267938D1*
G1X30785Y267584D2*
G1X43789Y267584D1*
G1X30785Y267230D2*
G1X43789Y267230D1*
G1X30785Y266875D2*
G1X43789Y266875D1*
G1X30785Y266521D2*
G1X43789Y266521D1*
G1X30785Y266167D2*
G1X43789Y266167D1*
G1X30785Y265812D2*
G1X43789Y265812D1*
G1X30785Y265458D2*
G1X43789Y265458D1*
G1X30785Y265104D2*
G1X43789Y265104D1*
G1X30785Y264749D2*
G1X43789Y264749D1*
G1X30785Y264395D2*
G1X43789Y264395D1*
G1X30785Y264041D2*
G1X43789Y264041D1*
G1X30785Y263686D2*
G1X43789Y263686D1*
G1X30785Y263332D2*
G1X43789Y263332D1*
G1X30785Y262978D2*
G1X43789Y262978D1*
G1X30785Y262623D2*
G1X43789Y262623D1*
G1X30785Y262269D2*
G1X43789Y262269D1*
G1X30785Y261915D2*
G1X43789Y261915D1*
G1X30785Y261560D2*
G1X43789Y261560D1*
G1X30785Y261206D2*
G1X43789Y261206D1*
G1X30785Y260852D2*
G1X43789Y260852D1*
G1X30785Y260497D2*
G1X43789Y260497D1*
G1X30785Y260143D2*
G1X43789Y260143D1*
G1X30785Y259789D2*
G1X43789Y259789D1*
G1X30785Y259434D2*
G1X43789Y259434D1*
G1X30785Y259080D2*
G1X43789Y259080D1*
G1X30785Y258726D2*
G1X43789Y258726D1*
G1X30785Y258371D2*
G1X43789Y258371D1*
G1X30785Y258017D2*
G1X43789Y258017D1*
G1X30785Y257663D2*
G1X43789Y257663D1*
G1X30785Y257308D2*
G1X43789Y257308D1*
G1X30785Y256954D2*
G1X43789Y256954D1*
G1X30785Y256600D2*
G1X43789Y256600D1*
G1X30785Y256245D2*
G1X43789Y256245D1*
G1X30785Y255891D2*
G1X43789Y255891D1*
G1X30785Y255537D2*
G1X43789Y255537D1*
G1X30785Y255182D2*
G1X43789Y255182D1*
G1X30785Y254828D2*
G1X43789Y254828D1*
G1X30785Y254474D2*
G1X43789Y254474D1*
G1X30785Y254119D2*
G1X43789Y254119D1*
G1X30785Y253765D2*
G1X43789Y253765D1*
G1X30785Y253411D2*
G1X43789Y253411D1*
G1X30785Y253056D2*
G1X43789Y253056D1*
G1X30785Y252702D2*
G1X43789Y252702D1*
G1X30785Y252348D2*
G1X43789Y252348D1*
G1X30785Y251993D2*
G1X43789Y251993D1*
G1X30785Y251639D2*
G1X43789Y251639D1*
G1X30785Y251285D2*
G1X43789Y251285D1*
G1X30785Y250930D2*
G1X43789Y250930D1*
G1X30785Y250576D2*
G1X43789Y250576D1*
G1X30785Y250222D2*
G1X43789Y250222D1*
G1X30785Y249867D2*
G1X43789Y249867D1*
G1X30785Y249513D2*
G1X43789Y249513D1*
G1X30785Y249159D2*
G1X43789Y249159D1*
G1X30785Y248804D2*
G1X43789Y248804D1*
G1X30785Y248450D2*
G1X43789Y248450D1*
G1X30785Y248096D2*
G1X43789Y248096D1*
G1X30785Y247741D2*
G1X43789Y247741D1*
G1X30785Y247387D2*
G1X43789Y247387D1*
G1X30785Y247033D2*
G1X43789Y247033D1*
G1X30785Y246678D2*
G1X43789Y246678D1*
G1X30785Y246324D2*
G1X43789Y246324D1*
G1X30785Y245970D2*
G1X43789Y245970D1*
G1X30785Y245616D2*
G1X43789Y245616D1*
G1X30785Y245261D2*
G1X43789Y245261D1*
G1X30785Y244907D2*
G1X43789Y244907D1*
G1X30785Y244553D2*
G1X43789Y244553D1*
G1X30785Y244198D2*
G1X43789Y244198D1*
G1X30785Y243844D2*
G1X43789Y243844D1*
G1X30785Y243490D2*
G1X43789Y243490D1*
G1X30785Y243135D2*
G1X43789Y243135D1*
G1X30785Y242781D2*
G1X43789Y242781D1*
G1X30785Y242427D2*
G1X43789Y242427D1*
G1X30785Y242072D2*
G1X43789Y242072D1*
G1X30785Y241718D2*
G1X43789Y241718D1*
G1X30785Y241364D2*
G1X43789Y241364D1*
G1X30785Y241009D2*
G1X43789Y241009D1*
G1X30785Y240655D2*
G1X43789Y240655D1*
G1X30785Y240301D2*
G1X43789Y240301D1*
G1X30785Y239946D2*
G1X43789Y239946D1*
G1X30785Y239592D2*
G1X43789Y239592D1*
G1X30785Y239238D2*
G1X43789Y239238D1*
G1X30785Y238883D2*
G1X43789Y238883D1*
G1X30785Y238529D2*
G1X43789Y238529D1*
G1X30785Y238175D2*
G1X43789Y238175D1*
G1X30785Y237820D2*
G1X43789Y237820D1*
G1X30785Y237466D2*
G1X43789Y237466D1*
G1X30785Y237112D2*
G1X43789Y237112D1*
G1X30785Y236757D2*
G1X43789Y236757D1*
G1X30785Y236403D2*
G1X43789Y236403D1*
G1X30785Y236049D2*
G1X43789Y236049D1*
G1X30785Y235694D2*
G1X43789Y235694D1*
G1X30785Y235340D2*
G1X43789Y235340D1*
G1X30785Y234986D2*
G1X43789Y234986D1*
G1X30785Y234631D2*
G1X43789Y234631D1*
G1X30785Y234277D2*
G1X43789Y234277D1*
G1X30785Y233923D2*
G1X43789Y233923D1*
G1X30785Y233568D2*
G1X43789Y233568D1*
G1X30785Y233214D2*
G1X43789Y233214D1*
G1X30785Y232860D2*
G1X43789Y232860D1*
G1X30785Y232505D2*
G1X43789Y232505D1*
G1X30785Y232151D2*
G1X43789Y232151D1*
G1X30785Y231797D2*
G1X43789Y231797D1*
G1X30785Y231442D2*
G1X43789Y231442D1*
G1X30785Y231088D2*
G1X43789Y231088D1*
G1X30785Y230734D2*
G1X43789Y230734D1*
G1X30785Y230379D2*
G1X43789Y230379D1*
G1X30785Y230025D2*
G1X43789Y230025D1*
G1X30785Y229671D2*
G1X43789Y229671D1*
G1X30785Y229316D2*
G1X43789Y229316D1*
G1X30785Y228962D2*
G1X43789Y228962D1*
G1X30785Y228608D2*
G1X43789Y228608D1*
G1X30785Y228253D2*
G1X43789Y228253D1*
G1X30785Y227899D2*
G1X43789Y227899D1*
G1X30785Y227545D2*
G1X43789Y227545D1*
G1X30785Y227190D2*
G1X43789Y227190D1*
G1X30785Y226836D2*
G1X43789Y226836D1*
G1X30785Y226482D2*
G1X43789Y226482D1*
G1X30785Y226127D2*
G1X43789Y226127D1*
G1X30785Y225773D2*
G1X43789Y225773D1*
G1X30785Y225419D2*
G1X43789Y225419D1*
G1X30785Y225064D2*
G1X43789Y225064D1*
G1X30785Y224710D2*
G1X43789Y224710D1*
G1X30785Y224356D2*
G1X43789Y224356D1*
G1X31730Y218332D2*
G1X43441Y218332D1*
G1X168488Y225415D2*
G1X271130Y225415D1*
G1X168488Y225061D2*
G1X271130Y225061D1*
G1X168488Y224706D2*
G1X271130Y224706D1*
G1X168488Y224352D2*
G1X271130Y224352D1*
G1X168488Y223998D2*
G1X271130Y223998D1*
G1X168488Y223643D2*
G1X271130Y223643D1*
G1X168488Y223289D2*
G1X271130Y223289D1*
G1X168488Y222935D2*
G1X271130Y222935D1*
G1X168488Y222580D2*
G1X271130Y222580D1*
G1X168488Y222226D2*
G1X271130Y222226D1*
G1X168488Y221872D2*
G1X271130Y221872D1*
G1X168488Y221517D2*
G1X271130Y221517D1*
G1X168488Y221163D2*
G1X271130Y221163D1*
G1X168488Y220809D2*
G1X271130Y220809D1*
G1X168488Y220454D2*
G1X271130Y220454D1*
G1X168488Y220100D2*
G1X271130Y220100D1*
G1X168488Y219746D2*
G1X271130Y219746D1*
G1X168488Y219391D2*
G1X271130Y219391D1*
G1X168488Y219037D2*
G1X271130Y219037D1*
G1X168488Y218683D2*
G1X271130Y218683D1*
G1X168488Y218328D2*
G1X271130Y218328D1*
G1X168488Y217974D2*
G1X271130Y217974D1*
G1X168488Y217620D2*
G1X271130Y217620D1*
G1X168488Y217265D2*
G1X271130Y217265D1*
G1X168488Y216911D2*
G1X271130Y216911D1*
G1X168488Y216557D2*
G1X271130Y216557D1*
G1X168488Y216202D2*
G1X271130Y216202D1*
G1X168488Y215848D2*
G1X271130Y215848D1*
G1X168488Y215494D2*
G1X271130Y215494D1*
G1X168488Y215139D2*
G1X271130Y215139D1*
G1X168488Y214785D2*
G1X271130Y214785D1*
G1X168488Y214431D2*
G1X271130Y214431D1*
G1X168488Y214076D2*
G1X271130Y214076D1*
G1X168488Y213722D2*
G1X271130Y213722D1*
G1X168488Y213368D2*
G1X271130Y213368D1*
G1X168488Y213013D2*
G1X271130Y213013D1*
G1X168488Y212659D2*
G1X271130Y212659D1*
G1X168488Y212305D2*
G1X271130Y212305D1*
G1X168488Y211950D2*
G1X271130Y211950D1*
G1X168488Y211596D2*
G1X271130Y211596D1*
G1X168488Y211242D2*
G1X271130Y211242D1*
G1X168488Y210887D2*
G1X271130Y210887D1*
G1X168488Y225769D2*
G1X271083Y225769D1*
G1X168488Y210533D2*
G1X271076Y210533D1*
G1X168488Y226123D2*
G1X270729Y226123D1*
G1X168488Y210179D2*
G1X270722Y210179D1*
G1X168488Y226478D2*
G1X270375Y226478D1*
G1X168488Y209824D2*
G1X270367Y209824D1*
G1X168488Y226832D2*
G1X270020Y226832D1*
G1X168488Y209470D2*
G1X270013Y209470D1*
G1X168488Y227186D2*
G1X269666Y227186D1*
G1X168488Y209116D2*
G1X269659Y209116D1*
G1X168488Y227541D2*
G1X269312Y227541D1*
G1X168488Y208761D2*
G1X269304Y208761D1*
G1X168488Y227895D2*
G1X268957Y227895D1*
G1X168488Y208407D2*
G1X268950Y208407D1*
G1X168488Y228249D2*
G1X268603Y228249D1*
G1X168488Y208053D2*
G1X268596Y208053D1*
G1X168488Y228604D2*
G1X268249Y228604D1*
G1X168488Y207698D2*
G1X268241Y207698D1*
G1X168488Y228958D2*
G1X267894Y228958D1*
G1X168488Y207344D2*
G1X267887Y207344D1*
G1X168672Y229312D2*
G1X267540Y229312D1*
G1X168488Y206990D2*
G1X267533Y206990D1*
G1X169027Y229667D2*
G1X267186Y229667D1*
G1X168488Y206635D2*
G1X267178Y206635D1*
G1X169381Y230021D2*
G1X266831Y230021D1*
G1X168488Y206281D2*
G1X266824Y206281D1*
G1X169735Y230375D2*
G1X266477Y230375D1*
G1X168488Y205927D2*
G1X266470Y205927D1*
G1X170090Y230730D2*
G1X266123Y230730D1*
G1X168488Y205572D2*
G1X266115Y205572D1*
G1X170444Y231084D2*
G1X265768Y231084D1*
G1X168698Y205218D2*
G1X245239Y205218D1*
G1X169052Y204864D2*
G1X244885Y204864D1*
G1X169406Y204509D2*
G1X244530Y204509D1*
G1X169761Y204155D2*
G1X244176Y204155D1*
G1X170115Y203801D2*
G1X243822Y203801D1*
G1X170469Y203446D2*
G1X243467Y203446D1*
G1X170824Y203092D2*
G1X243113Y203092D1*
G1X171178Y202738D2*
G1X242759Y202738D1*
G1X171532Y202383D2*
G1X242404Y202383D1*
G1X171887Y202029D2*
G1X242050Y202029D1*
G1X172241Y201675D2*
G1X241696Y201675D1*
G1X172595Y201320D2*
G1X241341Y201320D1*
G1X172950Y200966D2*
G1X240987Y200966D1*
G1X173304Y200612D2*
G1X240633Y200612D1*
G1X173658Y200257D2*
G1X240278Y200257D1*
G1X174013Y199903D2*
G1X239924Y199903D1*
G1X174367Y199549D2*
G1X239570Y199549D1*
G1X174721Y199194D2*
G1X239215Y199194D1*
G1X175076Y198840D2*
G1X238861Y198840D1*
G1X175430Y198486D2*
G1X238507Y198486D1*
G1X175784Y198131D2*
G1X238152Y198131D1*
G1X176139Y197777D2*
G1X237798Y197777D1*
G1X176493Y197423D2*
G1X237444Y197423D1*
G1X176847Y197068D2*
G1X237089Y197068D1*
G1X177202Y196714D2*
G1X236735Y196714D1*
G1X177556Y196360D2*
G1X236381Y196360D1*
G1X177910Y196005D2*
G1X236026Y196005D1*
G1X178265Y195651D2*
G1X235672Y195651D1*
G1X178619Y195297D2*
G1X235318Y195297D1*
G1X178973Y194942D2*
G1X234963Y194942D1*
G1X179328Y194588D2*
G1X234609Y194588D1*
G1X179682Y194234D2*
G1X234255Y194234D1*
G1X180036Y193879D2*
G1X233900Y193879D1*
G1X180391Y193525D2*
G1X233546Y193525D1*
G1X180745Y193171D2*
G1X233192Y193171D1*
G1X181099Y192816D2*
G1X232837Y192816D1*
G1X181454Y192462D2*
G1X232483Y192462D1*
G1X181808Y192108D2*
G1X232129Y192108D1*
G1X182162Y191753D2*
G1X231774Y191753D1*
G1X182517Y191399D2*
G1X231420Y191399D1*
G1X182871Y191045D2*
G1X231066Y191045D1*
G1X183225Y190690D2*
G1X230711Y190690D1*
G1X183580Y190336D2*
G1X230357Y190336D1*
G1X183934Y189982D2*
G1X230003Y189982D1*
G1X184288Y189627D2*
G1X229648Y189627D1*
G1X184643Y189273D2*
G1X229294Y189273D1*
G1X184997Y188919D2*
G1X228940Y188919D1*
G1X185351Y188564D2*
G1X228585Y188564D1*
G1X185706Y188210D2*
G1X228231Y188210D1*
G1X223692Y176470D2*
G1X223692Y187460D1*
G75*
G3X223663Y187530I-99J0D1*
G74*
G1X215856Y195336D1*
G75*
G3X215787Y195365I-70J-69D1*
G74*
G1X183627Y195365D1*
G75*
G3X183528Y195267I0J-99D1*
G74*
G1X183528Y137998D1*
G75*
G3X183557Y137928I99J0D1*
G74*
G1X195555Y125930D1*
G75*
G3X195625Y125901I70J69D1*
G74*
G1X218276Y125901D1*
G75*
G3X218346Y125930I0J98D1*
G74*
G1X223663Y131247D1*
G75*
G3X223692Y131316I-70J70D1*
G74*
G1X223692Y170939D1*
G75*
G3X223588Y171037I-99J0D1*
G1X223488Y171035D2*
G3X223588Y171037I11J1968D1*
G74*
G1X223488Y171035D2*
G1X220081Y171035D1*
G75*
G3X219983Y170936I1J-99D1*
G74*
G1X219983Y170756D1*
G1X218605Y169378D2*
G75*
G3X219983Y170756I0J1378D1*
G74*
G1X218605Y169378D2*
G1X213880Y169378D1*
G1X212502Y170756D2*
G75*
G3X213880Y169378I1378J0D1*
G74*
G1X212502Y170756D2*
G1X212502Y175480D1*
G1X213880Y176858D2*
G75*
G3X212502Y175480I0J-1378D1*
G74*
G1X213880Y176858D2*
G1X218605Y176858D1*
G1X219983Y175480D2*
G75*
G3X218605Y176858I-1378J0D1*
G74*
G1X219983Y175480D2*
G1X219983Y175070D1*
G75*
G3X220081Y174972I98J0D1*
G74*
G1X222632Y174972D1*
G75*
G3X222702Y175000I1J99D1*
G74*
G1X223215Y175514D1*
G75*
G3X223234Y175539I-68J71D1*
G74*
G1X223681Y176425D1*
G75*
G3X223692Y176470I-88J45D1*
G74*
G1X219983Y167606D2*
G1X219983Y162882D1*
G1X218605Y161504D2*
G75*
G3X219983Y162882I0J1378D1*
G74*
G1X218605Y161504D2*
G1X213880Y161504D1*
G1X212502Y162882D2*
G75*
G3X213880Y161504I1378J0D1*
G74*
G1X212502Y162882D2*
G1X212502Y167606D1*
G1X213880Y168984D2*
G75*
G3X212502Y167606I0J-1378D1*
G74*
G1X213880Y168984D2*
G1X218605Y168984D1*
G1X219983Y167606D2*
G75*
G3X218605Y168984I-1378J0D1*
G74*
G1X183528Y187199D2*
G1X223692Y187199D1*
G1X183528Y186845D2*
G1X223692Y186845D1*
G1X183528Y186490D2*
G1X223692Y186490D1*
G1X183528Y186136D2*
G1X223692Y186136D1*
G1X183528Y185782D2*
G1X223692Y185782D1*
G1X183528Y185427D2*
G1X223692Y185427D1*
G1X183528Y185073D2*
G1X223692Y185073D1*
G1X183528Y184719D2*
G1X223692Y184719D1*
G1X183528Y184364D2*
G1X223692Y184364D1*
G1X183528Y184010D2*
G1X223692Y184010D1*
G1X183528Y183656D2*
G1X223692Y183656D1*
G1X183528Y183301D2*
G1X223692Y183301D1*
G1X183528Y182947D2*
G1X223692Y182947D1*
G1X183528Y182593D2*
G1X223692Y182593D1*
G1X183528Y182238D2*
G1X223692Y182238D1*
G1X183528Y181884D2*
G1X223692Y181884D1*
G1X183528Y181530D2*
G1X223692Y181530D1*
G1X183528Y181175D2*
G1X223692Y181175D1*
G1X183528Y180821D2*
G1X223692Y180821D1*
G1X183528Y180467D2*
G1X223692Y180467D1*
G1X183528Y180112D2*
G1X223692Y180112D1*
G1X183528Y179758D2*
G1X223692Y179758D1*
G1X183528Y179404D2*
G1X223692Y179404D1*
G1X183528Y179049D2*
G1X223692Y179049D1*
G1X183528Y178695D2*
G1X223692Y178695D1*
G1X183528Y178341D2*
G1X223692Y178341D1*
G1X183528Y177986D2*
G1X223692Y177986D1*
G1X183528Y177632D2*
G1X223692Y177632D1*
G1X183528Y177278D2*
G1X223692Y177278D1*
G1X183528Y176923D2*
G1X223692Y176923D1*
G1X219449Y176569D2*
G1X223692Y176569D1*
G1X219983Y170900D2*
G1X223692Y170900D1*
G1X219967Y170545D2*
G1X223692Y170545D1*
G1X219862Y170191D2*
G1X223692Y170191D1*
G1X219631Y169837D2*
G1X223692Y169837D1*
G1X219131Y169482D2*
G1X223692Y169482D1*
G1X183528Y169128D2*
G1X223692Y169128D1*
G1X219337Y168774D2*
G1X223692Y168774D1*
G1X219717Y168419D2*
G1X223692Y168419D1*
G1X219904Y168065D2*
G1X223692Y168065D1*
G1X219979Y167711D2*
G1X223692Y167711D1*
G1X219983Y167356D2*
G1X223692Y167356D1*
G1X219983Y167002D2*
G1X223692Y167002D1*
G1X219983Y166648D2*
G1X223692Y166648D1*
G1X219983Y166293D2*
G1X223692Y166293D1*
G1X219983Y165939D2*
G1X223692Y165939D1*
G1X219983Y165585D2*
G1X223692Y165585D1*
G1X219983Y165230D2*
G1X223692Y165230D1*
G1X219983Y164876D2*
G1X223692Y164876D1*
G1X219983Y164522D2*
G1X223692Y164522D1*
G1X219983Y164167D2*
G1X223692Y164167D1*
G1X219983Y163813D2*
G1X223692Y163813D1*
G1X219983Y163459D2*
G1X223692Y163459D1*
G1X219983Y163104D2*
G1X223692Y163104D1*
G1X219976Y162750D2*
G1X223692Y162750D1*
G1X219894Y162396D2*
G1X223692Y162396D1*
G1X219697Y162041D2*
G1X223692Y162041D1*
G1X219291Y161687D2*
G1X223692Y161687D1*
G1X183528Y161333D2*
G1X223692Y161333D1*
G1X183528Y160978D2*
G1X223692Y160978D1*
G1X183528Y160624D2*
G1X223692Y160624D1*
G1X183528Y160270D2*
G1X223692Y160270D1*
G1X183528Y159915D2*
G1X223692Y159915D1*
G1X183528Y159561D2*
G1X223692Y159561D1*
G1X183528Y159207D2*
G1X223692Y159207D1*
G1X183528Y158852D2*
G1X223692Y158852D1*
G1X183528Y158498D2*
G1X223692Y158498D1*
G1X183528Y158144D2*
G1X223692Y158144D1*
G1X183528Y157789D2*
G1X223692Y157789D1*
G1X183528Y157435D2*
G1X223692Y157435D1*
G1X183528Y157081D2*
G1X223692Y157081D1*
G1X183528Y156726D2*
G1X223692Y156726D1*
G1X183528Y156372D2*
G1X223692Y156372D1*
G1X183528Y156018D2*
G1X223692Y156018D1*
G1X183528Y155663D2*
G1X223692Y155663D1*
G1X183528Y155309D2*
G1X223692Y155309D1*
G1X183528Y154955D2*
G1X223692Y154955D1*
G1X183528Y154600D2*
G1X223692Y154600D1*
G1X183528Y154246D2*
G1X223692Y154246D1*
G1X183528Y153892D2*
G1X223692Y153892D1*
G1X183528Y153537D2*
G1X223692Y153537D1*
G1X183528Y153183D2*
G1X223692Y153183D1*
G1X183528Y152829D2*
G1X223692Y152829D1*
G1X183528Y152474D2*
G1X223692Y152474D1*
G1X183528Y152120D2*
G1X223692Y152120D1*
G1X183528Y151766D2*
G1X223692Y151766D1*
G1X183528Y151411D2*
G1X223692Y151411D1*
G1X183528Y151057D2*
G1X223692Y151057D1*
G1X183528Y150703D2*
G1X223692Y150703D1*
G1X183528Y150348D2*
G1X223692Y150348D1*
G1X183528Y149994D2*
G1X223692Y149994D1*
G1X183528Y149640D2*
G1X223692Y149640D1*
G1X183528Y149285D2*
G1X223692Y149285D1*
G1X183528Y148931D2*
G1X223692Y148931D1*
G1X183528Y148577D2*
G1X223692Y148577D1*
G1X183528Y148222D2*
G1X223692Y148222D1*
G1X183528Y147868D2*
G1X223692Y147868D1*
G1X183528Y147514D2*
G1X223692Y147514D1*
G1X183528Y147159D2*
G1X223692Y147159D1*
G1X183528Y146805D2*
G1X223692Y146805D1*
G1X183528Y146451D2*
G1X223692Y146451D1*
G1X183528Y146096D2*
G1X223692Y146096D1*
G1X183528Y145742D2*
G1X223692Y145742D1*
G1X183528Y145388D2*
G1X223692Y145388D1*
G1X183528Y145034D2*
G1X223692Y145034D1*
G1X183528Y144679D2*
G1X223692Y144679D1*
G1X183528Y144325D2*
G1X223692Y144325D1*
G1X183528Y143971D2*
G1X223692Y143971D1*
G1X183528Y143616D2*
G1X223692Y143616D1*
G1X183528Y143262D2*
G1X223692Y143262D1*
G1X183528Y142908D2*
G1X223692Y142908D1*
G1X183528Y142553D2*
G1X223692Y142553D1*
G1X183528Y142199D2*
G1X223692Y142199D1*
G1X183528Y141845D2*
G1X223692Y141845D1*
G1X183528Y141490D2*
G1X223692Y141490D1*
G1X183528Y141136D2*
G1X223692Y141136D1*
G1X183528Y140782D2*
G1X223692Y140782D1*
G1X183528Y140427D2*
G1X223692Y140427D1*
G1X183528Y140073D2*
G1X223692Y140073D1*
G1X183528Y139719D2*
G1X223692Y139719D1*
G1X183528Y139364D2*
G1X223692Y139364D1*
G1X183528Y139010D2*
G1X223692Y139010D1*
G1X183528Y138656D2*
G1X223692Y138656D1*
G1X183528Y138301D2*
G1X223692Y138301D1*
G1X183542Y137947D2*
G1X223692Y137947D1*
G1X183893Y137593D2*
G1X223692Y137593D1*
G1X184247Y137238D2*
G1X223692Y137238D1*
G1X184601Y136884D2*
G1X223692Y136884D1*
G1X184956Y136530D2*
G1X223692Y136530D1*
G1X185310Y136175D2*
G1X223692Y136175D1*
G1X185664Y135821D2*
G1X223692Y135821D1*
G1X186019Y135467D2*
G1X223692Y135467D1*
G1X186373Y135112D2*
G1X223692Y135112D1*
G1X186727Y134758D2*
G1X223692Y134758D1*
G1X187082Y134404D2*
G1X223692Y134404D1*
G1X187436Y134049D2*
G1X223692Y134049D1*
G1X187790Y133695D2*
G1X223692Y133695D1*
G1X188145Y133341D2*
G1X223692Y133341D1*
G1X188499Y132986D2*
G1X223692Y132986D1*
G1X188853Y132632D2*
G1X223692Y132632D1*
G1X189208Y132278D2*
G1X223692Y132278D1*
G1X189562Y131923D2*
G1X223692Y131923D1*
G1X189916Y131569D2*
G1X223692Y131569D1*
G1X183528Y187553D2*
G1X223639Y187553D1*
G1X190271Y131215D2*
G1X223631Y131215D1*
G1X219771Y176215D2*
G1X223575Y176215D1*
G1X219929Y175860D2*
G1X223396Y175860D1*
G1X183528Y187908D2*
G1X223285Y187908D1*
G1X190625Y130860D2*
G1X223276Y130860D1*
G1X219983Y175506D2*
G1X223207Y175506D1*
G1X183528Y188262D2*
G1X222931Y188262D1*
G1X190979Y130506D2*
G1X222922Y130506D1*
G1X219983Y175152D2*
G1X222853Y175152D1*
G1X183528Y188616D2*
G1X222576Y188616D1*
G1X191334Y130152D2*
G1X222568Y130152D1*
G1X183528Y188971D2*
G1X222222Y188971D1*
G1X191688Y129797D2*
G1X222213Y129797D1*
G1X183528Y189325D2*
G1X221868Y189325D1*
G1X192042Y129443D2*
G1X221859Y129443D1*
G1X183528Y189679D2*
G1X221513Y189679D1*
G1X192397Y129089D2*
G1X221505Y129089D1*
G1X183528Y190034D2*
G1X221159Y190034D1*
G1X192751Y128734D2*
G1X221150Y128734D1*
G1X183528Y190388D2*
G1X220805Y190388D1*
G1X193105Y128380D2*
G1X220796Y128380D1*
G1X183528Y190742D2*
G1X220450Y190742D1*
G1X193460Y128026D2*
G1X220442Y128026D1*
G1X183528Y191096D2*
G1X220096Y191096D1*
G1X193814Y127671D2*
G1X220087Y127671D1*
G1X183528Y191451D2*
G1X219742Y191451D1*
G1X194168Y127317D2*
G1X219733Y127317D1*
G1X183528Y191805D2*
G1X219387Y191805D1*
G1X194523Y126963D2*
G1X219379Y126963D1*
G1X183528Y192159D2*
G1X219033Y192159D1*
G1X194877Y126608D2*
G1X219024Y126608D1*
G1X183528Y192514D2*
G1X218679Y192514D1*
G1X195231Y126254D2*
G1X218670Y126254D1*
G1X183528Y192868D2*
G1X218324Y192868D1*
G1X183528Y193222D2*
G1X217970Y193222D1*
G1X183528Y193577D2*
G1X217616Y193577D1*
G1X183528Y193931D2*
G1X217261Y193931D1*
G1X183528Y194285D2*
G1X216907Y194285D1*
G1X183528Y194640D2*
G1X216553Y194640D1*
G1X183528Y194994D2*
G1X216198Y194994D1*
G1X183572Y195348D2*
G1X215841Y195348D1*
G1X183528Y169482D2*
G1X213354Y169482D1*
G1X183528Y161687D2*
G1X213194Y161687D1*
G1X183528Y168774D2*
G1X213148Y168774D1*
G1X183528Y176569D2*
G1X213036Y176569D1*
G1X183528Y169837D2*
G1X212854Y169837D1*
G1X183528Y162041D2*
G1X212788Y162041D1*
G1X183528Y168419D2*
G1X212768Y168419D1*
G1X183528Y176215D2*
G1X212714Y176215D1*
G1X183528Y170191D2*
G1X212623Y170191D1*
G1X183528Y162396D2*
G1X212591Y162396D1*
G1X183528Y168065D2*
G1X212581Y168065D1*
G1X183528Y175860D2*
G1X212556Y175860D1*
G1X183528Y170545D2*
G1X212519Y170545D1*
G1X183528Y162750D2*
G1X212509Y162750D1*
G1X183528Y167711D2*
G1X212506Y167711D1*
G1X183528Y175506D2*
G1X212503Y175506D1*
G1X183528Y175152D2*
G1X212502Y175152D1*
G1X183528Y174797D2*
G1X212502Y174797D1*
G1X183528Y174443D2*
G1X212502Y174443D1*
G1X183528Y174089D2*
G1X212502Y174089D1*
G1X183528Y173734D2*
G1X212502Y173734D1*
G1X183528Y173380D2*
G1X212502Y173380D1*
G1X183528Y173026D2*
G1X212502Y173026D1*
G1X183528Y172671D2*
G1X212502Y172671D1*
G1X183528Y172317D2*
G1X212502Y172317D1*
G1X183528Y171963D2*
G1X212502Y171963D1*
G1X183528Y171608D2*
G1X212502Y171608D1*
G1X183528Y171254D2*
G1X212502Y171254D1*
G1X183528Y170900D2*
G1X212502Y170900D1*
G1X183528Y167356D2*
G1X212502Y167356D1*
G1X183528Y167002D2*
G1X212502Y167002D1*
G1X183528Y166648D2*
G1X212502Y166648D1*
G1X183528Y166293D2*
G1X212502Y166293D1*
G1X183528Y165939D2*
G1X212502Y165939D1*
G1X183528Y165585D2*
G1X212502Y165585D1*
G1X183528Y165230D2*
G1X212502Y165230D1*
G1X183528Y164876D2*
G1X212502Y164876D1*
G1X183528Y164522D2*
G1X212502Y164522D1*
G1X183528Y164167D2*
G1X212502Y164167D1*
G1X183528Y163813D2*
G1X212502Y163813D1*
G1X183528Y163459D2*
G1X212502Y163459D1*
G1X183528Y163104D2*
G1X212502Y163104D1*
G54D117*
G1X237427Y141530D3*
G1X237427Y161215D3*
G54D159*
G1X79738Y68389D3*
G1X81706Y68389D3*
G1X83675Y68389D3*
G1X85643Y68389D3*
G1X87612Y68389D3*
G1X89580Y68389D3*
G1X91549Y68389D3*
G1X93517Y68389D3*
G1X95486Y68389D3*
G1X97454Y68389D3*
G1X99423Y68389D3*
G1X101391Y68389D3*
G1X103360Y68389D3*
G1X105328Y68389D3*
G1X107297Y68389D3*
G1X109265Y68389D3*
G1X109265Y113468D3*
G1X107297Y113468D3*
G1X105328Y113468D3*
G1X95486Y113468D3*
G1X93517Y113468D3*
G1X91549Y113468D3*
G1X83675Y113468D3*
G1X81706Y113468D3*
G1X79738Y113468D3*
G54D160*
G1X117041Y76165D3*
G1X117041Y78134D3*
G1X117041Y80102D3*
G1X117041Y82071D3*
G1X117041Y84039D3*
G1X117041Y86008D3*
G1X117041Y87976D3*
G1X117041Y89945D3*
G1X117041Y91913D3*
G1X117041Y93882D3*
G1X117041Y95850D3*
G1X117041Y97819D3*
G1X117041Y99787D3*
G1X117041Y101756D3*
G1X117041Y103724D3*
G1X71962Y103724D3*
G1X71962Y101756D3*
G1X71962Y99787D3*
G1X71962Y97819D3*
G1X71962Y95850D3*
G1X71962Y93882D3*
G1X71962Y91913D3*
G1X71962Y89945D3*
G1X71962Y87976D3*
G1X71962Y86008D3*
G1X71962Y84039D3*
G1X71962Y82071D3*
G1X71962Y80102D3*
G1X71962Y78134D3*
G1X71962Y76165D3*
G54D161*
G1X94502Y90929D3*
G54D162*
G1X113813Y76165D3*
G1X113813Y78134D3*
G1X113813Y80102D3*
G1X113813Y82071D3*
G1X113813Y84039D3*
G1X113813Y86008D3*
G1X113813Y87976D3*
G1X113813Y89945D3*
G1X113813Y91913D3*
G1X113813Y93882D3*
G1X113813Y95850D3*
G1X113813Y97819D3*
G1X113813Y99787D3*
G1X113813Y101756D3*
G1X113813Y103724D3*
G1X75191Y103724D3*
G1X75191Y101756D3*
G1X75191Y99787D3*
G1X75191Y97819D3*
G1X75191Y95850D3*
G1X75191Y93882D3*
G1X75191Y91913D3*
G1X75191Y89945D3*
G1X75191Y87976D3*
G1X75191Y86008D3*
G1X75191Y84039D3*
G1X75191Y82071D3*
G1X75191Y80102D3*
G1X75191Y78134D3*
G1X75191Y76165D3*
G54D163*
G1X109265Y112208D3*
G1X107297Y112208D3*
G1X105328Y112208D3*
G1X97454Y112208D3*
G1X95486Y112208D3*
G1X93517Y112208D3*
G1X91549Y112208D3*
G1X83675Y112208D3*
G1X81706Y112208D3*
G1X79738Y112208D3*
G1X77769Y73586D3*
G1X79738Y73586D3*
G1X81706Y73586D3*
G1X83675Y73586D3*
G1X85643Y73586D3*
G1X87612Y73586D3*
G1X89580Y73586D3*
G1X91549Y73586D3*
G1X93517Y73586D3*
G1X95486Y73586D3*
G1X97454Y73586D3*
G1X99423Y73586D3*
G1X101391Y73586D3*
G1X103360Y73586D3*
G1X105328Y73586D3*
G1X107297Y73586D3*
G1X109265Y73586D3*
G1X111234Y73586D3*
G54D164*
G1X94502Y92897D3*
G54D175*
G1X273321Y142585D3*
G1X277258Y142585D3*
G1X281195Y142585D3*
G1X285132Y142585D3*
G1X289069Y142585D3*
G1X289069Y162664D3*
G1X285132Y162664D3*
G1X281195Y162664D3*
G1X277258Y162664D3*
G1X273321Y162664D3*
G1X275106Y31378D2*
G54D53*
G1X280953Y31370D1*
G1X271673Y23946D2*
G1X280890Y23931D1*
G1X281645Y23175D1*
G1X290379Y23175D1*
G1X244948Y24642D2*
G1X245934Y25629D1*
G1X245934Y37748D1*
G1X243709Y39973D1*
G1X243541Y39973D1*
G1X232372Y39973D1*
G54D15*
G1X400016Y83486D3*
G1X429611Y69645D3*
G54D59*
G36*
G1X399783Y76995D2*
G75*
G3X399783Y89452I0J6228D1*
G3X399783Y76995I0J-6229D1*
G37*
G36*
G1X429089Y63559D2*
G3X429089Y76016I-1J6228D1*
G3X429089Y63559I-1J-6229D1*
G37*
G74*
M2*
