*
%LPD*%
%LNdd001024*%
%FSLAX25Y25*%
%MOIN*%
%AD*%
%ADD51C,0.01*%
%ADD54C,0.03937*%
%ADD57C,0.00787*%
%ADD71C,0.00472*%
%ADD127C,0.01575*%
G54D51*
%SRX1Y1I0.0J0.0*%
G1X376428Y41838D2*
G1X384428Y41838D1*
G1X380428Y37838D2*
G1X380428Y45838D1*
G1X356743Y41838D2*
G1X364743Y41838D1*
G1X360743Y37838D2*
G1X360743Y45838D1*
G1X381395Y101328D2*
G1X389395Y109328D1*
G1X381395Y109328D2*
G1X389395Y101328D1*
G1X440451Y101328D2*
G1X448451Y109328D1*
G1X440451Y109328D2*
G1X448451Y101328D1*
G1X331014Y282830D2*
G1X339014Y282830D1*
G1X339014Y290830D1*
G1X331014Y290830D1*
G1X331014Y282830D1*
G1X335014Y286830D2*
G1X335014Y290830D1*
G1X331530Y246895D2*
G1X339530Y246895D1*
G1X335530Y242895D2*
G1X335530Y250895D1*
G1X337530Y252177D2*
G1X337530Y248895D1*
G1X337530Y252177D2*
G1X339007Y252177D1*
G1X337530Y250614D2*
G1X338439Y250614D1*
G1X337530Y248895D2*
G1X339007Y248895D1*
G1X331014Y212830D2*
G1X339014Y212830D1*
G1X339014Y220830D1*
G1X331014Y220830D1*
G1X331014Y212830D1*
G1X335014Y216830D2*
G1X335014Y220830D1*
G1X331014Y182830D2*
G1X339014Y182830D1*
G1X339014Y190830D1*
G1X331014Y190830D1*
G1X331014Y182830D1*
G1X335014Y186830D2*
G1X335014Y190830D1*
G1X370665Y215637D2*
G1X378665Y223637D1*
G1X370665Y223637D2*
G1X378665Y215637D1*
G1X429720Y215637D2*
G1X437720Y223637D1*
G1X429720Y223637D2*
G1X437720Y215637D1*
G1X383725Y290339D2*
G1X387725Y294339D1*
G1X383725Y298339D1*
G1X379725Y294339D1*
G1X383725Y290339D1*
G1X383725Y294339D2*
G1X383725Y298339D1*
G1X423725Y285339D2*
G1X427725Y289339D1*
G1X423725Y293339D1*
G1X419725Y289339D1*
G1X423725Y285339D1*
G1X423725Y289339D2*
G1X423725Y293339D1*
G1X424929Y261682D2*
G1X428929Y265682D1*
G1X424929Y269682D1*
G1X420929Y265682D1*
G1X424929Y261682D1*
G1X424929Y265682D2*
G1X424929Y269682D1*
G1X384929Y266682D2*
G1X388929Y270682D1*
G1X384929Y274682D1*
G1X380929Y270682D1*
G1X384929Y266682D1*
G1X384929Y270682D2*
G1X384929Y274682D1*
G1X268579Y116663D2*
G1X276579Y116663D1*
G1X268579Y124663D1*
G1X276579Y124663D1*
G1X268579Y116663D1*
G1X268579Y94615D2*
G1X276579Y94615D1*
G1X268579Y102615D1*
G1X276579Y102615D1*
G1X268579Y94615D1*
G1X179234Y277088D2*
G1X187234Y285088D1*
G1X187234Y277088D1*
G1X179234Y285088D1*
G1X179234Y277088D1*
G1X179234Y218033D2*
G1X187234Y226033D1*
G1X187234Y218033D1*
G1X179234Y226033D1*
G1X179234Y218033D1*
G1X433682Y41528D2*
G1X441682Y41528D1*
G1X437682Y37528D2*
G1X437682Y45528D1*
G1X440591Y46810D2*
G1X439682Y43528D1*
G1X440591Y46810D2*
G1X441500Y43528D1*
G1X440023Y44622D2*
G1X441159Y44622D1*
G1X402501Y41528D2*
G1X410501Y41528D1*
G1X406501Y37528D2*
G1X406501Y45528D1*
G1X409410Y46810D2*
G1X408501Y43528D1*
G1X409410Y46810D2*
G1X410319Y43528D1*
G1X408842Y44622D2*
G1X409978Y44622D1*
G1X306552Y85783D2*
G1X314552Y85783D1*
G1X310552Y81783D2*
G1X310552Y89783D1*
G1X312552Y91064D2*
G1X312552Y87783D1*
G1X312552Y91064D2*
G1X313575Y91064D1*
G1X313916Y90908D1*
G1X314029Y90752D1*
G1X314143Y90439D1*
G1X314143Y90127D1*
G1X314029Y89814D1*
G1X313916Y89658D1*
G1X313575Y89502D1*
G1X312552Y89502D2*
G1X313575Y89502D1*
G1X313916Y89346D1*
G1X314029Y89189D1*
G1X314143Y88877D1*
G1X314143Y88408D1*
G1X314029Y88096D1*
G1X313916Y87939D1*
G1X313575Y87783D1*
G1X312552Y87783D1*
G1X306552Y97783D2*
G1X314552Y97783D1*
G1X310552Y93783D2*
G1X310552Y101783D1*
G1X312552Y103064D2*
G1X312552Y99783D1*
G1X312552Y103064D2*
G1X313575Y103064D1*
G1X313916Y102908D1*
G1X314029Y102752D1*
G1X314143Y102439D1*
G1X314143Y102127D1*
G1X314029Y101814D1*
G1X313916Y101658D1*
G1X313575Y101502D1*
G1X312552Y101502D2*
G1X313575Y101502D1*
G1X313916Y101346D1*
G1X314029Y101189D1*
G1X314143Y100877D1*
G1X314143Y100408D1*
G1X314029Y100096D1*
G1X313916Y99939D1*
G1X313575Y99783D1*
G1X312552Y99783D1*
G1X267617Y23881D2*
G1X275617Y23881D1*
G1X271617Y19881D2*
G1X271617Y27881D1*
G1X275322Y28381D2*
G1X275208Y28694D1*
G1X274981Y29006D1*
G1X274753Y29163D1*
G1X274299Y29163D1*
G1X274072Y29006D1*
G1X273844Y28694D1*
G1X273731Y28381D1*
G1X273617Y27913D1*
G1X273617Y27131D1*
G1X273731Y26663D1*
G1X273844Y26350D1*
G1X274072Y26038D1*
G1X274299Y25881D1*
G1X274753Y25881D1*
G1X274981Y26038D1*
G1X275208Y26350D1*
G1X275322Y26663D1*
G1X267617Y33881D2*
G1X275617Y33881D1*
G1X271617Y29881D2*
G1X271617Y37881D1*
G1X275322Y38381D2*
G1X275208Y38694D1*
G1X274981Y39006D1*
G1X274753Y39163D1*
G1X274299Y39163D1*
G1X274072Y39006D1*
G1X273844Y38694D1*
G1X273731Y38381D1*
G1X273617Y37913D1*
G1X273617Y37131D1*
G1X273731Y36663D1*
G1X273844Y36350D1*
G1X274072Y36038D1*
G1X274299Y35881D1*
G1X274753Y35881D1*
G1X274981Y36038D1*
G1X275208Y36350D1*
G1X275322Y36663D1*
G1X236021Y33797D2*
G1X244021Y33797D1*
G1X240021Y29797D2*
G1X240021Y37797D1*
G1X243726Y38297D2*
G1X243612Y38610D1*
G1X243385Y38922D1*
G1X243157Y39079D1*
G1X242703Y39079D1*
G1X242476Y38922D1*
G1X242248Y38610D1*
G1X242135Y38297D1*
G1X242021Y37829D1*
G1X242021Y37047D1*
G1X242135Y36579D1*
G1X242248Y36266D1*
G1X242476Y35954D1*
G1X242703Y35797D1*
G1X243157Y35797D1*
G1X243385Y35954D1*
G1X243612Y36266D1*
G1X243726Y36579D1*
G1X236021Y23797D2*
G1X244021Y23797D1*
G1X240021Y19797D2*
G1X240021Y27797D1*
G1X243726Y28297D2*
G1X243612Y28610D1*
G1X243385Y28922D1*
G1X243157Y29079D1*
G1X242703Y29079D1*
G1X242476Y28922D1*
G1X242248Y28610D1*
G1X242135Y28297D1*
G1X242021Y27829D1*
G1X242021Y27047D1*
G1X242135Y26579D1*
G1X242248Y26266D1*
G1X242476Y25954D1*
G1X242703Y25797D1*
G1X243157Y25797D1*
G1X243385Y25954D1*
G1X243612Y26266D1*
G1X243726Y26579D1*
G1X359675Y74539D2*
G1X367675Y82539D1*
G1X359675Y82539D2*
G1X367675Y74539D1*
G1X359675Y104067D2*
G1X367675Y112067D1*
G1X359675Y112067D2*
G1X367675Y104067D1*
G1X434499Y69185D2*
G1X438499Y73185D1*
G1X434499Y77185D1*
G1X430499Y73185D1*
G1X434499Y69185D1*
G1X434499Y73185D2*
G1X434499Y77185D1*
G1X394499Y74185D2*
G1X398499Y78185D1*
G1X394499Y82185D1*
G1X390499Y78185D1*
G1X394499Y74185D1*
G1X394499Y78185D2*
G1X394499Y82185D1*
G1X255183Y260418D2*
G1X263183Y260418D1*
G1X259183Y256418D2*
G1X259183Y264418D1*
G1X261183Y265699D2*
G1X261183Y262418D1*
G1X261183Y265699D2*
G1X261979Y265699D1*
G1X262320Y265543D1*
G1X262547Y265230D1*
G1X262661Y264918D1*
G1X262774Y264449D1*
G1X262774Y263668D1*
G1X262661Y263199D1*
G1X262547Y262887D1*
G1X262320Y262574D1*
G1X261979Y262418D1*
G1X261183Y262418D1*
G1X255183Y220418D2*
G1X263183Y220418D1*
G1X259183Y216418D2*
G1X259183Y224418D1*
G1X261183Y225699D2*
G1X261183Y222418D1*
G1X261183Y225699D2*
G1X261979Y225699D1*
G1X262320Y225543D1*
G1X262547Y225230D1*
G1X262661Y224918D1*
G1X262774Y224449D1*
G1X262774Y223668D1*
G1X262661Y223199D1*
G1X262547Y222887D1*
G1X262320Y222574D1*
G1X261979Y222418D1*
G1X261183Y222418D1*
G1X303407Y23765D2*
G1X311407Y31765D1*
G1X303407Y31765D2*
G1X311407Y23765D1*
G1X313407Y23765D2*
G1X321407Y31765D1*
G1X313407Y31765D2*
G1X321407Y23765D1*
G1X221468Y91335D2*
G1X229468Y99335D1*
G1X221468Y99335D2*
G1X229468Y91335D1*
G1X221468Y111020D2*
G1X229468Y119020D1*
G1X221468Y119020D2*
G1X229468Y111020D1*
G1X219509Y52166D2*
G1X227509Y60166D1*
G1X219509Y60166D2*
G1X227509Y52166D1*
G1X219509Y65946D2*
G1X227509Y73946D1*
G1X219509Y73946D2*
G1X227509Y65946D1*
G1X331530Y276423D2*
G1X339530Y276423D1*
G1X335530Y272423D2*
G1X335530Y280423D1*
G1X337530Y281704D2*
G1X337530Y278423D1*
G1X337530Y281704D2*
G1X339007Y281704D1*
G1X337530Y280142D2*
G1X338439Y280142D1*
G1X337530Y278423D2*
G1X339007Y278423D1*
G1X331530Y217368D2*
G1X339530Y217368D1*
G1X335530Y213368D2*
G1X335530Y221368D1*
G1X337530Y222649D2*
G1X337530Y219368D1*
G1X337530Y222649D2*
G1X339007Y222649D1*
G1X337530Y221087D2*
G1X338439Y221087D1*
G1X337530Y219368D2*
G1X339007Y219368D1*
G1X331530Y187840D2*
G1X339530Y187840D1*
G1X335530Y183840D2*
G1X335530Y191840D1*
G1X337530Y193122D2*
G1X337530Y189840D1*
G1X337530Y193122D2*
G1X339007Y193122D1*
G1X337530Y191559D2*
G1X338439Y191559D1*
G1X337530Y189840D2*
G1X339007Y189840D1*
G1X440425Y273040D2*
G1X448425Y273040D1*
G1X444425Y269040D2*
G1X444425Y277040D1*
G1X446425Y278321D2*
G1X446425Y275040D1*
G1X446425Y278321D2*
G1X447903Y278321D1*
G1X446425Y276759D2*
G1X447334Y276759D1*
G1X378526Y145006D2*
G1X386526Y145006D1*
G1X382526Y141006D2*
G1X382526Y149006D1*
G1X386231Y149506D2*
G1X386117Y149818D1*
G1X385890Y150131D1*
G1X385663Y150287D1*
G1X385208Y150287D1*
G1X384981Y150131D1*
G1X384754Y149818D1*
G1X384640Y149506D1*
G1X384526Y149037D1*
G1X384526Y148256D1*
G1X384640Y147787D1*
G1X384754Y147474D1*
G1X384981Y147162D1*
G1X385208Y147006D1*
G1X385663Y147006D1*
G1X385890Y147162D1*
G1X386117Y147474D1*
G1X386231Y147787D1*
G1X386231Y148256D1*
G1X385663Y148256D2*
G1X386231Y148256D1*
G1X429708Y145006D2*
G1X437708Y145006D1*
G1X433708Y141006D2*
G1X433708Y149006D1*
G1X437412Y149506D2*
G1X437298Y149818D1*
G1X437071Y150131D1*
G1X436844Y150287D1*
G1X436389Y150287D1*
G1X436162Y150131D1*
G1X435935Y149818D1*
G1X435821Y149506D1*
G1X435708Y149037D1*
G1X435708Y148256D1*
G1X435821Y147787D1*
G1X435935Y147474D1*
G1X436162Y147162D1*
G1X436389Y147006D1*
G1X436844Y147006D1*
G1X437071Y147162D1*
G1X437298Y147474D1*
G1X437412Y147787D1*
G1X437412Y148256D1*
G1X436844Y148256D2*
G1X437412Y148256D1*
G1X429708Y182407D2*
G1X437708Y182407D1*
G1X433708Y178407D2*
G1X433708Y186407D1*
G1X437412Y186907D2*
G1X437298Y187220D1*
G1X437071Y187532D1*
G1X436844Y187689D1*
G1X436389Y187689D1*
G1X436162Y187532D1*
G1X435935Y187220D1*
G1X435821Y186907D1*
G1X435708Y186439D1*
G1X435708Y185657D1*
G1X435821Y185189D1*
G1X435935Y184876D1*
G1X436162Y184564D1*
G1X436389Y184407D1*
G1X436844Y184407D1*
G1X437071Y184564D1*
G1X437298Y184876D1*
G1X437412Y185189D1*
G1X437412Y185657D1*
G1X436844Y185657D2*
G1X437412Y185657D1*
G1X378526Y182407D2*
G1X386526Y182407D1*
G1X382526Y178407D2*
G1X382526Y186407D1*
G1X386231Y186907D2*
G1X386117Y187220D1*
G1X385890Y187532D1*
G1X385663Y187689D1*
G1X385208Y187689D1*
G1X384981Y187532D1*
G1X384754Y187220D1*
G1X384640Y186907D1*
G1X384526Y186439D1*
G1X384526Y185657D1*
G1X384640Y185189D1*
G1X384754Y184876D1*
G1X384981Y184564D1*
G1X385208Y184407D1*
G1X385663Y184407D1*
G1X385890Y184564D1*
G1X386117Y184876D1*
G1X386231Y185189D1*
G1X386231Y185657D1*
G1X385663Y185657D2*
G1X386231Y185657D1*
G1X117879Y290488D2*
G1X125879Y290488D1*
G1X121879Y286488D2*
G1X121879Y294488D1*
G1X123879Y295769D2*
G1X123879Y292488D1*
G1X125470Y295769D2*
G1X125470Y292488D1*
G1X123879Y294207D2*
G1X125470Y294207D1*
G1X86383Y290488D2*
G1X94383Y290488D1*
G1X90383Y286488D2*
G1X90383Y294488D1*
G1X92383Y295769D2*
G1X92383Y292488D1*
G1X93974Y295769D2*
G1X93974Y292488D1*
G1X92383Y294207D2*
G1X93974Y294207D1*
G1X54887Y290488D2*
G1X62887Y290488D1*
G1X58887Y286488D2*
G1X58887Y294488D1*
G1X60887Y295769D2*
G1X60887Y292488D1*
G1X62478Y295769D2*
G1X62478Y292488D1*
G1X60887Y294207D2*
G1X62478Y294207D1*
G1X32637Y40875D2*
G1X40637Y48875D1*
G1X40637Y40875D1*
G1X32637Y48875D1*
G1X32637Y40875D1*
G1X32637Y50875D2*
G1X40637Y58875D1*
G1X40637Y50875D1*
G1X32637Y58875D1*
G1X32637Y50875D1*
G1X32637Y60875D2*
G1X40637Y68875D1*
G1X40637Y60875D1*
G1X32637Y68875D1*
G1X32637Y60875D1*
G1X32637Y70875D2*
G1X40637Y78875D1*
G1X40637Y70875D1*
G1X32637Y78875D1*
G1X32637Y70875D1*
G1X32671Y91247D2*
G1X40671Y99247D1*
G1X40671Y91247D1*
G1X32671Y99247D1*
G1X32671Y91247D1*
G1X32671Y101247D2*
G1X40671Y109247D1*
G1X40671Y101247D1*
G1X32671Y109247D1*
G1X32671Y101247D1*
G1X32671Y111247D2*
G1X40671Y119247D1*
G1X40671Y111247D1*
G1X32671Y119247D1*
G1X32671Y111247D1*
G1X32671Y121247D2*
G1X40671Y129247D1*
G1X40671Y121247D1*
G1X32671Y129247D1*
G1X32671Y121247D1*
G1X202780Y21148D2*
G1X210780Y29148D1*
G1X210780Y21148D1*
G1X202780Y29148D1*
G1X202780Y21148D1*
G1X192780Y21148D2*
G1X200780Y29148D1*
G1X200780Y21148D1*
G1X192780Y29148D1*
G1X192780Y21148D1*
G1X182780Y21148D2*
G1X190780Y29148D1*
G1X190780Y21148D1*
G1X182780Y29148D1*
G1X182780Y21148D1*
G1X172780Y21148D2*
G1X180780Y29148D1*
G1X180780Y21148D1*
G1X172780Y29148D1*
G1X172780Y21148D1*
G1X162780Y21148D2*
G1X170780Y29148D1*
G1X170780Y21148D1*
G1X162780Y29148D1*
G1X162780Y21148D1*
G1X152780Y21148D2*
G1X160780Y29148D1*
G1X160780Y21148D1*
G1X152780Y29148D1*
G1X152780Y21148D1*
G1X142780Y21148D2*
G1X150780Y29148D1*
G1X150780Y21148D1*
G1X142780Y29148D1*
G1X142780Y21148D1*
G1X132780Y21148D2*
G1X140780Y29148D1*
G1X140780Y21148D1*
G1X132780Y29148D1*
G1X132780Y21148D1*
G1X43282Y18759D2*
G1X51282Y18759D1*
G1X47282Y14759D2*
G1X47282Y22759D1*
G1X49282Y24041D2*
G1X49282Y20759D1*
G1X58114Y18314D2*
G1X66114Y18314D1*
G1X62114Y14314D2*
G1X62114Y22314D1*
G1X64114Y23595D2*
G1X64114Y20314D1*
G1X67133Y18166D2*
G1X75133Y18166D1*
G1X71133Y14166D2*
G1X71133Y22166D1*
G1X73133Y23447D2*
G1X73133Y20166D1*
G1X51310Y18691D2*
G1X59310Y18691D1*
G1X55310Y14691D2*
G1X55310Y22691D1*
G1X57310Y23972D2*
G1X57310Y20691D1*
G1X75960Y18383D2*
G1X83960Y18383D1*
G1X79960Y14383D2*
G1X79960Y22383D1*
G1X81960Y23664D2*
G1X81960Y20383D1*
G1X83988Y18314D2*
G1X91988Y18314D1*
G1X87988Y14314D2*
G1X87988Y22314D1*
G1X89988Y23595D2*
G1X89988Y20314D1*
G1X92673Y18114D2*
G1X100673Y18114D1*
G1X96673Y14114D2*
G1X96673Y22114D1*
G1X98673Y23395D2*
G1X98673Y20114D1*
G1X110520Y18183D2*
G1X118520Y18183D1*
G1X114520Y14183D2*
G1X114520Y22183D1*
G1X116520Y23464D2*
G1X116520Y20183D1*
G1X101692Y17966D2*
G1X109692Y17966D1*
G1X105692Y13966D2*
G1X105692Y21966D1*
G1X107692Y23248D2*
G1X107692Y19966D1*
G1X94195Y38588D2*
G1X102195Y38588D1*
G1X98195Y34588D2*
G1X98195Y42588D1*
G1X100195Y43869D2*
G1X100195Y40588D1*
G1X117245Y39188D2*
G1X125245Y39188D1*
G1X121245Y35188D2*
G1X121245Y43188D1*
G1X123245Y44469D2*
G1X123245Y41188D1*
G1X277201Y34209D2*
G1X285201Y42209D1*
G1X277201Y42209D2*
G1X285201Y34209D1*
G1X73131Y41500D2*
G1X81131Y41500D1*
G1X77131Y37500D2*
G1X77131Y45500D1*
G1X79131Y46782D2*
G1X79131Y43500D1*
G1X106009Y47142D2*
G1X114009Y55142D1*
G1X106009Y55142D2*
G1X114009Y47142D1*
G1X105675Y36351D2*
G1X113675Y44351D1*
G1X105675Y44351D2*
G1X113675Y36351D1*
G1X113109Y45202D2*
G1X121109Y53202D1*
G1X113109Y53202D2*
G1X121109Y45202D1*
G1X169429Y51834D2*
G1X177429Y51834D1*
G1X173429Y47834D2*
G1X173429Y55834D1*
G1X175429Y57115D2*
G1X175429Y53834D1*
G1X162580Y51834D2*
G1X170580Y51834D1*
G1X166580Y47834D2*
G1X166580Y55834D1*
G1X168580Y57115D2*
G1X168580Y53834D1*
G1X153537Y38296D2*
G1X161537Y46296D1*
G1X153537Y46296D2*
G1X161537Y38296D1*
G1X190303Y43554D2*
G1X198303Y51554D1*
G1X190303Y51554D2*
G1X198303Y43554D1*
G1X195018Y57237D2*
G1X203018Y57237D1*
G1X199018Y53237D2*
G1X199018Y61237D1*
G1X201018Y62519D2*
G1X201018Y59237D1*
G1X232436Y59914D2*
G1X240436Y59914D1*
G1X236436Y55914D2*
G1X236436Y63914D1*
G1X238436Y65195D2*
G1X238436Y61914D1*
G1X44052Y75765D2*
G1X52052Y83765D1*
G1X44052Y83765D2*
G1X52052Y75765D1*
G1X52467Y74923D2*
G1X60467Y82923D1*
G1X52467Y82923D2*
G1X60467Y74923D1*
G1X64655Y71668D2*
G1X72655Y71668D1*
G1X68655Y67668D2*
G1X68655Y75668D1*
G1X70655Y76950D2*
G1X70655Y73668D1*
G1X65117Y66395D2*
G1X73117Y66395D1*
G1X69117Y62395D2*
G1X69117Y70395D1*
G1X71117Y71676D2*
G1X71117Y68395D1*
G1X71566Y59118D2*
G1X79566Y67118D1*
G1X71566Y67118D2*
G1X79566Y59118D1*
G1X109895Y61593D2*
G1X117895Y69593D1*
G1X109895Y69593D2*
G1X117895Y61593D1*
G1X145177Y72726D2*
G1X153177Y72726D1*
G1X149177Y68726D2*
G1X149177Y76726D1*
G1X151177Y78008D2*
G1X151177Y74726D1*
G1X167980Y67304D2*
G1X175980Y67304D1*
G1X171980Y63304D2*
G1X171980Y71304D1*
G1X173980Y72585D2*
G1X173980Y69304D1*
G1X183442Y66152D2*
G1X191442Y66152D1*
G1X187442Y62152D2*
G1X187442Y70152D1*
G1X189442Y71433D2*
G1X189442Y68152D1*
G1X176230Y56699D2*
G1X184230Y64699D1*
G1X176230Y64699D2*
G1X184230Y56699D1*
G1X268618Y72507D2*
G1X276618Y72507D1*
G1X272618Y68507D2*
G1X272618Y76507D1*
G1X274618Y77788D2*
G1X274618Y74507D1*
G1X44532Y92069D2*
G1X52532Y92069D1*
G1X48532Y88069D2*
G1X48532Y96069D1*
G1X50532Y97350D2*
G1X50532Y94069D1*
G1X42517Y85765D2*
G1X50517Y85765D1*
G1X46517Y81765D2*
G1X46517Y89765D1*
G1X48517Y91047D2*
G1X48517Y87765D1*
G1X90229Y91452D2*
G1X98229Y91452D1*
G1X94229Y87452D2*
G1X94229Y95452D1*
G1X96229Y96734D2*
G1X96229Y93452D1*
G1X82283Y99314D2*
G1X90283Y99314D1*
G1X86283Y95314D2*
G1X86283Y103314D1*
G1X88283Y104595D2*
G1X88283Y101314D1*
G1X90354Y83591D2*
G1X98354Y83591D1*
G1X94354Y79591D2*
G1X94354Y87591D1*
G1X96354Y88872D2*
G1X96354Y85591D1*
G1X82409Y91452D2*
G1X90409Y91452D1*
G1X86409Y87452D2*
G1X86409Y95452D1*
G1X88409Y96734D2*
G1X88409Y93452D1*
G1X82398Y83606D2*
G1X90398Y83606D1*
G1X86398Y79606D2*
G1X86398Y87606D1*
G1X88398Y88887D2*
G1X88398Y85606D1*
G1X90270Y99314D2*
G1X98270Y99314D1*
G1X94270Y95314D2*
G1X94270Y103314D1*
G1X96270Y104595D2*
G1X96270Y101314D1*
G1X98132Y91452D2*
G1X106132Y91452D1*
G1X102132Y87452D2*
G1X102132Y95452D1*
G1X104132Y96734D2*
G1X104132Y93452D1*
G1X98257Y99565D2*
G1X106257Y99565D1*
G1X102257Y95565D2*
G1X102257Y103565D1*
G1X104257Y104846D2*
G1X104257Y101565D1*
G1X98048Y83633D2*
G1X106048Y83633D1*
G1X102048Y79633D2*
G1X102048Y87633D1*
G1X104048Y88914D2*
G1X104048Y85633D1*
G1X121832Y89492D2*
G1X129832Y89492D1*
G1X125832Y85492D2*
G1X125832Y93492D1*
G1X127832Y94774D2*
G1X127832Y91492D1*
G1X146878Y94726D2*
G1X154878Y94726D1*
G1X150878Y90726D2*
G1X150878Y98726D1*
G1X152878Y100007D2*
G1X152878Y96726D1*
G1X158556Y98983D2*
G1X166556Y98983D1*
G1X162556Y94983D2*
G1X162556Y102983D1*
G1X164556Y104264D2*
G1X164556Y100983D1*
G1X178586Y92293D2*
G1X186586Y92293D1*
G1X182586Y88293D2*
G1X182586Y96293D1*
G1X184586Y97574D2*
G1X184586Y94293D1*
G1X178074Y97760D2*
G1X186074Y97760D1*
G1X182074Y93760D2*
G1X182074Y101760D1*
G1X184074Y103042D2*
G1X184074Y99760D1*
G1X242892Y82384D2*
G1X250892Y90384D1*
G1X242892Y90384D2*
G1X250892Y82384D1*
G1X129938Y103949D2*
G1X137938Y103949D1*
G1X133938Y99949D2*
G1X133938Y107949D1*
G1X135938Y109230D2*
G1X135938Y105949D1*
G1X142738Y100380D2*
G1X150738Y100380D1*
G1X146738Y96380D2*
G1X146738Y104380D1*
G1X148738Y105661D2*
G1X148738Y102380D1*
G1X141968Y108145D2*
G1X149968Y108145D1*
G1X145968Y104145D2*
G1X145968Y112145D1*
G1X147968Y113426D2*
G1X147968Y110145D1*
G1X142353Y115514D2*
G1X150353Y115514D1*
G1X146353Y111514D2*
G1X146353Y119514D1*
G1X148353Y120795D2*
G1X148353Y117514D1*
G1X155731Y119853D2*
G1X163731Y119853D1*
G1X159731Y115853D2*
G1X159731Y123853D1*
G1X161731Y125134D2*
G1X161731Y121853D1*
G1X194125Y101697D2*
G1X202125Y101697D1*
G1X198125Y97697D2*
G1X198125Y105697D1*
G1X200125Y106978D2*
G1X200125Y103697D1*
G1X190816Y108145D2*
G1X198816Y108145D1*
G1X194816Y104145D2*
G1X194816Y112145D1*
G1X196816Y113426D2*
G1X196816Y110145D1*
G1X196152Y108338D2*
G1X204152Y108338D1*
G1X200152Y104338D2*
G1X200152Y112338D1*
G1X202152Y113619D2*
G1X202152Y110338D1*
G1X55559Y118940D2*
G1X63559Y126940D1*
G1X55559Y126940D2*
G1X63559Y118940D1*
G1X63769Y118909D2*
G1X71769Y126909D1*
G1X63769Y126909D2*
G1X71769Y118909D1*
G1X169839Y122059D2*
G1X177839Y122059D1*
G1X173839Y118059D2*
G1X173839Y126059D1*
G1X175839Y127340D2*
G1X175839Y124059D1*
G1X162758Y120751D2*
G1X170758Y120751D1*
G1X166758Y116751D2*
G1X166758Y124751D1*
G1X168758Y126032D2*
G1X168758Y122751D1*
G1X179566Y122536D2*
G1X187566Y122536D1*
G1X183566Y118536D2*
G1X183566Y126536D1*
G1X185566Y127818D2*
G1X185566Y124536D1*
G1X184138Y136878D2*
G1X192138Y136878D1*
G1X188138Y132878D2*
G1X188138Y140878D1*
G1X190138Y142160D2*
G1X190138Y138878D1*
G1X190729Y136564D2*
G1X198729Y136564D1*
G1X194729Y132564D2*
G1X194729Y140564D1*
G1X196729Y141846D2*
G1X196729Y138564D1*
G1X197633Y136460D2*
G1X205633Y136460D1*
G1X201633Y132460D2*
G1X201633Y140460D1*
G1X203633Y141741D2*
G1X203633Y138460D1*
G1X204851Y137088D2*
G1X212851Y137088D1*
G1X208851Y133088D2*
G1X208851Y141088D1*
G1X210851Y142369D2*
G1X210851Y139088D1*
G1X193892Y129435D2*
G1X201892Y129435D1*
G1X197892Y125435D2*
G1X197892Y133435D1*
G1X199892Y134716D2*
G1X199892Y131435D1*
G1X200483Y129121D2*
G1X208483Y129121D1*
G1X204483Y125121D2*
G1X204483Y133121D1*
G1X206483Y134402D2*
G1X206483Y131121D1*
G1X207387Y129016D2*
G1X215387Y129016D1*
G1X211387Y125016D2*
G1X211387Y133016D1*
G1X213387Y134297D2*
G1X213387Y131016D1*
G1X214605Y129644D2*
G1X222605Y129644D1*
G1X218605Y125644D2*
G1X218605Y133644D1*
G1X220605Y134925D2*
G1X220605Y131644D1*
G1X312000Y131936D2*
G1X320000Y131936D1*
G1X316000Y127936D2*
G1X316000Y135936D1*
G1X318000Y137217D2*
G1X318000Y133936D1*
G1X184310Y154504D2*
G1X192310Y154504D1*
G1X188310Y150504D2*
G1X188310Y158504D1*
G1X190310Y159785D2*
G1X190310Y156504D1*
G1X184395Y145263D2*
G1X192395Y145263D1*
G1X188395Y141263D2*
G1X188395Y149263D1*
G1X190395Y150544D2*
G1X190395Y147263D1*
G1X190900Y154190D2*
G1X198900Y154190D1*
G1X194900Y150190D2*
G1X194900Y158190D1*
G1X196900Y159471D2*
G1X196900Y156190D1*
G1X197804Y154085D2*
G1X205804Y154085D1*
G1X201804Y150085D2*
G1X201804Y158085D1*
G1X203804Y159366D2*
G1X203804Y156085D1*
G1X205022Y154713D2*
G1X213022Y154713D1*
G1X209022Y150713D2*
G1X209022Y158713D1*
G1X211022Y159994D2*
G1X211022Y156713D1*
G1X190986Y144949D2*
G1X198986Y144949D1*
G1X194986Y140949D2*
G1X194986Y148949D1*
G1X196986Y150231D2*
G1X196986Y146949D1*
G1X197890Y144845D2*
G1X205890Y144845D1*
G1X201890Y140845D2*
G1X201890Y148845D1*
G1X203890Y150126D2*
G1X203890Y146845D1*
G1X205108Y145472D2*
G1X213108Y145472D1*
G1X209108Y141472D2*
G1X209108Y149472D1*
G1X211108Y150754D2*
G1X211108Y147472D1*
G1X212227Y159099D2*
G1X220227Y159099D1*
G1X216227Y155099D2*
G1X216227Y163099D1*
G1X218227Y164380D2*
G1X218227Y161099D1*
G1X39330Y180190D2*
G1X47330Y180190D1*
G1X43330Y176190D2*
G1X43330Y184190D1*
G1X45330Y185471D2*
G1X45330Y182190D1*
G1X64036Y173630D2*
G1X72036Y173630D1*
G1X68036Y169630D2*
G1X68036Y177630D1*
G1X70036Y178912D2*
G1X70036Y175630D1*
G1X89140Y175353D2*
G1X97140Y175353D1*
G1X93140Y171353D2*
G1X93140Y179353D1*
G1X95140Y180634D2*
G1X95140Y177353D1*
G1X108498Y174797D2*
G1X116498Y174797D1*
G1X112498Y170797D2*
G1X112498Y178797D1*
G1X114498Y180079D2*
G1X114498Y176797D1*
G1X132442Y174305D2*
G1X140442Y174305D1*
G1X136442Y170305D2*
G1X136442Y178305D1*
G1X138442Y179586D2*
G1X138442Y176305D1*
G1X159414Y174939D2*
G1X167414Y182939D1*
G1X159414Y182939D2*
G1X167414Y174939D1*
G1X152810Y173630D2*
G1X160810Y173630D1*
G1X156810Y169630D2*
G1X156810Y177630D1*
G1X158810Y178912D2*
G1X158810Y175630D1*
G1X183625Y173070D2*
G1X191625Y173070D1*
G1X187625Y169070D2*
G1X187625Y177070D1*
G1X189625Y178351D2*
G1X189625Y175070D1*
G1X190216Y172756D2*
G1X198216Y172756D1*
G1X194216Y168756D2*
G1X194216Y176756D1*
G1X196216Y178038D2*
G1X196216Y174756D1*
G1X183967Y163573D2*
G1X191967Y163573D1*
G1X187967Y159573D2*
G1X187967Y167573D1*
G1X189967Y168854D2*
G1X189967Y165573D1*
G1X190558Y163259D2*
G1X198558Y163259D1*
G1X194558Y159259D2*
G1X194558Y167259D1*
G1X196558Y168540D2*
G1X196558Y165259D1*
G1X197120Y172652D2*
G1X205120Y172652D1*
G1X201120Y168652D2*
G1X201120Y176652D1*
G1X203120Y177933D2*
G1X203120Y174652D1*
G1X204338Y173279D2*
G1X212338Y173279D1*
G1X208338Y169279D2*
G1X208338Y177279D1*
G1X210338Y178561D2*
G1X210338Y175279D1*
G1X197462Y163155D2*
G1X205462Y163155D1*
G1X201462Y159155D2*
G1X201462Y167155D1*
G1X203462Y168436D2*
G1X203462Y165155D1*
G1X204680Y163782D2*
G1X212680Y163782D1*
G1X208680Y159782D2*
G1X208680Y167782D1*
G1X210680Y169063D2*
G1X210680Y165782D1*
G1X223610Y177109D2*
G1X231610Y177109D1*
G1X227610Y173109D2*
G1X227610Y181109D1*
G1X229610Y182390D2*
G1X229610Y179109D1*
G1X233664Y167070D2*
G1X241664Y167070D1*
G1X237664Y163070D2*
G1X237664Y171070D1*
G1X239664Y172351D2*
G1X239664Y169070D1*
G1X233830Y172429D2*
G1X241830Y172429D1*
G1X237830Y168429D2*
G1X237830Y176429D1*
G1X239830Y177711D2*
G1X239830Y174429D1*
G1X263176Y168142D2*
G1X271176Y176142D1*
G1X263176Y176142D2*
G1X271176Y168142D1*
G1X269418Y168354D2*
G1X277418Y176354D1*
G1X269418Y176354D2*
G1X277418Y168354D1*
G1X256530Y168413D2*
G1X264530Y176413D1*
G1X256530Y176413D2*
G1X264530Y168413D1*
G1X290001Y168569D2*
G1X298001Y176569D1*
G1X290001Y176569D2*
G1X298001Y168569D1*
G1X282382Y168538D2*
G1X290382Y176538D1*
G1X282382Y176538D2*
G1X290382Y168538D1*
G1X275854Y168630D2*
G1X283854Y176630D1*
G1X275854Y176630D2*
G1X283854Y168630D1*
G1X33492Y196508D2*
G1X41492Y196508D1*
G1X37492Y192508D2*
G1X37492Y200508D1*
G1X39492Y201790D2*
G1X39492Y198508D1*
G1X65986Y186523D2*
G1X73986Y186523D1*
G1X69986Y182523D2*
G1X69986Y190523D1*
G1X71986Y191804D2*
G1X71986Y188523D1*
G1X79528Y196796D2*
G1X87528Y196796D1*
G1X83528Y192796D2*
G1X83528Y200796D1*
G1X85528Y202077D2*
G1X85528Y198796D1*
G1X110886Y189143D2*
G1X118886Y189143D1*
G1X114886Y185143D2*
G1X114886Y193143D1*
G1X116886Y194424D2*
G1X116886Y191143D1*
G1X122841Y196214D2*
G1X130841Y196214D1*
G1X126841Y192214D2*
G1X126841Y200214D1*
G1X128841Y201495D2*
G1X128841Y198214D1*
G1X160283Y185512D2*
G1X168283Y193512D1*
G1X160283Y193512D2*
G1X168283Y185512D1*
G1X164529Y179344D2*
G1X172529Y187344D1*
G1X164529Y187344D2*
G1X172529Y179344D1*
G1X190130Y181569D2*
G1X198130Y181569D1*
G1X194130Y177569D2*
G1X194130Y185569D1*
G1X196130Y186850D2*
G1X196130Y183569D1*
G1X190001Y198854D2*
G1X198001Y198854D1*
G1X194001Y194854D2*
G1X194001Y202854D1*
G1X196001Y204136D2*
G1X196001Y200854D1*
G1X183540Y181883D2*
G1X191540Y181883D1*
G1X187540Y177883D2*
G1X187540Y185883D1*
G1X189540Y187164D2*
G1X189540Y183883D1*
G1X204252Y182092D2*
G1X212252Y182092D1*
G1X208252Y178092D2*
G1X208252Y186092D1*
G1X210252Y187373D2*
G1X210252Y184092D1*
G1X196952Y198748D2*
G1X204952Y198748D1*
G1X200952Y194748D2*
G1X200952Y202748D1*
G1X202952Y204029D2*
G1X202952Y200748D1*
G1X197034Y181464D2*
G1X205034Y181464D1*
G1X201034Y177464D2*
G1X201034Y185464D1*
G1X203034Y186746D2*
G1X203034Y183464D1*
G1X217444Y199090D2*
G1X225444Y199090D1*
G1X221444Y195090D2*
G1X221444Y203090D1*
G1X223444Y204371D2*
G1X223444Y201090D1*
G1X217195Y192985D2*
G1X225195Y192985D1*
G1X221195Y188985D2*
G1X221195Y196985D1*
G1X223195Y198266D2*
G1X223195Y194985D1*
G1X210902Y192548D2*
G1X218902Y192548D1*
G1X214902Y188548D2*
G1X214902Y196548D1*
G1X216902Y197830D2*
G1X216902Y194548D1*
G1X210778Y199838D2*
G1X218778Y199838D1*
G1X214778Y195838D2*
G1X214778Y203838D1*
G1X216778Y205119D2*
G1X216778Y201838D1*
G1X35663Y220136D2*
G1X43663Y220136D1*
G1X39663Y216136D2*
G1X39663Y224136D1*
G1X41663Y225417D2*
G1X41663Y222136D1*
G1X189300Y212450D2*
G1X197300Y212450D1*
G1X193300Y208450D2*
G1X193300Y216450D1*
G1X195300Y217732D2*
G1X195300Y214450D1*
G1X182395Y212555D2*
G1X190395Y212555D1*
G1X186395Y208555D2*
G1X186395Y216555D1*
G1X188395Y217836D2*
G1X188395Y214555D1*
G1X175805Y212869D2*
G1X183805Y212869D1*
G1X179805Y208869D2*
G1X179805Y216869D1*
G1X181805Y218150D2*
G1X181805Y214869D1*
G1X175967Y206341D2*
G1X183967Y206341D1*
G1X179967Y202341D2*
G1X179967Y210341D1*
G1X181967Y211622D2*
G1X181967Y208341D1*
G1X182557Y206027D2*
G1X190557Y206027D1*
G1X186557Y202027D2*
G1X186557Y210027D1*
G1X188557Y211308D2*
G1X188557Y208027D1*
G1X189461Y205922D2*
G1X197461Y205922D1*
G1X193461Y201922D2*
G1X193461Y209922D1*
G1X195461Y211203D2*
G1X195461Y207922D1*
G1X196679Y206550D2*
G1X204679Y206550D1*
G1X200679Y202550D2*
G1X200679Y210550D1*
G1X202679Y211831D2*
G1X202679Y208550D1*
G1X196518Y213078D2*
G1X204518Y213078D1*
G1X200518Y209078D2*
G1X200518Y217078D1*
G1X202518Y218359D2*
G1X202518Y215078D1*
G1X217818Y205694D2*
G1X225818Y205694D1*
G1X221818Y201694D2*
G1X221818Y209694D1*
G1X223818Y210975D2*
G1X223818Y207694D1*
G1X210591Y206940D2*
G1X218591Y206940D1*
G1X214591Y202940D2*
G1X214591Y210940D1*
G1X216591Y212222D2*
G1X216591Y208940D1*
G1X29561Y220339D2*
G1X37561Y220339D1*
G1X33561Y216339D2*
G1X33561Y224339D1*
G1X35561Y225620D2*
G1X35561Y222339D1*
G1X29737Y232907D2*
G1X37737Y232907D1*
G1X33737Y228907D2*
G1X33737Y236907D1*
G1X35737Y238188D2*
G1X35737Y234907D1*
G1X29807Y226367D2*
G1X37807Y226367D1*
G1X33807Y222367D2*
G1X33807Y230367D1*
G1X35807Y231648D2*
G1X35807Y228367D1*
G1X35110Y232907D2*
G1X43110Y232907D1*
G1X39110Y228907D2*
G1X39110Y236907D1*
G1X41110Y238188D2*
G1X41110Y234907D1*
G1X52138Y226252D2*
G1X60138Y226252D1*
G1X56138Y222252D2*
G1X56138Y230252D1*
G1X58138Y231533D2*
G1X58138Y228252D1*
G1X81761Y221584D2*
G1X89761Y221584D1*
G1X85761Y217584D2*
G1X85761Y225584D1*
G1X87761Y226865D2*
G1X87761Y223584D1*
G1X76099Y221640D2*
G1X84099Y221640D1*
G1X80099Y217640D2*
G1X80099Y225640D1*
G1X82099Y226921D2*
G1X82099Y223640D1*
G1X76543Y227412D2*
G1X84543Y227412D1*
G1X80543Y223412D2*
G1X80543Y231412D1*
G1X82543Y232694D2*
G1X82543Y229412D1*
G1X95985Y226252D2*
G1X103985Y226252D1*
G1X99985Y222252D2*
G1X99985Y230252D1*
G1X101985Y231533D2*
G1X101985Y228252D1*
G1X125857Y220715D2*
G1X133857Y220715D1*
G1X129857Y216715D2*
G1X129857Y224715D1*
G1X131857Y225997D2*
G1X131857Y222715D1*
G1X119143Y220637D2*
G1X127143Y220637D1*
G1X123143Y216637D2*
G1X123143Y224637D1*
G1X125143Y225918D2*
G1X125143Y222637D1*
G1X119237Y226252D2*
G1X127237Y226252D1*
G1X123237Y222252D2*
G1X123237Y230252D1*
G1X125237Y231533D2*
G1X125237Y228252D1*
G1X139547Y226252D2*
G1X147547Y226252D1*
G1X143547Y222252D2*
G1X143547Y230252D1*
G1X145547Y231533D2*
G1X145547Y228252D1*
G1X218727Y235715D2*
G1X226727Y235715D1*
G1X222727Y231715D2*
G1X222727Y239715D1*
G1X224727Y240997D2*
G1X224727Y237715D1*
G1X464340Y396756D2*
G1X722340Y396756D1*
G1X464340Y372756D2*
G1X722340Y372756D1*
G1X464340Y348756D2*
G1X722340Y348756D1*
G1X464340Y324756D2*
G1X722340Y324756D1*
G1X464340Y300756D2*
G1X722340Y300756D1*
G1X464340Y276756D2*
G1X722340Y276756D1*
G1X464340Y252756D2*
G1X722340Y252756D1*
G1X464340Y228756D2*
G1X722340Y228756D1*
G1X464340Y204756D2*
G1X722340Y204756D1*
G1X464340Y180756D2*
G1X722340Y180756D1*
G1X464340Y156756D2*
G1X722340Y156756D1*
G1X464340Y132756D2*
G1X722340Y132756D1*
G1X464340Y108756D2*
G1X722340Y108756D1*
G1X464340Y84756D2*
G1X722340Y84756D1*
G1X464340Y60756D2*
G1X722340Y60756D1*
G1X464340Y36756D2*
G1X722340Y36756D1*
G1X464340Y12756D2*
G1X722340Y12756D1*
G1X464340Y396756D2*
G1X464340Y12756D1*
G1X548340Y396756D2*
G1X548340Y12756D1*
G1X584340Y396756D2*
G1X584340Y12756D1*
G1X620340Y396756D2*
G1X620340Y12756D1*
G1X674340Y396756D2*
G1X674340Y12756D1*
G1X722340Y396756D2*
G1X722340Y12756D1*
G1X499840Y385506D2*
G1X499294Y386256D1*
G1X498476Y386631D1*
G1X497385Y386631D1*
G1X496567Y386256D1*
G1X496022Y385506D1*
G1X496022Y384756D1*
G1X496294Y384006D1*
G1X496567Y383631D1*
G1X497113Y383256D1*
G1X498749Y382506D1*
G1X499294Y382131D1*
G1X499567Y381756D1*
G1X499840Y381006D1*
G1X499840Y379881D1*
G1X499294Y379131D1*
G1X498476Y378756D1*
G1X497385Y378756D1*
G1X496567Y379131D1*
G1X496022Y379881D1*
G1X502294Y386631D2*
G1X502294Y378756D1*
G1X508567Y386631D2*
G1X504749Y378756D1*
G1X504749Y386631D2*
G1X508567Y386631D1*
G1X504749Y378756D2*
G1X508567Y378756D1*
G1X511022Y386631D2*
G1X511022Y378756D1*
G1X511022Y386631D2*
G1X514567Y386631D1*
G1X511022Y382881D2*
G1X513204Y382881D1*
G1X511022Y378756D2*
G1X514567Y378756D1*
G1X558204Y386631D2*
G1X557658Y386256D1*
G1X557113Y385506D1*
G1X556840Y384756D1*
G1X556567Y383631D1*
G1X556567Y381756D1*
G1X556840Y380631D1*
G1X557113Y379881D1*
G1X557658Y379131D1*
G1X558204Y378756D1*
G1X559294Y378756D1*
G1X559840Y379131D1*
G1X560385Y379881D1*
G1X560658Y380631D1*
G1X560931Y381756D1*
G1X560931Y383631D1*
G1X560658Y384756D1*
G1X560385Y385506D1*
G1X559840Y386256D1*
G1X559294Y386631D1*
G1X558204Y386631D1*
G1X559022Y380256D2*
G1X560658Y378006D1*
G1X565294Y386631D2*
G1X565294Y378756D1*
G1X563385Y386631D2*
G1X567204Y386631D1*
G1X569658Y386631D2*
G1X571840Y382881D1*
G1X571840Y378756D1*
G1X574022Y386631D2*
G1X571840Y382881D1*
G1X596385Y385506D2*
G1X595840Y386256D1*
G1X595022Y386631D1*
G1X593931Y386631D1*
G1X593113Y386256D1*
G1X592567Y385506D1*
G1X592567Y384756D1*
G1X592840Y384006D1*
G1X593113Y383631D1*
G1X593658Y383256D1*
G1X595294Y382506D1*
G1X595840Y382131D1*
G1X596113Y381756D1*
G1X596385Y381006D1*
G1X596385Y379881D1*
G1X595840Y379131D1*
G1X595022Y378756D1*
G1X593931Y378756D1*
G1X593113Y379131D1*
G1X592567Y379881D1*
G1X598840Y386631D2*
G1X601022Y382881D1*
G1X601022Y378756D1*
G1X603204Y386631D2*
G1X601022Y382881D1*
G1X605658Y386631D2*
G1X605658Y378756D1*
G1X605658Y386631D2*
G1X607840Y378756D1*
G1X610022Y386631D2*
G1X607840Y378756D1*
G1X610022Y386631D2*
G1X610022Y378756D1*
G1X631840Y386631D2*
G1X631840Y378756D1*
G1X631840Y386631D2*
G1X634294Y386631D1*
G1X635113Y386256D1*
G1X635385Y385881D1*
G1X635658Y385131D1*
G1X635658Y384006D1*
G1X635385Y383256D1*
G1X635113Y382881D1*
G1X634294Y382506D1*
G1X631840Y382506D1*
G1X638113Y386631D2*
G1X638113Y378756D1*
G1X641385Y378756D1*
G1X646022Y386631D2*
G1X643840Y378756D1*
G1X646022Y386631D2*
G1X648204Y378756D1*
G1X644658Y381381D2*
G1X647385Y381381D1*
G1X652567Y386631D2*
G1X652567Y378756D1*
G1X650658Y386631D2*
G1X654476Y386631D1*
G1X656931Y386631D2*
G1X656931Y378756D1*
G1X656931Y386631D2*
G1X660476Y386631D1*
G1X656931Y382881D2*
G1X659113Y382881D1*
G1X656931Y378756D2*
G1X660476Y378756D1*
G1X662931Y386631D2*
G1X662931Y378756D1*
G1X662931Y386631D2*
G1X664840Y386631D1*
G1X665658Y386256D1*
G1X666204Y385506D1*
G1X666476Y384756D1*
G1X666749Y383631D1*
G1X666749Y381756D1*
G1X666476Y380631D1*
G1X666204Y379881D1*
G1X665658Y379131D1*
G1X664840Y378756D1*
G1X662931Y378756D1*
G1X691022Y386631D2*
G1X691022Y378756D1*
G1X689113Y386631D2*
G1X692931Y386631D1*
G1X697022Y386631D2*
G1X696476Y386256D1*
G1X695931Y385506D1*
G1X695658Y384756D1*
G1X695385Y383631D1*
G1X695385Y381756D1*
G1X695658Y380631D1*
G1X695931Y379881D1*
G1X696476Y379131D1*
G1X697022Y378756D1*
G1X698113Y378756D1*
G1X698658Y379131D1*
G1X699204Y379881D1*
G1X699476Y380631D1*
G1X699749Y381756D1*
G1X699749Y383631D1*
G1X699476Y384756D1*
G1X699204Y385506D1*
G1X698658Y386256D1*
G1X698113Y386631D1*
G1X697022Y386631D1*
G1X702204Y386631D2*
G1X702204Y378756D1*
G1X705476Y378756D1*
G1X471976Y362631D2*
G1X471158Y362256D1*
G1X470613Y361131D1*
G1X470340Y359256D1*
G1X470340Y358131D1*
G1X470613Y356256D1*
G1X471158Y355131D1*
G1X471976Y354756D1*
G1X472522Y354756D1*
G1X473340Y355131D1*
G1X473885Y356256D1*
G1X474158Y358131D1*
G1X474158Y359256D1*
G1X473885Y361131D1*
G1X473340Y362256D1*
G1X472522Y362631D1*
G1X471976Y362631D1*
G1X476885Y355506D2*
G1X476613Y355131D1*
G1X476885Y354756D1*
G1X477158Y355131D1*
G1X476885Y355506D1*
G1X483158Y360006D2*
G1X482885Y358881D1*
G1X482340Y358131D1*
G1X481522Y357756D1*
G1X481249Y357756D1*
G1X480431Y358131D1*
G1X479885Y358881D1*
G1X479613Y360006D1*
G1X479613Y360381D1*
G1X479885Y361506D1*
G1X480431Y362256D1*
G1X481249Y362631D1*
G1X481522Y362631D1*
G1X482340Y362256D1*
G1X482885Y361506D1*
G1X483158Y360006D1*
G1X483158Y358131D1*
G1X482885Y356256D1*
G1X482340Y355131D1*
G1X481522Y354756D1*
G1X480976Y354756D1*
G1X480158Y355131D1*
G1X479885Y355881D1*
G1X563658Y360756D2*
G1X563658Y361131D1*
G1X563931Y361881D1*
G1X564204Y362256D1*
G1X564749Y362631D1*
G1X565840Y362631D1*
G1X566385Y362256D1*
G1X566658Y361881D1*
G1X566931Y361131D1*
G1X566931Y360381D1*
G1X566658Y359631D1*
G1X566113Y358506D1*
G1X563385Y354756D1*
G1X567204Y354756D1*
G1X596340Y360756D2*
G1X608340Y360756D1*
G1X602340Y354756D2*
G1X602340Y366756D1*
G1X628976Y362631D2*
G1X631158Y358881D1*
G1X631158Y354756D1*
G1X633340Y362631D2*
G1X631158Y358881D1*
G1X635794Y362631D2*
G1X635794Y354756D1*
G1X635794Y362631D2*
G1X639340Y362631D1*
G1X635794Y358881D2*
G1X637976Y358881D1*
G1X635794Y354756D2*
G1X639340Y354756D1*
G1X645613Y361506D2*
G1X645067Y362256D1*
G1X644249Y362631D1*
G1X643158Y362631D1*
G1X642340Y362256D1*
G1X641794Y361506D1*
G1X641794Y360756D1*
G1X642067Y360006D1*
G1X642340Y359631D1*
G1X642885Y359256D1*
G1X644522Y358506D1*
G1X645067Y358131D1*
G1X645340Y357756D1*
G1X645613Y357006D1*
G1X645613Y355881D1*
G1X645067Y355131D1*
G1X644249Y354756D1*
G1X643158Y354756D1*
G1X642340Y355131D1*
G1X641794Y355881D1*
G1X682158Y361506D2*
G1X682158Y354756D1*
G1X679704Y358131D2*
G1X684613Y358131D1*
G1X691976Y364131D2*
G1X687067Y352131D1*
G1X694431Y358131D2*
G1X699340Y358131D1*
G1X703431Y362631D2*
G1X702613Y362256D1*
G1X702067Y361131D1*
G1X701794Y359256D1*
G1X701794Y358131D1*
G1X702067Y356256D1*
G1X702613Y355131D1*
G1X703431Y354756D1*
G1X703976Y354756D1*
G1X704794Y355131D1*
G1X705340Y356256D1*
G1X705613Y358131D1*
G1X705613Y359256D1*
G1X705340Y361131D1*
G1X704794Y362256D1*
G1X703976Y362631D1*
G1X703431Y362631D1*
G1X708340Y355506D2*
G1X708067Y355131D1*
G1X708340Y354756D1*
G1X708613Y355131D1*
G1X708340Y355506D1*
G1X712704Y362631D2*
G1X711885Y362256D1*
G1X711340Y361131D1*
G1X711067Y359256D1*
G1X711067Y358131D1*
G1X711340Y356256D1*
G1X711885Y355131D1*
G1X712704Y354756D1*
G1X713249Y354756D1*
G1X714067Y355131D1*
G1X714613Y356256D1*
G1X714885Y358131D1*
G1X714885Y359256D1*
G1X714613Y361131D1*
G1X714067Y362256D1*
G1X713249Y362631D1*
G1X712704Y362631D1*
G1X470340Y337131D2*
G1X470885Y337506D1*
G1X471704Y338631D1*
G1X471704Y330756D1*
G1X560658Y338631D2*
G1X563658Y338631D1*
G1X562022Y335631D1*
G1X562840Y335631D1*
G1X563385Y335256D1*
G1X563658Y334881D1*
G1X563931Y333756D1*
G1X563931Y333006D1*
G1X563658Y331881D1*
G1X563113Y331131D1*
G1X562294Y330756D1*
G1X561476Y330756D1*
G1X560658Y331131D1*
G1X560385Y331506D1*
G1X560113Y332256D1*
G1X569931Y338631D2*
G1X567204Y338631D1*
G1X566931Y335256D1*
G1X567204Y335631D1*
G1X568022Y336006D1*
G1X568840Y336006D1*
G1X569658Y335631D1*
G1X570204Y334881D1*
G1X570476Y333756D1*
G1X570204Y333006D1*
G1X569931Y331881D1*
G1X569385Y331131D1*
G1X568567Y330756D1*
G1X567749Y330756D1*
G1X566931Y331131D1*
G1X566658Y331506D1*
G1X566385Y332256D1*
G1X596340Y330756D2*
G1X608340Y342756D1*
G1X596340Y342756D2*
G1X608340Y330756D1*
G1X628976Y338631D2*
G1X631158Y334881D1*
G1X631158Y330756D1*
G1X633340Y338631D2*
G1X631158Y334881D1*
G1X635794Y338631D2*
G1X635794Y330756D1*
G1X635794Y338631D2*
G1X639340Y338631D1*
G1X635794Y334881D2*
G1X637976Y334881D1*
G1X635794Y330756D2*
G1X639340Y330756D1*
G1X645613Y337506D2*
G1X645067Y338256D1*
G1X644249Y338631D1*
G1X643158Y338631D1*
G1X642340Y338256D1*
G1X641794Y337506D1*
G1X641794Y336756D1*
G1X642067Y336006D1*
G1X642340Y335631D1*
G1X642885Y335256D1*
G1X644522Y334506D1*
G1X645067Y334131D1*
G1X645340Y333756D1*
G1X645613Y333006D1*
G1X645613Y331881D1*
G1X645067Y331131D1*
G1X644249Y330756D1*
G1X643158Y330756D1*
G1X642340Y331131D1*
G1X641794Y331881D1*
G1X682158Y337506D2*
G1X682158Y330756D1*
G1X679704Y334131D2*
G1X684613Y334131D1*
G1X691976Y340131D2*
G1X687067Y328131D1*
G1X694431Y334131D2*
G1X699340Y334131D1*
G1X703431Y338631D2*
G1X702613Y338256D1*
G1X702067Y337131D1*
G1X701794Y335256D1*
G1X701794Y334131D1*
G1X702067Y332256D1*
G1X702613Y331131D1*
G1X703431Y330756D1*
G1X703976Y330756D1*
G1X704794Y331131D1*
G1X705340Y332256D1*
G1X705613Y334131D1*
G1X705613Y335256D1*
G1X705340Y337131D1*
G1X704794Y338256D1*
G1X703976Y338631D1*
G1X703431Y338631D1*
G1X708340Y331506D2*
G1X708067Y331131D1*
G1X708340Y330756D1*
G1X708613Y331131D1*
G1X708340Y331506D1*
G1X712704Y338631D2*
G1X711885Y338256D1*
G1X711340Y337131D1*
G1X711067Y335256D1*
G1X711067Y334131D1*
G1X711340Y332256D1*
G1X711885Y331131D1*
G1X712704Y330756D1*
G1X713249Y330756D1*
G1X714067Y331131D1*
G1X714613Y332256D1*
G1X714885Y334131D1*
G1X714885Y335256D1*
G1X714613Y337131D1*
G1X714067Y338256D1*
G1X713249Y338631D1*
G1X712704Y338631D1*
G1X470340Y313131D2*
G1X470885Y313506D1*
G1X471704Y314631D1*
G1X471704Y306756D1*
G1X474431Y307506D2*
G1X474158Y307131D1*
G1X474431Y306756D1*
G1X474704Y307131D1*
G1X474431Y307506D1*
G1X477158Y313131D2*
G1X477704Y313506D1*
G1X478522Y314631D1*
G1X478522Y306756D1*
G1X484522Y312006D2*
G1X484249Y310881D1*
G1X483704Y310131D1*
G1X482885Y309756D1*
G1X482613Y309756D1*
G1X481794Y310131D1*
G1X481249Y310881D1*
G1X480976Y312006D1*
G1X480976Y312381D1*
G1X481249Y313506D1*
G1X481794Y314256D1*
G1X482613Y314631D1*
G1X482885Y314631D1*
G1X483704Y314256D1*
G1X484249Y313506D1*
G1X484522Y312006D1*
G1X484522Y310131D1*
G1X484249Y308256D1*
G1X483704Y307131D1*
G1X482885Y306756D1*
G1X482340Y306756D1*
G1X481522Y307131D1*
G1X481249Y307881D1*
G1X487522Y314631D2*
G1X490522Y314631D1*
G1X488885Y311631D1*
G1X489704Y311631D1*
G1X490249Y311256D1*
G1X490522Y310881D1*
G1X490794Y309756D1*
G1X490794Y309006D1*
G1X490522Y307881D1*
G1X489976Y307131D1*
G1X489158Y306756D1*
G1X488340Y306756D1*
G1X487522Y307131D1*
G1X487249Y307506D1*
G1X486976Y308256D1*
G1X494613Y314631D2*
G1X493794Y314256D1*
G1X493522Y313506D1*
G1X493522Y312756D1*
G1X493794Y312006D1*
G1X494340Y311631D1*
G1X495431Y311256D1*
G1X496249Y310881D1*
G1X496794Y310131D1*
G1X497067Y309381D1*
G1X497067Y308256D1*
G1X496794Y307506D1*
G1X496522Y307131D1*
G1X495704Y306756D1*
G1X494613Y306756D1*
G1X493794Y307131D1*
G1X493522Y307506D1*
G1X493249Y308256D1*
G1X493249Y309381D1*
G1X493522Y310131D1*
G1X494067Y310881D1*
G1X494885Y311256D1*
G1X495976Y311631D1*
G1X496522Y312006D1*
G1X496794Y312756D1*
G1X496794Y313506D1*
G1X496522Y314256D1*
G1X495704Y314631D1*
G1X494613Y314631D1*
G1X563931Y314631D2*
G1X566931Y314631D1*
G1X565294Y311631D1*
G1X566113Y311631D1*
G1X566658Y311256D1*
G1X566931Y310881D1*
G1X567204Y309756D1*
G1X567204Y309006D1*
G1X566931Y307881D1*
G1X566385Y307131D1*
G1X565567Y306756D1*
G1X564749Y306756D1*
G1X563931Y307131D1*
G1X563658Y307506D1*
G1X563385Y308256D1*
G1X596340Y306756D2*
G1X608340Y306756D1*
G1X608340Y318756D1*
G1X596340Y318756D1*
G1X596340Y306756D1*
G1X602340Y312756D2*
G1X602340Y318756D1*
G1X628976Y314631D2*
G1X631158Y310881D1*
G1X631158Y306756D1*
G1X633340Y314631D2*
G1X631158Y310881D1*
G1X635794Y314631D2*
G1X635794Y306756D1*
G1X635794Y314631D2*
G1X639340Y314631D1*
G1X635794Y310881D2*
G1X637976Y310881D1*
G1X635794Y306756D2*
G1X639340Y306756D1*
G1X645613Y313506D2*
G1X645067Y314256D1*
G1X644249Y314631D1*
G1X643158Y314631D1*
G1X642340Y314256D1*
G1X641794Y313506D1*
G1X641794Y312756D1*
G1X642067Y312006D1*
G1X642340Y311631D1*
G1X642885Y311256D1*
G1X644522Y310506D1*
G1X645067Y310131D1*
G1X645340Y309756D1*
G1X645613Y309006D1*
G1X645613Y307881D1*
G1X645067Y307131D1*
G1X644249Y306756D1*
G1X643158Y306756D1*
G1X642340Y307131D1*
G1X641794Y307881D1*
G1X682158Y313506D2*
G1X682158Y306756D1*
G1X679704Y310131D2*
G1X684613Y310131D1*
G1X691976Y316131D2*
G1X687067Y304131D1*
G1X694431Y310131D2*
G1X699340Y310131D1*
G1X703431Y314631D2*
G1X702613Y314256D1*
G1X702067Y313131D1*
G1X701794Y311256D1*
G1X701794Y310131D1*
G1X702067Y308256D1*
G1X702613Y307131D1*
G1X703431Y306756D1*
G1X703976Y306756D1*
G1X704794Y307131D1*
G1X705340Y308256D1*
G1X705613Y310131D1*
G1X705613Y311256D1*
G1X705340Y313131D1*
G1X704794Y314256D1*
G1X703976Y314631D1*
G1X703431Y314631D1*
G1X708340Y307506D2*
G1X708067Y307131D1*
G1X708340Y306756D1*
G1X708613Y307131D1*
G1X708340Y307506D1*
G1X712704Y314631D2*
G1X711885Y314256D1*
G1X711340Y313131D1*
G1X711067Y311256D1*
G1X711067Y310131D1*
G1X711340Y308256D1*
G1X711885Y307131D1*
G1X712704Y306756D1*
G1X713249Y306756D1*
G1X714067Y307131D1*
G1X714613Y308256D1*
G1X714885Y310131D1*
G1X714885Y311256D1*
G1X714613Y313131D1*
G1X714067Y314256D1*
G1X713249Y314631D1*
G1X712704Y314631D1*
G1X470340Y289131D2*
G1X470885Y289506D1*
G1X471704Y290631D1*
G1X471704Y282756D1*
G1X474431Y283506D2*
G1X474158Y283131D1*
G1X474431Y282756D1*
G1X474704Y283131D1*
G1X474431Y283506D1*
G1X477158Y289131D2*
G1X477704Y289506D1*
G1X478522Y290631D1*
G1X478522Y282756D1*
G1X484522Y288006D2*
G1X484249Y286881D1*
G1X483704Y286131D1*
G1X482885Y285756D1*
G1X482613Y285756D1*
G1X481794Y286131D1*
G1X481249Y286881D1*
G1X480976Y288006D1*
G1X480976Y288381D1*
G1X481249Y289506D1*
G1X481794Y290256D1*
G1X482613Y290631D1*
G1X482885Y290631D1*
G1X483704Y290256D1*
G1X484249Y289506D1*
G1X484522Y288006D1*
G1X484522Y286131D1*
G1X484249Y284256D1*
G1X483704Y283131D1*
G1X482885Y282756D1*
G1X482340Y282756D1*
G1X481522Y283131D1*
G1X481249Y283881D1*
G1X490522Y288006D2*
G1X490249Y286881D1*
G1X489704Y286131D1*
G1X488885Y285756D1*
G1X488613Y285756D1*
G1X487794Y286131D1*
G1X487249Y286881D1*
G1X486976Y288006D1*
G1X486976Y288381D1*
G1X487249Y289506D1*
G1X487794Y290256D1*
G1X488613Y290631D1*
G1X488885Y290631D1*
G1X489704Y290256D1*
G1X490249Y289506D1*
G1X490522Y288006D1*
G1X490522Y286131D1*
G1X490249Y284256D1*
G1X489704Y283131D1*
G1X488885Y282756D1*
G1X488340Y282756D1*
G1X487522Y283131D1*
G1X487249Y283881D1*
G1X496522Y288006D2*
G1X496249Y286881D1*
G1X495704Y286131D1*
G1X494885Y285756D1*
G1X494613Y285756D1*
G1X493794Y286131D1*
G1X493249Y286881D1*
G1X492976Y288006D1*
G1X492976Y288381D1*
G1X493249Y289506D1*
G1X493794Y290256D1*
G1X494613Y290631D1*
G1X494885Y290631D1*
G1X495704Y290256D1*
G1X496249Y289506D1*
G1X496522Y288006D1*
G1X496522Y286131D1*
G1X496249Y284256D1*
G1X495704Y283131D1*
G1X494885Y282756D1*
G1X494340Y282756D1*
G1X493522Y283131D1*
G1X493249Y283881D1*
G1X566794Y289506D2*
G1X566522Y290256D1*
G1X565704Y290631D1*
G1X565158Y290631D1*
G1X564340Y290256D1*
G1X563794Y289131D1*
G1X563522Y287256D1*
G1X563522Y285381D1*
G1X563794Y283881D1*
G1X564340Y283131D1*
G1X565158Y282756D1*
G1X565431Y282756D1*
G1X566249Y283131D1*
G1X566794Y283881D1*
G1X567067Y285006D1*
G1X567067Y285381D1*
G1X566794Y286506D1*
G1X566249Y287256D1*
G1X565431Y287631D1*
G1X565158Y287631D1*
G1X564340Y287256D1*
G1X563794Y286506D1*
G1X563522Y285381D1*
G1X602340Y282756D2*
G1X608340Y288756D1*
G1X602340Y294756D1*
G1X596340Y288756D1*
G1X602340Y282756D1*
G1X602340Y288756D2*
G1X602340Y294756D1*
G1X628976Y290631D2*
G1X631158Y286881D1*
G1X631158Y282756D1*
G1X633340Y290631D2*
G1X631158Y286881D1*
G1X635794Y290631D2*
G1X635794Y282756D1*
G1X635794Y290631D2*
G1X639340Y290631D1*
G1X635794Y286881D2*
G1X637976Y286881D1*
G1X635794Y282756D2*
G1X639340Y282756D1*
G1X645613Y289506D2*
G1X645067Y290256D1*
G1X644249Y290631D1*
G1X643158Y290631D1*
G1X642340Y290256D1*
G1X641794Y289506D1*
G1X641794Y288756D1*
G1X642067Y288006D1*
G1X642340Y287631D1*
G1X642885Y287256D1*
G1X644522Y286506D1*
G1X645067Y286131D1*
G1X645340Y285756D1*
G1X645613Y285006D1*
G1X645613Y283881D1*
G1X645067Y283131D1*
G1X644249Y282756D1*
G1X643158Y282756D1*
G1X642340Y283131D1*
G1X641794Y283881D1*
G1X682158Y289506D2*
G1X682158Y282756D1*
G1X679704Y286131D2*
G1X684613Y286131D1*
G1X691976Y292131D2*
G1X687067Y280131D1*
G1X694431Y286131D2*
G1X699340Y286131D1*
G1X703431Y290631D2*
G1X702613Y290256D1*
G1X702067Y289131D1*
G1X701794Y287256D1*
G1X701794Y286131D1*
G1X702067Y284256D1*
G1X702613Y283131D1*
G1X703431Y282756D1*
G1X703976Y282756D1*
G1X704794Y283131D1*
G1X705340Y284256D1*
G1X705613Y286131D1*
G1X705613Y287256D1*
G1X705340Y289131D1*
G1X704794Y290256D1*
G1X703976Y290631D1*
G1X703431Y290631D1*
G1X708340Y283506D2*
G1X708067Y283131D1*
G1X708340Y282756D1*
G1X708613Y283131D1*
G1X708340Y283506D1*
G1X712704Y290631D2*
G1X711885Y290256D1*
G1X711340Y289131D1*
G1X711067Y287256D1*
G1X711067Y286131D1*
G1X711340Y284256D1*
G1X711885Y283131D1*
G1X712704Y282756D1*
G1X713249Y282756D1*
G1X714067Y283131D1*
G1X714613Y284256D1*
G1X714885Y286131D1*
G1X714885Y287256D1*
G1X714613Y289131D1*
G1X714067Y290256D1*
G1X713249Y290631D1*
G1X712704Y290631D1*
G1X470340Y265131D2*
G1X470885Y265506D1*
G1X471704Y266631D1*
G1X471704Y258756D1*
G1X474431Y259506D2*
G1X474158Y259131D1*
G1X474431Y258756D1*
G1X474704Y259131D1*
G1X474431Y259506D1*
G1X477704Y266631D2*
G1X480704Y266631D1*
G1X479067Y263631D1*
G1X479885Y263631D1*
G1X480431Y263256D1*
G1X480704Y262881D1*
G1X480976Y261756D1*
G1X480976Y261006D1*
G1X480704Y259881D1*
G1X480158Y259131D1*
G1X479340Y258756D1*
G1X478522Y258756D1*
G1X477704Y259131D1*
G1X477431Y259506D1*
G1X477158Y260256D1*
G1X563658Y264756D2*
G1X563658Y265131D1*
G1X563931Y265881D1*
G1X564204Y266256D1*
G1X564749Y266631D1*
G1X565840Y266631D1*
G1X566385Y266256D1*
G1X566658Y265881D1*
G1X566931Y265131D1*
G1X566931Y264381D1*
G1X566658Y263631D1*
G1X566113Y262506D1*
G1X563385Y258756D1*
G1X567204Y258756D1*
G1X596340Y258756D2*
G1X608340Y258756D1*
G1X596340Y270756D1*
G1X608340Y270756D1*
G1X596340Y258756D1*
G1X628976Y266631D2*
G1X631158Y262881D1*
G1X631158Y258756D1*
G1X633340Y266631D2*
G1X631158Y262881D1*
G1X635794Y266631D2*
G1X635794Y258756D1*
G1X635794Y266631D2*
G1X639340Y266631D1*
G1X635794Y262881D2*
G1X637976Y262881D1*
G1X635794Y258756D2*
G1X639340Y258756D1*
G1X645613Y265506D2*
G1X645067Y266256D1*
G1X644249Y266631D1*
G1X643158Y266631D1*
G1X642340Y266256D1*
G1X641794Y265506D1*
G1X641794Y264756D1*
G1X642067Y264006D1*
G1X642340Y263631D1*
G1X642885Y263256D1*
G1X644522Y262506D1*
G1X645067Y262131D1*
G1X645340Y261756D1*
G1X645613Y261006D1*
G1X645613Y259881D1*
G1X645067Y259131D1*
G1X644249Y258756D1*
G1X643158Y258756D1*
G1X642340Y259131D1*
G1X641794Y259881D1*
G1X682158Y265506D2*
G1X682158Y258756D1*
G1X679704Y262131D2*
G1X684613Y262131D1*
G1X691976Y268131D2*
G1X687067Y256131D1*
G1X694431Y262131D2*
G1X699340Y262131D1*
G1X703431Y266631D2*
G1X702613Y266256D1*
G1X702067Y265131D1*
G1X701794Y263256D1*
G1X701794Y262131D1*
G1X702067Y260256D1*
G1X702613Y259131D1*
G1X703431Y258756D1*
G1X703976Y258756D1*
G1X704794Y259131D1*
G1X705340Y260256D1*
G1X705613Y262131D1*
G1X705613Y263256D1*
G1X705340Y265131D1*
G1X704794Y266256D1*
G1X703976Y266631D1*
G1X703431Y266631D1*
G1X708340Y259506D2*
G1X708067Y259131D1*
G1X708340Y258756D1*
G1X708613Y259131D1*
G1X708340Y259506D1*
G1X712704Y266631D2*
G1X711885Y266256D1*
G1X711340Y265131D1*
G1X711067Y263256D1*
G1X711067Y262131D1*
G1X711340Y260256D1*
G1X711885Y259131D1*
G1X712704Y258756D1*
G1X713249Y258756D1*
G1X714067Y259131D1*
G1X714613Y260256D1*
G1X714885Y262131D1*
G1X714885Y263256D1*
G1X714613Y265131D1*
G1X714067Y266256D1*
G1X713249Y266631D1*
G1X712704Y266631D1*
G1X470340Y241131D2*
G1X470885Y241506D1*
G1X471704Y242631D1*
G1X471704Y234756D1*
G1X474431Y235506D2*
G1X474158Y235131D1*
G1X474431Y234756D1*
G1X474704Y235131D1*
G1X474431Y235506D1*
G1X477431Y240756D2*
G1X477431Y241131D1*
G1X477704Y241881D1*
G1X477976Y242256D1*
G1X478522Y242631D1*
G1X479613Y242631D1*
G1X480158Y242256D1*
G1X480431Y241881D1*
G1X480704Y241131D1*
G1X480704Y240381D1*
G1X480431Y239631D1*
G1X479885Y238506D1*
G1X477158Y234756D1*
G1X480976Y234756D1*
G1X561476Y241131D2*
G1X562022Y241506D1*
G1X562840Y242631D1*
G1X562840Y234756D1*
G1X566658Y242631D2*
G1X565840Y242256D1*
G1X565567Y241506D1*
G1X565567Y240756D1*
G1X565840Y240006D1*
G1X566385Y239631D1*
G1X567476Y239256D1*
G1X568294Y238881D1*
G1X568840Y238131D1*
G1X569113Y237381D1*
G1X569113Y236256D1*
G1X568840Y235506D1*
G1X568567Y235131D1*
G1X567749Y234756D1*
G1X566658Y234756D1*
G1X565840Y235131D1*
G1X565567Y235506D1*
G1X565294Y236256D1*
G1X565294Y237381D1*
G1X565567Y238131D1*
G1X566113Y238881D1*
G1X566931Y239256D1*
G1X568022Y239631D1*
G1X568567Y240006D1*
G1X568840Y240756D1*
G1X568840Y241506D1*
G1X568567Y242256D1*
G1X567749Y242631D1*
G1X566658Y242631D1*
G1X596340Y234756D2*
G1X608340Y246756D1*
G1X608340Y234756D1*
G1X596340Y246756D1*
G1X596340Y234756D1*
G1X628976Y242631D2*
G1X631158Y238881D1*
G1X631158Y234756D1*
G1X633340Y242631D2*
G1X631158Y238881D1*
G1X635794Y242631D2*
G1X635794Y234756D1*
G1X635794Y242631D2*
G1X639340Y242631D1*
G1X635794Y238881D2*
G1X637976Y238881D1*
G1X635794Y234756D2*
G1X639340Y234756D1*
G1X645613Y241506D2*
G1X645067Y242256D1*
G1X644249Y242631D1*
G1X643158Y242631D1*
G1X642340Y242256D1*
G1X641794Y241506D1*
G1X641794Y240756D1*
G1X642067Y240006D1*
G1X642340Y239631D1*
G1X642885Y239256D1*
G1X644522Y238506D1*
G1X645067Y238131D1*
G1X645340Y237756D1*
G1X645613Y237006D1*
G1X645613Y235881D1*
G1X645067Y235131D1*
G1X644249Y234756D1*
G1X643158Y234756D1*
G1X642340Y235131D1*
G1X641794Y235881D1*
G1X682158Y241506D2*
G1X682158Y234756D1*
G1X679704Y238131D2*
G1X684613Y238131D1*
G1X691976Y244131D2*
G1X687067Y232131D1*
G1X694431Y238131D2*
G1X699340Y238131D1*
G1X703431Y242631D2*
G1X702613Y242256D1*
G1X702067Y241131D1*
G1X701794Y239256D1*
G1X701794Y238131D1*
G1X702067Y236256D1*
G1X702613Y235131D1*
G1X703431Y234756D1*
G1X703976Y234756D1*
G1X704794Y235131D1*
G1X705340Y236256D1*
G1X705613Y238131D1*
G1X705613Y239256D1*
G1X705340Y241131D1*
G1X704794Y242256D1*
G1X703976Y242631D1*
G1X703431Y242631D1*
G1X708340Y235506D2*
G1X708067Y235131D1*
G1X708340Y234756D1*
G1X708613Y235131D1*
G1X708340Y235506D1*
G1X712704Y242631D2*
G1X711885Y242256D1*
G1X711340Y241131D1*
G1X711067Y239256D1*
G1X711067Y238131D1*
G1X711340Y236256D1*
G1X711885Y235131D1*
G1X712704Y234756D1*
G1X713249Y234756D1*
G1X714067Y235131D1*
G1X714613Y236256D1*
G1X714885Y238131D1*
G1X714885Y239256D1*
G1X714613Y241131D1*
G1X714067Y242256D1*
G1X713249Y242631D1*
G1X712704Y242631D1*
G1X470340Y217131D2*
G1X470885Y217506D1*
G1X471704Y218631D1*
G1X471704Y210756D1*
G1X474431Y211506D2*
G1X474158Y211131D1*
G1X474431Y210756D1*
G1X474704Y211131D1*
G1X474431Y211506D1*
G1X478522Y218631D2*
G1X477704Y218256D1*
G1X477431Y217506D1*
G1X477431Y216756D1*
G1X477704Y216006D1*
G1X478249Y215631D1*
G1X479340Y215256D1*
G1X480158Y214881D1*
G1X480704Y214131D1*
G1X480976Y213381D1*
G1X480976Y212256D1*
G1X480704Y211506D1*
G1X480431Y211131D1*
G1X479613Y210756D1*
G1X478522Y210756D1*
G1X477704Y211131D1*
G1X477431Y211506D1*
G1X477158Y212256D1*
G1X477158Y213381D1*
G1X477431Y214131D1*
G1X477976Y214881D1*
G1X478794Y215256D1*
G1X479885Y215631D1*
G1X480431Y216006D1*
G1X480704Y216756D1*
G1X480704Y217506D1*
G1X480431Y218256D1*
G1X479613Y218631D1*
G1X478522Y218631D1*
G1X563658Y216756D2*
G1X563658Y217131D1*
G1X563931Y217881D1*
G1X564204Y218256D1*
G1X564749Y218631D1*
G1X565840Y218631D1*
G1X566385Y218256D1*
G1X566658Y217881D1*
G1X566931Y217131D1*
G1X566931Y216381D1*
G1X566658Y215631D1*
G1X566113Y214506D1*
G1X563385Y210756D1*
G1X567204Y210756D1*
G1X596340Y216756D2*
G1X608340Y216756D1*
G1X602340Y210756D2*
G1X602340Y222756D1*
G1X607085Y226056D2*
G1X605340Y219756D1*
G1X607085Y226056D2*
G1X608831Y219756D1*
G1X605994Y221856D2*
G1X608176Y221856D1*
G1X628976Y218631D2*
G1X631158Y214881D1*
G1X631158Y210756D1*
G1X633340Y218631D2*
G1X631158Y214881D1*
G1X635794Y218631D2*
G1X635794Y210756D1*
G1X635794Y218631D2*
G1X639340Y218631D1*
G1X635794Y214881D2*
G1X637976Y214881D1*
G1X635794Y210756D2*
G1X639340Y210756D1*
G1X645613Y217506D2*
G1X645067Y218256D1*
G1X644249Y218631D1*
G1X643158Y218631D1*
G1X642340Y218256D1*
G1X641794Y217506D1*
G1X641794Y216756D1*
G1X642067Y216006D1*
G1X642340Y215631D1*
G1X642885Y215256D1*
G1X644522Y214506D1*
G1X645067Y214131D1*
G1X645340Y213756D1*
G1X645613Y213006D1*
G1X645613Y211881D1*
G1X645067Y211131D1*
G1X644249Y210756D1*
G1X643158Y210756D1*
G1X642340Y211131D1*
G1X641794Y211881D1*
G1X682158Y217506D2*
G1X682158Y210756D1*
G1X679704Y214131D2*
G1X684613Y214131D1*
G1X691976Y220131D2*
G1X687067Y208131D1*
G1X694431Y214131D2*
G1X699340Y214131D1*
G1X703431Y218631D2*
G1X702613Y218256D1*
G1X702067Y217131D1*
G1X701794Y215256D1*
G1X701794Y214131D1*
G1X702067Y212256D1*
G1X702613Y211131D1*
G1X703431Y210756D1*
G1X703976Y210756D1*
G1X704794Y211131D1*
G1X705340Y212256D1*
G1X705613Y214131D1*
G1X705613Y215256D1*
G1X705340Y217131D1*
G1X704794Y218256D1*
G1X703976Y218631D1*
G1X703431Y218631D1*
G1X708340Y211506D2*
G1X708067Y211131D1*
G1X708340Y210756D1*
G1X708613Y211131D1*
G1X708340Y211506D1*
G1X712704Y218631D2*
G1X711885Y218256D1*
G1X711340Y217131D1*
G1X711067Y215256D1*
G1X711067Y214131D1*
G1X711340Y212256D1*
G1X711885Y211131D1*
G1X712704Y210756D1*
G1X713249Y210756D1*
G1X714067Y211131D1*
G1X714613Y212256D1*
G1X714885Y214131D1*
G1X714885Y215256D1*
G1X714613Y217131D1*
G1X714067Y218256D1*
G1X713249Y218631D1*
G1X712704Y218631D1*
G1X470340Y193131D2*
G1X470885Y193506D1*
G1X471704Y194631D1*
G1X471704Y186756D1*
G1X563658Y192756D2*
G1X563658Y193131D1*
G1X563931Y193881D1*
G1X564204Y194256D1*
G1X564749Y194631D1*
G1X565840Y194631D1*
G1X566385Y194256D1*
G1X566658Y193881D1*
G1X566931Y193131D1*
G1X566931Y192381D1*
G1X566658Y191631D1*
G1X566113Y190506D1*
G1X563385Y186756D1*
G1X567204Y186756D1*
G1X596340Y192756D2*
G1X608340Y192756D1*
G1X602340Y186756D2*
G1X602340Y198756D1*
G1X605340Y202056D2*
G1X605340Y195756D1*
G1X605340Y202056D2*
G1X607304Y202056D1*
G1X607958Y201756D1*
G1X608176Y201456D1*
G1X608394Y200856D1*
G1X608394Y200256D1*
G1X608176Y199656D1*
G1X607958Y199356D1*
G1X607304Y199056D1*
G1X605340Y199056D2*
G1X607304Y199056D1*
G1X607958Y198756D1*
G1X608176Y198456D1*
G1X608394Y197856D1*
G1X608394Y196956D1*
G1X608176Y196356D1*
G1X607958Y196056D1*
G1X607304Y195756D1*
G1X605340Y195756D1*
G1X628976Y194631D2*
G1X631158Y190881D1*
G1X631158Y186756D1*
G1X633340Y194631D2*
G1X631158Y190881D1*
G1X635794Y194631D2*
G1X635794Y186756D1*
G1X635794Y194631D2*
G1X639340Y194631D1*
G1X635794Y190881D2*
G1X637976Y190881D1*
G1X635794Y186756D2*
G1X639340Y186756D1*
G1X645613Y193506D2*
G1X645067Y194256D1*
G1X644249Y194631D1*
G1X643158Y194631D1*
G1X642340Y194256D1*
G1X641794Y193506D1*
G1X641794Y192756D1*
G1X642067Y192006D1*
G1X642340Y191631D1*
G1X642885Y191256D1*
G1X644522Y190506D1*
G1X645067Y190131D1*
G1X645340Y189756D1*
G1X645613Y189006D1*
G1X645613Y187881D1*
G1X645067Y187131D1*
G1X644249Y186756D1*
G1X643158Y186756D1*
G1X642340Y187131D1*
G1X641794Y187881D1*
G1X682158Y193506D2*
G1X682158Y186756D1*
G1X679704Y190131D2*
G1X684613Y190131D1*
G1X691976Y196131D2*
G1X687067Y184131D1*
G1X694431Y190131D2*
G1X699340Y190131D1*
G1X703431Y194631D2*
G1X702613Y194256D1*
G1X702067Y193131D1*
G1X701794Y191256D1*
G1X701794Y190131D1*
G1X702067Y188256D1*
G1X702613Y187131D1*
G1X703431Y186756D1*
G1X703976Y186756D1*
G1X704794Y187131D1*
G1X705340Y188256D1*
G1X705613Y190131D1*
G1X705613Y191256D1*
G1X705340Y193131D1*
G1X704794Y194256D1*
G1X703976Y194631D1*
G1X703431Y194631D1*
G1X708340Y187506D2*
G1X708067Y187131D1*
G1X708340Y186756D1*
G1X708613Y187131D1*
G1X708340Y187506D1*
G1X712704Y194631D2*
G1X711885Y194256D1*
G1X711340Y193131D1*
G1X711067Y191256D1*
G1X711067Y190131D1*
G1X711340Y188256D1*
G1X711885Y187131D1*
G1X712704Y186756D1*
G1X713249Y186756D1*
G1X714067Y187131D1*
G1X714613Y188256D1*
G1X714885Y190131D1*
G1X714885Y191256D1*
G1X714613Y193131D1*
G1X714067Y194256D1*
G1X713249Y194631D1*
G1X712704Y194631D1*
G1X471976Y170631D2*
G1X471158Y170256D1*
G1X470613Y169131D1*
G1X470340Y167256D1*
G1X470340Y166131D1*
G1X470613Y164256D1*
G1X471158Y163131D1*
G1X471976Y162756D1*
G1X472522Y162756D1*
G1X473340Y163131D1*
G1X473885Y164256D1*
G1X474158Y166131D1*
G1X474158Y167256D1*
G1X473885Y169131D1*
G1X473340Y170256D1*
G1X472522Y170631D1*
G1X471976Y170631D1*
G1X476885Y163506D2*
G1X476613Y163131D1*
G1X476885Y162756D1*
G1X477158Y163131D1*
G1X476885Y163506D1*
G1X480976Y170631D2*
G1X480158Y170256D1*
G1X479885Y169506D1*
G1X479885Y168756D1*
G1X480158Y168006D1*
G1X480704Y167631D1*
G1X481794Y167256D1*
G1X482613Y166881D1*
G1X483158Y166131D1*
G1X483431Y165381D1*
G1X483431Y164256D1*
G1X483158Y163506D1*
G1X482885Y163131D1*
G1X482067Y162756D1*
G1X480976Y162756D1*
G1X480158Y163131D1*
G1X479885Y163506D1*
G1X479613Y164256D1*
G1X479613Y165381D1*
G1X479885Y166131D1*
G1X480431Y166881D1*
G1X481249Y167256D1*
G1X482340Y167631D1*
G1X482885Y168006D1*
G1X483158Y168756D1*
G1X483158Y169506D1*
G1X482885Y170256D1*
G1X482067Y170631D1*
G1X480976Y170631D1*
G1X565976Y170631D2*
G1X563249Y165381D1*
G1X567340Y165381D1*
G1X565976Y170631D2*
G1X565976Y162756D1*
G1X596340Y168756D2*
G1X608340Y168756D1*
G1X602340Y162756D2*
G1X602340Y174756D1*
G1X608613Y176556D2*
G1X608394Y177156D1*
G1X607958Y177756D1*
G1X607522Y178056D1*
G1X606649Y178056D1*
G1X606213Y177756D1*
G1X605776Y177156D1*
G1X605558Y176556D1*
G1X605340Y175656D1*
G1X605340Y174156D1*
G1X605558Y173256D1*
G1X605776Y172656D1*
G1X606213Y172056D1*
G1X606649Y171756D1*
G1X607522Y171756D1*
G1X607958Y172056D1*
G1X608394Y172656D1*
G1X608613Y173256D1*
G1X628976Y170631D2*
G1X631158Y166881D1*
G1X631158Y162756D1*
G1X633340Y170631D2*
G1X631158Y166881D1*
G1X635794Y170631D2*
G1X635794Y162756D1*
G1X635794Y170631D2*
G1X639340Y170631D1*
G1X635794Y166881D2*
G1X637976Y166881D1*
G1X635794Y162756D2*
G1X639340Y162756D1*
G1X645613Y169506D2*
G1X645067Y170256D1*
G1X644249Y170631D1*
G1X643158Y170631D1*
G1X642340Y170256D1*
G1X641794Y169506D1*
G1X641794Y168756D1*
G1X642067Y168006D1*
G1X642340Y167631D1*
G1X642885Y167256D1*
G1X644522Y166506D1*
G1X645067Y166131D1*
G1X645340Y165756D1*
G1X645613Y165006D1*
G1X645613Y163881D1*
G1X645067Y163131D1*
G1X644249Y162756D1*
G1X643158Y162756D1*
G1X642340Y163131D1*
G1X641794Y163881D1*
G1X682158Y169506D2*
G1X682158Y162756D1*
G1X679704Y166131D2*
G1X684613Y166131D1*
G1X691976Y172131D2*
G1X687067Y160131D1*
G1X694431Y166131D2*
G1X699340Y166131D1*
G1X703431Y170631D2*
G1X702613Y170256D1*
G1X702067Y169131D1*
G1X701794Y167256D1*
G1X701794Y166131D1*
G1X702067Y164256D1*
G1X702613Y163131D1*
G1X703431Y162756D1*
G1X703976Y162756D1*
G1X704794Y163131D1*
G1X705340Y164256D1*
G1X705613Y166131D1*
G1X705613Y167256D1*
G1X705340Y169131D1*
G1X704794Y170256D1*
G1X703976Y170631D1*
G1X703431Y170631D1*
G1X708340Y163506D2*
G1X708067Y163131D1*
G1X708340Y162756D1*
G1X708613Y163131D1*
G1X708340Y163506D1*
G1X712704Y170631D2*
G1X711885Y170256D1*
G1X711340Y169131D1*
G1X711067Y167256D1*
G1X711067Y166131D1*
G1X711340Y164256D1*
G1X711885Y163131D1*
G1X712704Y162756D1*
G1X713249Y162756D1*
G1X714067Y163131D1*
G1X714613Y164256D1*
G1X714885Y166131D1*
G1X714885Y167256D1*
G1X714613Y169131D1*
G1X714067Y170256D1*
G1X713249Y170631D1*
G1X712704Y170631D1*
G1X470613Y144756D2*
G1X470613Y145131D1*
G1X470885Y145881D1*
G1X471158Y146256D1*
G1X471704Y146631D1*
G1X472794Y146631D1*
G1X473340Y146256D1*
G1X473613Y145881D1*
G1X473885Y145131D1*
G1X473885Y144381D1*
G1X473613Y143631D1*
G1X473067Y142506D1*
G1X470340Y138756D1*
G1X474158Y138756D1*
G1X476885Y139506D2*
G1X476613Y139131D1*
G1X476885Y138756D1*
G1X477158Y139131D1*
G1X476885Y139506D1*
G1X482340Y146631D2*
G1X479613Y141381D1*
G1X483704Y141381D1*
G1X482340Y146631D2*
G1X482340Y138756D1*
G1X489431Y145506D2*
G1X489158Y146256D1*
G1X488340Y146631D1*
G1X487794Y146631D1*
G1X486976Y146256D1*
G1X486431Y145131D1*
G1X486158Y143256D1*
G1X486158Y141381D1*
G1X486431Y139881D1*
G1X486976Y139131D1*
G1X487794Y138756D1*
G1X488067Y138756D1*
G1X488885Y139131D1*
G1X489431Y139881D1*
G1X489704Y141006D1*
G1X489704Y141381D1*
G1X489431Y142506D1*
G1X488885Y143256D1*
G1X488067Y143631D1*
G1X487794Y143631D1*
G1X486976Y143256D1*
G1X486431Y142506D1*
G1X486158Y141381D1*
G1X492704Y146631D2*
G1X495704Y146631D1*
G1X494067Y143631D1*
G1X494885Y143631D1*
G1X495431Y143256D1*
G1X495704Y142881D1*
G1X495976Y141756D1*
G1X495976Y141006D1*
G1X495704Y139881D1*
G1X495158Y139131D1*
G1X494340Y138756D1*
G1X493522Y138756D1*
G1X492704Y139131D1*
G1X492431Y139506D1*
G1X492158Y140256D1*
G1X499794Y146631D2*
G1X498976Y146256D1*
G1X498704Y145506D1*
G1X498704Y144756D1*
G1X498976Y144006D1*
G1X499522Y143631D1*
G1X500613Y143256D1*
G1X501431Y142881D1*
G1X501976Y142131D1*
G1X502249Y141381D1*
G1X502249Y140256D1*
G1X501976Y139506D1*
G1X501704Y139131D1*
G1X500885Y138756D1*
G1X499794Y138756D1*
G1X498976Y139131D1*
G1X498704Y139506D1*
G1X498431Y140256D1*
G1X498431Y141381D1*
G1X498704Y142131D1*
G1X499249Y142881D1*
G1X500067Y143256D1*
G1X501158Y143631D1*
G1X501704Y144006D1*
G1X501976Y144756D1*
G1X501976Y145506D1*
G1X501704Y146256D1*
G1X500885Y146631D1*
G1X499794Y146631D1*
G1X563658Y144756D2*
G1X563658Y145131D1*
G1X563931Y145881D1*
G1X564204Y146256D1*
G1X564749Y146631D1*
G1X565840Y146631D1*
G1X566385Y146256D1*
G1X566658Y145881D1*
G1X566931Y145131D1*
G1X566931Y144381D1*
G1X566658Y143631D1*
G1X566113Y142506D1*
G1X563385Y138756D1*
G1X567204Y138756D1*
G1X596340Y144756D2*
G1X608340Y144756D1*
G1X602340Y138756D2*
G1X602340Y150756D1*
G1X605340Y154056D2*
G1X605340Y147756D1*
G1X605340Y154056D2*
G1X606867Y154056D1*
G1X607522Y153756D1*
G1X607958Y153156D1*
G1X608176Y152556D1*
G1X608394Y151656D1*
G1X608394Y150156D1*
G1X608176Y149256D1*
G1X607958Y148656D1*
G1X607522Y148056D1*
G1X606867Y147756D1*
G1X605340Y147756D1*
G1X628976Y146631D2*
G1X631158Y142881D1*
G1X631158Y138756D1*
G1X633340Y146631D2*
G1X631158Y142881D1*
G1X635794Y146631D2*
G1X635794Y138756D1*
G1X635794Y146631D2*
G1X639340Y146631D1*
G1X635794Y142881D2*
G1X637976Y142881D1*
G1X635794Y138756D2*
G1X639340Y138756D1*
G1X645613Y145506D2*
G1X645067Y146256D1*
G1X644249Y146631D1*
G1X643158Y146631D1*
G1X642340Y146256D1*
G1X641794Y145506D1*
G1X641794Y144756D1*
G1X642067Y144006D1*
G1X642340Y143631D1*
G1X642885Y143256D1*
G1X644522Y142506D1*
G1X645067Y142131D1*
G1X645340Y141756D1*
G1X645613Y141006D1*
G1X645613Y139881D1*
G1X645067Y139131D1*
G1X644249Y138756D1*
G1X643158Y138756D1*
G1X642340Y139131D1*
G1X641794Y139881D1*
G1X682158Y145506D2*
G1X682158Y138756D1*
G1X679704Y142131D2*
G1X684613Y142131D1*
G1X691976Y148131D2*
G1X687067Y136131D1*
G1X694431Y142131D2*
G1X699340Y142131D1*
G1X703431Y146631D2*
G1X702613Y146256D1*
G1X702067Y145131D1*
G1X701794Y143256D1*
G1X701794Y142131D1*
G1X702067Y140256D1*
G1X702613Y139131D1*
G1X703431Y138756D1*
G1X703976Y138756D1*
G1X704794Y139131D1*
G1X705340Y140256D1*
G1X705613Y142131D1*
G1X705613Y143256D1*
G1X705340Y145131D1*
G1X704794Y146256D1*
G1X703976Y146631D1*
G1X703431Y146631D1*
G1X708340Y139506D2*
G1X708067Y139131D1*
G1X708340Y138756D1*
G1X708613Y139131D1*
G1X708340Y139506D1*
G1X712704Y146631D2*
G1X711885Y146256D1*
G1X711340Y145131D1*
G1X711067Y143256D1*
G1X711067Y142131D1*
G1X711340Y140256D1*
G1X711885Y139131D1*
G1X712704Y138756D1*
G1X713249Y138756D1*
G1X714067Y139131D1*
G1X714613Y140256D1*
G1X714885Y142131D1*
G1X714885Y143256D1*
G1X714613Y145131D1*
G1X714067Y146256D1*
G1X713249Y146631D1*
G1X712704Y146631D1*
G1X470340Y121131D2*
G1X470885Y121506D1*
G1X471704Y122631D1*
G1X471704Y114756D1*
G1X474431Y115506D2*
G1X474158Y115131D1*
G1X474431Y114756D1*
G1X474704Y115131D1*
G1X474431Y115506D1*
G1X480704Y122631D2*
G1X477976Y122631D1*
G1X477704Y119256D1*
G1X477976Y119631D1*
G1X478794Y120006D1*
G1X479613Y120006D1*
G1X480431Y119631D1*
G1X480976Y118881D1*
G1X481249Y117756D1*
G1X480976Y117006D1*
G1X480704Y115881D1*
G1X480158Y115131D1*
G1X479340Y114756D1*
G1X478522Y114756D1*
G1X477704Y115131D1*
G1X477431Y115506D1*
G1X477158Y116256D1*
G1X565976Y122631D2*
G1X563249Y117381D1*
G1X567340Y117381D1*
G1X565976Y122631D2*
G1X565976Y114756D1*
G1X596340Y120756D2*
G1X608340Y120756D1*
G1X602340Y114756D2*
G1X602340Y126756D1*
G1X605340Y130056D2*
G1X605340Y123756D1*
G1X605340Y130056D2*
G1X608176Y130056D1*
G1X605340Y127056D2*
G1X607085Y127056D1*
G1X605340Y123756D2*
G1X608176Y123756D1*
G1X628976Y122631D2*
G1X631158Y118881D1*
G1X631158Y114756D1*
G1X633340Y122631D2*
G1X631158Y118881D1*
G1X635794Y122631D2*
G1X635794Y114756D1*
G1X635794Y122631D2*
G1X639340Y122631D1*
G1X635794Y118881D2*
G1X637976Y118881D1*
G1X635794Y114756D2*
G1X639340Y114756D1*
G1X645613Y121506D2*
G1X645067Y122256D1*
G1X644249Y122631D1*
G1X643158Y122631D1*
G1X642340Y122256D1*
G1X641794Y121506D1*
G1X641794Y120756D1*
G1X642067Y120006D1*
G1X642340Y119631D1*
G1X642885Y119256D1*
G1X644522Y118506D1*
G1X645067Y118131D1*
G1X645340Y117756D1*
G1X645613Y117006D1*
G1X645613Y115881D1*
G1X645067Y115131D1*
G1X644249Y114756D1*
G1X643158Y114756D1*
G1X642340Y115131D1*
G1X641794Y115881D1*
G1X682158Y121506D2*
G1X682158Y114756D1*
G1X679704Y118131D2*
G1X684613Y118131D1*
G1X691976Y124131D2*
G1X687067Y112131D1*
G1X694431Y118131D2*
G1X699340Y118131D1*
G1X703431Y122631D2*
G1X702613Y122256D1*
G1X702067Y121131D1*
G1X701794Y119256D1*
G1X701794Y118131D1*
G1X702067Y116256D1*
G1X702613Y115131D1*
G1X703431Y114756D1*
G1X703976Y114756D1*
G1X704794Y115131D1*
G1X705340Y116256D1*
G1X705613Y118131D1*
G1X705613Y119256D1*
G1X705340Y121131D1*
G1X704794Y122256D1*
G1X703976Y122631D1*
G1X703431Y122631D1*
G1X708340Y115506D2*
G1X708067Y115131D1*
G1X708340Y114756D1*
G1X708613Y115131D1*
G1X708340Y115506D1*
G1X712704Y122631D2*
G1X711885Y122256D1*
G1X711340Y121131D1*
G1X711067Y119256D1*
G1X711067Y118131D1*
G1X711340Y116256D1*
G1X711885Y115131D1*
G1X712704Y114756D1*
G1X713249Y114756D1*
G1X714067Y115131D1*
G1X714613Y116256D1*
G1X714885Y118131D1*
G1X714885Y119256D1*
G1X714613Y121131D1*
G1X714067Y122256D1*
G1X713249Y122631D1*
G1X712704Y122631D1*
G1X470613Y96756D2*
G1X470613Y97131D1*
G1X470885Y97881D1*
G1X471158Y98256D1*
G1X471704Y98631D1*
G1X472794Y98631D1*
G1X473340Y98256D1*
G1X473613Y97881D1*
G1X473885Y97131D1*
G1X473885Y96381D1*
G1X473613Y95631D1*
G1X473067Y94506D1*
G1X470340Y90756D1*
G1X474158Y90756D1*
G1X476885Y91506D2*
G1X476613Y91131D1*
G1X476885Y90756D1*
G1X477158Y91131D1*
G1X476885Y91506D1*
G1X483431Y98631D2*
G1X480704Y90756D1*
G1X479613Y98631D2*
G1X483431Y98631D1*
G1X564613Y97131D2*
G1X565158Y97506D1*
G1X565976Y98631D1*
G1X565976Y90756D1*
G1X596340Y96756D2*
G1X608340Y96756D1*
G1X602340Y90756D2*
G1X602340Y102756D1*
G1X605340Y106056D2*
G1X605340Y99756D1*
G1X605340Y106056D2*
G1X608176Y106056D1*
G1X605340Y103056D2*
G1X607085Y103056D1*
G1X628976Y98631D2*
G1X631158Y94881D1*
G1X631158Y90756D1*
G1X633340Y98631D2*
G1X631158Y94881D1*
G1X635794Y98631D2*
G1X635794Y90756D1*
G1X635794Y98631D2*
G1X639340Y98631D1*
G1X635794Y94881D2*
G1X637976Y94881D1*
G1X635794Y90756D2*
G1X639340Y90756D1*
G1X645613Y97506D2*
G1X645067Y98256D1*
G1X644249Y98631D1*
G1X643158Y98631D1*
G1X642340Y98256D1*
G1X641794Y97506D1*
G1X641794Y96756D1*
G1X642067Y96006D1*
G1X642340Y95631D1*
G1X642885Y95256D1*
G1X644522Y94506D1*
G1X645067Y94131D1*
G1X645340Y93756D1*
G1X645613Y93006D1*
G1X645613Y91881D1*
G1X645067Y91131D1*
G1X644249Y90756D1*
G1X643158Y90756D1*
G1X642340Y91131D1*
G1X641794Y91881D1*
G1X682158Y97506D2*
G1X682158Y90756D1*
G1X679704Y94131D2*
G1X684613Y94131D1*
G1X691976Y100131D2*
G1X687067Y88131D1*
G1X694431Y94131D2*
G1X699340Y94131D1*
G1X703431Y98631D2*
G1X702613Y98256D1*
G1X702067Y97131D1*
G1X701794Y95256D1*
G1X701794Y94131D1*
G1X702067Y92256D1*
G1X702613Y91131D1*
G1X703431Y90756D1*
G1X703976Y90756D1*
G1X704794Y91131D1*
G1X705340Y92256D1*
G1X705613Y94131D1*
G1X705613Y95256D1*
G1X705340Y97131D1*
G1X704794Y98256D1*
G1X703976Y98631D1*
G1X703431Y98631D1*
G1X708340Y91506D2*
G1X708067Y91131D1*
G1X708340Y90756D1*
G1X708613Y91131D1*
G1X708340Y91506D1*
G1X712704Y98631D2*
G1X711885Y98256D1*
G1X711340Y97131D1*
G1X711067Y95256D1*
G1X711067Y94131D1*
G1X711340Y92256D1*
G1X711885Y91131D1*
G1X712704Y90756D1*
G1X713249Y90756D1*
G1X714067Y91131D1*
G1X714613Y92256D1*
G1X714885Y94131D1*
G1X714885Y95256D1*
G1X714613Y97131D1*
G1X714067Y98256D1*
G1X713249Y98631D1*
G1X712704Y98631D1*
G1X470340Y73131D2*
G1X470885Y73506D1*
G1X471704Y74631D1*
G1X471704Y66756D1*
G1X474431Y67506D2*
G1X474158Y67131D1*
G1X474431Y66756D1*
G1X474704Y67131D1*
G1X474431Y67506D1*
G1X480431Y73506D2*
G1X480158Y74256D1*
G1X479340Y74631D1*
G1X478794Y74631D1*
G1X477976Y74256D1*
G1X477431Y73131D1*
G1X477158Y71256D1*
G1X477158Y69381D1*
G1X477431Y67881D1*
G1X477976Y67131D1*
G1X478794Y66756D1*
G1X479067Y66756D1*
G1X479885Y67131D1*
G1X480431Y67881D1*
G1X480704Y69006D1*
G1X480704Y69381D1*
G1X480431Y70506D1*
G1X479885Y71256D1*
G1X479067Y71631D1*
G1X478794Y71631D1*
G1X477976Y71256D1*
G1X477431Y70506D1*
G1X477158Y69381D1*
G1X565976Y74631D2*
G1X563249Y69381D1*
G1X567340Y69381D1*
G1X565976Y74631D2*
G1X565976Y66756D1*
G1X596340Y72756D2*
G1X608340Y72756D1*
G1X602340Y66756D2*
G1X602340Y78756D1*
G1X608613Y80556D2*
G1X608394Y81156D1*
G1X607958Y81756D1*
G1X607522Y82056D1*
G1X606649Y82056D1*
G1X606213Y81756D1*
G1X605776Y81156D1*
G1X605558Y80556D1*
G1X605340Y79656D1*
G1X605340Y78156D1*
G1X605558Y77256D1*
G1X605776Y76656D1*
G1X606213Y76056D1*
G1X606649Y75756D1*
G1X607522Y75756D1*
G1X607958Y76056D1*
G1X608394Y76656D1*
G1X608613Y77256D1*
G1X608613Y78156D1*
G1X607522Y78156D2*
G1X608613Y78156D1*
G1X628976Y74631D2*
G1X631158Y70881D1*
G1X631158Y66756D1*
G1X633340Y74631D2*
G1X631158Y70881D1*
G1X635794Y74631D2*
G1X635794Y66756D1*
G1X635794Y74631D2*
G1X639340Y74631D1*
G1X635794Y70881D2*
G1X637976Y70881D1*
G1X635794Y66756D2*
G1X639340Y66756D1*
G1X645613Y73506D2*
G1X645067Y74256D1*
G1X644249Y74631D1*
G1X643158Y74631D1*
G1X642340Y74256D1*
G1X641794Y73506D1*
G1X641794Y72756D1*
G1X642067Y72006D1*
G1X642340Y71631D1*
G1X642885Y71256D1*
G1X644522Y70506D1*
G1X645067Y70131D1*
G1X645340Y69756D1*
G1X645613Y69006D1*
G1X645613Y67881D1*
G1X645067Y67131D1*
G1X644249Y66756D1*
G1X643158Y66756D1*
G1X642340Y67131D1*
G1X641794Y67881D1*
G1X682158Y73506D2*
G1X682158Y66756D1*
G1X679704Y70131D2*
G1X684613Y70131D1*
G1X691976Y76131D2*
G1X687067Y64131D1*
G1X694431Y70131D2*
G1X699340Y70131D1*
G1X703431Y74631D2*
G1X702613Y74256D1*
G1X702067Y73131D1*
G1X701794Y71256D1*
G1X701794Y70131D1*
G1X702067Y68256D1*
G1X702613Y67131D1*
G1X703431Y66756D1*
G1X703976Y66756D1*
G1X704794Y67131D1*
G1X705340Y68256D1*
G1X705613Y70131D1*
G1X705613Y71256D1*
G1X705340Y73131D1*
G1X704794Y74256D1*
G1X703976Y74631D1*
G1X703431Y74631D1*
G1X708340Y67506D2*
G1X708067Y67131D1*
G1X708340Y66756D1*
G1X708613Y67131D1*
G1X708340Y67506D1*
G1X712704Y74631D2*
G1X711885Y74256D1*
G1X711340Y73131D1*
G1X711067Y71256D1*
G1X711067Y70131D1*
G1X711340Y68256D1*
G1X711885Y67131D1*
G1X712704Y66756D1*
G1X713249Y66756D1*
G1X714067Y67131D1*
G1X714613Y68256D1*
G1X714885Y70131D1*
G1X714885Y71256D1*
G1X714613Y73131D1*
G1X714067Y74256D1*
G1X713249Y74631D1*
G1X712704Y74631D1*
G1X470613Y48756D2*
G1X470613Y49131D1*
G1X470885Y49881D1*
G1X471158Y50256D1*
G1X471704Y50631D1*
G1X472794Y50631D1*
G1X473340Y50256D1*
G1X473613Y49881D1*
G1X473885Y49131D1*
G1X473885Y48381D1*
G1X473613Y47631D1*
G1X473067Y46506D1*
G1X470340Y42756D1*
G1X474158Y42756D1*
G1X563931Y50631D2*
G1X566931Y50631D1*
G1X565294Y47631D1*
G1X566113Y47631D1*
G1X566658Y47256D1*
G1X566931Y46881D1*
G1X567204Y45756D1*
G1X567204Y45006D1*
G1X566931Y43881D1*
G1X566385Y43131D1*
G1X565567Y42756D1*
G1X564749Y42756D1*
G1X563931Y43131D1*
G1X563658Y43506D1*
G1X563385Y44256D1*
G1X596340Y48756D2*
G1X608340Y48756D1*
G1X602340Y42756D2*
G1X602340Y54756D1*
G1X605340Y58056D2*
G1X605340Y51756D1*
G1X608394Y58056D2*
G1X608394Y51756D1*
G1X605340Y55056D2*
G1X608394Y55056D1*
G1X628976Y50631D2*
G1X631158Y46881D1*
G1X631158Y42756D1*
G1X633340Y50631D2*
G1X631158Y46881D1*
G1X635794Y50631D2*
G1X635794Y42756D1*
G1X635794Y50631D2*
G1X639340Y50631D1*
G1X635794Y46881D2*
G1X637976Y46881D1*
G1X635794Y42756D2*
G1X639340Y42756D1*
G1X645613Y49506D2*
G1X645067Y50256D1*
G1X644249Y50631D1*
G1X643158Y50631D1*
G1X642340Y50256D1*
G1X641794Y49506D1*
G1X641794Y48756D1*
G1X642067Y48006D1*
G1X642340Y47631D1*
G1X642885Y47256D1*
G1X644522Y46506D1*
G1X645067Y46131D1*
G1X645340Y45756D1*
G1X645613Y45006D1*
G1X645613Y43881D1*
G1X645067Y43131D1*
G1X644249Y42756D1*
G1X643158Y42756D1*
G1X642340Y43131D1*
G1X641794Y43881D1*
G1X682158Y49506D2*
G1X682158Y42756D1*
G1X679704Y46131D2*
G1X684613Y46131D1*
G1X691976Y52131D2*
G1X687067Y40131D1*
G1X694431Y46131D2*
G1X699340Y46131D1*
G1X703431Y50631D2*
G1X702613Y50256D1*
G1X702067Y49131D1*
G1X701794Y47256D1*
G1X701794Y46131D1*
G1X702067Y44256D1*
G1X702613Y43131D1*
G1X703431Y42756D1*
G1X703976Y42756D1*
G1X704794Y43131D1*
G1X705340Y44256D1*
G1X705613Y46131D1*
G1X705613Y47256D1*
G1X705340Y49131D1*
G1X704794Y50256D1*
G1X703976Y50631D1*
G1X703431Y50631D1*
G1X708340Y43506D2*
G1X708067Y43131D1*
G1X708340Y42756D1*
G1X708613Y43131D1*
G1X708340Y43506D1*
G1X712704Y50631D2*
G1X711885Y50256D1*
G1X711340Y49131D1*
G1X711067Y47256D1*
G1X711067Y46131D1*
G1X711340Y44256D1*
G1X711885Y43131D1*
G1X712704Y42756D1*
G1X713249Y42756D1*
G1X714067Y43131D1*
G1X714613Y44256D1*
G1X714885Y46131D1*
G1X714885Y47256D1*
G1X714613Y49131D1*
G1X714067Y50256D1*
G1X713249Y50631D1*
G1X712704Y50631D1*
G1X471976Y26631D2*
G1X471158Y26256D1*
G1X470613Y25131D1*
G1X470340Y23256D1*
G1X470340Y22131D1*
G1X470613Y20256D1*
G1X471158Y19131D1*
G1X471976Y18756D1*
G1X472522Y18756D1*
G1X473340Y19131D1*
G1X473885Y20256D1*
G1X474158Y22131D1*
G1X474158Y23256D1*
G1X473885Y25131D1*
G1X473340Y26256D1*
G1X472522Y26631D1*
G1X471976Y26631D1*
G1X476885Y19506D2*
G1X476613Y19131D1*
G1X476885Y18756D1*
G1X477158Y19131D1*
G1X476885Y19506D1*
G1X483431Y26631D2*
G1X480704Y18756D1*
G1X479613Y26631D2*
G1X483431Y26631D1*
G1X558204Y25131D2*
G1X558749Y25506D1*
G1X559567Y26631D1*
G1X559567Y18756D1*
G1X562294Y24756D2*
G1X562294Y25131D1*
G1X562567Y25881D1*
G1X562840Y26256D1*
G1X563385Y26631D1*
G1X564476Y26631D1*
G1X565022Y26256D1*
G1X565294Y25881D1*
G1X565567Y25131D1*
G1X565567Y24381D1*
G1X565294Y23631D1*
G1X564749Y22506D1*
G1X562022Y18756D1*
G1X565840Y18756D1*
G1X571022Y26631D2*
G1X568294Y21381D1*
G1X572385Y21381D1*
G1X571022Y26631D2*
G1X571022Y18756D1*
G1X596340Y24756D2*
G1X608340Y24756D1*
G1X602340Y18756D2*
G1X602340Y30756D1*
G1X605340Y34056D2*
G1X605340Y27756D1*
G1X628976Y26631D2*
G1X631158Y22881D1*
G1X631158Y18756D1*
G1X633340Y26631D2*
G1X631158Y22881D1*
G1X635794Y26631D2*
G1X635794Y18756D1*
G1X635794Y26631D2*
G1X639340Y26631D1*
G1X635794Y22881D2*
G1X637976Y22881D1*
G1X635794Y18756D2*
G1X639340Y18756D1*
G1X645613Y25506D2*
G1X645067Y26256D1*
G1X644249Y26631D1*
G1X643158Y26631D1*
G1X642340Y26256D1*
G1X641794Y25506D1*
G1X641794Y24756D1*
G1X642067Y24006D1*
G1X642340Y23631D1*
G1X642885Y23256D1*
G1X644522Y22506D1*
G1X645067Y22131D1*
G1X645340Y21756D1*
G1X645613Y21006D1*
G1X645613Y19881D1*
G1X645067Y19131D1*
G1X644249Y18756D1*
G1X643158Y18756D1*
G1X642340Y19131D1*
G1X641794Y19881D1*
G1X682158Y25506D2*
G1X682158Y18756D1*
G1X679704Y22131D2*
G1X684613Y22131D1*
G1X691976Y28131D2*
G1X687067Y16131D1*
G1X694431Y22131D2*
G1X699340Y22131D1*
G1X703431Y26631D2*
G1X702613Y26256D1*
G1X702067Y25131D1*
G1X701794Y23256D1*
G1X701794Y22131D1*
G1X702067Y20256D1*
G1X702613Y19131D1*
G1X703431Y18756D1*
G1X703976Y18756D1*
G1X704794Y19131D1*
G1X705340Y20256D1*
G1X705613Y22131D1*
G1X705613Y23256D1*
G1X705340Y25131D1*
G1X704794Y26256D1*
G1X703976Y26631D1*
G1X703431Y26631D1*
G1X708340Y19506D2*
G1X708067Y19131D1*
G1X708340Y18756D1*
G1X708613Y19131D1*
G1X708340Y19506D1*
G1X712704Y26631D2*
G1X711885Y26256D1*
G1X711340Y25131D1*
G1X711067Y23256D1*
G1X711067Y22131D1*
G1X711340Y20256D1*
G1X711885Y19131D1*
G1X712704Y18756D1*
G1X713249Y18756D1*
G1X714067Y19131D1*
G1X714613Y20256D1*
G1X714885Y22131D1*
G1X714885Y23256D1*
G1X714613Y25131D1*
G1X714067Y26256D1*
G1X713249Y26631D1*
G1X712704Y26631D1*
G1X253146Y44449D2*
G54D54*
G1X253146Y14984D1*
G1X253918Y44820D2*
G1X326691Y44820D1*
G1X299134Y264221D2*
G1X354688Y264221D1*
G1X354694Y294603D2*
G1X354694Y265137D1*
G1X462641Y12642D2*
G75*
G54D57*
G3X464610Y14610I0J1969D1*
G74*
G1X464610Y306963D1*
G75*
G3X462641Y308932I-1969J0D1*
G74*
G1X24702Y308932D1*
G75*
G3X22734Y306963I1J-1969D1*
G74*
G1X22734Y14610D1*
G75*
G3X24702Y12642I1968J0D1*
G74*
G1X462641Y12642D1*
G1X462037Y23259D2*
G75*
G3X462037Y23259I-7874J0D1*
G1X40635Y298433D2*
G3X40635Y298433I-7874J0D1*
G1X462240Y297199D2*
G3X462240Y297199I-7874J0D1*
G1X44464Y24111D2*
G3X44464Y24111I-7874J0D1*
G74*
G1X441999Y258871D2*
G54D71*
G1X441999Y256288D1*
G1X441999Y258871D2*
G1X442805Y258871D1*
G1X443073Y258748D1*
G1X443163Y258625D1*
G1X443252Y258379D1*
G1X443252Y258010D1*
G1X443163Y257764D1*
G1X443073Y257641D1*
G1X442805Y257518D1*
G1X441999Y257518D1*
G1X444057Y258871D2*
G1X444057Y256288D1*
G1X444057Y258871D2*
G1X445221Y258871D1*
G1X444057Y257641D2*
G1X444773Y257641D1*
G1X444057Y256288D2*
G1X445221Y256288D1*
G1X302359Y298626D2*
G54D127*
G1X302359Y289768D1*
G1X299138Y294197D2*
G1X305580Y294197D1*
G1X400001Y79455D2*
G54D51*
G1X404001Y83455D1*
G1X400001Y87455D1*
G1X396001Y83455D1*
G1X400001Y79455D1*
G1X400001Y83455D2*
G1X400001Y87455D1*
G1X429596Y65614D2*
G1X433596Y69614D1*
G1X429596Y73614D1*
G1X425596Y69614D1*
G1X429596Y65614D1*
G1X429596Y69614D2*
G1X429596Y73614D1*
M2*
