M48
INCH,TZ
FMAT,2
ICI,OFF
T01C.02756F197S55
T02C.0315F197S55
T03C.03543F197S55
T04C.03937F197S55
T05C.03937F197S55
T06C.047F139S55
T07C.04724F139S55
T08C.04724F139S55
T09C.05118F107S55
T10C.05906F107S55
T11C.06299F089S55
T12C.07087F081S55
T13C.07874F081S55
T14C.097F066S55
T15C.1063F069S658
%
T01
G05
X4730Y1879
X5533Y1872
X6213Y1835
X6914Y6643
X7115Y1820
X7715Y4153
X7998Y1842
X8801Y1835
X9669Y1815
X9821Y3862
X10571Y1800
X11454Y1822
X12126Y3922
X16660Y5187
X17200Y6734
X17345Y5187
X18746Y6619
X19904Y5727
X23646Y5995
X27264Y7254
X20017Y10837
X19815Y10173
X19484Y10818
X18261Y9233
X18209Y9779
X16258Y9902
X15090Y9476
X14920Y7276
X14676Y10041
X14637Y11555
X14599Y10818
X13396Y10398
X12585Y8953
X10228Y9960
X10215Y9149
X10207Y8367
X9437Y8363
X9429Y9935
X9425Y9149
X8643Y9149
X8642Y8364
X8630Y9935
X6868Y7170
X4855Y9210
X4654Y8580
X15975Y11989
X16678Y12078
X17386Y12209
X18359Y12257
X18799Y16361
X18816Y13691
X18833Y15454
X18842Y14530
X19458Y16329
X19475Y13660
X19492Y15422
X19501Y14498
X19791Y12947
X20148Y16319
X20165Y13649
X20182Y15412
X20191Y14488
X20450Y12916
X20870Y16382
X20887Y13712
X20904Y15475
X20913Y14551
X21141Y12905
X21625Y15913
X21863Y12968
X23768Y16710
X31602Y13197
X23785Y17246
X22763Y17714
X21492Y19258
X20836Y17331
X20827Y18213
X20114Y17269
X20105Y18150
X19424Y17279
X19415Y18160
X18765Y17310
X18756Y18192
X15683Y17366
X13646Y17434
X11491Y18918
X11252Y17483
X9316Y17539
X7001Y18656
X6806Y17366
X4335Y18022
X3751Y19654
X8355Y19683
X12686Y19625
X17983Y21290
X17999Y20637
X18642Y21259
X18658Y20606
X19332Y21248
X19348Y20596
X19402Y19889
X20054Y21311
X20070Y20658
X20097Y19878
X21461Y20697
X21480Y19987
X22121Y19302
X22146Y19912
X22184Y20573
X22275Y23575
X14357Y22629
X12988Y22075
X12326Y22629
X12316Y22067
X10000Y22629
X8578Y22162
X8056Y22745
X8012Y22167
X5616Y22629
X3968Y22017
X3913Y23294
X3383Y22640
X3376Y23294
X3358Y22037
T02
X24004Y3383
X24004Y2383
X27164Y2391
X27164Y3391
T03
X36076Y4187
X38045Y4187
T04
X31057Y8582
X31057Y9782
T05
X7559Y6315
X10969Y4039
X11003Y5118
X11392Y6563
X11713Y4924
X15756Y4233
X18025Y6073
X19432Y4759
X22353Y5620
X28122Y3824
X30743Y2780
X31743Y2780
X44447Y10536
X38542Y10536
T07
X36370Y10810
X36370Y7857
T05
X24691Y8642
X22549Y9537
X22549Y11505
X22353Y6998
X5649Y7896
X4807Y7980
X5958Y12297
X6779Y12294
X16343Y17897
X16430Y18955
X16855Y18338
X26055Y17245
X26720Y17218
X27344Y17239
X27987Y17266
X28640Y17257
X29402Y17260
X43374Y21967
X37468Y21967
T06
X33503Y18686
X33503Y21686
X33503Y28686
T07
X39452Y7822
X43452Y7322
X42495Y26572
X42375Y28937
X38495Y27072
X38375Y29437
T08
X3666Y4491
X3666Y5491
X3666Y6491
X13680Y2518
X14680Y2518
X15680Y2518
X16680Y2518
X17680Y2518
X18680Y2518
X19680Y2518
X20680Y2518
X3669Y11528
X3669Y9528
X3669Y10528
X3669Y12528
X3666Y7491
X18325Y22207
X18325Y28112
T09
X27260Y9865
X27260Y12070
T10
X33555Y18787
X33555Y21740
X33555Y24693
X33555Y27646
T11
X38255Y14504
X38255Y18244
X43373Y18244
X43373Y14504
T12
X40652Y4156
X43770Y4156
T13
X5891Y29052
X9040Y29052
X12190Y29052
T14
X25920Y22045
X25920Y26045
T15
X44445Y27307
T07
X40002Y8349
X42962Y6965
M30
