*
%LPD*%
%LNsm002028*%
%FSLAX25Y25*%
%MOIN*%
%AD*%
%ADD57C,0.00787*%
%ADD73C,0.08087*%
%ADD74C,0.08874*%
%ADD75C,0.18874*%
%ADD76C,0.18717*%
%ADD77C,0.07874*%
%ADD79C,0.11236*%
%ADD80R,0.08874X0.13992*%
%ADD85C,0.10843*%
%ADD87C,0.15173*%
%ADD90C,0.09*%
%ADD97R,0.12X0.09*%
%ADD98O,0.12X0.09*%
%ADD99C,0.07299*%
%ADD100R,0.09X0.12*%
%ADD101O,0.09X0.12*%
%ADD103C,0.1478*%
%ADD105C,0.21*%
%ADD108O,0.10843X0.08087*%
%ADD111O,0.16748X0.12811*%
%ADD113C,0.04937*%
%ADD114C,0.05724*%
%ADD115C,0.06512*%
%ADD135C,0.24622*%
%ADD173R,0.06906X0.12417*%
%ADD174R,0.25803X0.26591*%
G54D57*
%SRX1Y1I0.0J0.0*%
G1X462656Y12673D2*
G75*
G3X464625Y14642I0J1969D1*
G74*
G1X464625Y306994D1*
G75*
G3X462656Y308963I-1969J0D1*
G74*
G1X24718Y308963D1*
G75*
G3X22749Y306994I0J-1969D1*
G74*
G1X22749Y14642D1*
G75*
G3X24718Y12673I1969J0D1*
G74*
G1X462656Y12673D1*
G54D73*
G1X380443Y41869D3*
G1X360758Y41869D3*
G54D74*
G1X385411Y105359D3*
G1X444466Y105359D3*
G1X374680Y219668D3*
G1X433735Y219668D3*
G1X363690Y78570D3*
G1X363690Y108098D3*
G1X307422Y27796D3*
G1X317422Y27796D3*
G1X225483Y95366D3*
G1X225483Y115051D3*
G54D75*
G1X335029Y286862D3*
G1X335029Y246862D3*
G1X335029Y216862D3*
G1X335029Y186862D3*
G54D76*
G1X121894Y290519D3*
G1X90398Y290519D3*
G1X58902Y290519D3*
G54D77*
G1X383741Y294370D3*
G1X423741Y289370D3*
G1X424945Y265713D3*
G1X384945Y270713D3*
G1X434514Y73216D3*
G1X394514Y78216D3*
G54D79*
G1X272594Y120694D3*
G1X272594Y98647D3*
G54D80*
G1X140752Y136964D3*
G1X119098Y136964D3*
G1X119098Y156110D3*
G1X140752Y156110D3*
G1X106640Y156110D3*
G1X84987Y156110D3*
G54D85*
G1X183249Y281119D3*
G1X183249Y222064D3*
G54D87*
G1X437697Y41560D3*
G1X406516Y41560D3*
G54D90*
G1X310567Y85814D3*
G1X310567Y97814D3*
G54D97*
G1X36653Y44907D3*
G1X36686Y95279D3*
G54D98*
G1X36653Y54907D3*
G1X36653Y64907D3*
G1X36653Y74907D3*
G1X36686Y105279D3*
G1X36686Y115279D3*
G1X36686Y125279D3*
G54D99*
G1X271632Y23913D3*
G1X271632Y33913D3*
G1X240036Y33829D3*
G1X240036Y23829D3*
G54D100*
G1X206796Y25179D3*
G54D101*
G1X196796Y25179D3*
G1X186796Y25179D3*
G1X176796Y25179D3*
G1X166796Y25179D3*
G1X156796Y25179D3*
G1X146796Y25179D3*
G1X136796Y25179D3*
G54D103*
G1X382542Y145037D3*
G1X433723Y145037D3*
G1X433723Y182439D3*
G1X382542Y182439D3*
G54D105*
G1X259199Y260449D3*
G1X259199Y220449D3*
G54D108*
G1X223524Y56198D3*
G1X223524Y69977D3*
G54D111*
G1X335545Y276454D3*
G1X335545Y246927D3*
G1X335545Y217399D3*
G1X335545Y187872D3*
G54D113*
G1X47298Y18791D3*
G1X62129Y18345D3*
G1X71148Y18197D3*
G1X55325Y18722D3*
G1X79976Y18414D3*
G1X88003Y18345D3*
G1X96688Y18145D3*
G1X114535Y18214D3*
G1X105707Y17998D3*
G1X98210Y38619D3*
G1X121260Y39219D3*
G1X77146Y41532D3*
G1X173444Y51865D3*
G1X166596Y51865D3*
G1X199033Y57268D3*
G1X236451Y59945D3*
G1X68670Y71700D3*
G1X69132Y66426D3*
G1X149192Y72758D3*
G1X171995Y67335D3*
G1X187457Y66183D3*
G1X272633Y72538D3*
G1X48547Y92100D3*
G1X46532Y85797D3*
G1X94244Y91484D3*
G1X86299Y99345D3*
G1X94369Y83622D3*
G1X86424Y91484D3*
G1X86413Y83637D3*
G1X94286Y99345D3*
G1X102147Y91484D3*
G1X102273Y99596D3*
G1X102064Y83664D3*
G1X125848Y89524D3*
G1X150893Y94757D3*
G1X162571Y99014D3*
G1X182602Y92324D3*
G1X182089Y97792D3*
G1X133953Y103980D3*
G1X146754Y100411D3*
G1X145984Y108176D3*
G1X146369Y115545D3*
G1X159746Y119884D3*
G1X198140Y101728D3*
G1X194832Y108176D3*
G1X200167Y108369D3*
G1X173854Y122090D3*
G1X166774Y120782D3*
G1X183581Y122568D3*
G1X188154Y136910D3*
G1X194744Y136596D3*
G1X201648Y136491D3*
G1X208866Y137119D3*
G1X197908Y129466D3*
G1X204498Y129152D3*
G1X211402Y129047D3*
G1X218620Y129675D3*
G1X316015Y131967D3*
G1X188325Y154535D3*
G1X188410Y145294D3*
G1X194915Y154221D3*
G1X201819Y154116D3*
G1X209037Y154744D3*
G1X195001Y144981D3*
G1X201905Y144876D3*
G1X209123Y145504D3*
G1X216243Y159130D3*
G1X43345Y180221D3*
G1X68051Y173662D3*
G1X93156Y175384D3*
G1X112513Y174828D3*
G1X136457Y174336D3*
G1X156825Y173662D3*
G1X187640Y173101D3*
G1X194231Y172788D3*
G1X187983Y163604D3*
G1X194573Y163290D3*
G1X201135Y172683D3*
G1X208353Y173311D3*
G1X201477Y163186D3*
G1X208695Y163813D3*
G1X227625Y177140D3*
G1X237679Y167101D3*
G1X237845Y172461D3*
G1X37507Y196540D3*
G1X70001Y186554D3*
G1X83543Y196827D3*
G1X114902Y189174D3*
G1X126857Y196245D3*
G1X194145Y181600D3*
G1X194016Y198886D3*
G1X187555Y181914D3*
G1X208267Y182123D3*
G1X200967Y198779D3*
G1X201049Y181496D3*
G1X221459Y199121D3*
G1X221210Y193016D3*
G1X214917Y192580D3*
G1X214793Y199869D3*
G1X39678Y220167D3*
G1X193315Y212482D3*
G1X186411Y212586D3*
G1X179820Y212900D3*
G1X179982Y206372D3*
G1X186573Y206058D3*
G1X193477Y205953D3*
G1X200695Y206581D3*
G1X200533Y213109D3*
G1X221833Y205725D3*
G1X214606Y206972D3*
G1X33576Y220370D3*
G1X33752Y232938D3*
G1X33823Y226398D3*
G1X39126Y232938D3*
G1X56153Y226283D3*
G1X85776Y221615D3*
G1X80115Y221671D3*
G1X80559Y227444D3*
G1X100000Y226283D3*
G1X129873Y220747D3*
G1X123158Y220668D3*
G1X123252Y226283D3*
G1X143562Y226283D3*
G1X222742Y235747D3*
G54D114*
G1X110024Y51173D3*
G1X109690Y40383D3*
G1X117124Y49233D3*
G1X157552Y42327D3*
G1X194318Y47585D3*
G1X48067Y79796D3*
G1X56483Y78954D3*
G1X75581Y63149D3*
G1X113911Y65624D3*
G1X180245Y60731D3*
G1X59575Y122971D3*
G1X67784Y122940D3*
G1X163429Y178971D3*
G1X164298Y189543D3*
G1X168544Y183375D3*
G54D115*
G1X281216Y38241D3*
G1X246907Y86415D3*
G1X267191Y172173D3*
G1X273433Y172385D3*
G1X260545Y172444D3*
G1X294016Y172601D3*
G1X286397Y172569D3*
G1X279869Y172661D3*
G54D135*
G1X444441Y273071D3*
G54D173*
G1X148675Y226283D3*
G1X130564Y226283D3*
G1X148675Y173662D3*
G1X130564Y173662D3*
G1X61456Y226283D3*
G1X43345Y226283D3*
G1X61456Y173662D3*
G1X43345Y173662D3*
G1X105327Y226283D3*
G1X87217Y226283D3*
G1X105327Y173662D3*
G1X87217Y173662D3*
G54D174*
G1X139619Y251874D3*
G1X139619Y199252D3*
G1X52401Y251874D3*
G1X52401Y199252D3*
G1X96272Y251874D3*
G1X96272Y199252D3*
G54D77*
G1X400016Y83486D3*
G1X429611Y69645D3*
M2*
