M48
METRIC
T01C.6096
T02C.7112
T03C.8128
T04C.9906
T05C1.1176
T06C1.3
T07C1.905
T08C3.0226
T09C5.842
;LEADER: 12 
;HEADER: 
;CODE  : ASCII 
;FILE  : STEVAL-IPM05F-1-2.drl for  ... layers TOP and BOTTOM
;T01 Holesize 1. = 0.609600 Tolerance = +0.000000/-0.000000 PLATED MM Quantity = 51
;T02 Holesize 2. = 0.711200 Tolerance = +0.000000/-0.000000 PLATED MM Quantity = 8
;T03 Holesize 3. = 0.812800 Tolerance = +0.000000/-0.000000 PLATED MM Quantity = 2
;T04 Holesize 4. = 0.990600 Tolerance = +0.000000/-0.000000 PLATED MM Quantity = 196
;T05 Holesize 5. = 1.117600 Tolerance = +0.000000/-0.000000 PLATED MM Quantity = 26
;T06 Holesize 6. = 1.300000 Tolerance = +0.000000/-0.000000 PLATED MM Quantity = 7
;T07 Holesize 7. = 1.905000 Tolerance = +0.000000/-0.000000 PLATED MM Quantity = 2
;T08 Holesize 8. = 3.022600 Tolerance = +0.000000/-0.000000 PLATED MM Quantity = 4
;T09 Holesize 9. = 5.842000 Tolerance = +0.000000/-0.000000 NON_PLATED MM Quantity = 2
%
G90
T01
X114500Y200000
X-346500Y-138500
X-314750Y313750
X-186500Y-119000
X170500Y171000
X210250Y-039250
X-322000Y292500
X-493510Y-138510
X-309000Y281250
X-296500Y269000
X-189000Y177500
X-270500Y306000
X-111000Y161010
X-154000Y215000
X100000Y314000
X-175500Y192000
X-226000Y-565000
X-433500Y202120
X-226000Y-549500
X-309000Y258000
X-378000Y-457000
X-328500Y227000
X-372500Y-566500
X-554000Y223500
X145000Y299000
X-299000Y-530500
X-317000Y241500
X-522000Y090000
X-298500Y-566500
X-505000Y128000
X-554500Y249500
X-394500Y075000
X-299000Y-583500
X-522000Y115000
X-226000Y-583000
X-433500Y228120
X-372000Y-582500
X-554000Y198000
X-234510Y-246490
X-529000Y-049000
X-515500Y036500
X-501990Y293500
X-482990Y126990
X065500Y-254490
X218000Y-090500
X192500Y236990
X253000Y-037000
X210490Y050000
X210490Y152000
X-213500Y180000
X-230500Y202500
T02
X-119300Y102000
X-144700Y102000
X-317110Y-061300
X-317110Y-086700
X-479610Y-181680
X-479610Y-207080
X-408610Y-181680
X-408610Y-207080
T03
X128000Y250700
X128000Y225300
T04
X-231000Y-351000
X-296000Y-349000
X094000Y-565000
X075000Y-546000
X111000Y-547000
X048000Y-497000
X082000Y-498000
X029000Y-477000
X064000Y-478000
X-008000Y-440000
X010000Y-458000
X045000Y-458000
X091000Y-526500
X-067000Y-380000
X-083000Y-358000
X-003000Y-569000
X-022000Y-550000
X014000Y-551000
X-023000Y-503000
X-061000Y-464000
X-042000Y-483000
X-081000Y-444000
X-003500Y-530500
X-133000Y-383000
X-133000Y-357000
X-100000Y-568000
X-119000Y-549000
X-083000Y-550000
X-082000Y-510000
X-109000Y-492000
X-119000Y-508000
X-129000Y-472000
X-147000Y-454000
X-102000Y-529500
X-164000Y-437000
X-183000Y-383000
X-183000Y-357000
X-261500Y-351500
X-416100Y-712200
R04X050800
X-441500Y-686800
R05X050800
X-416100Y-661400
X-365300Y-661400
X-263700Y-661400
X-212900Y-661400
X-453000Y-636500
X-398700Y-636000
X-247900Y-637500
X-222100Y-638000
X-540300Y-670000
X-173000Y-637500
X-470000Y-573500
X-443000Y-573500
X-377000Y-606000
X-301000Y-604500
X-227500Y-604500
X-591000Y-628800
X-591000Y-541000
X-592500Y-506500
X-592500Y-446200
X-565600Y-654200
X-565600Y-603400
X-539000Y-508000
X-540200Y-628800
X-542200Y-575500
X-592500Y-476000
X-511500Y-708300
X-511500Y-657500
X-510500Y-603500
X-553000Y-548300
X-565000Y-522500
X-557500Y-448300
X-484000Y-685800
X-484000Y-635000
X-502600Y-573700
X-519600Y-550400
X-523600Y-449700
X-459500Y-715300
X-459500Y-664500
X-459700Y-603500
X-477200Y-548300
X-498200Y-533000
X-479200Y-444300
X-400000Y-605000
X-425000Y-636500
X-318500Y-637500
X-428000Y-596500
X-315000Y-660500
X-373000Y-636500
X-295500Y-637000
X-562500Y-490000
X-489500Y-470000
X-306310Y349300
X-306310Y374700
X-280910Y349300
X-280910Y374700
X-255510Y349300
X-255510Y374700
X-230110Y349300
X-230110Y374700
X-204710Y349300
X-204710Y374700
X-179310Y349300
X-179310Y374700
X-153910Y349300
X-153910Y374700
X-128510Y349300
X-128510Y374700
X-103110Y349300
X-103110Y374700
X-077710Y349300
X-077710Y374700
X-052310Y349300
X-052310Y374700
X-026910Y349300
X-026910Y374700
X-001510Y349300
X-001510Y374700
X023890Y349300
X023890Y374700
X049290Y349300
X049290Y374700
X074690Y349300
X074690Y374700
X100090Y349300
X100090Y374700
X-099110Y269000
R02Y-025400
X297000Y213510
X271600Y213510
X297000Y111500
X271600Y111500
X297000Y007990
X271600Y007990
X269000Y264010
X243600Y264010
X269500Y160500
X244100Y160500
X269000Y057490
X243600Y057490
X-050110Y269000
R02Y-025400
X047890Y269000
R02Y-025400
X-001110Y269000
R02Y-025400
X305000Y-075500
R02Y-025400
X357000Y159300
R04Y-025400
X347500Y-075500
R02Y-025400
X-260060Y-374350
X070140Y-037350
R04X-035560
X-089880Y-037350
R11X-017780
X-285460Y-329350
R02X025400
X-183860Y-329350
R03X050800
X044740Y-329350
X070140Y-329350
T05
X110500Y161000
X-102610Y-420000
X-586000Y-581000
X-161000Y033000
X-179110Y-420000
X-178780Y073000
X-197000Y033000
X-231000Y-381500
X-252500Y072000
X-262890Y-468500
X-296390Y-372000
X-032000Y043000
X-294500Y064000
X-509500Y-507000
X-268000Y015500
X-232000Y033000
X-339610Y042000
X-420000Y025000
X-483000Y029500
X-001000Y013000
X035000Y043000
X-072000Y033000
X-087000Y073000
X-108000Y033000
X-214340Y061000
X-026610Y-420000
T06
X275290Y-719800
X199090Y-719800
X073590Y-719800
R02X-076200
X270900Y372000
X220100Y372000
T07
X207000Y-417500
X207000Y-517500
T08
X-577500Y-743000
X-571500Y391000
X350000Y395500
X352000Y-742500
T09
X-282660Y-183350
X067340Y-183350
M30
