M48
METRIC
T01C.4064
T02C.6096
T03C.8128
T04C.9906
T05C1.1176
T06C1.2954
T07C3.2004
;LEADER: 12 
;HEADER: 
;CODE  : ASCII 
;FILE  : X-NUCLEO-IHM08M1-1-2.drl for  ... layers TOP and BOTTOM
;DESIGN: X-NUCLEO-IHM08M1_ver1_3.brd
;T01 Holesize 1. = 0.406400 Tolerance = +0.000000/-0.000000 PLATED MM Quantity = 213
;T02 Holesize 2. = 0.609600 Tolerance = +0.000000/-0.000000 PLATED MM Quantity = 379
;T03 Holesize 3. = 0.812800 Tolerance = +0.000000/-0.000000 PLATED MM Quantity = 10
;T04 Holesize 4. = 0.990600 Tolerance = +0.000000/-0.000000 PLATED MM Quantity = 124
;T05 Holesize 5. = 1.117600 Tolerance = +0.000000/-0.000000 PLATED MM Quantity = 2
;T06 Holesize 6. = 1.295400 Tolerance = +0.000000/-0.000000 PLATED MM Quantity = 5
;T07 Holesize 7. = 3.200400 Tolerance = +0.000000/-0.000000 PLATED MM Quantity = 2
%
G90
T01
X0535993Y0110008
X0196000Y-0042000
X0761000Y-0048000
X0511000Y-0046686
X0169000Y-0048000
X0479572Y-0054022
X0717000Y-0069000
X0229516Y-0090527
X0302989Y-0091000
X0783000Y-0037000
X0211000Y-0079000
X0158000Y0103000
X-0015000Y-0202000
X0018000Y-0194000
X0061500Y-0194000
X0196344Y-0190000
X0090750Y-0222750
X0332989Y-0090159
X0193000Y0168000
X0204000Y0160000
X0205000Y0175000
X0182000Y0175000
X0182000Y0160000
X0288728Y0147272
X0255000Y0102000
X0278000Y0132000
X0272000Y0215000
X0272000Y0202000
X0279000Y0154000
X0285000Y0215000
X0285000Y0202000
X0289000Y0137000
X0160000Y0175000
X0160000Y0161000
X0147000Y0169000
X0160000Y0192000
X0147000Y0184000
X0147000Y0202000
X0285000Y0184000
X0285000Y0168000
X0255000Y0122000
X0289989Y0018000
X0157000Y0003000
X0238000Y0293000
X0348000Y0356000
X0334000Y0226000
X0394000Y0226000
X0364000Y0226000
X0568500Y-0026500
X0038000Y0394000
X0057000Y0348000
X0055000Y0457000
X0098000Y0457000
X0059000Y0214000
X0422000Y0191000
X0656000Y0458000
X0582000Y0464000
X0656000Y0319000
X0656000Y0214000
X0229000Y0027000
X0591000Y0140000
X0537000Y0011000
X0067000Y0153000
X-0023000Y0081000
X0051000Y0037000
X0051000Y0090000
X0591000Y0012000
X-0022000Y0224000
X-0022000Y0441000
X0656000Y0392000
X-0023000Y-0015000
X-0024000Y-0202000
X-0006000Y-0202000
X-0004000Y-0230000
R02X-0009000
X-0015000Y-0193000
X-0024000Y-0193000
X-0006000Y-0193000
X0479000Y0018000
X0505000Y-0090000
X0310500Y-0194000
X0354500Y-0193498
X0474000Y-0063000
X0390074Y-0058434
X0567500Y-0193000
X0612594Y-0193000
X0677000Y-0048936
X0343000Y0065000
X0696000Y-0036000
X0395718Y0017112
X0460000Y0088000
X0288000Y0086000
X0306989Y0064989
X0475716Y0071000
X0460000Y0189000
X0496000Y0190000
X0591000Y0088000
X0591000Y0038000
X0126000Y0316000
X-0023000Y0156000
X0480000Y0280906
X0539000Y0088000
X0539000Y0169000
X0579000Y0253000
X0212000Y-0021000
X0335000Y-0010000
X0470708Y0003708
X0134237Y0057752
X0467000Y0202000
X0499000Y0202000
X0499904Y0236809
X0414000Y0236809
X0415434Y0149000
X0215069Y0085586
X0206000Y0080000
X0426000Y0149000
X0421566Y0178000
X0500763Y0178000
X0787000Y-0073000
X0618531Y-0060000
X0632000Y-0074000
X0778000Y-0081000
X0521000Y-0081000
X0246000Y-0058000
X0148000Y-0058000
X0255398Y-0058000
X0246000Y-0067398
X-0089000Y-0121000
X-0069000Y-0106000
X-0087000Y-0111000
X-0087000Y-0131000
X-0068000Y-0136000
X-0060000Y-0111000
X-0058000Y-0121000
X-0060000Y-0130000
X-0078000Y-0136000
X-0079000Y-0106000
X0042000Y-0121000
X0063000Y-0136000
X0053000Y-0106000
X0044000Y-0111000
X0071000Y-0130000
X0073000Y-0121000
X0063000Y-0106000
X0053000Y-0136000
X0044000Y-0131000
X0071000Y-0112000
X0618531Y-0089000
X0769000Y-0089000
X0482000Y-0071000
X0390000Y-0069000
X0599000Y-0276000
X0576000Y-0280000
X0043850Y-0279000
X0016500Y-0279000
X0335850Y-0278000
X0310500Y-0278000
X0398000Y0147000
X0388602Y0147000
X0500763Y0322299
X0500763Y0110000
X0460242Y0110000
X0505000Y-0071238
X0597000Y-0089000
X0487686Y0064000
X0500763Y0093544
X0584000Y-0074000
X0521000Y-0061500
X0597469Y-0032000
X0134237Y-0010000
X0222123Y-0082977
X0317989Y-0091000
X0328000Y0065000
X0687566Y-0048903
X0492694Y0156366
X0348000Y0186000
X0136000Y0244000
X0321000Y0249706
X0438000Y0296000
X0500000Y0339397
X0134237Y0042000
X0353729Y0027000
X0577000Y0192000
X0465000Y0213000
X0097000Y-0008996
X0097000Y0008441
X0706000Y-0048000
X0489000Y-0039000
X0180000Y-0039000
X0432000Y0254000
X0277397Y-0022273
X0530000Y-0033000
X0234000Y-0033000
X0269000Y-0022449
X0432000Y0245000
X0226000Y0008000
X0136000Y0013000
X0381989Y0064000
X0158000Y0054314
X0132000Y0103000
X0264000Y0071000
X0500000Y0164000
X0378000Y0186000
X0111346Y0256000
X0548000Y0332578
X0536000Y0220000
X0423000Y0221000
X0136000Y0075189
X0452000Y0137000
X0500314Y0137000
X0537000Y0059732
X0544000Y0383378
T02
X0235000Y-0188000
R02X0015000
X0235000Y-0175000
R02X0015000
X0235000Y-0162000
R02X0015000
X0235000Y-0149000
R02X0015000
X0209000Y-0136000
R02X0013000
X0250000Y-0136000
X0265000Y-0136000
X0415000Y-0154000
R04X0015000
X0415000Y-0141000
R04X0015000
X0422000Y-0129000
R03X0015000
X0415000Y-0168000
X0415000Y-0182000
X0475000Y-0168000
X0475000Y-0182000
X0652000Y-0106000
X0652000Y-0123000
X0652000Y-0139000
X0666000Y-0106000
X0666000Y-0123000
X0666000Y-0139000
X0680000Y-0106000
X0680000Y-0123000
X0680000Y-0139000
X0694000Y-0106000
X0694000Y-0123000
X0694000Y-0139000
X0652000Y-0172000
X0652000Y-0155000
X0652000Y-0188000
X0666000Y-0188000
X0666000Y-0172000
X0666000Y-0155000
X0683000Y-0188000
X0401000Y-0168000
X0401000Y-0182000
X0401000Y-0141000
X0401000Y-0154000
X0408000Y-0129000
X0220000Y-0188000
X0023000Y-0435000
R02Y0020000
X0003000Y-0435000
R02Y0020000
X0023000Y-0375000
X0023000Y-0315000
X0023000Y-0335000
X0023000Y-0355000
X0083000Y-0435000
R02X-0020000
X0043000Y-0415000
X0043000Y-0395000
X0083000Y-0315000
R02Y-0020000
X0043000Y-0375000
X0043000Y-0315000
X0063000Y-0315000
X0043000Y-0335000
X0063000Y-0335000
X0063000Y-0355000
X0043000Y-0355000
X0302000Y-0435000
R02Y0020000
X0382000Y-0435000
R03X-0020000
X0322000Y-0415000
X0342000Y-0415000
X0342000Y-0395000
X0322000Y-0395000
X0382000Y-0315000
R02Y-0020000
X0342000Y-0375000
X0322000Y-0375000
X0322000Y-0315000
R02X0020000
X0322000Y-0335000
R02X0020000
X0362000Y-0355000
R02X-0020000
X0481000Y-0456000
X0506000Y-0456000
X0506000Y-0436000
X0481000Y-0436000
X0481000Y-0416000
X0506000Y-0416000
X0506000Y-0396000
X0481000Y-0396000
X0506000Y-0376000
X0481000Y-0376000
X0481000Y-0316000
X0506000Y-0316000
X0481000Y-0336000
X0506000Y-0336000
X0506000Y-0356000
X0481000Y-0356000
X0531000Y-0456000
X0531000Y-0436000
X0531000Y-0316000
R02Y-0020000
X0556000Y-0456000
X0556000Y-0436000
X0556000Y-0316000
R02Y-0020000
X0506000Y-0481000
X0481000Y-0481000
X0481000Y-0506000
X0506000Y-0506000
X0531000Y-0481000
X0556000Y-0481000
X0531000Y-0506000
X0556000Y-0506000
X0456000Y-0531000
X0506000Y-0531000
X0481000Y-0531000
X0456000Y-0481000
X0456000Y-0506000
X0556000Y-0531000
X0531000Y-0531000
X0232000Y-0531000
R02X-0025000
X0232000Y-0456000
X0232000Y-0506000
X0232000Y-0481000
X0207000Y-0481000
X0207000Y-0506000
X0207000Y-0456000
X0182000Y-0456000
X0182000Y-0506000
X0182000Y-0481000
X0232000Y-0436000
X0207000Y-0396000
R02Y-0020000
X0182000Y-0436000
R02Y0020000
X0232000Y-0316000
R02Y-0020000
X0207000Y-0356000
R02Y0020000
X0207000Y-0376000
X0182000Y-0376000
X0182000Y-0316000
R02Y-0020000
X0257000Y-0531000
X0257000Y-0481000
X0257000Y-0506000
X0257000Y-0456000
X0257000Y-0436000
X0257000Y-0316000
X0257000Y-0356000
X0257000Y-0336000
X0157000Y-0481000
R02Y-0025000
X-0115000Y-0531000
R02X0025000
X-0115000Y-0481000
X-0115000Y-0506000
X-0115000Y-0456000
X-0090000Y-0456000
X-0090000Y-0506000
X-0090000Y-0481000
X-0065000Y-0481000
X-0065000Y-0506000
X-0065000Y-0456000
X-0115000Y-0396000
R02Y-0020000
X-0090000Y-0436000
R02Y0020000
X-0065000Y-0436000
X-0115000Y-0356000
X-0115000Y-0336000
X-0115000Y-0376000
X-0090000Y-0376000
X-0090000Y-0336000
X-0090000Y-0356000
X-0065000Y-0356000
X-0065000Y-0336000
X-0040000Y-0531000
X-0040000Y-0456000
X-0040000Y-0506000
X-0040000Y-0481000
X-0040000Y-0436000
X-0040000Y-0336000
X-0040000Y-0356000
X-0140000Y-0531000
X-0140000Y-0456000
X-0140000Y-0506000
X-0140000Y-0481000
X-0140000Y-0436000
R03Y0020000
X-0140000Y-0336000
X-0140000Y-0356000
X0621000Y-0454000
X0601000Y-0454000
X0641000Y-0454000
X0661000Y-0454000
X0661000Y-0434000
X0641000Y-0434000
X0601000Y-0434000
X0621000Y-0434000
X0621000Y-0414000
X0601000Y-0414000
X0641000Y-0414000
X0641000Y-0394000
X0601000Y-0394000
X0621000Y-0394000
X0641000Y-0374000
X0621000Y-0374000
X0681000Y-0454000
X0681000Y-0434000
X0621000Y-0314000
R02X0020000
X0621000Y-0334000
R02X0020000
X0661000Y-0354000
R02X-0020000
X0681000Y-0314000
R02Y-0020000
X0712000Y-0208000
X0712000Y-0221000
X0697000Y-0208000
X0697000Y-0221000
X0682000Y-0209000
X0669000Y-0209000
X0669000Y-0257000
R02Y0016000
X0682000Y-0241000
X0682000Y-0257000
X0682000Y-0225000
X0455000Y-0394000
R02Y-0020000
X0435000Y-0394000
R02Y-0020000
X0455000Y-0314000
R03Y-0020000
X0435000Y-0314000
R03Y-0020000
X0455000Y-0274000
X0455000Y-0294000
X0435000Y-0274000
X0435000Y-0294000
X0435000Y-0254000
X0455000Y-0254000
X0415000Y-0274000
R02Y0020000
X0475000Y-0274000
R02Y0020000
X0415000Y-0434000
X0669000Y-0273000
X0682000Y-0273000
X0656000Y-0241000
X0656000Y-0273000
X0656000Y-0257000
X0656000Y-0225000
X0656000Y-0209000
X0218000Y-0257000
X0218000Y-0273000
X0218000Y-0241000
X0231000Y-0257000
X0231000Y-0273000
X0231000Y-0241000
X0218000Y-0209000
X0218000Y-0225000
X0188000Y-0208000
X0188000Y-0221000
X0203000Y-0221000
X0203000Y-0208000
X0231000Y-0209000
X0231000Y-0225000
X0244000Y-0241000
X0244000Y-0273000
X0244000Y-0257000
X0244000Y-0225000
X0244000Y-0209000
X0711000Y-0280000
X0735000Y-0298000
X0755000Y-0298000
X0735000Y-0458000
R07Y0020000
X0728000Y-0280000
X0755000Y-0458000
R07Y0020000
X0755000Y-0276000
X0715000Y-0438000
X0715000Y-0458000
X0138000Y-0434000
R02Y0020000
X0156000Y-0434000
R02Y0020000
X0138000Y-0374000
R03Y0020000
X0156000Y-0374000
R03Y0020000
X0142000Y-0294000
X0160000Y-0294000
X0160000Y-0274000
X0142000Y-0274000
X0125000Y-0242000
R02Y-0016000
X0110000Y-0274000
R02Y0016000
X0118000Y-0434000
T03
X0162506Y0341400
X0187906Y0316000
X0162506Y0290600
X-0073500Y-0121000
X-0073500Y-0070200
X0057500Y-0121000
X0057500Y-0070200
X0111200Y0290600
X0212800Y0316000
X0111200Y0341400
T04
X0609600Y0457200
X0635000Y0457200
X0609600Y0431800
X0635000Y0431800
X0609600Y0406400
X0635000Y0406400
X0609600Y0381000
X0635000Y0381000
X0609600Y0355600
X0635000Y0355600
X0609600Y0330200
X0635000Y0330200
X0609600Y0304800
X0635000Y0304800
X0609600Y0279400
X0635000Y0279400
X0609600Y0254000
X0635000Y0254000
X0609600Y0228600
X0635000Y0228600
X0609600Y0203200
X0635000Y0203200
X0609600Y0177800
X0635000Y0177800
X0609600Y0152400
X0635000Y0152400
X0609600Y0127000
X0635000Y0127000
X0609600Y0101600
X0635000Y0101600
X0609600Y0076200
X0635000Y0076200
X0609600Y0050800
X0635000Y0050800
X0609600Y0025400
X0635000Y0025400
X0609600Y0000000
X0635000Y0000000
X0558800Y0218400
R09Y0025400
X0076200Y0355600
R07Y-0025400
X0000000Y0457200
X0025400Y0457200
X0000000Y0431800
X0025400Y0431800
X0000000Y0406400
X0025400Y0406400
X0000000Y0381000
X0025400Y0381000
X0000000Y0355600
X0025400Y0355600
X0000000Y0330200
X0025400Y0330200
X0000000Y0304800
X0025400Y0304800
X0000000Y0279400
X0025400Y0279400
X0000000Y0254000
X0025400Y0254000
X0000000Y0228600
X0025400Y0228600
X0000000Y0203200
X0025400Y0203200
X0000000Y0177800
X0025400Y0177800
X0000000Y0152400
X0025400Y0152400
X0000000Y0127000
X0025400Y0127000
X0000000Y0101600
X0025400Y0101600
X0000000Y0076200
X0025400Y0076200
X0000000Y0050800
X0025400Y0050800
X0000000Y0025400
X0025400Y0025400
X0000000Y0000000
X0025400Y0000000
X0076200Y0127000
R05Y-0025400
X0558800Y0000000
R07Y0025400
X0316000Y0107000
R04X0025400
X0408000Y0351000
R02X0025400
X0117000Y0192000
X0117000Y0166600
X0416989Y-0040888
X0442389Y-0040888
X0416989Y-0012888
X0442389Y-0012888
X0375000Y0271000
X0400400Y0271000
T05
X0459000Y0032000
X0276000Y0352000
T06
X-0084700Y-0298000
X-0084700Y-0234500
X0401500Y-0582000
R02X-0063500
T07
X-0125000Y-0627000
X0760000Y-0627000
M30
