G04 ================== begin FILE IDENTIFICATION RECORD ==================*
G04 Layout Name:  X-NUCLEO-IHM08M1_ver1_3.brd*
G04 Film Name:    X-NUCLEO-IHM08M1-drill-chart*
G04 File Format:  Gerber RS274X*
G04 File Origin:  Cadence Allegro 16.6-2015-S056*
G04 Origin Date:  Mon Sep 21 16:10:33 2015*
G04 *
G04 Layer:  MANUFACTURING/NCLEGEND-1-2*
G04 Layer:  MANUFACTURING/NCLEGEND-1-4*
G04 Layer:  BOARD GEOMETRY/OUTLINE*
G04 *
G04 Offset:    (0.0000 0.0000)*
G04 Mirror:    No*
G04 Mode:      Positive*
G04 Rotation:  0*
G04 FullContactRelief:  No*
G04 UndefLineWidth:     0.0500*
G04 ================== end FILE IDENTIFICATION RECORD ====================*
%FSLAX35Y35*MOMM*%
%IR0*IPPOS*OFA0.00000B0.00000*MIA0B0*SFA1.00000B1.00000*%
%AMMACRO13*
1,1,.05,.762,0.0*
20,1,.05,.762,0.0,-.762,0.0,0.0*
1,1,.05,-.762,0.0*
1,1,.05,0.0,.762*
20,1,.05,0.0,.762,0.0,-.762,0.0*
1,1,.05,0.0,-.762*
%
%ADD13MACRO13*%
%AMMACRO11*
1,1,.05,.635,0.0*
20,1,.05,.635,0.0,.625353,-.110267,0.0*
1,1,.05,.625353,-.110267*
20,1,.05,.625353,-.110267,.596705,-.217183,0.0*
1,1,.05,.596705,-.217183*
20,1,.05,.596705,-.217183,.549926,-.3175,0.0*
1,1,.05,.549926,-.3175*
20,1,.05,.549926,-.3175,.486438,-.40817,0.0*
1,1,.05,.486438,-.40817*
20,1,.05,.486438,-.40817,.40817,-.486438,0.0*
1,1,.05,.40817,-.486438*
20,1,.05,.40817,-.486438,.3175,-.549926,0.0*
1,1,.05,.3175,-.549926*
20,1,.05,.3175,-.549926,.217183,-.596705,0.0*
1,1,.05,.217183,-.596705*
20,1,.05,.217183,-.596705,.110267,-.625353,0.0*
1,1,.05,.110267,-.625353*
20,1,.05,.110267,-.625353,0.0,-.635,0.0*
1,1,.05,0.0,-.635*
20,1,.05,0.0,-.635,-.110267,-.625353,0.0*
1,1,.05,-.110267,-.625353*
20,1,.05,-.110267,-.625353,-.217183,-.596705,0.0*
1,1,.05,-.217183,-.596705*
20,1,.05,-.217183,-.596705,-.3175,-.549926,0.0*
1,1,.05,-.3175,-.549926*
20,1,.05,-.3175,-.549926,-.40817,-.486438,0.0*
1,1,.05,-.40817,-.486438*
20,1,.05,-.40817,-.486438,-.486438,-.40817,0.0*
1,1,.05,-.486438,-.40817*
20,1,.05,-.486438,-.40817,-.549926,-.3175,0.0*
1,1,.05,-.549926,-.3175*
20,1,.05,-.549926,-.3175,-.596705,-.217183,0.0*
1,1,.05,-.596705,-.217183*
20,1,.05,-.596705,-.217183,-.625353,-.110267,0.0*
1,1,.05,-.625353,-.110267*
20,1,.05,-.625353,-.110267,-.635,0.0,0.0*
1,1,.05,-.635,0.0*
20,1,.05,-.635,0.0,-.625353,.110267,0.0*
1,1,.05,-.625353,.110267*
20,1,.05,-.625353,.110267,-.596705,.217183,0.0*
1,1,.05,-.596705,.217183*
20,1,.05,-.596705,.217183,-.549926,.3175,0.0*
1,1,.05,-.549926,.3175*
20,1,.05,-.549926,.3175,-.486438,.40817,0.0*
1,1,.05,-.486438,.40817*
20,1,.05,-.486438,.40817,-.40817,.486438,0.0*
1,1,.05,-.40817,.486438*
20,1,.05,-.40817,.486438,-.3175,.549926,0.0*
1,1,.05,-.3175,.549926*
20,1,.05,-.3175,.549926,-.217183,.596705,0.0*
1,1,.05,-.217183,.596705*
20,1,.05,-.217183,.596705,-.110267,.625353,0.0*
1,1,.05,-.110267,.625353*
20,1,.05,-.110267,.625353,0.0,.635,0.0*
1,1,.05,0.0,.635*
20,1,.05,0.0,.635,.110267,.625353,0.0*
1,1,.05,.110267,.625353*
20,1,.05,.110267,.625353,.217183,.596705,0.0*
1,1,.05,.217183,.596705*
20,1,.05,.217183,.596705,.3175,.549926,0.0*
1,1,.05,.3175,.549926*
20,1,.05,.3175,.549926,.40817,.486438,0.0*
1,1,.05,.40817,.486438*
20,1,.05,.40817,.486438,.486438,.40817,0.0*
1,1,.05,.486438,.40817*
20,1,.05,.486438,.40817,.549926,.3175,0.0*
1,1,.05,.549926,.3175*
20,1,.05,.549926,.3175,.596705,.217183,0.0*
1,1,.05,.596705,.217183*
20,1,.05,.596705,.217183,.625353,.110267,0.0*
1,1,.05,.625353,.110267*
20,1,.05,.625353,.110267,.635,0.0,0.0*
1,1,.05,.635,0.0*
1,1,.05,.3175,0.0*
20,1,.05,.3175,0.0,-.3175,0.0,0.0*
1,1,.05,-.3175,0.0*
1,1,.05,0.0,.3175*
20,1,.05,0.0,.3175,0.0,-.3175,0.0*
1,1,.05,0.0,-.3175*
%
%ADD11MACRO11*%
%AMMACRO10*
1,1,.05,1.8669,0.0*
20,1,.05,1.8669,0.0,.93345,1.616783,0.0*
1,1,.05,.93345,1.616783*
20,1,.05,.93345,1.616783,-.93345,1.616783,0.0*
1,1,.05,-.93345,1.616783*
20,1,.05,-.93345,1.616783,-1.8669,0.0,0.0*
1,1,.05,-1.8669,0.0*
20,1,.05,-1.8669,0.0,-.93345,-1.616783,0.0*
1,1,.05,-.93345,-1.616783*
20,1,.05,-.93345,-1.616783,.93345,-1.616783,0.0*
1,1,.05,.93345,-1.616783*
20,1,.05,.93345,-1.616783,1.8669,0.0,0.0*
1,1,.05,1.8669,0.0*
1,1,.05,-.7779,-.9334*
20,1,.05,-.7779,-.9334,0.0,.9335,0.0*
1,1,.05,0.0,.9335*
20,1,.05,0.0,.9335,.778,-.9334,0.0*
1,1,.05,.778,-.9334*
1,1,.05,.4979,-.28*
20,1,.05,.4979,-.28,-.4978,-.28,0.0*
1,1,.05,-.4978,-.28*
%
%ADD10MACRO10*%
%AMMACRO12*
1,1,.05,.762,0.0*
20,1,.05,.762,0.0,.750424,-.13232,0.0*
1,1,.05,.750424,-.13232*
20,1,.05,.750424,-.13232,.716046,-.260619,0.0*
1,1,.05,.716046,-.260619*
20,1,.05,.716046,-.260619,.659911,-.381,0.0*
1,1,.05,.659911,-.381*
20,1,.05,.659911,-.381,.583726,-.489804,0.0*
1,1,.05,.583726,-.489804*
20,1,.05,.583726,-.489804,.489804,-.583726,0.0*
1,1,.05,.489804,-.583726*
20,1,.05,.489804,-.583726,.381,-.659911,0.0*
1,1,.05,.381,-.659911*
20,1,.05,.381,-.659911,.260619,-.716046,0.0*
1,1,.05,.260619,-.716046*
20,1,.05,.260619,-.716046,.13232,-.750424,0.0*
1,1,.05,.13232,-.750424*
20,1,.05,.13232,-.750424,0.0,-.762,0.0*
1,1,.05,0.0,-.762*
20,1,.05,0.0,-.762,-.13232,-.750424,0.0*
1,1,.05,-.13232,-.750424*
20,1,.05,-.13232,-.750424,-.260619,-.716046,0.0*
1,1,.05,-.260619,-.716046*
20,1,.05,-.260619,-.716046,-.381,-.659911,0.0*
1,1,.05,-.381,-.659911*
20,1,.05,-.381,-.659911,-.489804,-.583726,0.0*
1,1,.05,-.489804,-.583726*
20,1,.05,-.489804,-.583726,-.583726,-.489804,0.0*
1,1,.05,-.583726,-.489804*
20,1,.05,-.583726,-.489804,-.659911,-.381,0.0*
1,1,.05,-.659911,-.381*
20,1,.05,-.659911,-.381,-.716046,-.260619,0.0*
1,1,.05,-.716046,-.260619*
20,1,.05,-.716046,-.260619,-.750424,-.13232,0.0*
1,1,.05,-.750424,-.13232*
20,1,.05,-.750424,-.13232,-.762,0.0,0.0*
1,1,.05,-.762,0.0*
20,1,.05,-.762,0.0,-.750424,.13232,0.0*
1,1,.05,-.750424,.13232*
20,1,.05,-.750424,.13232,-.716046,.260619,0.0*
1,1,.05,-.716046,.260619*
20,1,.05,-.716046,.260619,-.659911,.381,0.0*
1,1,.05,-.659911,.381*
20,1,.05,-.659911,.381,-.583726,.489804,0.0*
1,1,.05,-.583726,.489804*
20,1,.05,-.583726,.489804,-.489804,.583726,0.0*
1,1,.05,-.489804,.583726*
20,1,.05,-.489804,.583726,-.381,.659911,0.0*
1,1,.05,-.381,.659911*
20,1,.05,-.381,.659911,-.260619,.716046,0.0*
1,1,.05,-.260619,.716046*
20,1,.05,-.260619,.716046,-.13232,.750424,0.0*
1,1,.05,-.13232,.750424*
20,1,.05,-.13232,.750424,0.0,.762,0.0*
1,1,.05,0.0,.762*
20,1,.05,0.0,.762,.13232,.750424,0.0*
1,1,.05,.13232,.750424*
20,1,.05,.13232,.750424,.260619,.716046,0.0*
1,1,.05,.260619,.716046*
20,1,.05,.260619,.716046,.381,.659911,0.0*
1,1,.05,.381,.659911*
20,1,.05,.381,.659911,.489804,.583726,0.0*
1,1,.05,.489804,.583726*
20,1,.05,.489804,.583726,.583726,.489804,0.0*
1,1,.05,.583726,.489804*
20,1,.05,.583726,.489804,.659911,.381,0.0*
1,1,.05,.659911,.381*
20,1,.05,.659911,.381,.716046,.260619,0.0*
1,1,.05,.716046,.260619*
20,1,.05,.716046,.260619,.750424,.13232,0.0*
1,1,.05,.750424,.13232*
20,1,.05,.750424,.13232,.762,0.0,0.0*
1,1,.05,.762,0.0*
1,1,.05,-.3175,-.381*
20,1,.05,-.3175,-.381,0.0,.381,0.0*
1,1,.05,0.0,.381*
20,1,.05,0.0,.381,.3175,-.381,0.0*
1,1,.05,.3175,-.381*
1,1,.05,.2032,-.1143*
20,1,.05,.2032,-.1143,-.2032,-.1143,0.0*
1,1,.05,-.2032,-.1143*
%
%ADD12MACRO12*%
%AMMACRO14*
1,1,.05,.635,0.0*
20,1,.05,.635,0.0,.625353,-.110267,0.0*
1,1,.05,.625353,-.110267*
20,1,.05,.625353,-.110267,.596705,-.217183,0.0*
1,1,.05,.596705,-.217183*
20,1,.05,.596705,-.217183,.549926,-.3175,0.0*
1,1,.05,.549926,-.3175*
20,1,.05,.549926,-.3175,.486438,-.40817,0.0*
1,1,.05,.486438,-.40817*
20,1,.05,.486438,-.40817,.40817,-.486438,0.0*
1,1,.05,.40817,-.486438*
20,1,.05,.40817,-.486438,.3175,-.549926,0.0*
1,1,.05,.3175,-.549926*
20,1,.05,.3175,-.549926,.217183,-.596705,0.0*
1,1,.05,.217183,-.596705*
20,1,.05,.217183,-.596705,.110267,-.625353,0.0*
1,1,.05,.110267,-.625353*
20,1,.05,.110267,-.625353,0.0,-.635,0.0*
1,1,.05,0.0,-.635*
20,1,.05,0.0,-.635,-.110267,-.625353,0.0*
1,1,.05,-.110267,-.625353*
20,1,.05,-.110267,-.625353,-.217183,-.596705,0.0*
1,1,.05,-.217183,-.596705*
20,1,.05,-.217183,-.596705,-.3175,-.549926,0.0*
1,1,.05,-.3175,-.549926*
20,1,.05,-.3175,-.549926,-.40817,-.486438,0.0*
1,1,.05,-.40817,-.486438*
20,1,.05,-.40817,-.486438,-.486438,-.40817,0.0*
1,1,.05,-.486438,-.40817*
20,1,.05,-.486438,-.40817,-.549926,-.3175,0.0*
1,1,.05,-.549926,-.3175*
20,1,.05,-.549926,-.3175,-.596705,-.217183,0.0*
1,1,.05,-.596705,-.217183*
20,1,.05,-.596705,-.217183,-.625353,-.110267,0.0*
1,1,.05,-.625353,-.110267*
20,1,.05,-.625353,-.110267,-.635,0.0,0.0*
1,1,.05,-.635,0.0*
20,1,.05,-.635,0.0,-.625353,.110267,0.0*
1,1,.05,-.625353,.110267*
20,1,.05,-.625353,.110267,-.596705,.217183,0.0*
1,1,.05,-.596705,.217183*
20,1,.05,-.596705,.217183,-.549926,.3175,0.0*
1,1,.05,-.549926,.3175*
20,1,.05,-.549926,.3175,-.486438,.40817,0.0*
1,1,.05,-.486438,.40817*
20,1,.05,-.486438,.40817,-.40817,.486438,0.0*
1,1,.05,-.40817,.486438*
20,1,.05,-.40817,.486438,-.3175,.549926,0.0*
1,1,.05,-.3175,.549926*
20,1,.05,-.3175,.549926,-.217183,.596705,0.0*
1,1,.05,-.217183,.596705*
20,1,.05,-.217183,.596705,-.110267,.625353,0.0*
1,1,.05,-.110267,.625353*
20,1,.05,-.110267,.625353,0.0,.635,0.0*
1,1,.05,0.0,.635*
20,1,.05,0.0,.635,.110267,.625353,0.0*
1,1,.05,.110267,.625353*
20,1,.05,.110267,.625353,.217183,.596705,0.0*
1,1,.05,.217183,.596705*
20,1,.05,.217183,.596705,.3175,.549926,0.0*
1,1,.05,.3175,.549926*
20,1,.05,.3175,.549926,.40817,.486438,0.0*
1,1,.05,.40817,.486438*
20,1,.05,.40817,.486438,.486438,.40817,0.0*
1,1,.05,.486438,.40817*
20,1,.05,.486438,.40817,.549926,.3175,0.0*
1,1,.05,.549926,.3175*
20,1,.05,.549926,.3175,.596705,.217183,0.0*
1,1,.05,.596705,.217183*
20,1,.05,.596705,.217183,.625353,.110267,0.0*
1,1,.05,.625353,.110267*
20,1,.05,.625353,.110267,.635,0.0,0.0*
1,1,.05,.635,0.0*
1,1,.05,.1905,-.3175*
20,1,.05,.1905,-.3175,.1905,.1058,0.0*
1,1,.05,.1905,.1058*
1,1,.05,.1905,.0318*
20,1,.05,.1905,.0318,.1482,.0741,0.0*
1,1,.05,.1482,.0741*
20,1,.05,.1482,.0741,.0847,.0952,0.0*
1,1,.05,.0847,.0952*
20,1,.05,.0847,.0952,.0106,.1058,0.0*
1,1,.05,.0106,.1058*
20,1,.05,.0106,.1058,-.0635,.0847,0.0*
1,1,.05,-.0635,.0847*
20,1,.05,-.0635,.0847,-.127,.0423,0.0*
1,1,.05,-.127,.0423*
20,1,.05,-.127,.0423,-.1693,-.0212,0.0*
1,1,.05,-.1693,-.0212*
20,1,.05,-.1693,-.0212,-.1905,-.1058,0.0*
1,1,.05,-.1905,-.1058*
20,1,.05,-.1905,-.1058,-.1693,-.1905,0.0*
1,1,.05,-.1693,-.1905*
20,1,.05,-.1693,-.1905,-.127,-.254,0.0*
1,1,.05,-.127,-.254*
20,1,.05,-.127,-.254,-.0635,-.2963,0.0*
1,1,.05,-.0635,-.2963*
20,1,.05,-.0635,-.2963,.0106,-.3175,0.0*
1,1,.05,.0106,-.3175*
20,1,.05,.0106,-.3175,.0847,-.3069,0.0*
1,1,.05,.0847,-.3069*
20,1,.05,.0847,-.3069,.1482,-.2752,0.0*
1,1,.05,.1482,-.2752*
20,1,.05,.1482,-.2752,.1905,-.2329,0.0*
1,1,.05,.1905,-.2329*
%
%ADD14MACRO14*%
%ADD15C,.05*%
G75*
%LPD*%
G75*
G54D10*
X-1250000Y-6270000D03*
X7600000D03*
X10111730Y-2127500D03*
G54D11*
X-1400000Y-5310000D03*
Y-4810000D03*
Y-5060000D03*
Y-4560000D03*
Y-3960000D03*
Y-4160000D03*
Y-4360000D03*
Y-3560000D03*
Y-3360000D03*
Y-3760000D03*
X-650000Y-5310000D03*
X-900000D03*
X-1150000D03*
X-650000Y-4560000D03*
Y-5060000D03*
Y-4810000D03*
X-900000D03*
Y-5060000D03*
Y-4560000D03*
X-1150000D03*
Y-5060000D03*
Y-4810000D03*
X-650000Y-4360000D03*
X-900000Y-3960000D03*
Y-4160000D03*
Y-4360000D03*
X-1150000D03*
Y-4160000D03*
Y-3960000D03*
X-650000Y-3360000D03*
Y-3560000D03*
X-900000D03*
Y-3360000D03*
Y-3760000D03*
X-1150000D03*
Y-3360000D03*
Y-3560000D03*
X-790000Y-1060000D03*
X-780000Y-1360000D03*
X-600000Y-1300000D03*
X-580000Y-1210000D03*
X-600000Y-1110000D03*
X-680000Y-1360000D03*
X-870000Y-1310000D03*
Y-1110000D03*
X-690000Y-1060000D03*
X-890000Y-1210000D03*
X-400000Y-5310000D03*
Y-4810000D03*
Y-5060000D03*
Y-4560000D03*
Y-4360000D03*
X30000Y-3950000D03*
Y-4150000D03*
Y-4350000D03*
X230000Y-3950000D03*
Y-4150000D03*
Y-4350000D03*
X-400000Y-3560000D03*
Y-3360000D03*
X230000Y-3550000D03*
Y-3350000D03*
Y-3150000D03*
Y-3750000D03*
X165000Y-2790000D03*
X-60000Y-1930000D03*
X-240000D03*
X-150000D03*
X-220000Y-2300000D03*
X-130000D03*
X-40000D03*
X-60000Y-2020000D03*
X-240000D03*
X180000Y-1940000D03*
X-150000Y-2020000D03*
X-230000Y-150000D03*
Y810000D03*
Y1560000D03*
X-220000Y2240000D03*
Y4410000D03*
X430000Y-3950000D03*
Y-4150000D03*
Y-4350000D03*
X630000D03*
X830000D03*
X430000Y-3550000D03*
X630000D03*
Y-3350000D03*
X430000D03*
X630000Y-3150000D03*
X430000D03*
Y-3750000D03*
X830000Y-3550000D03*
Y-3350000D03*
Y-3150000D03*
X438500Y-2790000D03*
X907500Y-2227500D03*
X615000Y-1940000D03*
X710000Y-1120000D03*
X440000Y-1310000D03*
X530000Y-1360000D03*
X630000Y-1060000D03*
X730000Y-1210000D03*
X710000Y-1300000D03*
X440000Y-1110000D03*
X530000Y-1060000D03*
X630000Y-1360000D03*
X420000Y-1210000D03*
X510000Y370000D03*
Y900000D03*
X670000Y1530000D03*
X590000Y2140000D03*
X570000Y3480000D03*
X380000Y3940000D03*
X550000Y4570000D03*
X1570000Y-5310000D03*
Y-5060000D03*
Y-4810000D03*
X1180000Y-4340000D03*
X1560000Y-3940000D03*
Y-4140000D03*
Y-4340000D03*
X1380000Y-3940000D03*
Y-4140000D03*
Y-4340000D03*
X1560000Y-3140000D03*
Y-3340000D03*
Y-3540000D03*
Y-3740000D03*
X1380000Y-3140000D03*
Y-3340000D03*
Y-3540000D03*
Y-3740000D03*
X1100000Y-2420000D03*
Y-2580000D03*
Y-2740000D03*
X1250000D03*
Y-2580000D03*
Y-2420000D03*
X1420000Y-2740000D03*
X1600000D03*
Y-2940000D03*
X1420000D03*
X1480000Y-580000D03*
X1360000Y130000D03*
X970000Y84410D03*
Y-89960D03*
X1342370Y420000D03*
Y-100000D03*
X1570000Y30000D03*
X1360000Y751890D03*
X1320000Y1030000D03*
X1580000Y543140D03*
X1342370Y577520D03*
X1580000Y1030000D03*
X1470000Y1840000D03*
Y1690000D03*
X1600000Y1610000D03*
Y1750000D03*
X1113460Y2560000D03*
X1360000Y2440000D03*
X1470000Y2020000D03*
X1600000Y1920000D03*
X1260000Y3160000D03*
X980000Y4570000D03*
X1820000Y-5310000D03*
X2070000D03*
X2320000D03*
X1820000Y-4810000D03*
Y-5060000D03*
Y-4560000D03*
X2070000D03*
Y-5060000D03*
Y-4810000D03*
X2320000D03*
Y-5060000D03*
Y-4560000D03*
X1820000Y-3960000D03*
Y-4160000D03*
Y-4360000D03*
X2070000D03*
Y-4160000D03*
Y-3960000D03*
X2320000Y-4360000D03*
X1820000Y-3560000D03*
Y-3360000D03*
Y-3160000D03*
Y-3760000D03*
X2070000D03*
Y-3160000D03*
Y-3360000D03*
Y-3560000D03*
X2320000D03*
Y-3360000D03*
Y-3160000D03*
X2310000Y-2410000D03*
Y-2730000D03*
Y-2570000D03*
X2180000Y-2410000D03*
Y-2730000D03*
Y-2570000D03*
X2310000Y-2250000D03*
Y-2090000D03*
X2030000Y-2080000D03*
Y-2210000D03*
X1880000D03*
Y-2080000D03*
X2180000Y-2250000D03*
Y-2090000D03*
X2200000Y-1880000D03*
X2350000Y-1750000D03*
Y-1880000D03*
X1963440Y-1900000D03*
X2350000Y-1360000D03*
X2220000D03*
X2090000D03*
X2350000Y-1490000D03*
Y-1620000D03*
X2340000Y-330000D03*
X1800000Y-390000D03*
X2221230Y-829770D03*
X2110000Y-790000D03*
X2295160Y-905270D03*
X1690000Y-480000D03*
X1960000Y-420000D03*
X2260000Y80000D03*
X2120000Y-210000D03*
X2290000Y270000D03*
X2060000Y800000D03*
X2150690Y855860D03*
X1820000Y1600000D03*
Y1750000D03*
X2050000D03*
X2040000Y1600000D03*
X1930000Y1680000D03*
X2570000Y-5310000D03*
Y-4560000D03*
Y-5060000D03*
Y-4810000D03*
Y-4360000D03*
X3020000Y-3950000D03*
Y-4150000D03*
Y-4350000D03*
X2570000Y-3360000D03*
Y-3560000D03*
Y-3160000D03*
X2440000Y-2570000D03*
Y-2730000D03*
Y-2410000D03*
Y-2090000D03*
Y-2250000D03*
X2650000Y-1750000D03*
X2500000D03*
X2650000Y-1880000D03*
X2500000D03*
X2650000Y-1360000D03*
X2500000D03*
X2650000Y-1490000D03*
X2500000D03*
X2650000Y-1620000D03*
X2500000D03*
X2460000Y-673980D03*
X2553980Y-580000D03*
X2460000D03*
X3029890Y-910000D03*
X2690000Y-224490D03*
X2773970Y-222730D03*
X2899890Y180000D03*
X2640000Y710000D03*
X3069890Y649890D03*
X2880000Y860000D03*
X2550000Y1020000D03*
Y1220000D03*
X2850000Y1680000D03*
Y1840000D03*
X2890000Y1370000D03*
X2790000Y1540000D03*
X2780000Y1320000D03*
X2887280Y1472720D03*
X2850000Y2020000D03*
Y2150000D03*
X2720000Y2020000D03*
Y2150000D03*
X2380000Y2930000D03*
X3220000Y-3950000D03*
X3420000D03*
Y-4150000D03*
X3220000D03*
Y-4350000D03*
X3420000D03*
X3620000D03*
X3820000D03*
X3220000Y-3550000D03*
X3420000D03*
X3620000D03*
Y-3350000D03*
X3420000D03*
X3220000D03*
X3620000Y-3150000D03*
X3420000D03*
X3220000D03*
Y-3750000D03*
X3420000D03*
X3820000Y-3550000D03*
Y-3350000D03*
Y-3150000D03*
X3105000Y-2780000D03*
X3358500D03*
X3545000Y-1934980D03*
X3105000Y-1940000D03*
X3179890Y-910000D03*
X3329890Y-901590D03*
X3537290Y270000D03*
X3350000Y-100000D03*
X3280000Y650000D03*
X3430000D03*
X3780000Y1860000D03*
X3480000D03*
X3210000Y2497060D03*
X3640000Y2260000D03*
X3340000D03*
X3480000Y3560000D03*
X4560000Y-5310000D03*
Y-5060000D03*
Y-4810000D03*
X4150000Y-4340000D03*
X4350000D03*
Y-4140000D03*
Y-3940000D03*
X4550000Y-4340000D03*
Y-4140000D03*
Y-3940000D03*
X4350000Y-3740000D03*
Y-3540000D03*
Y-3340000D03*
Y-3140000D03*
X4550000Y-3740000D03*
Y-3540000D03*
Y-3340000D03*
Y-3140000D03*
X4150000Y-2540000D03*
Y-2740000D03*
X4550000Y-2540000D03*
X4350000D03*
Y-2940000D03*
Y-2740000D03*
X4550000Y-2940000D03*
Y-2740000D03*
X4150000Y-2340000D03*
X4010000Y-1820000D03*
Y-1680000D03*
X4150000Y-1820000D03*
Y-1680000D03*
X4080000Y-1290000D03*
X4010000Y-1540000D03*
Y-1410000D03*
X4520000Y-1290000D03*
X4370000D03*
X4220000D03*
X4450000Y-1410000D03*
X4300000D03*
X4150000D03*
X4450000Y-1540000D03*
X4300000D03*
X4150000D03*
X3900000Y-690000D03*
X3900740Y-584340D03*
X3957180Y171120D03*
X3819890Y640000D03*
X4520000Y1370000D03*
X3886020Y1470000D03*
X3980000D03*
X4215660Y1780000D03*
X4260000Y1490000D03*
X4154340D03*
X4220000Y1910000D03*
X4230000Y2210000D03*
X4320000Y2450000D03*
Y2540000D03*
X4140000Y2368090D03*
X3940000Y2260000D03*
X4380000Y2960000D03*
X4810000Y-5310000D03*
X5060000D03*
Y-5060000D03*
X4810000D03*
Y-4810000D03*
X5060000D03*
Y-4560000D03*
X4810000D03*
Y-3960000D03*
X5060000D03*
Y-4160000D03*
X4810000D03*
Y-4360000D03*
X5060000D03*
X4810000Y-3560000D03*
X5060000D03*
Y-3360000D03*
X4810000D03*
X5060000Y-3160000D03*
X4810000D03*
Y-3760000D03*
X5060000D03*
X4750000Y-2540000D03*
Y-2740000D03*
Y-2340000D03*
Y-1820000D03*
Y-1680000D03*
X4670000Y-1290000D03*
X4750000Y-1410000D03*
X4600000D03*
X4750000Y-1540000D03*
X4600000D03*
X4890000Y-390000D03*
X5210000Y-615000D03*
X5050000Y-712380D03*
X4820000Y-710000D03*
X5210000Y-810000D03*
X4740000Y-630000D03*
X5050000Y-900000D03*
X4795720Y-540220D03*
X5110000Y-466860D03*
X4707080Y37080D03*
X4790000Y180000D03*
X5007630Y935440D03*
X4876860Y640000D03*
X4602420Y1100000D03*
X5007630D03*
X4757160Y710000D03*
X4600000Y880000D03*
X5003140Y1370000D03*
X5000000Y1640000D03*
X4926940Y1563660D03*
X5007630Y1780000D03*
X4960000Y1900000D03*
X4600000Y1890000D03*
X4650000Y2130000D03*
X4999040Y2368090D03*
X4990000Y2020000D03*
X4670000D03*
X5007630Y3222990D03*
X4800000Y2809060D03*
X5000000Y3393970D03*
X5310000Y-5310000D03*
X5560000D03*
Y-5060000D03*
X5310000D03*
X5560000Y-4810000D03*
X5310000D03*
X5560000Y-4560000D03*
X5310000D03*
X5560000Y-4360000D03*
X5310000D03*
X5560000Y-3560000D03*
Y-3360000D03*
Y-3160000D03*
X5310000Y-3560000D03*
Y-3360000D03*
Y-3160000D03*
X5760000Y-2800000D03*
X5675000Y-1930000D03*
X5300000Y-330000D03*
X5974690Y-320000D03*
X5840000Y-740000D03*
X5970000Y-890000D03*
X5685000Y-265000D03*
X5910000Y380000D03*
Y120000D03*
X5370000Y110000D03*
Y597320D03*
X5390000Y880000D03*
X5910000D03*
X5359930Y1100080D03*
X5390000Y1690000D03*
X5910000Y1400000D03*
X5360000Y2200000D03*
X5770000Y1920000D03*
X5790000Y2530000D03*
X5480000Y3325780D03*
X5440000Y3833780D03*
X5820000Y4640000D03*
X6210000Y-3940000D03*
X6010000D03*
X6410000D03*
Y-4140000D03*
X6010000D03*
X6210000D03*
Y-4340000D03*
X6010000D03*
X6410000D03*
X6610000D03*
Y-4540000D03*
X6410000D03*
X6010000D03*
X6210000D03*
Y-3540000D03*
X6410000D03*
X6610000D03*
Y-3340000D03*
X6410000D03*
X6210000D03*
X6610000Y-3140000D03*
X6410000D03*
X6210000D03*
Y-3740000D03*
X6410000D03*
X5990000Y-2760000D03*
X6560000Y-2570000D03*
Y-2730000D03*
Y-2410000D03*
X6690000Y-2730000D03*
Y-2410000D03*
Y-2570000D03*
X6560000Y-2090000D03*
Y-2250000D03*
X6690000D03*
Y-2090000D03*
X6660000Y-1720000D03*
Y-1880000D03*
X6520000D03*
Y-1720000D03*
X6125940Y-1930000D03*
X6660000Y-1550000D03*
X6520000D03*
X6660000Y-1390000D03*
Y-1230000D03*
Y-1060000D03*
X6520000Y-1390000D03*
Y-1230000D03*
Y-1060000D03*
X6185310Y-890000D03*
X6320000Y-740000D03*
X6185310Y-600000D03*
X6560000Y2140000D03*
Y3190000D03*
Y3920000D03*
Y4580000D03*
X7150000Y-4580000D03*
X7350000D03*
X7150000Y-4380000D03*
X7350000Y-3980000D03*
Y-4180000D03*
Y-4380000D03*
X6810000Y-4340000D03*
Y-4540000D03*
X7350000Y-3180000D03*
Y-3380000D03*
Y-3580000D03*
Y-3780000D03*
X6810000Y-3540000D03*
Y-3340000D03*
Y-3140000D03*
X7280000Y-2800000D03*
X7350000Y-2980000D03*
X7110000Y-2800000D03*
X6820000Y-2730000D03*
Y-2570000D03*
Y-2410000D03*
Y-2250000D03*
Y-2090000D03*
X6970000Y-2210000D03*
Y-2080000D03*
X7120000Y-2210000D03*
Y-2080000D03*
X6830000Y-1880000D03*
X6940000Y-1390000D03*
Y-1230000D03*
Y-1060000D03*
X6800000Y-1390000D03*
Y-1230000D03*
Y-1060000D03*
X7060000Y-480000D03*
X6875660Y-489030D03*
X6960000Y-360000D03*
X6770000Y-489360D03*
X7170000Y-690000D03*
X7550000Y-4580000D03*
Y-3980000D03*
Y-4180000D03*
Y-4380000D03*
Y-3180000D03*
Y-3380000D03*
Y-3580000D03*
Y-3780000D03*
Y-2760000D03*
Y-2980000D03*
X7690000Y-890000D03*
X7780000Y-810000D03*
X7870000Y-730000D03*
X7830000Y-370000D03*
X7610000Y-480000D03*
X10111730Y1047500D03*
Y1682500D03*
G54D12*
X-847000Y-2345000D03*
Y-2980000D03*
X2745000Y-5820000D03*
X2760000Y3520000D03*
X3380000Y-5820000D03*
X4015000D03*
X4590000Y320000D03*
X10111730Y-1492500D03*
Y-857500D03*
G54D13*
X-735000Y-1210000D03*
Y-702000D03*
X575000Y-1210000D03*
Y-702000D03*
X1112000Y2906000D03*
X1625060D03*
X1112000Y3414000D03*
X1625060D03*
X2128000Y3160000D03*
X1879060D03*
X10111730Y412500D03*
G54D14*
X254000Y0D03*
X0D03*
X254000Y254000D03*
Y508000D03*
X0Y254000D03*
Y508000D03*
X254000Y762000D03*
Y1016000D03*
X0Y762000D03*
Y1016000D03*
X254000Y1270000D03*
Y1524000D03*
Y1778000D03*
X0Y1270000D03*
Y1524000D03*
Y1778000D03*
X254000Y2032000D03*
Y2286000D03*
Y2540000D03*
X0Y2032000D03*
Y2286000D03*
Y2540000D03*
X254000Y2794000D03*
X0D03*
X254000Y3302000D03*
Y3048000D03*
X0D03*
Y3302000D03*
Y4064000D03*
X254000D03*
X0Y3810000D03*
X254000D03*
X0Y3556000D03*
X254000D03*
X0Y4572000D03*
X254000D03*
X0Y4318000D03*
X254000D03*
X762000Y0D03*
Y254000D03*
Y508000D03*
Y762000D03*
Y1016000D03*
Y1778000D03*
Y1270000D03*
Y2032000D03*
Y2286000D03*
Y2540000D03*
Y2794000D03*
Y3048000D03*
Y3302000D03*
Y3556000D03*
X1170000Y1920000D03*
Y1666000D03*
X3668000Y1070000D03*
X3160000D03*
X3414000D03*
X3750000Y2710000D03*
X4169890Y-408880D03*
X4423890D03*
X4169890Y-128880D03*
X4423890D03*
X4176000Y1070000D03*
X3922000D03*
X4004000Y2710000D03*
X4588000Y3510000D03*
X4080000D03*
X4334000D03*
X5588000Y508000D03*
Y0D03*
Y254000D03*
Y1016000D03*
Y762000D03*
Y1778000D03*
Y1524000D03*
Y1270000D03*
Y2692000D03*
Y2184000D03*
Y2438000D03*
Y3200000D03*
Y2946000D03*
Y3962000D03*
Y3708000D03*
Y3454000D03*
Y4470000D03*
Y4216000D03*
X6350000Y0D03*
X6096000D03*
X6350000Y254000D03*
Y508000D03*
X6096000Y254000D03*
Y508000D03*
X6350000Y762000D03*
Y1016000D03*
X6096000Y762000D03*
Y1016000D03*
X6350000Y1270000D03*
Y1524000D03*
Y1778000D03*
X6096000Y1270000D03*
Y1524000D03*
Y1778000D03*
X6350000Y2032000D03*
Y2286000D03*
Y2540000D03*
X6096000Y2032000D03*
Y2286000D03*
Y2540000D03*
X6350000Y2794000D03*
X6096000D03*
X6350000Y3302000D03*
Y3048000D03*
X6096000D03*
Y3302000D03*
Y4064000D03*
X6350000D03*
X6096000Y3810000D03*
X6350000D03*
X6096000Y3556000D03*
X6350000D03*
X6096000Y4572000D03*
X6350000D03*
X6096000Y4318000D03*
X6350000D03*
X10111730Y-222500D03*
G54D15*
G01X6674990Y-250000D02*
Y4760010D01*
X5188000D01*
Y3724000D01*
X1162000D01*
Y4760010D01*
X-324990D01*
Y-250000D01*
X-1650000D01*
Y-6650000D01*
X8000000D01*
Y-250000D01*
X6674990D01*
G01X8970000Y-2445000D02*
Y3920000D01*
X21253440D01*
Y-2445000D01*
X8970000D01*
G01Y-1810000D02*
X21253440D01*
G01X8970000Y-1175000D02*
X21253440D01*
G01X8970000Y-540000D02*
X21253440D01*
G01X8970000Y95000D02*
X21253440D01*
G01X8970000Y730000D02*
X21253440D01*
G01X8970000Y1365000D02*
X21253440D01*
G01X9249520Y2158750D02*
Y2476250D01*
X9399140D01*
G01X9344010Y2322800D02*
X9249520D01*
G01X9592050Y2476250D02*
X9686530D01*
G01X9639290D02*
Y2158750D01*
G01X9592050D02*
X9686530D01*
G01X9977870Y2317500D02*
X10056620D01*
Y2222250D01*
X10032990Y2190490D01*
X10005430Y2169330D01*
X9966060Y2158750D01*
X9926690Y2169330D01*
X9899130Y2190490D01*
X9875510Y2222250D01*
X9859760Y2259290D01*
X9851880Y2301620D01*
Y2338670D01*
X9859760Y2370410D01*
X9875510Y2407460D01*
X9899130Y2439210D01*
X9922750Y2460370D01*
X9954250Y2476250D01*
X9981810D01*
X10013300Y2465670D01*
X10036930Y2444500D01*
G01X10182600Y2476250D02*
Y2248710D01*
X10198340Y2201070D01*
X10229840Y2169330D01*
X10269210Y2158750D01*
X10308580Y2169330D01*
X10340080Y2201070D01*
X10355820Y2248710D01*
Y2476250D01*
G01X10505430Y2158750D02*
Y2476250D01*
X10603850D01*
X10635350Y2460370D01*
X10655040Y2439210D01*
X10662910Y2396870D01*
X10655040Y2354540D01*
X10631410Y2328090D01*
X10603850Y2312200D01*
X10505430D01*
G01X10603850D02*
X10662910Y2158750D01*
G01X10977870D02*
X10820390D01*
Y2476250D01*
X10977870D01*
G01X10914880Y2322800D02*
X10820390D01*
G01X8970000Y2000000D02*
X21253440D01*
G01X8970000Y3270000D02*
X21253440D01*
G01X8970000Y2635000D02*
X21253440D01*
G01X10761330Y2793750D02*
X10859760Y3111250D01*
X10958190Y2793750D01*
G01X10922750Y2904870D02*
X10796760D01*
G01X11095980Y3111250D02*
Y2793750D01*
X11253460D01*
G01X11410940Y3111250D02*
Y2793750D01*
X11568420D01*
G01X12032990Y3111250D02*
Y2883710D01*
X12048730Y2836070D01*
X12080230Y2804330D01*
X12119600Y2793750D01*
X12158970Y2804330D01*
X12190470Y2836070D01*
X12206210Y2883710D01*
Y3111250D01*
G01X12344010Y2793750D02*
Y3111250D01*
X12525110Y2793750D01*
Y3111250D01*
G01X12702280D02*
X12796760D01*
G01X12749520D02*
Y2793750D01*
G01X12702280D02*
X12796760D01*
G01X13064480Y3111250D02*
Y2793750D01*
G01X12973930Y3111250D02*
X13155030D01*
G01X13296760Y2836070D02*
X13328260Y2809620D01*
X13363690Y2793750D01*
X13395190D01*
X13426680Y2809620D01*
X13450310Y2836070D01*
X13462120Y2873130D01*
X13454250Y2910160D01*
X13434560Y2941910D01*
X13399120Y2963090D01*
X13351880Y2973670D01*
X13324320Y2994830D01*
X13312510Y3031870D01*
X13320390Y3068920D01*
X13340070Y3095370D01*
X13367630Y3111250D01*
X13395190D01*
X13422750Y3100670D01*
X13446370Y3074210D01*
G01X13910930Y2793750D02*
X14009360Y3111250D01*
X14107790Y2793750D01*
G01X14072350Y2904870D02*
X13946360D01*
G01X14245580Y2793750D02*
Y3111250D01*
X14344000D01*
X14375500Y3095370D01*
X14395190Y3074210D01*
X14403060Y3031870D01*
X14395190Y2989540D01*
X14371560Y2963090D01*
X14344000Y2947200D01*
X14245580D01*
G01X14344000D02*
X14403060Y2793750D01*
G01X14718020D02*
X14560540D01*
Y3111250D01*
X14718020D01*
G01X14655030Y2957800D02*
X14560540D01*
G01X15221960Y3111250D02*
X15316440D01*
G01X15269200D02*
Y2793750D01*
G01X15221960D02*
X15316440D01*
G01X15493610D02*
Y3111250D01*
X15674710Y2793750D01*
Y3111250D01*
G01X16111710Y2793750D02*
Y3111250D01*
X16214080Y2846670D01*
X16316450Y3111250D01*
Y2793750D01*
G01X16481800Y3111250D02*
X16576280D01*
G01X16529040D02*
Y2793750D01*
G01X16481800D02*
X16576280D01*
G01X16765260Y3111250D02*
Y2793750D01*
X16922740D01*
G01X17080220Y3111250D02*
Y2793750D01*
X17237700D01*
G01X17426680Y3111250D02*
X17521160D01*
G01X17473920D02*
Y2793750D01*
G01X17426680D02*
X17521160D01*
G01X17686510D02*
Y3111250D01*
X17788880Y2846670D01*
X17891250Y3111250D01*
Y2793750D01*
G01X18182580D02*
X18025100D01*
Y3111250D01*
X18182580D01*
G01X18119590Y2957800D02*
X18025100D01*
G01X18418800Y3111250D02*
Y2793750D01*
G01X18328250Y3111250D02*
X18509350D01*
G01X18812500Y2793750D02*
X18655020D01*
Y3111250D01*
X18812500D01*
G01X18749510Y2957800D02*
X18655020D01*
G01X18969980Y2793750D02*
Y3111250D01*
X19068400D01*
X19099900Y3095370D01*
X19119590Y3074210D01*
X19127460Y3031870D01*
X19119590Y2989540D01*
X19095960Y2963090D01*
X19068400Y2947200D01*
X18969980D01*
G01X19068400D02*
X19127460Y2793750D01*
G01X19281000Y2836070D02*
X19312500Y2809620D01*
X19347930Y2793750D01*
X19379430D01*
X19410920Y2809620D01*
X19434550Y2836070D01*
X19446360Y2873130D01*
X19438490Y2910160D01*
X19418800Y2941910D01*
X19383360Y2963090D01*
X19336120Y2973670D01*
X19308560Y2994830D01*
X19296750Y3031870D01*
X19304630Y3068920D01*
X19324310Y3095370D01*
X19351870Y3111250D01*
X19379430D01*
X19406990Y3100670D01*
X19430610Y3074210D01*
G01X11253460Y2635000D02*
Y-2445000D01*
G01X11088110Y3443750D02*
Y3761250D01*
X11166840D01*
X11198340Y3745370D01*
X11221960Y3724210D01*
X11241650Y3692460D01*
X11257400Y3655410D01*
X11261330Y3602500D01*
X11257400Y3549580D01*
X11241650Y3512540D01*
X11221960Y3480780D01*
X11198340Y3459620D01*
X11166840Y3443750D01*
X11088110D01*
G01X11410940D02*
Y3761250D01*
X11509360D01*
X11540860Y3745370D01*
X11560550Y3724210D01*
X11568420Y3681870D01*
X11560550Y3639540D01*
X11536920Y3613090D01*
X11509360Y3597200D01*
X11410940D01*
G01X11509360D02*
X11568420Y3443750D01*
G01X11757400Y3761250D02*
X11851880D01*
G01X11804640D02*
Y3443750D01*
G01X11757400D02*
X11851880D01*
G01X12040860Y3761250D02*
Y3443750D01*
X12198340D01*
G01X12355820Y3761250D02*
Y3443750D01*
X12513300D01*
G01X13151090Y3734790D02*
X13127470Y3750670D01*
X13099920Y3761250D01*
X13068420D01*
X13032980Y3745370D01*
X13005430Y3718920D01*
X12985740Y3687160D01*
X12969990Y3634250D01*
X12966050Y3586620D01*
X12973930Y3539000D01*
X12985740Y3507250D01*
X13009360Y3475490D01*
X13036920Y3454330D01*
X13064480Y3443750D01*
X13092040D01*
X13119600Y3454330D01*
X13143220Y3470200D01*
X13162910Y3491360D01*
G01X13296760Y3443750D02*
Y3761250D01*
G01X13462120D02*
Y3443750D01*
G01Y3602500D02*
X13296760D01*
G01X13595970Y3443750D02*
X13694400Y3761250D01*
X13792830Y3443750D01*
G01X13757390Y3554870D02*
X13631400D01*
G01X13930620Y3443750D02*
Y3761250D01*
X14029040D01*
X14060540Y3745370D01*
X14080230Y3724210D01*
X14088100Y3681870D01*
X14080230Y3639540D01*
X14056600Y3613090D01*
X14029040Y3597200D01*
X13930620D01*
G01X14029040D02*
X14088100Y3443750D01*
G01X14324320Y3761250D02*
Y3443750D01*
G01X14233770Y3761250D02*
X14414870D01*
G01X14639280Y3433170D02*
X14631400Y3438460D01*
Y3449040D01*
X14639280Y3454330D01*
X14647160Y3449040D01*
Y3438460D01*
X14639280Y3433170D01*
G01Y3576030D02*
X14631400Y3581330D01*
Y3591910D01*
X14639280Y3597200D01*
X14647160Y3591910D01*
Y3581330D01*
X14639280Y3576030D01*
G01X15269200Y3761250D02*
Y3443750D01*
G01X15178650Y3761250D02*
X15359750D01*
G01X15584160Y3443750D02*
X15552660Y3449040D01*
X15525110Y3470200D01*
X15501480Y3501960D01*
X15485730Y3539000D01*
X15477860Y3581330D01*
Y3623670D01*
X15485730Y3666000D01*
X15501480Y3703040D01*
X15525110Y3734790D01*
X15552660Y3755960D01*
X15584160Y3761250D01*
X15615650Y3755960D01*
X15643210Y3734790D01*
X15666840Y3703040D01*
X15682590Y3666000D01*
X15690460Y3623670D01*
Y3581330D01*
X15682590Y3539000D01*
X15666840Y3501960D01*
X15643210Y3470200D01*
X15615650Y3449040D01*
X15584160Y3443750D01*
G01X15820380D02*
Y3761250D01*
X15914870D01*
X15946360Y3745370D01*
X15969990Y3708330D01*
X15977860Y3666000D01*
X15969990Y3623670D01*
X15950300Y3591910D01*
X15914870Y3576030D01*
X15820380D01*
G01X16529040Y3761250D02*
Y3443750D01*
G01X16473920Y3655410D02*
X16584160D01*
G01X16844000Y3443750D02*
X16820380Y3449040D01*
X16796760Y3470200D01*
X16781000Y3507250D01*
X16773130Y3549580D01*
X16781000Y3591910D01*
X16796760Y3628960D01*
X16820380Y3650120D01*
X16844000Y3655410D01*
X16867620Y3650120D01*
X16891240Y3628960D01*
X16906990Y3591910D01*
X16910930Y3549580D01*
X16906990Y3507250D01*
X16891240Y3470200D01*
X16867620Y3449040D01*
X16844000Y3443750D01*
G01X17505410Y3613090D02*
X17521160Y3628960D01*
X17532970Y3655410D01*
X17540850Y3692460D01*
X17532970Y3724210D01*
X17517230Y3745370D01*
X17489670Y3761250D01*
X17383370D01*
Y3443750D01*
X17513290D01*
X17540850Y3464910D01*
X17556600Y3496670D01*
X17564470Y3533710D01*
X17556600Y3570740D01*
X17532970Y3602500D01*
X17505410Y3613090D01*
X17383370D01*
G01X17788880Y3443750D02*
X17757380Y3449040D01*
X17729830Y3470200D01*
X17706200Y3501960D01*
X17690450Y3539000D01*
X17682580Y3581330D01*
Y3623670D01*
X17690450Y3666000D01*
X17706200Y3703040D01*
X17729830Y3734790D01*
X17757380Y3755960D01*
X17788880Y3761250D01*
X17820370Y3755960D01*
X17847930Y3734790D01*
X17871560Y3703040D01*
X17887310Y3666000D01*
X17895180Y3623670D01*
Y3581330D01*
X17887310Y3539000D01*
X17871560Y3501960D01*
X17847930Y3470200D01*
X17820370Y3449040D01*
X17788880Y3443750D01*
G01X18103840Y3761250D02*
Y3443750D01*
G01X18013290Y3761250D02*
X18194390D01*
G01X18418800D02*
Y3443750D01*
G01X18328250Y3761250D02*
X18509350D01*
G01X18733760Y3443750D02*
X18702260Y3449040D01*
X18674710Y3470200D01*
X18651080Y3501960D01*
X18635330Y3539000D01*
X18627460Y3581330D01*
Y3623670D01*
X18635330Y3666000D01*
X18651080Y3703040D01*
X18674710Y3734790D01*
X18702260Y3755960D01*
X18733760Y3761250D01*
X18765250Y3755960D01*
X18792810Y3734790D01*
X18816440Y3703040D01*
X18832190Y3666000D01*
X18840060Y3623670D01*
Y3581330D01*
X18832190Y3539000D01*
X18816440Y3501960D01*
X18792810Y3470200D01*
X18765250Y3449040D01*
X18733760Y3443750D01*
G01X18946350D02*
Y3761250D01*
X19048720Y3496670D01*
X19151090Y3761250D01*
Y3443750D01*
G01X12867630Y-1651250D02*
Y-1333750D01*
X12820390Y-1397250D01*
G01Y-1651250D02*
X12914870D01*
G01X13182590Y-1661830D02*
X13174710Y-1656540D01*
Y-1645960D01*
X13182590Y-1640670D01*
X13190470Y-1645960D01*
Y-1656540D01*
X13182590Y-1661830D01*
G01X13422740Y-1386670D02*
X13446370Y-1354920D01*
X13473930Y-1339040D01*
X13505430Y-1333750D01*
X13544790Y-1344330D01*
X13572360Y-1370790D01*
X13580230Y-1402540D01*
X13576290Y-1434300D01*
X13560540Y-1460750D01*
X13481800Y-1513670D01*
X13446370Y-1550710D01*
X13422740Y-1603640D01*
X13414870Y-1651250D01*
X13580230D01*
G01X13745580Y-1614220D02*
X13773140Y-1640670D01*
X13804630Y-1651250D01*
X13836130Y-1640670D01*
X13863690Y-1608930D01*
X13883380Y-1561290D01*
X13891250Y-1513670D01*
Y-1455460D01*
X13883380Y-1407840D01*
X13863690Y-1365500D01*
X13840070Y-1344330D01*
X13812510Y-1333750D01*
X13781010Y-1344330D01*
X13757390Y-1365500D01*
X13741640Y-1397250D01*
X13733770Y-1439590D01*
X13741640Y-1476620D01*
X13761330Y-1513670D01*
X13784950Y-1534840D01*
X13812510Y-1540130D01*
X13844000Y-1529550D01*
X13867630Y-1503090D01*
X13891250Y-1455460D01*
G01X14040860Y-1603640D02*
X14064470Y-1630090D01*
X14092030Y-1645960D01*
X14127470Y-1651250D01*
X14162910Y-1640670D01*
X14190460Y-1619510D01*
X14210150Y-1582460D01*
X14214080Y-1540130D01*
X14206210Y-1497800D01*
X14186520Y-1471330D01*
X14158960Y-1450170D01*
X14131410Y-1444880D01*
X14103850Y-1450170D01*
X14068420Y-1471330D01*
X14080230Y-1333750D01*
X14186520D01*
G01X14489670Y-1651250D02*
Y-1333750D01*
X14344000Y-1561290D01*
X14540860D01*
G01X12781020Y-2222750D02*
X12804630Y-2259800D01*
X12836130Y-2280960D01*
X12871570Y-2286250D01*
X12903070Y-2280960D01*
X12934560Y-2254510D01*
X12954240Y-2222750D01*
X12958180Y-2191000D01*
X12950310Y-2153970D01*
X12922750Y-2127500D01*
X12895190Y-2116910D01*
X12859750D01*
G01X12895190D02*
X12918810Y-2101040D01*
X12938500Y-2074590D01*
X12946370Y-2042840D01*
X12938500Y-2011080D01*
X12918810Y-1984630D01*
X12883380Y-1968750D01*
X12847950Y-1974040D01*
X12812510Y-1995210D01*
G01X13182590Y-2296830D02*
X13174710Y-2291540D01*
Y-2280960D01*
X13182590Y-2275670D01*
X13190470Y-2280960D01*
Y-2291540D01*
X13182590Y-2296830D01*
G01X13422740Y-2021670D02*
X13446370Y-1989920D01*
X13473930Y-1974040D01*
X13505430Y-1968750D01*
X13544790Y-1979330D01*
X13572360Y-2005790D01*
X13580230Y-2037540D01*
X13576290Y-2069300D01*
X13560540Y-2095750D01*
X13481800Y-2148670D01*
X13446370Y-2185710D01*
X13422740Y-2238640D01*
X13414870Y-2286250D01*
X13580230D01*
G01X13812510Y-1968750D02*
X13781010Y-1979330D01*
X13757390Y-2005790D01*
X13741640Y-2037540D01*
X13729830Y-2079880D01*
X13725900Y-2127500D01*
X13729830Y-2175130D01*
X13741640Y-2217460D01*
X13757390Y-2249220D01*
X13781010Y-2275670D01*
X13812510Y-2286250D01*
X13844000Y-2275670D01*
X13867630Y-2249220D01*
X13883380Y-2217460D01*
X13895190Y-2175130D01*
X13899120Y-2127500D01*
X13895190Y-2079880D01*
X13883380Y-2037540D01*
X13867630Y-2005790D01*
X13844000Y-1979330D01*
X13812510Y-1968750D01*
G01X14127470D02*
X14095970Y-1979330D01*
X14072350Y-2005790D01*
X14056600Y-2037540D01*
X14044790Y-2079880D01*
X14040860Y-2127500D01*
X14044790Y-2175130D01*
X14056600Y-2217460D01*
X14072350Y-2249220D01*
X14095970Y-2275670D01*
X14127470Y-2286250D01*
X14158960Y-2275670D01*
X14182590Y-2249220D01*
X14198340Y-2217460D01*
X14210150Y-2175130D01*
X14214080Y-2127500D01*
X14210150Y-2079880D01*
X14198340Y-2037540D01*
X14182590Y-2005790D01*
X14158960Y-1979330D01*
X14127470Y-1968750D01*
G01X14489670Y-2286250D02*
Y-1968750D01*
X14344000Y-2196290D01*
X14540860D01*
G01X12867630Y-1016250D02*
Y-698750D01*
X12820390Y-762250D01*
G01Y-1016250D02*
X12914870D01*
G01X13182590Y-1026830D02*
X13174710Y-1021540D01*
Y-1010960D01*
X13182590Y-1005670D01*
X13190470Y-1010960D01*
Y-1021540D01*
X13182590Y-1026830D01*
G01X13497550Y-1016250D02*
Y-698750D01*
X13450310Y-762250D01*
G01Y-1016250D02*
X13544790D01*
G01X13812510D02*
Y-698750D01*
X13765270Y-762250D01*
G01Y-1016250D02*
X13859750D01*
G01X14119590D02*
X14127470Y-947460D01*
X14139280Y-889260D01*
X14155030Y-836330D01*
X14174710Y-778130D01*
X14206210Y-698750D01*
X14048730D01*
G01X14367620Y-883970D02*
X14395190Y-846910D01*
X14418810Y-825750D01*
X14450310Y-815170D01*
X14477870Y-825750D01*
X14497550Y-846910D01*
X14513300Y-878670D01*
X14517240Y-915710D01*
X14513300Y-947460D01*
X14497550Y-979220D01*
X14473920Y-1005670D01*
X14446370Y-1016250D01*
X14414870Y-1005670D01*
X14387310Y-973930D01*
X14371560Y-926290D01*
X14367620Y-873380D01*
X14375500Y-804590D01*
X14387310Y-767540D01*
X14406990Y-730500D01*
X14434550Y-704040D01*
X14462110Y-698750D01*
X14489670Y-709330D01*
X14509360Y-735790D01*
G01X12867630Y-63750D02*
X12836130Y-74330D01*
X12812510Y-100790D01*
X12796760Y-132540D01*
X12784950Y-174880D01*
X12781020Y-222500D01*
X12784950Y-270130D01*
X12796760Y-312460D01*
X12812510Y-344220D01*
X12836130Y-370670D01*
X12867630Y-381250D01*
X12899120Y-370670D01*
X12922750Y-344220D01*
X12938500Y-312460D01*
X12950310Y-270130D01*
X12954240Y-222500D01*
X12950310Y-174880D01*
X12938500Y-132540D01*
X12922750Y-100790D01*
X12899120Y-74330D01*
X12867630Y-63750D01*
G01X13182590Y-391830D02*
X13174710Y-386540D01*
Y-375960D01*
X13182590Y-370670D01*
X13190470Y-375960D01*
Y-386540D01*
X13182590Y-391830D01*
G01X13430620Y-344220D02*
X13458180Y-370670D01*
X13489670Y-381250D01*
X13521170Y-370670D01*
X13548730Y-338930D01*
X13568420Y-291290D01*
X13576290Y-243670D01*
Y-185460D01*
X13568420Y-137840D01*
X13548730Y-95500D01*
X13525110Y-74330D01*
X13497550Y-63750D01*
X13466050Y-74330D01*
X13442430Y-95500D01*
X13426680Y-127250D01*
X13418810Y-169590D01*
X13426680Y-206620D01*
X13446370Y-243670D01*
X13469990Y-264840D01*
X13497550Y-270130D01*
X13529040Y-259550D01*
X13552670Y-233090D01*
X13576290Y-185460D01*
G01X13745580Y-344220D02*
X13773140Y-370670D01*
X13804630Y-381250D01*
X13836130Y-370670D01*
X13863690Y-338930D01*
X13883380Y-291290D01*
X13891250Y-243670D01*
Y-185460D01*
X13883380Y-137840D01*
X13863690Y-95500D01*
X13840070Y-74330D01*
X13812510Y-63750D01*
X13781010Y-74330D01*
X13757390Y-95500D01*
X13741640Y-127250D01*
X13733770Y-169590D01*
X13741640Y-206620D01*
X13761330Y-243670D01*
X13784950Y-264840D01*
X13812510Y-270130D01*
X13844000Y-259550D01*
X13867630Y-233090D01*
X13891250Y-185460D01*
G01X14127470Y-63750D02*
X14095970Y-74330D01*
X14072350Y-100790D01*
X14056600Y-132540D01*
X14044790Y-174880D01*
X14040860Y-222500D01*
X14044790Y-270130D01*
X14056600Y-312460D01*
X14072350Y-344220D01*
X14095970Y-370670D01*
X14127470Y-381250D01*
X14158960Y-370670D01*
X14182590Y-344220D01*
X14198340Y-312460D01*
X14210150Y-270130D01*
X14214080Y-222500D01*
X14210150Y-174880D01*
X14198340Y-132540D01*
X14182590Y-100790D01*
X14158960Y-74330D01*
X14127470Y-63750D01*
G01X14367620Y-248970D02*
X14395190Y-211910D01*
X14418810Y-190750D01*
X14450310Y-180170D01*
X14477870Y-190750D01*
X14497550Y-211910D01*
X14513300Y-243670D01*
X14517240Y-280710D01*
X14513300Y-312460D01*
X14497550Y-344220D01*
X14473920Y-370670D01*
X14446370Y-381250D01*
X14414870Y-370670D01*
X14387310Y-338930D01*
X14371560Y-291290D01*
X14367620Y-238380D01*
X14375500Y-169590D01*
X14387310Y-132540D01*
X14406990Y-95500D01*
X14434550Y-69040D01*
X14462110Y-63750D01*
X14489670Y-74330D01*
X14509360Y-100790D01*
G01X12867630Y571250D02*
X12836130Y560670D01*
X12812510Y534210D01*
X12796760Y502460D01*
X12784950Y460120D01*
X12781020Y412500D01*
X12784950Y364870D01*
X12796760Y322540D01*
X12812510Y290780D01*
X12836130Y264330D01*
X12867630Y253750D01*
X12899120Y264330D01*
X12922750Y290780D01*
X12938500Y322540D01*
X12950310Y364870D01*
X12954240Y412500D01*
X12950310Y460120D01*
X12938500Y502460D01*
X12922750Y534210D01*
X12899120Y560670D01*
X12867630Y571250D01*
G01X13182590Y243170D02*
X13174710Y248460D01*
Y259040D01*
X13182590Y264330D01*
X13190470Y259040D01*
Y248460D01*
X13182590Y243170D01*
G01X13497550Y253750D02*
X13525110Y259040D01*
X13556600Y274910D01*
X13576290Y301360D01*
X13584160Y338420D01*
X13576290Y375450D01*
X13552670Y407200D01*
X13517230Y423090D01*
X13477870D01*
X13454240Y433670D01*
X13434550Y460120D01*
X13426680Y497160D01*
X13438500Y534210D01*
X13466050Y560670D01*
X13497550Y571250D01*
X13529040Y560670D01*
X13556600Y534210D01*
X13568420Y497160D01*
X13560540Y460120D01*
X13540860Y433670D01*
X13517230Y423090D01*
X13477870D01*
X13442430Y407200D01*
X13418810Y375450D01*
X13410940Y338420D01*
X13418810Y301360D01*
X13438500Y274910D01*
X13469990Y259040D01*
X13497550Y253750D01*
G01X13812510D02*
Y571250D01*
X13765270Y507750D01*
G01Y253750D02*
X13859750D01*
G01X14052660Y518330D02*
X14076290Y550080D01*
X14103850Y565960D01*
X14135350Y571250D01*
X14174710Y560670D01*
X14202280Y534210D01*
X14210150Y502460D01*
X14206210Y470700D01*
X14190460Y444250D01*
X14111720Y391330D01*
X14076290Y354290D01*
X14052660Y301360D01*
X14044790Y253750D01*
X14210150D01*
G01X14442430D02*
X14469990Y259040D01*
X14501480Y274910D01*
X14521170Y301360D01*
X14529040Y338420D01*
X14521170Y375450D01*
X14497550Y407200D01*
X14462110Y423090D01*
X14422750D01*
X14399120Y433670D01*
X14379430Y460120D01*
X14371560Y497160D01*
X14383380Y534210D01*
X14410930Y560670D01*
X14442430Y571250D01*
X14473920Y560670D01*
X14501480Y534210D01*
X14513300Y497160D01*
X14505420Y460120D01*
X14485740Y433670D01*
X14462110Y423090D01*
X14422750D01*
X14387310Y407200D01*
X14363690Y375450D01*
X14355820Y338420D01*
X14363690Y301360D01*
X14383380Y274910D01*
X14414870Y259040D01*
X14442430Y253750D01*
G01X12867630Y1206250D02*
X12836130Y1195670D01*
X12812510Y1169210D01*
X12796760Y1137460D01*
X12784950Y1095120D01*
X12781020Y1047500D01*
X12784950Y999870D01*
X12796760Y957540D01*
X12812510Y925780D01*
X12836130Y899330D01*
X12867630Y888750D01*
X12899120Y899330D01*
X12922750Y925780D01*
X12938500Y957540D01*
X12950310Y999870D01*
X12954240Y1047500D01*
X12950310Y1095120D01*
X12938500Y1137460D01*
X12922750Y1169210D01*
X12899120Y1195670D01*
X12867630Y1206250D01*
G01X13182590Y878170D02*
X13174710Y883460D01*
Y894040D01*
X13182590Y899330D01*
X13190470Y894040D01*
Y883460D01*
X13182590Y878170D01*
G01X13422740Y1021030D02*
X13450310Y1058090D01*
X13473930Y1079250D01*
X13505430Y1089830D01*
X13532990Y1079250D01*
X13552670Y1058090D01*
X13568420Y1026330D01*
X13572360Y989290D01*
X13568420Y957540D01*
X13552670Y925780D01*
X13529040Y899330D01*
X13501490Y888750D01*
X13469990Y899330D01*
X13442430Y931070D01*
X13426680Y978710D01*
X13422740Y1031620D01*
X13430620Y1100410D01*
X13442430Y1137460D01*
X13462110Y1174500D01*
X13489670Y1200960D01*
X13517230Y1206250D01*
X13544790Y1195670D01*
X13564480Y1169210D01*
G01X13812510Y1206250D02*
X13781010Y1195670D01*
X13757390Y1169210D01*
X13741640Y1137460D01*
X13729830Y1095120D01*
X13725900Y1047500D01*
X13729830Y999870D01*
X13741640Y957540D01*
X13757390Y925780D01*
X13781010Y899330D01*
X13812510Y888750D01*
X13844000Y899330D01*
X13867630Y925780D01*
X13883380Y957540D01*
X13895190Y999870D01*
X13899120Y1047500D01*
X13895190Y1095120D01*
X13883380Y1137460D01*
X13867630Y1169210D01*
X13844000Y1195670D01*
X13812510Y1206250D01*
G01X14060540Y925780D02*
X14088100Y899330D01*
X14119590Y888750D01*
X14151090Y899330D01*
X14178650Y931070D01*
X14198340Y978710D01*
X14206210Y1026330D01*
Y1084540D01*
X14198340Y1132160D01*
X14178650Y1174500D01*
X14155030Y1195670D01*
X14127470Y1206250D01*
X14095970Y1195670D01*
X14072350Y1174500D01*
X14056600Y1142750D01*
X14048730Y1100410D01*
X14056600Y1063380D01*
X14076290Y1026330D01*
X14099910Y1005160D01*
X14127470Y999870D01*
X14158960Y1010450D01*
X14182590Y1036910D01*
X14206210Y1084540D01*
G01X14367620Y1021030D02*
X14395190Y1058090D01*
X14418810Y1079250D01*
X14450310Y1089830D01*
X14477870Y1079250D01*
X14497550Y1058090D01*
X14513300Y1026330D01*
X14517240Y989290D01*
X14513300Y957540D01*
X14497550Y925780D01*
X14473920Y899330D01*
X14446370Y888750D01*
X14414870Y899330D01*
X14387310Y931070D01*
X14371560Y978710D01*
X14367620Y1031620D01*
X14375500Y1100410D01*
X14387310Y1137460D01*
X14406990Y1174500D01*
X14434550Y1200960D01*
X14462110Y1206250D01*
X14489670Y1195670D01*
X14509360Y1169210D01*
G01X12867630Y1841250D02*
X12836130Y1830670D01*
X12812510Y1804210D01*
X12796760Y1772460D01*
X12784950Y1730120D01*
X12781020Y1682500D01*
X12784950Y1634870D01*
X12796760Y1592540D01*
X12812510Y1560780D01*
X12836130Y1534330D01*
X12867630Y1523750D01*
X12899120Y1534330D01*
X12922750Y1560780D01*
X12938500Y1592540D01*
X12950310Y1634870D01*
X12954240Y1682500D01*
X12950310Y1730120D01*
X12938500Y1772460D01*
X12922750Y1804210D01*
X12899120Y1830670D01*
X12867630Y1841250D01*
G01X13182590Y1513170D02*
X13174710Y1518460D01*
Y1529040D01*
X13182590Y1534330D01*
X13190470Y1529040D01*
Y1518460D01*
X13182590Y1513170D01*
G01X13544790Y1523750D02*
Y1841250D01*
X13399120Y1613710D01*
X13595980D01*
G01X13812510Y1841250D02*
X13781010Y1830670D01*
X13757390Y1804210D01*
X13741640Y1772460D01*
X13729830Y1730120D01*
X13725900Y1682500D01*
X13729830Y1634870D01*
X13741640Y1592540D01*
X13757390Y1560780D01*
X13781010Y1534330D01*
X13812510Y1523750D01*
X13844000Y1534330D01*
X13867630Y1560780D01*
X13883380Y1592540D01*
X13895190Y1634870D01*
X13899120Y1682500D01*
X13895190Y1730120D01*
X13883380Y1772460D01*
X13867630Y1804210D01*
X13844000Y1830670D01*
X13812510Y1841250D01*
G01X14052660Y1656030D02*
X14080230Y1693090D01*
X14103850Y1714250D01*
X14135350Y1724830D01*
X14162910Y1714250D01*
X14182590Y1693090D01*
X14198340Y1661330D01*
X14202280Y1624290D01*
X14198340Y1592540D01*
X14182590Y1560780D01*
X14158960Y1534330D01*
X14131410Y1523750D01*
X14099910Y1534330D01*
X14072350Y1566070D01*
X14056600Y1613710D01*
X14052660Y1666620D01*
X14060540Y1735410D01*
X14072350Y1772460D01*
X14092030Y1809500D01*
X14119590Y1835960D01*
X14147150Y1841250D01*
X14174710Y1830670D01*
X14194400Y1804210D01*
G01X14489670Y1523750D02*
Y1841250D01*
X14344000Y1613710D01*
X14540860D01*
G01X13099910Y2201070D02*
X13131410Y2174620D01*
X13166840Y2158750D01*
X13198340D01*
X13229830Y2174620D01*
X13253460Y2201070D01*
X13265270Y2238130D01*
X13257400Y2275160D01*
X13237710Y2306910D01*
X13202270Y2328090D01*
X13155030Y2338670D01*
X13127470Y2359830D01*
X13115660Y2396870D01*
X13123540Y2433920D01*
X13143220Y2460370D01*
X13170780Y2476250D01*
X13198340D01*
X13225900Y2465670D01*
X13249520Y2439210D01*
G01X13450310Y2476250D02*
X13544790D01*
G01X13497550D02*
Y2158750D01*
G01X13450310D02*
X13544790D01*
G01X13737700Y2476250D02*
X13887320D01*
X13737700Y2158750D01*
X13887320D01*
G01X14206210D02*
X14048730D01*
Y2476250D01*
X14206210D01*
G01X14143220Y2322800D02*
X14048730D01*
G01X16056600Y2635000D02*
Y-2445000D01*
G01X16804630Y-1651250D02*
Y-1333750D01*
X16899120D01*
X16930610Y-1349630D01*
X16954240Y-1386670D01*
X16962110Y-1429000D01*
X16954240Y-1471330D01*
X16934550Y-1503090D01*
X16899120Y-1518970D01*
X16804630D01*
G01X17119590Y-1333750D02*
Y-1651250D01*
X17277070D01*
G01X17414860D02*
X17513290Y-1333750D01*
X17611720Y-1651250D01*
G01X17576280Y-1540130D02*
X17450290D01*
G01X17828250Y-1333750D02*
Y-1651250D01*
G01X17737700Y-1333750D02*
X17918800D01*
G01X18221950Y-1651250D02*
X18064470D01*
Y-1333750D01*
X18221950D01*
G01X18158960Y-1487200D02*
X18064470D01*
G01X18371560Y-1651250D02*
Y-1333750D01*
X18450290D01*
X18481790Y-1349630D01*
X18505410Y-1370790D01*
X18525100Y-1402540D01*
X18540850Y-1439590D01*
X18544780Y-1492500D01*
X18540850Y-1545420D01*
X18525100Y-1582460D01*
X18505410Y-1614220D01*
X18481790Y-1635380D01*
X18450290Y-1651250D01*
X18371560D01*
G01X16804630Y-2286250D02*
Y-1968750D01*
X16899120D01*
X16930610Y-1984630D01*
X16954240Y-2021670D01*
X16962110Y-2064000D01*
X16954240Y-2106330D01*
X16934550Y-2138090D01*
X16899120Y-2153970D01*
X16804630D01*
G01X17119590Y-1968750D02*
Y-2286250D01*
X17277070D01*
G01X17414860D02*
X17513290Y-1968750D01*
X17611720Y-2286250D01*
G01X17576280Y-2175130D02*
X17450290D01*
G01X17828250Y-1968750D02*
Y-2286250D01*
G01X17737700Y-1968750D02*
X17918800D01*
G01X18221950Y-2286250D02*
X18064470D01*
Y-1968750D01*
X18221950D01*
G01X18158960Y-2122200D02*
X18064470D01*
G01X18371560Y-2286250D02*
Y-1968750D01*
X18450290D01*
X18481790Y-1984630D01*
X18505410Y-2005790D01*
X18525100Y-2037540D01*
X18540850Y-2074590D01*
X18544780Y-2127500D01*
X18540850Y-2180420D01*
X18525100Y-2217460D01*
X18505410Y-2249220D01*
X18481790Y-2270380D01*
X18450290Y-2286250D01*
X18371560D01*
G01X16804630Y-1016250D02*
Y-698750D01*
X16899120D01*
X16930610Y-714630D01*
X16954240Y-751670D01*
X16962110Y-794000D01*
X16954240Y-836330D01*
X16934550Y-868090D01*
X16899120Y-883970D01*
X16804630D01*
G01X17119590Y-698750D02*
Y-1016250D01*
X17277070D01*
G01X17414860D02*
X17513290Y-698750D01*
X17611720Y-1016250D01*
G01X17576280Y-905130D02*
X17450290D01*
G01X17828250Y-698750D02*
Y-1016250D01*
G01X17737700Y-698750D02*
X17918800D01*
G01X18221950Y-1016250D02*
X18064470D01*
Y-698750D01*
X18221950D01*
G01X18158960Y-852200D02*
X18064470D01*
G01X18371560Y-1016250D02*
Y-698750D01*
X18450290D01*
X18481790Y-714630D01*
X18505410Y-735790D01*
X18525100Y-767540D01*
X18540850Y-804590D01*
X18544780Y-857500D01*
X18540850Y-910420D01*
X18525100Y-947460D01*
X18505410Y-979220D01*
X18481790Y-1000380D01*
X18450290Y-1016250D01*
X18371560D01*
G01X16804630Y-381250D02*
Y-63750D01*
X16899120D01*
X16930610Y-79630D01*
X16954240Y-116670D01*
X16962110Y-159000D01*
X16954240Y-201330D01*
X16934550Y-233090D01*
X16899120Y-248970D01*
X16804630D01*
G01X17119590Y-63750D02*
Y-381250D01*
X17277070D01*
G01X17414860D02*
X17513290Y-63750D01*
X17611720Y-381250D01*
G01X17576280Y-270130D02*
X17450290D01*
G01X17828250Y-63750D02*
Y-381250D01*
G01X17737700Y-63750D02*
X17918800D01*
G01X18221950Y-381250D02*
X18064470D01*
Y-63750D01*
X18221950D01*
G01X18158960Y-217200D02*
X18064470D01*
G01X18371560Y-381250D02*
Y-63750D01*
X18450290D01*
X18481790Y-79630D01*
X18505410Y-100790D01*
X18525100Y-132540D01*
X18540850Y-169590D01*
X18544780Y-222500D01*
X18540850Y-275420D01*
X18525100Y-312460D01*
X18505410Y-344220D01*
X18481790Y-365380D01*
X18450290Y-381250D01*
X18371560D01*
G01X16804630Y253750D02*
Y571250D01*
X16899120D01*
X16930610Y555370D01*
X16954240Y518330D01*
X16962110Y476000D01*
X16954240Y433670D01*
X16934550Y401910D01*
X16899120Y386030D01*
X16804630D01*
G01X17119590Y571250D02*
Y253750D01*
X17277070D01*
G01X17414860D02*
X17513290Y571250D01*
X17611720Y253750D01*
G01X17576280Y364870D02*
X17450290D01*
G01X17828250Y571250D02*
Y253750D01*
G01X17737700Y571250D02*
X17918800D01*
G01X18221950Y253750D02*
X18064470D01*
Y571250D01*
X18221950D01*
G01X18158960Y417800D02*
X18064470D01*
G01X18371560Y253750D02*
Y571250D01*
X18450290D01*
X18481790Y555370D01*
X18505410Y534210D01*
X18525100Y502460D01*
X18540850Y465410D01*
X18544780Y412500D01*
X18540850Y359580D01*
X18525100Y322540D01*
X18505410Y290780D01*
X18481790Y269620D01*
X18450290Y253750D01*
X18371560D01*
G01X16804630Y888750D02*
Y1206250D01*
X16899120D01*
X16930610Y1190370D01*
X16954240Y1153330D01*
X16962110Y1111000D01*
X16954240Y1068670D01*
X16934550Y1036910D01*
X16899120Y1021030D01*
X16804630D01*
G01X17119590Y1206250D02*
Y888750D01*
X17277070D01*
G01X17414860D02*
X17513290Y1206250D01*
X17611720Y888750D01*
G01X17576280Y999870D02*
X17450290D01*
G01X17828250Y1206250D02*
Y888750D01*
G01X17737700Y1206250D02*
X17918800D01*
G01X18221950Y888750D02*
X18064470D01*
Y1206250D01*
X18221950D01*
G01X18158960Y1052800D02*
X18064470D01*
G01X18371560Y888750D02*
Y1206250D01*
X18450290D01*
X18481790Y1190370D01*
X18505410Y1169210D01*
X18525100Y1137460D01*
X18540850Y1100410D01*
X18544780Y1047500D01*
X18540850Y994580D01*
X18525100Y957540D01*
X18505410Y925780D01*
X18481790Y904620D01*
X18450290Y888750D01*
X18371560D01*
G01X16804630Y1523750D02*
Y1841250D01*
X16899120D01*
X16930610Y1825370D01*
X16954240Y1788330D01*
X16962110Y1746000D01*
X16954240Y1703670D01*
X16934550Y1671910D01*
X16899120Y1656030D01*
X16804630D01*
G01X17119590Y1841250D02*
Y1523750D01*
X17277070D01*
G01X17414860D02*
X17513290Y1841250D01*
X17611720Y1523750D01*
G01X17576280Y1634870D02*
X17450290D01*
G01X17828250Y1841250D02*
Y1523750D01*
G01X17737700Y1841250D02*
X17918800D01*
G01X18221950Y1523750D02*
X18064470D01*
Y1841250D01*
X18221950D01*
G01X18158960Y1687800D02*
X18064470D01*
G01X18371560Y1523750D02*
Y1841250D01*
X18450290D01*
X18481790Y1825370D01*
X18505410Y1804210D01*
X18525100Y1772460D01*
X18540850Y1735410D01*
X18544780Y1682500D01*
X18540850Y1629580D01*
X18525100Y1592540D01*
X18505410Y1560780D01*
X18481790Y1539620D01*
X18450290Y1523750D01*
X18371560D01*
G01X16804630Y2158750D02*
Y2476250D01*
X16899120D01*
X16930610Y2460370D01*
X16954240Y2423330D01*
X16962110Y2381000D01*
X16954240Y2338670D01*
X16934550Y2306910D01*
X16899120Y2291030D01*
X16804630D01*
G01X17119590Y2476250D02*
Y2158750D01*
X17277070D01*
G01X17414860D02*
X17513290Y2476250D01*
X17611720Y2158750D01*
G01X17576280Y2269870D02*
X17450290D01*
G01X17828250Y2476250D02*
Y2158750D01*
G01X17737700Y2476250D02*
X17918800D01*
G01X18221950Y2158750D02*
X18064470D01*
Y2476250D01*
X18221950D01*
G01X18158960Y2322800D02*
X18064470D01*
G01X18371560Y2158750D02*
Y2476250D01*
X18450290D01*
X18481790Y2460370D01*
X18505410Y2439210D01*
X18525100Y2407460D01*
X18540850Y2370410D01*
X18544780Y2317500D01*
X18540850Y2264580D01*
X18525100Y2227540D01*
X18505410Y2195780D01*
X18481790Y2174620D01*
X18450290Y2158750D01*
X18371560D01*
G01X19284940Y2635000D02*
Y-2445000D01*
G01X20182580Y-1603640D02*
X20206190Y-1630090D01*
X20233750Y-1645960D01*
X20269190Y-1651250D01*
X20304630Y-1640670D01*
X20332180Y-1619510D01*
X20351870Y-1582460D01*
X20355800Y-1540130D01*
X20347930Y-1497800D01*
X20328240Y-1471330D01*
X20300680Y-1450170D01*
X20273130Y-1444880D01*
X20245570Y-1450170D01*
X20210140Y-1471330D01*
X20221950Y-1333750D01*
X20328240D01*
G01X20194380Y-2021670D02*
X20218010Y-1989920D01*
X20245570Y-1974040D01*
X20277070Y-1968750D01*
X20316430Y-1979330D01*
X20344000Y-2005790D01*
X20351870Y-2037540D01*
X20347930Y-2069300D01*
X20332180Y-2095750D01*
X20253440Y-2148670D01*
X20218010Y-2185710D01*
X20194380Y-2238640D01*
X20186510Y-2286250D01*
X20351870D01*
G01X20194380Y-751670D02*
X20218010Y-719920D01*
X20245570Y-704040D01*
X20277070Y-698750D01*
X20316430Y-709330D01*
X20344000Y-735790D01*
X20351870Y-767540D01*
X20347930Y-799300D01*
X20332180Y-825750D01*
X20253440Y-878670D01*
X20218010Y-915710D01*
X20194380Y-968640D01*
X20186510Y-1016250D01*
X20351870D01*
G01X19954230Y-381250D02*
Y-63750D01*
X19906990Y-127250D01*
G01Y-381250D02*
X20001470D01*
G01X20194380Y-116670D02*
X20218010Y-84920D01*
X20245570Y-69040D01*
X20277070Y-63750D01*
X20316430Y-74330D01*
X20344000Y-100790D01*
X20351870Y-132540D01*
X20347930Y-164300D01*
X20332180Y-190750D01*
X20253440Y-243670D01*
X20218010Y-280710D01*
X20194380Y-333640D01*
X20186510Y-381250D01*
X20351870D01*
G01X20631390D02*
Y-63750D01*
X20485720Y-291290D01*
X20682580D01*
G01X20111710Y253750D02*
Y571250D01*
X20064470Y507750D01*
G01Y253750D02*
X20158950D01*
G01X20426670Y571250D02*
X20395170Y560670D01*
X20371550Y534210D01*
X20355800Y502460D01*
X20343990Y460120D01*
X20340060Y412500D01*
X20343990Y364870D01*
X20355800Y322540D01*
X20371550Y290780D01*
X20395170Y264330D01*
X20426670Y253750D01*
X20458160Y264330D01*
X20481790Y290780D01*
X20497540Y322540D01*
X20509350Y364870D01*
X20513280Y412500D01*
X20509350Y460120D01*
X20497540Y502460D01*
X20481790Y534210D01*
X20458160Y560670D01*
X20426670Y571250D01*
G01X19867620Y952250D02*
X19891230Y915200D01*
X19922730Y894040D01*
X19958170Y888750D01*
X19989670Y894040D01*
X20021160Y920490D01*
X20040840Y952250D01*
X20044780Y984000D01*
X20036910Y1021030D01*
X20009350Y1047500D01*
X19981790Y1058090D01*
X19946350D01*
G01X19981790D02*
X20005410Y1073960D01*
X20025100Y1100410D01*
X20032970Y1132160D01*
X20025100Y1163920D01*
X20005410Y1190370D01*
X19969980Y1206250D01*
X19934550Y1200960D01*
X19899110Y1179790D01*
G01X20261310Y888750D02*
X20269190Y957540D01*
X20281000Y1015740D01*
X20296750Y1068670D01*
X20316430Y1126870D01*
X20347930Y1206250D01*
X20190450D01*
G01X20517220Y925780D02*
X20544780Y899330D01*
X20576270Y888750D01*
X20607770Y899330D01*
X20635330Y931070D01*
X20655020Y978710D01*
X20662890Y1026330D01*
Y1084540D01*
X20655020Y1132160D01*
X20635330Y1174500D01*
X20611710Y1195670D01*
X20584150Y1206250D01*
X20552650Y1195670D01*
X20529030Y1174500D01*
X20513280Y1142750D01*
X20505410Y1100410D01*
X20513280Y1063380D01*
X20532970Y1026330D01*
X20556590Y1005160D01*
X20584150Y999870D01*
X20615640Y1010450D01*
X20639270Y1036910D01*
X20662890Y1084540D01*
G01X19879420Y1788330D02*
X19903050Y1820080D01*
X19930610Y1835960D01*
X19962110Y1841250D01*
X20001470Y1830670D01*
X20029040Y1804210D01*
X20036910Y1772460D01*
X20032970Y1740700D01*
X20017220Y1714250D01*
X19938480Y1661330D01*
X19903050Y1624290D01*
X19879420Y1571360D01*
X19871550Y1523750D01*
X20036910D01*
G01X20269190D02*
Y1841250D01*
X20221950Y1777750D01*
G01Y1523750D02*
X20316430D01*
G01X20497540Y1587250D02*
X20521150Y1550200D01*
X20552650Y1529040D01*
X20588090Y1523750D01*
X20619590Y1529040D01*
X20651080Y1555490D01*
X20670760Y1587250D01*
X20674700Y1619000D01*
X20666830Y1656030D01*
X20639270Y1682500D01*
X20611710Y1693090D01*
X20576270D01*
G01X20611710D02*
X20635330Y1708960D01*
X20655020Y1735410D01*
X20662890Y1767160D01*
X20655020Y1798920D01*
X20635330Y1825370D01*
X20599900Y1841250D01*
X20564470Y1835960D01*
X20529030Y1814790D01*
G01X19954230Y2158750D02*
X19922730Y2164040D01*
X19895180Y2185200D01*
X19871550Y2216960D01*
X19855800Y2254000D01*
X19847930Y2296330D01*
Y2338670D01*
X19855800Y2381000D01*
X19871550Y2418040D01*
X19895180Y2449790D01*
X19922730Y2470960D01*
X19954230Y2476250D01*
X19985720Y2470960D01*
X20013280Y2449790D01*
X20036910Y2418040D01*
X20052660Y2381000D01*
X20060530Y2338670D01*
Y2296330D01*
X20052660Y2254000D01*
X20036910Y2216960D01*
X20013280Y2185200D01*
X19985720Y2164040D01*
X19954230Y2158750D01*
G01X19985720Y2243420D02*
X20032970Y2158750D01*
G01X20269190Y2476250D02*
Y2158750D01*
G01X20178640Y2476250D02*
X20359740D01*
G01X20584150Y2158750D02*
Y2301620D01*
X20505410Y2476250D01*
G01X20662890D02*
X20584150Y2301620D01*
M02*
