G04 ================== begin FILE IDENTIFICATION RECORD ==================*
G04 Layout Name:  X-NUCLEO-IHM08M1_ver1_3.brd*
G04 Film Name:    X-NUCLEO-IHM08M1-BOTTOM*
G04 File Format:  Gerber RS274X*
G04 File Origin:  Cadence Allegro 16.6-2015-S056*
G04 Origin Date:  Mon Sep 21 16:10:32 2015*
G04 *
G04 Layer:  ETCH/BOTTOM*
G04 Layer:  PIN/BOTTOM*
G04 Layer:  VIA CLASS/BOTTOM*
G04 *
G04 Offset:    (0.0000 0.0000)*
G04 Mirror:    No*
G04 Mode:      Positive*
G04 Rotation:  0*
G04 FullContactRelief:  No*
G04 UndefLineWidth:     0.0000*
G04 ================== end FILE IDENTIFICATION RECORD ====================*
%FSLAX35Y35*MOMM*%
%IR0*IPPOS*OFA0.00000B0.00000*MIA0B0*SFA1.00000B1.00000*%
%ADD15C,.8128*%
%ADD19C,2.032*%
%ADD10C,3.2004*%
%ADD16C,1.651*%
%ADD11C,1.1176*%
%ADD14R,1.651X1.651*%
%ADD12C,2.794*%
%ADD17C,1.778*%
%ADD13R,2.794X2.794*%
%ADD18R,1.778X1.778*%
%ADD20C,.3*%
%ADD21C,.4*%
%ADD22C,.5*%
%ADD23C,.25*%
%ADD24C,.8*%
%ADD25C,1.*%
%ADD29R,2.306X2.306*%
%ADD27C,2.306*%
%ADD33C,2.56*%
%ADD28C,2.0724*%
%ADD26C,4.902*%
%ADD32C,2.3264*%
%ADD31C,2.179*%
%ADD30C,1.9454*%
G75*
%LPD*%
G75*
G36*
G01X-1580000Y-2830000D02*
Y-5880000D01*
X-285000D01*
Y-2830000D01*
X-1580000D01*
G37*
G36*
G01X-1570000Y-2540000D02*
X-1580000Y-2530000D01*
Y-330000D01*
X-360000D01*
X-200000Y-490000D01*
X200000D01*
X310000Y-600000D01*
X400000D01*
Y-550000D01*
X250000Y-400000D01*
X-160000D01*
X-290000Y-270000D01*
Y4730000D01*
X1110000D01*
Y3690000D01*
X5250000D01*
Y4730000D01*
X6640000D01*
Y-290000D01*
X7940000D01*
Y-645660D01*
G02X7907120Y-664780I-21998J-1D01*
G03X7806520Y-689980I-37119J-65218D01*
G01X7623430D01*
X7583430Y-729980D01*
X7265360D01*
G02X7243740Y-703900I-1J22000D01*
G03X7202300Y-622270I-73740J13899D01*
G02X7196210Y-586850I9465J19861D01*
G01X7265540Y-517520D01*
X7545010D01*
G03Y-442480I64990J37520D01*
G01X7234460D01*
X7172160Y-504780D01*
G02X7134700Y-487130I-15560J15553D01*
G03X6985180Y-485730I-74700J7133D01*
G01X6985560Y-490770D01*
X6961030Y-515300D01*
X6949450Y-503720D01*
X6950120Y-498380D01*
G03X6861760Y-415290I-74457J9348D01*
G01X6856060Y-416360D01*
X6812170Y-372480D01*
X6545540D01*
X6325630Y-152570D01*
G02X6342600Y-115060I15559J15555D01*
G03X6256580Y-67580I7397J115062D01*
G02X6238760Y-102480I-17820J-12901D01*
G01X6207240D01*
G02X6189420Y-67580I0J21999D01*
G03X6013490Y80530I-93423J67572D01*
G01X6013440Y80480D01*
X5970460Y37520D01*
X5757790D01*
X5703300Y92110D01*
Y115300D01*
X5472700D01*
Y-32890D01*
G02X5435140Y-48440I-22000J3D01*
G01X4859280Y527430D01*
G02X4875290Y564980I15555J15556D01*
G03X4950600Y653900I1570J75022D01*
G01X4949530Y659600D01*
X5045150Y755230D01*
Y870450D01*
G03X5047410Y999070I-37519J64989D01*
G02Y1036370I11666J18650D01*
G03X4942640Y1137520I-39783J63628D01*
G01X4667410D01*
G03Y1062480I-64990J-37520D01*
G01X4942640D01*
G03X4967850Y1036370I64987J37522D01*
G02Y999070I-11666J-18650D01*
G03X4970110Y870450I39779J-63631D01*
G01Y786310D01*
X4896460Y712670D01*
X4890760Y713740D01*
G03X4801840Y638430I-13898J-73740D01*
G02X4764290Y622420I-21994J-455D01*
G01X4564180Y822520D01*
X4560380D01*
X4556000Y826900D01*
X4526160D01*
X4525540Y827520D01*
X3404460D01*
X3299600Y722670D01*
X3293900Y723740D01*
G03X3215910Y610960I-13903J-73742D01*
G02X3197120Y577520I-18789J-11442D01*
G01X2733690D01*
G02X2718140Y615080I3J22000D01*
G01X2827520Y724460D01*
Y934460D01*
X3007140Y1114080D01*
G02X3044700Y1098530I15560J-15553D01*
G01Y954700D01*
X3275300D01*
Y1192480D01*
X3320430D01*
G02X3335420Y1154380I0J-21999D01*
G03X3492580I78580J-84380D01*
G02X3507570Y1192480I14990J16101D01*
G01X3574430D01*
G02X3589420Y1154380I0J-21999D01*
G03X3746580I78580J-84380D01*
G02X3761570Y1192480I14990J16101D01*
G01X3828430D01*
G02X3843420Y1154380I0J-21999D01*
G03X4000580I78580J-84380D01*
G02X4015570Y1192480I14990J16101D01*
G01X4100610D01*
G02X4113810Y1152880I-1J-22000D01*
G03X4238190I62190J-82880D01*
G02X4251390Y1192480I13201J17600D01*
G01X4375540D01*
X4468980Y1285920D01*
X4488980D01*
X4500400Y1297330D01*
X4506100Y1296260D01*
G03X4584990Y1332480I13904J73741D01*
G01X4938150D01*
G03Y1407520I64990J37520D01*
G01X4584990D01*
G03X4444990Y1372280I-64992J-37516D01*
G01X4444860Y1367920D01*
X4344460Y1267520D01*
X4243690D01*
G02X4228140Y1305080I3J22000D01*
G01X4297520Y1374460D01*
Y1425010D01*
G03X4207170Y1543290I-37521J64987D01*
G03X4100080Y1438160I-52832J-53292D01*
G02X4099910Y1422790I-7953J-7598D01*
G01X4049640Y1372520D01*
X3015820D01*
X2536680Y893380D01*
X2215680D01*
G03X2077620Y872940I-64988J-37519D01*
G03X1988760Y776430I-17619J-72941D01*
G02X1967870Y747520I-20887J-6910D01*
G01X1655540D01*
X1392670Y1010400D01*
X1393740Y1016100D01*
G03X1333900Y956260I-73740J13900D01*
G01X1339600Y957330D01*
X1610640Y686300D01*
G02X1602860Y667520I-7777J-7780D01*
G01X1595550D01*
X1473660Y789410D01*
X1424990D01*
G03Y714370I-64990J-37520D01*
G01X1442580D01*
X1528300Y628650D01*
G02X1527990Y597230I-15555J-15558D01*
G03X1505700Y532610I52008J-54094D01*
G02X1483920Y507520I-21781J-3091D01*
G01X1465430D01*
X1415040Y557920D01*
X1416110Y563620D01*
G03X1298530Y516620I-73740J13901D01*
G02Y480900I-12848J-17860D01*
G03X1407360Y382480I43842J-60901D01*
G01X3291160D01*
X3441160Y232480D01*
X3472300D01*
G03X3485630Y324430I64989J37520D01*
G02X3454930Y324830I-15145J15956D01*
G01X3384840Y394920D01*
G02X3400390Y432480I15553J15560D01*
G01X3934460D01*
X4231860Y135080D01*
G02X4216310Y97520I-15553J-15560D01*
G01X2524460D01*
X2364460Y-62480D01*
X1407360D01*
G03Y-137520I-64990J-37520D01*
G01X2395540D01*
X2555540Y22480D01*
X4514460D01*
X4704460Y-167520D01*
X5224460D01*
X5280790Y-223850D01*
G02X5273110Y-259940I-15560J-15551D01*
G03X5244060Y-279980I26892J-70058D01*
G01X5007620D01*
X4954510Y-333090D01*
G02X4939480Y-333580I-7777J7778D01*
G03X4834060Y-339980I-49479J-56419D01*
G01X4548650D01*
X4533350Y-355280D01*
X4506770Y-328720D01*
X4506710Y-328660D01*
G03X4423890Y-293580I-82820J-80224D01*
G01X4379330D01*
X4305730Y-219980D01*
X4285190D01*
Y-13580D01*
X4054590D01*
Y-219980D01*
X2920300D01*
X2873030Y-172710D01*
X2829910D01*
G03X2730680Y-161430I-55942J-50018D01*
G03X2634060Y-174470I-40679J-63059D01*
G01X2534780D01*
X2429270Y-279980D01*
X2395940D01*
G03X2279970Y-284980I-55936J-50020D01*
G01X1841350D01*
X1810770Y-315560D01*
X1805730Y-315180D01*
G03X1725110Y-385250I-5731J-74821D01*
G02X1700170Y-405650I-21954J1395D01*
G03X1618150Y-501640I-10168J-74348D01*
G02X1597080Y-529980I-21067J-6340D01*
G01X1535940D01*
G03Y-630020I-55940J-50020D01*
G01X2365480D01*
G02X2386910Y-657000I0J-22001D01*
G03X2535000Y-676310I73088J-16992D01*
G02X2556310Y-655000I21993J-683D01*
G03X2609920Y-630020I-2324J75003D01*
G01X3159280D01*
X3389280Y-860020D01*
X5154060D01*
G03X5282010Y-831110I55939J50019D01*
G02X5318680Y-821740I21113J-6185D01*
G01X5379380Y-882440D01*
G02X5363830Y-920000I-15553J-15560D01*
G01X3380000D01*
X3350000Y-950000D01*
X3275250D01*
G02X3253630Y-923920I-3J21999D01*
G03X3165990Y-836260I-73738J13919D01*
G01X3160290Y-837330D01*
X3115200Y-792250D01*
X2286220D01*
G03X2152260Y-859330I-64988J-37517D01*
G02X2132040Y-890000I-20220J-8670D01*
G01X1520000D01*
X1160000Y-530000D01*
X750000D01*
X730000Y-550000D01*
Y-600000D01*
X1130000D01*
X1487840Y-957840D01*
X2259660D01*
X2262290Y-959440D01*
G03X2328030I32870J54170D01*
G01X2330660Y-957840D01*
X2887840D01*
X2940000Y-1010000D01*
X3390000D01*
X3420000Y-980000D01*
X7035000D01*
Y-1950000D01*
X6275000D01*
X6175000Y-1850000D01*
X5610000D01*
X5510000Y-1950000D01*
X3675000D01*
X3585000Y-1860000D01*
X3045000D01*
X2955000Y-1950000D01*
X2135000D01*
X2005000Y-1820000D01*
X1175000D01*
X455000Y-2540000D01*
X-1570000D01*
G37*
G36*
G01X-205000Y-3068790D02*
Y-6540000D01*
X-145000Y-6600000D01*
X2795000D01*
X2900000Y-6495000D01*
Y-5690000D01*
X2820000Y-5610000D01*
X1247770D01*
X975000Y-5337230D01*
Y-3068790D01*
X-205000D01*
G37*
G36*
G01X1695000Y-3160000D02*
Y-4560000D01*
X1060000D01*
Y-5280000D01*
X1290000Y-5510000D01*
X2640000D01*
X2705000Y-5445000D01*
Y-3070000D01*
X1785000D01*
X1695000Y-3160000D01*
G37*
G36*
G01X1632250Y-4500000D02*
Y-3150000D01*
X1670000Y-3112250D01*
Y-2340000D01*
X1070000D01*
X1030000Y-2380000D01*
Y-2785000D01*
X1055000Y-2810000D01*
Y-4500000D01*
X1632250D01*
G37*
G36*
G01X4045000D02*
Y-2990000D01*
X1735000D01*
Y-2000000D01*
X3035000D01*
X3045000Y-2010000D01*
X3165000D01*
X3175000Y-2000000D01*
X7175000D01*
X7225000Y-2050000D01*
Y-2580000D01*
X7195000Y-2610000D01*
X6990000D01*
X6950000Y-2650000D01*
Y-2970000D01*
X6930000Y-2990000D01*
X4625000D01*
Y-4500000D01*
X4045000D01*
G37*
G36*
G01X2785000Y-3067660D02*
X3962720D01*
Y-5362280D01*
X3755000Y-5570000D01*
Y-6100000D01*
X3695000Y-6160000D01*
X3065000D01*
X3005000Y-6100000D01*
Y-5580000D01*
X2785000Y-5360000D01*
Y-3067660D01*
G37*
G36*
G01X3904350Y709780D02*
X4517480D01*
X5447480Y-220220D01*
X6227480D01*
X6334690Y-327420D01*
G02X6319130Y-364980I-15556J-15559D01*
G01X6068970D01*
G02X6047600Y-337770I2J21998D01*
G03X5909700Y-282480I-72906J17778D01*
G01X5844470D01*
X5814470Y-312480D01*
X5475540D01*
X5255540Y-92480D01*
X4735540D01*
X4715550Y-72490D01*
G02X4725660Y-35620I15560J15555D01*
G03X4693180Y110820I-18580J72701D01*
G01X4687480Y109750D01*
X4649700Y147520D01*
X4325540D01*
X3965540Y507520D01*
X3573220D01*
G02X3557670Y545080I3J22000D01*
G01X3615070Y602480D01*
X3754900D01*
G03X3885200Y676950I64988J37519D01*
G02X3904350Y709780I19150J10830D01*
G37*
G36*
G01X6945000Y-3060000D02*
Y-6540000D01*
X6885000Y-6600000D01*
X3925000D01*
X3850000Y-6525000D01*
Y-5645000D01*
X3885000Y-5610000D01*
X5735000D01*
X5775000Y-5570000D01*
Y-3060000D01*
X6945000D01*
G37*
G36*
G01X4674130D02*
Y-4560000D01*
X4040000D01*
Y-5490000D01*
X4060000Y-5510000D01*
X5694130D01*
Y-3060000D01*
X4674130D01*
G37*
G36*
G01X4334990Y-344980D02*
Y-408880D01*
X4428310Y-413300D01*
X4423890Y-319980D01*
X4359990D01*
G03X4334990Y-344980I0J-25000D01*
G37*
G36*
G01X4531940Y-391200D02*
X4486740Y-346030D01*
X4417640Y-408880D01*
X4486740Y-471730D01*
X4531940Y-426560D01*
G03Y-391200I-17680J17680D01*
G37*
G36*
G01X5750250Y7700D02*
X5676900Y81190D01*
X5584880Y0D01*
X5676900Y-81190D01*
X5750250Y-7700D01*
G03Y7700I-9850J7700D01*
G37*
G36*
G01X5979110Y-8840D02*
X6033140Y-62850D01*
X6099120Y0D01*
X6033140Y62850D01*
X5979110Y8840D01*
G03Y-8840I8840J-8840D01*
G37*
G36*
G01X7645000Y-4680000D02*
Y-2710000D01*
X7605000Y-2670000D01*
X7030000D01*
X7008810Y-2691190D01*
Y-4680000D01*
X7645000D01*
G37*
%LPC*%
G75*
G36*
G01X5926460Y4280480D02*
X5774460Y4432480D01*
X5713540D01*
X5670560Y4389520D01*
X5670510Y4389470D01*
G02Y4550530I-82510J80530D01*
G01X5670560Y4550480D01*
X5713540Y4507520D01*
X5805540D01*
X5957540Y4355520D01*
X5970460D01*
X6013440Y4398480D01*
X6013490Y4398530D01*
G02Y4237470I82510J-80530D01*
G01X6013440Y4237520D01*
X5970460Y4280480D01*
X5926460D01*
G37*
G36*
G01X5950460Y4026480D02*
X5798460Y4178480D01*
X5713540D01*
X5670560Y4135520D01*
X5670510Y4135470D01*
G02Y4296530I-82510J80530D01*
G01X5670560Y4296480D01*
X5713540Y4253520D01*
X5829540D01*
X5976000Y4107060D01*
X6013440Y4144480D01*
X6013490Y4144530D01*
G02Y3983470I82510J-80530D01*
G01X6013440Y3983520D01*
X5970460Y4026480D01*
X5950460D01*
G37*
G36*
G01X1109090Y3305000D02*
X1031070Y3226980D01*
X849560D01*
G02X674440I-87560J75020D01*
G01X341560D01*
G02Y3377020I-87560J75020D01*
G01X674440D01*
G02X849560I87560J-75020D01*
G01X968930D01*
X1003000Y3411090D01*
X1003060Y3415560D01*
G02X1199420Y3479020I108939J-1560D01*
G01X1537640D01*
G02Y3348980I87420J-65020D01*
G01X1199420D01*
G02X1113560Y3305060I-87422J65019D01*
G01X1109090Y3305000D01*
G37*
G36*
G01X2040580Y3094980D02*
X1966480D01*
G02Y3225020I-87420J65020D01*
G01X2040580D01*
G02Y3094980I87420J-65020D01*
G37*
G36*
G01X679490Y2967470D02*
X679440Y2967520D01*
X636460Y3010480D01*
X379540D01*
X336560Y2967520D01*
X336510Y2967470D01*
G02Y3128530I-82510J80530D01*
G01X336560Y3128480D01*
X379540Y3085520D01*
X636460D01*
X679440Y3128480D01*
X679490Y3128530D01*
G02Y2967470I82510J-80530D01*
G37*
G36*
G01X4995540Y2922480D02*
X4444990D01*
G02Y2997520I-64990J37520D01*
G01X4964460D01*
X5047480Y3080540D01*
Y3127610D01*
G03X5021430Y3149230I-22000J-4D01*
G02X4942640Y3185470I-13803J73761D01*
G01X4394130D01*
X4296480Y3283120D01*
Y3384460D01*
X4253520Y3427440D01*
X4253470Y3427490D01*
G02X4414530I80530J82510D01*
G01X4414480Y3427440D01*
X4371520Y3384460D01*
Y3314200D01*
X4425210Y3260510D01*
X4942640D01*
G02X4969330Y3287520I64986J-37524D01*
G03X4967600Y3326280I-11227J18918D01*
G02X5073740Y3380070I32397J67687D01*
G01X5072670Y3374370D01*
X5122520Y3324510D01*
Y3049460D01*
X4995540Y2922480D01*
G37*
G36*
G01X5900460Y2756480D02*
X5748460Y2908480D01*
X5713540D01*
X5670560Y2865520D01*
X5670510Y2865470D01*
G02Y3026530I-82510J80530D01*
G01X5670560Y3026480D01*
X5713540Y2983520D01*
X5779540D01*
X5931540Y2831520D01*
X5970460D01*
X6013440Y2874480D01*
X6013490Y2874530D01*
G02Y2713470I82510J-80530D01*
G01X6013440Y2713520D01*
X5970460Y2756480D01*
X5900460D01*
G37*
G36*
G01X5904460Y2502480D02*
X5752460Y2654480D01*
X5713540D01*
X5670560Y2611520D01*
X5670510Y2611470D01*
G02Y2772530I-82510J80530D01*
G01X5670560Y2772480D01*
X5713540Y2729520D01*
X5783540D01*
X5935540Y2577520D01*
X5970460D01*
X6013440Y2620480D01*
X6013490Y2620530D01*
G02Y2459470I82510J-80530D01*
G01X6013440Y2459520D01*
X5970460Y2502480D01*
X5904460D01*
G37*
G36*
G01X1455540Y2402480D02*
X1424990D01*
G02X1411420Y2494650I-64989J37516D01*
G03X1442060Y2495120I15078J16022D01*
G01X1481520Y2534580D01*
X3145010D01*
G02Y2459540I64990J-37520D01*
G01X1512600D01*
X1455540Y2402480D01*
G37*
G36*
G01X3552670Y1840400D02*
X3705540Y1687520D01*
X3846310D01*
G03X3861860Y1725080I-3J22000D01*
G01X3799600Y1787330D01*
X3793900Y1786260D01*
G02X3853740Y1846100I-13900J73740D01*
G01X3852670Y1840400D01*
X3955540Y1737520D01*
X4120810D01*
G03X4142310Y1764160I-4J21999D01*
G02X4280650Y1817520I73350J15844D01*
G01X4942640D01*
G02X5056490Y1723050I64988J-37518D01*
G03X5054760Y1691310I14324J-16698D01*
G02X5001970Y1564990I-54759J-51306D01*
G02X4861950Y1526140I-75030J-1333D01*
G01X4800810D01*
X4714470Y1612480D01*
X3674460D01*
X3499600Y1787330D01*
X3493900Y1786260D01*
G02X3553740Y1846100I-13900J73740D01*
G01X3552670Y1840400D01*
G37*
G36*
G01X6013490Y1443470D02*
X6013440Y1443520D01*
X5970460Y1486480D01*
X5713540D01*
X5670560Y1443520D01*
X5670510Y1443470D01*
G02Y1604530I-82510J80530D01*
G01X5670560Y1604480D01*
X5713540Y1561520D01*
X5970460D01*
X6013440Y1604480D01*
X6013490Y1604530D01*
G02Y1443470I82510J-80530D01*
G37*
G36*
G01X592210Y1307520D02*
X646700Y1362110D01*
Y1385300D01*
X877300D01*
Y1154700D01*
X646700D01*
Y1177890D01*
X592210Y1232480D01*
X379540D01*
X336560Y1189520D01*
X336510Y1189470D01*
G02Y1350530I-82510J80530D01*
G01X336560Y1350480D01*
X379540Y1307520D01*
X592210D01*
G37*
G36*
G01X6239760Y1179300D02*
X6287760Y1131300D01*
X6350000D01*
G02X6234700Y1016000I0J-115300D01*
G01Y1078240D01*
X6208680Y1104260D01*
X6184910D01*
Y1089500D01*
X6187210Y1086530D01*
G02X6013490Y935470I-91209J-70529D01*
G01X6013440Y935520D01*
X5970460Y978480D01*
X5713540D01*
X5670560Y935520D01*
X5670510Y935470D01*
G02X5496790Y1086530I-82511J80531D01*
G01X5499090Y1089500D01*
Y1104260D01*
X5483010D01*
X5441310Y1062560D01*
X5424920D01*
G02X5411770Y1154340I-64989J37521D01*
G01X5419540Y1146910D01*
X5451930Y1179300D01*
X5469120D01*
G03X5488170Y1212310I4J22000D01*
G02X5670510Y1350530I99832J57684D01*
G01X5670560Y1350480D01*
X5713540Y1307520D01*
X5970460D01*
X6013440Y1350480D01*
X6013490Y1350530D01*
G02X6195830Y1212310I82508J-80536D01*
G03X6214880Y1179300I19046J-11010D01*
G01X6239760D01*
G37*
G36*
G01X379540Y978480D02*
X336560Y935520D01*
X336510Y935470D01*
G02Y1096530I-82510J80530D01*
G01X336560Y1096480D01*
X379540Y1053520D01*
X636460D01*
X679440Y1096480D01*
X679490Y1096530D01*
G02Y935470I82510J-80530D01*
G01X679440Y935520D01*
X636460Y978480D01*
X379540D01*
G37*
G36*
G01Y724480D02*
X336560Y681520D01*
X336510Y681470D01*
G02Y842530I-82510J80530D01*
G01X336560Y842480D01*
X379540Y799520D01*
X636460D01*
X679440Y842480D01*
X679490Y842530D01*
G02Y681470I82510J-80530D01*
G01X679440Y681520D01*
X636460Y724480D01*
X379540D01*
G37*
G36*
G01X5970460Y799520D02*
X6013440Y842480D01*
X6013490Y842530D01*
G02X6195830Y704310I82508J-80536D01*
G03X6214880Y671300I19046J-11010D01*
G01X6239760D01*
X6287760Y623300D01*
X6350000D01*
G02X6234700Y508000I0J-115300D01*
G01Y570240D01*
X6208680Y596260D01*
X6184910D01*
Y581500D01*
X6187210Y578530D01*
G02X6013490Y427470I-91209J-70529D01*
G01X6013440Y427520D01*
X5970460Y470480D01*
X5713540D01*
X5670560Y427520D01*
X5670510Y427470D01*
G02X5487020Y563640I-82502J80540D01*
G03X5467750Y596260I-19270J10618D01*
G01X5445640D01*
X5444300Y586800D01*
G02X5395750Y667810I-74301J10524D01*
G01X5402340Y665400D01*
X5408240Y671300D01*
X5469120D01*
G03X5488170Y704310I4J22000D01*
G02X5670510Y842530I99832J57684D01*
G01X5670560Y842480D01*
X5713540Y799520D01*
X5970460D01*
G37*
G36*
G01X379540Y470480D02*
X336560Y427520D01*
X336510Y427470D01*
G02Y588530I-82510J80530D01*
G01X336560Y588480D01*
X379540Y545520D01*
X636460D01*
X679440Y588480D01*
X679490Y588530D01*
G02Y427470I82510J-80530D01*
G01X679440Y427520D01*
X636460Y470480D01*
X379540D01*
G37*
G36*
G01X5970460Y291520D02*
X6013440Y334480D01*
X6013490Y334530D01*
G02Y173470I82510J-80530D01*
G01X6013440Y173520D01*
X5970460Y216480D01*
X5713540D01*
X5670560Y173520D01*
X5670510Y173470D01*
G02Y334530I-82510J80530D01*
G01X5670560Y334480D01*
X5713540Y291520D01*
X5970460D01*
G37*
G36*
G01X2175540Y117520D02*
X2195010D01*
G02Y42480I64990J-37520D01*
G01X2144460D01*
X2094460Y92480D01*
X1424990D01*
G02Y167520I-64990J37520D01*
G01X2125540D01*
X2175540Y117520D01*
G37*
G36*
G01X938980Y-174040D02*
X120980D01*
X62240Y-115300D01*
X0D01*
G02X115300Y0I0J115300D01*
G01Y-62240D01*
X152060Y-99000D01*
X174400D01*
Y-83540D01*
X171290Y-80340D01*
G02X154170Y57690I82709J80335D01*
G03X135120Y90700I-19046J11010D01*
G01X110240D01*
X62240Y138700D01*
X0D01*
G02X115300Y254000I0J115300D01*
G01Y191760D01*
X141320Y165740D01*
X165090D01*
Y180500D01*
X162790Y183470D01*
G02X336510Y334530I91209J70529D01*
G01X336560Y334480D01*
X379540Y291520D01*
X636460D01*
X679440Y334480D01*
X679490Y334530D01*
G02X853210Y183470I82511J-80531D01*
G01X850910Y180500D01*
Y165740D01*
X867330D01*
X890890Y142180D01*
G03X920850Y141120I15549J15561D01*
G02X908030Y42090I49149J-56707D01*
G01X904750Y46890D01*
X897020D01*
G03X875390Y20900I5J-22000D01*
G02X857460Y-64660I-113390J-20897D01*
G03X875680Y-99000I18214J-12339D01*
G01X894730D01*
X894980Y-88250D01*
G02X956100Y-163700I75020J-1709D01*
G01X950400Y-162630D01*
X938980Y-174040D01*
G37*
G36*
G01X6169060Y3646000D02*
X6176870Y3638190D01*
X6176900Y3638160D01*
G02X6013490Y3475470I-80890J-82163D01*
G01X6013440Y3475520D01*
X5970460Y3518480D01*
X5908460D01*
X5756460Y3670480D01*
X5713540D01*
X5670560Y3627520D01*
X5670510Y3627470D01*
G02X5475440Y3732980I-82510J80534D01*
G03X5450800Y3759520I-21477J4769D01*
G02X5451250Y3907970I-10801J74258D01*
G03X5475930Y3934890I3296J21751D01*
G02X5670510Y4042530I112067J27107D01*
G01X5670560Y4042480D01*
X5713540Y3999520D01*
X5793540D01*
X5945540Y3847520D01*
X5970460D01*
X6013440Y3890480D01*
X6013490Y3890530D01*
G02X6153690Y3909830I82514J-80530D01*
G03X6186700Y3928880I11010J19046D01*
G01Y3953760D01*
X6234700Y4001760D01*
Y4064000D01*
G02X6350000Y3948700I115300J0D01*
G01X6287760D01*
X6261740Y3922680D01*
Y3898910D01*
X6276500D01*
X6279470Y3901210D01*
G02X6267840Y3729100I70529J-91214D01*
G01X6267810Y3729130D01*
X6260000Y3736940D01*
X6169060Y3646000D01*
G37*
G36*
G01X6182980Y3138700D02*
Y3123790D01*
X6185440Y3120760D01*
G02X6013490Y2967470I-89439J-72759D01*
G01X6013440Y2967520D01*
X5970460Y3010480D01*
X5906460D01*
X5754460Y3162480D01*
X5713540D01*
X5670560Y3119520D01*
X5670510Y3119470D01*
G02X5475900Y3227000I-82515J80532D01*
G03X5460290Y3253370I-21386J5146D01*
G02X5460740Y3398310I19705J72410D01*
G03X5476380Y3425080I-5655J21257D01*
G02X5670510Y3534530I111615J28918D01*
G01X5670560Y3534480D01*
X5713540Y3491520D01*
X5771540D01*
X5923540Y3339520D01*
X5970460D01*
X6013440Y3382480D01*
X6013490Y3382530D01*
G02X6196980Y3246360I82502J-80540D01*
G03X6216250Y3213740I19270J-10618D01*
G01X6237320D01*
X6287760Y3163300D01*
X6350000D01*
G02X6234700Y3048000I0J-115300D01*
G01Y3110240D01*
X6206240Y3138700D01*
X6182980D01*
G37*
G36*
G01X5670560Y1697520D02*
X5670510Y1697470D01*
G02X5495820Y1847260I-82504J80541D01*
G03X5478240Y1882480I-17584J13220D01*
G01X5234460D01*
X5100660Y2016280D01*
G03X5063540Y2005090I-15557J-15558D01*
G02X4925010Y1982480I-73544J14910D01*
G01X4734990D01*
G02X4605160Y2057760I-64986J37518D01*
G03X4602600Y2071830I-9508J5538D01*
G02X4576650Y2145840I47399J58174D01*
G03X4555150Y2172480I-21504J4641D01*
G01X4294990D01*
G02Y2247520I-64990J37520D01*
G01X5055540D01*
X5272400Y2030660D01*
X5813170D01*
G03X5828720Y2068220I-3J22000D01*
G01X5754130Y2142810D01*
X5703300Y2091890D01*
Y2068700D01*
X5472700D01*
Y2233080D01*
G03X5453920Y2240860I-11000J3D01*
G01X5432670Y2219600D01*
X5433740Y2213900D01*
G02X5373900Y2273740I-73740J-13900D01*
G01X5379600Y2272670D01*
X5454240Y2347300D01*
X5469120D01*
G03X5488170Y2380310I4J22000D01*
G02X5670510Y2518530I99832J57684D01*
G01X5670560Y2518480D01*
X5713540Y2475520D01*
X5787540D01*
X5939540Y2323520D01*
X5970460D01*
X6013440Y2366480D01*
X6013490Y2366530D01*
G02X6153690Y2385830I82514J-80530D01*
G03X6186700Y2404880I11010J19046D01*
G01Y2429760D01*
X6234700Y2477760D01*
Y2540000D01*
G02X6350000Y2424700I115300J0D01*
G01X6287760D01*
X6261740Y2398680D01*
Y2374910D01*
X6276500D01*
X6279470Y2377210D01*
G02X6271930Y2201160I70532J-91207D01*
G03X6241470Y2200520I-14897J-16192D01*
G01X6181480Y2140530D01*
G03X6180840Y2110070I15552J-15563D01*
G02X6185440Y1959240I-84842J-78073D01*
G01X6182980Y1956210D01*
Y1941300D01*
X6206240D01*
X6234700Y1969760D01*
Y2032000D01*
G02X6350000Y1916700I115300J0D01*
G01X6287760D01*
X6237320Y1866260D01*
X6216250D01*
G03X6196980Y1833640I0J-22002D01*
G02X6013490Y1697470I-100988J-55630D01*
G01X6013440Y1697520D01*
X5970460Y1740480D01*
X5713540D01*
X5670560Y1697520D01*
G37*
G36*
G01X341560Y1702980D02*
G02Y1853020I-87560J75020D01*
G01X674440D01*
G02X766170Y1893220I87552J-75024D01*
G01X770960Y1893050D01*
X796940Y1919030D01*
X785130Y1930830D01*
X779520Y1929870D01*
G02X864880Y2019640I-17521J102129D01*
G03X886720Y1995020I21843J-2620D01*
G01X1054700D01*
Y2035300D01*
X1285300D01*
Y1804700D01*
X1054700D01*
Y1844980D01*
X935070D01*
X877050Y1786960D01*
X877220Y1782170D01*
G02X674440Y1702980I-115224J-4171D01*
G01X341560D01*
G37*
G36*
G01X3923580Y1404980D02*
X3921170Y1403700D01*
G02X3850870I-35150J66300D01*
G01X3848460Y1404980D01*
X3583070D01*
X2934980Y2053070D01*
Y2163060D01*
X2893060Y2204980D01*
X1005070D01*
X903060Y2306990D01*
G03X865520Y2290480I-15560J-15555D01*
G02X796850Y2383580I-103521J-4481D01*
G01X803400Y2381240D01*
X816100Y2393940D01*
X783460Y2426580D01*
X778030Y2425820D01*
G02X674440Y2464980I-16033J114181D01*
G01X341560D01*
G02X162790Y2610530I-87564J75011D01*
G01X165090Y2613500D01*
Y2628260D01*
X141320D01*
X115300Y2602240D01*
Y2540000D01*
G02X0Y2655300I-115300J0D01*
G01X62240D01*
X110240Y2703300D01*
X135120D01*
G03X154170Y2736310I4J22000D01*
G02X341560Y2869020I99828J57695D01*
G01X674440D01*
G02X857220Y2859020I87559J-75019D01*
G01X942930D01*
X1026930Y2775020D01*
X3634700D01*
Y2825300D01*
X3865300D01*
Y2686650D01*
X3879660Y2672290D01*
X3891490Y2684130D01*
X3890490Y2689780D01*
G02X4095860Y2640320I113511J20222D01*
G03X4113390Y2605020I17525J-13300D01*
G01X4282440D01*
X4284850Y2606300D01*
G02X4380050Y2495000I35150J-66299D01*
G02X4393020Y2432690I-60048J-45004D01*
G03X4414420Y2405610I21404J-5082D01*
G01X4934050D01*
G02Y2330570I64990J-37520D01*
G01X4204990D01*
G02Y2405610I-64990J37520D01*
G01X4225580D01*
G03X4246980Y2432690I-4J21998D01*
G02X4245000Y2452300I73023J17278D01*
G03X4223010Y2474980I-21991J679D01*
G01X3893070D01*
X3773350Y2594700D01*
X3634700D01*
Y2644980D01*
X1187290D01*
G03X1170550Y2608700I-5J-22000D01*
G02X1048470Y2522480I-57094J-48697D01*
G01X984460D01*
X878680Y2628260D01*
X850910D01*
Y2613500D01*
X853210Y2610530D01*
G02X876180Y2523970I-91210J-70532D01*
G01X875420Y2518540D01*
X1058930Y2335020D01*
X2946920D01*
X3065020Y2216920D01*
Y2106930D01*
X3636930Y1535020D01*
X3848460D01*
X3850870Y1536300D01*
G02X3921170I35150J-66300D01*
G01X3923580Y1535020D01*
X3942440D01*
X3944850Y1536300D01*
G02Y1403700I35150J-66300D01*
G01X3942440Y1404980D01*
X3923580D01*
G37*
G36*
G01X3390000Y-2850000D02*
X3060000D01*
X3030000Y-2820000D01*
Y-2740000D01*
X3060000Y-2710000D01*
X3390000D01*
X3430000Y-2750000D01*
Y-2810000D01*
X3390000Y-2850000D01*
G37*
G36*
G01X5790000Y-2870000D02*
X5730000D01*
X5690000Y-2830000D01*
Y-2770000D01*
X5730000Y-2730000D01*
X5920000D01*
X5960000Y-2690000D01*
X6020000D01*
X6060000Y-2730000D01*
Y-2790000D01*
X6000000Y-2850000D01*
X5810000D01*
X5790000Y-2870000D01*
G37*
G54D29*
X0Y4572000D03*
X762000Y3556000D03*
X4080000Y3510000D03*
X6096000Y4572000D03*
G54D27*
X0Y508000D03*
Y762000D03*
Y1016000D03*
X254000Y1524000D03*
X0Y1270000D03*
Y1524000D03*
Y1778000D03*
Y2032000D03*
Y2286000D03*
Y2794000D03*
Y3048000D03*
Y3302000D03*
Y4064000D03*
X254000D03*
X0Y3810000D03*
X254000D03*
X0Y3556000D03*
X254000D03*
Y4572000D03*
X0Y4318000D03*
X254000D03*
X1170000Y1666000D03*
X4423890Y-128880D03*
X6350000Y254000D03*
Y762000D03*
Y1270000D03*
Y1524000D03*
Y1778000D03*
Y2794000D03*
Y3302000D03*
Y3556000D03*
Y4572000D03*
Y4318000D03*
G54D33*
X4590000Y320000D03*
G54D28*
X254000Y2032000D03*
Y2286000D03*
X4588000Y3510000D03*
G54D26*
X-735000Y-1210000D03*
X575000D03*
G54D32*
X2760000Y3520000D03*
G54D31*
X1625060Y2906000D03*
G54D30*
X1112000D03*
%LPD*%
G75*
G36*
G01X-519300Y-1210000D02*
G03I-215700J0D01*
G37*
G36*
G01X88900Y177600D02*
Y254000D01*
X-2210Y256210D01*
X0Y165100D01*
X76400D01*
G03X88900Y177600I0J12500D01*
G37*
G36*
G01Y-76400D02*
Y0D01*
X-2210Y2210D01*
X0Y-88900D01*
X76400D01*
G03X88900Y-76400I0J12500D01*
G37*
G36*
G01X76400Y2628900D02*
X0D01*
X-2210Y2537790D01*
X88900Y2540000D01*
Y2616400D01*
G03X76400Y2628900I-12500J0D01*
G37*
G36*
G01X790700Y-1210000D02*
G03I-215700J0D01*
G37*
G36*
G01X370890Y8840D02*
X316860Y62850D01*
X250880Y0D01*
X316860Y-62850D01*
X370890Y-8840D01*
G03Y8840I-8840J8840D01*
G37*
G36*
G01X645110Y-8840D02*
X699140Y-62850D01*
X765120Y0D01*
X699140Y62850D01*
X645110Y8840D01*
G03Y-8840I8840J-8840D01*
G37*
G36*
G01X370890Y262840D02*
X316860Y316850D01*
X250880Y254000D01*
X316860Y191150D01*
X370890Y245160D01*
G03Y262840I-8840J8840D01*
G37*
G36*
G01X645110Y245160D02*
X699140Y191150D01*
X765120Y254000D01*
X699140Y316850D01*
X645110Y262840D01*
G03Y245160I8840J-8840D01*
G37*
G36*
G01X370890Y516840D02*
X316860Y570850D01*
X250880Y508000D01*
X316860Y445150D01*
X370890Y499160D01*
G03Y516840I-8840J8840D01*
G37*
G36*
G01X645110Y499160D02*
X699140Y445150D01*
X765120Y508000D01*
X699140Y570850D01*
X645110Y516840D01*
G03Y499160I8840J-8840D01*
G37*
G36*
G01X370890Y1024840D02*
X316860Y1078850D01*
X250880Y1016000D01*
X316860Y953150D01*
X370890Y1007160D01*
G03Y1024840I-8840J8840D01*
G37*
G36*
G01X645110Y1007160D02*
X699140Y953150D01*
X765120Y1016000D01*
X699140Y1078850D01*
X645110Y1024840D01*
G03Y1007160I8840J-8840D01*
G37*
G36*
G01X370890Y770840D02*
X316860Y824850D01*
X250880Y762000D01*
X316860Y699150D01*
X370890Y753160D01*
G03Y770840I-8840J8840D01*
G37*
G36*
G01X645110Y753160D02*
X699140Y699150D01*
X765120Y762000D01*
X699140Y824850D01*
X645110Y770840D01*
G03Y753160I8840J-8840D01*
G37*
G36*
G01X370890Y1278840D02*
X316860Y1332850D01*
X250880Y1270000D01*
X316860Y1207150D01*
X370890Y1261160D01*
G03Y1278840I-8840J8840D01*
G37*
G36*
G01X599750Y1262300D02*
X673100Y1188810D01*
X765120Y1270000D01*
X673100Y1351190D01*
X599750Y1277700D01*
G03Y1262300I9850J-7700D01*
G37*
G36*
G01X370890Y3056840D02*
X316860Y3110850D01*
X250880Y3048000D01*
X316860Y2985150D01*
X370890Y3039160D01*
G03Y3056840I-8840J8840D01*
G37*
G36*
G01X645110Y3039160D02*
X699140Y2985150D01*
X765120Y3048000D01*
X699140Y3110850D01*
X645110Y3056840D01*
G03Y3039160I8840J-8840D01*
G37*
G36*
G01X4342840Y3393110D02*
X4396850Y3447140D01*
X4334000Y3513120D01*
X4271150Y3447140D01*
X4325160Y3393110D01*
G03X4342840I8840J8840D01*
G37*
G36*
G01X5704890Y262840D02*
X5650860Y316850D01*
X5584880Y254000D01*
X5650860Y191150D01*
X5704890Y245160D01*
G03Y262840I-8840J8840D01*
G37*
G36*
G01Y516840D02*
X5650860Y570850D01*
X5584880Y508000D01*
X5650860Y445150D01*
X5704890Y499160D01*
G03Y516840I-8840J8840D01*
G37*
G36*
G01Y770840D02*
X5650860Y824850D01*
X5584880Y762000D01*
X5650860Y699150D01*
X5704890Y753160D01*
G03Y770840I-8840J8840D01*
G37*
G36*
G01Y1024840D02*
X5650860Y1078850D01*
X5584880Y1016000D01*
X5650860Y953150D01*
X5704890Y1007160D01*
G03Y1024840I-8840J8840D01*
G37*
G36*
G01Y1786840D02*
X5650860Y1840850D01*
X5584880Y1778000D01*
X5650860Y1715150D01*
X5704890Y1769160D01*
G03Y1786840I-8840J8840D01*
G37*
G36*
G01Y1532840D02*
X5650860Y1586850D01*
X5584880Y1524000D01*
X5650860Y1461150D01*
X5704890Y1515160D01*
G03Y1532840I-8840J8840D01*
G37*
G36*
G01Y1278840D02*
X5650860Y1332850D01*
X5584880Y1270000D01*
X5650860Y1207150D01*
X5704890Y1261160D01*
G03Y1278840I-8840J8840D01*
G37*
G36*
G01Y2446840D02*
X5650860Y2500850D01*
X5584880Y2438000D01*
X5650860Y2375150D01*
X5704890Y2429160D01*
G03Y2446840I-8840J8840D01*
G37*
G36*
G01X5750250Y2191700D02*
X5676900Y2265190D01*
X5584880Y2184000D01*
X5676900Y2102810D01*
X5750250Y2176300D01*
G03Y2191700I-9850J7700D01*
G37*
G36*
G01X5704890Y3208840D02*
X5650860Y3262850D01*
X5584880Y3200000D01*
X5650860Y3137150D01*
X5704890Y3191160D01*
G03Y3208840I-8840J8840D01*
G37*
G36*
G01Y2954840D02*
X5650860Y3008850D01*
X5584880Y2946000D01*
X5650860Y2883150D01*
X5704890Y2937160D01*
G03Y2954840I-8840J8840D01*
G37*
G36*
G01Y2700840D02*
X5650860Y2754850D01*
X5584880Y2692000D01*
X5650860Y2629150D01*
X5704890Y2683160D01*
G03Y2700840I-8840J8840D01*
G37*
G36*
G01Y3970840D02*
X5650860Y4024850D01*
X5584880Y3962000D01*
X5650860Y3899150D01*
X5704890Y3953160D01*
G03Y3970840I-8840J8840D01*
G37*
G36*
G01Y3716840D02*
X5650860Y3770850D01*
X5584880Y3708000D01*
X5650860Y3645150D01*
X5704890Y3699160D01*
G03Y3716840I-8840J8840D01*
G37*
G36*
G01Y3462840D02*
X5650860Y3516850D01*
X5584880Y3454000D01*
X5650860Y3391150D01*
X5704890Y3445160D01*
G03Y3462840I-8840J8840D01*
G37*
G36*
G01Y4224840D02*
X5650860Y4278850D01*
X5584880Y4216000D01*
X5650860Y4153150D01*
X5704890Y4207160D01*
G03Y4224840I-8840J8840D01*
G37*
G36*
G01Y4478840D02*
X5650860Y4532850D01*
X5584880Y4470000D01*
X5650860Y4407150D01*
X5704890Y4461160D01*
G03Y4478840I-8840J8840D01*
G37*
G36*
G01X5979110Y245160D02*
X6033140Y191150D01*
X6099120Y254000D01*
X6033140Y316850D01*
X5979110Y262840D01*
G03Y245160I8840J-8840D01*
G37*
G36*
G01X6261100Y584400D02*
Y508000D01*
X6352210Y505790D01*
X6350000Y596900D01*
X6273600D01*
G03X6261100Y584400I0J-12500D01*
G37*
G36*
G01X5979110Y499160D02*
X6033140Y445150D01*
X6099120Y508000D01*
X6033140Y570850D01*
X5979110Y516840D01*
G03Y499160I8840J-8840D01*
G37*
G36*
G01Y753160D02*
X6033140Y699150D01*
X6099120Y762000D01*
X6033140Y824850D01*
X5979110Y770840D01*
G03Y753160I8840J-8840D01*
G37*
G36*
G01Y1007160D02*
X6033140Y953150D01*
X6099120Y1016000D01*
X6033140Y1078850D01*
X5979110Y1024840D01*
G03Y1007160I8840J-8840D01*
G37*
G36*
G01X6261100Y1092400D02*
Y1016000D01*
X6352210Y1013790D01*
X6350000Y1104900D01*
X6273600D01*
G03X6261100Y1092400I0J-12500D01*
G37*
G36*
G01X5979110Y1769160D02*
X6033140Y1715150D01*
X6099120Y1778000D01*
X6033140Y1840850D01*
X5979110Y1786840D01*
G03Y1769160I8840J-8840D01*
G37*
G36*
G01Y1515160D02*
X6033140Y1461150D01*
X6099120Y1524000D01*
X6033140Y1586850D01*
X5979110Y1532840D01*
G03Y1515160I8840J-8840D01*
G37*
G36*
G01Y1261160D02*
X6033140Y1207150D01*
X6099120Y1270000D01*
X6033140Y1332850D01*
X5979110Y1278840D01*
G03Y1261160I8840J-8840D01*
G37*
G36*
G01Y2277160D02*
X6033140Y2223150D01*
X6099120Y2286000D01*
X6033140Y2348850D01*
X5979110Y2294840D01*
G03Y2277160I8840J-8840D01*
G37*
G36*
G01Y2023160D02*
X6033140Y1969150D01*
X6099120Y2032000D01*
X6033140Y2094850D01*
X5979110Y2040840D01*
G03Y2023160I8840J-8840D01*
G37*
G36*
G01X6273600Y1943100D02*
X6350000D01*
X6352210Y2034210D01*
X6261100Y2032000D01*
Y1955600D01*
G03X6273600Y1943100I12500J0D01*
G37*
G36*
G01X5979110Y2531160D02*
X6033140Y2477150D01*
X6099120Y2540000D01*
X6033140Y2602850D01*
X5979110Y2548840D01*
G03Y2531160I8840J-8840D01*
G37*
G36*
G01X6273600Y2451100D02*
X6350000D01*
X6352210Y2542210D01*
X6261100Y2540000D01*
Y2463600D01*
G03X6273600Y2451100I12500J0D01*
G37*
G36*
G01X5979110Y3293160D02*
X6033140Y3239150D01*
X6099120Y3302000D01*
X6033140Y3364850D01*
X5979110Y3310840D01*
G03Y3293160I8840J-8840D01*
G37*
G36*
G01Y3039160D02*
X6033140Y2985150D01*
X6099120Y3048000D01*
X6033140Y3110850D01*
X5979110Y3056840D01*
G03Y3039160I8840J-8840D01*
G37*
G36*
G01Y2785160D02*
X6033140Y2731150D01*
X6099120Y2794000D01*
X6033140Y2856850D01*
X5979110Y2802840D01*
G03Y2785160I8840J-8840D01*
G37*
G36*
G01X6261100Y3124400D02*
Y3048000D01*
X6352210Y3045790D01*
X6350000Y3136900D01*
X6273600D01*
G03X6261100Y3124400I0J-12500D01*
G37*
G36*
G01X5979110Y4055160D02*
X6033140Y4001150D01*
X6099120Y4064000D01*
X6033140Y4126850D01*
X5979110Y4072840D01*
G03Y4055160I8840J-8840D01*
G37*
G36*
G01Y3801160D02*
X6033140Y3747150D01*
X6099120Y3810000D01*
X6033140Y3872850D01*
X5979110Y3818840D01*
G03Y3801160I8840J-8840D01*
G37*
G36*
G01Y3547160D02*
X6033140Y3493150D01*
X6099120Y3556000D01*
X6033140Y3618850D01*
X5979110Y3564840D01*
G03Y3547160I8840J-8840D01*
G37*
G36*
G01X6273600Y3975100D02*
X6350000D01*
X6352210Y4066210D01*
X6261100Y4064000D01*
Y3987600D01*
G03X6273600Y3975100I12500J0D01*
G37*
G36*
G01X5979110Y4309160D02*
X6033140Y4255150D01*
X6099120Y4318000D01*
X6033140Y4380850D01*
X5979110Y4326840D01*
G03Y4309160I8840J-8840D01*
G37*
G54D10*
X-1250000Y-6270000D03*
X7600000D03*
G54D20*
G01X438500Y-2790000D02*
X165000D01*
G01X6185310Y-890000D02*
X7690000D01*
G01X7780000Y-810000D02*
X7640000D01*
X7620000Y-830000D01*
X6410000D01*
X6320000Y-740000D01*
G01X6185310Y-600000D02*
X6299990D01*
X6469990Y-770000D01*
X7600010D01*
X7640010Y-730000D01*
X7870000D01*
G54D11*
X-1400000Y-5310000D03*
Y-4810000D03*
Y-5060000D03*
Y-4560000D03*
Y-3960000D03*
Y-4160000D03*
Y-4360000D03*
Y-3560000D03*
Y-3360000D03*
Y-3760000D03*
X-650000Y-5310000D03*
X-900000D03*
X-1150000D03*
X-650000Y-4560000D03*
Y-5060000D03*
Y-4810000D03*
X-900000D03*
Y-5060000D03*
Y-4560000D03*
X-1150000D03*
Y-5060000D03*
Y-4810000D03*
X-650000Y-4360000D03*
X-900000Y-3960000D03*
Y-4160000D03*
Y-4360000D03*
X-1150000D03*
Y-4160000D03*
Y-3960000D03*
X-650000Y-3360000D03*
Y-3560000D03*
X-900000D03*
Y-3360000D03*
Y-3760000D03*
X-1150000D03*
Y-3360000D03*
Y-3560000D03*
X-400000Y-5310000D03*
Y-4810000D03*
Y-5060000D03*
Y-4560000D03*
Y-4360000D03*
X30000Y-3950000D03*
Y-4150000D03*
Y-4350000D03*
X230000Y-3950000D03*
Y-4150000D03*
Y-4350000D03*
X-400000Y-3560000D03*
Y-3360000D03*
X230000Y-3550000D03*
Y-3350000D03*
Y-3150000D03*
Y-3750000D03*
X430000Y-3950000D03*
Y-4150000D03*
Y-4350000D03*
X630000D03*
X830000D03*
X430000Y-3550000D03*
X630000D03*
Y-3350000D03*
X430000D03*
X630000Y-3150000D03*
X430000D03*
Y-3750000D03*
X830000Y-3550000D03*
Y-3350000D03*
Y-3150000D03*
X1570000Y-5310000D03*
Y-5060000D03*
Y-4810000D03*
X1180000Y-4340000D03*
X1560000Y-3940000D03*
Y-4140000D03*
Y-4340000D03*
X1380000Y-3940000D03*
Y-4140000D03*
Y-4340000D03*
X1560000Y-3140000D03*
Y-3340000D03*
Y-3540000D03*
Y-3740000D03*
X1380000Y-3140000D03*
Y-3340000D03*
Y-3540000D03*
Y-3740000D03*
X1100000Y-2420000D03*
Y-2580000D03*
Y-2740000D03*
X1250000D03*
Y-2580000D03*
Y-2420000D03*
X1420000Y-2740000D03*
X1600000D03*
Y-2940000D03*
X1420000D03*
X1820000Y-5310000D03*
X2070000D03*
X2320000D03*
X1820000Y-4810000D03*
Y-5060000D03*
Y-4560000D03*
X2070000D03*
Y-5060000D03*
Y-4810000D03*
X2320000D03*
Y-5060000D03*
Y-4560000D03*
X1820000Y-3960000D03*
Y-4160000D03*
Y-4360000D03*
X2070000D03*
Y-4160000D03*
Y-3960000D03*
X2320000Y-4360000D03*
X1820000Y-3560000D03*
Y-3360000D03*
Y-3160000D03*
Y-3760000D03*
X2070000D03*
Y-3160000D03*
Y-3360000D03*
Y-3560000D03*
X2320000D03*
Y-3360000D03*
Y-3160000D03*
X2310000Y-2410000D03*
Y-2730000D03*
Y-2570000D03*
X2180000Y-2410000D03*
Y-2730000D03*
Y-2570000D03*
X2310000Y-2250000D03*
Y-2090000D03*
X2030000Y-2080000D03*
Y-2210000D03*
X1880000D03*
Y-2080000D03*
X2180000Y-2250000D03*
Y-2090000D03*
X2200000Y-1880000D03*
X2350000Y-1750000D03*
Y-1880000D03*
Y-1360000D03*
X2220000D03*
X2090000D03*
X2350000Y-1490000D03*
Y-1620000D03*
X2570000Y-5310000D03*
Y-4560000D03*
Y-5060000D03*
Y-4810000D03*
Y-4360000D03*
X3020000Y-3950000D03*
Y-4150000D03*
Y-4350000D03*
X2570000Y-3360000D03*
Y-3560000D03*
Y-3160000D03*
X2440000Y-2570000D03*
Y-2730000D03*
Y-2410000D03*
Y-2090000D03*
Y-2250000D03*
X2650000Y-1750000D03*
X2500000D03*
X2650000Y-1880000D03*
X2500000D03*
X2650000Y-1360000D03*
X2500000D03*
X2650000Y-1490000D03*
X2500000D03*
X2650000Y-1620000D03*
X2500000D03*
X3220000Y-3950000D03*
X3420000D03*
Y-4150000D03*
X3220000D03*
Y-4350000D03*
X3420000D03*
X3620000D03*
X3820000D03*
X3220000Y-3550000D03*
X3420000D03*
X3620000D03*
Y-3350000D03*
X3420000D03*
X3220000D03*
X3620000Y-3150000D03*
X3420000D03*
X3220000D03*
Y-3750000D03*
X3420000D03*
X3820000Y-3550000D03*
Y-3350000D03*
Y-3150000D03*
X4560000Y-5310000D03*
Y-5060000D03*
Y-4810000D03*
X4150000Y-4340000D03*
X4350000D03*
Y-4140000D03*
Y-3940000D03*
X4550000Y-4340000D03*
Y-4140000D03*
Y-3940000D03*
X4350000Y-3740000D03*
Y-3540000D03*
Y-3340000D03*
Y-3140000D03*
X4550000Y-3740000D03*
Y-3540000D03*
Y-3340000D03*
Y-3140000D03*
X4150000Y-2540000D03*
Y-2740000D03*
X4550000Y-2540000D03*
X4350000D03*
Y-2940000D03*
Y-2740000D03*
X4550000Y-2940000D03*
Y-2740000D03*
X4150000Y-2340000D03*
X4010000Y-1820000D03*
Y-1680000D03*
X4150000Y-1820000D03*
Y-1680000D03*
X4080000Y-1290000D03*
X4010000Y-1540000D03*
Y-1410000D03*
X4520000Y-1290000D03*
X4370000D03*
X4220000D03*
X4450000Y-1410000D03*
X4300000D03*
X4150000D03*
X4450000Y-1540000D03*
X4300000D03*
X4150000D03*
X4810000Y-5310000D03*
X5060000D03*
Y-5060000D03*
X4810000D03*
Y-4810000D03*
X5060000D03*
Y-4560000D03*
X4810000D03*
Y-3960000D03*
X5060000D03*
Y-4160000D03*
X4810000D03*
Y-4360000D03*
X5060000D03*
X4810000Y-3560000D03*
X5060000D03*
Y-3360000D03*
X4810000D03*
X5060000Y-3160000D03*
X4810000D03*
Y-3760000D03*
X5060000D03*
X4750000Y-2540000D03*
Y-2740000D03*
Y-2340000D03*
Y-1820000D03*
Y-1680000D03*
X4670000Y-1290000D03*
X4750000Y-1410000D03*
X4600000D03*
X4750000Y-1540000D03*
X4600000D03*
X5310000Y-5310000D03*
X5560000D03*
Y-5060000D03*
X5310000D03*
X5560000Y-4810000D03*
X5310000D03*
X5560000Y-4560000D03*
X5310000D03*
X5560000Y-4360000D03*
X5310000D03*
X5560000Y-3560000D03*
Y-3360000D03*
Y-3160000D03*
X5310000Y-3560000D03*
Y-3360000D03*
Y-3160000D03*
X6210000Y-3940000D03*
X6010000D03*
X6410000D03*
Y-4140000D03*
X6010000D03*
X6210000D03*
Y-4340000D03*
X6010000D03*
X6410000D03*
X6610000D03*
Y-4540000D03*
X6410000D03*
X6010000D03*
X6210000D03*
Y-3540000D03*
X6410000D03*
X6610000D03*
Y-3340000D03*
X6410000D03*
X6210000D03*
X6610000Y-3140000D03*
X6410000D03*
X6210000D03*
Y-3740000D03*
X6410000D03*
X6560000Y-2570000D03*
Y-2730000D03*
Y-2410000D03*
X6690000Y-2730000D03*
Y-2410000D03*
Y-2570000D03*
X6560000Y-2090000D03*
Y-2250000D03*
X6690000D03*
Y-2090000D03*
X6660000Y-1720000D03*
Y-1880000D03*
X6520000D03*
Y-1720000D03*
X6660000Y-1550000D03*
X6520000D03*
X6660000Y-1390000D03*
Y-1230000D03*
Y-1060000D03*
X6520000Y-1390000D03*
Y-1230000D03*
Y-1060000D03*
X7150000Y-4580000D03*
X7350000D03*
X7150000Y-4380000D03*
X7350000Y-3980000D03*
Y-4180000D03*
Y-4380000D03*
X6810000Y-4340000D03*
Y-4540000D03*
X7350000Y-3180000D03*
Y-3380000D03*
Y-3580000D03*
Y-3780000D03*
X6810000Y-3540000D03*
Y-3340000D03*
Y-3140000D03*
X7280000Y-2800000D03*
X7350000Y-2980000D03*
X7110000Y-2800000D03*
X6820000Y-2730000D03*
Y-2570000D03*
Y-2410000D03*
Y-2250000D03*
Y-2090000D03*
X6970000Y-2210000D03*
Y-2080000D03*
X7120000Y-2210000D03*
Y-2080000D03*
X6830000Y-1880000D03*
X6940000Y-1390000D03*
Y-1230000D03*
Y-1060000D03*
X6800000Y-1390000D03*
Y-1230000D03*
Y-1060000D03*
X7550000Y-4580000D03*
Y-3980000D03*
Y-4180000D03*
Y-4380000D03*
Y-3180000D03*
Y-3380000D03*
Y-3580000D03*
Y-3780000D03*
Y-2760000D03*
Y-2980000D03*
G54D21*
G01X615000Y-1940000D02*
X180000D01*
G01X2340000Y-330000D02*
X1860000D01*
X1800000Y-390000D01*
G01X3358500Y-2780000D02*
X3105000D01*
G01X3545000Y-1934980D02*
X3175860D01*
X3170840Y-1940000D01*
X3105000D01*
G01X5990000Y-2760000D02*
X5950000Y-2800000D01*
X5760000D01*
G01X6125940Y-1930000D02*
X5675000D01*
G01X7060000Y-480000D02*
X6970000Y-570000D01*
X6520000D01*
X6360000Y-410000D01*
X5380000D01*
X5300000Y-330000D01*
G54D12*
X-847000Y-2345000D03*
X2745000Y-5820000D03*
X3380000D03*
G54D22*
G01X907500Y-2227500D02*
X1235000Y-1900000D01*
X1963440D01*
G01X1480000Y-580000D02*
X2460000D01*
G01X2340000Y-330000D02*
X2449990D01*
X2555500Y-224490D01*
X2690000D01*
G01X2773970Y-222730D02*
X2852310D01*
X2899580Y-270000D01*
X4285010D01*
X4423890Y-408880D01*
G01X5210000Y-810000D02*
X3410000D01*
X3180000Y-580000D01*
X2553980D01*
G01X2690000Y-224490D02*
X2755190D01*
X2756950Y-222730D01*
X2773970D01*
G01X4890000Y-390000D02*
X4569370D01*
X4550490Y-408880D01*
X4423890D01*
G01X4320000Y2450000D02*
Y2540000D01*
G01X5300000Y-330000D02*
X5028340D01*
X4968340Y-390000D01*
X4890000D01*
G54D13*
X-847000Y-2980000D03*
X4015000Y-5820000D03*
G54D23*
G01X-150000Y-2020000D02*
X-240000D01*
G01X0Y254000D02*
X125780Y128220D01*
X851790D01*
X895600Y84410D01*
X970000D01*
G01X0Y0D02*
X136520Y-136520D01*
X923440D01*
X970000Y-89960D01*
G01X0Y2540000D02*
X125780Y2665780D01*
X894220D01*
X1000000Y2560000D01*
X1113460D01*
G01X139380Y2286000D02*
X254000D01*
G01X139380Y2032000D02*
X254000D01*
G01Y0D02*
X762000D01*
G01Y254000D02*
X254000D01*
G01X762000Y508000D02*
X254000D01*
G01X762000Y1016000D02*
X254000D01*
G01X762000Y762000D02*
X254000D01*
G01X762000Y1270000D02*
X254000D01*
G01X762000Y2171380D02*
Y2286000D01*
G01D02*
Y2400620D01*
G01X647380Y2286000D02*
X762000D01*
G01D02*
X876620D01*
G01X762000Y1917380D02*
Y2032000D01*
G01D02*
Y2146620D01*
G01X647380Y2032000D02*
X762000D01*
G01D02*
X876620D01*
G01X254000Y2171380D02*
Y2286000D01*
G01D02*
Y2400620D01*
G01Y2286000D02*
X368620D01*
G01X254000Y1917380D02*
Y2032000D01*
G01D02*
Y2146620D01*
G01Y2032000D02*
X368620D01*
G01X762000Y3048000D02*
X254000D01*
G01X1360000Y130000D02*
X2110000D01*
X2160000Y80000D01*
X2260000D01*
G01X1342370Y420000D02*
X3306700D01*
X3456700Y270000D01*
X3537290D01*
G01X1342370Y-100000D02*
X2380000D01*
X2540000Y60000D01*
X4530000D01*
X4720000Y-130000D01*
X5240000D01*
X5460000Y-350000D01*
X5830010D01*
X5860010Y-320000D01*
X5974690D01*
G01X4520000Y1370000D02*
X4473440Y1323440D01*
X4453440D01*
X4360000Y1230000D01*
X3070000D01*
X2790000Y950000D01*
Y740000D01*
X2680000Y630000D01*
X1580010D01*
X1458120Y751890D01*
X1360000D01*
G01X1320000Y1030000D02*
X1640000Y710000D01*
X2640000D01*
G01X1580000Y543140D02*
X1583140Y540000D01*
X3499530D01*
X3599530Y640000D01*
X3819890D01*
G01X1342370Y577520D02*
X1449890Y470000D01*
X3950000D01*
X4310000Y110000D01*
X4634160D01*
X4707080Y37080D01*
G01X1360000Y2440000D02*
X1440000D01*
X1497060Y2497060D01*
X3210000D01*
G01X1112000Y2797730D02*
Y2906000D01*
G01D02*
Y3014270D01*
G01X1003730Y2906000D02*
X1112000D01*
G01X2221230Y-829770D02*
X3099660D01*
X3179890Y-910000D01*
G01X2295160Y-905270D02*
Y-905000D01*
X2320160Y-880000D01*
X2999890D01*
X3029890Y-910000D01*
G01X4795720Y-540220D02*
X4673420D01*
X4623640Y-590000D01*
X4050000D01*
X3960000Y-500000D01*
X1880000D01*
X1860000Y-480000D01*
X1690000D01*
G01X5110000Y-466860D02*
X4683140D01*
X4610000Y-540000D01*
X4070000D01*
X3950000Y-420000D01*
X1960000D01*
G01X2060000Y800000D02*
X2096910D01*
X2118570Y778340D01*
X2538340D01*
X3050000Y1290000D01*
X4160000D01*
X4260000Y1390000D01*
Y1490000D01*
G01X4154340D02*
Y1424160D01*
X4065180Y1335000D01*
X3031360D01*
X2552220Y855860D01*
X2150690D01*
G01X2760000Y3392680D02*
Y3520000D01*
G01D02*
Y3647320D01*
G01X2632680Y3520000D02*
X2760000D01*
G01D02*
X2887320D01*
G01X6875660Y-489030D02*
X6796630Y-410000D01*
X6530000D01*
X6260000Y-140000D01*
X5473640D01*
X4548640Y785000D01*
X4544840D01*
X4540460Y789380D01*
X4510620D01*
X4510000Y790000D01*
X3420000D01*
X3280000Y650000D01*
G01X6770000Y-489360D02*
X6539360D01*
X6240000Y-190000D01*
X5460000D01*
X4530000Y740000D01*
X3520000D01*
X3430000Y650000D01*
G01X5000000Y1640000D02*
X4820000D01*
X4760000Y1700000D01*
X3940000D01*
X3780000Y1860000D01*
G01X4926940Y1563660D02*
X4816350D01*
X4730010Y1650000D01*
X3690000D01*
X3480000Y1860000D01*
G01X3900000Y-690000D02*
X3970000D01*
X3990000Y-710000D01*
X4820000D01*
G01X3900740Y-584340D02*
X3964340D01*
X4040000Y-660000D01*
X4644160D01*
X4674160Y-630000D01*
X4740000D01*
G01X4176000Y955380D02*
Y1070000D01*
G01X4061380D02*
X4176000D01*
G01D02*
X4290620D01*
G01X4215660Y1780000D02*
X5007630D01*
G01X4230000Y2210000D02*
X5040000D01*
X5256860Y1993140D01*
X5846860D01*
X5936220Y1903780D01*
X6221780D01*
X6350000Y2032000D01*
G01X4140000Y2368090D02*
X4999040D01*
G01X5000000Y3393970D02*
X5085000Y3308970D01*
Y3065000D01*
X4980000Y2960000D01*
X4380000D01*
G01X5007630Y3222990D02*
X4409670D01*
X4334000Y3298660D01*
Y3510000D01*
G01X4473380D02*
X4588000D01*
G01X5210000Y-615000D02*
X5315000D01*
X5440000Y-740000D01*
X5840000D01*
G01X5050000Y-712380D02*
X5262380D01*
X5440000Y-890000D01*
X5970000D01*
G01X4795720Y-540220D02*
X4861560D01*
X4861780Y-540000D01*
X5940000D01*
X5960000Y-520000D01*
X6310000D01*
X6480000Y-690000D01*
X7170000D01*
G01X7610000Y-480000D02*
X7250000D01*
X7090000Y-640000D01*
X6500000D01*
X6330620Y-470620D01*
X5939380D01*
X5920000Y-490000D01*
X5210000D01*
X5186860Y-466860D01*
X5110000D01*
G01X4876860Y640000D02*
X5007630Y770770D01*
Y935440D01*
G01X4602420Y1100000D02*
X5007630D01*
G01X5003140Y1370000D02*
X4520000D01*
G01X4650000Y2130000D02*
X5040000D01*
X5250000Y1920000D01*
X5770000D01*
G01X4670000Y2020000D02*
X4990000D01*
G01X4588000Y3395380D02*
Y3510000D01*
G01D02*
Y3624620D01*
G01Y3510000D02*
X4702620D01*
G01X5588000Y254000D02*
X6096000D01*
G01Y0D02*
X5588000D01*
G01X5370000Y597320D02*
X5387320D01*
X5423780Y633780D01*
X6224220D01*
X6350000Y508000D01*
G01X5588000D02*
X6096000D01*
G01X5588000Y762000D02*
X6096000D01*
G01Y1016000D02*
X5588000D01*
G01X5359930Y1100080D02*
X5425770D01*
X5467470Y1141780D01*
X6224220D01*
X6350000Y1016000D01*
G01X6096000Y1778000D02*
X5588000D01*
G01X6096000Y1524000D02*
X5588000D01*
G01X6096000Y1270000D02*
X5588000D01*
G01X6096000Y2286000D02*
X5924000D01*
X5772000Y2438000D01*
X5588000D01*
G01X6096000Y2032000D02*
X5918000D01*
X5766000Y2184000D01*
X5588000D01*
G01X6096000Y2540000D02*
X5920000D01*
X5768000Y2692000D01*
X5588000D01*
G01X5360000Y2200000D02*
X5469780Y2309780D01*
X5760220D01*
X5909780Y2160220D01*
X6148110D01*
X6224220Y2236330D01*
Y2414220D01*
X6350000Y2540000D01*
G01X6096000Y3302000D02*
X5908000D01*
X5756000Y3454000D01*
X5588000D01*
G01X6096000Y3048000D02*
X5922000D01*
X5770000Y3200000D01*
X5588000D01*
G01X6096000Y2794000D02*
X5916000D01*
X5764000Y2946000D01*
X5588000D01*
G01X5480000Y3325780D02*
X5744220D01*
X5893780Y3176220D01*
X6221780D01*
X6350000Y3048000D01*
G01X6096000Y3810000D02*
X5930000D01*
X5778000Y3962000D01*
X5588000D01*
G01X6096000Y3556000D02*
X5924000D01*
X5772000Y3708000D01*
X5588000D01*
G01X6350000Y4064000D02*
X6224220Y3938220D01*
Y3754220D01*
X6154220Y3684220D01*
X5935780D01*
X5786220Y3833780D01*
X5440000D01*
G01X6096000Y4064000D02*
X5966000D01*
X5814000Y4216000D01*
X5588000D01*
G01X6096000Y4318000D02*
X5942000D01*
X5790000Y4470000D01*
X5588000D01*
G54D14*
X-735000Y-1210000D03*
X575000D03*
G54D24*
G01X762000Y2540000D02*
X1032000Y2270000D01*
X2919990D01*
X3000000Y2189990D01*
Y2080000D01*
X3610000Y1470000D01*
X3886020D01*
G01X3750000Y2710000D02*
X1000000D01*
X916000Y2794000D01*
X762000D01*
G01X1112000Y2906000D02*
X1634000D01*
G01X1112000Y3414000D02*
X1624000D01*
G01X2128000Y3160000D02*
X1880000D01*
G01X2460000Y-580000D02*
X2553980D01*
G01X2460000D02*
Y-673980D01*
G01X4320000Y2540000D02*
X3920000D01*
X3750000Y2710000D01*
G01X3886020Y1470000D02*
X3980000D01*
G54D15*
X-790000Y-1060000D03*
X-780000Y-1360000D03*
X-600000Y-1300000D03*
X-580000Y-1210000D03*
X-600000Y-1110000D03*
X-680000Y-1360000D03*
X-870000Y-1310000D03*
Y-1110000D03*
X-690000Y-1060000D03*
X-890000Y-1210000D03*
X165000Y-2790000D03*
X-60000Y-1930000D03*
X-240000D03*
X-150000D03*
X-220000Y-2300000D03*
X-130000D03*
X-40000D03*
X-60000Y-2020000D03*
X-240000D03*
X180000Y-1940000D03*
X-150000Y-2020000D03*
X-230000Y-150000D03*
Y810000D03*
Y1560000D03*
X-220000Y2240000D03*
Y4410000D03*
X438500Y-2790000D03*
X907500Y-2227500D03*
X615000Y-1940000D03*
X710000Y-1120000D03*
X440000Y-1310000D03*
X530000Y-1360000D03*
X630000Y-1060000D03*
X730000Y-1210000D03*
X710000Y-1300000D03*
X440000Y-1110000D03*
X530000Y-1060000D03*
X630000Y-1360000D03*
X420000Y-1210000D03*
X510000Y370000D03*
Y900000D03*
X670000Y1530000D03*
X590000Y2140000D03*
X570000Y3480000D03*
X380000Y3940000D03*
X550000Y4570000D03*
X1480000Y-580000D03*
X1360000Y130000D03*
X970000Y84410D03*
Y-89960D03*
X1342370Y420000D03*
Y-100000D03*
X1570000Y30000D03*
X1360000Y751890D03*
X1320000Y1030000D03*
X1580000Y543140D03*
X1342370Y577520D03*
X1580000Y1030000D03*
X1470000Y1840000D03*
Y1690000D03*
X1600000Y1610000D03*
Y1750000D03*
X1113460Y2560000D03*
X1360000Y2440000D03*
X1470000Y2020000D03*
X1600000Y1920000D03*
X1260000Y3160000D03*
X980000Y4570000D03*
X1963440Y-1900000D03*
X2340000Y-330000D03*
X1800000Y-390000D03*
X2221230Y-829770D03*
X2110000Y-790000D03*
X2295160Y-905270D03*
X1690000Y-480000D03*
X1960000Y-420000D03*
X2260000Y80000D03*
X2120000Y-210000D03*
X2290000Y270000D03*
X2060000Y800000D03*
X2150690Y855860D03*
X1820000Y1600000D03*
Y1750000D03*
X2050000D03*
X2040000Y1600000D03*
X1930000Y1680000D03*
X2460000Y-673980D03*
X2553980Y-580000D03*
X2460000D03*
X3029890Y-910000D03*
X2690000Y-224490D03*
X2773970Y-222730D03*
X2899890Y180000D03*
X2640000Y710000D03*
X3069890Y649890D03*
X2880000Y860000D03*
X2550000Y1020000D03*
Y1220000D03*
X2850000Y1680000D03*
Y1840000D03*
X2890000Y1370000D03*
X2790000Y1540000D03*
X2780000Y1320000D03*
X2887280Y1472720D03*
X2850000Y2020000D03*
Y2150000D03*
X2720000Y2020000D03*
Y2150000D03*
X2380000Y2930000D03*
X3105000Y-2780000D03*
X3358500D03*
X3545000Y-1934980D03*
X3105000Y-1940000D03*
X3179890Y-910000D03*
X3329890Y-901590D03*
X3537290Y270000D03*
X3350000Y-100000D03*
X3280000Y650000D03*
X3430000D03*
X3780000Y1860000D03*
X3480000D03*
X3210000Y2497060D03*
X3640000Y2260000D03*
X3340000D03*
X3480000Y3560000D03*
X3900000Y-690000D03*
X3900740Y-584340D03*
X3957180Y171120D03*
X3819890Y640000D03*
X4520000Y1370000D03*
X3886020Y1470000D03*
X3980000D03*
X4215660Y1780000D03*
X4260000Y1490000D03*
X4154340D03*
X4220000Y1910000D03*
X4230000Y2210000D03*
X4320000Y2450000D03*
Y2540000D03*
X4140000Y2368090D03*
X3940000Y2260000D03*
X4380000Y2960000D03*
X4890000Y-390000D03*
X5210000Y-615000D03*
X5050000Y-712380D03*
X4820000Y-710000D03*
X5210000Y-810000D03*
X4740000Y-630000D03*
X5050000Y-900000D03*
X4795720Y-540220D03*
X5110000Y-466860D03*
X4707080Y37080D03*
X4790000Y180000D03*
X5007630Y935440D03*
X4876860Y640000D03*
X4602420Y1100000D03*
X5007630D03*
X4757160Y710000D03*
X4600000Y880000D03*
X5003140Y1370000D03*
X5000000Y1640000D03*
X4926940Y1563660D03*
X5007630Y1780000D03*
X4960000Y1900000D03*
X4600000Y1890000D03*
X4650000Y2130000D03*
X4999040Y2368090D03*
X4990000Y2020000D03*
X4670000D03*
X5007630Y3222990D03*
X4800000Y2809060D03*
X5000000Y3393970D03*
X5760000Y-2800000D03*
X5675000Y-1930000D03*
X5300000Y-330000D03*
X5974690Y-320000D03*
X5840000Y-740000D03*
X5970000Y-890000D03*
X5685000Y-265000D03*
X5910000Y380000D03*
Y120000D03*
X5370000Y110000D03*
Y597320D03*
X5390000Y880000D03*
X5910000D03*
X5359930Y1100080D03*
X5390000Y1690000D03*
X5910000Y1400000D03*
X5360000Y2200000D03*
X5770000Y1920000D03*
X5790000Y2530000D03*
X5480000Y3325780D03*
X5440000Y3833780D03*
X5820000Y4640000D03*
X5990000Y-2760000D03*
X6125940Y-1930000D03*
X6185310Y-890000D03*
X6320000Y-740000D03*
X6185310Y-600000D03*
X6560000Y2140000D03*
Y3190000D03*
Y3920000D03*
Y4580000D03*
X7060000Y-480000D03*
X6875660Y-489030D03*
X6960000Y-360000D03*
X6770000Y-489360D03*
X7170000Y-690000D03*
X7690000Y-890000D03*
X7780000Y-810000D03*
X7870000Y-730000D03*
X7830000Y-370000D03*
X7610000Y-480000D03*
G54D25*
G01X254000Y1778000D02*
X762000D01*
G01X1170000Y1920000D02*
X904000D01*
X762000Y1778000D01*
G01Y2540000D02*
X254000D01*
G01X762000Y3302000D02*
X254000D01*
G01X762000Y2794000D02*
X254000D01*
G01X1112000Y3414000D02*
X1000000Y3302000D01*
X762000D01*
G54D16*
X-735000Y-702000D03*
X575000D03*
X1112000Y2906000D03*
X1625060D03*
X1112000Y3414000D03*
X1625060D03*
X2128000Y3160000D03*
X1879060D03*
G54D17*
X254000Y0D03*
X0D03*
X254000Y254000D03*
Y508000D03*
X0Y254000D03*
Y508000D03*
X254000Y762000D03*
Y1016000D03*
X0Y762000D03*
Y1016000D03*
X254000Y1270000D03*
Y1524000D03*
Y1778000D03*
X0Y1270000D03*
Y1524000D03*
Y1778000D03*
X254000Y2032000D03*
Y2286000D03*
Y2540000D03*
X0Y2032000D03*
Y2286000D03*
Y2540000D03*
X254000Y2794000D03*
X0D03*
X254000Y3302000D03*
Y3048000D03*
X0D03*
Y3302000D03*
Y4064000D03*
X254000D03*
X0Y3810000D03*
X254000D03*
X0Y3556000D03*
X254000D03*
Y4572000D03*
X0Y4318000D03*
X254000D03*
X762000Y0D03*
Y254000D03*
Y508000D03*
Y762000D03*
Y1016000D03*
Y1778000D03*
Y2032000D03*
Y2286000D03*
Y2540000D03*
Y2794000D03*
Y3048000D03*
Y3302000D03*
X1170000Y1666000D03*
X3668000Y1070000D03*
X3414000D03*
X4423890Y-408880D03*
Y-128880D03*
X4176000Y1070000D03*
X3922000D03*
X4004000Y2710000D03*
X4588000Y3510000D03*
X4334000D03*
X5588000Y508000D03*
Y254000D03*
Y1016000D03*
Y762000D03*
Y1778000D03*
Y1524000D03*
Y1270000D03*
Y2692000D03*
Y2438000D03*
Y3200000D03*
Y2946000D03*
Y3962000D03*
Y3708000D03*
Y3454000D03*
Y4470000D03*
Y4216000D03*
X6350000Y0D03*
X6096000D03*
X6350000Y254000D03*
Y508000D03*
X6096000Y254000D03*
Y508000D03*
X6350000Y762000D03*
Y1016000D03*
X6096000Y762000D03*
Y1016000D03*
X6350000Y1270000D03*
Y1524000D03*
Y1778000D03*
X6096000Y1270000D03*
Y1524000D03*
Y1778000D03*
X6350000Y2032000D03*
Y2286000D03*
Y2540000D03*
X6096000Y2032000D03*
Y2286000D03*
Y2540000D03*
X6350000Y2794000D03*
X6096000D03*
X6350000Y3302000D03*
Y3048000D03*
X6096000D03*
Y3302000D03*
Y4064000D03*
X6350000D03*
X6096000Y3810000D03*
X6350000D03*
X6096000Y3556000D03*
X6350000D03*
Y4572000D03*
X6096000Y4318000D03*
X6350000D03*
G54D18*
X0Y4572000D03*
X762000Y1270000D03*
Y3556000D03*
X1170000Y1920000D03*
X3160000Y1070000D03*
X3750000Y2710000D03*
X4169890Y-408880D03*
Y-128880D03*
X4080000Y3510000D03*
X5588000Y0D03*
Y2184000D03*
X6096000Y4572000D03*
G54D19*
X2760000Y3520000D03*
X4590000Y320000D03*
M02*
