G04 ================== begin FILE IDENTIFICATION RECORD ==================*
G04 Layout Name:  X-NUCLEO-IHM08M1_ver1_3.brd*
G04 Film Name:    X-NUCLEO-IHM08M1-assembly-bottom*
G04 File Format:  Gerber RS274X*
G04 File Origin:  Cadence Allegro 16.6-2015-S056*
G04 Origin Date:  Mon Sep 21 16:10:32 2015*
G04 *
G04 Layer:  REF DES/ASSEMBLY_BOTTOM*
G04 Layer:  PACKAGE GEOMETRY/ASSEMBLY_BOTTOM*
G04 Layer:  BOARD GEOMETRY/OUTLINE*
G04 *
G04 Offset:    (0.0000 0.0000)*
G04 Mirror:    No*
G04 Mode:      Positive*
G04 Rotation:  0*
G04 FullContactRelief:  No*
G04 UndefLineWidth:     0.0500*
G04 ================== end FILE IDENTIFICATION RECORD ====================*
%FSLAX35Y35*MOMM*%
%IR0*IPPOS*OFA0.00000B0.00000*MIA0B0*SFA1.00000B1.00000*%
%ADD10C,.05*%
%ADD11C,.0762*%
G75*
%LPD*%
G75*
G54D10*
G01X6674990Y-250000D02*
Y4760010D01*
X5188000D01*
Y3724000D01*
X1162000D01*
Y4760010D01*
X-324990D01*
Y-250000D01*
X-1650000D01*
Y-6650000D01*
X8000000D01*
Y-250000D01*
X6674990D01*
G01X-50800Y-393530D02*
X-65620Y-383880D01*
X-74080Y-371010D01*
X-76200Y-356530D01*
X-74080Y-343660D01*
X-63500Y-330790D01*
X-50800Y-322750D01*
X-38100Y-321140D01*
X-23290Y-324360D01*
X-12700Y-335620D01*
X-8470Y-346880D01*
Y-361360D01*
G01Y-346880D02*
X-2120Y-337230D01*
X8460Y-329180D01*
X21170Y-325970D01*
X33870Y-329180D01*
X44450Y-337230D01*
X50800Y-351710D01*
X48680Y-366180D01*
X40220Y-380660D01*
G01X-76200Y-231820D02*
X-48690Y-228600D01*
X-25400Y-223770D01*
X-4230Y-217340D01*
X19050Y-209300D01*
X50800Y-196430D01*
Y-260770D01*
G01X179920Y2242650D02*
X186270Y2233000D01*
X190500Y2221740D01*
Y2208870D01*
X184150Y2194390D01*
X173570Y2183130D01*
X160870Y2175090D01*
X139700Y2168650D01*
X120650Y2167040D01*
X101600Y2170260D01*
X88900Y2175090D01*
X76200Y2184740D01*
X67730Y2196000D01*
X63500Y2207260D01*
Y2218520D01*
X67730Y2229780D01*
X74080Y2239430D01*
X82550Y2247480D01*
G01X63500Y2299800D02*
X190500D01*
X63500Y2373800D01*
X190500D01*
G01X63500Y2463120D02*
X91010Y2466340D01*
X114300Y2471170D01*
X135470Y2477600D01*
X158750Y2485640D01*
X190500Y2498510D01*
Y2434170D01*
G01X-63500Y4836160D02*
X63500D01*
X38100Y4816860D01*
G01X-63500D02*
Y4855460D01*
G01X228600Y-393530D02*
X213780Y-383880D01*
X205320Y-371010D01*
X203200Y-356530D01*
X205320Y-343660D01*
X215900Y-330790D01*
X228600Y-322750D01*
X241300Y-321140D01*
X256110Y-324360D01*
X266700Y-335620D01*
X270930Y-346880D01*
Y-361360D01*
G01Y-346880D02*
X277280Y-337230D01*
X287860Y-329180D01*
X300570Y-325970D01*
X313270Y-329180D01*
X323850Y-337230D01*
X330200Y-351710D01*
X328080Y-366180D01*
X319620Y-380660D01*
G01X203200Y-228600D02*
X205320Y-217340D01*
X211660Y-204470D01*
X222250Y-196430D01*
X237070Y-193210D01*
X251880Y-196430D01*
X264580Y-206080D01*
X270930Y-220560D01*
Y-236640D01*
X275170Y-246300D01*
X285750Y-254340D01*
X300570Y-257560D01*
X315380Y-252730D01*
X325970Y-241470D01*
X330200Y-228600D01*
X325970Y-215730D01*
X315380Y-204470D01*
X300570Y-199640D01*
X285750Y-202860D01*
X275170Y-210900D01*
X270930Y-220560D01*
Y-236640D01*
X264580Y-251120D01*
X251880Y-260770D01*
X237070Y-263990D01*
X222250Y-260770D01*
X211660Y-252730D01*
X205320Y-239860D01*
X203200Y-228600D01*
G01X309030Y4805590D02*
X321730Y4815250D01*
X328080Y4826510D01*
X330200Y4839380D01*
X325970Y4855460D01*
X315380Y4866730D01*
X302690Y4869940D01*
X289980Y4868330D01*
X279400Y4861900D01*
X258230Y4829730D01*
X243420Y4815250D01*
X222250Y4805590D01*
X203200Y4802380D01*
Y4869940D01*
G01X6324600Y-393530D02*
X6309780Y-383880D01*
X6301320Y-371010D01*
X6299200Y-356530D01*
X6301320Y-343660D01*
X6311900Y-330790D01*
X6324600Y-322750D01*
X6337300Y-321140D01*
X6352110Y-324360D01*
X6362700Y-335620D01*
X6366930Y-346880D01*
Y-361360D01*
G01Y-346880D02*
X6373280Y-337230D01*
X6383860Y-329180D01*
X6396570Y-325970D01*
X6409270Y-329180D01*
X6419850Y-337230D01*
X6426200Y-351710D01*
X6424080Y-366180D01*
X6415620Y-380660D01*
G01X6299200Y-228600D02*
X6301320Y-217340D01*
X6307660Y-204470D01*
X6318250Y-196430D01*
X6333070Y-193210D01*
X6347880Y-196430D01*
X6360580Y-206080D01*
X6366930Y-220560D01*
Y-236640D01*
X6371170Y-246300D01*
X6381750Y-254340D01*
X6396570Y-257560D01*
X6411380Y-252730D01*
X6421970Y-241470D01*
X6426200Y-228600D01*
X6421970Y-215730D01*
X6411380Y-204470D01*
X6396570Y-199640D01*
X6381750Y-202860D01*
X6371170Y-210900D01*
X6366930Y-220560D01*
Y-236640D01*
X6360580Y-251120D01*
X6347880Y-260770D01*
X6333070Y-263990D01*
X6318250Y-260770D01*
X6307660Y-252730D01*
X6301320Y-239860D01*
X6299200Y-228600D01*
G01X6045200Y-393530D02*
X6030380Y-383880D01*
X6021920Y-371010D01*
X6019800Y-356530D01*
X6021920Y-343660D01*
X6032500Y-330790D01*
X6045200Y-322750D01*
X6057900Y-321140D01*
X6072710Y-324360D01*
X6083300Y-335620D01*
X6087530Y-346880D01*
Y-361360D01*
G01Y-346880D02*
X6093880Y-337230D01*
X6104460Y-329180D01*
X6117170Y-325970D01*
X6129870Y-329180D01*
X6140450Y-337230D01*
X6146800Y-351710D01*
X6144680Y-366180D01*
X6136220Y-380660D01*
G01X6019800Y-231820D02*
X6047310Y-228600D01*
X6070600Y-223770D01*
X6091770Y-217340D01*
X6115050Y-209300D01*
X6146800Y-196430D01*
Y-260770D01*
G01X6275920Y2242650D02*
X6282270Y2233000D01*
X6286500Y2221740D01*
Y2208870D01*
X6280150Y2194390D01*
X6269570Y2183130D01*
X6256870Y2175090D01*
X6235700Y2168650D01*
X6216650Y2167040D01*
X6197600Y2170260D01*
X6184900Y2175090D01*
X6172200Y2184740D01*
X6163730Y2196000D01*
X6159500Y2207260D01*
Y2218520D01*
X6163730Y2229780D01*
X6170080Y2239430D01*
X6178550Y2247480D01*
G01X6159500Y2299800D02*
X6286500D01*
X6159500Y2373800D01*
X6286500D01*
G01X6159500Y2466340D02*
X6286500D01*
X6261100Y2447040D01*
G01X6159500D02*
Y2485640D01*
G01X6286500Y2595880D02*
X6282270Y2583010D01*
X6271680Y2573360D01*
X6258990Y2566920D01*
X6242050Y2562100D01*
X6223000Y2560490D01*
X6203950Y2562100D01*
X6187010Y2566920D01*
X6174310Y2573360D01*
X6163730Y2583010D01*
X6159500Y2595880D01*
X6163730Y2608750D01*
X6174310Y2618400D01*
X6187010Y2624840D01*
X6203950Y2629660D01*
X6223000Y2631270D01*
X6242050Y2629660D01*
X6258990Y2624840D01*
X6271680Y2618400D01*
X6282270Y2608750D01*
X6286500Y2595880D01*
G01X6405030Y4805590D02*
X6417730Y4815250D01*
X6424080Y4826510D01*
X6426200Y4839380D01*
X6421970Y4855460D01*
X6411380Y4866730D01*
X6398690Y4869940D01*
X6385980Y4868330D01*
X6375400Y4861900D01*
X6354230Y4829730D01*
X6339420Y4815250D01*
X6318250Y4805590D01*
X6299200Y4802380D01*
Y4869940D01*
G01X6032500Y4836160D02*
X6159500D01*
X6134100Y4816860D01*
G01X6032500D02*
Y4855460D01*
G54D11*
G01X381000Y-127000D02*
X-127000D01*
G01D02*
Y4699000D01*
G01D02*
X381000D01*
G01D02*
Y-127000D01*
G01X6477000D02*
X5969000D01*
G01D02*
Y4699000D01*
G01X6477000D02*
Y-127000D01*
G01X5969000Y4699000D02*
X6477000D01*
M02*
