G04 ================== begin FILE IDENTIFICATION RECORD ==================*
G04 Layout Name:  X-NUCLEO-IHM08M1_ver1_3.brd*
G04 Film Name:    X-NUCLEO-IHM08M1-solder-mask-top*
G04 File Format:  Gerber RS274X*
G04 File Origin:  Cadence Allegro 16.6-2015-S056*
G04 Origin Date:  Mon Sep 21 16:10:32 2015*
G04 *
G04 Layer:  PIN/SOLDERMASK_TOP*
G04 Layer:  PACKAGE GEOMETRY/SOLDERMASK_TOP*
G04 *
G04 Offset:    (0.0000 0.0000)*
G04 Mirror:    No*
G04 Mode:      Positive*
G04 Rotation:  0*
G04 FullContactRelief:  No*
G04 UndefLineWidth:     0.0000*
G04 ================== end FILE IDENTIFICATION RECORD ====================*
%FSLAX35Y35*MOMM*%
%IR0*IPPOS*OFA0.00000B0.00000*MIA0B0*SFA1.00000B1.00000*%
%AMMACRO48*
4,1,5,-.51,.7054,
.51,.7054,
.51,-.7054,
0.0,-.1953,
-.51,-.7054,
-.51,.7054,
0.0*
%
%ADD48MACRO48*%
%ADD34R,.7112X1.3462*%
%AMMACRO29*
4,1,5,.7054,.51,
.7054,-.51,
-.7054,-.51,
-.1953,0.0,
-.7054,.51,
.7054,.51,
0.0*
%
%ADD29MACRO29*%
%AMMACRO47*
4,1,5,-.51,.1702,
0.0,.6802,
.51,.1702,
.51,-.6805,
-.51,-.6805,
-.51,.1702,
0.0*
%
%ADD47MACRO47*%
%AMMACRO28*
4,1,5,.1702,.51,
.6802,0.0,
.1702,-.51,
-.6805,-.51,
-.6805,.51,
.1702,.51,
0.0*
%
%ADD28MACRO28*%
%ADD20O,.7112X1.778*%
%ADD33R,.9906X1.143*%
%ADD25R,.7112X1.778*%
%ADD45R,.889X1.0414*%
%ADD40O,.4826X1.7272*%
%ADD24R,.7874X1.0414*%
%ADD41R,1.0414X.7874*%
%ADD38R,.6604X.6604*%
%ADD12R,1.4732X.5842*%
%ADD39R,.4826X1.7272*%
%ADD37R,3.1242X1.143*%
%ADD10C,3.2004*%
%ADD21R,2.413X1.651*%
%ADD31R,2.0066X3.1242*%
%ADD46R,3.1242X2.0066*%
%ADD13C,2.921*%
%ADD22C,1.905*%
%ADD44C,2.159*%
%ADD11R,1.27X1.27*%
%ADD43R,2.3622X1.3462*%
%ADD32R,.6604X.7112*%
%ADD42R,2.3114X1.2954*%
%AMMACRO27*
4,1,5,-.7054,-.51,
-.7054,.51,
.7054,.51,
.1953,0.0,
.7054,-.51,
-.7054,-.51,
0.0*
%
%ADD27MACRO27*%
%ADD19R,.7112X.6604*%
%ADD35R,1.2192X1.7272*%
%AMMACRO26*
4,1,5,-.1702,-.51,
-.6802,0.0,
-.1702,.51,
.6805,.51,
.6805,-.51,
-.1702,-.51,
0.0*
%
%ADD26MACRO26*%
%ADD14R,2.921X2.921*%
%ADD23R,1.905X1.905*%
%ADD30R,3.175X3.175*%
%ADD16C,1.778*%
%ADD15R,1.778X1.778*%
%ADD36R,3.6068X2.6924*%
%ADD17R,.8636X.9906*%
%ADD18R,.9906X.8636*%
G75*
%LPD*%
G75*
G36*
G01X550000Y4121000D02*
Y4019000D01*
X790000D01*
Y4121000D01*
X550000D01*
G37*
G36*
G01Y3911000D02*
Y3809000D01*
X790000D01*
Y3911000D01*
X550000D01*
G37*
G36*
G01X790000Y4229000D02*
Y4331000D01*
X550000D01*
Y4229000D01*
X790000D01*
G37*
G36*
G01X1368200Y-1982000D02*
X1673000D01*
Y-2337600D01*
X2028600D01*
Y-2642400D01*
X1368200D01*
Y-1982000D01*
G37*
G36*
G01X1050000Y464150D02*
Y362150D01*
X1290000D01*
Y464150D01*
X1050000D01*
G37*
G36*
G01Y-38960D02*
Y-140960D01*
X1290000D01*
Y-38960D01*
X1050000D01*
G37*
G36*
G01Y135410D02*
Y33410D01*
X1290000D01*
Y135410D01*
X1050000D01*
G37*
G36*
G01Y299780D02*
Y197780D01*
X1290000D01*
Y299780D01*
X1050000D01*
G37*
G36*
G01Y802890D02*
Y700890D01*
X1290000D01*
Y802890D01*
X1050000D01*
G37*
G36*
G01Y977260D02*
Y875260D01*
X1290000D01*
Y977260D01*
X1050000D01*
G37*
G36*
G01Y1196000D02*
Y1094000D01*
X1290000D01*
Y1196000D01*
X1050000D01*
G37*
G36*
G01Y628520D02*
Y526520D01*
X1290000D01*
Y628520D01*
X1050000D01*
G37*
G36*
G01Y2491000D02*
Y2389000D01*
X1290000D01*
Y2491000D01*
X1050000D01*
G37*
G36*
G01X3520000Y3205000D02*
X3290000D01*
Y2835000D01*
X3520000D01*
Y3205000D01*
G37*
G36*
G01X5300000Y377260D02*
Y479260D01*
X5060000D01*
Y377260D01*
X5300000D01*
G37*
G36*
G01Y884440D02*
Y986440D01*
X5060000D01*
Y884440D01*
X5300000D01*
G37*
G36*
G01Y546320D02*
Y648320D01*
X5060000D01*
Y546320D01*
X5300000D01*
G37*
G36*
G01Y1053500D02*
Y1155500D01*
X5060000D01*
Y1053500D01*
X5300000D01*
G37*
G36*
G01Y715380D02*
Y817380D01*
X5060000D01*
Y715380D01*
X5300000D01*
G37*
G36*
G01Y1222560D02*
Y1324560D01*
X5060000D01*
Y1222560D01*
X5300000D01*
G37*
G36*
G01Y1391620D02*
Y1493620D01*
X5060000D01*
Y1391620D01*
X5300000D01*
G37*
G36*
G01Y1560680D02*
Y1662680D01*
X5060000D01*
Y1560680D01*
X5300000D01*
G37*
G36*
G01Y1729740D02*
Y1831740D01*
X5060000D01*
Y1729740D01*
X5300000D01*
G37*
G36*
G01Y2317090D02*
Y2419090D01*
X5060000D01*
Y2317090D01*
X5300000D01*
G37*
G36*
G01Y2146110D02*
Y2248110D01*
X5060000D01*
Y2146110D01*
X5300000D01*
G37*
G36*
G01Y1975130D02*
Y2077130D01*
X5060000D01*
Y1975130D01*
X5300000D01*
G37*
G36*
G01Y2488070D02*
Y2590070D01*
X5060000D01*
Y2488070D01*
X5300000D01*
G37*
G36*
G01X4940000Y3171990D02*
Y3273990D01*
X4700000D01*
Y3171990D01*
X4940000D01*
G37*
G36*
G01X5300000Y3001010D02*
Y3103010D01*
X5060000D01*
Y3001010D01*
X5300000D01*
G37*
G36*
G01Y2659050D02*
Y2761050D01*
X5060000D01*
Y2659050D01*
X5300000D01*
G37*
G36*
G01Y3171990D02*
Y3273990D01*
X5060000D01*
Y3171990D01*
X5300000D01*
G37*
G36*
G01Y2830030D02*
Y2932030D01*
X5060000D01*
Y2830030D01*
X5300000D01*
G37*
G36*
G01X4940000Y3001010D02*
Y3103010D01*
X4700000D01*
Y3001010D01*
X4940000D01*
G37*
G36*
G01X5300000Y3513950D02*
Y3615950D01*
X5060000D01*
Y3513950D01*
X5300000D01*
G37*
G36*
G01Y3342970D02*
Y3444970D01*
X5060000D01*
Y3342970D01*
X5300000D01*
G37*
G36*
G01X6356000Y-1370000D02*
X6254000D01*
Y-1610000D01*
X6356000D01*
Y-1370000D01*
G37*
G36*
G01X6917000Y-2626800D02*
Y-2322000D01*
X7272600D01*
Y-1966400D01*
X7577400D01*
Y-2626800D01*
X6917000D01*
G37*
G36*
G01X-290000Y-4178250D02*
X-668000D01*
Y-3748750D01*
X-290000D01*
Y-4178250D01*
G37*
G36*
G01X970000D02*
X592000D01*
Y-3748750D01*
X970000D01*
Y-4178250D01*
G37*
G36*
G01X2700000D02*
X2322000D01*
Y-3748750D01*
X2700000D01*
Y-4178250D01*
G37*
G36*
G01X3960000D02*
X3582000D01*
Y-3748750D01*
X3960000D01*
Y-4178250D01*
G37*
G36*
G01X5690000D02*
X5312000D01*
Y-3748750D01*
X5690000D01*
Y-4178250D01*
G37*
G36*
G01X6950000D02*
X6572000D01*
Y-3748750D01*
X6950000D01*
Y-4178250D01*
G37*
G54D10*
X-1250000Y-6270000D03*
X7600000D03*
G54D11*
X-1490000Y-1005310D03*
Y-794690D03*
X99690Y-1800000D03*
X765000Y-2945310D03*
Y-2734690D03*
X310310Y-1800000D03*
X1265310Y-290000D03*
X1054690D03*
X3019690Y-1800000D03*
X2719890Y116430D03*
Y-94190D03*
X2500000Y3305310D03*
Y3094690D03*
X3685000Y-2945310D03*
Y-2734690D03*
X3230310Y-1800000D03*
X5589690D03*
X5800310D03*
X5974690Y-1040000D03*
Y-740000D03*
Y-440000D03*
X6255000Y-2945310D03*
Y-2734690D03*
X6185310Y-1040000D03*
Y-740000D03*
Y-440000D03*
G54D20*
X184500Y-2624910D03*
Y-2095090D03*
X565500Y-2624910D03*
X311500D03*
X438500D03*
Y-2095090D03*
X311500D03*
X2120500Y1415090D03*
X1993500Y1944910D03*
X1866500D03*
X1739500D03*
Y1415090D03*
X1866500D03*
X1993500D03*
X3485500Y-2624910D03*
X3104500D03*
X3231500D03*
X3358500D03*
Y-2095090D03*
X3231500D03*
X3104500D03*
X5674500Y-2624910D03*
X5801500D03*
X5928500D03*
Y-2095090D03*
X5801500D03*
X5674500D03*
X6055500Y-2624910D03*
G54D30*
X1519800Y-2490000D03*
Y-2135200D03*
X1874600Y-2490000D03*
X7070200Y-2475200D03*
X7425000D03*
Y-2120400D03*
G54D21*
X-130000Y-2593700D03*
Y-2166300D03*
G54D12*
X-650000Y-4154000D03*
Y-4027000D03*
Y-3900000D03*
Y-3773000D03*
X-135000Y-4154000D03*
Y-4027000D03*
Y-3900000D03*
Y-3773000D03*
X610000Y-4154000D03*
Y-4027000D03*
Y-3900000D03*
Y-3773000D03*
X1125000Y-4154000D03*
Y-4027000D03*
Y-3900000D03*
Y-3773000D03*
X2340000Y-4154000D03*
Y-4027000D03*
Y-3900000D03*
Y-3773000D03*
X2855000Y-4154000D03*
Y-4027000D03*
Y-3900000D03*
Y-3773000D03*
X3600000Y-4154000D03*
Y-4027000D03*
Y-3900000D03*
Y-3773000D03*
X4115000Y-4154000D03*
Y-4027000D03*
Y-3900000D03*
Y-3773000D03*
X5845000Y-4154000D03*
X5330000D03*
X5845000Y-4027000D03*
X5330000D03*
X5845000Y-3900000D03*
X5330000D03*
X5845000Y-3773000D03*
X5330000D03*
X6590000Y-4154000D03*
Y-4027000D03*
Y-3900000D03*
Y-3773000D03*
X7105000Y-4154000D03*
Y-4027000D03*
Y-3900000D03*
Y-3773000D03*
G54D22*
X254000Y0D03*
X0D03*
X254000Y254000D03*
Y508000D03*
X0Y254000D03*
Y508000D03*
X254000Y762000D03*
Y1016000D03*
X0Y762000D03*
Y1016000D03*
X254000Y1270000D03*
Y1524000D03*
Y1778000D03*
X0Y1270000D03*
Y1524000D03*
Y1778000D03*
X254000Y2032000D03*
Y2286000D03*
Y2540000D03*
X0Y2032000D03*
Y2286000D03*
Y2540000D03*
X254000Y2794000D03*
X0D03*
X254000Y3302000D03*
Y3048000D03*
X0D03*
Y3302000D03*
Y4064000D03*
X254000D03*
X0Y3810000D03*
X254000D03*
X0Y3556000D03*
X254000D03*
Y4572000D03*
X0Y4318000D03*
X254000D03*
X762000Y0D03*
Y254000D03*
Y508000D03*
Y762000D03*
Y1016000D03*
Y1778000D03*
Y2032000D03*
Y2286000D03*
Y2540000D03*
Y2794000D03*
Y3048000D03*
Y3302000D03*
X1170000Y1666000D03*
X3668000Y1070000D03*
X3414000D03*
X4423890Y-408880D03*
Y-128880D03*
X4176000Y1070000D03*
X3922000D03*
X4004000Y2710000D03*
X4588000Y3510000D03*
X4334000D03*
X5588000Y508000D03*
Y254000D03*
Y1016000D03*
Y762000D03*
Y1778000D03*
Y1524000D03*
Y1270000D03*
Y2692000D03*
Y2438000D03*
Y3200000D03*
Y2946000D03*
Y3962000D03*
Y3708000D03*
Y3454000D03*
Y4470000D03*
Y4216000D03*
X6350000Y0D03*
X6096000D03*
X6350000Y254000D03*
Y508000D03*
X6096000Y254000D03*
Y508000D03*
X6350000Y762000D03*
Y1016000D03*
X6096000Y762000D03*
Y1016000D03*
X6350000Y1270000D03*
Y1524000D03*
Y1778000D03*
X6096000Y1270000D03*
Y1524000D03*
Y1778000D03*
X6350000Y2032000D03*
Y2286000D03*
Y2540000D03*
X6096000Y2032000D03*
Y2286000D03*
Y2540000D03*
X6350000Y2794000D03*
X6096000D03*
X6350000Y3302000D03*
Y3048000D03*
X6096000D03*
Y3302000D03*
Y4064000D03*
X6350000D03*
X6096000Y3810000D03*
X6350000D03*
X6096000Y3556000D03*
X6350000D03*
Y4572000D03*
X6096000Y4318000D03*
X6350000D03*
G54D13*
X-847000Y-2345000D03*
X2745000Y-5820000D03*
X3380000D03*
G54D31*
X1525280Y-1660000D03*
X2124720D03*
X6835280Y-1670000D03*
X7434720D03*
G54D40*
X3074810Y158570D03*
X3139830Y-416330D03*
X3204860D03*
X3269880D03*
X3334910D03*
X3399930D03*
X3464950D03*
Y158570D03*
X3399930D03*
X3334910D03*
X3269880D03*
X3204860D03*
X3139830D03*
G54D23*
X0Y4572000D03*
X762000Y1270000D03*
Y3556000D03*
X1170000Y1920000D03*
X3160000Y1070000D03*
X3750000Y2710000D03*
X4169890Y-408880D03*
Y-128880D03*
X4080000Y3510000D03*
X5588000Y0D03*
Y2184000D03*
X6096000Y4572000D03*
G54D14*
X-847000Y-2980000D03*
X4015000Y-5820000D03*
G54D32*
X1087060Y1300000D03*
X1232940D03*
X3352940Y2380000D03*
X3207060D03*
X3622940D03*
X3477060D03*
X3777060D03*
X3922940D03*
X5447060Y-1040000D03*
X5592940D03*
X5447060Y-1200000D03*
X5592940D03*
X5447060Y-480000D03*
X5592940D03*
X5447060Y-610000D03*
X5592940D03*
X5447060Y-900000D03*
X5592940D03*
X5447060Y-740000D03*
X5592940D03*
G54D41*
X2396240Y1430000D03*
X2743760D03*
G54D15*
X-735000Y-1210000D03*
X575000D03*
G54D42*
X2570000Y1636500D03*
Y1783500D03*
G54D24*
X770000Y-2563760D03*
Y-2216240D03*
X3690000Y-2563760D03*
Y-2216240D03*
X6260000Y-2563760D03*
Y-2216240D03*
G54D33*
X1754750Y-692050D03*
X1944740D03*
X3994640Y539070D03*
X4184630D03*
X5164750Y-1822050D03*
X5354740D03*
X7314750Y-792050D03*
X7504740D03*
G54D16*
X-735000Y-702000D03*
X575000D03*
X1112000Y2906000D03*
X1625060D03*
X1112000Y3414000D03*
X1625060D03*
X2128000Y3160000D03*
X1879060D03*
G54D43*
X2770000Y3250000D03*
Y3021400D03*
Y2792800D03*
G54D25*
X565500Y-2095090D03*
X2120500Y1944910D03*
X3485500Y-2095090D03*
X6055500D03*
G54D34*
X1849750Y-895250D03*
X1754750D03*
X1944740D03*
X4089640Y335870D03*
X3994640D03*
X4184630D03*
X5164750Y-2025250D03*
X5259750D03*
X5354740D03*
X7409750Y-995250D03*
X7314750D03*
X7504740D03*
G54D17*
X-165000Y-3590000D03*
X-5000D03*
X-165000Y-3420000D03*
X-5000D03*
X-155000Y-2960000D03*
X5000D03*
X475000Y-1790000D03*
X635000D03*
X1085000Y-3590000D03*
X1245000D03*
X1085000Y-3420000D03*
X1245000D03*
X1085000Y-2960000D03*
X1245000D03*
X1490000Y130000D03*
X1650000D03*
X1490000Y280000D03*
X1650000D03*
Y920000D03*
X1490000D03*
X1650000Y1150000D03*
X1490000D03*
Y750000D03*
X1650000D03*
X1780000Y-1060000D03*
X1940000D03*
X1800000Y-530000D03*
X1960000D03*
X2010000Y1230000D03*
X1850000D03*
X2835000Y-3590000D03*
X2995000D03*
X2835000Y-3420000D03*
X2995000D03*
X2835000Y-2960000D03*
X2995000D03*
X2869890Y-648880D03*
X2709890D03*
X2869890Y-818880D03*
X2709890D03*
X3395000Y-1790000D03*
X3555000D03*
X3789890Y-678880D03*
X3629890D03*
Y-828880D03*
X3789890D03*
X3629890Y-528880D03*
X3789890D03*
Y76120D03*
X3629890D03*
X3789890Y-73880D03*
X3629890D03*
X3630000Y230000D03*
X3790000D03*
X3480000Y2140000D03*
X3640000D03*
X3780000D03*
X3180000D03*
X3340000D03*
Y1990000D03*
X3180000D03*
X3640000D03*
X3480000D03*
X3780000D03*
X4055000Y-3590000D03*
X4215000D03*
X4055000Y-3420000D03*
X4215000D03*
X4055000Y-2960000D03*
X4215000D03*
X4049890Y171120D03*
X4209890D03*
X4009890Y721120D03*
X4169890D03*
X3980000Y1370000D03*
X4140000D03*
X3940000Y2140000D03*
Y1990000D03*
X5190000Y-2190000D03*
Y-2340000D03*
Y-1520000D03*
Y-1670000D03*
X4960000Y2710000D03*
X4800000D03*
X5835000Y-3590000D03*
Y-3420000D03*
Y-2960000D03*
X5965000Y-1790000D03*
X5350000Y-2190000D03*
Y-2340000D03*
Y-1520000D03*
Y-1670000D03*
X5410000Y-330000D03*
X5570000D03*
X5995000Y-3590000D03*
Y-3420000D03*
Y-2960000D03*
X6125000Y-1790000D03*
X7035000Y-3590000D03*
X7195000D03*
X7035000Y-3420000D03*
X7195000D03*
X7035000Y-2960000D03*
X7195000D03*
X7350000Y-1160000D03*
Y-1310000D03*
Y-630000D03*
Y-480000D03*
X7510000Y-1160000D03*
Y-1310000D03*
Y-630000D03*
Y-480000D03*
G54D26*
X725990Y4070000D03*
Y3860000D03*
X1225990Y413150D03*
Y-89960D03*
Y84410D03*
Y248780D03*
Y751890D03*
Y926260D03*
Y1145000D03*
Y577520D03*
Y2440000D03*
G54D35*
X2044610Y1000000D03*
X2335390D03*
X2144610Y1200000D03*
X2435390D03*
G54D44*
X2760000Y3520000D03*
X4590000Y320000D03*
G54D18*
X-155000Y-3270000D03*
Y-3110000D03*
X765000Y-2070000D03*
Y-1910000D03*
X1085000Y-3270000D03*
Y-3110000D03*
X1590000Y2160000D03*
Y2320000D03*
X2110000Y-1060000D03*
Y-900000D03*
Y-690000D03*
Y-530000D03*
X2320000Y1630000D03*
Y1790000D03*
X1740000Y2320000D03*
Y2160000D03*
X1900000D03*
Y2320000D03*
X2060000D03*
Y2160000D03*
X2845000Y-3270000D03*
Y-3110000D03*
X2709890Y-498880D03*
Y-338880D03*
X2899890Y-398880D03*
X3029890Y-648880D03*
Y-808880D03*
X2899890Y-98880D03*
Y61120D03*
X3069890Y381120D03*
X2899890Y-238880D03*
X2919890Y381120D03*
X3069890Y541120D03*
X2919890D03*
X2500000Y2770000D03*
Y2930000D03*
X3685000Y-2070000D03*
Y-1910000D03*
X3329890Y-808880D03*
Y-648880D03*
X3479890Y-808880D03*
Y-648880D03*
X3639890Y-378880D03*
X3179890Y-808880D03*
Y-648880D03*
X3789890Y-378880D03*
X3639890Y-218880D03*
X3519890Y381120D03*
X3789890Y-218880D03*
X3819890Y381120D03*
X3219890D03*
X3369890D03*
X3669890D03*
X3519890Y541120D03*
X3819890D03*
X3219890D03*
X3369890D03*
X3669890D03*
X3180000Y1580000D03*
Y1740000D03*
X3480000Y1580000D03*
Y1740000D03*
X3780000D03*
Y1580000D03*
X3330000D03*
Y1740000D03*
X3630000Y1580000D03*
Y1740000D03*
X4065000Y-3270000D03*
Y-3110000D03*
X4359890Y351120D03*
Y191120D03*
X4349890Y561120D03*
Y721120D03*
X3930000Y1740000D03*
Y1580000D03*
X4230000Y2940000D03*
Y3100000D03*
X4890000Y-280000D03*
Y-120000D03*
Y20000D03*
Y180000D03*
X5835000Y-3270000D03*
Y-3110000D03*
X5730000Y-1040000D03*
Y-1200000D03*
Y-740000D03*
Y-900000D03*
Y-440000D03*
Y-600000D03*
X6245000Y-2070000D03*
Y-1910000D03*
X7045000Y-3270000D03*
Y-3110000D03*
G54D36*
X1930000Y1680000D03*
G54D27*
X616990Y4070000D03*
Y3860000D03*
X1116990Y413150D03*
Y-89960D03*
Y84410D03*
Y248780D03*
Y751890D03*
Y926260D03*
Y1145000D03*
Y577520D03*
Y2440000D03*
G54D45*
X3618880Y3560000D03*
X3761120D03*
G54D19*
X5000Y-3272940D03*
Y-3127060D03*
X1245000Y-3272940D03*
Y-3127060D03*
X2995000Y-3272940D03*
Y-3127060D03*
X4215000Y-3272940D03*
Y-3127060D03*
X5995000Y-3272940D03*
Y-3127060D03*
X7195000Y-3272940D03*
Y-3127060D03*
G54D46*
X4465000Y-1730280D03*
Y-2329720D03*
G54D37*
X2350000Y2280000D03*
X2810000D03*
G54D28*
X614010Y4280000D03*
X5124010Y428260D03*
Y935440D03*
Y597320D03*
Y1104500D03*
Y766380D03*
Y1273560D03*
Y1442620D03*
Y1611680D03*
Y1780740D03*
Y2368090D03*
Y2197110D03*
Y2026130D03*
Y2539070D03*
X4764010Y3222990D03*
X5124010Y3052010D03*
Y2710050D03*
Y3222990D03*
Y2881030D03*
X4764010Y3052010D03*
X5124010Y3564950D03*
Y3393970D03*
G54D38*
X2744520Y-2820000D03*
X2645480D03*
G54D47*
X6305000Y-1545990D03*
G54D29*
X723010Y4280000D03*
X5233010Y428260D03*
Y935440D03*
Y597320D03*
Y1104500D03*
Y766380D03*
Y1273560D03*
Y1442620D03*
Y1611680D03*
Y1780740D03*
Y2368090D03*
Y2197110D03*
Y2026130D03*
Y2539070D03*
X4873010Y3222990D03*
X5233010Y3052010D03*
Y2710050D03*
Y3222990D03*
Y2881030D03*
X4873010Y3052010D03*
X5233010Y3564950D03*
Y3393970D03*
G54D39*
X3074810Y-416330D03*
G54D48*
X6305000Y-1436990D03*
M02*
