G04 ================== begin FILE IDENTIFICATION RECORD ==================*
G04 Layout Name:  X-NUCLEO-IHM08M1_ver1_3.brd*
G04 Film Name:    X-NUCLEO-IHM08M1-solder-mask-bottom*
G04 File Format:  Gerber RS274X*
G04 File Origin:  Cadence Allegro 16.6-2015-S056*
G04 Origin Date:  Mon Sep 21 16:10:32 2015*
G04 *
G04 Layer:  PIN/SOLDERMASK_BOTTOM*
G04 Layer:  PACKAGE GEOMETRY/SOLDERMASK_BOTTOM*
G04 *
G04 Offset:    (0.0000 0.0000)*
G04 Mirror:    No*
G04 Mode:      Positive*
G04 Rotation:  0*
G04 FullContactRelief:  No*
G04 UndefLineWidth:     0.0000*
G04 ================== end FILE IDENTIFICATION RECORD ====================*
%FSLAX35Y35*MOMM*%
%IR0*IPPOS*OFA0.00000B0.00000*MIA0B0*SFA1.00000B1.00000*%
%ADD10C,3.2004*%
%ADD11C,2.921*%
%ADD15C,1.905*%
%ADD17C,2.159*%
%ADD12R,2.921X2.921*%
%ADD16R,1.905X1.905*%
%ADD14C,1.778*%
%ADD13R,1.778X1.778*%
%LPD*%
G75*
G54D10*
X-1250000Y-6270000D03*
X7600000D03*
G54D11*
X-847000Y-2345000D03*
X2745000Y-5820000D03*
X3380000D03*
G54D12*
X-847000Y-2980000D03*
X4015000Y-5820000D03*
G54D13*
X-735000Y-1210000D03*
X575000D03*
G54D14*
X-735000Y-702000D03*
X575000D03*
X1112000Y2906000D03*
X1625060D03*
X1112000Y3414000D03*
X1625060D03*
X2128000Y3160000D03*
X1879060D03*
G54D15*
X254000Y0D03*
X0D03*
X254000Y254000D03*
Y508000D03*
X0Y254000D03*
Y508000D03*
X254000Y762000D03*
Y1016000D03*
X0Y762000D03*
Y1016000D03*
X254000Y1270000D03*
Y1524000D03*
Y1778000D03*
X0Y1270000D03*
Y1524000D03*
Y1778000D03*
X254000Y2032000D03*
Y2286000D03*
Y2540000D03*
X0Y2032000D03*
Y2286000D03*
Y2540000D03*
X254000Y2794000D03*
X0D03*
X254000Y3302000D03*
Y3048000D03*
X0D03*
Y3302000D03*
Y4064000D03*
X254000D03*
X0Y3810000D03*
X254000D03*
X0Y3556000D03*
X254000D03*
Y4572000D03*
X0Y4318000D03*
X254000D03*
X762000Y0D03*
Y254000D03*
Y508000D03*
Y762000D03*
Y1016000D03*
Y1778000D03*
Y2032000D03*
Y2286000D03*
Y2540000D03*
Y2794000D03*
Y3048000D03*
Y3302000D03*
X1170000Y1666000D03*
X3668000Y1070000D03*
X3414000D03*
X4423890Y-408880D03*
Y-128880D03*
X4176000Y1070000D03*
X3922000D03*
X4004000Y2710000D03*
X4588000Y3510000D03*
X4334000D03*
X5588000Y508000D03*
Y254000D03*
Y1016000D03*
Y762000D03*
Y1778000D03*
Y1524000D03*
Y1270000D03*
Y2692000D03*
Y2438000D03*
Y3200000D03*
Y2946000D03*
Y3962000D03*
Y3708000D03*
Y3454000D03*
Y4470000D03*
Y4216000D03*
X6350000Y0D03*
X6096000D03*
X6350000Y254000D03*
Y508000D03*
X6096000Y254000D03*
Y508000D03*
X6350000Y762000D03*
Y1016000D03*
X6096000Y762000D03*
Y1016000D03*
X6350000Y1270000D03*
Y1524000D03*
Y1778000D03*
X6096000Y1270000D03*
Y1524000D03*
Y1778000D03*
X6350000Y2032000D03*
Y2286000D03*
Y2540000D03*
X6096000Y2032000D03*
Y2286000D03*
Y2540000D03*
X6350000Y2794000D03*
X6096000D03*
X6350000Y3302000D03*
Y3048000D03*
X6096000D03*
Y3302000D03*
Y4064000D03*
X6350000D03*
X6096000Y3810000D03*
X6350000D03*
X6096000Y3556000D03*
X6350000D03*
Y4572000D03*
X6096000Y4318000D03*
X6350000D03*
G54D16*
X0Y4572000D03*
X762000Y1270000D03*
Y3556000D03*
X1170000Y1920000D03*
X3160000Y1070000D03*
X3750000Y2710000D03*
X4169890Y-408880D03*
Y-128880D03*
X4080000Y3510000D03*
X5588000Y0D03*
Y2184000D03*
X6096000Y4572000D03*
G54D17*
X2760000Y3520000D03*
X4590000Y320000D03*
M02*
