G04 ================== begin FILE IDENTIFICATION RECORD ==================*
G04 Layout Name:  X-NUCLEO-IHM08M1_ver1_3.brd*
G04 Film Name:    X-NUCLEO-IHM08M1-paste-mask-top*
G04 File Format:  Gerber RS274X*
G04 File Origin:  Cadence Allegro 16.6-2015-S056*
G04 Origin Date:  Mon Sep 21 16:10:32 2015*
G04 *
G04 Layer:  PIN/PASTEMASK_TOP*
G04 Layer:  PACKAGE GEOMETRY/PASTEMASK_TOP*
G04 *
G04 Offset:    (0.0000 0.0000)*
G04 Mirror:    No*
G04 Mode:      Positive*
G04 Rotation:  0*
G04 FullContactRelief:  No*
G04 UndefLineWidth:     0.0000*
G04 ================== end FILE IDENTIFICATION RECORD ====================*
%FSLAX35Y35*MOMM*%
%IR0*IPPOS*OFA0.00000B0.00000*MIA0B0*SFA1.00000B1.00000*%
%ADD32O,.4064X1.651*%
%ADD26R,.635X1.27*%
%ADD31R,.4064X1.651*%
%AMMACRO20*
4,1,5,-.62,.46,
.62,.46,
.16,0.0,
.62,-.46,
-.62,-.46,
-.62,.46,
0.0*
%
%ADD20MACRO20*%
%ADD15O,.635X1.7018*%
%AMMACRO19*
4,1,5,.62,.46,
-.16,.46,
-.62,0.0,
-.16,-.46,
.62,-.46,
.62,.46,
0.0*
%
%ADD19MACRO19*%
%ADD25R,.8636X1.016*%
%ADD18R,.635X1.7018*%
%ADD11R,1.397X.508*%
%ADD30R,.6096X.6096*%
%ADD27R,1.0922X1.6002*%
%AMMACRO39*
4,1,5,.46,.62,
.46,-.62,
0.0,-.16,
-.46,-.62,
-.46,.62,
.46,.62,
0.0*
%
%ADD39MACRO39*%
%AMMACRO22*
4,1,5,.62,-.46,
-.62,-.46,
-.16,0.0,
-.62,.46,
.62,.46,
.62,-.46,
0.0*
%
%ADD22MACRO22*%
%AMMACRO38*
4,1,5,.46,-.62,
.46,.16,
0.0,.62,
-.46,.16,
-.46,-.62,
.46,-.62,
0.0*
%
%ADD38MACRO38*%
%AMMACRO21*
4,1,5,-.62,-.46,
.16,-.46,
.62,0.0,
.16,.46,
-.62,.46,
-.62,-.46,
0.0*
%
%ADD21MACRO21*%
%ADD35R,2.2352X1.2192*%
%ADD16R,2.286X1.524*%
%ADD28R,3.4544X2.54*%
%ADD23R,1.9304X3.048*%
%ADD37R,3.048X1.9304*%
%ADD29R,2.9972X1.016*%
%ADD17R,.7112X.9652*%
%ADD33R,.9652X.7112*%
%ADD34R,2.1844X1.1684*%
%ADD24R,.4826X.5334*%
%ADD14R,.5334X.4826*%
%ADD10R,1.1938X1.1938*%
%ADD36R,.8128X.9652*%
%ADD12R,.7874X.9144*%
%ADD13R,.9144X.7874*%
G75*
%LPD*%
G75*
G36*
G01X3515000Y3200000D02*
X3295000D01*
Y2840000D01*
X3515000D01*
Y3200000D01*
G37*
G36*
G01X-290000Y-4178250D02*
X-668000D01*
Y-3748750D01*
X-290000D01*
Y-4178250D01*
G37*
G36*
G01X970000D02*
X592000D01*
Y-3748750D01*
X970000D01*
Y-4178250D01*
G37*
G36*
G01X2700000D02*
X2322000D01*
Y-3748750D01*
X2700000D01*
Y-4178250D01*
G37*
G36*
G01X3960000D02*
X3582000D01*
Y-3748750D01*
X3960000D01*
Y-4178250D01*
G37*
G36*
G01X5690000D02*
X5312000D01*
Y-3748750D01*
X5690000D01*
Y-4178250D01*
G37*
G36*
G01X6950000D02*
X6572000D01*
Y-3748750D01*
X6950000D01*
Y-4178250D01*
G37*
G54D10*
X-1490000Y-1005310D03*
Y-794690D03*
X99690Y-1800000D03*
X765000Y-2945310D03*
Y-2734690D03*
X310310Y-1800000D03*
X1265310Y-290000D03*
X1054690D03*
X3019690Y-1800000D03*
X2719890Y116430D03*
Y-94190D03*
X2500000Y3305310D03*
Y3094690D03*
X3685000Y-2945310D03*
Y-2734690D03*
X3230310Y-1800000D03*
X5589690D03*
X5800310D03*
X5974690Y-1040000D03*
Y-740000D03*
Y-440000D03*
X6255000Y-2945310D03*
Y-2734690D03*
X6185310Y-1040000D03*
Y-740000D03*
Y-440000D03*
G54D11*
X-650000Y-4154000D03*
Y-4027000D03*
Y-3900000D03*
Y-3773000D03*
X-135000Y-4154000D03*
Y-4027000D03*
Y-3900000D03*
Y-3773000D03*
X610000Y-4154000D03*
Y-4027000D03*
Y-3900000D03*
Y-3773000D03*
X1125000Y-4154000D03*
Y-4027000D03*
Y-3900000D03*
Y-3773000D03*
X2340000Y-4154000D03*
Y-4027000D03*
Y-3900000D03*
Y-3773000D03*
X2855000Y-4154000D03*
Y-4027000D03*
Y-3900000D03*
Y-3773000D03*
X3600000Y-4154000D03*
Y-4027000D03*
Y-3900000D03*
Y-3773000D03*
X4115000Y-4154000D03*
Y-4027000D03*
Y-3900000D03*
Y-3773000D03*
X5845000Y-4154000D03*
X5330000D03*
X5845000Y-4027000D03*
X5330000D03*
X5845000Y-3900000D03*
X5330000D03*
X5845000Y-3773000D03*
X5330000D03*
X6590000Y-4154000D03*
Y-4027000D03*
Y-3900000D03*
Y-3773000D03*
X7105000Y-4154000D03*
Y-4027000D03*
Y-3900000D03*
Y-3773000D03*
G54D20*
X613460Y4070000D03*
Y3860000D03*
X1113460Y413150D03*
Y-89960D03*
Y84410D03*
Y248780D03*
Y751890D03*
Y926260D03*
Y1145000D03*
Y577520D03*
Y2440000D03*
G54D12*
X-165000Y-3590000D03*
X-5000D03*
X-165000Y-3420000D03*
X-5000D03*
X-155000Y-2960000D03*
X5000D03*
X475000Y-1790000D03*
X635000D03*
X1085000Y-3590000D03*
X1245000D03*
X1085000Y-3420000D03*
X1245000D03*
X1085000Y-2960000D03*
X1245000D03*
X1490000Y130000D03*
X1650000D03*
X1490000Y280000D03*
X1650000D03*
Y920000D03*
X1490000D03*
X1650000Y1150000D03*
X1490000D03*
Y750000D03*
X1650000D03*
X1780000Y-1060000D03*
X1940000D03*
X1800000Y-530000D03*
X1960000D03*
X2010000Y1230000D03*
X1850000D03*
X2835000Y-3590000D03*
X2995000D03*
X2835000Y-3420000D03*
X2995000D03*
X2835000Y-2960000D03*
X2995000D03*
X2869890Y-648880D03*
X2709890D03*
X2869890Y-818880D03*
X2709890D03*
X3395000Y-1790000D03*
X3555000D03*
X3789890Y-678880D03*
X3629890D03*
Y-828880D03*
X3789890D03*
X3629890Y-528880D03*
X3789890D03*
Y76120D03*
X3629890D03*
X3789890Y-73880D03*
X3629890D03*
X3630000Y230000D03*
X3790000D03*
X3480000Y2140000D03*
X3640000D03*
X3780000D03*
X3180000D03*
X3340000D03*
Y1990000D03*
X3180000D03*
X3640000D03*
X3480000D03*
X3780000D03*
X4055000Y-3590000D03*
X4215000D03*
X4055000Y-3420000D03*
X4215000D03*
X4055000Y-2960000D03*
X4215000D03*
X4049890Y171120D03*
X4209890D03*
X4009890Y721120D03*
X4169890D03*
X3980000Y1370000D03*
X4140000D03*
X3940000Y2140000D03*
Y1990000D03*
X5190000Y-2190000D03*
Y-2340000D03*
Y-1520000D03*
Y-1670000D03*
X4960000Y2710000D03*
X4800000D03*
X5835000Y-3590000D03*
Y-3420000D03*
Y-2960000D03*
X5965000Y-1790000D03*
X5350000Y-2190000D03*
Y-2340000D03*
Y-1520000D03*
Y-1670000D03*
X5410000Y-330000D03*
X5570000D03*
X5995000Y-3590000D03*
Y-3420000D03*
Y-2960000D03*
X6125000Y-1790000D03*
X7035000Y-3590000D03*
X7195000D03*
X7035000Y-3420000D03*
X7195000D03*
X7035000Y-2960000D03*
X7195000D03*
X7350000Y-1160000D03*
Y-1310000D03*
Y-630000D03*
Y-480000D03*
X7510000Y-1160000D03*
Y-1310000D03*
Y-630000D03*
Y-480000D03*
G54D21*
X612970Y4280000D03*
X5122970Y428260D03*
Y935440D03*
Y597320D03*
Y1104500D03*
Y766380D03*
Y1273560D03*
Y1442620D03*
Y1611680D03*
Y1780740D03*
Y2368090D03*
Y2197110D03*
Y2026130D03*
Y2539070D03*
X4762970Y3222990D03*
X5122970Y3052010D03*
Y2710050D03*
Y3222990D03*
Y2881030D03*
X4762970Y3052010D03*
X5122970Y3564950D03*
Y3393970D03*
G54D30*
X2744520Y-2820000D03*
X2645480D03*
G54D13*
X-155000Y-3270000D03*
Y-3110000D03*
X765000Y-2070000D03*
Y-1910000D03*
X1085000Y-3270000D03*
Y-3110000D03*
X1590000Y2160000D03*
Y2320000D03*
X2110000Y-1060000D03*
Y-900000D03*
Y-690000D03*
Y-530000D03*
X2320000Y1630000D03*
Y1790000D03*
X1740000Y2320000D03*
Y2160000D03*
X1900000D03*
Y2320000D03*
X2060000D03*
Y2160000D03*
X2845000Y-3270000D03*
Y-3110000D03*
X2709890Y-498880D03*
Y-338880D03*
X2899890Y-398880D03*
X3029890Y-648880D03*
Y-808880D03*
X2899890Y-98880D03*
Y61120D03*
X3069890Y381120D03*
X2899890Y-238880D03*
X2919890Y381120D03*
X3069890Y541120D03*
X2919890D03*
X2500000Y2770000D03*
Y2930000D03*
X3685000Y-2070000D03*
Y-1910000D03*
X3329890Y-808880D03*
Y-648880D03*
X3479890Y-808880D03*
Y-648880D03*
X3639890Y-378880D03*
X3179890Y-808880D03*
Y-648880D03*
X3789890Y-378880D03*
X3639890Y-218880D03*
X3519890Y381120D03*
X3789890Y-218880D03*
X3819890Y381120D03*
X3219890D03*
X3369890D03*
X3669890D03*
X3519890Y541120D03*
X3819890D03*
X3219890D03*
X3369890D03*
X3669890D03*
X3180000Y1580000D03*
Y1740000D03*
X3480000Y1580000D03*
Y1740000D03*
X3780000D03*
Y1580000D03*
X3330000D03*
Y1740000D03*
X3630000Y1580000D03*
Y1740000D03*
X4065000Y-3270000D03*
Y-3110000D03*
X4359890Y351120D03*
Y191120D03*
X4349890Y561120D03*
Y721120D03*
X3930000Y1740000D03*
Y1580000D03*
X4230000Y2940000D03*
Y3100000D03*
X4890000Y-280000D03*
Y-120000D03*
Y20000D03*
Y180000D03*
X5835000Y-3270000D03*
Y-3110000D03*
X5730000Y-1040000D03*
Y-1200000D03*
Y-740000D03*
Y-900000D03*
Y-440000D03*
Y-600000D03*
X6245000Y-2070000D03*
Y-1910000D03*
X7045000Y-3270000D03*
Y-3110000D03*
G54D22*
X726540Y4280000D03*
X5236540Y428260D03*
Y935440D03*
Y597320D03*
Y1104500D03*
Y766380D03*
Y1273560D03*
Y1442620D03*
Y1611680D03*
Y1780740D03*
Y2368090D03*
Y2197110D03*
Y2026130D03*
Y2539070D03*
X4876540Y3222990D03*
X5236540Y3052010D03*
Y2710050D03*
Y3222990D03*
Y2881030D03*
X4876540Y3052010D03*
X5236540Y3564950D03*
Y3393970D03*
G54D31*
X3074810Y-416330D03*
G54D14*
X5000Y-3272940D03*
Y-3127060D03*
X1245000Y-3272940D03*
Y-3127060D03*
X2995000Y-3272940D03*
Y-3127060D03*
X4215000Y-3272940D03*
Y-3127060D03*
X5995000Y-3272940D03*
Y-3127060D03*
X7195000Y-3272940D03*
Y-3127060D03*
G54D23*
X1525280Y-1660000D03*
X2124720D03*
X6835280Y-1670000D03*
X7434720D03*
G54D32*
X3074810Y158570D03*
X3139830Y-416330D03*
X3204860D03*
X3269880D03*
X3334910D03*
X3399930D03*
X3464950D03*
Y158570D03*
X3399930D03*
X3334910D03*
X3269880D03*
X3204860D03*
X3139830D03*
G54D24*
X1087060Y1300000D03*
X1232940D03*
X3352940Y2380000D03*
X3207060D03*
X3622940D03*
X3477060D03*
X3777060D03*
X3922940D03*
X5447060Y-1040000D03*
X5592940D03*
X5447060Y-1200000D03*
X5592940D03*
X5447060Y-480000D03*
X5592940D03*
X5447060Y-610000D03*
X5592940D03*
X5447060Y-900000D03*
X5592940D03*
X5447060Y-740000D03*
X5592940D03*
G54D33*
X2396240Y1430000D03*
X2743760D03*
G54D15*
X184500Y-2624910D03*
Y-2095090D03*
X565500Y-2624910D03*
X311500D03*
X438500D03*
Y-2095090D03*
X311500D03*
X2120500Y1415090D03*
X1993500Y1944910D03*
X1866500D03*
X1739500D03*
Y1415090D03*
X1866500D03*
X1993500D03*
X3485500Y-2624910D03*
X3104500D03*
X3231500D03*
X3358500D03*
Y-2095090D03*
X3231500D03*
X3104500D03*
X5674500Y-2624910D03*
X5801500D03*
X5928500D03*
Y-2095090D03*
X5801500D03*
X5674500D03*
X6055500Y-2624910D03*
G54D34*
X2570000Y1636500D03*
Y1783500D03*
G54D16*
X-130000Y-2593700D03*
Y-2166300D03*
G54D25*
X1754750Y-692050D03*
X1944740D03*
X3994640Y539070D03*
X4184630D03*
X5164750Y-1822050D03*
X5354740D03*
X7314750Y-792050D03*
X7504740D03*
G54D17*
X770000Y-2563760D03*
Y-2216240D03*
X3690000Y-2563760D03*
Y-2216240D03*
X6260000Y-2563760D03*
Y-2216240D03*
G54D35*
X2770000Y3250000D03*
Y3021400D03*
Y2792800D03*
G54D26*
X1849750Y-895250D03*
X1754750D03*
X1944740D03*
X4089640Y335870D03*
X3994640D03*
X4184630D03*
X5164750Y-2025250D03*
X5259750D03*
X5354740D03*
X7409750Y-995250D03*
X7314750D03*
X7504740D03*
G54D36*
X3618880Y3560000D03*
X3761120D03*
G54D27*
X2044610Y1000000D03*
X2335390D03*
X2144610Y1200000D03*
X2435390D03*
G54D18*
X565500Y-2095090D03*
X2120500Y1944910D03*
X3485500Y-2095090D03*
X6055500D03*
G54D37*
X4465000Y-1730280D03*
Y-2329720D03*
G54D28*
X1930000Y1680000D03*
G54D19*
X727030Y4070000D03*
Y3860000D03*
X1227030Y413150D03*
Y-89960D03*
Y84410D03*
Y248780D03*
Y751890D03*
Y926260D03*
Y1145000D03*
Y577520D03*
Y2440000D03*
G54D29*
X2350000Y2280000D03*
X2810000D03*
G54D38*
X6305000Y-1547030D03*
G54D39*
Y-1433460D03*
M02*
