G04 ================== begin FILE IDENTIFICATION RECORD ==================*
G04 Layout Name:  X-NUCLEO-IHM08M1_ver1_3.brd*
G04 Film Name:    X-NUCLEO-IHM08M1-TOP*
G04 File Format:  Gerber RS274X*
G04 File Origin:  Cadence Allegro 16.6-2015-S056*
G04 Origin Date:  Mon Sep 21 16:10:31 2015*
G04 *
G04 Layer:  ETCH/TOP*
G04 Layer:  PIN/TOP*
G04 Layer:  VIA CLASS/TOP*
G04 *
G04 Offset:    (0.0000 0.0000)*
G04 Mirror:    No*
G04 Mode:      Positive*
G04 Rotation:  0*
G04 FullContactRelief:  No*
G04 UndefLineWidth:     0.0000*
G04 ================== end FILE IDENTIFICATION RECORD ====================*
%FSLAX35Y35*MOMM*%
%IR0*IPPOS*OFA0.00000B0.00000*MIA0B0*SFA1.00000B1.00000*%
%ADD42O,.4064X1.651*%
%ADD36R,.635X1.27*%
%ADD41R,.4064X1.651*%
%AMMACRO29*
4,1,5,-.62,.46,
.62,.46,
.16,0.0,
.62,-.46,
-.62,-.46,
-.62,.46,
0.0*
%
%ADD29MACRO29*%
%ADD22O,.635X1.7018*%
%AMMACRO28*
4,1,5,.62,.46,
-.16,.46,
-.62,0.0,
-.16,-.46,
.62,-.46,
.62,.46,
0.0*
%
%ADD28MACRO28*%
%ADD35R,.8636X1.016*%
%ADD27R,.635X1.7018*%
%ADD17C,.8128*%
%ADD13R,1.397X.508*%
%ADD40R,.6096X.6096*%
%ADD46C,2.032*%
%ADD37R,1.0922X1.6002*%
%ADD10C,3.2004*%
%AMMACRO50*
4,1,5,.46,.62,
.46,-.62,
0.0,-.16,
-.46,-.62,
-.46,.62,
.46,.62,
0.0*
%
%ADD50MACRO50*%
%AMMACRO31*
4,1,5,.62,-.46,
-.62,-.46,
-.16,0.0,
-.62,.46,
.62,.46,
.62,-.46,
0.0*
%
%ADD31MACRO31*%
%ADD18C,1.651*%
%AMMACRO49*
4,1,5,.46,-.62,
.46,.16,
0.0,.62,
-.46,.16,
-.46,-.62,
.46,-.62,
0.0*
%
%ADD49MACRO49*%
%AMMACRO30*
4,1,5,-.62,-.46,
.16,-.46,
.62,0.0,
.16,.46,
-.62,.46,
-.62,-.46,
0.0*
%
%ADD30MACRO30*%
%ADD45R,2.2352X1.2192*%
%ADD11C,1.1176*%
%ADD23R,2.286X1.524*%
%ADD33R,1.9304X3.048*%
%ADD48R,3.048X1.9304*%
%ADD16R,1.651X1.651*%
%ADD32R,3.048X3.048*%
%ADD14C,2.794*%
%ADD24C,1.778*%
%ADD39R,2.9972X1.016*%
%ADD26R,.7112X.9652*%
%ADD43R,.9652X.7112*%
%ADD44R,2.1844X1.1684*%
%ADD38R,3.5052X2.5908*%
%ADD15R,2.794X2.794*%
%ADD12R,1.1938X1.1938*%
%ADD25R,1.778X1.778*%
%ADD47R,.8128X.9652*%
%ADD19R,.7874X.9144*%
%ADD20R,.9144X.7874*%
%ADD34R,.5588X.6096*%
%ADD21R,.6096X.5588*%
%ADD51C,.3*%
%ADD52C,.4*%
%ADD53C,.5*%
%ADD54C,.25*%
%ADD55C,.8*%
%ADD56C,1.*%
%ADD60R,2.306X2.306*%
%ADD58C,2.306*%
%ADD59C,2.0724*%
%ADD64C,2.3264*%
%ADD62C,2.179*%
%ADD57C,5.267*%
%ADD61C,1.9454*%
%ADD63R,1.7482X1.7482*%
G75*
%LPD*%
G75*
G36*
G01X-1490000Y-5580000D02*
X-1580000Y-5490000D01*
Y-1190000D01*
X-1550000Y-1160000D01*
X-1380000D01*
X-1360000Y-1140000D01*
Y-1100000D01*
X-1250000Y-990000D01*
X560000D01*
X1200000Y-350000D01*
Y-230000D01*
X1220000Y-210000D01*
X1450000D01*
X1730000Y70000D01*
Y980000D01*
X1610000Y1100000D01*
Y1200000D01*
X1450000Y1360000D01*
X1100000D01*
X1070000Y1390000D01*
Y1730000D01*
X1110000Y1770000D01*
X1230000D01*
X1270000Y1730000D01*
Y1540000D01*
X1310000Y1500000D01*
X1760000D01*
X1770000Y1490000D01*
Y1160000D01*
X1800000Y1130000D01*
X1930000D01*
X1960000Y1160000D01*
Y1470000D01*
X1970000Y1480000D01*
X2020000D01*
Y1340000D01*
X2080000Y1280000D01*
X2200000D01*
Y1110000D01*
X2160000Y1070000D01*
Y940000D01*
X2140000Y920000D01*
X2070000D01*
X1980000Y830000D01*
Y50000D01*
X1380000Y-550000D01*
Y-720000D01*
X650000Y-1450000D01*
X170000D01*
X-165000Y-1785000D01*
X-295000D01*
X-360000Y-1850000D01*
Y-2430000D01*
X-320000Y-2470000D01*
X-10000D01*
Y-2670000D01*
X-290000D01*
Y-4560000D01*
X1695000D01*
Y-3160000D01*
X1740000Y-3115000D01*
Y-2905000D01*
X1765000Y-2880000D01*
X2705000D01*
Y-4560000D01*
X4675000D01*
Y-2950000D01*
X4745000Y-2880000D01*
X5695000D01*
Y-5580000D01*
X-1490000D01*
G37*
G36*
G01X-780000Y-840000D02*
X-830000Y-790000D01*
Y-360000D01*
X-790000Y-320000D01*
X-300000D01*
Y4730000D01*
X1110000D01*
Y3795060D01*
G02X1072440Y3779510I-22000J3D01*
G01X1015020Y3836930D01*
Y4198170D01*
X868170Y4345020D01*
X827940D01*
Y4365400D01*
X511570D01*
Y4345020D01*
X443070D01*
X406710Y4308670D01*
G02X369180Y4323230I-15554J15556D01*
G03X274220Y4204490I-115180J-5228D01*
G01X279870Y4205490D01*
X291710Y4193660D01*
X275460Y4177420D01*
X270030Y4178180D01*
G03X368180Y4080030I-16030J-114180D01*
G01X367420Y4085460D01*
X492790Y4210840D01*
G02X511570Y4203060I7780J-7777D01*
G01Y4194600D01*
X827940D01*
X832710Y4196580D01*
X884980Y4144310D01*
Y3895420D01*
G02X847420Y3879870I-22000J3D01*
G01X829770Y3897520D01*
X828430D01*
Y3945400D01*
X764550D01*
Y3984600D01*
X828430D01*
Y4155400D01*
X512060D01*
Y4107520D01*
X499460D01*
X452480Y4060540D01*
Y3845540D01*
X406750Y3799810D01*
G02X369210Y3814510I-15556J15557D01*
G03X343420Y3737210I-115211J-4514D01*
G02X382480Y3723320I17061J-13889D01*
G01Y3642680D01*
G02X343420Y3628790I-21999J-1D01*
G03Y3483210I-89420J-72790D01*
G02X382480Y3469320I17061J-13889D01*
G01Y3388680D01*
G02X343420Y3374790I-21999J-1D01*
G03Y3229210I-89420J-72790D01*
G02X382480Y3215320I17061J-13889D01*
G01Y3134680D01*
G02X343420Y3120790I-21999J-1D01*
G03Y2975210I-89420J-72790D01*
G02X382480Y2961320I17061J-13889D01*
G01Y2880680D01*
G02X343420Y2866790I-21999J-1D01*
G03Y2721210I-89420J-72790D01*
G02X382480Y2707320I17061J-13889D01*
G01Y2626680D01*
G02X343420Y2612790I-21999J-1D01*
G03Y2467210I-89420J-72790D01*
G02X382480Y2453320I17061J-13889D01*
G01Y1864680D01*
G02X343420Y1850790I-21999J-1D01*
G03Y1705210I-89420J-72790D01*
G02X382480Y1691320I17061J-13889D01*
G01Y1610680D01*
G02X343420Y1596790I-21999J-1D01*
G03Y1451210I-89420J-72790D01*
G02X382480Y1437320I17061J-13889D01*
G01Y1356680D01*
G02X343420Y1342790I-21999J-1D01*
G03Y1197210I-89420J-72790D01*
G02X382480Y1183320I17061J-13889D01*
G01Y1102680D01*
G02X343420Y1088790I-21999J-1D01*
G03Y943210I-89420J-72790D01*
G02X382480Y929320I17061J-13889D01*
G01Y848680D01*
G02X343420Y834790I-21999J-1D01*
G03Y689210I-89420J-72790D01*
G02X382480Y675320I17061J-13889D01*
G01Y594680D01*
G02X343420Y580790I-21999J-1D01*
G03Y435210I-89420J-72790D01*
G02X382480Y421320I17061J-13889D01*
G01Y340680D01*
G02X343420Y326790I-21999J-1D01*
G03X153020Y198360I-89412J-72795D01*
G02X133750Y165740I-19270J-10618D01*
G01X112680D01*
X62240Y115300D01*
X0D01*
G03X115300Y0I0J-115300D01*
G01Y62240D01*
X143760Y90700D01*
X167020D01*
Y75790D01*
X164560Y72760D01*
G03X337610Y79390I89440J-72761D01*
G01X330230Y87170D01*
X457520Y214460D01*
Y960310D01*
G02X495080Y975860I22000J-3D01*
G01X658200Y812740D01*
X655410Y805950D01*
G03X844510Y681470I106594J-43943D01*
G01X844560Y681520D01*
X887540Y724480D01*
X1000610D01*
X1010720Y714370D01*
X1012060D01*
Y615040D01*
X934460D01*
X876240Y556820D01*
X844560Y588480D01*
X844510Y588530D01*
G03Y427470I-82510J-80530D01*
G01X844560Y427520D01*
X887540Y470480D01*
X898860D01*
G02X906640Y451700I3J-11000D01*
G01X824240Y369300D01*
X762000D01*
G03X877300Y254000I0J-115300D01*
G01Y316240D01*
X936690Y375630D01*
X1012060D01*
Y286300D01*
X995240D01*
X824240Y115300D01*
X762000D01*
G03X877300Y0I0J-115300D01*
G01Y17940D01*
G02X915330Y33010I22000J2D01*
G03X985510Y10990I54672J51400D01*
G02X1010650Y-2780I4552J-21524D01*
G02X985510Y-16540I-20586J7765D01*
G03Y-163380I-15510J-73420D01*
G02X1009880Y-175360I4549J-21523D01*
G01X1166220D01*
Y-342200D01*
X1160880Y-347540D01*
G02X1142100Y-339770I-7781J7775D01*
G01Y-202590D01*
X967280D01*
Y-377410D01*
X989480D01*
G02X1005030Y-414970I-2J-22000D01*
G01X580000Y-840000D01*
X-780000D01*
G37*
G36*
G01X-206270Y-3873750D02*
X-36270D01*
X-6270Y-3843750D01*
Y-3703750D01*
X3730Y-3693750D01*
X73730D01*
X103730Y-3663750D01*
Y-2883750D01*
X858750D01*
X971450Y-2996450D01*
Y-4503750D01*
X-206270D01*
Y-3873750D01*
G37*
G36*
G01X-260000Y-1870000D02*
X-40000D01*
X30000Y-1940000D01*
Y-2340000D01*
X10000Y-2360000D01*
X-270000D01*
X-290000Y-2340000D01*
Y-1900000D01*
X-260000Y-1870000D01*
G37*
G36*
G01X76400Y88900D02*
X0D01*
X-2210Y-2210D01*
X88900Y0D01*
Y76400D01*
G03X76400Y88900I-12500J0D01*
G37*
G36*
G01X838400D02*
X762000D01*
X759790Y-2210D01*
X850900Y0D01*
Y76400D01*
G03X838400Y88900I-12500J0D01*
G37*
G36*
G01Y342900D02*
X762000D01*
X759790Y251790D01*
X850900Y254000D01*
Y330400D01*
G03X838400Y342900I-12500J0D01*
G37*
G36*
G01X878890Y516840D02*
X824860Y570850D01*
X758880Y508000D01*
X824860Y445150D01*
X878890Y499160D01*
G03Y516840I-8840J8840D01*
G37*
G36*
G01Y1024840D02*
X824860Y1078850D01*
X758880Y1016000D01*
X824860Y953150D01*
X878890Y1007160D01*
G03Y1024840I-8840J8840D01*
G37*
G36*
G01Y770840D02*
X824860Y824850D01*
X758880Y762000D01*
X824860Y699150D01*
X878890Y753160D01*
G03Y770840I-8840J8840D01*
G37*
G36*
G01X887540Y799520D02*
X844560Y842480D01*
X844510Y842530D01*
G03X718050Y868590I-82511J-80532D01*
G01X711260Y865800D01*
X521250Y1055810D01*
Y2759540D01*
G02X558810Y2775100I22001J6D01*
G01X614930Y2718980D01*
X674440D01*
G03X762000Y2678700I87560J75028D01*
G01X813630D01*
X846530Y2645800D01*
X832440Y2631720D01*
X824960Y2636590D01*
G03X875520Y2560190I-62958J-96594D01*
G02X912730Y2579600I21659J3850D01*
G01X944980Y2547350D01*
Y1317770D01*
X1007770Y1254980D01*
X1019720D01*
Y1230400D01*
X1012060D01*
X999230Y1225090D01*
X935120Y1289200D01*
X934440Y1290310D01*
G03X931000Y1295090I-33208J-20271D01*
G01X877300Y1348950D01*
Y1385300D01*
X646700D01*
Y1154700D01*
X877300D01*
Y1191050D01*
X902190Y1216010D01*
X1010720Y1107480D01*
X1012060D01*
Y1059600D01*
X1189510D01*
Y1041590D01*
X1200660Y1030440D01*
G02X1192880Y1011660I-7777J-7780D01*
G01X1011920D01*
G02X974500Y998560I-21862J2453D01*
G01X919540Y1053520D01*
X887540D01*
X844560Y1096480D01*
X844510Y1096530D01*
G03Y935470I-82510J-80530D01*
G01X844560Y935520D01*
X888000Y978940D01*
X978200Y888740D01*
X1012060D01*
Y799520D01*
X887540D01*
G37*
G36*
G01X911310Y1277440D02*
X850900Y1338040D01*
X758880Y1270000D01*
X850900Y1201960D01*
X911310Y1262560D01*
G03Y1277440I-10050J7440D01*
G37*
G36*
G01X850900Y2725100D02*
Y2794000D01*
X758460Y2797540D01*
X762000Y2705100D01*
X830900D01*
G03X850900Y2725100I0J20000D01*
G37*
G36*
G01X1322180Y1529400D02*
X1299400Y1552180D01*
Y1742180D01*
X1274430Y1767140D01*
G02X1285300Y1804190I15558J15555D01*
G01Y2035300D01*
X1035020D01*
Y2354600D01*
X1328430D01*
Y2367460D01*
X1340760D01*
X1342060Y2367140D01*
G03Y2512860I17940J72860D01*
G01X1340760Y2512540D01*
X1328430D01*
Y2525400D01*
X1209680D01*
G02X1187860Y2550260I-5J22001D01*
G03X1052360Y2603560I-74403J9736D01*
G02X1018890Y2600780I-17911J12774D01*
G01X877300Y2742370D01*
Y2794000D01*
G03X683090Y2878070I-115301J0D01*
G01X675320Y2870770D01*
X655020Y2891070D01*
Y2940160D01*
G02X690640Y2957440I22001J1D01*
G03Y3138560I71360J90560D01*
G02X655020Y3155840I-13619J17279D01*
G01Y3170930D01*
X693170Y3209080D01*
X700600Y3204410D01*
G03X674440Y3377020I61399J97593D01*
G01X648930D01*
X558810Y3286900D01*
G02X521250Y3302460I-15559J15554D01*
G01Y3730730D01*
X565120Y3774600D01*
X822480D01*
Y3764460D01*
X1051080Y3535860D01*
G02X1048370Y3502440I-15553J-15559D01*
G03X1200440Y3477630I63630J-88440D01*
G02X1218290Y3512480I17856J12851D01*
G01X1518770D01*
G02X1536620Y3477630I-6J-21999D01*
G03X1713500I88440J-63630D01*
G02X1731350Y3512480I17856J12851D01*
G01X1884460D01*
X2090480Y3306460D01*
Y3276560D01*
X2051970Y3238030D01*
X2051920Y3237980D01*
G03X2222660Y3106060I76078J-77986D01*
G02X2257330Y3110720I19113J-10896D01*
G01X2338380Y3029670D01*
X2400910D01*
Y2995600D01*
X2426560D01*
Y2849400D01*
X2247820D01*
X2170600Y2772180D01*
Y2370200D01*
X2145120D01*
Y2398770D01*
X2105020D01*
Y2403220D01*
X2053220Y2455020D01*
X1746350D01*
X1690100Y2398770D01*
X1504880D01*
Y2081230D01*
X1694480D01*
Y2053350D01*
G03X1668350Y1998250I45029J-55100D01*
G01Y1891570D01*
G03X1719160Y1823390I71149J0D01*
G01X1727020Y1821040D01*
Y1538960D01*
X1719160Y1536610D01*
G03X1705190Y1530760I20341J-68180D01*
G01X1702720Y1529400D01*
X1322180D01*
G37*
G36*
G01X1635000Y-4500000D02*
Y-3150000D01*
X1660000Y-3125000D01*
Y-2350000D01*
X1060000D01*
X1030000Y-2380000D01*
Y-2790000D01*
X1090000Y-2850000D01*
X1290000D01*
X1320000Y-2880000D01*
Y-3785000D01*
X1225000Y-3880000D01*
X1055000D01*
Y-4500000D01*
X1635000D01*
G37*
G36*
G01X1660000Y-2270000D02*
X1055000D01*
Y-1535000D01*
X1300000Y-1290000D01*
X1640000D01*
X1670000Y-1320000D01*
Y-1490000D01*
X1660000D01*
Y-2270000D01*
G37*
G36*
G01X1402180Y-145320D02*
G03X1348600Y-25220I-59810J45319D01*
G02X1328430Y-3300I1830J21924D01*
G01Y33430D01*
G02X1352600Y55330I22001J6D01*
G03X1382600Y58450I7396J74671D01*
G02X1409940Y44880I6625J-20979D01*
G01X1568770D01*
Y56560D01*
X1621870D01*
G02X1637430Y19000I4J-22002D01*
G01X1437820Y-180600D01*
X1419720D01*
G02X1402180Y-145320I-2J21999D01*
G37*
G36*
G01X1568770Y353440D02*
Y365120D01*
X1541290D01*
G02X1525740Y402680I3J22000D01*
G01X1570960Y447900D01*
Y457120D01*
G02X1581710Y468120I11000J3D01*
G03X1506260Y529240I-1709J75020D01*
G01X1507330Y523540D01*
X1495920Y512120D01*
Y478980D01*
X1450500Y433560D01*
G02X1413950Y442510I-15563J15552D01*
G03X1386210Y480900I-71583J-22508D01*
G02Y516620I12848J17860D01*
G03X1339810Y652520I-43840J60903D01*
G02X1328430Y663510I-381J10992D01*
G01Y679350D01*
X1340760D01*
X1342060Y679030D01*
G03X1382600Y680340I17937J72862D01*
G02X1410530Y664880I6631J-20980D01*
G01X1568770D01*
Y676560D01*
X1700600D01*
Y353440D01*
X1568770D01*
G37*
G36*
G01Y993440D02*
Y1005120D01*
X1535020D01*
Y1064880D01*
X1603540D01*
X1637430Y1031000D01*
G02X1621870Y993440I-15556J-15558D01*
G01X1568770D01*
G37*
G36*
G01X2220000Y1540000D02*
X1370000D01*
X1330000Y1580000D01*
Y2080000D01*
X1650000D01*
X1660000Y2070000D01*
Y1830000D01*
X1670000Y1820000D01*
X2220000D01*
Y1540000D01*
G37*
G36*
G01X1735000Y-2800000D02*
Y-2010000D01*
X2565000D01*
Y-2800000D01*
X1735000D01*
G37*
G36*
G01X2135000Y-1950000D02*
X2720000D01*
X2750000Y-1920000D01*
Y-1390000D01*
Y-1340000D01*
X2700000Y-1290000D01*
X2010000D01*
X1980000Y-1320000D01*
Y-1390000D01*
Y-1795000D01*
X2027500Y-1842500D01*
Y-1917500D01*
X2060000Y-1950000D01*
X2135000D01*
G37*
G36*
G01X2015890Y-832910D02*
Y-782250D01*
X2027320D01*
Y-757090D01*
X2138480D01*
G02X2157240Y-790580I-2J-22001D01*
G03X2146500Y-822920I63986J-39203D01*
G01X2145590Y-832910D01*
X2015890D01*
G37*
G36*
G01X2183440Y-734020D02*
Y-608770D01*
X2195120D01*
Y-451230D01*
X2038770D01*
Y-444880D01*
X2033910D01*
Y-432990D01*
X2034060Y-432110D01*
G03X1905670Y-368240I-74057J12110D01*
G02X1869390Y-361440I-15934J15171D01*
G03X1832300Y-322270I-69391J-28561D01*
G02X1826210Y-286850I9465J19861D01*
G01X2160290Y47230D01*
G02X2194930Y42630I15560J-15554D01*
G03X2222480Y15010I65077J37362D01*
G01Y-754100D01*
X2212730Y-755210D01*
G03X2209020Y-755730I8558J-74551D01*
G02X2183440Y-734020I-3580J21706D01*
G37*
G36*
G01X2394980Y-238740D02*
G02X2365500Y-259430I-22001J1D01*
G03X2324160Y-256650I-25509J-70570D01*
G02X2297520Y-235150I-4641J21504D01*
G01Y15010D01*
G03X2213230Y138680I-37521J64986D01*
G02X2177520Y155890I-13710J17206D01*
G01Y734820D01*
X2188210Y745510D01*
Y790870D01*
G03X2189400Y920140I-37520J64986D01*
G01Y1057820D01*
X2212170Y1080590D01*
X2238620D01*
Y1290600D01*
X2482180D01*
X2630220Y1438650D01*
G02X2667780Y1423090I15558J-15556D01*
G01Y1366720D01*
X2819740D01*
Y1493280D01*
X2737970D01*
G02X2719400Y1527080I-1J22000D01*
G01Y1882180D01*
X2589400Y2012180D01*
Y2397820D01*
X2592180Y2400600D01*
X2909400D01*
Y2692440D01*
X2935610D01*
X2984980Y2643070D01*
Y1296920D01*
X2374980Y686920D01*
Y-186920D01*
X2394980Y-206920D01*
Y-238740D01*
G37*
G36*
G01X2270000Y920000D02*
X2590000D01*
X2960000Y1290000D01*
Y2330000D01*
X2950000Y2340000D01*
X2660000D01*
X2630000Y2310000D01*
Y2020000D01*
X2740000Y1910000D01*
Y1550000D01*
X2470000Y1280000D01*
X2380000D01*
Y1210000D01*
X2270000Y1100000D01*
Y920000D01*
G37*
G36*
G01X2090000Y1330000D02*
Y1470000D01*
X2110000Y1490000D01*
X2220000D01*
X2260000Y1530000D01*
Y1660000D01*
X2290000Y1690000D01*
X2690000D01*
Y1540000D01*
X2470000Y1320000D01*
X2100000D01*
X2090000Y1330000D01*
G37*
G36*
G01X2170140Y1519400D02*
G03X2140840Y1536610I-49642J-50969D01*
G01X2132980Y1538960D01*
Y1820420D01*
X2191650D01*
Y1899890D01*
X2218510D01*
X2234880Y1883520D01*
Y1676460D01*
X2230600Y1672180D01*
Y1542180D01*
X2207820Y1519400D01*
X2170140D01*
G37*
G36*
G01X2880000Y2840000D02*
Y2430000D01*
X2580000D01*
X2560000Y2410000D01*
Y2000000D01*
X2690000Y1870000D01*
Y1730000D01*
X2420000D01*
Y1900000D01*
X2200000Y2120000D01*
Y2760000D01*
X2260000Y2820000D01*
X2620000D01*
X2660000Y2860000D01*
X2860000D01*
X2880000Y2840000D01*
G37*
G36*
G01X2119160Y3267910D02*
X2069640Y3218370D01*
X2128000Y3156880D01*
X2186360Y3218370D01*
X2136840Y3267910D01*
G03X2119160I-8840J-8840D01*
G37*
G36*
G01X2639820Y3121760D02*
X2619040Y3142540D01*
G02X2616300Y3147100I7777J7776D01*
G02X2611740Y3149840I3216J10517D01*
G01X2599090Y3162490D01*
Y3193780D01*
X2400910D01*
Y3177600D01*
G02X2382130Y3169820I-11000J-3D01*
G01X2375020Y3176930D01*
Y3316930D01*
X2039510Y3652440D01*
G02X2055060Y3690000I15553J15560D01*
G01X2921870D01*
G02X2929640Y3671220I-5J-10999D01*
G01X2920600Y3662180D01*
Y3338680D01*
X2630520D01*
Y3161320D01*
X2883190D01*
G02X2890960Y3142540I-5J-10999D01*
G01X2870180Y3121760D01*
X2639820D01*
G37*
G36*
G01X2785000Y-3870000D02*
X2955000D01*
X2985000Y-3840000D01*
Y-3700000D01*
X2995000Y-3690000D01*
X3065000D01*
X3095000Y-3660000D01*
Y-2880000D01*
X3795000D01*
X3962720Y-3047720D01*
Y-4500000D01*
X2785000D01*
Y-3870000D01*
G37*
G36*
G01X2640000Y-30000D02*
Y-270000D01*
X2820000D01*
Y-30000D01*
X2640000D01*
G37*
G36*
G01X3874660Y850020D02*
X2979280D01*
X2869870Y740610D01*
Y619890D01*
X2834770D01*
Y591140D01*
X2815750D01*
X2605080Y380460D01*
G02X2567520Y396020I-15558J15557D01*
G01Y504460D01*
X2677520Y614460D01*
Y645010D01*
G03X2681620Y772440I-37519J64988D01*
G02X2678260Y806300I12200J18307D01*
G01X3007140Y1135180D01*
G02X3044700Y1119630I15560J-15553D01*
G01Y954700D01*
X3275300D01*
Y1168920D01*
X3225640Y1224900D01*
X3230020Y1229280D01*
Y1501230D01*
X3429980D01*
Y1350720D01*
X3363980Y1284720D01*
Y1183040D01*
X3333840Y1152880D01*
X3333780Y1152820D01*
G03X3494220I80220J-82820D01*
G01X3494160Y1152880D01*
X3464020Y1183040D01*
Y1243280D01*
X3530020Y1309280D01*
Y1501230D01*
X3729980D01*
Y1370720D01*
X3617980Y1258720D01*
Y1183040D01*
X3587840Y1152880D01*
X3587780Y1152820D01*
G03X3748220I80220J-82820D01*
G01X3748160Y1152880D01*
X3718020Y1183040D01*
Y1217280D01*
X3830020Y1329280D01*
Y1379110D01*
G02X3859730Y1399720I22001J4D01*
G03X3880770Y1395140I26316J70274D01*
G02X3901230Y1373200I-1538J-21945D01*
G01Y1284760D01*
X3856980Y1240510D01*
Y1165220D01*
G03X3991400Y1162080I65022J-95219D01*
G01X3987020Y1165380D01*
Y1186650D01*
X4045020Y1244650D01*
Y1284880D01*
X4058770D01*
Y1296560D01*
X4207090D01*
Y1398010D01*
G02X4236100Y1418870I22000J6D01*
G03X4289370Y1420950I23898J71131D01*
G02X4319980Y1400700I8609J-20246D01*
G01Y960720D01*
X4259280Y900020D01*
X4047130D01*
X3959870Y812760D01*
Y806240D01*
X3918440D01*
X3874660Y850020D01*
G37*
G36*
G01X3367420Y-304000D02*
G03X3336360Y-294400I-32499J-50103D01*
G02X3314900Y-272400I540J21994D01*
G01Y-271230D01*
X3097530Y-53860D01*
X2985010D01*
Y-20110D01*
X2973330D01*
Y128210D01*
X2807300D01*
Y203840D01*
X2650020D01*
Y283930D01*
X2797210Y431130D01*
G02X2834770Y415570I15558J-15557D01*
G01Y302350D01*
X3018850D01*
G02X3033910Y264320I-5J-21999D01*
G03X3015090Y220800I40909J-43520D01*
G01Y96340D01*
G03X3107320Y46240I59722J0D01*
G03X3172340Y46250I32502J50100D01*
G03X3247050Y54070I32521J50090D01*
G03X3292720Y54080I22826J42270D01*
G03X3367420Y46240I42197J42260D01*
G03X3432440I32510J50100D01*
G03X3524670Y96340I32508J50100D01*
G01Y183980D01*
G02X3535880Y194970I10999J-7D01*
G03X3539850Y195000I1418J75029D01*
G02X3551230Y184010I381J-10992D01*
G01Y161240D01*
X3551120D01*
Y-159000D01*
X3554770D01*
Y-181360D01*
X3539110D01*
X3422170Y-298300D01*
X3415980Y-296580D01*
G03X3367420Y-304000I-16058J-57521D01*
G37*
G36*
G01X2650020Y4900D02*
Y29020D01*
X2826450D01*
Y4900D01*
X2650020D01*
G37*
G36*
G01X3005010Y608210D02*
Y619890D01*
X2969910D01*
Y699170D01*
X3020720Y749980D01*
X3833220D01*
X3861060Y722140D01*
X3848580Y709660D01*
X3842230Y711640D01*
G03X3744860Y641460I-22342J-71639D01*
G02X3722870Y619890I-21994J428D01*
G01X3514970D01*
G02X3493070Y643980I1J22001D01*
G03X3379600Y688400I-63073J6020D01*
G02X3343490Y690000I-17500J13331D01*
G03X3205220Y643780I-63489J-40001D01*
G01X3205640Y638700D01*
X3186830Y619890D01*
X3134770D01*
Y608210D01*
X3005010D01*
G37*
G36*
G01X2440000Y3150000D02*
X2570000D01*
X2630000Y3090000D01*
X2880000D01*
X2950000Y3160000D01*
Y3650000D01*
X2970000Y3670000D01*
X3390000D01*
X3400000Y3660000D01*
Y3510000D01*
X3440000Y3470000D01*
X3810000D01*
X4090000Y3190000D01*
Y2850000D01*
X3840000D01*
X3640000D01*
X3620000Y2830000D01*
Y2590000D01*
X3610000Y2580000D01*
X3140000D01*
X3130000Y2590000D01*
Y2730000D01*
X2940000Y2920000D01*
X2650000D01*
X2540000Y3030000D01*
X2440000D01*
Y3150000D01*
G37*
G36*
G01X3145470Y1242740D02*
X3071100Y1158900D01*
X3160000Y1063750D01*
X3248900Y1158900D01*
X3174530Y1242740D01*
G03X3145470I-14530J-20340D01*
G37*
G36*
G01X3396320Y1178050D02*
X3351150Y1132850D01*
X3414000Y1063750D01*
X3476850Y1132850D01*
X3431680Y1178050D01*
G03X3396320I-17680J-17680D01*
G37*
G36*
G01X3650320D02*
X3605150Y1132850D01*
X3668000Y1063750D01*
X3730850Y1132850D01*
X3685680Y1178050D01*
G03X3650320I-17680J-17680D01*
G37*
G36*
G01X3764530Y2537260D02*
X3838900Y2621100D01*
X3750000Y2716250D01*
X3661100Y2621100D01*
X3735470Y2537260D01*
G03X3764530I14530J20340D01*
G37*
G36*
G01X3258770Y2213440D02*
Y2225120D01*
X3257080D01*
Y2310120D01*
X3427040D01*
Y2298060D01*
X3429980Y2295120D01*
Y2225120D01*
X3401230D01*
Y2213440D01*
X3258770D01*
G37*
G36*
G01X3558770D02*
Y2225120D01*
X3530020D01*
Y2310120D01*
X3727040D01*
Y2303600D01*
X3729980Y2300660D01*
Y2225120D01*
X3701230D01*
Y2213440D01*
X3558770D01*
G37*
G36*
G01X6526170Y-890000D02*
G02X6510620Y-852440I3J22000D01*
G01X6567520Y-795540D01*
Y1615380D01*
X6465300Y1717600D01*
Y1778000D01*
G03X6268760Y1859820I-115301J0D01*
G01X6260980Y1852090D01*
X6170090Y1942980D01*
X6177820Y1950760D01*
G03X5980860Y2038150I-81822J81238D01*
G01X5980640Y2033940D01*
X5969880Y2023180D01*
X5947520Y2045540D01*
Y2855540D01*
X5693760Y3109300D01*
X5674980D01*
Y3124210D01*
X5677440Y3127240D01*
G03X5567940Y3313540I-89442J72759D01*
G02X5555030Y3324550I-1911J10833D01*
G03X5554960Y3329150I-75029J1159D01*
G02X5567870Y3340470I10990J488D01*
G03X5688980Y3509640I20126J113528D01*
G02X5708250Y3542260I19270J10618D01*
G01X5724680D01*
X5874460Y3392480D01*
X5977000D01*
G02X5996070Y3359510I-1J-22001D01*
G03X6185610Y3374560I99934J-57510D01*
G01X6183160Y3377590D01*
Y3392480D01*
X6206460D01*
X6234700Y3364240D01*
Y3302000D01*
G03X6350000Y3417300I115300J0D01*
G01X6287760D01*
X6237540Y3467520D01*
X6216130D01*
G02X6196880Y3500170I1J22000D01*
G03X5995120I-100880J55830D01*
G02X5975870Y3467520I-19251J-10650D01*
G01X5905540D01*
X5755760Y3617300D01*
X5706880D01*
G02X5687830Y3650310I-4J22000D01*
G03X5545190Y3815060I-99830J57691D01*
G02X5515030Y3835100I-8165J20427D01*
G03X5513100Y3850740I-75029J-1320D01*
G02X5529400Y3862700I10714J2485D01*
G03X5475930Y3934890I58599J99300D01*
G02X5451250Y3907970I-21384J-5169D01*
G03X5424160Y3907130I-11258J-74190D01*
G02X5397520Y3928630I-4641J21504D01*
G01Y4194460D01*
X5435150Y4232080D01*
G02X5472700Y4216440I15553J-15556D01*
G03X5688980Y4271640I115298J-444D01*
G02X5708250Y4304260I19270J10618D01*
G01X5747320D01*
X5961080Y4518020D01*
X5980700Y4498320D01*
Y4456700D01*
X6211300D01*
Y4687300D01*
X5980700D01*
Y4645680D01*
X5932060Y4596830D01*
G03X5928840Y4592330I29942J-24827D01*
G01X5928160Y4591220D01*
X5716240Y4379300D01*
X5706880D01*
G02X5687830Y4412310I-4J22000D01*
G03X5498560Y4397240I-99828J57691D01*
G02X5490020Y4379300I-8536J-6939D01*
G01X5476240D01*
X5322480Y4225540D01*
Y3650350D01*
X5021570D01*
Y3602510D01*
X4909460D01*
X4612480Y3305530D01*
Y2194990D01*
G03X4602600Y2071830I37520J-64986D01*
G02X4605160Y2057760I-6948J-8532D01*
G03X4632480Y1955010I64842J-37766D01*
G01Y1938620D01*
X4642480Y1928620D01*
Y1733690D01*
G02X4604920Y1718140I-22000J3D01*
G01X4547520Y1775540D01*
Y3175540D01*
X4371520Y3351540D01*
Y3384460D01*
X4414480Y3427440D01*
X4414530Y3427490D01*
G03X4253470I-80530J82510D01*
G01X4253520Y3427440D01*
X4296480Y3384460D01*
Y3373140D01*
G02X4277700Y3365360I-11000J-3D01*
G01X4195300Y3447760D01*
Y3625300D01*
X3964700D01*
Y3491470D01*
G02X3927140Y3475920I-22000J3D01*
G01X3914170Y3488890D01*
Y3525850D01*
X3842500Y3597520D01*
X3841160D01*
Y3647660D01*
X3681080D01*
Y3635980D01*
X3550520D01*
Y3499400D01*
X3452180D01*
X3429400Y3522180D01*
Y3672180D01*
X3425150Y3676420D01*
X3430780Y3690000D01*
X5250000D01*
Y4730000D01*
X6640000D01*
Y-290000D01*
X7940000D01*
Y-645660D01*
G02X7907120Y-664780I-21998J-1D01*
G03X7795140Y-724820I-37118J-65218D01*
G02X7783630Y-735050I-10975J758D01*
G03X7705140Y-804820I-3630J-74951D01*
G02X7693630Y-815050I-10975J758D01*
G03X7615580Y-880410I-3628J-74950D01*
G01X7614340Y-890000D01*
X7587320D01*
Y-715120D01*
X7588770D01*
Y-577040D01*
G02X7610600Y-555040I21999J2D01*
G03X7601080Y-405490I-613J75039D01*
G01X7600430Y-405570D01*
X7588770D01*
Y-394880D01*
X7271230D01*
Y-434980D01*
X7120030D01*
G03Y-525020I-60030J-45020D01*
G01X7214760D01*
G02X7222530Y-543800I-5J-10999D01*
G01X7214980Y-551350D01*
Y-595720D01*
G02X7187770Y-617090I-21998J2D01*
G03X7129980Y-753480I-17776J-72906D01*
G01Y-793810D01*
G02X7092420Y-809360I-22000J3D01*
G01X6913180Y-630120D01*
Y-554020D01*
G03X6821690Y-436890I-37525J64986D01*
G02X6807300Y-438140I-7913J7639D01*
G03X6765800Y-552580I-37299J-51219D01*
G02X6786340Y-574530I-1460J-21951D01*
G01Y-669080D01*
X6969710Y-852440D01*
G02X6954150Y-890000I-15556J-15559D01*
G01X6526170D01*
G37*
G36*
G01X4625000Y-4500000D02*
Y-2910000D01*
X4725000Y-2810000D01*
X4790000D01*
X4855000Y-2745000D01*
Y-2270000D01*
X4795000Y-2210000D01*
X4125000D01*
X4065000Y-2270000D01*
Y-2755000D01*
X4120000Y-2810000D01*
X4215000D01*
X4290000Y-2885000D01*
Y-3805000D01*
X4215000Y-3880000D01*
X4045000D01*
Y-4500000D01*
X4625000D01*
G37*
G36*
G01X4805000Y-1940000D02*
X4845000Y-1900000D01*
Y-1375000D01*
X4680000Y-1210000D01*
X4030000D01*
X3900000Y-1340000D01*
Y-1900000D01*
X3940000Y-1940000D01*
X4805000D01*
G37*
G36*
G01X4177590Y-571130D02*
X4251070Y-497770D01*
X4169890Y-405760D01*
X4088710Y-497770D01*
X4162190Y-571130D01*
G03X4177590I7700J9850D01*
G37*
G36*
G01X4572480Y135540D02*
Y-634460D01*
X4316940Y-890000D01*
X3868660D01*
Y-866400D01*
X4046660D01*
X4207410Y-705650D01*
Y-578660D01*
X4261980Y-524180D01*
X4285190D01*
Y-293580D01*
X4054590D01*
Y-524180D01*
X4077800D01*
X4132370Y-578660D01*
Y-674570D01*
X4015580Y-791360D01*
X3868660D01*
Y-762600D01*
X3880990D01*
X3882270Y-762910D01*
G03X3954080Y-637980I17727J72914D01*
G01X3952650Y-636490D01*
X3949400Y-628730D01*
X3951560Y-622220D01*
X3952500Y-620890D01*
G03X3884590Y-523070I-51757J36551D01*
G02X3856980Y-501800I-5611J21271D01*
G01Y-457650D01*
X3875010D01*
Y-256400D01*
X3886350D01*
X3976350Y-166400D01*
X4000120D01*
X4054590Y-220970D01*
Y-244180D01*
X4285190D01*
Y-62440D01*
X4298770Y-56820D01*
X4308590Y-66640D01*
Y-128880D01*
G03X4423890Y-13580I115300J0D01*
G01X4361650D01*
X4290550Y57520D01*
X3965540D01*
X3909420Y113640D01*
X3868660D01*
Y144880D01*
X3868770D01*
Y191140D01*
X3910600Y232970D01*
X3982800D01*
Y97680D01*
X4131120D01*
Y86000D01*
X4288660D01*
Y112350D01*
X4445010D01*
Y153600D01*
X4476660D01*
X4515060Y192000D01*
X4581590D01*
G02X4592140Y155200I-5149J-21388D01*
G01X4572480Y135540D01*
G37*
G36*
G01X4007650Y-136580D02*
X4081010Y-210070D01*
X4173020Y-128880D01*
X4081010Y-47690D01*
X4007650Y-121180D01*
G03Y-136580I9840J-7700D01*
G37*
G36*
G01X4334990Y-52480D02*
Y-128880D01*
X4426100Y-131090D01*
X4423890Y-39980D01*
X4347490D01*
G03X4334990Y-52480I0J-12500D01*
G37*
G36*
G01X4267210Y429890D02*
Y494030D01*
X4423330D01*
Y642350D01*
X4435010D01*
Y799890D01*
X4429780Y812520D01*
X4444920Y827660D01*
G02X4482480Y812110I15560J-15553D01*
G01Y461390D01*
X4466920Y445830D01*
X4407890D01*
X4391950Y429890D01*
X4267210D01*
G37*
G36*
G01X4240650Y1850760D02*
G03X4203180Y1853990I-24974J-70761D01*
G02X4177520Y1875690I-3659J21695D01*
G01Y2117870D01*
G02X4206430Y2138760I22000J3D01*
G03X4243900Y2136260I23572J71240D01*
G02X4269980Y2114640I4080J-21619D01*
G01Y1871500D01*
G02X4240650Y1850760I-21999J1D01*
G37*
G36*
G01X3858770Y2213440D02*
Y2225120D01*
X3830020D01*
Y2310120D01*
X3999980D01*
Y2213440D01*
X3858770D01*
G37*
G36*
G01X4014610Y2594880D02*
X4066850Y2647140D01*
X4004000Y2713750D01*
X3941150Y2647140D01*
X3993390Y2594880D01*
G03X4014610I10610J10610D01*
G37*
G36*
G01X4342840Y3393110D02*
X4396850Y3447140D01*
X4334000Y3513120D01*
X4271150Y3447140D01*
X4325160Y3393110D01*
G03X4342840I8840J8840D01*
G37*
G36*
G01X4804880Y-77600D02*
X4755700Y-126780D01*
Y-476740D01*
G03X4722910Y-558360I40022J-63475D01*
G02X4716340Y-571220I-10675J-2654D01*
G03X4713180Y-572600I23768J-58733D01*
G01X4710960Y-573630D01*
X4697520D01*
Y-91380D01*
X4744600Y-44300D01*
Y-27910D01*
G03X4708010Y112110I-37520J64986D01*
G02X4692730Y149670I274J22000D01*
G01X4777520Y234460D01*
Y585540D01*
X4717520Y645540D01*
Y759010D01*
G02X4755080Y774560I22000J-3D01*
G01X4830030Y699610D01*
X4822600Y691840D01*
G03X4839340Y575010I54258J-51840D01*
G01Y337600D01*
X4892290Y284650D01*
G02X4876740Y247090I-15553J-15560D01*
G01X4816560D01*
Y98770D01*
X4804880D01*
Y-77600D01*
G37*
G36*
G01X4500900Y218400D02*
X4590000D01*
X4592210Y322210D01*
X4488400Y320000D01*
Y230900D01*
G03X4500900Y218400I12500J0D01*
G37*
G36*
G01X4667210Y422090D02*
G03X4581060Y447690I-77215J-102088D01*
G02X4557520Y469630I-1541J21945D01*
G01Y1005700D01*
G02X4584710Y1027080I22000J1D01*
G03X4616390Y1026270I17715J72920D01*
G02X4642480Y1004660I4091J-21615D01*
G01Y614460D01*
X4702480Y554460D01*
Y439640D01*
G02X4667210Y422090I-22000J-3D01*
G37*
G36*
G01X5268700Y-261800D02*
G02X5237520Y-241810I-9180J19993D01*
G01Y265570D01*
X5197790Y305300D01*
G02X5213340Y342860I15553J15560D01*
G01X5337940D01*
Y389400D01*
X5419020Y470480D01*
X5462460D01*
X5505440Y427520D01*
X5505490Y427470D01*
G03Y588530I82510J80530D01*
G01X5505440Y588480D01*
X5462460Y545520D01*
X5434750D01*
Y559290D01*
X5436070Y561740D01*
G03X5362220Y671960I-66069J35583D01*
G02X5337940Y693840I-2282J21880D01*
G01Y724480D01*
X5462460D01*
X5505440Y681520D01*
X5505490Y681470D01*
G03Y842530I82510J80530D01*
G01X5505440Y842480D01*
X5462460Y799520D01*
X5337940D01*
Y1003040D01*
G02X5359940Y1025040I22000J0D01*
G03X5430810Y1075450I-12J75039D01*
G02X5467150Y1083790I20783J-7217D01*
G01X5472700Y1078240D01*
Y1016000D01*
G03X5588000Y1131300I115300J0D01*
G01X5525760D01*
X5345980Y1311080D01*
X5337940D01*
Y1405100D01*
X5399840D01*
X5472700Y1332240D01*
Y1270000D01*
G03X5588000Y1385300I115300J0D01*
G01X5525760D01*
X5443360Y1467700D01*
G02X5451140Y1486480I7777J7780D01*
G01X5462460D01*
X5505440Y1443520D01*
X5505490Y1443470D01*
G03Y1604530I82510J80530D01*
G01X5505440Y1604480D01*
X5462460Y1561520D01*
X5451540D01*
X5363860Y1649200D01*
X5337940D01*
Y1740480D01*
X5462460D01*
X5505440Y1697520D01*
X5505490Y1697470D01*
G03Y1858530I82510J80530D01*
G01X5505440Y1858480D01*
X5462460Y1815520D01*
X5337940D01*
Y1866140D01*
X5018870D01*
G02X5001400Y1854780I-19298J10565D01*
G03X4952870Y1728690I6229J-74782D01*
G02X4951140Y1696950I-16054J-15042D01*
G03X4924970Y1638670I48858J-56955D01*
G03X4905470Y1635560I1965J-75012D01*
G01X4903930Y1635100D01*
X4891320D01*
Y2008260D01*
X4905040Y2021980D01*
X4915340Y2011680D01*
X4915900Y2008160D01*
G03X5007940Y1947140I74098J11842D01*
G01X5009240Y1947460D01*
X5021570D01*
Y1940730D01*
X5337940D01*
Y1988610D01*
X5445670D01*
X5525760Y2068700D01*
X5703300D01*
Y2210530D01*
G02X5740860Y2226080I22000J-3D01*
G01X5812480Y2154460D01*
Y2014850D01*
G02X5785840Y1993350I-21999J4D01*
G03X5732480Y1855010I-15844J-73350D01*
G01Y1724460D01*
X5762480Y1694460D01*
Y-114460D01*
X5744460Y-132480D01*
X5703300D01*
Y115300D01*
X5472700D01*
Y-115300D01*
X5518530D01*
G02X5534080Y-152860I-3J-22000D01*
G01X5456230Y-230710D01*
Y-244880D01*
X5331230D01*
Y-257370D01*
X5318920D01*
X5317640Y-257060D01*
G03X5268700Y-261800I-17635J-72939D01*
G37*
G36*
G01X4825080Y2458140D02*
G02X4787520Y2473690I-15560J15553D01*
G01Y2535530D01*
X4751270Y2571780D01*
Y2636560D01*
X4881230D01*
Y2624880D01*
X4922480D01*
Y2555540D01*
X4825080Y2458140D01*
G37*
G36*
G01X4751270Y2783440D02*
Y2916050D01*
X4801830Y2966610D01*
X4977940D01*
Y3014490D01*
X4997560D01*
X5002790Y3019720D01*
G02X5021570Y3011940I7780J-7777D01*
G01Y2795120D01*
X4881230D01*
Y2783440D01*
X4751270D01*
G37*
G36*
G01X5925000Y-3870000D02*
X6080270Y-3714730D01*
Y-3030000D01*
X6947990D01*
Y-4678520D01*
X5770270D01*
Y-4048520D01*
Y-3874730D01*
X5775000Y-3870000D01*
X5925000D01*
G37*
G36*
G01X6260970Y-890000D02*
X6259730Y-880410D01*
G03X6256940Y-867640I-74424J-9570D01*
G02X6277940Y-839090I21002J6550D01*
G01X6284400D01*
Y-836080D01*
G02X6309480Y-814300I21999J-3D01*
G03Y-665700I10520J74300D01*
G02X6284400Y-643920I-3081J21783D01*
G01Y-640910D01*
X6280490D01*
G02X6258910Y-614620I-2J22000D01*
G03X6254050Y-569910I-73601J14619D01*
G02X6274210Y-539090I20155J8819D01*
G01X6284400D01*
Y-340910D01*
X6071720D01*
G02X6049730Y-319160I7J21998D01*
G03X5899650I-75040J-840D01*
G02X5877660Y-340910I-21997J248D01*
G01X5875600D01*
Y-402480D01*
X5815120D01*
Y-361230D01*
X5637090D01*
Y-256560D01*
X5589610D01*
G02X5574060Y-219000I3J22000D01*
G01X5585540Y-207520D01*
X5775540D01*
X5837520Y-145540D01*
Y1725540D01*
X5807520Y1755540D01*
Y1776310D01*
G02X5845080Y1791860I22000J-3D01*
G01X6022940Y1614000D01*
X6015130Y1606190D01*
X6015100Y1606160D01*
G03X6187210Y1594530I80896J-82159D01*
G01X6184910Y1597500D01*
Y1612260D01*
X6208680D01*
X6234700Y1586240D01*
Y1524000D01*
G03X6424380Y1435900I115300J0D01*
G01X6427460Y1438500D01*
X6442480D01*
Y1415540D01*
X6412240Y1385300D01*
X6350000D01*
G03X6465300Y1270000I0J-115300D01*
G01Y1332240D01*
X6473700Y1340640D01*
G02X6492480Y1332860I7780J-7777D01*
G01Y-764460D01*
X6366940Y-890000D01*
X6260970D01*
G37*
G36*
G01X5471110Y499160D02*
X5525140Y445150D01*
X5591120Y508000D01*
X5525140Y570850D01*
X5471110Y516840D01*
G03Y499160I8840J-8840D01*
G37*
G36*
G01Y753160D02*
X5525140Y699150D01*
X5591120Y762000D01*
X5525140Y824850D01*
X5471110Y770840D01*
G03Y753160I8840J-8840D01*
G37*
G36*
G01X5499100Y1092400D02*
Y1016000D01*
X5590210Y1013790D01*
X5588000Y1104900D01*
X5511600D01*
G03X5499100Y1092400I0J-12500D01*
G37*
G36*
G01X5471110Y1769160D02*
X5525140Y1715150D01*
X5591120Y1778000D01*
X5525140Y1840850D01*
X5471110Y1786840D01*
G03Y1769160I8840J-8840D01*
G37*
G36*
G01Y1515160D02*
X5525140Y1461150D01*
X5591120Y1524000D01*
X5525140Y1586850D01*
X5471110Y1532840D01*
G03Y1515160I8840J-8840D01*
G37*
G36*
G01X5499100Y1346400D02*
Y1270000D01*
X5590210Y1267790D01*
X5588000Y1358900D01*
X5511600D01*
G03X5499100Y1346400I0J-12500D01*
G37*
G36*
G01X5872480Y2253690D02*
G02X5834920Y2238140I-22000J3D01*
G01X5725760Y2347300D01*
X5706880D01*
G02X5687830Y2380310I-4J22000D01*
G03X5488170I-99830J57690D01*
G02X5469120Y2347300I-19046J-11010D01*
G01X5405770D01*
X5347460Y2405610D01*
X5337940D01*
Y2501550D01*
X5354610D01*
X5467520Y2614460D01*
Y2640030D01*
X5484880D01*
X5488050Y2634510D01*
G03Y2749490I99950J57490D01*
G01X5484880Y2743970D01*
X5467520D01*
Y2772460D01*
X5525760Y2830700D01*
X5588000D01*
G03X5703210Y2941490I0J115298D01*
G02X5740750Y2956190I21984J-857D01*
G01X5872480Y2824460D01*
Y2253690D01*
G37*
G36*
G01X5511600Y3111100D02*
X5588000D01*
X5590210Y3202210D01*
X5499100Y3200000D01*
Y3123600D01*
G03X5511600Y3111100I12500J0D01*
G37*
G36*
G01Y2857100D02*
X5588000D01*
X5590210Y2948210D01*
X5499100Y2946000D01*
Y2869600D01*
G03X5511600Y2857100I12500J0D01*
G37*
G36*
G01X5471110Y3445160D02*
X5525140Y3391150D01*
X5591120Y3454000D01*
X5525140Y3516850D01*
X5471110Y3462840D01*
G03Y3445160I8840J-8840D01*
G37*
G36*
G01X6950000Y-2820000D02*
X6550000D01*
X6490000Y-2760000D01*
Y-2040000D01*
X6520000Y-2010000D01*
X7210000D01*
Y-2630000D01*
X6970000D01*
X6950000Y-2650000D01*
Y-2820000D01*
G37*
G36*
G01X6450000Y-995000D02*
Y-1950000D01*
X7035000D01*
Y-940000D01*
X6505000D01*
X6450000Y-995000D01*
G37*
G36*
G01X6438900Y1701600D02*
Y1778000D01*
X6347790Y1780210D01*
X6350000Y1689100D01*
X6426400D01*
G03X6438900Y1701600I0J12500D01*
G37*
G36*
G01X6261100Y1600400D02*
Y1524000D01*
X6352210Y1521790D01*
X6350000Y1612900D01*
X6273600D01*
G03X6261100Y1600400I0J-12500D01*
G37*
G36*
G01X6426400Y1358900D02*
X6350000D01*
X6347790Y1267790D01*
X6438900Y1270000D01*
Y1346400D01*
G03X6426400Y1358900I-12500J0D01*
G37*
G36*
G01X6261100Y3378400D02*
Y3302000D01*
X6352210Y3299790D01*
X6350000Y3390900D01*
X6273600D01*
G03X6261100Y3378400I0J-12500D01*
G37*
G36*
G01X5951850Y4564710D02*
X6007100Y4509220D01*
X6099120Y4572000D01*
X6007100Y4634780D01*
X5951850Y4579290D01*
G03Y4564710I10150J-7290D01*
G37*
G36*
G01X7645000Y-4680000D02*
Y-2340000D01*
X7290000D01*
Y-2680000D01*
X7020000D01*
X7010000Y-2690000D01*
Y-2860000D01*
X7020000Y-2870000D01*
X7250000D01*
X7270000Y-2890000D01*
Y-3785890D01*
X7179810Y-3876080D01*
X7009810D01*
Y-4680000D01*
X7645000D01*
G37*
G36*
G01X7280000Y-2260000D02*
X7645000D01*
Y-1480000D01*
X7595000Y-1430000D01*
X7280000D01*
Y-2260000D01*
G37*
%LPC*%
G75*
G54D60*
X0Y4572000D03*
X762000Y3556000D03*
G54D58*
X0Y254000D03*
Y508000D03*
Y762000D03*
Y1016000D03*
Y1270000D03*
Y1524000D03*
Y1778000D03*
Y2032000D03*
Y2286000D03*
Y2540000D03*
Y2794000D03*
Y3048000D03*
Y3302000D03*
Y4064000D03*
Y3810000D03*
Y3556000D03*
X254000Y4572000D03*
X0Y4318000D03*
X762000Y1778000D03*
X6350000Y2032000D03*
Y2286000D03*
Y2540000D03*
X6096000Y2286000D03*
Y2540000D03*
X6350000Y2794000D03*
X6096000D03*
X6350000Y3048000D03*
X6096000D03*
Y4064000D03*
X6350000D03*
X6096000Y3810000D03*
X6350000D03*
Y3556000D03*
Y4572000D03*
X6096000Y4318000D03*
X6350000D03*
X4423890Y-408880D03*
X5588000Y254000D03*
X6350000Y0D03*
X6096000D03*
X6350000Y254000D03*
Y508000D03*
X6096000Y254000D03*
Y508000D03*
X6350000Y762000D03*
Y1016000D03*
X6096000Y762000D03*
Y1016000D03*
Y1270000D03*
G54D59*
X254000Y2032000D03*
Y2286000D03*
X762000Y2032000D03*
Y2286000D03*
X4176000Y1070000D03*
X4588000Y3510000D03*
G54D64*
X2760000Y3520000D03*
G54D62*
X1625060Y2906000D03*
X1879060Y3160000D03*
G54D57*
X-847000Y-2345000D03*
G54D61*
X1112000Y2906000D03*
G54D63*
X2500000Y3305310D03*
%LPD*%
G75*
G36*
G01X3515000Y3200000D02*
X3295000D01*
Y2840000D01*
X3515000D01*
Y3200000D01*
G37*
G36*
G01X-290000Y-4178250D02*
X-668000D01*
Y-3748750D01*
X-290000D01*
Y-4178250D01*
G37*
G36*
G01X970000D02*
X592000D01*
Y-3748750D01*
X970000D01*
Y-4178250D01*
G37*
G36*
G01X2700000D02*
X2322000D01*
Y-3748750D01*
X2700000D01*
Y-4178250D01*
G37*
G36*
G01X3960000D02*
X3582000D01*
Y-3748750D01*
X3960000D01*
Y-4178250D01*
G37*
G36*
G01X5690000D02*
X5312000D01*
Y-3748750D01*
X5690000D01*
Y-4178250D01*
G37*
G36*
G01X6950000D02*
X6572000D01*
Y-3748750D01*
X6950000D01*
Y-4178250D01*
G37*
G54D10*
X-1250000Y-6270000D03*
X7600000D03*
G54D20*
X-155000Y-3270000D03*
Y-3110000D03*
X765000Y-2070000D03*
Y-1910000D03*
X1085000Y-3270000D03*
Y-3110000D03*
X1590000Y2160000D03*
Y2320000D03*
X2110000Y-1060000D03*
Y-900000D03*
Y-690000D03*
Y-530000D03*
X2320000Y1630000D03*
Y1790000D03*
X1740000Y2320000D03*
Y2160000D03*
X1900000D03*
Y2320000D03*
X2060000D03*
Y2160000D03*
X2845000Y-3270000D03*
Y-3110000D03*
X2709890Y-498880D03*
Y-338880D03*
X2899890Y-398880D03*
X3029890Y-648880D03*
Y-808880D03*
X2899890Y-98880D03*
Y61120D03*
X3069890Y381120D03*
X2899890Y-238880D03*
X2919890Y381120D03*
X3069890Y541120D03*
X2919890D03*
X2500000Y2770000D03*
Y2930000D03*
X3685000Y-2070000D03*
Y-1910000D03*
X3329890Y-808880D03*
Y-648880D03*
X3479890Y-808880D03*
Y-648880D03*
X3639890Y-378880D03*
X3179890Y-808880D03*
Y-648880D03*
X3789890Y-378880D03*
X3639890Y-218880D03*
X3519890Y381120D03*
X3789890Y-218880D03*
X3819890Y381120D03*
X3219890D03*
X3369890D03*
X3669890D03*
X3519890Y541120D03*
X3819890D03*
X3219890D03*
X3369890D03*
X3669890D03*
X3180000Y1580000D03*
Y1740000D03*
X3480000Y1580000D03*
Y1740000D03*
X3780000D03*
Y1580000D03*
X3330000D03*
Y1740000D03*
X3630000Y1580000D03*
Y1740000D03*
X4065000Y-3270000D03*
Y-3110000D03*
X4359890Y351120D03*
Y191120D03*
X4349890Y561120D03*
Y721120D03*
X3930000Y1740000D03*
Y1580000D03*
X4230000Y2940000D03*
Y3100000D03*
X4890000Y-280000D03*
Y-120000D03*
Y20000D03*
Y180000D03*
X5835000Y-3270000D03*
Y-3110000D03*
X5730000Y-1040000D03*
Y-1200000D03*
Y-740000D03*
Y-900000D03*
Y-440000D03*
Y-600000D03*
X6245000Y-2070000D03*
Y-1910000D03*
X7045000Y-3270000D03*
Y-3110000D03*
G54D11*
X-1400000Y-5310000D03*
Y-4810000D03*
Y-5060000D03*
Y-4560000D03*
Y-3960000D03*
Y-4160000D03*
Y-4360000D03*
Y-3560000D03*
Y-3360000D03*
Y-3760000D03*
X-650000Y-5310000D03*
X-900000D03*
X-1150000D03*
X-650000Y-4560000D03*
Y-5060000D03*
Y-4810000D03*
X-900000D03*
Y-5060000D03*
Y-4560000D03*
X-1150000D03*
Y-5060000D03*
Y-4810000D03*
X-650000Y-4360000D03*
X-900000Y-3960000D03*
Y-4160000D03*
Y-4360000D03*
X-1150000D03*
Y-4160000D03*
Y-3960000D03*
X-650000Y-3360000D03*
Y-3560000D03*
X-900000D03*
Y-3360000D03*
Y-3760000D03*
X-1150000D03*
Y-3360000D03*
Y-3560000D03*
X-400000Y-5310000D03*
Y-4810000D03*
Y-5060000D03*
Y-4560000D03*
Y-4360000D03*
X30000Y-3950000D03*
Y-4150000D03*
Y-4350000D03*
X230000Y-3950000D03*
Y-4150000D03*
Y-4350000D03*
X-400000Y-3560000D03*
Y-3360000D03*
X230000Y-3550000D03*
Y-3350000D03*
Y-3150000D03*
Y-3750000D03*
X430000Y-3950000D03*
Y-4150000D03*
Y-4350000D03*
X630000D03*
X830000D03*
X430000Y-3550000D03*
X630000D03*
Y-3350000D03*
X430000D03*
X630000Y-3150000D03*
X430000D03*
Y-3750000D03*
X830000Y-3550000D03*
Y-3350000D03*
Y-3150000D03*
X1570000Y-5310000D03*
Y-5060000D03*
Y-4810000D03*
X1180000Y-4340000D03*
X1560000Y-3940000D03*
Y-4140000D03*
Y-4340000D03*
X1380000Y-3940000D03*
Y-4140000D03*
Y-4340000D03*
X1560000Y-3140000D03*
Y-3340000D03*
Y-3540000D03*
Y-3740000D03*
X1380000Y-3140000D03*
Y-3340000D03*
Y-3540000D03*
Y-3740000D03*
X1100000Y-2420000D03*
Y-2580000D03*
Y-2740000D03*
X1250000D03*
Y-2580000D03*
Y-2420000D03*
X1420000Y-2740000D03*
X1600000D03*
Y-2940000D03*
X1420000D03*
X1820000Y-5310000D03*
X2070000D03*
X2320000D03*
X1820000Y-4810000D03*
Y-5060000D03*
Y-4560000D03*
X2070000D03*
Y-5060000D03*
Y-4810000D03*
X2320000D03*
Y-5060000D03*
Y-4560000D03*
X1820000Y-3960000D03*
Y-4160000D03*
Y-4360000D03*
X2070000D03*
Y-4160000D03*
Y-3960000D03*
X2320000Y-4360000D03*
X1820000Y-3560000D03*
Y-3360000D03*
Y-3160000D03*
Y-3760000D03*
X2070000D03*
Y-3160000D03*
Y-3360000D03*
Y-3560000D03*
X2320000D03*
Y-3360000D03*
Y-3160000D03*
X2310000Y-2410000D03*
Y-2730000D03*
Y-2570000D03*
X2180000Y-2410000D03*
Y-2730000D03*
Y-2570000D03*
X2310000Y-2250000D03*
Y-2090000D03*
X2030000Y-2080000D03*
Y-2210000D03*
X1880000D03*
Y-2080000D03*
X2180000Y-2250000D03*
Y-2090000D03*
X2200000Y-1880000D03*
X2350000Y-1750000D03*
Y-1880000D03*
Y-1360000D03*
X2220000D03*
X2090000D03*
X2350000Y-1490000D03*
Y-1620000D03*
X2570000Y-5310000D03*
Y-4560000D03*
Y-5060000D03*
Y-4810000D03*
Y-4360000D03*
X3020000Y-3950000D03*
Y-4150000D03*
Y-4350000D03*
X2570000Y-3360000D03*
Y-3560000D03*
Y-3160000D03*
X2440000Y-2570000D03*
Y-2730000D03*
Y-2410000D03*
Y-2090000D03*
Y-2250000D03*
X2650000Y-1750000D03*
X2500000D03*
X2650000Y-1880000D03*
X2500000D03*
X2650000Y-1360000D03*
X2500000D03*
X2650000Y-1490000D03*
X2500000D03*
X2650000Y-1620000D03*
X2500000D03*
X3220000Y-3950000D03*
X3420000D03*
Y-4150000D03*
X3220000D03*
Y-4350000D03*
X3420000D03*
X3620000D03*
X3820000D03*
X3220000Y-3550000D03*
X3420000D03*
X3620000D03*
Y-3350000D03*
X3420000D03*
X3220000D03*
X3620000Y-3150000D03*
X3420000D03*
X3220000D03*
Y-3750000D03*
X3420000D03*
X3820000Y-3550000D03*
Y-3350000D03*
Y-3150000D03*
X4560000Y-5310000D03*
Y-5060000D03*
Y-4810000D03*
X4150000Y-4340000D03*
X4350000D03*
Y-4140000D03*
Y-3940000D03*
X4550000Y-4340000D03*
Y-4140000D03*
Y-3940000D03*
X4350000Y-3740000D03*
Y-3540000D03*
Y-3340000D03*
Y-3140000D03*
X4550000Y-3740000D03*
Y-3540000D03*
Y-3340000D03*
Y-3140000D03*
X4150000Y-2540000D03*
Y-2740000D03*
X4550000Y-2540000D03*
X4350000D03*
Y-2940000D03*
Y-2740000D03*
X4550000Y-2940000D03*
Y-2740000D03*
X4150000Y-2340000D03*
X4010000Y-1820000D03*
Y-1680000D03*
X4150000Y-1820000D03*
Y-1680000D03*
X4080000Y-1290000D03*
X4010000Y-1540000D03*
Y-1410000D03*
X4520000Y-1290000D03*
X4370000D03*
X4220000D03*
X4450000Y-1410000D03*
X4300000D03*
X4150000D03*
X4450000Y-1540000D03*
X4300000D03*
X4150000D03*
X4810000Y-5310000D03*
X5060000D03*
Y-5060000D03*
X4810000D03*
Y-4810000D03*
X5060000D03*
Y-4560000D03*
X4810000D03*
Y-3960000D03*
X5060000D03*
Y-4160000D03*
X4810000D03*
Y-4360000D03*
X5060000D03*
X4810000Y-3560000D03*
X5060000D03*
Y-3360000D03*
X4810000D03*
X5060000Y-3160000D03*
X4810000D03*
Y-3760000D03*
X5060000D03*
X4750000Y-2540000D03*
Y-2740000D03*
Y-2340000D03*
Y-1820000D03*
Y-1680000D03*
X4670000Y-1290000D03*
X4750000Y-1410000D03*
X4600000D03*
X4750000Y-1540000D03*
X4600000D03*
X5310000Y-5310000D03*
X5560000D03*
Y-5060000D03*
X5310000D03*
X5560000Y-4810000D03*
X5310000D03*
X5560000Y-4560000D03*
X5310000D03*
X5560000Y-4360000D03*
X5310000D03*
X5560000Y-3560000D03*
Y-3360000D03*
Y-3160000D03*
X5310000Y-3560000D03*
Y-3360000D03*
Y-3160000D03*
X6210000Y-3940000D03*
X6010000D03*
X6410000D03*
Y-4140000D03*
X6010000D03*
X6210000D03*
Y-4340000D03*
X6010000D03*
X6410000D03*
X6610000D03*
Y-4540000D03*
X6410000D03*
X6010000D03*
X6210000D03*
Y-3540000D03*
X6410000D03*
X6610000D03*
Y-3340000D03*
X6410000D03*
X6210000D03*
X6610000Y-3140000D03*
X6410000D03*
X6210000D03*
Y-3740000D03*
X6410000D03*
X6560000Y-2570000D03*
Y-2730000D03*
Y-2410000D03*
X6690000Y-2730000D03*
Y-2410000D03*
Y-2570000D03*
X6560000Y-2090000D03*
Y-2250000D03*
X6690000D03*
Y-2090000D03*
X6660000Y-1720000D03*
Y-1880000D03*
X6520000D03*
Y-1720000D03*
X6660000Y-1550000D03*
X6520000D03*
X6660000Y-1390000D03*
Y-1230000D03*
Y-1060000D03*
X6520000Y-1390000D03*
Y-1230000D03*
Y-1060000D03*
X7150000Y-4580000D03*
X7350000D03*
X7150000Y-4380000D03*
X7350000Y-3980000D03*
Y-4180000D03*
Y-4380000D03*
X6810000Y-4340000D03*
Y-4540000D03*
X7350000Y-3180000D03*
Y-3380000D03*
Y-3580000D03*
Y-3780000D03*
X6810000Y-3540000D03*
Y-3340000D03*
Y-3140000D03*
X7280000Y-2800000D03*
X7350000Y-2980000D03*
X7110000Y-2800000D03*
X6820000Y-2730000D03*
Y-2570000D03*
Y-2410000D03*
Y-2250000D03*
Y-2090000D03*
X6970000Y-2210000D03*
Y-2080000D03*
X7120000Y-2210000D03*
Y-2080000D03*
X6830000Y-1880000D03*
X6940000Y-1390000D03*
Y-1230000D03*
Y-1060000D03*
X6800000Y-1390000D03*
Y-1230000D03*
Y-1060000D03*
X7550000Y-4580000D03*
Y-3980000D03*
Y-4180000D03*
Y-4380000D03*
Y-3180000D03*
Y-3380000D03*
Y-3580000D03*
Y-3780000D03*
Y-2760000D03*
Y-2980000D03*
G54D21*
X5000Y-3272940D03*
Y-3127060D03*
X1245000Y-3272940D03*
Y-3127060D03*
X2995000Y-3272940D03*
Y-3127060D03*
X4215000Y-3272940D03*
Y-3127060D03*
X5995000Y-3272940D03*
Y-3127060D03*
X7195000Y-3272940D03*
Y-3127060D03*
G54D12*
X-1490000Y-1005310D03*
Y-794690D03*
X99690Y-1800000D03*
X765000Y-2945310D03*
Y-2734690D03*
X310310Y-1800000D03*
X1265310Y-290000D03*
X1054690D03*
X3019690Y-1800000D03*
X2719890Y116430D03*
Y-94190D03*
X2500000Y3305310D03*
Y3094690D03*
X3685000Y-2945310D03*
Y-2734690D03*
X3230310Y-1800000D03*
X5589690D03*
X5800310D03*
X5974690Y-1040000D03*
Y-740000D03*
Y-440000D03*
X6255000Y-2945310D03*
Y-2734690D03*
X6185310Y-1040000D03*
Y-740000D03*
Y-440000D03*
G54D30*
X612970Y4280000D03*
X5122970Y428260D03*
Y935440D03*
Y597320D03*
Y1104500D03*
Y766380D03*
Y1273560D03*
Y1442620D03*
Y1611680D03*
Y1780740D03*
Y2368090D03*
Y2197110D03*
Y2026130D03*
Y2539070D03*
X4762970Y3222990D03*
X5122970Y3052010D03*
Y2710050D03*
Y3222990D03*
Y2881030D03*
X4762970Y3052010D03*
X5122970Y3564950D03*
Y3393970D03*
G54D31*
X726540Y4280000D03*
X5236540Y428260D03*
Y935440D03*
Y597320D03*
Y1104500D03*
Y766380D03*
Y1273560D03*
Y1442620D03*
Y1611680D03*
Y1780740D03*
Y2368090D03*
Y2197110D03*
Y2026130D03*
Y2539070D03*
X4876540Y3222990D03*
X5236540Y3052010D03*
Y2710050D03*
Y3222990D03*
Y2881030D03*
X4876540Y3052010D03*
X5236540Y3564950D03*
Y3393970D03*
G54D40*
X2744520Y-2820000D03*
X2645480D03*
G54D13*
X-650000Y-4154000D03*
Y-4027000D03*
Y-3900000D03*
Y-3773000D03*
X-135000Y-4154000D03*
Y-4027000D03*
Y-3900000D03*
Y-3773000D03*
X610000Y-4154000D03*
Y-4027000D03*
Y-3900000D03*
Y-3773000D03*
X1125000Y-4154000D03*
Y-4027000D03*
Y-3900000D03*
Y-3773000D03*
X2340000Y-4154000D03*
Y-4027000D03*
Y-3900000D03*
Y-3773000D03*
X2855000Y-4154000D03*
Y-4027000D03*
Y-3900000D03*
Y-3773000D03*
X3600000Y-4154000D03*
Y-4027000D03*
Y-3900000D03*
Y-3773000D03*
X4115000Y-4154000D03*
Y-4027000D03*
Y-3900000D03*
Y-3773000D03*
X5845000Y-4154000D03*
X5330000D03*
X5845000Y-4027000D03*
X5330000D03*
X5845000Y-3900000D03*
X5330000D03*
X5845000Y-3773000D03*
X5330000D03*
X6590000Y-4154000D03*
Y-4027000D03*
Y-3900000D03*
Y-3773000D03*
X7105000Y-4154000D03*
Y-4027000D03*
Y-3900000D03*
Y-3773000D03*
G54D22*
X184500Y-2624910D03*
Y-2095090D03*
X565500Y-2624910D03*
X311500D03*
X438500D03*
Y-2095090D03*
X311500D03*
X2120500Y1415090D03*
X1993500Y1944910D03*
X1866500D03*
X1739500D03*
Y1415090D03*
X1866500D03*
X1993500D03*
X3485500Y-2624910D03*
X3104500D03*
X3231500D03*
X3358500D03*
Y-2095090D03*
X3231500D03*
X3104500D03*
X5674500Y-2624910D03*
X5801500D03*
X5928500D03*
Y-2095090D03*
X5801500D03*
X5674500D03*
X6055500Y-2624910D03*
G54D14*
X-847000Y-2345000D03*
X2745000Y-5820000D03*
X3380000D03*
G54D32*
X1519800Y-2490000D03*
Y-2135200D03*
X1874600Y-2490000D03*
X7070200Y-2475200D03*
X7425000D03*
Y-2120400D03*
G54D23*
X-130000Y-2593700D03*
Y-2166300D03*
G54D50*
X6305000Y-1433460D03*
G54D41*
X3074810Y-416330D03*
G54D51*
G01X438500Y-2624910D02*
Y-2790000D01*
G01X1650000Y-1330000D02*
Y-1260920D01*
X1780000Y-1130920D01*
Y-1060000D01*
G01X2110000D02*
X1940000D01*
G01D02*
Y-989080D01*
X1944740Y-984340D01*
Y-895250D01*
G01X2110000Y-790000D02*
Y-900000D01*
G01Y-690000D02*
Y-790000D01*
G01X1849750Y-895250D02*
Y-807690D01*
X1867440Y-790000D01*
X2110000D01*
G01X1960000Y-530000D02*
X2110000D01*
G01X1944740Y-692050D02*
Y-606180D01*
X1950000Y-600920D01*
Y-540000D01*
X1960000Y-530000D01*
G01D02*
Y-420000D01*
G01X1746350Y2160000D02*
Y2172700D01*
X1893650Y2320000D01*
X1900000D01*
G01X7870000Y-730000D02*
Y-920000D01*
X7920000Y-970000D01*
Y-5030000D01*
X6550000Y-6400000D01*
X3095000D01*
X2745000Y-6050000D01*
G01X2899890Y61120D02*
X2893540D01*
G01X2899890D02*
X2988890D01*
G01D02*
X3020010Y30000D01*
X3239880D01*
G01X7780000Y-810000D02*
Y-950000D01*
X7840000Y-1010000D01*
Y-4980000D01*
X6520000Y-6300000D01*
X3635000D01*
X3380000Y-6045000D01*
G01X3239880Y30000D02*
X3269880Y60000D01*
Y158570D01*
G01X7690000Y-890000D02*
Y-961660D01*
X7760000Y-1031660D01*
Y-4930320D01*
X6500320Y-6190000D01*
X4145000D01*
X4015000Y-6060000D01*
G01X3930000Y1580000D02*
X4003420D01*
X4040000Y1616580D01*
Y2436180D01*
X4004000Y2472180D01*
Y2710000D01*
G01X5164750Y-1822050D02*
Y-1695250D01*
X5190000Y-1670000D01*
G01Y-2340000D02*
X4840050D01*
G01X5259750Y-2025250D02*
Y-2120250D01*
X5190000Y-2190000D01*
G01X5164750Y-2025250D02*
X5107800D01*
X5040000Y-1957450D01*
Y-1330000D01*
X4898120Y-1188120D01*
Y-642620D01*
X4795720Y-540220D01*
G01X4890000Y-390000D02*
Y-540000D01*
X4950000Y-600000D01*
Y-1160000D01*
X5100000Y-1310000D01*
Y-1644570D01*
X5125430Y-1670000D01*
X5190000D01*
G01X5050000Y-900000D02*
Y-1180000D01*
X5190000Y-1320000D01*
Y-1520000D01*
G01X4890000Y-120000D02*
X4819080D01*
X4795720Y-143360D01*
Y-540220D01*
G01X4890000Y-120000D02*
Y20000D01*
G01X5354740Y-1822050D02*
Y-1745660D01*
X5350000Y-1740920D01*
Y-1670000D01*
G01X5354740Y-2025250D02*
Y-2114340D01*
X5350000Y-2119080D01*
Y-2190000D01*
G01D02*
Y-2340000D01*
G01X5447060Y-1200000D02*
Y-1197460D01*
X5520000Y-1124520D01*
Y-975480D01*
X5447060Y-902540D01*
Y-900000D01*
G01X5730000Y-1200000D02*
X5592940D01*
G01X5974690Y-1040000D02*
X5730000D01*
G01D02*
X5592940D01*
G01X5350000Y-1670000D02*
Y-1520000D01*
G01X5447060Y-610000D02*
Y-612540D01*
X5520000Y-685480D01*
Y-824520D01*
X5447060Y-897460D01*
Y-900000D01*
G01X5730000Y-600000D02*
X5659080D01*
X5649080Y-610000D01*
X5592940D01*
G01X5730000Y-900000D02*
X5592940D01*
G01X5730000Y-440000D02*
Y-450000D01*
X5700000Y-480000D01*
X5592940D01*
G01Y-740000D02*
X5730000D01*
G01X5970000Y-890000D02*
X5974690Y-894690D01*
Y-1040000D01*
G01X6185310Y-890000D02*
Y-1040000D01*
G01X5974690Y-440000D02*
Y-320000D01*
G01X6185310Y-740000D02*
X6320000D01*
G01X6185310Y-440000D02*
Y-600000D01*
G01X7350000Y-1310000D02*
Y-1437680D01*
G01D02*
X7404720Y-1492400D01*
G01X7350000Y-1160000D02*
X7409750Y-1100250D01*
Y-995250D01*
G01D02*
Y-689750D01*
X7350000Y-630000D01*
G01X7314750Y-995250D02*
X7257800D01*
X7230000Y-967450D01*
Y-880000D01*
X7170000Y-820000D01*
Y-690000D01*
G01X7404720Y-1492400D02*
Y-1640000D01*
G01X7510000Y-1160000D02*
Y-1310000D01*
G01X7504740Y-995250D02*
Y-1154740D01*
X7510000Y-1160000D01*
G01X7610000Y-480000D02*
X7510000D01*
G01X7504740Y-792050D02*
X7510000Y-786790D01*
Y-630000D01*
G01D02*
Y-480000D01*
G54D15*
X-847000Y-2980000D03*
X4015000Y-5820000D03*
G54D24*
X254000Y0D03*
X0D03*
X254000Y254000D03*
Y508000D03*
X0Y254000D03*
Y508000D03*
X254000Y762000D03*
Y1016000D03*
X0Y762000D03*
Y1016000D03*
X254000Y1270000D03*
Y1524000D03*
Y1778000D03*
X0Y1270000D03*
Y1524000D03*
Y1778000D03*
X254000Y2032000D03*
Y2286000D03*
Y2540000D03*
X0Y2032000D03*
Y2286000D03*
Y2540000D03*
X254000Y2794000D03*
X0D03*
X254000Y3302000D03*
Y3048000D03*
X0D03*
Y3302000D03*
Y4064000D03*
X254000D03*
X0Y3810000D03*
X254000D03*
X0Y3556000D03*
X254000D03*
Y4572000D03*
X0Y4318000D03*
X254000D03*
X762000Y0D03*
Y254000D03*
Y508000D03*
Y762000D03*
Y1016000D03*
Y1778000D03*
Y2032000D03*
Y2286000D03*
Y2540000D03*
Y2794000D03*
Y3048000D03*
Y3302000D03*
X1170000Y1666000D03*
X3668000Y1070000D03*
X3414000D03*
X4423890Y-408880D03*
Y-128880D03*
X4176000Y1070000D03*
X3922000D03*
X4004000Y2710000D03*
X4588000Y3510000D03*
X4334000D03*
X5588000Y508000D03*
Y254000D03*
Y1016000D03*
Y762000D03*
Y1778000D03*
Y1524000D03*
Y1270000D03*
Y2692000D03*
Y2438000D03*
Y3200000D03*
Y2946000D03*
Y3962000D03*
Y3708000D03*
Y3454000D03*
Y4470000D03*
Y4216000D03*
X6350000Y0D03*
X6096000D03*
X6350000Y254000D03*
Y508000D03*
X6096000Y254000D03*
Y508000D03*
X6350000Y762000D03*
Y1016000D03*
X6096000Y762000D03*
Y1016000D03*
X6350000Y1270000D03*
Y1524000D03*
Y1778000D03*
X6096000Y1270000D03*
Y1524000D03*
Y1778000D03*
X6350000Y2032000D03*
Y2286000D03*
Y2540000D03*
X6096000Y2032000D03*
Y2286000D03*
Y2540000D03*
X6350000Y2794000D03*
X6096000D03*
X6350000Y3302000D03*
Y3048000D03*
X6096000D03*
Y3302000D03*
Y4064000D03*
X6350000D03*
X6096000Y3810000D03*
X6350000D03*
X6096000Y3556000D03*
X6350000D03*
Y4572000D03*
X6096000Y4318000D03*
X6350000D03*
G54D33*
X1525280Y-1660000D03*
X2124720D03*
X6835280Y-1670000D03*
X7434720D03*
G54D42*
X3074810Y158570D03*
X3139830Y-416330D03*
X3204860D03*
X3269880D03*
X3334910D03*
X3399930D03*
X3464950D03*
Y158570D03*
X3399930D03*
X3334910D03*
X3269880D03*
X3204860D03*
X3139830D03*
G54D52*
G01X-165000Y-3420000D02*
Y-3344570D01*
X-155000Y-3334570D01*
Y-3270000D01*
G01X-165000Y-3590000D02*
Y-3420000D01*
G01Y-3590000D02*
Y-3692400D01*
X-135000Y-3722400D01*
Y-3773000D01*
G01X-155000Y-3270000D02*
X-152060Y-3272940D01*
X5000D01*
G01X-5000Y-3590000D02*
X130000D01*
G01X120000Y-3420000D02*
X130000Y-3430000D01*
G01X-5000Y-3420000D02*
X120000D01*
G01X1085000Y-2960000D02*
X1020430D01*
X930000Y-2869570D01*
Y-2540000D01*
X830000Y-2440000D01*
X259120D01*
X184500Y-2514620D01*
Y-2624910D01*
G01X-155000Y-3130000D02*
Y-3110000D01*
G01X165000Y-2790000D02*
X-55920D01*
X-155000Y-2889080D01*
Y-2960000D01*
G01D02*
Y-3110000D01*
G01X5000Y-3127060D02*
Y-2960000D01*
G01X765000Y-2734690D02*
X621940D01*
X565500Y-2678250D01*
Y-2624910D01*
G01X311500Y-3073500D02*
Y-2624910D01*
G01X475000Y-1790000D02*
Y-1900000D01*
X438500Y-1936500D01*
Y-2095090D01*
G01X565500D02*
X659170D01*
X684260Y-2070000D01*
X765000D01*
G01X635000Y-1790000D02*
Y-1920000D01*
X615000Y-1940000D01*
G01X765000Y-1910000D02*
X735000Y-1940000D01*
X615000D01*
G01X762000Y2794000D02*
X990000Y2566000D01*
Y1336420D01*
X1026420Y1300000D01*
X1087060D01*
G01X1245000Y-3420000D02*
X1350000D01*
G01X1245000Y-3590000D02*
X1385000D01*
G01X1085000Y-3420000D02*
Y-3270000D01*
G01Y-3590000D02*
Y-3420000D01*
G01X1125000Y-3773000D02*
Y-3700920D01*
X1085000Y-3660920D01*
Y-3590000D01*
G01X1245000Y-3272940D02*
X1087940D01*
X1085000Y-3270000D01*
G01Y-3110000D02*
Y-2960000D01*
G01X1245000D02*
Y-3127060D01*
G01X1620000Y30000D02*
X1570000D01*
G01X1650000Y59080D02*
X1649080D01*
X1620000Y30000D01*
G01X1490000Y1150000D02*
Y932700D01*
X1483650Y926350D01*
G01X1490000Y750000D02*
Y920000D01*
G01Y1150000D02*
Y1220920D01*
X1410920Y1300000D01*
X1232940D01*
G01X1227030Y926260D02*
X1483560D01*
X1483650Y926350D01*
G01X1650000Y920000D02*
Y990920D01*
X1610920Y1030000D01*
G01D02*
X1580000D01*
G01X1740000Y2320000D02*
X1590000D01*
G01X1740000Y2160000D02*
X1590000D01*
G01X1800000Y-530000D02*
Y-390000D01*
G01X1754750Y-692050D02*
Y-585250D01*
X1800000Y-540000D01*
Y-530000D01*
G01X1650000Y130000D02*
Y280000D01*
G01Y60000D02*
Y130000D01*
G01Y280000D02*
Y370000D01*
G01Y750000D02*
Y660000D01*
G01Y750000D02*
Y920000D01*
G01X2320000Y1790000D02*
Y1862070D01*
X2237160Y1944910D01*
X2120500D01*
G01X1993500D02*
Y2043490D01*
X2060000Y2109990D01*
Y2160000D01*
G01X1740000Y2320000D02*
Y2385000D01*
X1765000Y2410000D01*
X2034570D01*
X2060000Y2384570D01*
Y2320000D01*
G01D02*
X2190940D01*
X2250940Y2260000D01*
G01X1739500Y1944910D02*
Y2153150D01*
X1746350Y2160000D01*
G01X1866500Y1944910D02*
Y2056500D01*
X1900000Y2090000D01*
Y2160000D01*
G01X2845000Y-3270000D02*
X2847940Y-3272940D01*
X2995000D01*
G01X2845000Y-3270000D02*
Y-3334570D01*
X2835000Y-3344570D01*
Y-3420000D01*
G01Y-3590000D02*
Y-3695000D01*
X2855000Y-3715000D01*
Y-3773000D01*
G01X2835000Y-3420000D02*
Y-3590000D01*
G01X2995000D02*
X3130000D01*
G01X2995000Y-3420000D02*
X3120000D01*
G01X2835000Y-2960000D02*
Y-2859080D01*
X2914080Y-2780000D01*
X3105000D01*
G01X2845000Y-3110000D02*
Y-3040920D01*
X2835000Y-3030920D01*
Y-2960000D01*
G01X2995000Y-3127060D02*
Y-2960000D01*
G01X3269880Y-416330D02*
Y-289880D01*
X3078880Y-98880D01*
X2899890D01*
G01X2893540Y61120D02*
X2838230Y116430D01*
X2719890D01*
G01X2899890Y61120D02*
Y180000D01*
G01X3358500Y-2624910D02*
Y-2780000D01*
G01X4055000Y-2960000D02*
Y-2880010D01*
X3895000Y-2720010D01*
Y-2510000D01*
X3825000Y-2440000D01*
X3155000D01*
X3104500Y-2490500D01*
Y-2624910D01*
G01D02*
Y-2678250D01*
G01X3231500Y-2624910D02*
Y-2997880D01*
G01Y-3003500D02*
X3225000Y-3010000D01*
G01X3395000Y-1790000D02*
Y-1880920D01*
X3358500Y-1917420D01*
Y-2095090D01*
G01X3685000Y-2070000D02*
X3575040D01*
X3549950Y-2095090D01*
X3485500D01*
G01X3685000Y-1910000D02*
X3569980D01*
X3555000Y-1924980D01*
G01D02*
Y-1790000D01*
G01X3545000Y-1934980D02*
X3555000Y-1924980D01*
G01X4055000Y-3420000D02*
Y-3344570D01*
X4065000Y-3334570D01*
Y-3270000D01*
G01X4055000Y-3420000D02*
Y-3590000D01*
G01X4115000Y-3773000D02*
Y-3720920D01*
X4055000Y-3660920D01*
Y-3590000D01*
G01X4065000Y-3270000D02*
X4067940Y-3272940D01*
X4215000D01*
G01Y-3420000D02*
X4330000D01*
G01D02*
X4340000Y-3410000D01*
G01X4215000Y-3590000D02*
X4385000D01*
G01D02*
X4395000Y-3580000D01*
G01X4065000Y-3110000D02*
Y-3040920D01*
X4055000Y-3030920D01*
Y-2960000D01*
G01X4215000Y-3127060D02*
Y-2960000D01*
G01X4890000Y-280000D02*
Y-390000D01*
G01X5835000Y-3420000D02*
Y-3590000D01*
G01Y-3270000D02*
Y-3420000D01*
G01X5845000Y-3773000D02*
Y-3670920D01*
X5835000Y-3660920D01*
Y-3590000D01*
G01Y-3270000D02*
X5837940Y-3272940D01*
X5995000D01*
G01X5674500Y-2624910D02*
Y-2545500D01*
X5780000Y-2440000D01*
X6340000D01*
X6410000Y-2510000D01*
Y-2815000D01*
X6555000Y-2960000D01*
X7035000D01*
G01X5835000Y-3110000D02*
Y-2960000D01*
G01X5760000Y-2800000D02*
X5835000Y-2875000D01*
Y-2960000D01*
G01X5990000Y-2760000D02*
X5928500Y-2698500D01*
Y-2624910D01*
G01X6255000Y-2945310D02*
X6155310D01*
X6060000Y-2850000D01*
X5940000D01*
X5801500Y-2711500D01*
Y-2624910D01*
G01X5928500Y-2095090D02*
Y-1897420D01*
X5965000Y-1860920D01*
Y-1790000D01*
G01X5447060Y-1040000D02*
X5386420D01*
X5370000Y-1023580D01*
Y-820240D01*
X5395990Y-794250D01*
Y-793610D01*
X5447060Y-742540D01*
Y-740000D01*
G01Y-1040000D02*
Y-1037460D01*
G01X5410000Y-330000D02*
Y-382940D01*
X5447060Y-420000D01*
Y-480000D01*
G01D02*
Y-482540D01*
X5370000Y-559600D01*
Y-660400D01*
X5447060Y-737460D01*
Y-740000D01*
G01X5995000Y-3590000D02*
X6110000D01*
G01X5995000Y-3420000D02*
X6130000D01*
G01X5995000Y-3127060D02*
Y-2960000D01*
G01X6255000Y-2734690D02*
X6124700D01*
X6055500Y-2665490D01*
Y-2624910D01*
G01X6245000Y-2070000D02*
X6145040D01*
X6119950Y-2095090D01*
X6055500D01*
G01X6245000Y-1910000D02*
X6150000D01*
X6130000Y-1930000D01*
X6125940D01*
G01X6125000Y-1790000D02*
Y-1925000D01*
X6125940Y-1925940D01*
Y-1930000D01*
G01X7195000Y-3420000D02*
X7275000D01*
G01X7195000Y-3590000D02*
X7279940D01*
G01D02*
X7375000D01*
G01X7275000Y-3420000D02*
X7280000D01*
G01X7105000Y-3773000D02*
Y-3720000D01*
X7035000Y-3650000D01*
Y-3590000D01*
G01D02*
Y-3420000D01*
G01X7045000Y-3270000D02*
Y-3339080D01*
X7035000Y-3349080D01*
Y-3420000D01*
G01X7195000Y-3272940D02*
X7047940D01*
X7045000Y-3270000D01*
G01Y-3110000D02*
Y-3020920D01*
X7035000Y-3010920D01*
Y-2960000D01*
G01X7195000Y-3127060D02*
Y-2960000D01*
G01D02*
Y-2940000D01*
G01X7060000Y-480000D02*
X7350000D01*
G01D02*
X7260000Y-570000D01*
Y-737300D01*
X7314750Y-792050D01*
G54D34*
X1087060Y1300000D03*
X1232940D03*
X3352940Y2380000D03*
X3207060D03*
X3622940D03*
X3477060D03*
X3777060D03*
X3922940D03*
X5447060Y-1040000D03*
X5592940D03*
X5447060Y-1200000D03*
X5592940D03*
X5447060Y-480000D03*
X5592940D03*
X5447060Y-610000D03*
X5592940D03*
X5447060Y-900000D03*
X5592940D03*
X5447060Y-740000D03*
X5592940D03*
G54D25*
X0Y4572000D03*
X762000Y1270000D03*
Y3556000D03*
X1170000Y1920000D03*
X3160000Y1070000D03*
X3750000Y2710000D03*
X4169890Y-408880D03*
Y-128880D03*
X4080000Y3510000D03*
X5588000Y0D03*
Y2184000D03*
X6096000Y4572000D03*
G54D43*
X2396240Y1430000D03*
X2743760D03*
G54D16*
X-735000Y-1210000D03*
X575000D03*
G54D53*
G01X907500Y-2227500D02*
Y-2270000D01*
X847500Y-2330000D01*
X290000D01*
X184500Y-2224500D01*
Y-2095090D01*
G01D02*
Y-1944500D01*
X180000Y-1940000D01*
G01D02*
Y-1910000D01*
X99690Y-1829690D01*
Y-1800000D01*
G01X765000Y-2734690D02*
X770000Y-2729690D01*
Y-2563760D01*
G01X1480000Y-580000D02*
Y-760000D01*
X650000Y-1590000D01*
X400000D01*
X310310Y-1679690D01*
Y-1800000D01*
G01X311500Y-2095090D02*
Y-1801190D01*
X310310Y-1800000D01*
G01X311500Y-2095090D02*
Y-2201500D01*
X350000Y-2240000D01*
X680000D01*
X700000Y-2220000D01*
X766240D01*
X770000Y-2216240D01*
G01X2124720Y-1670000D02*
X1963440Y-1831280D01*
Y-1900000D01*
G01X2124720Y-1660000D02*
Y-1670000D01*
G01X1930000Y1733120D02*
Y1680000D01*
G01X1866500Y1415090D02*
Y1616500D01*
G01Y1944910D02*
Y1796620D01*
G01Y1616500D02*
X1930000Y1680000D01*
G01X1866500Y1796620D02*
X1930000Y1733120D01*
G01X1866500Y1415090D02*
Y1246500D01*
X1850000Y1230000D01*
G01X3019690Y-1800000D02*
Y-1899990D01*
X3059700Y-1940000D01*
X3105000D01*
G01X3230310Y-1800000D02*
Y-1410310D01*
X2780000Y-960000D01*
X2667680D01*
X2460000Y-752320D01*
Y-673980D01*
G01X2919890Y541120D02*
X2836470D01*
X2600000Y304650D01*
Y-59190D01*
X2635000Y-94190D01*
X2719890D01*
G01X2899890Y-238880D02*
Y-98880D01*
G01D02*
X2828970D01*
X2824280Y-94190D01*
X2719890D01*
G01D02*
Y-153580D01*
X2758340Y-192030D01*
Y-207100D01*
X2773970Y-222730D01*
G01X2772210Y-224490D02*
X2773970Y-222730D01*
G01X2690000Y-224490D02*
X2772210D01*
G01X2919890Y541120D02*
Y719890D01*
X3000000Y800000D01*
X3853940D01*
X3932820Y721120D01*
X4009890D01*
G01X2500000Y2930000D02*
X2380000D01*
G01X2760000Y3260000D02*
X2630500D01*
G01X2760000D02*
Y3520000D01*
G01X2630500Y3260000D02*
X2585190Y3305310D01*
X2500000D01*
G01X3485500Y-2624910D02*
Y-2675510D01*
X3544680Y-2734690D01*
X3685000D01*
G01X3690000Y-2563760D02*
Y-2729690D01*
X3685000Y-2734690D01*
G01X3230310Y-1800000D02*
Y-1983610D01*
X3231500Y-1984800D01*
Y-2095090D01*
G01X3690000Y-2216240D02*
X3580000D01*
X3556240Y-2240000D01*
X3281510D01*
X3231500Y-2189990D01*
Y-2095090D01*
G01X3105000Y-1940000D02*
Y-2094590D01*
X3104500Y-2095090D01*
G01X4115000Y-1910000D02*
Y-2025000D01*
X3820000Y-2320000D01*
X3206620D01*
X3104500Y-2217880D01*
Y-2095090D01*
G01X3160000Y1070000D02*
Y1230000D01*
X3180000Y1250000D01*
Y1580000D01*
G01X3414000Y1070000D02*
Y1264000D01*
X3480000Y1330000D01*
Y1580000D01*
G01X3668000Y1070000D02*
Y1238000D01*
X3780000Y1350000D01*
Y1580000D01*
G01Y1740000D02*
Y1860000D01*
G01X3930000Y1740000D02*
X3780000D01*
G01Y1860000D02*
Y1990000D01*
G01X3330000Y1740000D02*
X3180000D01*
G01Y1990000D02*
Y1740000D01*
G01X3480000Y1990000D02*
Y1860000D01*
G01D02*
Y1740000D01*
G01X3780000Y1990000D02*
Y2140000D01*
G01D02*
Y2321380D01*
X3777060Y2324320D01*
Y2380000D01*
G01X3622940D02*
Y2470000D01*
G01X3750000Y2710000D02*
Y2470000D01*
G01X3622940D02*
X3387260D01*
X3352940Y2435680D01*
Y2380000D01*
G01X3750000Y2470000D02*
X3890000D01*
X3922940Y2437060D01*
Y2380000D01*
G01X3750000Y2470000D02*
X3622940D01*
G01X3180000Y1990000D02*
Y2140000D01*
G01X3210000Y2497060D02*
Y2382940D01*
X3207060Y2380000D01*
G01X3180000Y2140000D02*
Y2230000D01*
X3207060Y2257060D01*
Y2380000D01*
G01X3480000Y1990000D02*
Y2140000D01*
G01D02*
Y2315840D01*
X3477060Y2318780D01*
Y2380000D01*
G01X3640000Y1990000D02*
Y2140000D01*
G01D02*
Y2260000D01*
G01X3340000Y1990000D02*
Y2140000D01*
G01D02*
Y2260000D01*
G01X3994640Y539070D02*
Y615070D01*
X4009890Y630320D01*
Y721120D01*
G01D02*
Y792040D01*
X4067850Y850000D01*
X4280000D01*
X4370000Y940000D01*
Y1600000D01*
X4320000Y1650000D01*
Y2450000D01*
G01D02*
Y2540000D01*
G01X3940000Y1990000D02*
Y2140000D01*
G01D02*
Y2260000D01*
G01X5210000Y-810000D02*
Y-1170000D01*
X5490000Y-1450000D01*
X5670000D01*
X5800310Y-1580310D01*
Y-1800000D01*
G01X6260000Y-2216240D02*
X6173750D01*
X6149990Y-2240000D01*
X5874020D01*
X5801500Y-2167480D01*
Y-2095090D01*
G01D02*
Y-1966080D01*
X5800310Y-1964890D01*
Y-1800000D01*
G01X6565000Y-1870000D02*
X6400000Y-2035000D01*
Y-2280000D01*
X6350000Y-2330000D01*
X5775000D01*
X5674500Y-2229500D01*
Y-2095090D01*
G01D02*
Y-1930500D01*
X5675000Y-1930000D01*
G01X5589690Y-1800000D02*
Y-1910530D01*
X5609160Y-1930000D01*
X5675000D01*
G01X5300000Y-330000D02*
X5410000D01*
G01X6255000Y-2734690D02*
Y-2568760D01*
X6260000Y-2563760D01*
G01X6255000Y-2945310D02*
Y-3150000D01*
G54D44*
X2570000Y1636500D03*
Y1783500D03*
G54D26*
X770000Y-2563760D03*
Y-2216240D03*
X3690000Y-2563760D03*
Y-2216240D03*
X6260000Y-2563760D03*
Y-2216240D03*
G54D17*
X-790000Y-1060000D03*
X-780000Y-1360000D03*
X-600000Y-1300000D03*
X-580000Y-1210000D03*
X-600000Y-1110000D03*
X-680000Y-1360000D03*
X-870000Y-1310000D03*
Y-1110000D03*
X-690000Y-1060000D03*
X-890000Y-1210000D03*
X165000Y-2790000D03*
X-60000Y-1930000D03*
X-240000D03*
X-150000D03*
X-220000Y-2300000D03*
X-130000D03*
X-40000D03*
X-60000Y-2020000D03*
X-240000D03*
X180000Y-1940000D03*
X-150000Y-2020000D03*
X-230000Y-150000D03*
Y810000D03*
Y1560000D03*
X-220000Y2240000D03*
Y4410000D03*
X438500Y-2790000D03*
X907500Y-2227500D03*
X615000Y-1940000D03*
X710000Y-1120000D03*
X440000Y-1310000D03*
X530000Y-1360000D03*
X630000Y-1060000D03*
X730000Y-1210000D03*
X710000Y-1300000D03*
X440000Y-1110000D03*
X530000Y-1060000D03*
X630000Y-1360000D03*
X420000Y-1210000D03*
X510000Y370000D03*
Y900000D03*
X670000Y1530000D03*
X590000Y2140000D03*
X570000Y3480000D03*
X380000Y3940000D03*
X550000Y4570000D03*
X1480000Y-580000D03*
X1360000Y130000D03*
X970000Y84410D03*
Y-89960D03*
X1342370Y420000D03*
Y-100000D03*
X1570000Y30000D03*
X1360000Y751890D03*
X1320000Y1030000D03*
X1580000Y543140D03*
X1342370Y577520D03*
X1580000Y1030000D03*
X1470000Y1840000D03*
Y1690000D03*
X1600000Y1610000D03*
Y1750000D03*
X1113460Y2560000D03*
X1360000Y2440000D03*
X1470000Y2020000D03*
X1600000Y1920000D03*
X1260000Y3160000D03*
X980000Y4570000D03*
X1963440Y-1900000D03*
X2340000Y-330000D03*
X1800000Y-390000D03*
X2221230Y-829770D03*
X2110000Y-790000D03*
X2295160Y-905270D03*
X1690000Y-480000D03*
X1960000Y-420000D03*
X2260000Y80000D03*
X2120000Y-210000D03*
X2290000Y270000D03*
X2060000Y800000D03*
X2150690Y855860D03*
X1820000Y1600000D03*
Y1750000D03*
X2050000D03*
X2040000Y1600000D03*
X1930000Y1680000D03*
X2460000Y-673980D03*
X2553980Y-580000D03*
X2460000D03*
X3029890Y-910000D03*
X2690000Y-224490D03*
X2773970Y-222730D03*
X2899890Y180000D03*
X2640000Y710000D03*
X3069890Y649890D03*
X2880000Y860000D03*
X2550000Y1020000D03*
Y1220000D03*
X2850000Y1680000D03*
Y1840000D03*
X2890000Y1370000D03*
X2790000Y1540000D03*
X2780000Y1320000D03*
X2887280Y1472720D03*
X2850000Y2020000D03*
Y2150000D03*
X2720000Y2020000D03*
Y2150000D03*
X2380000Y2930000D03*
X3105000Y-2780000D03*
X3358500D03*
X3545000Y-1934980D03*
X3105000Y-1940000D03*
X3179890Y-910000D03*
X3329890Y-901590D03*
X3537290Y270000D03*
X3350000Y-100000D03*
X3280000Y650000D03*
X3430000D03*
X3780000Y1860000D03*
X3480000D03*
X3210000Y2497060D03*
X3640000Y2260000D03*
X3340000D03*
X3480000Y3560000D03*
X3900000Y-690000D03*
X3900740Y-584340D03*
X3957180Y171120D03*
X3819890Y640000D03*
X4520000Y1370000D03*
X3886020Y1470000D03*
X3980000D03*
X4215660Y1780000D03*
X4260000Y1490000D03*
X4154340D03*
X4220000Y1910000D03*
X4230000Y2210000D03*
X4320000Y2450000D03*
Y2540000D03*
X4140000Y2368090D03*
X3940000Y2260000D03*
X4380000Y2960000D03*
X4890000Y-390000D03*
X5210000Y-615000D03*
X5050000Y-712380D03*
X4820000Y-710000D03*
X5210000Y-810000D03*
X4740000Y-630000D03*
X5050000Y-900000D03*
X4795720Y-540220D03*
X5110000Y-466860D03*
X4707080Y37080D03*
X4790000Y180000D03*
X5007630Y935440D03*
X4876860Y640000D03*
X4602420Y1100000D03*
X5007630D03*
X4757160Y710000D03*
X4600000Y880000D03*
X5003140Y1370000D03*
X5000000Y1640000D03*
X4926940Y1563660D03*
X5007630Y1780000D03*
X4960000Y1900000D03*
X4600000Y1890000D03*
X4650000Y2130000D03*
X4999040Y2368090D03*
X4990000Y2020000D03*
X4670000D03*
X5007630Y3222990D03*
X4800000Y2809060D03*
X5000000Y3393970D03*
X5760000Y-2800000D03*
X5675000Y-1930000D03*
X5300000Y-330000D03*
X5974690Y-320000D03*
X5840000Y-740000D03*
X5970000Y-890000D03*
X5685000Y-265000D03*
X5910000Y380000D03*
Y120000D03*
X5370000Y110000D03*
Y597320D03*
X5390000Y880000D03*
X5910000D03*
X5359930Y1100080D03*
X5390000Y1690000D03*
X5910000Y1400000D03*
X5360000Y2200000D03*
X5770000Y1920000D03*
X5790000Y2530000D03*
X5480000Y3325780D03*
X5440000Y3833780D03*
X5820000Y4640000D03*
X5990000Y-2760000D03*
X6125940Y-1930000D03*
X6185310Y-890000D03*
X6320000Y-740000D03*
X6185310Y-600000D03*
X6560000Y2140000D03*
Y3190000D03*
Y3920000D03*
Y4580000D03*
X7060000Y-480000D03*
X6875660Y-489030D03*
X6960000Y-360000D03*
X6770000Y-489360D03*
X7170000Y-690000D03*
X7690000Y-890000D03*
X7780000Y-810000D03*
X7870000Y-730000D03*
X7830000Y-370000D03*
X7610000Y-480000D03*
G54D35*
X1754750Y-692050D03*
X1944740D03*
X3994640Y539070D03*
X4184630D03*
X5164750Y-1822050D03*
X5354740D03*
X7314750Y-792050D03*
X7504740D03*
G54D54*
G01X613460Y4070000D02*
X515000D01*
X490000Y4045000D01*
Y3830000D01*
X420000Y3760000D01*
Y230000D01*
X318220Y128220D01*
X128220D01*
X0Y0D01*
G01X139380Y2286000D02*
X254000D01*
G01X139380Y2032000D02*
X254000D01*
G01X475000Y-1790000D02*
Y-1719080D01*
X514080Y-1680000D01*
X690010D01*
X1563100Y-806910D01*
Y-433260D01*
X2060000Y63640D01*
Y800000D01*
G01X2150690Y855860D02*
Y761050D01*
X2140000Y750360D01*
Y80000D01*
X1612480Y-447520D01*
Y-837520D01*
X850000Y-1600000D01*
Y-1991350D01*
X771350Y-2070000D01*
X765000D01*
G01X1113460Y248780D02*
X1010780D01*
X762000Y0D01*
G01X1113460Y413150D02*
X921150D01*
X762000Y254000D01*
G01X1113460Y577520D02*
X950000D01*
X880480Y508000D01*
X762000D01*
G01X1113460Y926260D02*
X993740D01*
X904000Y1016000D01*
X762000D01*
G01X1113460Y751890D02*
X1026260D01*
X1016150Y762000D01*
X762000D01*
G01X613460Y3860000D02*
X597460D01*
X483730Y3746270D01*
Y1040270D01*
X762000Y762000D01*
G01X1113460Y1145000D02*
X1026260D01*
X901260Y1270000D01*
X762000D01*
G01Y2171380D02*
Y2286000D01*
G01D02*
Y2400620D01*
G01X647380Y2286000D02*
X762000D01*
G01D02*
X876620D01*
G01X762000Y1917380D02*
Y2032000D01*
G01D02*
Y2146620D01*
G01X647380Y2032000D02*
X762000D01*
G01D02*
X876620D01*
G01X254000Y2171380D02*
Y2286000D01*
G01D02*
Y2400620D01*
G01Y2286000D02*
X368620D01*
G01X254000Y1917380D02*
Y2032000D01*
G01D02*
Y2146620D01*
G01Y2032000D02*
X368620D01*
G01X727030Y4070000D02*
Y3860000D01*
G01D02*
X814230D01*
X860000Y3814230D01*
Y3780000D01*
X1090000Y3550000D01*
X1900000D01*
X2128000Y3322000D01*
Y3160000D01*
G01X726540Y4280000D02*
X760000D01*
G01X1395000Y-3580000D02*
X1415000Y-3600000D01*
G01X1385000Y-3590000D02*
X1395000Y-3580000D01*
G01X1647000Y-1660000D02*
X1525280D01*
G01X1054690Y-290000D02*
Y-191590D01*
G01Y-290000D02*
X1153100D01*
G01X1227030Y248780D02*
X1318780D01*
X1533440Y463440D01*
Y496580D01*
X1580000Y543140D01*
G01X1490000Y130000D02*
X1360000D01*
G01X1490000D02*
Y280000D01*
G01X1227030Y84410D02*
X1304410D01*
X1350000Y130000D01*
X1360000D01*
G01X1227030Y84420D02*
Y84410D01*
G01X1113460D02*
X970000D01*
G01X1113460Y-89960D02*
X970000D01*
G01X1227030Y413150D02*
X1233880Y420000D01*
X1342370D01*
G01X1227030Y-89960D02*
X1319960D01*
X1330000Y-100000D01*
X1342370D01*
G01X1360000Y751890D02*
X1227030D01*
G01Y1145000D02*
Y1057130D01*
X1254160Y1030000D01*
X1320000D01*
G01X1483650Y926350D02*
X1490000Y920000D01*
G01X1342370Y577520D02*
X1227030D01*
G01X1113460Y2440000D02*
Y2560000D01*
G01X1227030Y2440000D02*
X1360000D01*
G01X1112000Y2797730D02*
Y2906000D01*
G01D02*
Y3014270D01*
G01X1003730Y2906000D02*
X1112000D01*
G01D02*
X1220270D01*
G01X1647000Y-1660000D02*
X1730000D01*
X1800000Y-1590000D01*
Y-1280000D01*
X1900000Y-1180000D01*
X2156360D01*
X2221230Y-1115130D01*
Y-829770D01*
G01X2003000Y-1660000D02*
X1910000D01*
X1850000Y-1600000D01*
Y-1300000D01*
X1920000Y-1230000D01*
X2180000D01*
X2280000Y-1130000D01*
Y-986270D01*
X2295160Y-971110D01*
Y-905270D01*
G01X2124720Y-1660000D02*
X2003000D01*
G01X2260000Y80000D02*
Y-749840D01*
X2830000Y-1319840D01*
Y-2515000D01*
X2645480Y-2699520D01*
Y-2820000D01*
G01X2340000Y-330000D02*
Y-760000D01*
X2879380Y-1299380D01*
Y-2540620D01*
X2744520Y-2675480D01*
Y-2820000D01*
G01X1754750Y-895250D02*
X1697800D01*
X1674690Y-872140D01*
Y-561150D01*
X1690000Y-545840D01*
Y-480000D01*
G01X2250940Y2260000D02*
X2310000D01*
G01X2330000Y2280000D02*
X2350000D01*
G01X2310000Y2260000D02*
X2330000Y2280000D01*
G01X1746350Y2160000D02*
X1740000D01*
G01X2640000Y710000D02*
Y630000D01*
X2530000Y520000D01*
Y-110000D01*
X2550000Y-130000D01*
Y-249910D01*
X2638970Y-338880D01*
X2709890D01*
G01X3204860Y-416330D02*
Y-315000D01*
X3179860Y-290000D01*
X3025000D01*
X3000000Y-315000D01*
Y-369690D01*
X2970810Y-398880D01*
X2899890D01*
G01X3139830Y-416330D02*
Y-545290D01*
X3036240Y-648880D01*
X3029890D01*
G01X2869890Y-818880D02*
Y-648880D01*
G01D02*
X3029890D01*
G01X2709890Y-818880D02*
Y-648880D01*
G01Y-498880D02*
Y-648880D01*
G01Y-498880D02*
X2838880D01*
X2880000Y-540000D01*
X3049810D01*
X3074810Y-515000D01*
Y-416330D01*
G01X3029890Y-808880D02*
Y-910000D01*
G01X3069890Y381120D02*
X2919890D01*
G01X2719890Y18020D02*
Y116430D01*
G01D02*
Y214840D01*
G01X2810000Y2190000D02*
X2850000Y2150000D01*
G01X2810000Y2280000D02*
Y2190000D01*
G01X2772800Y2790000D02*
X2770000Y2792800D01*
G01Y3250000D02*
X2760000Y3260000D01*
G01X2770000Y3150320D02*
Y3250000D01*
G01D02*
Y3349680D01*
G01X2619520Y3250000D02*
X2770000D01*
G01X2500000Y3206900D02*
Y3305310D01*
G01D02*
Y3403720D01*
G01X2401590Y3305310D02*
X2500000D01*
G01X2760000Y3520000D02*
Y3647320D01*
G01X2632680Y3520000D02*
X2760000D01*
G01D02*
X2887320D01*
G01X3234310Y-3000690D02*
X3231500Y-3003500D01*
G01X3234310Y-3000690D02*
X3231500Y-2997880D01*
G01X4670000Y2020000D02*
Y1954160D01*
X4680000Y1944160D01*
Y630000D01*
X4740000Y570000D01*
Y250000D01*
X4610000Y120000D01*
Y-650000D01*
X4220000Y-1040000D01*
X3910000D01*
X3395000Y-1555000D01*
Y-1790000D01*
G01X4707080Y37080D02*
Y-28760D01*
X4660000Y-75840D01*
Y-680000D01*
X4240000Y-1100000D01*
X3960000D01*
X3770000Y-1290000D01*
Y-1991350D01*
X3691350Y-2070000D01*
X3685000D01*
G01X3639890Y-218880D02*
X3554650D01*
X3464950Y-308580D01*
Y-416330D01*
G01X3179890Y-648880D02*
X3329890D01*
G01X3204860Y-416330D02*
Y-555140D01*
X3179890Y-580110D01*
Y-648880D01*
G01X3479890D02*
X3619890D01*
X3629890Y-658880D01*
Y-678880D01*
G01D02*
Y-828880D01*
G01X3479890Y-648880D02*
X3334910Y-503900D01*
Y-416330D01*
G01X3629890Y-528880D02*
X3618770Y-540000D01*
X3440010D01*
X3399930Y-499920D01*
Y-416330D01*
G01X3639890Y-378880D02*
Y-447960D01*
X3629890Y-457960D01*
Y-528880D01*
G01X3789890Y-378880D02*
X3639890D01*
G01X3179890Y-910000D02*
Y-808880D01*
G01X3479890D02*
X3329890D01*
G01D02*
Y-901590D01*
G01X3789890Y76120D02*
Y69770D01*
X3709780Y-10340D01*
X3687080D01*
X3629890Y-67530D01*
Y-73880D01*
G01X3639890Y-218880D02*
Y-154800D01*
X3629890Y-144800D01*
Y-73880D01*
G01Y76120D02*
Y219890D01*
X3630000Y220000D01*
G01D02*
X3580000Y270000D01*
X3537290D01*
G01X3630000Y230000D02*
Y220000D01*
G01X3519890Y381120D02*
X3669890D01*
G01X3819890D02*
X3669890D01*
G01X3519890D02*
X3511130D01*
X3464150Y334140D01*
Y239700D01*
X3464950Y238900D01*
Y158570D01*
G01X3369890Y381120D02*
Y391120D01*
X3519890Y541120D01*
G01X3369890Y381120D02*
Y306660D01*
X3399930Y276620D01*
Y158570D01*
G01X3219890Y381120D02*
X3069890D01*
G01X3219890D02*
Y307680D01*
X3237570Y290000D01*
X3310000D01*
X3334910Y265090D01*
Y158570D01*
G01X3519890Y541120D02*
X3669890D01*
G01X3219890D02*
Y599890D01*
X3270000Y650000D01*
X3280000D01*
G01X3069890Y541120D02*
Y649890D01*
G01X3430000Y650000D02*
X3420010D01*
X3369890Y599880D01*
Y541120D01*
G01X3630000Y1740000D02*
X3480000D01*
G01X3930000Y1580000D02*
X3923650D01*
X3843650Y1660000D01*
X3716350D01*
X3636350Y1580000D01*
X3630000D01*
G01D02*
X3623650D01*
X3547400Y1656250D01*
X3412600D01*
X3336350Y1580000D01*
X3330000D01*
G01X4230000Y3100000D02*
Y3174570D01*
X4044570Y3360000D01*
X3990000D01*
X3876650Y3473350D01*
Y3510310D01*
X3826960Y3560000D01*
X3761120D01*
G01X3618880D02*
X3480000D01*
G01X4465000Y-2329720D02*
Y-2165000D01*
X4540000Y-2090000D01*
X4823640D01*
X4955000Y-1958640D01*
Y-1341340D01*
X4928660Y-1315000D01*
X4928640D01*
X4820000Y-1206360D01*
Y-710000D01*
G01X4465000Y-1920000D02*
Y-1730280D01*
G01X4740000Y-630000D02*
Y-1190000D01*
X4910000Y-1360000D01*
Y-1940000D01*
X4805000Y-2045000D01*
X4535000D01*
X4465000Y-1975000D01*
Y-1920000D01*
G01X3789890Y-828880D02*
X4031120D01*
X4169890Y-690110D01*
Y-408880D01*
G01X3789890Y-678880D02*
X3888880D01*
X3900000Y-690000D01*
G01X3789890Y-528880D02*
X3808890D01*
X3864350Y-584340D01*
X3900740D01*
G01X4359890Y351120D02*
X4366240D01*
X4423430Y408310D01*
X4482460D01*
X4520000Y445850D01*
Y1370000D01*
G01X4169890Y-128880D02*
X3960810D01*
X3870810Y-218880D01*
X3789890D01*
G01D02*
Y-73880D01*
G01Y76120D02*
X3893880D01*
X3950000Y20000D01*
X4275010D01*
X4423890Y-128880D01*
G01X4590000Y320000D02*
X4461120Y191120D01*
X4359890D01*
G01X4209890Y171120D02*
X4219890D01*
X4239890Y191120D01*
X4359890D01*
G01X4184630Y335870D02*
Y255380D01*
X4209890Y230120D01*
Y171120D01*
G01X3957180D02*
X4049890D01*
G01X4089640Y335870D02*
Y283460D01*
X4049890Y243710D01*
Y171120D01*
G01X4089640Y335870D02*
Y424570D01*
X4115070Y450000D01*
X4303340D01*
G01X3994640Y335870D02*
X3925000D01*
X3900000Y310870D01*
Y275430D01*
X3854570Y230000D01*
X3790000D01*
G01X3819890Y541120D02*
Y640000D01*
G01X4380000Y2960000D02*
Y2810000D01*
X4400000Y2790000D01*
Y1706360D01*
X4440000Y1666360D01*
Y875800D01*
X4349890Y785690D01*
Y721120D01*
G01D02*
X4169890D01*
G01X4184630Y539070D02*
Y635460D01*
X4169890Y650200D01*
Y721120D01*
G01X4303340Y450000D02*
X4349890Y496550D01*
Y561120D01*
G01X4176000Y955380D02*
Y1070000D01*
G01X4061380D02*
X4176000D01*
G01D02*
X4290620D01*
G01X4080000Y3510000D02*
X4460000Y3130000D01*
Y1710000D01*
X4520000Y1650000D01*
Y1370000D01*
G01X4260000Y1490000D02*
Y1555840D01*
X4215660Y1600180D01*
Y1780000D01*
G01X4140000Y2368090D02*
Y1594540D01*
X4154340Y1580200D01*
Y1490000D01*
G01X4230000Y2210000D02*
Y2940000D01*
G01X4334000Y3510000D02*
Y3336000D01*
X4510000Y3160000D01*
Y1760000D01*
X4602420Y1667580D01*
Y1100000D01*
G01X4473380Y3510000D02*
X4588000D01*
G01X5190000Y-1520000D02*
Y-1526350D01*
X5273750Y-1610100D01*
Y-1746260D01*
X5259750Y-1760260D01*
Y-2025250D01*
G01X5110000Y-466860D02*
Y-649990D01*
X5130000Y-669990D01*
Y-1180000D01*
X5350000Y-1400000D01*
Y-1520000D01*
G01X5000000Y597320D02*
Y380000D01*
X5140000Y240000D01*
Y-360000D01*
X5210000Y-430000D01*
Y-615000D01*
G01X5050000Y-712380D02*
Y-560000D01*
X4990000Y-500000D01*
Y240000D01*
X4876860Y353140D01*
Y640000D01*
G01X5122970Y428260D02*
Y327060D01*
X5200000Y250030D01*
Y-350000D01*
X5300000Y-450000D01*
Y-1170000D01*
X5510000Y-1380000D01*
X5690000D01*
X5965000Y-1655000D01*
Y-1790000D01*
G01X5110000Y-466860D02*
X5060000Y-416860D01*
Y250000D01*
X4950000Y360000D01*
Y710000D01*
X4800000Y860000D01*
Y2380000D01*
X4960000Y2540000D01*
Y2710000D01*
G01X4890000Y180000D02*
X4790000D01*
G01X5122970Y766380D02*
X5043610D01*
X4926940Y883050D01*
Y1563660D01*
G01X5122970Y2197110D02*
X5027110D01*
X4853800Y2023800D01*
Y886200D01*
X5000000Y740000D01*
Y597320D01*
G01X5122970D02*
X5000000D01*
G01X5122970Y935440D02*
X5007630D01*
G01X4762970Y3052010D02*
Y2980810D01*
X4713750Y2931590D01*
Y2556240D01*
X4750000Y2519990D01*
Y832700D01*
X4876860Y705840D01*
Y640000D01*
G01X5122970Y1273560D02*
Y1104500D01*
G01D02*
X5118470Y1100000D01*
X5007630D01*
G01X5122970Y1442620D02*
X5102620D01*
X5030000Y1370000D01*
X5003140D01*
G01X5122970Y1611680D02*
X5028320D01*
X5000000Y1640000D01*
G01X5122970Y1780740D02*
X5035770D01*
X5035030Y1780000D01*
X5007630D01*
G01X5122970Y3564950D02*
X5035770D01*
X5035730Y3564990D01*
X4925000D01*
X4650000Y3289990D01*
Y2130000D01*
G01X5122970Y2539070D02*
Y2368090D01*
G01D02*
X4999040D01*
G01X5122970Y2026130D02*
X5116840Y2020000D01*
X4990000D01*
G01X4876540Y3052010D02*
X4982020D01*
X5010000Y3079990D01*
Y3114990D01*
X5035010Y3140000D01*
X5211540D01*
X5236540Y3165000D01*
Y3222990D01*
G01X4876540D02*
Y3386540D01*
X4972070Y3482070D01*
X5313820D01*
X5440000Y3608250D01*
Y3833780D01*
G01X4762970Y3222990D02*
Y3052010D01*
G01X5122970Y3222990D02*
X5007630D01*
G01X4800000Y2625560D02*
Y2710000D01*
G01D02*
Y2794440D01*
G01X5122970Y2710050D02*
Y2881030D01*
G01Y2710050D02*
X5035770D01*
X5035720Y2710000D01*
X4960000D01*
G01X5122970Y2881030D02*
Y3052010D01*
G01X5000000Y3393970D02*
X5122970D01*
G01X4588000Y3395380D02*
Y3510000D01*
G01D02*
Y3624620D01*
G01Y3510000D02*
X4702620D01*
G01X5801500Y-2624910D02*
Y-2624900D01*
G01X5675000Y-1930000D02*
Y-2094590D01*
X5674500Y-2095090D01*
G01X5770000Y1920000D02*
Y1740000D01*
X5800000Y1710000D01*
Y-130000D01*
X5760000Y-170000D01*
X5570000D01*
X5493750Y-246250D01*
Y-391000D01*
X5520000Y-417250D01*
Y-534520D01*
X5447060Y-607460D01*
Y-610000D01*
G01X5730000Y-440000D02*
X5974690D01*
G01X5840000Y-740000D02*
X5974690D01*
G01X5730000D02*
X5840000D01*
G01X5685000Y-265000D02*
X5620000Y-330000D01*
X5570000D01*
G01X5236540Y428260D02*
X5323740D01*
X5403480Y508000D01*
X5588000D01*
G01X5236540Y597320D02*
X5370000D01*
G01X5236540Y766380D02*
X5240920Y762000D01*
X5588000D01*
G01X5236540Y1273560D02*
X5330440D01*
X5588000Y1016000D01*
G01X5236540Y935440D02*
Y1104500D01*
G01D02*
X5355510D01*
X5359930Y1100080D01*
G01X5236540Y1780740D02*
X5323740D01*
X5326480Y1778000D01*
X5588000D01*
G01X5236540Y1611680D02*
X5348320D01*
X5436000Y1524000D01*
X5588000D01*
G01X5236540Y2368090D02*
X5331920D01*
X5390230Y2309780D01*
X5710220D01*
X5850000Y2170000D01*
Y1840000D01*
X6040220Y1649780D01*
X6224220D01*
X6350000Y1524000D01*
G01X5236540Y1442620D02*
X5415380D01*
X5588000Y1270000D01*
G01X5236540Y2026130D02*
X5430130D01*
X5588000Y2184000D01*
G01X5236540Y2539070D02*
X5339070D01*
X5430000Y2630000D01*
Y2788000D01*
X5588000Y2946000D01*
G01X5236540Y2197110D02*
X5357110D01*
X5360000Y2200000D01*
G01X5236540Y2710050D02*
X5252540D01*
X5420000Y2877510D01*
Y2960000D01*
X5531780Y3071780D01*
X5678220D01*
X5910000Y2840000D01*
Y2030000D01*
X6033780Y1906220D01*
X6153790D01*
X6221780Y1838230D01*
Y1728330D01*
X6297890Y1652220D01*
X6407780D01*
X6480000Y1580000D01*
Y1400000D01*
X6350000Y1270000D01*
G01X5588000Y3454000D02*
X5444000D01*
X5350000Y3360000D01*
Y3255000D01*
X5325000Y3230000D01*
X5243550D01*
X5236540Y3222990D01*
G01Y2881030D02*
X5252540D01*
X5316360Y2944850D01*
X5332850D01*
X5588000Y3200000D01*
G01X5236540Y3052010D02*
X5335750D01*
X5433440Y3149700D01*
Y3279220D01*
X5480000Y3325780D01*
G01X5236540Y3393970D02*
X5313970D01*
X5499780Y3579780D01*
X5740220D01*
X5890000Y3430000D01*
X6222000D01*
X6350000Y3302000D01*
G01X5236540Y3564950D02*
X5323740D01*
X5360000Y3601210D01*
Y4210000D01*
X5491780Y4341780D01*
X5731780D01*
X5962000Y4572000D01*
X6096000D01*
G01X6255000Y-3150000D02*
X6225000Y-3180000D01*
G01X6305000Y-1547030D02*
Y-1684990D01*
X6350000Y-1729990D01*
Y-1979990D01*
X6259990Y-2070000D01*
X6245000D01*
G01X6305000Y-1433460D02*
Y-1005000D01*
X6530000Y-780000D01*
Y1599840D01*
X6432530Y1697310D01*
X6430690D01*
X6350000Y1778000D01*
G01X6875660Y-489030D02*
Y-645660D01*
X7149380Y-919380D01*
Y-1619380D01*
X7200000Y-1670000D01*
X7280000D01*
G01X7434720D02*
X7280000D01*
G01X6835280D02*
X7000000D01*
G01D02*
X7010000Y-1660000D01*
G01D02*
X7059380D01*
X7100000Y-1619380D01*
Y-940000D01*
X6816560Y-656560D01*
Y-535920D01*
X6770000Y-489360D01*
G01X7430000Y-380000D02*
Y-543650D01*
X7350000Y-623650D01*
Y-630000D01*
G01X7404720Y-1640000D02*
X7434720Y-1670000D01*
G54D45*
X2770000Y3250000D03*
Y3021400D03*
Y2792800D03*
G54D18*
X-735000Y-702000D03*
X575000D03*
X1112000Y2906000D03*
X1625060D03*
X1112000Y3414000D03*
X1625060D03*
X2128000Y3160000D03*
X1879060D03*
G54D27*
X565500Y-2095090D03*
X2120500Y1944910D03*
X3485500Y-2095090D03*
X6055500D03*
G54D36*
X1849750Y-895250D03*
X1754750D03*
X1944740D03*
X4089640Y335870D03*
X3994640D03*
X4184630D03*
X5164750Y-2025250D03*
X5259750D03*
X5354740D03*
X7409750Y-995250D03*
X7314750D03*
X7504740D03*
G54D55*
G01X612970Y4280000D02*
X470000D01*
X254000Y4064000D01*
G01X760000Y4280000D02*
X841240D01*
X950000Y4171240D01*
Y3810000D01*
X1120000Y3640000D01*
X1960000D01*
X2310000Y3290000D01*
Y3150000D01*
X2365310Y3094690D01*
X2500000D01*
G01X2745000Y-6050000D02*
Y-5820000D01*
G01X2553980Y-580000D02*
X2460000D01*
G01Y-673980D02*
Y-580000D01*
G01X2772800Y2790000D02*
X2930000D01*
X3050000Y2670000D01*
Y1269990D01*
X2440000Y659990D01*
Y-159990D01*
X2460000Y-179990D01*
Y-580000D01*
G01X3380000Y-6045000D02*
Y-5820000D01*
G01X4015000Y-6060000D02*
Y-5820000D01*
G01X3980000Y1370000D02*
Y1271580D01*
X3922000Y1213580D01*
Y1070000D01*
G01X4176000D02*
Y1211600D01*
G01X3886020Y1470000D02*
X3980000D01*
G01D02*
Y1370000D01*
G01X4176000Y1211600D02*
X4140000Y1247600D01*
G01D02*
Y1370000D01*
G54D19*
X-165000Y-3590000D03*
X-5000D03*
X-165000Y-3420000D03*
X-5000D03*
X-155000Y-2960000D03*
X5000D03*
X475000Y-1790000D03*
X635000D03*
X1085000Y-3590000D03*
X1245000D03*
X1085000Y-3420000D03*
X1245000D03*
X1085000Y-2960000D03*
X1245000D03*
X1490000Y130000D03*
X1650000D03*
X1490000Y280000D03*
X1650000D03*
Y920000D03*
X1490000D03*
X1650000Y1150000D03*
X1490000D03*
Y750000D03*
X1650000D03*
X1780000Y-1060000D03*
X1940000D03*
X1800000Y-530000D03*
X1960000D03*
X2010000Y1230000D03*
X1850000D03*
X2835000Y-3590000D03*
X2995000D03*
X2835000Y-3420000D03*
X2995000D03*
X2835000Y-2960000D03*
X2995000D03*
X2869890Y-648880D03*
X2709890D03*
X2869890Y-818880D03*
X2709890D03*
X3395000Y-1790000D03*
X3555000D03*
X3789890Y-678880D03*
X3629890D03*
Y-828880D03*
X3789890D03*
X3629890Y-528880D03*
X3789890D03*
Y76120D03*
X3629890D03*
X3789890Y-73880D03*
X3629890D03*
X3630000Y230000D03*
X3790000D03*
X3480000Y2140000D03*
X3640000D03*
X3780000D03*
X3180000D03*
X3340000D03*
Y1990000D03*
X3180000D03*
X3640000D03*
X3480000D03*
X3780000D03*
X4055000Y-3590000D03*
X4215000D03*
X4055000Y-3420000D03*
X4215000D03*
X4055000Y-2960000D03*
X4215000D03*
X4049890Y171120D03*
X4209890D03*
X4009890Y721120D03*
X4169890D03*
X3980000Y1370000D03*
X4140000D03*
X3940000Y2140000D03*
Y1990000D03*
X5190000Y-2190000D03*
Y-2340000D03*
Y-1520000D03*
Y-1670000D03*
X4960000Y2710000D03*
X4800000D03*
X5835000Y-3590000D03*
Y-3420000D03*
Y-2960000D03*
X5965000Y-1790000D03*
X5350000Y-2190000D03*
Y-2340000D03*
Y-1520000D03*
Y-1670000D03*
X5410000Y-330000D03*
X5570000D03*
X5995000Y-3590000D03*
Y-3420000D03*
Y-2960000D03*
X6125000Y-1790000D03*
X7035000Y-3590000D03*
X7195000D03*
X7035000Y-3420000D03*
X7195000D03*
X7035000Y-2960000D03*
X7195000D03*
X7350000Y-1160000D03*
Y-1310000D03*
Y-630000D03*
Y-480000D03*
X7510000Y-1160000D03*
Y-1310000D03*
Y-630000D03*
Y-480000D03*
G54D37*
X2044610Y1000000D03*
X2335390D03*
X2144610Y1200000D03*
X2435390D03*
G54D46*
X2760000Y3520000D03*
X4590000Y320000D03*
G54D28*
X727030Y4070000D03*
Y3860000D03*
X1227030Y413150D03*
Y-89960D03*
Y84410D03*
Y248780D03*
Y751890D03*
Y926260D03*
Y1145000D03*
Y577520D03*
Y2440000D03*
G54D56*
G01X-1099990Y-1210000D02*
X-1254680Y-1055310D01*
G01D02*
X-1254690D01*
G01X-1490000Y-1005310D02*
X-1304690D01*
X-1254690Y-1055310D01*
G01X-735000Y-702000D02*
X-1192000D01*
X-1284690Y-794690D01*
X-1490000D01*
G01X-735000Y-1210000D02*
X-890000D01*
G01D02*
X-1099990D01*
G01X1054690Y-290000D02*
X987000D01*
X575000Y-702000D01*
G01X762000Y3302000D02*
X680000D01*
X580000Y3202000D01*
Y2860000D01*
X646000Y2794000D01*
X762000D01*
G54D47*
X3618880Y3560000D03*
X3761120D03*
G54D38*
X1930000Y1680000D03*
G54D29*
X613460Y4070000D03*
Y3860000D03*
X1113460Y413150D03*
Y-89960D03*
Y84410D03*
Y248780D03*
Y751890D03*
Y926260D03*
Y1145000D03*
Y577520D03*
Y2440000D03*
G54D39*
X2350000Y2280000D03*
X2810000D03*
G54D48*
X4465000Y-1730280D03*
Y-2329720D03*
G54D49*
X6305000Y-1547030D03*
M02*
