G04 ================== begin FILE IDENTIFICATION RECORD ==================*
G04 Layout Name:  X-NUCLEO-IHM08M1_ver1_3.brd*
G04 Film Name:    X-NUCLEO-IHM08M1-manufacturing-detail*
G04 File Format:  Gerber RS274X*
G04 File Origin:  Cadence Allegro 16.6-2015-S056*
G04 Origin Date:  Mon Sep 21 16:10:33 2015*
G04 *
G04 Layer:  MANUFACTURING/XSECTION_CHART*
G04 Layer:  MANUFACTURING/NCLEGEND-1-4*
G04 Layer:  BOARD GEOMETRY/OUTLINE*
G04 Layer:  BOARD GEOMETRY/DIMENSION*
G04 *
G04 Offset:    (0.0000 0.0000)*
G04 Mirror:    No*
G04 Mode:      Positive*
G04 Rotation:  0*
G04 FullContactRelief:  No*
G04 UndefLineWidth:     0.0500*
G04 ================== end FILE IDENTIFICATION RECORD ====================*
%FSLAX35Y35*MOMM*%
%IR0*IPPOS*OFA0.00000B0.00000*MIA0B0*SFA1.00000B1.00000*%
%ADD10C,.05*%
G75*
%LPD*%
G75*
G36*
G01X-4512000Y4155000D02*
Y4022000D01*
X-4448500D01*
Y1248000D01*
X-4512000D01*
Y1115000D01*
X-4131000D01*
Y1248000D01*
X-4194500D01*
Y4022000D01*
X-4131000D01*
Y4155000D01*
X-4512000D01*
G37*
G36*
G01X-5020000Y1115000D02*
Y1248000D01*
X-3496000D01*
Y1115000D01*
X-5020000D01*
G37*
G36*
G01Y4022000D02*
Y4155000D01*
X-3496000D01*
Y4022000D01*
X-5020000D01*
G37*
G54D10*
G01Y1248000D02*
Y4022000D01*
X-3496000D01*
Y1248000D01*
X-5020000D01*
G01X-2958000Y-1897000D02*
Y-1643000D01*
X-2996100Y-1693800D01*
G01Y-1897000D02*
X-2919910D01*
G01X-2704000D02*
Y-1643000D01*
X-2742100Y-1693800D01*
G01Y-1897000D02*
X-2665910D01*
G01X-2411900D02*
Y-1643000D01*
X-2529380Y-1825030D01*
X-2370620D01*
G01X-2196000Y-1905460D02*
X-2202350Y-1901230D01*
Y-1892770D01*
X-2196000Y-1888540D01*
X-2189650Y-1892770D01*
Y-1901230D01*
X-2196000Y-1905460D01*
G01X-1942000Y-1897000D02*
Y-1643000D01*
X-1980100Y-1693800D01*
G01Y-1897000D02*
X-1903910D01*
G01X-1900000Y-6650000D02*
X-2700000D01*
G01X-2450000Y-2087500D02*
Y-6650000D01*
G01X-2512500Y-6250000D02*
X-2450000Y-6650000D01*
X-2387500Y-6250000D01*
X-2512500D01*
G01X-2450000Y-1452500D02*
Y4760010D01*
G01X-2387500Y4360010D02*
X-2450000Y4760010D01*
X-2512500Y4360010D01*
X-2387500D01*
G01X-574990Y4760010D02*
X-2700000D01*
G01X-1650000Y-6900000D02*
Y-7370000D01*
G01X2593170Y-7120000D02*
X-1650000D01*
G01X-1250000Y-7057500D02*
X-1650000Y-7120000D01*
X-1250000Y-7182500D01*
Y-7057500D01*
G01X6674990Y-250000D02*
Y4760010D01*
X5188000D01*
Y3724000D01*
X1162000D01*
Y4760010D01*
X-324990D01*
Y-250000D01*
X-1650000D01*
Y-6650000D01*
X8000000D01*
Y-250000D01*
X6674990D01*
G01X-324990Y5010010D02*
Y5180000D01*
G01X2837140Y4930000D02*
X-324990D01*
G01X75010Y4992500D02*
X-324990Y4930000D01*
X75010Y4867500D01*
Y4992500D01*
G01X2824940Y-7217370D02*
X2847170Y-7238540D01*
X2872570Y-7247000D01*
X2897970Y-7238540D01*
X2920190Y-7213140D01*
X2936070Y-7175030D01*
X2942420Y-7136930D01*
Y-7090370D01*
X2936070Y-7052270D01*
X2920190Y-7018400D01*
X2901140Y-7001460D01*
X2878920Y-6993000D01*
X2853520Y-7001460D01*
X2834470Y-7018400D01*
X2821770Y-7043800D01*
X2815420Y-7077670D01*
X2821770Y-7107300D01*
X2837650Y-7136930D01*
X2856700Y-7153870D01*
X2878920Y-7158100D01*
X2904320Y-7149640D01*
X2923370Y-7128470D01*
X2942420Y-7090370D01*
G01X3072590Y-7141170D02*
X3094820Y-7111530D01*
X3113870Y-7094600D01*
X3139270Y-7086140D01*
X3161500Y-7094600D01*
X3177370Y-7111530D01*
X3190070Y-7136930D01*
X3193250Y-7166570D01*
X3190070Y-7191970D01*
X3177370Y-7217370D01*
X3158320Y-7238540D01*
X3136100Y-7247000D01*
X3110700Y-7238540D01*
X3088470Y-7213140D01*
X3075770Y-7175030D01*
X3072590Y-7132700D01*
X3078940Y-7077670D01*
X3088470Y-7048030D01*
X3104340Y-7018400D01*
X3126570Y-6997230D01*
X3148790Y-6993000D01*
X3171020Y-7001460D01*
X3186900Y-7022630D01*
G01X3386920Y-7255460D02*
X3380570Y-7251230D01*
Y-7242770D01*
X3386920Y-7238540D01*
X3393270Y-7242770D01*
Y-7251230D01*
X3386920Y-7255460D01*
G01X3571070Y-7208910D02*
X3590120Y-7230070D01*
X3612340Y-7242770D01*
X3640920Y-7247000D01*
X3669500Y-7238540D01*
X3691720Y-7221610D01*
X3707600Y-7191970D01*
X3710770Y-7158100D01*
X3704420Y-7124240D01*
X3688540Y-7103070D01*
X3666320Y-7086140D01*
X3644100Y-7081900D01*
X3621870Y-7086140D01*
X3593300Y-7103070D01*
X3602820Y-6993000D01*
X3688540D01*
G01X3116540Y4803000D02*
X3122890Y4858030D01*
X3132420Y4904590D01*
X3145110Y4946930D01*
X3160990Y4993500D01*
X3186390Y5057000D01*
X3059390D01*
G01X3376890D02*
X3351490Y5048540D01*
X3332440Y5027370D01*
X3319740Y5001970D01*
X3310210Y4968100D01*
X3307040Y4930000D01*
X3310210Y4891900D01*
X3319740Y4858030D01*
X3332440Y4832630D01*
X3351490Y4811460D01*
X3376890Y4803000D01*
X3402290Y4811460D01*
X3421340Y4832630D01*
X3434040Y4858030D01*
X3443570Y4891900D01*
X3446740Y4930000D01*
X3443570Y4968100D01*
X3434040Y5001970D01*
X3421340Y5027370D01*
X3402290Y5048540D01*
X3376890Y5057000D01*
G01X3662640Y4930000D02*
X6674990D01*
G01X3926670Y-7120000D02*
X8000000D01*
G01X6274990Y4867500D02*
X6674990Y4930000D01*
X6274990Y4992500D01*
Y4867500D01*
G01X6674990Y5010010D02*
Y5180000D01*
G01X8000000Y-6900000D02*
Y-7370000D01*
G01X7600000Y-7182500D02*
X8000000Y-7120000D01*
X7600000Y-7057500D01*
Y-7182500D01*
G01X-4971400Y892500D02*
Y952500D01*
X-4957850D01*
X-4952440Y949500D01*
X-4948370Y945500D01*
X-4944980Y939500D01*
X-4942280Y932500D01*
X-4941600Y922500D01*
X-4942280Y912500D01*
X-4944980Y905500D01*
X-4948370Y899500D01*
X-4952440Y895500D01*
X-4957850Y892500D01*
X-4971400D01*
G01X-4887070D02*
X-4914170D01*
Y952500D01*
X-4887070D01*
G01X-4897910Y923500D02*
X-4914170D01*
G01X-4858960Y900500D02*
X-4853550Y895500D01*
X-4847450Y892500D01*
X-4842030D01*
X-4836610Y895500D01*
X-4832550Y900500D01*
X-4830520Y907500D01*
X-4831870Y914500D01*
X-4835260Y920500D01*
X-4841350Y924500D01*
X-4849480Y926500D01*
X-4854220Y930500D01*
X-4856260Y937500D01*
X-4854900Y944500D01*
X-4851510Y949500D01*
X-4846770Y952500D01*
X-4842030D01*
X-4837290Y950500D01*
X-4833220Y945500D01*
G01X-4796990Y952500D02*
X-4780730D01*
G01X-4788860D02*
Y892500D01*
G01X-4796990D02*
X-4780730D01*
G01X-4728920Y922500D02*
X-4715370D01*
Y904500D01*
X-4719430Y898500D01*
X-4724170Y894500D01*
X-4730950Y892500D01*
X-4737720Y894500D01*
X-4742460Y898500D01*
X-4746530Y904500D01*
X-4749240Y911500D01*
X-4750590Y919500D01*
Y926500D01*
X-4749240Y932500D01*
X-4746530Y939500D01*
X-4742460Y945500D01*
X-4738400Y949500D01*
X-4732980Y952500D01*
X-4728240D01*
X-4722820Y950500D01*
X-4718760Y946500D01*
G01X-4692680Y892500D02*
Y952500D01*
X-4661520Y892500D01*
Y952500D01*
G01X-4550440Y947500D02*
X-4554500Y950500D01*
X-4559240Y952500D01*
X-4564660D01*
X-4570760Y949500D01*
X-4575500Y944500D01*
X-4578890Y938500D01*
X-4581600Y928500D01*
X-4582270Y919500D01*
X-4580920Y910500D01*
X-4578890Y904500D01*
X-4574820Y898500D01*
X-4570080Y894500D01*
X-4565340Y892500D01*
X-4560600D01*
X-4555860Y894500D01*
X-4551790Y897500D01*
X-4548410Y901500D01*
G01X-4523010Y892500D02*
Y952500D01*
X-4506070D01*
X-4500650Y949500D01*
X-4497270Y945500D01*
X-4495910Y937500D01*
X-4497270Y929500D01*
X-4501330Y924500D01*
X-4506070Y921500D01*
X-4523010D01*
G01X-4506070D02*
X-4495910Y892500D01*
G01X-4453580D02*
X-4459000Y893500D01*
X-4463740Y897500D01*
X-4467800Y903500D01*
X-4470510Y910500D01*
X-4471870Y918500D01*
Y926500D01*
X-4470510Y934500D01*
X-4467800Y941500D01*
X-4463740Y947500D01*
X-4459000Y951500D01*
X-4453580Y952500D01*
X-4448160Y951500D01*
X-4443420Y947500D01*
X-4439360Y941500D01*
X-4436650Y934500D01*
X-4435290Y926500D01*
Y918500D01*
X-4436650Y910500D01*
X-4439360Y903500D01*
X-4443420Y897500D01*
X-4448160Y893500D01*
X-4453580Y892500D01*
G01X-4411920Y900500D02*
X-4406510Y895500D01*
X-4400410Y892500D01*
X-4394990D01*
X-4389570Y895500D01*
X-4385510Y900500D01*
X-4383480Y907500D01*
X-4384830Y914500D01*
X-4388220Y920500D01*
X-4394310Y924500D01*
X-4402440Y926500D01*
X-4407180Y930500D01*
X-4409220Y937500D01*
X-4407860Y944500D01*
X-4404470Y949500D01*
X-4399730Y952500D01*
X-4394990D01*
X-4390250Y950500D01*
X-4386180Y945500D01*
G01X-4356040Y900500D02*
X-4350630Y895500D01*
X-4344530Y892500D01*
X-4339110D01*
X-4333690Y895500D01*
X-4329630Y900500D01*
X-4327600Y907500D01*
X-4328950Y914500D01*
X-4332340Y920500D01*
X-4338430Y924500D01*
X-4346560Y926500D01*
X-4351300Y930500D01*
X-4353340Y937500D01*
X-4351980Y944500D01*
X-4348590Y949500D01*
X-4343850Y952500D01*
X-4339110D01*
X-4334370Y950500D01*
X-4330300Y945500D01*
G01X-4244280Y900500D02*
X-4238870Y895500D01*
X-4232770Y892500D01*
X-4227350D01*
X-4221930Y895500D01*
X-4217870Y900500D01*
X-4215840Y907500D01*
X-4217190Y914500D01*
X-4220580Y920500D01*
X-4226670Y924500D01*
X-4234800Y926500D01*
X-4239540Y930500D01*
X-4241580Y937500D01*
X-4240220Y944500D01*
X-4236830Y949500D01*
X-4232090Y952500D01*
X-4227350D01*
X-4222610Y950500D01*
X-4218540Y945500D01*
G01X-4160630Y892500D02*
X-4187730D01*
Y952500D01*
X-4160630D01*
G01X-4171470Y923500D02*
X-4187730D01*
G01X-4103400Y947500D02*
X-4107460Y950500D01*
X-4112200Y952500D01*
X-4117620D01*
X-4123720Y949500D01*
X-4128460Y944500D01*
X-4131850Y938500D01*
X-4134560Y928500D01*
X-4135230Y919500D01*
X-4133880Y910500D01*
X-4131850Y904500D01*
X-4127780Y898500D01*
X-4123040Y894500D01*
X-4118300Y892500D01*
X-4113560D01*
X-4108820Y894500D01*
X-4104750Y897500D01*
X-4101370Y901500D01*
G01X-4062420Y952500D02*
Y892500D01*
G01X-4078000Y952500D02*
X-4046840D01*
G01X-4014670D02*
X-3998410D01*
G01X-4006540D02*
Y892500D01*
G01X-4014670D02*
X-3998410D01*
G01X-3950660D02*
X-3956080Y893500D01*
X-3960820Y897500D01*
X-3964880Y903500D01*
X-3967590Y910500D01*
X-3968950Y918500D01*
Y926500D01*
X-3967590Y934500D01*
X-3964880Y941500D01*
X-3960820Y947500D01*
X-3956080Y951500D01*
X-3950660Y952500D01*
X-3945240Y951500D01*
X-3940500Y947500D01*
X-3936440Y941500D01*
X-3933730Y934500D01*
X-3932370Y926500D01*
Y918500D01*
X-3933730Y910500D01*
X-3936440Y903500D01*
X-3940500Y897500D01*
X-3945240Y893500D01*
X-3950660Y892500D01*
G01X-3910360D02*
Y952500D01*
X-3879200Y892500D01*
Y952500D01*
G01X-3768120Y947500D02*
X-3772180Y950500D01*
X-3776920Y952500D01*
X-3782340D01*
X-3788440Y949500D01*
X-3793180Y944500D01*
X-3796570Y938500D01*
X-3799280Y928500D01*
X-3799950Y919500D01*
X-3798600Y910500D01*
X-3796570Y904500D01*
X-3792500Y898500D01*
X-3787760Y894500D01*
X-3783020Y892500D01*
X-3778280D01*
X-3773540Y894500D01*
X-3769470Y897500D01*
X-3766090Y901500D01*
G01X-3741360Y892500D02*
Y952500D01*
G01X-3712920D02*
Y892500D01*
G01Y922500D02*
X-3741360D01*
G01X-3688190Y892500D02*
X-3671260Y952500D01*
X-3654330Y892500D01*
G01X-3660420Y913500D02*
X-3682100D01*
G01X-3628930Y892500D02*
Y952500D01*
X-3611990D01*
X-3606570Y949500D01*
X-3603190Y945500D01*
X-3601830Y937500D01*
X-3603190Y929500D01*
X-3607250Y924500D01*
X-3611990Y921500D01*
X-3628930D01*
G01X-3611990D02*
X-3601830Y892500D01*
G01X-3559500Y952500D02*
Y892500D01*
G01X-3575080Y952500D02*
X-3543920D01*
G01X-5004760Y872500D02*
X-4964120D01*
G01X-4948880D02*
X-4908240D01*
G01X-4893000D02*
X-4852360D01*
G01X-4837120D02*
X-4796480D01*
G01X-4781240D02*
X-4740600D01*
G01X-4725360D02*
X-4684720D01*
G01X-4669480D02*
X-4628840D01*
G01X-4613600D02*
X-4572960D01*
G01X-4557720D02*
X-4517080D01*
G01X-4501840D02*
X-4461200D01*
G01X-4445960D02*
X-4405320D01*
G01X-4390080D02*
X-4349440D01*
G01X-4334200D02*
X-4293560D01*
G01X-4278320D02*
X-4237680D01*
G01X-4222440D02*
X-4181800D01*
G01X-4166560D02*
X-4125920D01*
G01X-4110680D02*
X-4070040D01*
G01X-4054800D02*
X-4014160D01*
G01X-3998920D02*
X-3958280D01*
G01X-3943040D02*
X-3902400D01*
G01X-3887160D02*
X-3846520D01*
G01X-3831280D02*
X-3790640D01*
G01X-3775400D02*
X-3734760D01*
G01X-3719520D02*
X-3678880D01*
G01X-3663640D02*
X-3623000D01*
G01X-3607760D02*
X-3567120D01*
G01X-3551880D02*
X-3511240D01*
G01X-4844740Y832500D02*
Y772500D01*
G01X-4860320Y832500D02*
X-4829160D01*
G01X-4788860Y772500D02*
X-4794280Y773500D01*
X-4799020Y777500D01*
X-4803080Y783500D01*
X-4805790Y790500D01*
X-4807150Y798500D01*
Y806500D01*
X-4805790Y814500D01*
X-4803080Y821500D01*
X-4799020Y827500D01*
X-4794280Y831500D01*
X-4788860Y832500D01*
X-4783440Y831500D01*
X-4778700Y827500D01*
X-4774640Y821500D01*
X-4771930Y814500D01*
X-4770570Y806500D01*
Y798500D01*
X-4771930Y790500D01*
X-4774640Y783500D01*
X-4778700Y777500D01*
X-4783440Y773500D01*
X-4788860Y772500D01*
G01X-4732980Y832500D02*
Y772500D01*
G01X-4748560Y832500D02*
X-4717400D01*
G01X-4694030Y772500D02*
X-4677100Y832500D01*
X-4660170Y772500D01*
G01X-4666260Y793500D02*
X-4687940D01*
G01X-4634770Y832500D02*
Y772500D01*
X-4607670D01*
G01X-4509460Y832500D02*
Y772500D01*
G01X-4525040Y832500D02*
X-4493880D01*
G01X-4467800Y772500D02*
Y832500D01*
G01X-4439360D02*
Y772500D01*
G01Y802500D02*
X-4467800D01*
G01X-4405830Y832500D02*
X-4389570D01*
G01X-4397700D02*
Y772500D01*
G01X-4405830D02*
X-4389570D01*
G01X-4326920Y827500D02*
X-4330980Y830500D01*
X-4335720Y832500D01*
X-4341140D01*
X-4347240Y829500D01*
X-4351980Y824500D01*
X-4355370Y818500D01*
X-4358080Y808500D01*
X-4358750Y799500D01*
X-4357400Y790500D01*
X-4355370Y784500D01*
X-4351300Y778500D01*
X-4346560Y774500D01*
X-4341820Y772500D01*
X-4337080D01*
X-4332340Y774500D01*
X-4328270Y777500D01*
X-4324890Y781500D01*
G01X-4300840Y772500D02*
Y832500D01*
G01X-4275100D02*
X-4300840Y795500D01*
G01X-4271040Y772500D02*
X-4289330Y812500D01*
G01X-4245640Y772500D02*
Y832500D01*
X-4214480Y772500D01*
Y832500D01*
G01X-4160630Y772500D02*
X-4187730D01*
Y832500D01*
X-4160630D01*
G01X-4171470Y803500D02*
X-4187730D01*
G01X-4132520Y780500D02*
X-4127110Y775500D01*
X-4121010Y772500D01*
X-4115590D01*
X-4110170Y775500D01*
X-4106110Y780500D01*
X-4104080Y787500D01*
X-4105430Y794500D01*
X-4108820Y800500D01*
X-4114910Y804500D01*
X-4123040Y806500D01*
X-4127780Y810500D01*
X-4129820Y817500D01*
X-4128460Y824500D01*
X-4125070Y829500D01*
X-4120330Y832500D01*
X-4115590D01*
X-4110850Y830500D01*
X-4106780Y825500D01*
G01X-4076640Y780500D02*
X-4071230Y775500D01*
X-4065130Y772500D01*
X-4059710D01*
X-4054290Y775500D01*
X-4050230Y780500D01*
X-4048200Y787500D01*
X-4049550Y794500D01*
X-4052940Y800500D01*
X-4059030Y804500D01*
X-4067160Y806500D01*
X-4071900Y810500D01*
X-4073940Y817500D01*
X-4072580Y824500D01*
X-4069190Y829500D01*
X-4064450Y832500D01*
X-4059710D01*
X-4054970Y830500D01*
X-4050900Y825500D01*
G01X-3950660Y772500D02*
Y832500D01*
X-3958790Y820500D01*
G01Y772500D02*
X-3942530D01*
G01X-3894780Y770500D02*
X-3896130Y771500D01*
Y773500D01*
X-3894780Y774500D01*
X-3893430Y773500D01*
Y771500D01*
X-3894780Y770500D01*
G01X-3851770Y797500D02*
X-3847030Y804500D01*
X-3842960Y808500D01*
X-3837550Y810500D01*
X-3832800Y808500D01*
X-3829420Y804500D01*
X-3826710Y798500D01*
X-3826030Y791500D01*
X-3826710Y785500D01*
X-3829420Y779500D01*
X-3833480Y774500D01*
X-3838220Y772500D01*
X-3843640Y774500D01*
X-3848380Y780500D01*
X-3851090Y789500D01*
X-3851770Y799500D01*
X-3850420Y812500D01*
X-3848380Y819500D01*
X-3845000Y826500D01*
X-3840250Y831500D01*
X-3835510Y832500D01*
X-3830770Y830500D01*
X-3827380Y825500D01*
G01X-3744750Y772500D02*
Y832500D01*
X-3727140Y782500D01*
X-3709530Y832500D01*
Y772500D01*
G01X-3688870D02*
Y832500D01*
X-3671260Y782500D01*
X-3653650Y832500D01*
Y772500D01*
G01X-4321500Y4235320D02*
X-4381500D01*
X-4369500Y4227190D01*
G01X-4321500D02*
Y4243450D01*
G01X-4341500Y4282390D02*
Y4300010D01*
G01X-4371500Y4334210D02*
X-4377500Y4338270D01*
X-4380500Y4343020D01*
X-4381500Y4348430D01*
X-4379500Y4355210D01*
X-4374500Y4359950D01*
X-4368500Y4361300D01*
X-4362500Y4360630D01*
X-4357500Y4357920D01*
X-4347500Y4344370D01*
X-4340500Y4338270D01*
X-4330500Y4334210D01*
X-4321500Y4332860D01*
Y4361300D01*
G01X-3322940Y1033000D02*
X-3293140Y1077000D01*
G01X-3308040Y1085000D02*
Y1025000D01*
G01X-3293140Y1033000D02*
X-3322940Y1077000D01*
G01X-3328360Y1055000D02*
X-3287720D01*
G01X-3154620Y1043000D02*
X-3149210Y1038000D01*
X-3143110Y1035000D01*
X-3137690D01*
X-3132270Y1038000D01*
X-3128210Y1043000D01*
X-3126180Y1050000D01*
X-3127530Y1057000D01*
X-3130920Y1063000D01*
X-3137010Y1067000D01*
X-3145140Y1069000D01*
X-3149880Y1073000D01*
X-3151920Y1080000D01*
X-3150560Y1087000D01*
X-3147170Y1092000D01*
X-3142430Y1095000D01*
X-3137690D01*
X-3132950Y1093000D01*
X-3128880Y1088000D01*
G01X-3099420Y1095000D02*
Y1052000D01*
X-3096710Y1043000D01*
X-3091290Y1037000D01*
X-3084520Y1035000D01*
X-3077750Y1037000D01*
X-3072330Y1043000D01*
X-3069620Y1052000D01*
Y1095000D01*
G01X-3042190Y1035000D02*
Y1095000D01*
X-3025250D01*
X-3019830Y1092000D01*
X-3016450Y1088000D01*
X-3015090Y1080000D01*
X-3016450Y1072000D01*
X-3020510Y1067000D01*
X-3025250Y1064000D01*
X-3042190D01*
G01X-3025250D02*
X-3015090Y1035000D01*
G01X-2985630D02*
Y1095000D01*
X-2959890D01*
G01X-2969370Y1066000D02*
X-2985630D01*
G01X-2933810Y1035000D02*
X-2916880Y1095000D01*
X-2899950Y1035000D01*
G01X-2906040Y1056000D02*
X-2927720D01*
G01X-2846100Y1090000D02*
X-2850160Y1093000D01*
X-2854900Y1095000D01*
X-2860320D01*
X-2866420Y1092000D01*
X-2871160Y1087000D01*
X-2874550Y1081000D01*
X-2877260Y1071000D01*
X-2877930Y1062000D01*
X-2876580Y1053000D01*
X-2874550Y1047000D01*
X-2870480Y1041000D01*
X-2865740Y1037000D01*
X-2861000Y1035000D01*
X-2856260D01*
X-2851520Y1037000D01*
X-2847450Y1040000D01*
X-2844070Y1044000D01*
G01X-2791570Y1035000D02*
X-2818670D01*
Y1095000D01*
X-2791570D01*
G01X-2802410Y1066000D02*
X-2818670D01*
G01X-2702170Y1055000D02*
X-2684550D01*
G01X-2598530Y1035000D02*
X-2581600Y1095000D01*
X-2564670Y1035000D01*
G01X-2570760Y1056000D02*
X-2592440D01*
G01X-2533850Y1095000D02*
X-2517590D01*
G01X-2525720D02*
Y1035000D01*
G01X-2533850D02*
X-2517590D01*
G01X-2483390D02*
Y1095000D01*
X-2466450D01*
X-2461030Y1092000D01*
X-2457650Y1088000D01*
X-2456290Y1080000D01*
X-2457650Y1072000D01*
X-2461710Y1067000D01*
X-2466450Y1064000D01*
X-2483390D01*
G01X-2466450D02*
X-2456290Y1035000D01*
G01X-2358080Y1095000D02*
X-2363500Y1093000D01*
X-2367560Y1088000D01*
X-2370270Y1082000D01*
X-2372300Y1074000D01*
X-2372980Y1065000D01*
X-2372300Y1056000D01*
X-2370270Y1048000D01*
X-2367560Y1042000D01*
X-2363500Y1037000D01*
X-2358080Y1035000D01*
X-2352660Y1037000D01*
X-2348600Y1042000D01*
X-2345890Y1048000D01*
X-2343860Y1056000D01*
X-2343180Y1065000D01*
X-2343860Y1074000D01*
X-2345890Y1082000D01*
X-2348600Y1088000D01*
X-2352660Y1093000D01*
X-2358080Y1095000D01*
G01X-2263930Y1035000D02*
Y1095000D01*
X-2246320Y1045000D01*
X-2228710Y1095000D01*
Y1035000D01*
G01X-2208050D02*
Y1095000D01*
X-2190440Y1045000D01*
X-2172830Y1095000D01*
Y1035000D01*
G01X-3433350Y1228000D02*
Y1168000D01*
X-3406250D01*
G01X-3376790Y1218000D02*
X-3372730Y1224000D01*
X-3367980Y1227000D01*
X-3362570Y1228000D01*
X-3355790Y1226000D01*
X-3351050Y1221000D01*
X-3349700Y1215000D01*
X-3350370Y1209000D01*
X-3353080Y1204000D01*
X-3366630Y1194000D01*
X-3372730Y1187000D01*
X-3376790Y1177000D01*
X-3378140Y1168000D01*
X-3349700D01*
G01X-3308040Y1166000D02*
X-3309390Y1167000D01*
Y1169000D01*
X-3308040Y1170000D01*
X-3306690Y1169000D01*
Y1167000D01*
X-3308040Y1166000D01*
G01Y1193000D02*
X-3309390Y1194000D01*
Y1196000D01*
X-3308040Y1197000D01*
X-3306690Y1196000D01*
Y1194000D01*
X-3308040Y1193000D01*
G01X-3190860Y1200000D02*
X-3188150Y1203000D01*
X-3186120Y1208000D01*
X-3184760Y1215000D01*
X-3186120Y1221000D01*
X-3188830Y1225000D01*
X-3193570Y1228000D01*
X-3211860D01*
Y1168000D01*
X-3189510D01*
X-3184760Y1172000D01*
X-3182060Y1178000D01*
X-3180700Y1185000D01*
X-3182060Y1192000D01*
X-3186120Y1198000D01*
X-3190860Y1200000D01*
X-3211860D01*
G01X-3140400Y1168000D02*
X-3145820Y1169000D01*
X-3150560Y1173000D01*
X-3154620Y1179000D01*
X-3157330Y1186000D01*
X-3158690Y1194000D01*
Y1202000D01*
X-3157330Y1210000D01*
X-3154620Y1217000D01*
X-3150560Y1223000D01*
X-3145820Y1227000D01*
X-3140400Y1228000D01*
X-3134980Y1227000D01*
X-3130240Y1223000D01*
X-3126180Y1217000D01*
X-3123470Y1210000D01*
X-3122110Y1202000D01*
Y1194000D01*
X-3123470Y1186000D01*
X-3126180Y1179000D01*
X-3130240Y1173000D01*
X-3134980Y1169000D01*
X-3140400Y1168000D01*
G01X-3084520Y1228000D02*
Y1168000D01*
G01X-3100100Y1228000D02*
X-3068940D01*
G01X-3028640D02*
Y1168000D01*
G01X-3044220Y1228000D02*
X-3013060D01*
G01X-2972760Y1168000D02*
X-2978180Y1169000D01*
X-2982920Y1173000D01*
X-2986980Y1179000D01*
X-2989690Y1186000D01*
X-2991050Y1194000D01*
Y1202000D01*
X-2989690Y1210000D01*
X-2986980Y1217000D01*
X-2982920Y1223000D01*
X-2978180Y1227000D01*
X-2972760Y1228000D01*
X-2967340Y1227000D01*
X-2962600Y1223000D01*
X-2958540Y1217000D01*
X-2955830Y1210000D01*
X-2954470Y1202000D01*
Y1194000D01*
X-2955830Y1186000D01*
X-2958540Y1179000D01*
X-2962600Y1173000D01*
X-2967340Y1169000D01*
X-2972760Y1168000D01*
G01X-2934490D02*
Y1228000D01*
X-2916880Y1178000D01*
X-2899270Y1228000D01*
Y1168000D01*
G01X-2790220Y1223000D02*
X-2794280Y1226000D01*
X-2799020Y1228000D01*
X-2804440D01*
X-2810540Y1225000D01*
X-2815280Y1220000D01*
X-2818670Y1214000D01*
X-2821380Y1204000D01*
X-2822050Y1195000D01*
X-2820700Y1186000D01*
X-2818670Y1180000D01*
X-2814600Y1174000D01*
X-2809860Y1170000D01*
X-2805120Y1168000D01*
X-2800380D01*
X-2795640Y1170000D01*
X-2791570Y1173000D01*
X-2788190Y1177000D01*
G01X-2749240Y1168000D02*
X-2754660Y1169000D01*
X-2759400Y1173000D01*
X-2763460Y1179000D01*
X-2766170Y1186000D01*
X-2767530Y1194000D01*
Y1202000D01*
X-2766170Y1210000D01*
X-2763460Y1217000D01*
X-2759400Y1223000D01*
X-2754660Y1227000D01*
X-2749240Y1228000D01*
X-2743820Y1227000D01*
X-2739080Y1223000D01*
X-2735020Y1217000D01*
X-2732310Y1210000D01*
X-2730950Y1202000D01*
Y1194000D01*
X-2732310Y1186000D01*
X-2735020Y1179000D01*
X-2739080Y1173000D01*
X-2743820Y1169000D01*
X-2749240Y1168000D01*
G01X-2708940D02*
Y1228000D01*
X-2677780Y1168000D01*
Y1228000D01*
G01X-2652380Y1168000D02*
Y1228000D01*
X-2638830D01*
X-2633420Y1225000D01*
X-2629350Y1221000D01*
X-2625960Y1215000D01*
X-2623260Y1208000D01*
X-2622580Y1198000D01*
X-2623260Y1188000D01*
X-2625960Y1181000D01*
X-2629350Y1175000D01*
X-2633420Y1171000D01*
X-2638830Y1168000D01*
X-2652380D01*
G01X-2596500Y1228000D02*
Y1185000D01*
X-2593790Y1176000D01*
X-2588370Y1170000D01*
X-2581600Y1168000D01*
X-2574830Y1170000D01*
X-2569410Y1176000D01*
X-2566700Y1185000D01*
Y1228000D01*
G01X-2510820Y1223000D02*
X-2514880Y1226000D01*
X-2519620Y1228000D01*
X-2525040D01*
X-2531140Y1225000D01*
X-2535880Y1220000D01*
X-2539270Y1214000D01*
X-2541980Y1204000D01*
X-2542650Y1195000D01*
X-2541300Y1186000D01*
X-2539270Y1180000D01*
X-2535200Y1174000D01*
X-2530460Y1170000D01*
X-2525720Y1168000D01*
X-2520980D01*
X-2516240Y1170000D01*
X-2512170Y1173000D01*
X-2508790Y1177000D01*
G01X-2469840Y1228000D02*
Y1168000D01*
G01X-2485420Y1228000D02*
X-2454260D01*
G01X-2413960Y1168000D02*
X-2419380Y1169000D01*
X-2424120Y1173000D01*
X-2428180Y1179000D01*
X-2430890Y1186000D01*
X-2432250Y1194000D01*
Y1202000D01*
X-2430890Y1210000D01*
X-2428180Y1217000D01*
X-2424120Y1223000D01*
X-2419380Y1227000D01*
X-2413960Y1228000D01*
X-2408540Y1227000D01*
X-2403800Y1223000D01*
X-2399740Y1217000D01*
X-2397030Y1210000D01*
X-2395670Y1202000D01*
Y1194000D01*
X-2397030Y1186000D01*
X-2399740Y1179000D01*
X-2403800Y1173000D01*
X-2408540Y1169000D01*
X-2413960Y1168000D01*
G01X-2371630D02*
Y1228000D01*
X-2354690D01*
X-2349270Y1225000D01*
X-2345890Y1221000D01*
X-2344530Y1213000D01*
X-2345890Y1205000D01*
X-2349950Y1200000D01*
X-2354690Y1197000D01*
X-2371630D01*
G01X-2354690D02*
X-2344530Y1168000D01*
G01X-2255130Y1188000D02*
X-2237510D01*
G01X-2119660Y1223000D02*
X-2123720Y1226000D01*
X-2128460Y1228000D01*
X-2133880D01*
X-2139980Y1225000D01*
X-2144720Y1220000D01*
X-2148110Y1214000D01*
X-2150820Y1204000D01*
X-2151490Y1195000D01*
X-2150140Y1186000D01*
X-2148110Y1180000D01*
X-2144040Y1174000D01*
X-2139300Y1170000D01*
X-2134560Y1168000D01*
X-2129820D01*
X-2125080Y1170000D01*
X-2121010Y1173000D01*
X-2117630Y1177000D01*
G01X-2078680Y1168000D02*
X-2084100Y1169000D01*
X-2088840Y1173000D01*
X-2092900Y1179000D01*
X-2095610Y1186000D01*
X-2096970Y1194000D01*
Y1202000D01*
X-2095610Y1210000D01*
X-2092900Y1217000D01*
X-2088840Y1223000D01*
X-2084100Y1227000D01*
X-2078680Y1228000D01*
X-2073260Y1227000D01*
X-2068520Y1223000D01*
X-2064460Y1217000D01*
X-2061750Y1210000D01*
X-2060390Y1202000D01*
Y1194000D01*
X-2061750Y1186000D01*
X-2064460Y1179000D01*
X-2068520Y1173000D01*
X-2073260Y1169000D01*
X-2078680Y1168000D01*
G01X-2036350D02*
Y1228000D01*
X-2020090D01*
X-2014670Y1225000D01*
X-2010610Y1218000D01*
X-2009250Y1210000D01*
X-2010610Y1202000D01*
X-2013990Y1196000D01*
X-2020090Y1193000D01*
X-2036350D01*
G01X-1980470Y1168000D02*
Y1228000D01*
X-1964210D01*
X-1958790Y1225000D01*
X-1954730Y1218000D01*
X-1953370Y1210000D01*
X-1954730Y1202000D01*
X-1958110Y1196000D01*
X-1964210Y1193000D01*
X-1980470D01*
G01X-1897490Y1168000D02*
X-1924590D01*
Y1228000D01*
X-1897490D01*
G01X-1908330Y1199000D02*
X-1924590D01*
G01X-1868710Y1168000D02*
Y1228000D01*
X-1851770D01*
X-1846350Y1225000D01*
X-1842970Y1221000D01*
X-1841610Y1213000D01*
X-1842970Y1205000D01*
X-1847030Y1200000D01*
X-1851770Y1197000D01*
X-1868710D01*
G01X-1851770D02*
X-1841610Y1168000D01*
G01X-1743400Y1228000D02*
X-1748820Y1226000D01*
X-1752880Y1221000D01*
X-1755590Y1215000D01*
X-1757620Y1207000D01*
X-1758300Y1198000D01*
X-1757620Y1189000D01*
X-1755590Y1181000D01*
X-1752880Y1175000D01*
X-1748820Y1170000D01*
X-1743400Y1168000D01*
X-1737980Y1170000D01*
X-1733920Y1175000D01*
X-1731210Y1181000D01*
X-1729180Y1189000D01*
X-1728500Y1198000D01*
X-1729180Y1207000D01*
X-1731210Y1215000D01*
X-1733920Y1221000D01*
X-1737980Y1226000D01*
X-1743400Y1228000D01*
G01X-1687520Y1166000D02*
X-1688870Y1167000D01*
Y1169000D01*
X-1687520Y1170000D01*
X-1686170Y1169000D01*
Y1167000D01*
X-1687520Y1166000D01*
G01X-1631640Y1228000D02*
X-1637060Y1226000D01*
X-1641120Y1221000D01*
X-1643830Y1215000D01*
X-1645860Y1207000D01*
X-1646540Y1198000D01*
X-1645860Y1189000D01*
X-1643830Y1181000D01*
X-1641120Y1175000D01*
X-1637060Y1170000D01*
X-1631640Y1168000D01*
X-1626220Y1170000D01*
X-1622160Y1175000D01*
X-1619450Y1181000D01*
X-1617420Y1189000D01*
X-1616740Y1198000D01*
X-1617420Y1207000D01*
X-1619450Y1215000D01*
X-1622160Y1221000D01*
X-1626220Y1226000D01*
X-1631640Y1228000D01*
G01X-1577110Y1168000D02*
X-1575760Y1181000D01*
X-1573730Y1192000D01*
X-1571020Y1202000D01*
X-1567630Y1213000D01*
X-1562210Y1228000D01*
X-1589310D01*
G01X-1481610Y1168000D02*
Y1228000D01*
X-1464000Y1178000D01*
X-1446390Y1228000D01*
Y1168000D01*
G01X-1425730D02*
Y1228000D01*
X-1408120Y1178000D01*
X-1390510Y1228000D01*
Y1168000D01*
G01X-3322940Y2633000D02*
X-3293140Y2677000D01*
G01X-3308040Y2685000D02*
Y2625000D01*
G01X-3293140Y2633000D02*
X-3322940Y2677000D01*
G01X-3328360Y2655000D02*
X-3287720D01*
G01X-3155300Y2635000D02*
Y2695000D01*
X-3141750D01*
X-3136340Y2692000D01*
X-3132270Y2688000D01*
X-3128880Y2682000D01*
X-3126180Y2675000D01*
X-3125500Y2665000D01*
X-3126180Y2655000D01*
X-3128880Y2648000D01*
X-3132270Y2642000D01*
X-3136340Y2638000D01*
X-3141750Y2635000D01*
X-3155300D01*
G01X-3092650Y2695000D02*
X-3076390D01*
G01X-3084520D02*
Y2635000D01*
G01X-3092650D02*
X-3076390D01*
G01X-3015090D02*
X-3042190D01*
Y2695000D01*
X-3015090D01*
G01X-3025930Y2666000D02*
X-3042190D01*
G01X-2986310Y2695000D02*
Y2635000D01*
X-2959210D01*
G01X-2903330D02*
X-2930430D01*
Y2695000D01*
X-2903330D01*
G01X-2914170Y2666000D02*
X-2930430D01*
G01X-2846100Y2690000D02*
X-2850160Y2693000D01*
X-2854900Y2695000D01*
X-2860320D01*
X-2866420Y2692000D01*
X-2871160Y2687000D01*
X-2874550Y2681000D01*
X-2877260Y2671000D01*
X-2877930Y2662000D01*
X-2876580Y2653000D01*
X-2874550Y2647000D01*
X-2870480Y2641000D01*
X-2865740Y2637000D01*
X-2861000Y2635000D01*
X-2856260D01*
X-2851520Y2637000D01*
X-2847450Y2640000D01*
X-2844070Y2644000D01*
G01X-2805120Y2695000D02*
Y2635000D01*
G01X-2820700Y2695000D02*
X-2789540D01*
G01X-2762790Y2635000D02*
Y2695000D01*
X-2745850D01*
X-2740430Y2692000D01*
X-2737050Y2688000D01*
X-2735690Y2680000D01*
X-2737050Y2672000D01*
X-2741110Y2667000D01*
X-2745850Y2664000D01*
X-2762790D01*
G01X-2745850D02*
X-2735690Y2635000D01*
G01X-2701490Y2695000D02*
X-2685230D01*
G01X-2693360D02*
Y2635000D01*
G01X-2701490D02*
X-2685230D01*
G01X-2622580Y2690000D02*
X-2626640Y2693000D01*
X-2631380Y2695000D01*
X-2636800D01*
X-2642900Y2692000D01*
X-2647640Y2687000D01*
X-2651030Y2681000D01*
X-2653740Y2671000D01*
X-2654410Y2662000D01*
X-2653060Y2653000D01*
X-2651030Y2647000D01*
X-2646960Y2641000D01*
X-2642220Y2637000D01*
X-2637480Y2635000D01*
X-2632740D01*
X-2628000Y2637000D01*
X-2623930Y2640000D01*
X-2620550Y2644000D01*
G01X-2534530Y2655000D02*
X-2516910D01*
G01X-2426830Y2635000D02*
Y2695000D01*
X-2401090D01*
G01X-2410570Y2666000D02*
X-2426830D01*
G01X-2371630Y2635000D02*
Y2695000D01*
X-2354690D01*
X-2349270Y2692000D01*
X-2345890Y2688000D01*
X-2344530Y2680000D01*
X-2345890Y2672000D01*
X-2349950Y2667000D01*
X-2354690Y2664000D01*
X-2371630D01*
G01X-2354690D02*
X-2344530Y2635000D01*
G01X-2311010Y2655000D02*
X-2293390D01*
G01X-2238190Y2635000D02*
Y2695000D01*
X-2263250Y2652000D01*
X-2229390D01*
G01X-2134560Y2635000D02*
Y2695000D01*
X-2142690Y2683000D01*
G01Y2635000D02*
X-2126430D01*
G01X-2078680Y2633000D02*
X-2080030Y2634000D01*
Y2636000D01*
X-2078680Y2637000D01*
X-2077330Y2636000D01*
Y2634000D01*
X-2078680Y2633000D01*
G01X-2014670Y2635000D02*
Y2695000D01*
X-2039730Y2652000D01*
X-2005870D01*
G01X-1979790Y2660000D02*
X-1975050Y2667000D01*
X-1970980Y2671000D01*
X-1965570Y2673000D01*
X-1960820Y2671000D01*
X-1957440Y2667000D01*
X-1954730Y2661000D01*
X-1954050Y2654000D01*
X-1954730Y2648000D01*
X-1957440Y2642000D01*
X-1961500Y2637000D01*
X-1966240Y2635000D01*
X-1971660Y2637000D01*
X-1976400Y2643000D01*
X-1979110Y2652000D01*
X-1979790Y2662000D01*
X-1978440Y2675000D01*
X-1976400Y2682000D01*
X-1973020Y2689000D01*
X-1968270Y2694000D01*
X-1963530Y2695000D01*
X-1958790Y2693000D01*
X-1955400Y2688000D01*
G01X-1872770Y2635000D02*
Y2695000D01*
X-1855160Y2645000D01*
X-1837550Y2695000D01*
Y2635000D01*
G01X-1816890D02*
Y2695000D01*
X-1799280Y2645000D01*
X-1781670Y2695000D01*
Y2635000D01*
G01X-3322940Y4173000D02*
X-3293140Y4217000D01*
G01X-3308040Y4225000D02*
Y4165000D01*
G01X-3293140Y4173000D02*
X-3322940Y4217000D01*
G01X-3328360Y4195000D02*
X-3287720D01*
G01X-3154620Y4183000D02*
X-3149210Y4178000D01*
X-3143110Y4175000D01*
X-3137690D01*
X-3132270Y4178000D01*
X-3128210Y4183000D01*
X-3126180Y4190000D01*
X-3127530Y4197000D01*
X-3130920Y4203000D01*
X-3137010Y4207000D01*
X-3145140Y4209000D01*
X-3149880Y4213000D01*
X-3151920Y4220000D01*
X-3150560Y4227000D01*
X-3147170Y4232000D01*
X-3142430Y4235000D01*
X-3137690D01*
X-3132950Y4233000D01*
X-3128880Y4228000D01*
G01X-3099420Y4235000D02*
Y4192000D01*
X-3096710Y4183000D01*
X-3091290Y4177000D01*
X-3084520Y4175000D01*
X-3077750Y4177000D01*
X-3072330Y4183000D01*
X-3069620Y4192000D01*
Y4235000D01*
G01X-3042190Y4175000D02*
Y4235000D01*
X-3025250D01*
X-3019830Y4232000D01*
X-3016450Y4228000D01*
X-3015090Y4220000D01*
X-3016450Y4212000D01*
X-3020510Y4207000D01*
X-3025250Y4204000D01*
X-3042190D01*
G01X-3025250D02*
X-3015090Y4175000D01*
G01X-2985630D02*
Y4235000D01*
X-2959890D01*
G01X-2969370Y4206000D02*
X-2985630D01*
G01X-2933810Y4175000D02*
X-2916880Y4235000D01*
X-2899950Y4175000D01*
G01X-2906040Y4196000D02*
X-2927720D01*
G01X-2846100Y4230000D02*
X-2850160Y4233000D01*
X-2854900Y4235000D01*
X-2860320D01*
X-2866420Y4232000D01*
X-2871160Y4227000D01*
X-2874550Y4221000D01*
X-2877260Y4211000D01*
X-2877930Y4202000D01*
X-2876580Y4193000D01*
X-2874550Y4187000D01*
X-2870480Y4181000D01*
X-2865740Y4177000D01*
X-2861000Y4175000D01*
X-2856260D01*
X-2851520Y4177000D01*
X-2847450Y4180000D01*
X-2844070Y4184000D01*
G01X-2791570Y4175000D02*
X-2818670D01*
Y4235000D01*
X-2791570D01*
G01X-2802410Y4206000D02*
X-2818670D01*
G01X-2702170Y4195000D02*
X-2684550D01*
G01X-2598530Y4175000D02*
X-2581600Y4235000D01*
X-2564670Y4175000D01*
G01X-2570760Y4196000D02*
X-2592440D01*
G01X-2533850Y4235000D02*
X-2517590D01*
G01X-2525720D02*
Y4175000D01*
G01X-2533850D02*
X-2517590D01*
G01X-2483390D02*
Y4235000D01*
X-2466450D01*
X-2461030Y4232000D01*
X-2457650Y4228000D01*
X-2456290Y4220000D01*
X-2457650Y4212000D01*
X-2461710Y4207000D01*
X-2466450Y4204000D01*
X-2483390D01*
G01X-2466450D02*
X-2456290Y4175000D01*
G01X-2358080Y4235000D02*
X-2363500Y4233000D01*
X-2367560Y4228000D01*
X-2370270Y4222000D01*
X-2372300Y4214000D01*
X-2372980Y4205000D01*
X-2372300Y4196000D01*
X-2370270Y4188000D01*
X-2367560Y4182000D01*
X-2363500Y4177000D01*
X-2358080Y4175000D01*
X-2352660Y4177000D01*
X-2348600Y4182000D01*
X-2345890Y4188000D01*
X-2343860Y4196000D01*
X-2343180Y4205000D01*
X-2343860Y4214000D01*
X-2345890Y4222000D01*
X-2348600Y4228000D01*
X-2352660Y4233000D01*
X-2358080Y4235000D01*
G01X-2263930Y4175000D02*
Y4235000D01*
X-2246320Y4185000D01*
X-2228710Y4235000D01*
Y4175000D01*
G01X-2208050D02*
Y4235000D01*
X-2190440Y4185000D01*
X-2172830Y4235000D01*
Y4175000D01*
G01X-3433350Y4135000D02*
Y4075000D01*
X-3406250D01*
G01X-3363920D02*
Y4135000D01*
X-3372050Y4123000D01*
G01Y4075000D02*
X-3355790D01*
G01X-3308040Y4073000D02*
X-3309390Y4074000D01*
Y4076000D01*
X-3308040Y4077000D01*
X-3306690Y4076000D01*
Y4074000D01*
X-3308040Y4073000D01*
G01Y4100000D02*
X-3309390Y4101000D01*
Y4103000D01*
X-3308040Y4104000D01*
X-3306690Y4103000D01*
Y4101000D01*
X-3308040Y4100000D01*
G01X-3196280Y4135000D02*
Y4075000D01*
G01X-3211860Y4135000D02*
X-3180700D01*
G01X-3140400Y4075000D02*
X-3145820Y4076000D01*
X-3150560Y4080000D01*
X-3154620Y4086000D01*
X-3157330Y4093000D01*
X-3158690Y4101000D01*
Y4109000D01*
X-3157330Y4117000D01*
X-3154620Y4124000D01*
X-3150560Y4130000D01*
X-3145820Y4134000D01*
X-3140400Y4135000D01*
X-3134980Y4134000D01*
X-3130240Y4130000D01*
X-3126180Y4124000D01*
X-3123470Y4117000D01*
X-3122110Y4109000D01*
Y4101000D01*
X-3123470Y4093000D01*
X-3126180Y4086000D01*
X-3130240Y4080000D01*
X-3134980Y4076000D01*
X-3140400Y4075000D01*
G01X-3098070D02*
Y4135000D01*
X-3081810D01*
X-3076390Y4132000D01*
X-3072330Y4125000D01*
X-3070970Y4117000D01*
X-3072330Y4109000D01*
X-3075710Y4103000D01*
X-3081810Y4100000D01*
X-3098070D01*
G01X-2957860Y4130000D02*
X-2961920Y4133000D01*
X-2966660Y4135000D01*
X-2972080D01*
X-2978180Y4132000D01*
X-2982920Y4127000D01*
X-2986310Y4121000D01*
X-2989020Y4111000D01*
X-2989690Y4102000D01*
X-2988340Y4093000D01*
X-2986310Y4087000D01*
X-2982240Y4081000D01*
X-2977500Y4077000D01*
X-2972760Y4075000D01*
X-2968020D01*
X-2963280Y4077000D01*
X-2959210Y4080000D01*
X-2955830Y4084000D01*
G01X-2916880Y4075000D02*
X-2922300Y4076000D01*
X-2927040Y4080000D01*
X-2931100Y4086000D01*
X-2933810Y4093000D01*
X-2935170Y4101000D01*
Y4109000D01*
X-2933810Y4117000D01*
X-2931100Y4124000D01*
X-2927040Y4130000D01*
X-2922300Y4134000D01*
X-2916880Y4135000D01*
X-2911460Y4134000D01*
X-2906720Y4130000D01*
X-2902660Y4124000D01*
X-2899950Y4117000D01*
X-2898590Y4109000D01*
Y4101000D01*
X-2899950Y4093000D01*
X-2902660Y4086000D01*
X-2906720Y4080000D01*
X-2911460Y4076000D01*
X-2916880Y4075000D01*
G01X-2876580D02*
Y4135000D01*
X-2845420Y4075000D01*
Y4135000D01*
G01X-2820020Y4075000D02*
Y4135000D01*
X-2806470D01*
X-2801060Y4132000D01*
X-2796990Y4128000D01*
X-2793600Y4122000D01*
X-2790900Y4115000D01*
X-2790220Y4105000D01*
X-2790900Y4095000D01*
X-2793600Y4088000D01*
X-2796990Y4082000D01*
X-2801060Y4078000D01*
X-2806470Y4075000D01*
X-2820020D01*
G01X-2764140Y4135000D02*
Y4092000D01*
X-2761430Y4083000D01*
X-2756010Y4077000D01*
X-2749240Y4075000D01*
X-2742470Y4077000D01*
X-2737050Y4083000D01*
X-2734340Y4092000D01*
Y4135000D01*
G01X-2678460Y4130000D02*
X-2682520Y4133000D01*
X-2687260Y4135000D01*
X-2692680D01*
X-2698780Y4132000D01*
X-2703520Y4127000D01*
X-2706910Y4121000D01*
X-2709620Y4111000D01*
X-2710290Y4102000D01*
X-2708940Y4093000D01*
X-2706910Y4087000D01*
X-2702840Y4081000D01*
X-2698100Y4077000D01*
X-2693360Y4075000D01*
X-2688620D01*
X-2683880Y4077000D01*
X-2679810Y4080000D01*
X-2676430Y4084000D01*
G01X-2637480Y4135000D02*
Y4075000D01*
G01X-2653060Y4135000D02*
X-2621900D01*
G01X-2581600Y4075000D02*
X-2587020Y4076000D01*
X-2591760Y4080000D01*
X-2595820Y4086000D01*
X-2598530Y4093000D01*
X-2599890Y4101000D01*
Y4109000D01*
X-2598530Y4117000D01*
X-2595820Y4124000D01*
X-2591760Y4130000D01*
X-2587020Y4134000D01*
X-2581600Y4135000D01*
X-2576180Y4134000D01*
X-2571440Y4130000D01*
X-2567380Y4124000D01*
X-2564670Y4117000D01*
X-2563310Y4109000D01*
Y4101000D01*
X-2564670Y4093000D01*
X-2567380Y4086000D01*
X-2571440Y4080000D01*
X-2576180Y4076000D01*
X-2581600Y4075000D01*
G01X-2539270D02*
Y4135000D01*
X-2522330D01*
X-2516910Y4132000D01*
X-2513530Y4128000D01*
X-2512170Y4120000D01*
X-2513530Y4112000D01*
X-2517590Y4107000D01*
X-2522330Y4104000D01*
X-2539270D01*
G01X-2522330D02*
X-2512170Y4075000D01*
G01X-2422770Y4095000D02*
X-2405150D01*
G01X-2287300Y4130000D02*
X-2291360Y4133000D01*
X-2296100Y4135000D01*
X-2301520D01*
X-2307620Y4132000D01*
X-2312360Y4127000D01*
X-2315750Y4121000D01*
X-2318460Y4111000D01*
X-2319130Y4102000D01*
X-2317780Y4093000D01*
X-2315750Y4087000D01*
X-2311680Y4081000D01*
X-2306940Y4077000D01*
X-2302200Y4075000D01*
X-2297460D01*
X-2292720Y4077000D01*
X-2288650Y4080000D01*
X-2285270Y4084000D01*
G01X-2246320Y4075000D02*
X-2251740Y4076000D01*
X-2256480Y4080000D01*
X-2260540Y4086000D01*
X-2263250Y4093000D01*
X-2264610Y4101000D01*
Y4109000D01*
X-2263250Y4117000D01*
X-2260540Y4124000D01*
X-2256480Y4130000D01*
X-2251740Y4134000D01*
X-2246320Y4135000D01*
X-2240900Y4134000D01*
X-2236160Y4130000D01*
X-2232100Y4124000D01*
X-2229390Y4117000D01*
X-2228030Y4109000D01*
Y4101000D01*
X-2229390Y4093000D01*
X-2232100Y4086000D01*
X-2236160Y4080000D01*
X-2240900Y4076000D01*
X-2246320Y4075000D01*
G01X-2203990D02*
Y4135000D01*
X-2187730D01*
X-2182310Y4132000D01*
X-2178250Y4125000D01*
X-2176890Y4117000D01*
X-2178250Y4109000D01*
X-2181630Y4103000D01*
X-2187730Y4100000D01*
X-2203990D01*
G01X-2148110Y4075000D02*
Y4135000D01*
X-2131850D01*
X-2126430Y4132000D01*
X-2122370Y4125000D01*
X-2121010Y4117000D01*
X-2122370Y4109000D01*
X-2125750Y4103000D01*
X-2131850Y4100000D01*
X-2148110D01*
G01X-2065130Y4075000D02*
X-2092230D01*
Y4135000D01*
X-2065130D01*
G01X-2075970Y4106000D02*
X-2092230D01*
G01X-2036350Y4075000D02*
Y4135000D01*
X-2019410D01*
X-2013990Y4132000D01*
X-2010610Y4128000D01*
X-2009250Y4120000D01*
X-2010610Y4112000D01*
X-2014670Y4107000D01*
X-2019410Y4104000D01*
X-2036350D01*
G01X-2019410D02*
X-2009250Y4075000D01*
G01X-1911040Y4135000D02*
X-1916460Y4133000D01*
X-1920520Y4128000D01*
X-1923230Y4122000D01*
X-1925260Y4114000D01*
X-1925940Y4105000D01*
X-1925260Y4096000D01*
X-1923230Y4088000D01*
X-1920520Y4082000D01*
X-1916460Y4077000D01*
X-1911040Y4075000D01*
X-1905620Y4077000D01*
X-1901560Y4082000D01*
X-1898850Y4088000D01*
X-1896820Y4096000D01*
X-1896140Y4105000D01*
X-1896820Y4114000D01*
X-1898850Y4122000D01*
X-1901560Y4128000D01*
X-1905620Y4133000D01*
X-1911040Y4135000D01*
G01X-1855160Y4073000D02*
X-1856510Y4074000D01*
Y4076000D01*
X-1855160Y4077000D01*
X-1853810Y4076000D01*
Y4074000D01*
X-1855160Y4073000D01*
G01X-1799280Y4135000D02*
X-1804700Y4133000D01*
X-1808760Y4128000D01*
X-1811470Y4122000D01*
X-1813500Y4114000D01*
X-1814180Y4105000D01*
X-1813500Y4096000D01*
X-1811470Y4088000D01*
X-1808760Y4082000D01*
X-1804700Y4077000D01*
X-1799280Y4075000D01*
X-1793860Y4077000D01*
X-1789800Y4082000D01*
X-1787090Y4088000D01*
X-1785060Y4096000D01*
X-1784380Y4105000D01*
X-1785060Y4114000D01*
X-1787090Y4122000D01*
X-1789800Y4128000D01*
X-1793860Y4133000D01*
X-1799280Y4135000D01*
G01X-1744750Y4075000D02*
X-1743400Y4088000D01*
X-1741370Y4099000D01*
X-1738660Y4109000D01*
X-1735270Y4120000D01*
X-1729850Y4135000D01*
X-1756950D01*
G01X-1649250Y4075000D02*
Y4135000D01*
X-1631640Y4085000D01*
X-1614030Y4135000D01*
Y4075000D01*
G01X-1593370D02*
Y4135000D01*
X-1575760Y4085000D01*
X-1558150Y4135000D01*
Y4075000D01*
M02*
